<svg width="46" height="46" viewBox="0 0 46 46" fill="none" xmlns="http://www.w3.org/2000/svg">
<path d="M29.167 24.2052L28.8144 24.1283H28.6285C28.3366 24.075 28.0406 24.0471 27.7439 24.0449C27.0527 24.0431 26.3667 24.1647 25.7182 24.4039C25.2649 24.5777 24.8344 24.8058 24.4361 25.0834C24.177 25.2624 23.9327 25.4618 23.7053 25.6796L23.4296 25.9681C23.3784 26.0322 23.3271 26.0771 23.2694 26.1412C23.2117 26.2053 23.1924 26.2373 23.1604 26.2886C23.005 26.4925 22.8637 26.7067 22.7373 26.9297C22.6547 27.0542 22.5818 27.1849 22.5193 27.3207C22.4953 27.3665 22.4739 27.4135 22.4552 27.4617C22.3355 27.7028 22.2368 27.9537 22.1604 28.2117C22.1143 28.3588 22.0778 28.5087 22.0514 28.6605V28.7438C21.9993 28.9573 21.9587 29.1734 21.9296 29.3913C21.92 29.5193 21.92 29.6479 21.9296 29.7759C21.92 29.9168 21.92 30.0581 21.9296 30.199C21.9296 30.2631 21.9296 30.3144 21.9296 30.3785C21.9361 30.4796 21.9489 30.5803 21.968 30.6798C21.968 30.7823 22.0001 30.8849 22.0193 30.9811H23.1283C23.1283 30.8849 23.0835 30.7823 23.0642 30.6798C23.045 30.5772 23.0194 30.4105 23.0065 30.2759C23.0033 30.2504 23.0033 30.2245 23.0065 30.199C22.9937 30.0583 22.9937 29.9166 23.0065 29.7759C23.0065 29.6477 23.0065 29.5195 23.0386 29.3913C23.0707 29.2631 23.0386 29.2054 23.0707 29.1156C23.1027 29.0259 23.1348 28.7823 23.1796 28.6156C23.2245 28.4489 23.2694 28.3143 23.3271 28.1669C23.484 27.7593 23.7 27.377 23.9681 27.0322L24.0579 26.8848L24.0899 26.8271C24.2606 26.6241 24.4518 26.4394 24.6604 26.2758C24.7922 26.1599 24.9314 26.0529 25.0771 25.9553C25.231 25.8527 25.3912 25.7565 25.5579 25.6668C26.2303 25.3064 26.981 25.1171 27.7439 25.1155C28.2011 25.1191 28.6551 25.1926 29.0901 25.3334C29.669 25.4999 30.2122 25.7715 30.6927 26.1348V24.8527C30.215 24.5703 29.702 24.3526 29.167 24.2052ZM29.167 24.2052L28.8144 24.1283H28.6285C28.3366 24.075 28.0406 24.0471 27.7439 24.0449C27.0527 24.0431 26.3667 24.1647 25.7182 24.4039C25.2649 24.5777 24.8344 24.8058 24.4361 25.0834C24.177 25.2624 23.9327 25.4618 23.7053 25.6796L23.4296 25.9681C23.3784 26.0322 23.3271 26.0771 23.2694 26.1412C23.2117 26.2053 23.1924 26.2373 23.1604 26.2886C23.005 26.4925 22.8637 26.7067 22.7373 26.9297C22.6547 27.0542 22.5818 27.1849 22.5193 27.3207C22.4953 27.3665 22.4739 27.4135 22.4552 27.4617C22.3355 27.7028 22.2368 27.9537 22.1604 28.2117C22.1143 28.3588 22.0778 28.5087 22.0514 28.6605V28.7438C21.9993 28.9573 21.9587 29.1734 21.9296 29.3913C21.92 29.5193 21.92 29.6479 21.9296 29.7759C21.92 29.9168 21.92 30.0581 21.9296 30.199C21.9296 30.2631 21.9296 30.3144 21.9296 30.3785C21.9361 30.4796 21.9489 30.5803 21.968 30.6798C21.968 30.7823 22.0001 30.8849 22.0193 30.9811H23.1283C23.1283 30.8849 23.0835 30.7823 23.0642 30.6798C23.045 30.5772 23.0194 30.4105 23.0065 30.2759C23.0033 30.2504 23.0033 30.2245 23.0065 30.199C22.9937 30.0583 22.9937 29.9166 23.0065 29.7759C23.0065 29.6477 23.0065 29.5195 23.0386 29.3913C23.0707 29.2631 23.0386 29.2054 23.0707 29.1156C23.1027 29.0259 23.1348 28.7823 23.1796 28.6156C23.2245 28.4489 23.2694 28.3143 23.3271 28.1669C23.484 27.7593 23.7 27.377 23.9681 27.0322L24.0579 26.8848L24.0899 26.8271C24.2606 26.6241 24.4518 26.4394 24.6604 26.2758C24.7922 26.1599 24.9314 26.0529 25.0771 25.9553C25.231 25.8527 25.3912 25.7565 25.5579 25.6668C26.2303 25.3064 26.981 25.1171 27.7439 25.1155C28.2011 25.1191 28.6551 25.1926 29.0901 25.3334C29.669 25.4999 30.2122 25.7715 30.6927 26.1348V24.8527C30.215 24.5703 29.702 24.3526 29.167 24.2052ZM37.1929 36.6672L33.4428 33.5453L33.3659 33.4876L33.1928 33.6927L32.5517 33.135C33.2682 32.1135 33.6343 30.8873 33.595 29.6402C33.5557 28.3932 33.1132 27.1924 32.3338 26.2181C32.212 26.0642 32.0774 25.9168 31.9427 25.7758C31.8081 25.6347 31.6543 25.5001 31.5004 25.3719C31.354 25.2469 31.1999 25.1313 31.0389 25.0257H30.9876C30.9029 24.9677 30.8152 24.9142 30.7248 24.8655C30.2447 24.5848 29.7295 24.3692 29.1927 24.2244L28.8401 24.1475H28.6542C28.3623 24.0942 28.0663 24.0663 27.7695 24.0642C27.0783 24.0623 26.3923 24.1839 25.7438 24.4232C25.2905 24.5969 24.86 24.8251 24.4617 25.1027C24.2027 25.2817 23.9583 25.481 23.7309 25.6988L23.4553 25.9873C23.404 26.0514 23.3527 26.0963 23.295 26.1604C23.2373 26.2245 23.2181 26.2566 23.186 26.3078C23.0307 26.5117 22.8893 26.7259 22.7629 26.9489C22.6803 27.0734 22.6075 27.2042 22.545 27.3399C22.521 27.3857 22.4996 27.4328 22.4809 27.481C22.3611 27.722 22.2625 27.9729 22.186 28.231C22.1399 28.378 22.1035 28.5279 22.077 28.6797V28.7631C22.017 28.9698 21.9678 29.1794 21.9296 29.3913C21.92 29.5193 21.92 29.6479 21.9296 29.7759C21.92 29.9168 21.92 30.0581 21.9296 30.199C21.9296 30.2631 21.9296 30.3144 21.9296 30.3785C21.9361 30.4796 21.9489 30.5803 21.968 30.6798C21.968 30.7823 22.0001 30.8849 22.0193 30.9811C22.0827 31.2959 22.1728 31.6047 22.2886 31.9042C22.3206 31.9747 22.3463 32.0644 22.3847 32.135C22.4232 32.2055 22.4617 32.2952 22.4937 32.3721C22.6245 32.6573 22.7811 32.9298 22.9617 33.1863C22.9965 33.2422 23.035 33.2958 23.0771 33.3465C23.1011 33.3875 23.1291 33.4262 23.1604 33.4619C23.4125 33.7782 23.696 34.0682 24.0066 34.3273L24.1156 34.4171C24.154 34.4171 24.1861 34.4748 24.2309 34.5004C25.2378 35.2701 26.4701 35.6869 27.7375 35.6864C28.1959 35.6845 28.6523 35.6264 29.0965 35.5133C29.5409 35.4086 29.9712 35.2515 30.3786 35.0453L30.7119 34.8594C31.1053 34.6159 31.4707 34.33 31.8017 34.0068L31.853 34.0581L32.1992 34.3402L32.4492 34.5517L32.2697 34.7568L32.353 34.8209L36.0967 37.9493C36.1239 37.974 36.1593 37.9878 36.1961 37.9878C36.2329 37.9878 36.2683 37.974 36.2955 37.9493L37.1609 36.9108C37.1858 36.9033 37.208 36.8888 37.2248 36.8691C37.2416 36.8493 37.2524 36.8251 37.2558 36.7993C37.2592 36.7736 37.255 36.7474 37.2439 36.724C37.2327 36.7005 37.215 36.6808 37.1929 36.6672ZM32.3081 31.1285C32.2197 31.4686 32.0883 31.796 31.9171 32.1029C31.7674 32.3829 31.5868 32.6452 31.3786 32.885C31.3086 32.9784 31.2315 33.0663 31.1478 33.1478C31.1078 33.1934 31.0626 33.2343 31.0132 33.2696C30.9147 33.3643 30.8097 33.4522 30.6991 33.5324C30.1535 33.9591 29.5246 34.267 28.8529 34.4363C28.4886 34.5441 28.111 34.6002 27.7311 34.603C27.2971 34.601 26.8656 34.5384 26.449 34.4171C25.8132 34.2338 25.2219 33.9218 24.7117 33.5004V33.4619C24.6074 33.3768 24.5088 33.2847 24.4168 33.1863C24.1737 32.9394 23.9587 32.6664 23.7758 32.3721C23.7227 32.2969 23.6756 32.2176 23.6348 32.135L23.513 31.9042C23.3676 31.6092 23.2538 31.2998 23.1732 30.9811C23.1732 30.8849 23.1283 30.7823 23.1091 30.6798C23.0899 30.5772 23.0642 30.4105 23.0514 30.2759C23.0482 30.2504 23.0482 30.2245 23.0514 30.199C23.0386 30.0583 23.0386 29.9166 23.0514 29.7759C23.0514 29.6477 23.0514 29.5195 23.0835 29.3913C23.1155 29.2631 23.0835 29.2054 23.1155 29.1156C23.1476 29.0259 23.1796 28.7823 23.2245 28.6156C23.2694 28.4489 23.3142 28.3143 23.3719 28.1669C23.5289 27.7593 23.7448 27.377 24.013 27.0322L24.1027 26.8848L24.0899 26.8271C24.2606 26.6241 24.4518 26.4394 24.6604 26.2758C24.7922 26.1599 24.9314 26.0529 25.0771 25.9553C25.231 25.8527 25.3912 25.7565 25.5579 25.6668C26.2303 25.3064 26.981 25.1171 27.7439 25.1155C28.2011 25.1191 28.6551 25.1926 29.0901 25.3334C29.669 25.4999 30.2122 25.7715 30.6927 26.1348H30.7248L30.776 26.1732C30.8591 26.239 30.9364 26.312 31.0068 26.3912C31.371 26.7295 31.6765 27.1259 31.9107 27.5643C32.0793 27.8769 32.2106 28.2082 32.3017 28.5515C32.3868 28.8248 32.4427 29.1063 32.4684 29.3913C32.5253 29.9753 32.4709 30.5648 32.3081 31.1285ZM29.167 24.2052L28.8144 24.1283H28.6285C28.3366 24.075 28.0406 24.0471 27.7439 24.0449C27.0527 24.0431 26.3667 24.1647 25.7182 24.4039C25.2649 24.5777 24.8344 24.8058 24.4361 25.0834C24.177 25.2624 23.9327 25.4618 23.7053 25.6796L23.4296 25.9681C23.3784 26.0322 23.3271 26.0771 23.2694 26.1412C23.2117 26.2053 23.1924 26.2373 23.1604 26.2886C23.005 26.4925 22.8637 26.7067 22.7373 26.9297C22.6547 27.0542 22.5818 27.1849 22.5193 27.3207C22.4953 27.3665 22.4739 27.4135 22.4552 27.4617C22.3355 27.7028 22.2368 27.9537 22.1604 28.2117C22.1143 28.3588 22.0778 28.5087 22.0514 28.6605V28.7438C21.9993 28.9573 21.9587 29.1734 21.9296 29.3913C21.92 29.5193 21.92 29.6479 21.9296 29.7759C21.92 29.9168 21.92 30.0581 21.9296 30.199C21.9296 30.2631 21.9296 30.3144 21.9296 30.3785C21.9361 30.4796 21.9489 30.5803 21.968 30.6798C21.968 30.7823 22.0001 30.8849 22.0193 30.9811H23.1283C23.1283 30.8849 23.0835 30.7823 23.0642 30.6798C23.045 30.5772 23.0194 30.4105 23.0065 30.2759C23.0033 30.2504 23.0033 30.2245 23.0065 30.199C22.9937 30.0583 22.9937 29.9166 23.0065 29.7759C23.0065 29.6477 23.0065 29.5195 23.0386 29.3913C23.0707 29.2631 23.0386 29.2054 23.0707 29.1156C23.1027 29.0259 23.1348 28.7823 23.1796 28.6156C23.2245 28.4489 23.2694 28.3143 23.3271 28.1669C23.484 27.7593 23.7 27.377 23.9681 27.0322L24.0579 26.8848L24.0899 26.8271C24.2606 26.6241 24.4518 26.4394 24.6604 26.2758C24.7922 26.1599 24.9314 26.0529 25.0771 25.9553C25.231 25.8527 25.3912 25.7565 25.5579 25.6668C26.2303 25.3064 26.981 25.1171 27.7439 25.1155C28.2011 25.1191 28.6551 25.1926 29.0901 25.3334C29.669 25.4999 30.2122 25.7715 30.6927 26.1348V24.8527C30.215 24.5703 29.702 24.3526 29.167 24.2052ZM29.167 24.2052L28.8144 24.1283H28.6285C28.3366 24.075 28.0406 24.0471 27.7439 24.0449C27.0527 24.0431 26.3667 24.1647 25.7182 24.4039C25.2649 24.5777 24.8344 24.8058 24.4361 25.0834C24.177 25.2624 23.9327 25.4618 23.7053 25.6796L23.4296 25.9681C23.3784 26.0322 23.3271 26.0771 23.2694 26.1412C23.2117 26.2053 23.1924 26.2373 23.1604 26.2886C23.005 26.4925 22.8637 26.7067 22.7373 26.9297C22.6547 27.0542 22.5818 27.1849 22.5193 27.3207C22.4953 27.3665 22.4739 27.4135 22.4552 27.4617C22.3355 27.7028 22.2368 27.9537 22.1604 28.2117C22.1143 28.3588 22.0778 28.5087 22.0514 28.6605V28.7438C21.9993 28.9573 21.9587 29.1734 21.9296 29.3913C21.92 29.5193 21.92 29.6479 21.9296 29.7759C21.92 29.9168 21.92 30.0581 21.9296 30.199C21.9296 30.2631 21.9296 30.3144 21.9296 30.3785C21.9361 30.4796 21.9489 30.5803 21.968 30.6798C21.968 30.7823 22.0001 30.8849 22.0193 30.9811H23.1283C23.1283 30.8849 23.0835 30.7823 23.0642 30.6798C23.045 30.5772 23.0194 30.4105 23.0065 30.2759C23.0033 30.2504 23.0033 30.2245 23.0065 30.199C22.9937 30.0583 22.9937 29.9166 23.0065 29.7759C23.0065 29.6477 23.0065 29.5195 23.0386 29.3913C23.0707 29.2631 23.0386 29.2054 23.0707 29.1156C23.1027 29.0259 23.1348 28.7823 23.1796 28.6156C23.2245 28.4489 23.2694 28.3143 23.3271 28.1669C23.484 27.7593 23.7 27.377 23.9681 27.0322L24.0579 26.8848L24.0899 26.8271C24.2606 26.6241 24.4518 26.4394 24.6604 26.2758C24.7922 26.1599 24.9314 26.0529 25.0771 25.9553C25.231 25.8527 25.3912 25.7565 25.5579 25.6668C26.2303 25.3064 26.981 25.1171 27.7439 25.1155C28.2011 25.1191 28.6551 25.1926 29.0901 25.3334C29.669 25.4999 30.2122 25.7715 30.6927 26.1348V24.8527C30.215 24.5703 29.702 24.3526 29.167 24.2052Z" fill="white"/>
<path d="M25 34H24L23 35V36H30L31 35H26L25 34Z" fill="white"/>
<path d="M27.7632 10.6914H13.282C12.1797 10.6914 11.1224 11.1289 10.3424 11.9077C9.56236 12.6865 9.12328 13.7431 9.12158 14.8454V33.7563C9.12242 34.3018 9.2307 34.8418 9.44024 35.3455C9.64977 35.8491 9.95646 36.3066 10.3428 36.6917C10.7291 37.0769 11.1875 37.3821 11.6918 37.5901C12.1961 37.7981 12.7365 37.9047 13.282 37.9039H27.7632C28.75 37.904 29.7045 37.5523 30.4553 36.912C31.2061 36.2716 31.704 35.3846 31.8595 34.4102C31.8843 34.2854 31.8993 34.159 31.9044 34.0319C31.9044 33.9358 31.9044 33.846 31.9044 33.7563V32.1024C31.7547 32.3824 31.5741 32.6447 31.3659 32.8845C31.2959 32.9779 31.2188 33.0658 31.1351 33.1473C31.0951 33.1929 31.0499 33.2338 31.0005 33.2691C30.902 33.3638 30.797 33.4517 30.6864 33.5319V33.7563C30.6842 34.148 30.6059 34.5356 30.4556 34.8974L30.3851 35.0448C30.1431 35.5372 29.7681 35.9519 29.3024 36.242C28.8367 36.532 28.299 36.6858 27.7504 36.6859H13.282C12.5038 36.6859 11.7573 36.3776 11.2059 35.8286C10.6545 35.2796 10.343 34.5344 10.3396 33.7563V14.8454C10.343 14.0672 10.6545 13.3221 11.2059 12.7731C11.7573 12.224 12.5038 11.9158 13.282 11.9158H27.7632C28.5397 11.9175 29.2839 12.2267 29.8329 12.7757C30.3819 13.3248 30.6911 14.0689 30.6928 14.8454V26.1342H30.7249L30.7762 26.1727C30.8593 26.2385 30.9365 26.3114 31.0069 26.3907C31.3711 26.7289 31.6766 27.1254 31.9108 27.5638V14.8454C31.9108 13.7448 31.474 12.6892 30.6964 11.9103C29.9188 11.1315 28.8638 10.6931 27.7632 10.6914Z" fill="white"/>
<path fill-rule="evenodd" clip-rule="evenodd" d="M14 9C11.2386 9 9 11.2386 9 14V33C9 35.7614 11.2386 38 14 38H27C29.3693 38 31.3537 36.352 31.8695 34.1398C30.876 35.2824 29.4416 35.9998 27.8467 35.9998C25.7714 35.9998 23.968 34.7852 23.0539 33H12.9999V32H22.6549C22.56 31.678 22.4919 31.3437 22.4533 31H12.9999V30H22.4253C22.4444 29.6576 22.4925 29.3234 22.5673 29H12.9999V28H22.8963C23.0499 27.6457 23.2374 27.3109 23.4545 27H12.9999V25H24.9999C24.8065 25.2674 24.6284 25.5677 24.4682 25.8963C25.3955 25.1265 26.5696 24.6665 27.8467 24.6665C29.5129 24.6665 31.0038 25.4495 32 26.6822V14C32 11.2386 29.7614 9 27 9H14ZM19.4397 13H13.5536C13.4061 13.0022 13.2653 13.0796 13.1617 13.2153C13.058 13.351 12.9999 13.5341 12.9999 13.7249V16.2836C13.0016 16.4729 13.0605 16.6538 13.164 16.7877C13.2674 16.9216 13.4073 16.9978 13.5536 17H19.4397C19.5871 17 19.7286 16.9248 19.8335 16.7907C19.9384 16.6566 19.9982 16.4744 19.9999 16.2836V13.7249C19.9999 13.6297 19.9854 13.5355 19.9573 13.4475C19.9291 13.3596 19.8878 13.2796 19.8358 13.2123C19.7838 13.145 19.722 13.0916 19.6541 13.0552C19.5861 13.0188 19.5132 13 19.4397 13ZM28.9999 19H12.9999V21H28.9999V19ZM12.9999 22H28.9999V24H12.9999V22Z" fill="white"/>
</svg>
