<svg width="40" height="25" viewBox="0 0 40 25" fill="none" xmlns="http://www.w3.org/2000/svg">
<path d="M0 5C0 2.23858 1.61178 0 3.6 0H36.4C38.3882 0 40 2.23858 40 5V20C40 22.7614 38.3882 25 36.4 25H3.6C1.61177 25 0 22.7614 0 20V5Z" fill="#4BCD49"/>
<path fill-rule="evenodd" clip-rule="evenodd" d="M9.98215 5.87662L4.97008 7.56961V11.3959C4.97008 13.4393 6.11365 15.0035 7.39901 16.1188C8.51311 17.0855 9.65237 17.6403 9.98108 17.79C10.307 17.6418 11.4488 17.0869 12.5654 16.1183C13.8507 15.0032 14.9942 13.4393 14.9942 11.3959V7.56961L9.98215 5.87662ZM9.89246 17.8291C9.89248 17.8291 9.8925 17.8291 9.89252 17.8291L9.89246 17.8291ZM4.82 7.6203L4.82206 7.6196C4.82138 7.61984 4.82069 7.62007 4.82 7.6203ZM4.50749 6.7154L9.74187 4.94732C9.89741 4.89386 10.0669 4.89386 10.2224 4.94732L15.4568 6.7154C15.7609 6.81736 15.9643 7.0995 15.9643 7.41827V11.3959C15.9643 16.2507 10.5066 18.6098 10.2743 18.7078C10.1806 18.7474 10.0819 18.7672 9.98215 18.7672C9.88245 18.7672 9.78374 18.7474 9.69002 18.7088C9.45772 18.6108 4 16.2507 4 11.3959V7.41827C4 7.0995 4.20339 6.81736 4.50749 6.7154Z" fill="white"/>
<path d="M23.5991 10.9769H21.3082L20.8727 12.2425H19.4834L21.8439 6.1H23.0547L25.4282 12.2425H24.0389L23.5991 10.9769ZM21.661 9.95172H23.2463L22.4493 7.6525L21.661 9.95172Z" fill="white"/>
<path d="M29.8357 9.58047H27.3271V11.2258H30.2712V12.2425H26.0206V6.1H30.2625V7.12516H27.3271V8.58906H29.8357V9.58047Z" fill="white"/>
<path d="M34.3259 10.6309C34.3259 10.3919 34.2388 10.2091 34.0646 10.0825C33.8904 9.95313 33.5768 9.81813 33.1239 9.6775C32.6709 9.53406 32.3124 9.39344 32.0482 9.25563C31.3281 8.87875 30.9681 8.37109 30.9681 7.73266C30.9681 7.40078 31.0639 7.10547 31.2555 6.84672C31.45 6.58516 31.7273 6.38125 32.0874 6.235C32.4503 6.08875 32.8568 6.01562 33.3068 6.01562C33.7597 6.01562 34.1633 6.09578 34.5176 6.25609C34.8718 6.41359 35.1462 6.63719 35.3407 6.92688C35.5381 7.21656 35.6368 7.54563 35.6368 7.91406H34.3303C34.3303 7.63281 34.2388 7.41484 34.0559 7.26016C33.873 7.10266 33.616 7.02391 33.285 7.02391C32.9657 7.02391 32.7174 7.09 32.5403 7.22219C32.3632 7.35156 32.2746 7.52313 32.2746 7.73688C32.2746 7.93656 32.3777 8.10391 32.5838 8.23891C32.7929 8.37391 33.0992 8.50047 33.5028 8.61859C34.2461 8.83516 34.7876 9.10375 35.1273 9.42438C35.467 9.745 35.6368 10.1444 35.6368 10.6225C35.6368 11.1541 35.4292 11.5717 35.014 11.8755C34.5989 12.1764 34.0399 12.3269 33.3373 12.3269C32.8495 12.3269 32.4053 12.2411 32.0046 12.0695C31.6039 11.8952 31.2976 11.6575 31.0857 11.3566C30.8766 11.0556 30.7721 10.7069 30.7721 10.3103H32.083C32.083 10.9881 32.5011 11.327 33.3373 11.327C33.648 11.327 33.8904 11.2666 34.0646 11.1456C34.2388 11.0219 34.3259 10.8503 34.3259 10.6309Z" fill="white"/>
<path d="M22.4139 18.0021H19.7491V17.5617L21.0692 16.1669C21.2598 15.9612 21.395 15.7898 21.4748 15.6527C21.5565 15.5139 21.5973 15.375 21.5973 15.2361C21.5973 15.0533 21.5438 14.9057 21.4367 14.7932C21.3315 14.6807 21.189 14.6244 21.0094 14.6244C20.7952 14.6244 20.6292 14.6877 20.5112 14.8143C20.3933 14.9408 20.3343 15.114 20.3343 15.3337H19.6729C19.6729 15.0999 19.7273 14.8898 19.8362 14.7035C19.9469 14.5154 20.1038 14.3695 20.3071 14.2658C20.5121 14.1621 20.748 14.1103 21.0148 14.1103C21.3995 14.1103 21.7026 14.2043 21.9239 14.3924C22.1472 14.5787 22.2588 14.8371 22.2588 15.1676C22.2588 15.3592 22.2025 15.5605 22.09 15.7714C21.9793 15.9806 21.7969 16.2188 21.5429 16.4859L20.5738 17.4905H22.4139V18.0021Z" fill="white"/>
<path d="M23.0944 16.0983L23.3094 14.163H25.4381V14.7167H23.8593L23.7504 15.6343C23.9337 15.5323 24.1406 15.4813 24.371 15.4813C24.7485 15.4813 25.0415 15.5982 25.2502 15.832C25.4607 16.0658 25.566 16.3805 25.566 16.776C25.566 17.1662 25.4498 17.4773 25.2176 17.7094C24.9853 17.9397 24.6668 18.0548 24.2621 18.0548C23.8992 18.0548 23.598 17.9555 23.3584 17.7568C23.1207 17.5564 22.9919 17.2928 22.9719 16.9658H23.6116C23.637 17.1522 23.706 17.2954 23.8185 17.3956C23.931 17.494 24.078 17.5433 24.2594 17.5433C24.4627 17.5433 24.6205 17.473 24.7331 17.3323C24.8474 17.1917 24.9045 17.0001 24.9045 16.7575C24.9045 16.5237 24.8419 16.3392 24.7167 16.2038C24.5915 16.0667 24.4191 15.9981 24.1995 15.9981C24.0798 15.9981 23.9782 16.014 23.8947 16.0456C23.8112 16.0755 23.7205 16.1353 23.6225 16.2249L23.0944 16.0983Z" fill="white"/>
<path d="M28.1437 14.1445V14.6745H28.0621C27.6919 14.6798 27.3961 14.7782 27.1747 14.9698C26.9533 15.1614 26.8217 15.433 26.78 15.7846C26.9923 15.5684 27.2636 15.4603 27.5939 15.4603C27.9441 15.4603 28.2199 15.5798 28.4214 15.8188C28.6246 16.0579 28.7262 16.3664 28.7262 16.7443C28.7262 17.1346 28.6074 17.451 28.3696 17.6936C28.1337 17.9344 27.8234 18.0548 27.4387 18.0548C27.0431 18.0548 26.7219 17.9133 26.4751 17.6303C26.2302 17.3473 26.1077 16.9764 26.1077 16.5176V16.2987C26.1077 15.6255 26.2764 15.0981 26.614 14.7167C26.9533 14.3353 27.4405 14.1445 28.0757 14.1445H28.1437ZM27.4333 15.9771C27.2881 15.9771 27.1547 16.0166 27.0331 16.0957C26.9134 16.1748 26.8254 16.2803 26.7691 16.4121V16.6072C26.7691 16.892 26.8308 17.1188 26.9542 17.2875C27.0776 17.4545 27.2373 17.538 27.4333 17.538C27.6293 17.538 27.7844 17.4668 27.8987 17.3244C28.0131 17.182 28.0702 16.9948 28.0702 16.7628C28.0702 16.5308 28.0122 16.3418 27.896 16.1959C27.7799 16.05 27.6256 15.9771 27.4333 15.9771Z" fill="white"/>
<path d="M29.3605 18.0021V14.163H30.7187C31.167 14.163 31.5081 14.25 31.7422 14.424C31.9763 14.598 32.0933 14.8573 32.0933 15.2019C32.0933 15.3776 32.0444 15.5358 31.9464 15.6765C31.8484 15.8171 31.705 15.9261 31.5163 16.0034C31.7304 16.0597 31.8955 16.166 32.0117 16.3225C32.1296 16.4772 32.1886 16.6635 32.1886 16.8814C32.1886 17.2418 32.0689 17.5187 31.8293 17.712C31.5916 17.9054 31.2504 18.0021 30.8058 18.0021H29.3605ZM30.0491 16.2697V17.4694H30.814C31.03 17.4694 31.1987 17.4176 31.3203 17.3139C31.4419 17.2102 31.5027 17.066 31.5027 16.8814C31.5027 16.4824 31.2922 16.2785 30.8712 16.2697H30.0491ZM30.0491 15.7793H30.7242C30.9383 15.7793 31.1053 15.7327 31.225 15.6396C31.3466 15.5446 31.4074 15.411 31.4074 15.2388C31.4074 15.0489 31.3511 14.9118 31.2386 14.8274C31.1279 14.7431 30.9546 14.7009 30.7187 14.7009H30.0491V15.7793Z" fill="white"/>
<path d="M33.517 18.0021H32.8555V15.1491H33.517V18.0021ZM32.8147 14.4082C32.8147 14.3098 32.8464 14.228 32.9099 14.163C32.9753 14.0979 33.0678 14.0654 33.1876 14.0654C33.3074 14.0654 33.3999 14.0979 33.4652 14.163C33.5306 14.228 33.5632 14.3098 33.5632 14.4082C33.5632 14.5049 33.5306 14.5857 33.4652 14.6508C33.3999 14.7141 33.3074 14.7457 33.1876 14.7457C33.0678 14.7457 32.9753 14.7141 32.9099 14.6508C32.8464 14.5857 32.8147 14.5049 32.8147 14.4082Z" fill="white"/>
<path d="M35.0685 14.4557V15.1491H35.5884V15.6237H35.0685V17.2163C35.0685 17.3253 35.0903 17.4044 35.1338 17.4536C35.1792 17.5011 35.259 17.5248 35.3734 17.5248C35.4496 17.5248 35.5267 17.516 35.6047 17.4984V17.9941C35.4541 18.0346 35.3089 18.0548 35.1692 18.0548C34.6611 18.0548 34.4071 17.7832 34.4071 17.24V15.6237H33.9225V15.1491H34.4071V14.4557H35.0685Z" fill="white"/>
</svg>
