<svg width="62" height="59" viewBox="0 0 62 59" fill="none" xmlns="http://www.w3.org/2000/svg">
<path d="M24.3713 9.43621C24.2199 9.31423 24.0289 9.25241 23.8347 9.26262H23.3613V10.7303H23.8821C23.9752 10.7403 24.0694 10.7284 24.1571 10.6956C24.2448 10.6627 24.3235 10.6097 24.3871 10.5409C24.4933 10.3713 24.543 10.1724 24.5291 9.97278C24.5405 9.87731 24.5324 9.78053 24.5053 9.6883C24.4781 9.59607 24.4326 9.51031 24.3713 9.43621ZM23.9136 11.6929H23.3613V13.3973H23.9294C24.0276 13.4048 24.1261 13.3887 24.2167 13.3502C24.3073 13.3118 24.3874 13.2522 24.4502 13.1764C24.5885 12.9787 24.6502 12.7375 24.6238 12.4978C24.6238 11.9612 24.3871 11.6929 23.9136 11.6929ZM28.648 10.4147C28.648 10.3357 28.648 10.1148 28.5218 9.76762C28.3955 9.42043 28.4113 9.19949 28.3955 9.07324C28.3955 9.30996 28.3166 9.57824 28.2693 9.86231C28.2219 10.1464 28.0641 10.8092 27.8274 11.835H28.9794L28.648 10.4147ZM28.648 10.4147C28.648 10.3357 28.648 10.1148 28.5218 9.76762C28.3955 9.42043 28.4113 9.19949 28.3955 9.07324C28.3955 9.30996 28.3166 9.57824 28.2693 9.86231C28.2219 10.1464 28.0641 10.8092 27.8274 11.835H28.9794L28.648 10.4147ZM23.9136 11.6929H23.3613V13.3973H23.9294C24.0276 13.4048 24.1261 13.3887 24.2167 13.3502C24.3073 13.3118 24.3874 13.2522 24.4502 13.1764C24.5885 12.9787 24.6502 12.7375 24.6238 12.4978C24.6238 11.9612 24.3871 11.6929 23.9136 11.6929ZM24.3871 10.5409C24.4933 10.3713 24.543 10.1724 24.5291 9.97278C24.5405 9.87731 24.5324 9.78053 24.5053 9.6883C24.4781 9.59607 24.4326 9.51031 24.3713 9.43621C24.2199 9.31423 24.0289 9.25241 23.8347 9.26262H23.3613V10.7303H23.8821C23.9752 10.7403 24.0694 10.7284 24.1571 10.6956C24.2448 10.6627 24.3235 10.6097 24.3871 10.5409ZM61.189 16.0012L31.6307 0.977462C31.5378 0.930327 31.435 0.905762 31.3308 0.905762C31.2266 0.905762 31.1239 0.930327 31.031 0.977462L1.47271 16.0012C0.636301 16.4115 0.87302 18.0054 1.75677 18.0054H60.9049C61.7887 18.0054 62.0254 16.4115 61.189 16.0012ZM25.3497 13.9181C25.1909 14.0811 24.9986 14.2078 24.7861 14.2896C24.5736 14.3713 24.346 14.4061 24.1188 14.3915H22.2882V8.28418H23.8663C24.3567 8.24723 24.8454 8.37497 25.2551 8.64715C25.4034 8.80468 25.5178 8.99104 25.5911 9.19466C25.6644 9.39827 25.6951 9.61479 25.6811 9.83074C25.689 10.1399 25.6127 10.4454 25.4602 10.7145C25.3843 10.8335 25.2824 10.9337 25.1621 11.0075C25.0418 11.0813 24.9063 11.1268 24.7658 11.1406C24.9157 11.169 25.0584 11.2268 25.1858 11.3108C25.3131 11.3948 25.4225 11.5032 25.5076 11.6298C25.6779 11.9152 25.7603 12.2446 25.7443 12.5767C25.792 13.0581 25.6505 13.5392 25.3497 13.9181ZM29.516 14.3915L29.1688 12.8134H27.5907L27.2277 14.3915H26.1072L27.6065 8.25262H29.1846L30.7627 14.3915H29.516ZM35.4655 14.3915H34.0768L32.1988 9.97278C32.2764 10.3251 32.3135 10.6852 32.3093 11.0459V14.3915H31.2519V8.28418H32.6565L34.4555 12.7187C34.4005 12.3743 34.3741 12.0259 34.3766 11.6771V8.28418H35.4182L35.4655 14.3915ZM39.1426 14.3915L38.1326 11.7718L37.6749 12.2295V14.3915H36.5386V8.28418H37.6749V11.3142L38.0694 10.3989L39.111 8.28418H40.3261L38.969 10.9197L40.3893 14.3915H39.1426ZM28.4902 9.76762C28.4902 9.42043 28.3797 9.19949 28.364 9.07324C28.364 9.30996 28.2851 9.57824 28.2377 9.86231C28.1904 10.1464 28.0326 10.8092 27.7958 11.835H28.9479L28.6165 10.4147C28.6007 10.3357 28.5533 10.1148 28.4902 9.76762ZM23.9136 11.6929H23.3613V13.3973H23.9294C24.0276 13.4048 24.1261 13.3887 24.2167 13.3502C24.3073 13.3118 24.3874 13.2522 24.4502 13.1764C24.5885 12.9787 24.6502 12.7375 24.6238 12.4978C24.6238 11.9612 24.3871 11.6929 23.9136 11.6929ZM24.3871 10.5409C24.4933 10.3713 24.543 10.1724 24.5291 9.97278C24.5405 9.87731 24.5324 9.78053 24.5053 9.6883C24.4781 9.59607 24.4326 9.51031 24.3713 9.43621C24.2199 9.31423 24.0289 9.25241 23.8347 9.26262H23.3613V10.7303H23.8821C23.9752 10.7403 24.0694 10.7284 24.1571 10.6956C24.2448 10.6627 24.3235 10.6097 24.3871 10.5409ZM28.6165 10.4147C28.6165 10.3357 28.6165 10.1148 28.4902 9.76762C28.364 9.42043 28.3797 9.19949 28.364 9.07324C28.364 9.30996 28.2851 9.57824 28.2377 9.86231C28.1904 10.1464 28.0326 10.8092 27.7958 11.835H28.9479L28.6165 10.4147ZM28.6165 10.4147C28.6165 10.3357 28.6165 10.1148 28.4902 9.76762C28.364 9.42043 28.3797 9.19949 28.364 9.07324C28.364 9.30996 28.2851 9.57824 28.2377 9.86231C28.1904 10.1464 28.0326 10.8092 27.7958 11.835H28.9479L28.6165 10.4147Z" fill="url(#paint0_linear)"/>
<path d="M15.881 20.2305H14.2397V50.3253H15.881V20.2305Z" fill="url(#paint1_linear)"/>
<path d="M18.3268 20.2305H16.6855V50.3253H18.3268V20.2305Z" fill="url(#paint2_linear)"/>
<path d="M20.7887 20.2305H19.1475V50.3253H20.7887V20.2305Z" fill="url(#paint3_linear)"/>
<path d="M22.572 18.5894H12.4404V19.0312L13.9081 19.7414H21.1043L22.572 19.0312V18.5894Z" fill="url(#paint4_linear)"/>
<path d="M22.6511 52.9294H12.5195V51.3513L13.9872 50.6411H21.1834L22.6511 51.3513V52.9294Z" fill="url(#paint5_linear)"/>
<path d="M28.7897 20.2305H27.1484V50.3253H28.7897V20.2305Z" fill="url(#paint6_linear)"/>
<path d="M31.2516 20.2305H29.6104V50.3253H31.2516V20.2305Z" fill="url(#paint7_linear)"/>
<path d="M33.6979 20.2305H32.0566V50.3253H33.6979V20.2305Z" fill="url(#paint8_linear)"/>
<path d="M35.4968 18.5894H25.3652V19.0312L26.8329 19.7414H34.0291L35.4968 19.0312V18.5894Z" fill="url(#paint9_linear)"/>
<path d="M35.5759 52.9294H25.4443V51.3513L26.912 50.6411H34.1082L35.5759 51.3513V52.9294Z" fill="url(#paint10_linear)"/>
<path d="M41.715 20.2305H40.0737V50.3253H41.715V20.2305Z" fill="url(#paint11_linear)"/>
<path d="M44.1764 20.2305H42.5352V50.3253H44.1764V20.2305Z" fill="url(#paint12_linear)"/>
<path d="M46.6227 20.2305H44.9814V50.3253H46.6227V20.2305Z" fill="url(#paint13_linear)"/>
<path d="M48.4218 18.5894H38.2744V19.0312L39.7421 19.7414H46.9383L48.4218 19.0312V18.5894Z" fill="url(#paint14_linear)"/>
<path d="M48.5004 52.9294H38.353V51.3513L39.8365 50.6411H47.0327L48.5004 51.3513V52.9294Z" fill="url(#paint15_linear)"/>
<path d="M58.9636 53.6079H1.88277C1.39469 53.6079 0.999023 54.0036 0.999023 54.4917V54.7915C0.999023 55.2796 1.39469 55.6752 1.88277 55.6752H58.9636C59.4516 55.6752 59.8473 55.2796 59.8473 54.7915V54.4917C59.8473 54.0036 59.4516 53.6079 58.9636 53.6079Z" fill="url(#paint16_linear)"/>
<path d="M58.9636 56.3696H1.88277C1.39469 56.3696 0.999023 56.7653 0.999023 57.2534V57.5532C0.999023 58.0413 1.39469 58.437 1.88277 58.437H58.9636C59.4516 58.437 59.8473 58.0413 59.8473 57.5532V57.2534C59.8473 56.7653 59.4516 56.3696 58.9636 56.3696Z" fill="url(#paint17_linear)"/>
<defs>
<linearGradient id="paint0_linear" x1="22.0704" y1="-10.3375" x2="70.9251" y2="36.5887" gradientUnits="userSpaceOnUse">
<stop stop-color="#3564AC"/>
<stop offset="1" stop-color="#4497E1"/>
</linearGradient>
<linearGradient id="paint1_linear" x1="14.8102" y1="0.442675" x2="17.3472" y2="0.480081" gradientUnits="userSpaceOnUse">
<stop stop-color="#3564AC"/>
<stop offset="1" stop-color="#4497E1"/>
</linearGradient>
<linearGradient id="paint2_linear" x1="17.256" y1="0.442675" x2="19.793" y2="0.480081" gradientUnits="userSpaceOnUse">
<stop stop-color="#3564AC"/>
<stop offset="1" stop-color="#4497E1"/>
</linearGradient>
<linearGradient id="paint3_linear" x1="19.7179" y1="0.442675" x2="22.2549" y2="0.480081" gradientUnits="userSpaceOnUse">
<stop stop-color="#3564AC"/>
<stop offset="1" stop-color="#4497E1"/>
</linearGradient>
<linearGradient id="paint4_linear" x1="15.9618" y1="17.8319" x2="18.3162" y2="23.4298" gradientUnits="userSpaceOnUse">
<stop stop-color="#3564AC"/>
<stop offset="1" stop-color="#4497E1"/>
</linearGradient>
<linearGradient id="paint5_linear" x1="16.041" y1="49.1365" x2="22.4796" y2="56.8438" gradientUnits="userSpaceOnUse">
<stop stop-color="#3564AC"/>
<stop offset="1" stop-color="#4497E1"/>
</linearGradient>
<linearGradient id="paint6_linear" x1="27.7189" y1="0.442675" x2="30.2559" y2="0.480081" gradientUnits="userSpaceOnUse">
<stop stop-color="#3564AC"/>
<stop offset="1" stop-color="#4497E1"/>
</linearGradient>
<linearGradient id="paint7_linear" x1="30.1808" y1="0.442675" x2="32.7178" y2="0.480082" gradientUnits="userSpaceOnUse">
<stop stop-color="#3564AC"/>
<stop offset="1" stop-color="#4497E1"/>
</linearGradient>
<linearGradient id="paint8_linear" x1="32.6271" y1="0.442675" x2="35.1641" y2="0.480082" gradientUnits="userSpaceOnUse">
<stop stop-color="#3564AC"/>
<stop offset="1" stop-color="#4497E1"/>
</linearGradient>
<linearGradient id="paint9_linear" x1="28.8867" y1="17.8319" x2="31.241" y2="23.4298" gradientUnits="userSpaceOnUse">
<stop stop-color="#3564AC"/>
<stop offset="1" stop-color="#4497E1"/>
</linearGradient>
<linearGradient id="paint10_linear" x1="28.9658" y1="49.1365" x2="35.4044" y2="56.8438" gradientUnits="userSpaceOnUse">
<stop stop-color="#3564AC"/>
<stop offset="1" stop-color="#4497E1"/>
</linearGradient>
<linearGradient id="paint11_linear" x1="40.6442" y1="0.442675" x2="43.1812" y2="0.480082" gradientUnits="userSpaceOnUse">
<stop stop-color="#3564AC"/>
<stop offset="1" stop-color="#4497E1"/>
</linearGradient>
<linearGradient id="paint12_linear" x1="43.1056" y1="0.442675" x2="45.6426" y2="0.480082" gradientUnits="userSpaceOnUse">
<stop stop-color="#3564AC"/>
<stop offset="1" stop-color="#4497E1"/>
</linearGradient>
<linearGradient id="paint13_linear" x1="45.5519" y1="0.442675" x2="48.0889" y2="0.480081" gradientUnits="userSpaceOnUse">
<stop stop-color="#3564AC"/>
<stop offset="1" stop-color="#4497E1"/>
</linearGradient>
<linearGradient id="paint14_linear" x1="41.8013" y1="17.8319" x2="44.1531" y2="23.4325" gradientUnits="userSpaceOnUse">
<stop stop-color="#3564AC"/>
<stop offset="1" stop-color="#4497E1"/>
</linearGradient>
<linearGradient id="paint15_linear" x1="41.8799" y1="49.1365" x2="48.3168" y2="56.8537" gradientUnits="userSpaceOnUse">
<stop stop-color="#3564AC"/>
<stop offset="1" stop-color="#4497E1"/>
</linearGradient>
<linearGradient id="paint16_linear" x1="21.4529" y1="52.2486" x2="22.9636" y2="63.8749" gradientUnits="userSpaceOnUse">
<stop stop-color="#3564AC"/>
<stop offset="1" stop-color="#4497E1"/>
</linearGradient>
<linearGradient id="paint17_linear" x1="21.4529" y1="55.0103" x2="22.9636" y2="66.6366" gradientUnits="userSpaceOnUse">
<stop stop-color="#3564AC"/>
<stop offset="1" stop-color="#4497E1"/>
</linearGradient>
</defs>
</svg>
