<svg width="74" height="74" viewBox="0 0 74 74" fill="none" xmlns="http://www.w3.org/2000/svg">
<path fill-rule="evenodd" clip-rule="evenodd" d="M44.6621 17.1992H21.3662C19.5929 17.1992 17.8921 17.9029 16.6373 19.1559C15.3824 20.4088 14.6761 22.1085 14.6733 23.8817V54.3036C14.6747 55.1812 14.8489 56.0499 15.186 56.8601C15.523 57.6703 16.0164 58.4063 16.6379 59.0258C17.2594 59.6454 17.9968 60.1365 18.8081 60.4711C19.6194 60.8056 20.4886 60.9771 21.3662 60.9758H44.6621C46.2495 60.976 47.785 60.4103 48.9928 59.3801C50.2006 58.35 51.0015 56.923 51.2518 55.3555C51.2848 55.1891 51.3071 55.0207 51.3184 54.8515L51.7984 55.2426L52.2005 55.5829L51.9118 55.9129L52.0459 56.016L58.0684 61.0485C58.1121 61.0884 58.1691 61.1105 58.2282 61.1105C58.2873 61.1105 58.3444 61.0884 58.388 61.0485L59.7802 59.3779C59.8203 59.3659 59.856 59.3426 59.8831 59.3108C59.9102 59.279 59.9275 59.2401 59.9329 59.1986C59.9384 59.1572 59.9317 59.1151 59.9138 59.0774C59.8958 59.0397 59.8674 59.0079 59.8318 58.986L53.799 53.9638L53.6752 53.871L53.3968 54.201L52.3655 53.3038C53.5181 51.6606 54.107 49.688 54.0438 47.6818C53.9806 45.6757 53.2687 43.744 52.0149 42.1766C51.819 41.9291 51.6024 41.6919 51.3859 41.4651C51.3689 41.4473 51.3517 41.4295 51.3343 41.4118V23.8817C51.3343 22.1112 50.6316 20.413 49.3807 19.1601C48.1297 17.9072 46.4326 17.202 44.6621 17.1992ZM51.324 51.643V51.6818L51.3446 51.6435C51.62 51.1499 51.8314 50.6231 51.9737 50.076C52.2355 49.1691 52.323 48.2208 52.2315 47.2813C52.1901 46.8228 52.1002 46.37 51.9634 45.9304C51.8167 45.3782 51.6056 44.8451 51.3343 44.3423C50.9575 43.637 50.4661 42.9993 49.8802 42.4551C49.7669 42.3276 49.6427 42.2103 49.509 42.1044L49.4265 42.0426H49.3749C48.602 41.4582 47.728 41.0212 46.7968 40.7535C46.097 40.527 45.3667 40.4087 44.6312 40.4029C43.404 40.4054 42.1962 40.71 41.1146 41.2898C40.8465 41.4341 40.5887 41.5888 40.3412 41.7538C40.1067 41.9108 39.8827 42.0831 39.6709 42.2694C39.3352 42.5326 39.0276 42.8299 38.753 43.1563L38.7737 43.2491L38.6293 43.4863C38.1979 44.0409 37.8505 44.6559 37.598 45.3116C37.5052 45.5488 37.433 45.7654 37.3609 46.0335C37.3259 46.1634 37.2958 46.3223 37.2681 46.4681L37.2681 46.4682C37.2387 46.6233 37.2121 46.7635 37.1855 46.8379C37.1598 46.9101 37.1598 46.9694 37.1598 47.0364C37.1598 47.1034 37.1598 47.1782 37.134 47.2813C37.0824 47.4876 37.0824 47.6938 37.0824 47.9001C37.0618 48.1265 37.0618 48.3543 37.0824 48.5807C37.0772 48.6218 37.0772 48.6634 37.0824 48.7044C37.103 48.921 37.1443 49.1891 37.1752 49.3541C37.1868 49.4157 37.2041 49.4773 37.2212 49.5383C37.25 49.6408 37.2784 49.7419 37.2784 49.8388C37.4079 50.3516 37.5911 50.8494 37.8249 51.3238L38.0209 51.6951C38.0865 51.828 38.1623 51.9555 38.2477 52.0766C38.542 52.55 38.8879 52.9892 39.279 53.3863C39.427 53.5446 39.5855 53.6928 39.7534 53.8298V53.8916C40.574 54.5695 41.5253 55.0715 42.548 55.3663C43.2183 55.5615 43.9125 55.6622 44.6105 55.6654C45.2217 55.6609 45.8292 55.5707 46.4152 55.3973C47.4873 55.1271 48.4916 54.6374 49.3646 53.9593V53.9427C49.5426 53.8135 49.7114 53.6723 49.8699 53.5198C49.9493 53.463 50.022 53.3973 50.0865 53.3239C50.221 53.1928 50.3451 53.0514 50.4577 52.9011C50.7925 52.5154 51.0831 52.0934 51.324 51.643ZM35.4221 49.8389H35.4117H19.9224V51.6951H35.9996H36.0099C36.0099 51.6951 36.0099 51.6951 36.0099 51.6951C35.9731 51.6276 35.9436 51.5491 35.9148 51.4727C35.8953 51.4208 35.8761 51.3698 35.8552 51.3238C35.669 50.842 35.5241 50.3453 35.4221 49.8389ZM35.2777 47.8998C35.2622 47.6939 35.2622 47.4872 35.2777 47.2813C35.3245 46.9309 35.3899 46.5832 35.4737 46.2398V46.1057C35.4779 46.0815 35.4823 46.0573 35.4868 46.0332H19.9224V47.8998H35.2777ZM36.1529 44.1048C36.1754 44.0524 36.2 44.0009 36.2265 43.9504C36.327 43.732 36.4442 43.5217 36.5771 43.3213C36.7804 42.9626 37.0078 42.6181 37.2577 42.2901L37.2642 42.2797C37.2733 42.2652 37.2818 42.2515 37.2903 42.2383H19.9224V44.1048H36.1529ZM39.3841 40.3002C40.0039 39.8767 40.6712 39.527 41.3724 39.2582C42.4157 38.8733 43.5192 38.6777 44.6312 38.6807C45.1085 38.6841 45.5847 38.729 46.0542 38.8148V38.4336H19.9224V40.3002H39.3841ZM37.1423 53.6748H19.9224V55.5311H39.0203C39.0068 55.5209 38.9933 55.5107 38.9799 55.5004C38.9503 55.4834 38.9241 55.4578 38.8992 55.4334C38.8636 55.3985 38.8307 55.3663 38.7943 55.3663L38.619 55.222C38.1194 54.805 37.6633 54.3386 37.2577 53.8298C37.2152 53.7812 37.1766 53.7294 37.1423 53.6748ZM20.7886 25.5322H29.9977C30.1128 25.5322 30.2268 25.5549 30.3331 25.599C30.4395 25.643 30.5361 25.7076 30.6175 25.789C30.6989 25.8704 30.7635 25.967 30.8075 26.0733C30.8516 26.1797 30.8742 26.2937 30.8742 26.4088V29.5025C30.8715 29.7332 30.778 29.9535 30.6139 30.1157C30.4498 30.2779 30.2284 30.3688 29.9977 30.3688H20.7886C20.5597 30.3661 20.3409 30.274 20.179 30.1121C20.0172 29.9502 19.925 29.7315 19.9224 29.5025V26.4088C19.9223 26.1781 20.0133 25.9567 20.1754 25.7926C20.3376 25.6285 20.5579 25.5349 20.7886 25.5322ZM19.9224 34.6279H46.0542V36.4945H19.9224V34.6279Z" fill="url(#paint0_linear)"/>
<defs>
<linearGradient id="paint0_linear" x1="30.4048" y1="-11.6731" x2="95.3412" y2="6.42283" gradientUnits="userSpaceOnUse">
<stop stop-color="#3564AC"/>
<stop offset="1" stop-color="#4497E1"/>
</linearGradient>
</defs>
</svg>
