<svg width="30" height="29" viewBox="0 0 30 29" fill="none" xmlns="http://www.w3.org/2000/svg">
<path d="M29.449 14.3646C29.449 22.1431 22.8566 28.4489 14.7245 28.4489C6.59238 28.4489 0 22.1431 0 14.3646C0 6.58603 6.59238 0.280273 14.7245 0.280273C22.8566 0.280273 29.449 6.58603 29.449 14.3646Z" fill="url(#paint0_linear)"/>
<path d="M29.449 14.3646C29.449 22.1431 22.8566 28.4489 14.7245 28.4489C6.59238 28.4489 0 22.1431 0 14.3646C0 6.58603 6.59238 0.280273 14.7245 0.280273C22.8566 0.280273 29.449 6.58603 29.449 14.3646Z" stroke="#858383"/>
<path fill-rule="evenodd" clip-rule="evenodd" d="M9.49829 10.9686L10.6177 9.84928L13.224 12.4556V6.12354L18.301 11.2005L15.1349 14.3665L18.301 17.5326L13.224 22.6095V16.2774L10.6177 18.8838L9.49829 17.7644L12.8962 14.3665L9.49829 10.9686ZM14.8071 18.7877L16.0622 17.5325L14.8071 16.2773V18.7877ZM16.0622 11.2004L14.8071 12.4555V9.94518L16.0622 11.2004Z" fill="white"/>
<defs>
<linearGradient id="paint0_linear" x1="13.2459" y1="31.8618" x2="30.4298" y2="7.83898" gradientUnits="userSpaceOnUse">
<stop offset="0.318117" stop-color="#3564AC"/>
<stop offset="1" stop-color="#3C7DE1"/>
</linearGradient>
</defs>
</svg>
