<svg width="64" height="36" viewBox="0 0 64 36" fill="none" xmlns="http://www.w3.org/2000/svg">
<path d="M0.9375 0.296875V35.0156H63.7153V0.296875H0.9375ZM59.7858 25.2786C59.0031 25.2512 58.2227 25.3786 57.4893 25.6535C56.756 25.9284 56.0841 26.3454 55.5123 26.8806C54.9405 27.4158 54.48 28.0586 54.1571 28.7721C53.8343 29.4857 53.6555 30.2559 53.6311 31.0387H11.0217C10.9973 30.2559 10.8185 29.4857 10.4957 28.7721C10.1729 28.0586 9.71233 27.4158 9.14051 26.8806C8.56869 26.3454 7.89684 25.9284 7.16349 25.6535C6.43014 25.3786 5.64973 25.2512 4.86703 25.2786V10.0023C5.64973 10.0297 6.43014 9.90231 7.16349 9.6274C7.89684 9.35249 8.56869 8.93549 9.14051 8.40033C9.71233 7.86516 10.1729 7.22237 10.4957 6.50882C10.8185 5.79526 10.9973 5.02499 11.0217 4.24219H53.6311C53.6555 5.02499 53.8343 5.79526 54.1571 6.50882C54.48 7.22237 54.9405 7.86516 55.5123 8.40033C56.0841 8.93549 56.756 9.35249 57.4893 9.6274C58.2227 9.90231 59.0031 10.0297 59.7858 10.0023V25.2786Z" fill="url(#paint0_linear)"/>
<path d="M36.2403 17.0409C35.2431 16.3651 34.1222 15.8931 32.942 15.6521V13.3007C33.1722 13.4087 33.3767 13.5648 33.5417 13.7584C33.7211 13.9969 33.8598 14.2635 33.952 14.5474L36.982 14.074C36.8254 13.2673 36.3826 12.5443 35.7353 12.0382C34.9163 11.4652 33.9415 11.1568 32.942 11.1545V10.3496H31.7584V11.1545C30.6599 11.1418 29.5943 11.5288 28.76 12.2434C28.2068 12.7817 27.8538 13.4926 27.7591 14.2586C27.6644 15.0247 27.8338 15.8001 28.2392 16.457C28.5441 16.8984 28.9499 17.2609 29.4228 17.5143C30.1733 17.8538 30.9557 18.1181 31.7584 18.3034V21.1755C31.4373 21.0429 31.1589 20.8246 30.9536 20.5443C30.7407 20.1918 30.6011 19.8 30.5432 19.3923L27.2607 19.771C27.3486 20.2508 27.4971 20.7174 27.7026 21.1598C27.91 21.5633 28.1941 21.9224 28.539 22.2171C28.909 22.5579 29.3437 22.8208 29.8173 22.9904C30.4452 23.2029 31.0974 23.3355 31.7584 23.3849V24.963H32.942V23.3849C33.5197 23.3739 34.0932 23.2836 34.6464 23.1166C35.1164 22.9585 35.5546 22.7181 35.9404 22.4065C36.3589 22.0645 36.7027 21.6401 36.9504 21.1598C37.2116 20.6749 37.3473 20.1324 37.345 19.5816C37.3662 19.102 37.2777 18.6238 37.0863 18.1836C36.8949 17.7433 36.6055 17.3525 36.2403 17.0409ZM31.7584 15.3523C31.4815 15.2824 31.2332 15.128 31.0482 14.9104C30.899 14.7346 30.8202 14.5097 30.8273 14.2791C30.8201 14.0657 30.8933 13.8573 31.0325 13.6952C31.2295 13.4843 31.4806 13.3315 31.7584 13.2534V15.3523ZM33.952 20.8126C33.6763 21.0823 33.3231 21.2588 32.942 21.3176V18.6663C33.3657 18.7479 33.7588 18.9444 34.0782 19.2344C34.2569 19.4282 34.3581 19.681 34.3623 19.9446C34.3614 20.1105 34.3242 20.2741 34.2533 20.4241C34.1824 20.574 34.0796 20.7066 33.952 20.8126Z" fill="url(#paint1_linear)"/>
<defs>
<linearGradient id="paint0_linear" x1="22.7571" y1="-22.5312" x2="101.097" y2="15.7657" gradientUnits="userSpaceOnUse">
<stop stop-color="#3564AC"/>
<stop offset="1" stop-color="#4497E1"/>
</linearGradient>
<linearGradient id="paint1_linear" x1="30.7668" y1="0.741065" x2="45.838" y2="3.55368" gradientUnits="userSpaceOnUse">
<stop stop-color="#3564AC"/>
<stop offset="1" stop-color="#4497E1"/>
</linearGradient>
</defs>
</svg>
