<svg width="380" height="388" viewBox="0 0 380 388" fill="none" xmlns="http://www.w3.org/2000/svg">
<g clip-path="url(#clip0)">
<path d="M140.416 246.15L142.495 246.379C142.549 246.379 142.622 246.319 142.682 246.325C143.821 246.379 144.73 244.592 144.977 243.601C145.254 242.472 144.556 240.624 143.989 240.34C143.423 240.056 141.224 239.132 140.669 238.885C140.656 238.879 140.64 238.876 140.625 238.878C140.61 238.879 140.596 238.884 140.583 238.892C140.571 238.901 140.56 238.912 140.553 238.926C140.546 238.939 140.543 238.954 140.543 238.969L140.332 246.053C140.332 246.077 140.34 246.1 140.356 246.118C140.371 246.136 140.393 246.147 140.416 246.15Z" fill="#E7E8E9"/>
<path d="M215.247 362.006C215.403 362.577 215.605 363.134 215.849 363.673C216.976 366.215 219.018 368.172 221.79 368.601C225.146 369.12 262.645 368.534 263.838 368.673C264.502 368.595 265.121 368.298 265.598 367.828C267.749 366.071 270.201 361.982 265.929 359.119C265.363 358.739 260.344 354.065 247.619 352.99C243.106 352.609 237.593 351.951 234.967 350.054C234.304 349.591 233.685 349.067 233.117 348.49C232.866 348.252 232.662 347.97 232.514 347.657C232.484 347.589 232.469 347.514 232.472 347.439L231.502 346.461L225.176 345.899L217.603 347.814C217.695 348.491 217.695 349.178 217.603 349.855C217.563 350.182 217.507 350.507 217.434 350.827L217.343 351.172C216.837 353.056 214.343 358.685 215.247 362.006Z" fill="#515A60"/>
<g style="mix-blend-mode:multiply" opacity="0.2">
<path d="M215.247 362.006C215.403 362.577 215.605 363.134 215.849 363.673C216.976 366.215 219.018 368.172 221.79 368.601C225.146 369.12 262.645 368.534 263.838 368.673C264.502 368.595 265.121 368.298 265.598 367.828C267.749 366.07 270.201 361.982 265.929 359.119C265.363 358.739 260.344 354.065 247.619 352.99C243.106 352.609 237.593 351.951 234.967 350.054C234.304 349.591 233.685 349.067 233.117 348.49C232.866 348.252 232.662 347.97 232.514 347.657C232.484 347.589 232.469 347.514 232.472 347.439L231.502 346.461L225.176 345.899L217.603 347.814C217.695 348.491 217.695 349.178 217.603 349.855C217.563 350.182 217.507 350.507 217.434 350.827L217.343 351.172C216.837 353.056 214.343 358.685 215.247 362.006Z" fill="#515A60"/>
</g>
<g style="mix-blend-mode:multiply" opacity="0.4">
<path d="M215.843 363.673C216.97 366.215 219.012 368.172 221.784 368.601C225.14 369.12 262.639 368.534 263.832 368.673C264.496 368.595 265.115 368.298 265.592 367.828H222.778C222.778 367.828 219.976 367.761 217.44 364.917C216.998 364.398 216.454 363.974 215.843 363.673Z" fill="#515A60"/>
</g>
<g style="mix-blend-mode:multiply" opacity="0.4">
<path d="M217.44 350.834C218.23 351.504 219.778 352.754 219.778 352.754L220.17 352.325C221.158 351.275 223.297 350.665 223.297 350.665C223.297 350.665 224.128 351.577 224.652 352.06C224.907 352.3 225.203 352.493 225.526 352.627C225.526 352.627 225.562 352.627 225.622 351.909C225.737 350.701 227.267 350.097 227.267 350.097C227.267 350.097 227.785 350.483 228.623 351.196C229.106 351.625 229.663 351.96 230.268 352.187C230.228 351.988 230.216 351.785 230.232 351.583C230.232 351.099 230.123 351.287 230.834 350.683C231.159 350.393 232.256 349.3 233.118 348.46L233.804 347.814L233.991 347.651C233.184 347.5 234.027 347.844 233.148 347.711L232.545 347.627C232.081 347.56 231.635 347.506 231.202 347.464C224.755 346.86 219.989 347.609 217.633 349.813C217.588 350.157 217.523 350.497 217.44 350.834Z" fill="#515A60"/>
</g>
<path d="M175.572 362.007C175.416 362.577 175.215 363.135 174.97 363.674C173.843 366.216 171.801 368.173 169.029 368.602C165.673 369.121 128.174 368.535 126.981 368.674C126.317 368.596 125.698 368.298 125.222 367.829C123.071 366.071 120.619 361.983 124.89 359.12C125.457 358.74 130.475 354.065 143.2 352.99C147.713 352.61 153.226 351.951 155.853 350.055C156.516 349.591 157.135 349.068 157.702 348.491C157.953 348.253 158.157 347.97 158.305 347.658C158.336 347.589 158.35 347.515 158.347 347.44L159.317 346.462L165.643 345.9L173.217 347.815C173.124 348.492 173.124 349.179 173.217 349.856C173.256 350.183 173.312 350.507 173.385 350.828L173.476 351.172C173.982 353.057 176.476 358.685 175.572 362.007Z" fill="#515A60"/>
<g style="mix-blend-mode:multiply" opacity="0.2">
<path d="M174.976 363.673C173.849 366.215 171.807 368.172 169.035 368.601C165.679 369.12 128.18 368.534 126.987 368.673C126.323 368.595 125.704 368.298 125.228 367.828H168.041C168.041 367.828 170.843 367.761 173.379 364.917C173.822 364.398 174.365 363.974 174.976 363.673Z" fill="#515A60"/>
</g>
<g style="mix-blend-mode:multiply" opacity="0.2">
<path d="M173.379 350.834C172.59 351.504 171.042 352.754 171.042 352.754L170.65 352.325C169.662 351.275 167.523 350.665 167.523 350.665C167.523 350.665 166.692 351.577 166.167 352.06C165.913 352.3 165.617 352.493 165.294 352.627C165.294 352.627 165.258 352.627 165.197 351.909C165.083 350.701 163.553 350.097 163.553 350.097C163.553 350.097 163.034 350.483 162.197 351.196C161.714 351.625 161.156 351.96 160.552 352.187C160.592 351.988 160.604 351.785 160.588 351.583C160.588 351.099 160.697 351.287 159.986 350.683C159.66 350.393 158.564 349.3 157.702 348.46L157.015 347.814L156.829 347.651C157.636 347.5 156.792 347.844 157.672 347.711L158.275 347.627C158.739 347.56 159.184 347.506 159.618 347.464C166.065 346.86 170.831 347.609 173.186 349.813C173.232 350.157 173.296 350.497 173.379 350.834Z" fill="#515A60"/>
</g>
<path d="M64.7447 354.88C65.0038 362.477 72.4928 367.133 82.4341 370.672C88.5162 372.781 95.062 373.162 101.346 371.771L101.822 371.439C102.005 371.158 102.12 370.838 102.159 370.505C102.197 370.172 102.159 369.834 102.045 369.519C101.654 368.42 93.0621 365.146 87.2119 360.732C86.5192 360.23 85.8989 359.634 85.3682 358.962C82.5606 355.278 86.3864 351.999 90.9172 349.022C96.171 345.573 119.235 341.69 130.513 338.84C141.792 335.989 147.468 334.304 147.468 334.304C147.468 334.304 148.016 331.013 148.48 328.048C148.811 325.898 149.083 323.917 149.083 323.482C149.083 322.449 141.684 296.221 140.479 297.169C140.302 297.31 140.085 297.497 139.828 297.731C137.057 300.444 134.13 302.993 131.062 305.365C125.947 309.248 102.437 320.209 84.6151 329.956C66.7932 339.703 64.4916 347.289 64.7447 354.88Z" fill="#4D9BE2"/>
<g style="mix-blend-mode:multiply" opacity="0.16">
<path d="M85.3684 358.956C82.5608 355.272 86.3866 351.993 90.9174 349.016C96.1712 345.568 119.235 341.684 130.514 338.834C141.793 335.983 147.468 334.298 147.468 334.298C149.245 338.047 151.369 341.619 153.812 344.97C156.783 348.678 158.415 349.626 159.452 350.363C160.488 351.099 160.271 351.915 160.271 351.915C160.852 351.719 161.381 351.395 161.82 350.967L161.934 350.87C160.837 349.851 159.85 348.719 158.988 347.494C156.744 344.515 154.694 341.394 152.848 338.151C151.698 335.941 149.191 331.557 147.492 328.38C146.962 327.384 146.378 325.62 146.004 325.077C144.419 322.782 144.299 323.718 143.522 323.947C143.404 323.992 143.291 324.048 143.184 324.116C141.148 325.228 131.225 331.635 120.078 335.44C108.028 339.553 89.9113 345.332 86.6397 347.518C85.5294 348.237 84.5859 349.187 83.8728 350.303C83.1598 351.418 82.6939 352.674 82.5065 353.986C82.4342 355.061 83.0849 357.38 85.3684 358.956Z" fill="#4D9BE2"/>
</g>
<path d="M214.577 284.119C214.186 284.668 213.818 284.916 213.619 284.517C213.499 284.276 213.975 284.179 214.577 284.119Z" fill="#DBF0FD"/>
<g style="mix-blend-mode:multiply" opacity="0.5">
<path d="M211.5 65.9468C211.676 65.9468 211.819 65.8035 211.819 65.6267C211.819 65.45 211.676 65.3066 211.5 65.3066C211.323 65.3066 211.18 65.45 211.18 65.6267C211.18 65.8035 211.323 65.9468 211.5 65.9468Z" fill="#515A60"/>
</g>
<path d="M250.969 307.913C250.616 313.436 249.491 318.883 247.625 324.092C246.419 327.581 244.994 330.99 243.359 334.298C241.582 338.046 239.458 341.619 237.015 344.969C234.044 348.677 232.412 349.626 231.375 350.362C230.339 351.099 230.556 351.914 230.556 351.914C229.976 351.718 229.447 351.394 229.008 350.966L228.893 350.87C227.923 350.06 227.2 349.541 227.2 349.541L226.555 350.272C226.125 350.927 225.887 351.691 225.869 352.476L225.091 351.824C224.491 351.273 223.944 350.667 223.459 350.012C222.946 350.271 222.456 350.575 221.994 350.918C221.303 351.376 220.693 351.945 220.187 352.603C219.994 352.458 216.801 350.073 215.463 347.56C214.126 345.048 213.011 342.862 213.011 342.862C213.011 342.862 231.906 335.077 240.527 320.456C250.167 304.151 250.993 297.731 250.993 297.731C250.565 301.034 251.131 304.495 250.969 307.913Z" fill="#4D9BE2"/>
<g style="mix-blend-mode:multiply" opacity="0.4">
<path d="M250.969 307.913C250.616 313.436 249.491 318.883 247.625 324.092C246.419 327.581 244.994 330.99 243.359 334.298C241.582 338.046 239.458 341.619 237.015 344.969C234.044 348.677 232.412 349.626 231.375 350.362C230.339 351.099 230.556 351.914 230.556 351.914C229.976 351.718 229.447 351.394 229.008 350.966L228.893 350.87C227.923 350.06 227.2 349.541 227.2 349.541L226.555 350.272C226.125 350.927 225.887 351.691 225.869 352.476L225.091 351.824C224.491 351.273 223.944 350.667 223.459 350.012C222.946 350.271 222.456 350.575 221.994 350.918C221.303 351.376 220.693 351.945 220.187 352.603C219.994 352.458 216.801 350.073 215.463 347.56C214.126 345.048 213.011 342.862 213.011 342.862C213.011 342.862 231.906 335.077 240.527 320.456C250.167 304.151 250.993 297.731 250.993 297.731C250.565 301.034 251.131 304.495 250.969 307.913Z" fill="#4D9BE2"/>
</g>
<g style="mix-blend-mode:multiply" opacity="0.2">
<path d="M251.987 270.089C251.987 279.541 252.957 282.53 250.993 297.725C250.993 297.725 250.155 305.932 240.528 322.262C231.906 336.883 213.011 344.667 213.011 344.667L207.848 345.573C206.161 345.875 204.203 346.099 202.347 346.268C199.546 346.527 196.925 346.66 195.756 346.709H195.069C191.018 346.557 186.979 346.178 182.971 345.573C177.844 344.673 177 344.426 177 344.426L141.935 279.499C142.001 279.118 142.061 278.756 142.127 278.411L142.38 277.053C142.423 276.859 142.459 276.672 142.495 276.497C142.531 276.322 142.555 276.213 142.579 276.074C142.583 276.065 142.583 276.054 142.579 276.044C142.609 275.923 142.633 275.797 142.658 275.682C142.796 275.042 142.923 274.504 143.025 274.093C143.025 274.015 143.073 273.942 143.091 273.87C143.109 273.798 143.164 273.598 143.2 273.49C143.302 273.169 143.393 272.886 143.477 272.547C143.561 272.209 143.64 271.944 143.7 271.623C143.814 271.098 143.895 270.565 143.941 270.029C143.941 269.848 143.971 269.661 143.977 269.474C143.983 269.286 143.977 268.966 143.977 268.707L226.586 269.31L251.891 269.643C251.915 269.793 251.947 269.942 251.987 270.089Z" fill="#515A60"/>
</g>
<path d="M252.957 268.036C252.957 277.487 252.957 282.53 250.993 297.725C250.993 297.725 250.156 304.12 240.528 320.45C231.906 335.071 213.012 342.856 213.012 342.856L207.848 343.761C203.842 344.366 199.805 344.745 195.756 344.897H195.413V98.1658C195.413 98.1658 199.449 98.8361 210.843 93.8961C223.79 88.2796 235.28 79.8368 239.003 68.453C237.419 79.1967 235.202 92.0964 234.153 99.8568C233.936 101.421 233.774 102.774 233.671 103.855C232.81 113.004 234.768 138.326 235.057 146.443C235.057 146.824 235.057 147.168 235.087 147.47C235.087 147.584 235.087 147.711 235.087 147.844C235.226 150.864 236.328 157.863 237.594 165.104C237.596 165.144 237.596 165.185 237.594 165.225C237.594 165.255 237.594 165.297 237.594 165.346C239.172 174.374 240.986 183.741 241.48 186.272L241.612 186.936C241.612 186.936 242.257 189.913 243.293 194.962C244.33 200.011 246.908 210.102 249.746 227.314C252.584 244.526 252.957 267.094 252.957 268.036Z" fill="#4D9BE2"/>
<path d="M226.598 267.493C225.095 277.483 223.041 287.382 220.446 297.145C218.083 306.1 215.202 314.91 211.819 323.53C209.073 330.682 205.911 337.665 202.347 344.444C199.546 344.704 196.925 344.836 195.756 344.885H195.069C191.019 344.733 186.979 344.354 182.971 343.749L177.808 342.844C177.808 342.844 176.735 344.957 175.355 347.542C173.976 350.127 170.62 352.591 170.62 352.591C170.114 351.933 169.504 351.364 168.812 350.906C168.352 350.564 167.864 350.261 167.354 350C166.868 350.656 166.319 351.262 165.715 351.812L164.944 352.464C164.922 351.679 164.682 350.916 164.251 350.26L163.607 349.529C163.607 349.529 162.836 350.091 161.799 350.954C161.435 351.281 161.03 351.559 160.594 351.782C160.493 351.835 160.386 351.876 160.275 351.902C160.275 351.902 160.492 351.081 159.456 350.35C158.419 349.62 156.786 348.665 153.822 344.957C150.858 341.249 140.652 324.333 139.874 307.901C139.682 303.491 139.727 299.074 140.007 294.669L140.061 293.799C140.17 292.12 140.302 290.492 140.459 288.914C140.462 288.869 140.462 288.825 140.459 288.781C140.549 287.814 140.652 286.866 140.76 285.954C140.802 285.598 140.844 285.242 140.887 284.898C140.929 284.553 140.989 284.1 141.037 283.69L141.073 283.412C141.2 282.458 141.326 281.54 141.459 280.676C141.525 280.241 141.591 279.819 141.652 279.414C141.688 279.209 141.718 279.003 141.754 278.81C141.82 278.411 141.881 278.031 141.947 277.657C142.013 277.282 142.073 276.914 142.14 276.57C142.224 276.086 142.308 275.633 142.393 275.211C142.435 275.017 142.471 274.83 142.507 274.655C142.543 274.48 142.567 274.371 142.592 274.232C142.595 274.223 142.595 274.212 142.592 274.202C142.622 274.081 142.646 273.955 142.67 273.84C142.808 273.2 142.935 272.662 143.037 272.251C143.037 272.173 143.086 272.1 143.104 272.028C143.122 271.956 143.176 271.756 143.212 271.648C143.315 271.327 143.405 271.044 143.489 270.705C143.574 270.367 143.652 270.102 143.712 269.781C143.823 269.255 143.904 268.723 143.953 268.187C143.953 268 143.983 267.819 143.989 267.631C143.995 267.444 143.989 267.124 143.989 266.865C143.989 266.605 143.989 266.309 143.953 266.025C143.891 265.26 143.772 264.501 143.598 263.754C142.953 260.904 138.175 244.471 141.013 227.26C143.851 210.048 146.436 199.956 147.472 194.908C148.508 189.859 149.147 186.881 149.147 186.881C149.147 186.881 155.606 154.143 155.732 147.415C155.859 140.688 158.058 113.379 157.154 103.8C157.052 102.719 156.889 101.385 156.678 99.8024C155.624 92.0541 153.394 79.1424 151.81 68.3987C155.521 79.8006 167.023 88.2555 179.983 93.878C191.376 98.818 195.413 98.1477 195.413 98.1477C195.413 98.1477 198.522 98.6671 206.993 95.4421C209.565 112.799 212.018 131.291 215.163 143.007C220.585 163.196 226.791 194.775 228.906 220.139C229.96 232.81 229.309 249.454 226.598 267.493Z" fill="#4D9BE2"/>
<g style="mix-blend-mode:multiply" opacity="0.4">
<path d="M252.958 268.036C252.958 277.488 252.958 282.53 250.993 297.725C250.993 297.725 250.156 304.12 240.528 320.45C231.906 335.071 213.012 342.856 213.012 342.856L207.848 343.762C206.161 344.064 204.203 344.287 202.348 344.456C205.911 337.677 209.074 330.694 211.819 323.542C215.202 314.922 218.083 306.112 220.447 297.157C223.042 287.39 225.095 277.487 226.598 267.493C229.309 249.442 229.96 232.798 228.906 220.145C226.791 194.781 220.585 163.202 215.163 143.013C212.018 131.297 209.566 112.817 206.993 95.4482C208.198 95.0074 209.451 94.488 210.843 93.8841C223.791 88.2676 235.28 79.8249 239.004 68.441C237.419 79.1847 235.202 92.0844 234.154 99.8448C233.937 101.409 233.774 102.762 233.672 103.843C232.81 112.992 234.768 138.314 235.057 146.431C235.057 146.812 235.057 147.156 235.087 147.458C235.087 147.572 235.087 147.699 235.087 147.832C235.226 150.852 236.329 157.851 237.594 165.092C237.597 165.132 237.597 165.173 237.594 165.213C237.594 165.243 237.594 165.285 237.594 165.334C239.172 174.362 240.986 183.729 241.48 186.26L241.612 186.924C241.612 186.924 242.257 189.901 243.293 194.95C244.33 199.999 246.908 210.09 249.746 227.302C252.439 243.608 252.855 264.703 252.891 267.716C252.958 267.873 252.958 267.988 252.958 268.036Z" fill="#4D9BE2"/>
</g>
<path d="M229.986 219.075C227.871 193.711 221.666 162.132 216.243 141.943C213.098 130.227 210.646 111.747 208.073 94.3781C205.178 95.5493 202.167 96.4077 199.09 96.9387C198.97 96.9387 198.855 96.975 198.747 96.987C198.638 96.9991 198.391 97.0353 198.229 97.0474H198.144C197.957 97.0474 197.789 97.0837 197.638 97.0897C197.257 97.1286 196.874 97.1286 196.493 97.0897C196.195 97.1177 195.894 97.1177 195.596 97.0897H195.216H194.854L194.505 97.0535L194.222 97.0172C193.941 96.981 193.627 96.9327 193.282 96.8723C191.464 96.5356 189.672 96.0694 187.92 95.4772L186.956 95.1572L185.877 94.7706C184.443 94.2513 182.865 93.6172 181.057 92.8442C172.689 89.2206 164.928 84.3893 159.488 78.3501C160.398 83.0727 168.525 87.2941 169.507 91.6363C170.237 95.7094 170.626 99.8364 170.67 103.974C170.279 117.689 171.339 124.852 169.64 138.18C167.832 152.36 168.911 170.037 161.838 197.582C152.8 232.796 155.047 255.045 159.952 266.429C164.856 277.812 168.043 284.456 175.707 290.754C180.804 294.946 189.305 300.139 197.813 300.139C204.507 300.139 214.333 299.602 221.521 296.063C229.209 267.244 231.607 238.467 229.986 219.075ZM214.701 283.435C214.58 283.193 215.056 283.097 215.659 283.036C215.267 283.586 214.9 283.834 214.701 283.435Z" fill="#DBF0FD"/>
<path d="M238.665 197.378C232.206 169.658 230.152 151.909 227.561 137.849C225.886 128.664 226.356 113.632 227.959 101.651C228.369 98.6309 228.845 95.8106 229.411 93.1957C230.369 88.8354 231.502 84.1369 232.423 79.4022C227.001 85.4414 219.223 90.2425 210.854 93.8962C209.462 94.5001 208.185 95.0195 207.004 95.4604C209.577 112.817 212.029 131.309 215.174 143.025C220.596 163.214 226.802 194.793 228.917 220.158C230.538 239.549 228.14 268.326 220.482 297.157C222.242 296.328 223.867 295.237 225.302 293.92C237.039 282.887 242.172 273.055 244.094 264.648C247.263 250.613 245.118 225.073 238.665 197.378Z" fill="#DBF0FD"/>
<g style="mix-blend-mode:multiply" opacity="0.5">
<path d="M238.665 197.378C232.206 169.658 230.152 151.909 227.561 137.849C225.886 128.664 226.356 113.632 227.959 101.651C228.369 98.6309 228.845 95.8106 229.411 93.1957C230.369 88.8354 231.502 84.1369 232.423 79.4022C227.001 85.4414 219.223 90.2425 210.854 93.8962C209.462 94.5001 208.185 95.0195 207.004 95.4604C209.577 112.817 212.029 131.309 215.174 143.025C220.596 163.214 226.802 194.793 228.917 220.158C230.538 239.549 228.14 268.326 220.482 297.157C222.242 296.328 223.867 295.237 225.302 293.92C237.039 282.887 242.172 273.055 244.094 264.648C247.263 250.613 245.118 225.073 238.665 197.378Z" fill="#DBF0FD"/>
</g>
<path d="M228.906 220.157C226.791 194.793 220.585 163.214 215.163 143.025C212.018 131.309 209.565 112.829 206.993 95.4603C204.098 96.6315 201.086 97.4899 198.009 98.0209C197.889 98.0209 197.774 98.0571 197.666 98.0692C197.558 98.0813 197.311 98.1175 197.148 98.1296H197.064C196.877 98.1296 196.708 98.1658 196.557 98.1719C196.177 98.2108 195.793 98.2108 195.413 98.1719C195.114 98.1999 194.814 98.1999 194.515 98.1719H194.135H193.774L193.424 98.1357L193.141 98.0994C192.86 98.0632 192.547 98.0149 192.201 97.9545C190.383 97.6178 188.591 97.1516 186.839 96.5594L185.875 96.2393L184.797 95.8528C183.363 95.3335 181.784 94.6994 179.977 93.9263C171.608 90.3028 163.848 85.4715 158.407 79.4323C159.317 84.1549 167.445 88.3763 168.427 92.7185C169.157 96.7915 169.546 100.919 169.59 105.057C169.198 118.772 170.258 125.934 168.559 139.263C166.752 153.443 167.83 171.119 160.757 198.664C151.719 233.879 153.967 256.127 158.871 267.511C163.775 278.895 166.963 285.538 174.626 291.837C179.724 296.028 188.225 301.222 196.732 301.222C203.426 301.222 213.253 300.684 220.441 297.145C228.128 268.326 230.526 239.549 228.906 220.157ZM213.62 284.517C213.5 284.276 213.976 284.179 214.578 284.119C214.187 284.668 213.819 284.916 213.62 284.517Z" fill="#DBF0FD"/>
<path d="M157.056 155.112C157.056 155.112 163.083 157.206 165.308 165.606C167.533 174.007 166.487 183.449 164.654 187.257C163.562 189.512 162.615 191.833 161.818 194.207C162.968 196.067 164.615 197.567 166.573 198.536C170.027 200.373 175.13 202.822 175.13 202.822L178.138 220.732L176.377 221.442C176.377 221.442 153.523 220.126 146.188 215.276C137.887 209.766 133.615 205.369 134.531 195.921C135.448 186.474 143.994 167.192 148.187 161.982C152.38 156.771 154.201 155.412 155.21 155.118C155.812 154.936 156.453 154.934 157.056 155.112Z" fill="#4D9BE2"/>
<path d="M281.276 192.76C281.276 192.76 280.807 192.94 279.988 193.233L279.517 193.401C276.036 194.611 268.082 197.124 262.074 197.128C257.609 197.108 253.142 196.84 248.691 196.326C247.887 196.232 243.069 195.56 243.069 195.56C243.069 195.56 242.287 194.715 241.114 193.248C238.181 189.574 237.207 182.58 235.76 174.584C233.759 163.389 236.168 159.091 236.168 159.091L237.081 159.665C239.314 161.065 241.456 162.633 243.489 164.354C246.455 166.967 257.976 173.376 262.499 175.136C266.279 176.604 274.025 177.638 276.464 177.941L276.966 178.002L277.224 178.031L279.259 185.467L281.276 192.76Z" fill="#4D9BE2"/>
<g style="mix-blend-mode:multiply" opacity="0.4">
<path d="M281.276 192.76C281.276 192.76 280.807 192.94 279.988 193.233L279.517 193.401C276.036 194.611 268.082 197.124 262.074 197.128C257.609 197.108 253.142 196.84 248.691 196.326C247.887 196.232 243.069 195.56 243.069 195.56C243.069 195.56 242.287 194.715 241.114 193.248C238.181 189.574 237.207 182.58 235.76 174.584C233.759 163.389 236.168 159.091 236.168 159.091L237.081 159.665C239.314 161.065 241.456 162.633 243.489 164.354C246.455 166.967 257.976 173.376 262.499 175.136C266.279 176.604 274.025 177.638 276.464 177.941L276.966 178.002L277.224 178.031L279.259 185.467L281.276 192.76Z" fill="#4D9BE2"/>
</g>
<path d="M220.192 203.686C220.192 205.131 219.874 206.349 219.043 207.078C218.538 207.507 217.907 207.761 217.246 207.8C217.099 207.8 216.946 207.8 216.787 207.8H209.556H205.987C206.724 208.822 207.126 210.048 207.136 211.309C207.137 212.088 206.967 212.859 206.639 213.565C206.31 214.272 205.831 214.898 205.235 215.399C204.694 215.751 204.116 216.043 203.511 216.268C202.635 216.606 201.725 216.848 200.797 216.991H200.73C200.73 216.991 202.564 217.836 202.203 221.057C201.885 223.818 199.66 224.577 197.717 224.975C195.773 225.373 187.71 226.2 184.324 225.183C181.659 224.381 178.707 223.261 177.845 222.691C177.311 222.338 176.817 221.927 176.372 221.467C176.372 221.467 174.019 219.826 173.621 215.166C173.224 210.507 172.643 207.163 175.131 202.834C177.619 198.505 181.091 193.717 181.61 190.105C182.13 186.492 182.466 181.251 181.873 179.94C181.28 178.63 183.096 176.132 185.217 176.787C187.338 177.442 191.94 181.379 190.913 186.431C189.886 191.482 189.208 194.305 191.372 196.932C193.536 199.559 197.331 199.993 202.044 200.146C206.757 200.299 214.226 200.471 215.492 200.606C216.757 200.74 220.192 201.298 220.192 203.686Z" fill="#515A60"/>
<g style="mix-blend-mode:multiply" opacity="0.2">
<path d="M219.043 207.047C218.385 207.491 217.616 207.741 216.824 207.77H196.329C195.925 207.598 195.663 207.341 195.638 207.047H219.043Z" fill="#515A60"/>
</g>
<g style="mix-blend-mode:multiply" opacity="0.2">
<path d="M203.517 216.238C202.64 216.575 201.73 216.817 200.803 216.96H195.613C195.465 216.899 195.335 216.8 195.236 216.674C195.138 216.547 195.074 216.397 195.051 216.238H203.517Z" fill="#515A60"/>
</g>
<path d="M310.124 176.322C310.238 177.711 310.029 178.909 309.288 179.675C308.836 180.129 308.25 180.423 307.617 180.513C307.476 180.525 307.329 180.537 307.176 180.55L300.221 181.125L296.788 181.408C297.578 182.332 298.062 183.48 298.172 184.691C298.235 185.441 298.133 186.195 297.873 186.901C297.613 187.607 297.202 188.247 296.668 188.776C296.176 189.158 295.643 189.485 295.079 189.75C294.263 190.144 293.408 190.449 292.527 190.66L292.462 190.666C292.462 190.666 294.293 191.332 294.202 194.459C294.115 197.14 292.035 198.047 290.198 198.584C288.36 199.122 280.671 200.558 277.334 199.849C274.707 199.29 271.778 198.447 270.904 197.968C270.363 197.67 269.855 197.315 269.39 196.907C269.39 196.907 266.997 195.516 266.245 191.066C265.492 186.616 264.668 183.447 266.717 179.085C268.766 174.724 271.725 169.843 271.938 166.327C272.151 162.811 272.058 157.744 271.384 156.531C270.71 155.317 272.257 152.77 274.349 153.232C276.441 153.693 281.181 157.114 280.594 162.054C280.007 166.994 279.579 169.763 281.869 172.117C284.158 174.472 287.844 174.588 292.388 174.361C296.933 174.133 304.131 173.704 305.358 173.733C306.586 173.762 309.934 174.025 310.124 176.322Z" fill="#515A60"/>
<g style="mix-blend-mode:multiply" opacity="0.2">
<path d="M310.123 176.322C310.238 177.711 310.029 178.909 309.287 179.675C308.836 180.129 308.249 180.423 307.616 180.513C307.475 180.525 307.328 180.537 307.175 180.55L300.221 181.125L296.787 181.408C297.578 182.332 298.062 183.48 298.171 184.691C298.234 185.441 298.132 186.195 297.873 186.901C297.613 187.607 297.201 188.247 296.668 188.776C296.175 189.158 295.643 189.485 295.079 189.75C294.263 190.144 293.407 190.449 292.526 190.66L292.461 190.666C292.461 190.666 294.292 191.332 294.201 194.459C294.115 197.14 292.035 198.047 290.197 198.584C288.359 199.122 280.671 200.558 277.333 199.849C274.706 199.29 271.778 198.447 270.904 197.968C270.362 197.67 269.854 197.315 269.39 196.907C269.39 196.907 266.996 195.516 266.244 191.066C265.492 186.616 264.668 183.447 266.717 179.085C268.766 174.724 271.725 169.843 271.938 166.327C272.151 162.811 272.058 157.744 271.383 156.531C270.709 155.317 272.257 152.77 274.349 153.232C276.441 153.693 281.18 157.114 280.594 162.054C280.007 166.994 279.579 169.763 281.868 172.117C284.158 174.472 287.843 174.588 292.388 174.361C296.933 174.133 304.13 173.704 305.358 173.733C306.585 173.762 309.933 174.025 310.123 176.322Z" fill="#515A60"/>
</g>
<g style="mix-blend-mode:multiply" opacity="0.2">
<path d="M309.284 179.646C308.687 180.125 307.968 180.427 307.208 180.517L287.496 182.147C287.094 182.014 286.821 181.787 286.774 181.507L309.284 179.646Z" fill="#515A60"/>
</g>
<g style="mix-blend-mode:multiply" opacity="0.2">
<path d="M295.081 189.72C294.265 190.114 293.409 190.419 292.528 190.63L287.537 191.043C287.39 190.996 287.257 190.911 287.152 190.797C287.047 190.683 286.974 190.544 286.939 190.393L295.081 189.72Z" fill="#515A60"/>
</g>
<path d="M214.577 284.119C214.186 284.668 213.818 284.916 213.619 284.517C213.499 284.276 213.975 284.179 214.577 284.119Z" fill="#DBF0FD"/>
<path d="M110.96 238.946H111.111V239.259L110.96 238.946Z" fill="#3F9BD6"/>
<path d="M141.935 277.687L177.808 342.856C177.808 342.856 176.735 344.969 175.355 347.554C173.976 350.139 170.62 352.603 170.62 352.603C170.114 351.945 169.503 351.376 168.812 350.918C168.352 350.576 167.864 350.273 167.354 350.012C166.868 350.668 166.319 351.274 165.715 351.824L164.944 352.476C164.922 351.691 164.682 350.928 164.251 350.272L163.607 349.541C163.607 349.541 162.835 350.103 161.799 350.966C161.434 351.293 161.029 351.571 160.594 351.794C160.493 351.847 160.386 351.888 160.275 351.914C160.275 351.914 160.492 351.093 159.455 350.362C158.419 349.632 156.786 348.677 153.822 344.969C150.858 341.261 140.651 324.346 139.874 307.913C139.314 296.426 140.724 284.686 141.935 277.687Z" fill="#4D9BE2"/>
<path d="M159.841 352.603H159.933C159.92 352.613 159.904 352.619 159.887 352.619C159.87 352.619 159.854 352.613 159.841 352.603Z" fill="#515A60"/>
<path d="M132.45 358.195H132.301L132.247 358.189L132.45 358.195Z" fill="#515A60"/>
<path d="M197.278 85.654C197.149 85.512 197 85.3894 196.836 85.2903L197.278 85.654Z" fill="#2E98D5"/>
<path d="M197.278 85.654C197.149 85.512 197 85.3894 196.836 85.2903L197.278 85.654Z" fill="#DBF0FD"/>
<g opacity="0.33">
<path opacity="0.33" d="M197.278 85.6539C197.149 85.5119 197.001 85.3894 196.837 85.2903L197.278 85.6539Z" fill="#535C62"/>
</g>
<g opacity="0.33">
<path opacity="0.33" d="M197.721 86.2292L197.318 86.2563L197.278 85.6539C197.459 85.8177 197.609 86.0125 197.721 86.2292Z" fill="#535C62"/>
</g>
<path d="M197.729 86.259L197.32 86.2865L197.278 85.6539C197.464 85.8322 197.615 86.0437 197.724 86.2775L197.729 86.259Z" fill="#E6F4FD"/>
<path d="M197.278 85.654C197.149 85.512 197 85.3894 196.836 85.2903L197.278 85.654Z" fill="#E6F4FD"/>
<g opacity="0.3">
<path opacity="0.3" d="M247.276 53.4621C247.39 57.1571 247.037 63.2432 246.493 70.1769C246.469 70.4448 246.451 70.7122 246.426 70.9801C243.046 84.2695 230.552 94.7888 216.212 102.201C203.589 108.718 198.924 108.257 198.924 108.257C198.924 108.257 194.357 109.338 180.977 104.568C165.746 99.1349 151.958 90.3623 146.845 77.6251C145.7 72.2568 144.718 67.4342 144.101 63.7245C143.909 62.4789 143.75 61.3763 143.65 60.4211C142.434 48.7714 140.213 35.5556 152.009 25.9786C163.806 16.4015 181.078 9.03401 186.784 7.91269C189.557 7.36351 190.958 7.09393 191.715 6.94025L192.527 6.88573C193.267 6.93885 194.716 7.01699 197.531 7.19099C203.336 7.55135 221.452 12.5726 234.406 20.4452C247.36 28.3178 246.945 41.7711 247.276 53.4621Z" fill="#525B61"/>
<path opacity="0.3" d="M144.729 65.3718C141.63 64.0486 138.795 62.1769 136.359 59.8465C132.479 56.0528 129.207 52.309 130.259 49.1704C131.312 46.0318 135.427 42.9779 138.374 40.6017C141.32 38.2254 145.726 36.7919 145.726 36.7919C145.726 36.7919 143.96 52.4559 144.505 57.6172C145.051 62.7785 144.729 65.3718 144.729 65.3718Z" fill="#525B61"/>
<path opacity="0.3" d="M246.089 50.8011C245.94 45.6132 242.1 30.3257 242.1 30.3257C242.1 30.3257 246.651 31.1577 249.894 33.1183C253.137 35.0789 257.63 37.5547 259.08 40.5253C260.53 43.4958 257.829 47.6407 254.46 51.9212C252.357 54.5565 249.797 56.7905 246.902 58.5162C246.902 58.5162 246.237 55.9831 246.089 50.8011Z" fill="#525B61"/>
</g>
<path d="M144.407 60.5617C141.308 59.2386 138.473 57.367 136.037 55.0366C132.157 51.2369 128.885 47.4932 129.938 44.3544C130.99 41.2157 135.106 38.1677 138.052 35.7912C140.999 33.4148 145.404 31.9811 145.404 31.9811C145.404 31.9811 143.638 47.6455 144.183 52.8009C144.727 57.9562 144.407 60.5617 144.407 60.5617Z" fill="#4D9BE2"/>
<path d="M143.259 43.4614C143.259 43.4614 139.861 42.7032 137.85 42.9835C135.839 43.2638 135.156 44.1568 135.319 45.7796C135.478 47.5853 136.253 49.2811 137.514 50.5819C139.007 52.2122 140.919 53.6147 142.011 53.5958C143.104 53.5769 143.834 52.0393 143.834 52.0393L143.259 43.4614Z" fill="#DBF0FD"/>
<g opacity="0.18">
<path opacity="0.18" d="M135.46 44.4387C138.633 44.359 139.439 45.6601 140.365 47.2194C141.143 48.5347 141.586 52.1774 141.729 53.5776C141.812 53.5997 141.898 53.6102 141.985 53.6088C143.071 53.5904 143.808 52.0526 143.808 52.0526L143.231 43.4635C143.231 43.4635 139.833 42.7053 137.821 42.9855C136.498 43.159 135.762 43.6379 135.46 44.4387Z" fill="#535C62"/>
</g>
<g style="mix-blend-mode:multiply" opacity="0.16">
<path d="M129.813 44.814C132.121 43.9744 134.511 43.3839 136.944 43.0526C138.793 42.8616 140.661 42.9545 142.483 43.328L144.309 39.8357L144.917 36.8425C145.187 34.0233 145.415 32.0177 145.415 32.0177C145.415 32.0177 141.017 33.4444 138.066 35.8205C135.114 38.1966 130.982 41.2449 129.947 44.3816C129.885 44.5249 129.84 44.6671 129.813 44.814Z" fill="#515A60"/>
</g>
<path d="M245.767 45.9863C245.619 40.8043 241.778 25.5165 241.778 25.5165C241.778 25.5165 246.329 26.3425 249.573 28.3092C252.816 30.2759 257.307 32.7397 258.757 35.7103C260.207 38.6809 257.506 42.8259 254.138 47.1124C252.035 49.7478 249.475 51.9818 246.581 53.7075C246.581 53.7075 245.915 51.1744 245.767 45.9863Z" fill="#4D9BE2"/>
<g style="mix-blend-mode:multiply" opacity="0.4">
<path d="M245.767 45.9862C245.619 40.8042 241.778 25.5164 241.778 25.5164C241.778 25.5164 246.329 26.3424 249.573 28.3091C252.816 30.2757 257.307 32.7396 258.757 35.7102C260.207 38.6808 257.506 42.8257 254.138 47.1123C252.035 49.7477 249.475 51.9817 246.581 53.7074C246.581 53.7074 245.915 51.1743 245.767 45.9862Z" fill="#4D9BE2"/>
</g>
<path d="M246.011 45.1833C246.011 45.1833 246.946 46.609 248.025 46.4821C249.104 46.3552 250.818 44.7092 252.08 42.8938C253.156 41.4362 253.697 39.6519 253.614 37.8412C253.559 36.2111 252.769 35.4231 250.738 35.4082C248.707 35.3933 245.436 36.6054 245.436 36.6054L246.011 45.1833Z" fill="#DBF0FD"/>
<g opacity="0.18">
<g style="mix-blend-mode:multiply" opacity="0.18">
<path d="M250.733 35.4088C248.702 35.3999 245.435 36.6053 245.435 36.6053L246.011 45.1943C246.011 45.1943 246.947 46.6199 248.026 46.4931L248.056 46.4911C248.142 46.4809 248.226 46.459 248.306 46.4259C248.26 45.0193 248.213 41.3499 248.807 39.9427C249.517 38.2735 250.142 36.8763 253.298 36.5315C252.897 35.7779 252.098 35.4019 250.733 35.4088Z" fill="#525B61"/>
</g>
</g>
<g style="mix-blend-mode:multiply" opacity="0.16">
<path d="M258.768 35.7364C257.325 32.7661 252.816 30.292 249.581 28.3375C246.345 26.3829 241.789 25.5515 241.789 25.5515C241.789 25.5515 242.283 27.5087 242.927 30.2665L243.929 33.1514L246.205 36.3683C247.96 35.7546 249.799 35.4128 251.658 35.3548C254.113 35.3579 256.56 35.6235 258.959 36.147C258.889 36.0065 258.832 35.8713 258.768 35.7364Z" fill="#3583B9"/>
</g>
<path d="M193.307 3.68034L200.139 103.606L199.789 104.655C199.627 104.666 199.374 104.683 199.025 104.707L198.815 104.721L198.416 104.717L198.35 104.722C196.016 104.685 191.017 104.1 182.069 100.931C172.222 97.4218 162.972 92.5295 156.302 86.0297L155.939 85.6728C154.757 84.5044 153.649 83.2629 152.621 81.9557C152.496 81.8007 152.377 81.6393 152.257 81.4839C151.502 80.4949 150.802 79.4651 150.16 78.3991C149.744 77.7007 149.359 76.9943 148.996 76.2743C148.709 75.6884 148.44 75.1012 148.197 74.5426C148.041 74.1741 147.922 73.7908 147.843 73.3984C147.018 69.5624 146.289 65.9863 145.733 62.9311C145.551 61.9206 145.384 60.9635 145.246 60.0771C145.054 58.8432 144.895 57.7343 144.795 56.7728C143.573 45.1263 141.357 31.9064 153.154 22.3514C164.952 12.7963 182.222 5.40361 187.928 4.28226L192.778 3.79381C192.932 3.77428 193.152 3.68151 193.307 3.68034Z" fill="#4D9BE2"/>
<path d="M246.9 49.9965C246.929 50.9628 246.92 52.0831 246.895 53.3314C246.876 54.2284 246.839 55.1992 246.793 56.225C246.651 59.3391 246.418 62.9859 246.076 66.8821C246.049 67.2816 245.983 67.6774 245.877 68.0634C245.713 68.6796 245.525 69.2974 245.317 69.8863C245.054 70.6484 244.766 71.4 244.447 72.1476C243.955 73.2877 243.4 74.3998 242.786 75.4787C242.673 75.68 242.559 75.8812 242.44 76.0769C241.591 77.5062 240.654 78.8808 239.635 80.1928C233.877 87.654 225.256 93.8669 215.821 98.7366C209.683 101.89 205.429 103.41 202.675 104.14C202.248 104.253 201.856 104.346 201.486 104.425C201.117 104.505 200.646 104.597 200.293 104.651L199.904 104.707L199.814 104.713L199.604 104.727L199.411 104.74C199.062 104.764 198.81 104.781 198.648 104.791L198.503 104.801L191.706 3.45879L191.85 3.4491C192.004 3.42957 192.159 3.41919 192.313 3.41802L197.093 3.70239C202.892 4.05751 221.013 9.07454 233.968 16.962C246.923 24.8494 246.574 38.2898 246.9 49.9965Z" fill="#4D9BE2"/>
<g style="mix-blend-mode:multiply" opacity="0.4">
<path d="M246.9 49.9967C246.928 50.963 246.919 52.0833 246.894 53.3316C246.876 54.2285 246.838 55.1994 246.792 56.2252C246.651 59.3393 246.418 62.9861 246.075 66.8823C246.049 67.2817 245.982 67.6775 245.876 68.0636C245.712 68.6798 245.524 69.2976 245.316 69.8865C245.053 70.6486 244.765 71.4002 244.447 72.1478C243.955 73.2879 243.4 74.3999 242.786 75.4789C242.672 75.6802 242.559 75.8814 242.439 76.0771C241.591 77.5064 240.654 78.881 239.634 80.193C233.876 87.6542 225.256 93.8671 215.82 98.7368C209.683 101.89 205.429 103.41 202.675 104.14C202.248 104.253 201.855 104.346 201.486 104.426C201.117 104.505 200.646 104.597 200.293 104.651L199.904 104.707L199.814 104.713L199.603 104.727L199.411 104.74C199.062 104.764 198.809 104.781 198.647 104.792L198.503 104.801L191.706 3.45897L191.85 3.44929C192.003 3.42975 192.158 3.41937 192.313 3.4182L197.092 3.70257C202.891 4.05769 221.012 9.07472 233.968 16.9622C246.923 24.8496 246.574 38.29 246.9 49.9967Z" fill="#4D9BE2"/>
</g>
<path d="M191.774 3.45301L198.573 104.825L198.345 104.841C198.183 104.852 197.93 104.869 197.581 104.892L197.371 104.906L196.972 104.903L196.906 104.907C194.571 104.87 189.572 104.286 180.625 101.116C170.778 97.6074 161.528 92.7151 154.857 86.2153L154.495 85.8583C153.313 84.6899 152.204 83.4484 151.177 82.1413C151.052 81.9863 150.932 81.8249 150.813 81.6695C150.058 80.6805 149.358 79.6506 148.715 78.5846C148.3 77.8863 147.914 77.1799 147.552 76.4598C147.265 75.8739 146.996 75.2868 146.753 74.7281C146.597 74.3597 146.478 73.9763 146.398 73.5839C145.573 69.748 144.844 66.1718 144.289 63.1166C144.106 62.1061 143.939 61.149 143.801 60.2626C143.61 59.0287 143.451 57.9198 143.35 56.9583C142.128 45.3118 139.912 32.0919 151.71 22.5369C163.507 12.9819 180.778 5.58913 186.484 4.46778L191.182 3.5472C191.336 3.52767 191.49 3.48105 191.639 3.44935L191.774 3.45301Z" fill="#4D9BE2"/>
<path d="M197.434 55.8418L200.689 104.373L200.454 104.389C200.292 104.4 200.039 104.417 199.691 104.44L199.48 104.454L199.081 104.451L199.015 104.455C196.681 104.418 191.683 103.834 182.737 100.664C172.891 97.156 163.642 92.264 156.973 85.7647L156.611 85.4078C155.428 84.2394 154.32 82.9981 153.293 81.691C156.67 74.4084 163.075 68.4112 170.596 63.9246C185.422 55.0626 197.1 55.8279 197.44 55.8534L197.434 55.8418Z" fill="#DBF0FD"/>
<path d="M195.32 56.2954L198.575 104.827L198.341 104.843C198.179 104.853 197.926 104.87 197.577 104.894L197.367 104.908L196.968 104.904L196.902 104.909C194.568 104.872 189.57 104.288 180.623 101.118C170.778 97.6096 161.529 92.7177 154.86 86.2183L154.497 85.8614C153.315 84.6931 152.207 83.4517 151.18 82.1447C154.557 74.8621 160.962 68.8649 168.483 64.3782C183.309 55.5163 194.987 56.2815 195.327 56.3071L195.32 56.2954Z" fill="#DBF0FD"/>
<path d="M242.462 76.0788C241.614 77.508 240.678 78.8825 239.658 80.1944C233.901 87.6549 225.282 93.8673 215.848 98.7365C209.711 101.89 205.458 103.41 202.704 104.139C202.277 104.253 201.885 104.345 201.515 104.425C201.146 104.504 200.681 104.59 200.323 104.65L199.934 104.706L199.843 104.712L199.633 104.727L199.441 104.739C199.092 104.763 198.839 104.78 198.677 104.791L198.485 104.804L195.231 56.3024L195.322 56.2963C196.407 56.0903 207.623 54.1877 222.92 60.7251C230.979 64.166 238.153 69.2759 242.462 76.0788Z" fill="#CCE9FC"/>
<g opacity="0.5">
<path opacity="0.5" d="M210.741 71.3859C210.866 71.3776 210.982 71.3201 211.064 71.2261C211.146 71.1321 211.187 71.0093 211.179 70.8847C211.17 70.7601 211.113 70.6439 211.019 70.5617C210.925 70.4795 210.802 70.438 210.678 70.4464C210.554 70.4547 210.438 70.5122 210.356 70.6062C210.274 70.7003 210.232 70.8231 210.24 70.9477C210.249 71.0722 210.306 71.1884 210.4 71.2706C210.494 71.3528 210.617 71.3943 210.741 71.3859Z" fill="#525B61"/>
</g>
<g opacity="0.5">
<path opacity="0.5" d="M212.879 69.2329C212.964 69.2284 213.046 69.1986 213.114 69.1473C213.182 69.096 213.233 69.0255 213.261 68.9449C213.289 68.8643 213.292 68.7772 213.27 68.6948C213.248 68.6124 213.202 68.5384 213.138 68.4822C213.074 68.4261 212.995 68.3904 212.91 68.3797C212.826 68.369 212.74 68.3837 212.664 68.4221C212.588 68.4605 212.525 68.5207 212.483 68.5951C212.442 68.6694 212.423 68.7545 212.43 68.8395C212.438 68.9514 212.489 69.0556 212.573 69.1294C212.658 69.2032 212.768 69.2404 212.879 69.2329Z" fill="#525B61"/>
</g>
<g opacity="0.5">
<path opacity="0.5" d="M212.749 65.3137C212.827 65.3097 212.901 65.2826 212.963 65.236C213.026 65.1893 213.073 65.1252 213.098 65.0517C213.124 64.9782 213.127 64.8988 213.108 64.8234C213.088 64.748 213.047 64.6802 212.989 64.6285C212.931 64.5768 212.858 64.5435 212.781 64.533C212.704 64.5225 212.626 64.5352 212.556 64.5695C212.486 64.6038 212.428 64.6581 212.389 64.7255C212.351 64.7929 212.333 64.8703 212.338 64.948C212.345 65.0508 212.392 65.1468 212.469 65.2152C212.545 65.2836 212.646 65.319 212.749 65.3137Z" fill="#525B61"/>
</g>
<g opacity="0.5">
<path opacity="0.5" d="M214.456 66.8091C214.56 66.8021 214.657 66.7542 214.725 66.6758C214.793 66.5975 214.828 66.4951 214.821 66.3913C214.814 66.2874 214.766 66.1906 214.688 66.1221C214.61 66.0536 214.507 66.019 214.404 66.026C214.3 66.033 214.203 66.0809 214.135 66.1592C214.066 66.2376 214.032 66.3399 214.039 66.4438C214.046 66.5476 214.094 66.6444 214.172 66.7129C214.25 66.7814 214.352 66.816 214.456 66.8091Z" fill="#525B61"/>
</g>
<g opacity="0.5">
<path opacity="0.5" d="M182.264 73.2971C182.357 73.2909 182.446 73.2573 182.519 73.2005C182.593 73.1437 182.648 73.0663 182.678 72.978C182.708 72.8898 182.711 72.7947 182.686 72.7048C182.662 72.6149 182.612 72.5342 182.542 72.4729C182.472 72.4116 182.385 72.3725 182.293 72.3604C182.201 72.3484 182.107 72.364 182.024 72.4054C181.941 72.4467 181.871 72.5118 181.825 72.5925C181.779 72.6732 181.757 72.7659 181.763 72.8588C181.772 72.9834 181.829 73.0996 181.923 73.1818C182.017 73.264 182.14 73.3055 182.264 73.2971Z" fill="#525B61"/>
</g>
<g opacity="0.5">
<path opacity="0.5" d="M179.828 71.451C179.912 71.4453 179.993 71.4145 180.061 71.3626C180.128 71.3106 180.178 71.2398 180.205 71.1591C180.232 71.0785 180.234 70.9916 180.211 70.9097C180.189 70.8277 180.143 70.7543 180.078 70.6987C180.014 70.6432 179.935 70.6081 179.85 70.5979C179.766 70.5877 179.681 70.6028 179.605 70.6413C179.529 70.6798 179.467 70.74 179.425 70.8142C179.384 70.8885 179.366 70.9733 179.372 71.0581C179.376 71.114 179.391 71.1685 179.416 71.2186C179.441 71.2687 179.476 71.3134 179.518 71.3499C179.56 71.3865 179.609 71.4143 179.663 71.4316C179.716 71.449 179.772 71.4556 179.828 71.451Z" fill="#525B61"/>
</g>
<g opacity="0.5">
<path opacity="0.5" d="M179.439 67.549C179.516 67.5438 179.59 67.5158 179.651 67.4684C179.713 67.4211 179.759 67.3566 179.784 67.2831C179.808 67.2095 179.811 67.1303 179.791 67.0554C179.77 66.9804 179.728 66.9132 179.67 66.8621C179.612 66.811 179.54 66.7784 179.463 66.7684C179.386 66.7584 179.308 66.7714 179.238 66.8058C179.169 66.8403 179.111 66.8945 179.073 66.9618C179.034 67.0291 179.016 67.1063 179.021 67.1837C179.028 67.2876 179.076 67.3844 179.154 67.4529C179.233 67.5214 179.335 67.556 179.439 67.549Z" fill="#525B61"/>
</g>
<g opacity="0.5">
<path opacity="0.5" d="M177.953 69.2588C178.03 69.2536 178.104 69.2256 178.165 69.1783C178.227 69.1309 178.273 69.0664 178.298 68.9929C178.322 68.9194 178.325 68.8401 178.305 68.7652C178.285 68.6902 178.243 68.623 178.184 68.5719C178.126 68.5208 178.054 68.4882 177.977 68.4782C177.9 68.4682 177.822 68.4812 177.753 68.5156C177.683 68.5501 177.625 68.6043 177.587 68.6716C177.548 68.7389 177.53 68.8161 177.536 68.8935C177.543 68.9974 177.59 69.0942 177.669 69.1627C177.747 69.2312 177.849 69.2658 177.953 69.2588Z" fill="#525B61"/>
</g>
<path d="M179.852 71.2291C177.826 71.3238 175.807 71.5421 173.808 71.8829C171.825 72.2217 169.843 72.6451 167.854 73.1538C163.93 74.1925 160.111 75.5972 156.449 77.3497C154.628 78.2356 152.854 79.2129 151.132 80.2779C150.69 80.5374 150.275 80.8315 149.846 81.1022C149.417 81.373 148.99 81.6619 148.581 81.9616L147.333 82.8016L146.147 83.7645C145.745 84.0698 145.352 84.4228 144.962 84.7334C144.572 85.0439 144.173 85.3914 143.821 85.7296C143.072 86.4393 142.295 87.1025 141.59 87.8577C140.133 89.3256 138.763 90.8781 137.488 92.5072C138.748 90.8647 140.108 89.3006 141.558 87.8235C142.256 87.0628 143.032 86.3875 143.775 85.6782C144.151 85.3323 144.553 85.021 144.916 84.6699C145.279 84.3189 145.693 84.0128 146.094 83.6834L147.304 82.7369L148.543 81.8371C148.957 81.531 149.385 81.2482 149.807 80.9657C150.229 80.6833 150.65 80.3888 151.085 80.1297C152.813 79.0538 154.59 78.0633 156.418 77.1581C160.077 75.3769 163.896 73.9456 167.823 72.8835C169.781 72.3528 171.769 71.9169 173.775 71.5705C175.785 71.2058 177.816 70.9664 179.857 70.8537C179.894 70.8698 179.926 70.8973 179.946 70.9324C179.968 70.9685 179.981 71.0089 179.985 71.0508C179.992 71.068 179.993 71.087 179.988 71.105C179.994 71.1225 179.995 71.1411 179.992 71.1592C179.98 71.1772 179.964 71.1926 179.947 71.2046C179.918 71.2232 179.885 71.2318 179.852 71.2291Z" fill="#525B61"/>
<path d="M179.366 67.2668C178.068 66.3376 176.639 65.6062 175.126 65.0963C174.941 65.0302 174.754 64.952 174.569 64.8918L174.002 64.7243L172.862 64.3836C172.096 64.2173 171.328 64.0209 170.552 63.8856C169.776 63.7502 169.008 63.6385 168.223 63.5521L165.886 63.3764C164.329 63.3318 162.775 63.3615 161.224 63.4656L159.493 63.5819L158.894 63.6644L156.591 63.9823C155.819 64.0763 155.054 64.2185 154.3 64.4082L152.025 64.8754C150.53 65.2841 149.029 65.6812 147.542 66.1075L143.138 67.6126L147.53 66.1083C149.01 65.6643 150.492 65.2564 152.003 64.8284L154.277 64.3371C155.04 64.1891 155.787 63.9818 156.566 63.8872L158.875 63.5508L159.472 63.4623L161.276 63.3412C162.832 63.2168 164.393 63.1705 165.953 63.2026L168.307 63.359C169.091 63.4334 169.879 63.568 170.652 63.6672C171.426 63.7665 172.213 63.9857 172.985 64.1455L174.143 64.479L174.716 64.6462C174.907 64.7059 175.093 64.7841 175.285 64.8498C176.844 65.3544 178.319 66.0912 179.659 67.0355C179.659 67.0355 179.736 67.1089 179.636 67.2426C179.64 67.2785 179.628 67.3141 179.605 67.3418C179.582 67.3694 179.549 67.3867 179.513 67.3899C179.478 67.3931 179.442 67.382 179.414 67.3589C179.387 67.3358 179.369 67.3027 179.366 67.2668Z" fill="#525B61"/>
<path d="M182.325 72.9991C179.699 73.8371 177.144 74.8826 174.683 76.126C172.198 77.363 169.81 78.7875 167.54 80.3872C166.386 81.1967 165.295 82.0384 164.239 82.9504C163.165 83.8504 162.139 84.806 161.164 85.8131C159.187 87.8452 157.442 90.0912 155.96 92.5096C157.416 90.07 159.14 87.801 161.099 85.7448C162.069 84.7341 163.089 83.773 164.155 82.8653C165.205 81.9477 166.312 81.0807 167.433 80.225C169.691 78.5921 172.071 77.1338 174.551 75.8626C177.014 74.5774 179.577 73.4928 182.215 72.6192C182.215 72.6192 182.323 72.612 182.382 72.7654C182.404 72.8042 182.41 72.8501 182.4 72.8936C182.389 72.937 182.362 72.9748 182.325 72.9991Z" fill="#525B61"/>
<path d="M177.91 69.0457C176.318 68.9048 174.718 68.8788 173.122 68.9679C171.531 69.0333 169.944 69.1802 168.368 69.408C165.215 69.8545 162.093 70.5065 159.024 71.3598L156.738 72.0334C155.968 72.2484 155.226 72.5341 154.47 72.7905C152.956 73.2731 151.487 73.8737 149.998 74.4515C149.255 74.7251 148.529 75.0582 147.795 75.3796L145.607 76.3429L141.322 78.4451C142.742 77.7449 144.16 76.9966 145.593 76.3016L147.767 75.315C148.493 74.9819 149.219 74.6429 149.962 74.3632C151.444 73.7678 152.9 73.1559 154.425 72.6544C155.18 72.398 155.922 72.1063 156.687 71.8977L158.971 71.2001C162.039 70.3098 165.162 69.6234 168.321 69.1451C169.906 68.9237 171.494 68.7385 173.119 68.6596C174.729 68.5518 176.344 68.5626 177.953 68.692C177.953 68.692 178.057 68.7213 178.063 68.8903C178.068 69.0593 177.91 69.0457 177.91 69.0457Z" fill="#525B61"/>
<path d="M212.916 69.0115C214.936 68.8345 216.966 68.7811 218.993 68.8516C221.011 68.9219 223.034 69.0764 225.063 69.3153C229.083 69.82 233.047 70.7024 236.902 71.951C238.834 72.5824 240.733 73.311 242.592 74.1342C243.053 74.3332 243.509 74.5687 243.97 74.7798C244.431 74.9908 244.894 75.2199 245.339 75.4623L246.691 76.1762L248.017 76.9463C248.463 77.1947 248.899 77.4921 249.327 77.7477C249.755 78.0033 250.191 78.2947 250.591 78.5825C251.428 79.1857 252.281 79.7395 253.086 80.3933C254.728 81.6517 256.293 83.0073 257.773 84.4529C256.303 82.9952 254.747 81.6268 253.113 80.3552C252.314 79.6949 251.461 79.1291 250.629 78.5254C250.205 78.2333 249.771 77.978 249.365 77.6786C248.958 77.3792 248.501 77.1316 248.053 76.8591L246.733 76.0826L245.38 75.3567C244.941 75.1079 244.479 74.8848 244.017 74.6617C243.555 74.4386 243.104 74.2027 242.638 74.0041C240.782 73.1613 238.884 72.4164 236.95 71.7723C233.09 70.4958 229.119 69.5875 225.088 69.0595C223.059 68.7964 221.043 68.6232 219.015 68.5537C216.972 68.4608 214.925 68.4952 212.886 68.6565C212.854 68.6791 212.829 68.7101 212.813 68.7461C212.804 68.7862 212.807 68.8281 212.821 68.8666C212.814 68.8823 212.811 68.8995 212.813 68.9167C212.814 68.9339 212.82 68.9504 212.829 68.9649C212.838 68.9793 212.851 68.9912 212.866 68.9993C212.882 69.0074 212.899 69.0116 212.916 69.0115Z" fill="#525B61"/>
<path d="M212.838 65.0216C214.003 63.9297 215.321 63.0141 216.75 62.3039C216.931 62.2131 217.099 62.1111 217.281 62.0264L217.82 61.7846L218.898 61.2949C219.641 61.0274 220.376 60.7301 221.121 60.4926C221.866 60.2552 222.631 60.0406 223.385 59.8509L225.678 59.3644C227.213 59.1102 228.765 58.9334 230.316 58.8293L232.065 58.7118L232.669 58.7136L235.001 58.7204C235.776 58.7112 236.551 58.7501 237.321 58.8367L239.645 58.9952C241.175 59.2009 242.691 59.3954 244.246 59.6175L248.812 60.5204L244.258 59.6167C242.726 59.3749 241.209 59.1684 239.66 58.9458L237.335 58.7632C236.559 58.7186 235.785 58.6133 235.012 58.6228L232.674 58.5984L232.069 58.5906L230.308 58.7089C228.745 58.7937 227.188 58.9567 225.642 59.1974L223.331 59.6671C222.57 59.8451 221.813 60.0834 221.047 60.286C220.282 60.4885 219.548 60.8099 218.805 61.0714L217.708 61.5562L217.157 61.7989C216.975 61.8836 216.795 61.9864 216.626 62.0764C215.147 62.7834 213.784 63.7108 212.583 64.827C212.564 64.8582 212.554 64.8948 212.557 64.9316C212.559 64.9683 212.573 65.0034 212.597 65.0317C212.683 65.1529 212.838 65.0216 212.838 65.0216Z" fill="#525B61"/>
<path d="M210.72 71.0942C213.434 71.5747 216.106 72.2693 218.71 73.1718C221.334 74.0668 223.887 75.1596 226.346 76.4409C227.598 77.0891 228.785 77.7778 229.966 78.5396C231.145 79.2903 232.286 80.1003 233.384 80.9664C235.619 82.7127 237.651 84.7055 239.441 86.907C237.67 84.6838 235.657 82.6657 233.439 80.8901C232.347 80.008 231.211 79.1815 230.036 78.4139C228.861 77.6456 227.66 76.9336 226.423 76.2361C223.968 74.9209 221.417 73.7935 218.792 72.8637C216.179 71.9194 213.494 71.187 210.764 70.6738C210.764 70.6738 210.656 70.681 210.618 70.8409C210.603 70.8884 210.606 70.9394 210.624 70.9855C210.643 71.0316 210.676 71.07 210.72 71.0942Z" fill="#525B61"/>
<path d="M214.555 66.5877C216.11 66.2355 217.688 65.9961 219.277 65.8715C220.879 65.7224 222.487 65.6548 224.095 65.669C227.278 65.6905 230.457 65.9196 233.61 66.3548L235.972 66.7164C236.752 66.8273 237.531 67.0109 238.308 67.1644C239.879 67.44 241.422 67.8384 242.968 68.2124C243.747 68.3839 244.511 68.6168 245.269 68.8382L247.566 69.5005L252.1 71.0105C250.599 70.5065 249.094 69.9543 247.581 69.4571L245.289 68.7703C244.53 68.537 243.765 68.298 242.986 68.1205C241.444 67.728 239.913 67.3167 238.335 67.0235C237.558 66.87 236.784 66.68 235.998 66.5755L233.641 66.1894C230.482 65.7197 227.295 65.4589 224.102 65.4085C222.507 65.4006 220.908 65.4293 219.281 65.5688C217.671 65.6768 216.072 65.9034 214.495 66.2469C214.495 66.2469 214.402 66.2895 214.413 66.4581C214.424 66.6267 214.555 66.5877 214.555 66.5877Z" fill="#525B61"/>
<g opacity="0.33">
<path opacity="0.33" d="M206.621 55.5328C205.122 54.7081 201.853 53.1437 198.843 53.0317C197.195 52.9551 196.118 52.9308 195.471 52.9199L195.468 52.8657L194.704 52.9171L194.708 52.9713C194.068 53.0688 192.998 53.2376 191.381 53.534C188.397 54.0676 185.383 56.0549 184.006 57.055C183.319 57.5435 182.831 58.2636 182.632 59.0832C182.433 59.901 182.532 60.7626 182.909 61.5144C183.704 63.197 188.609 67.1798 190.596 68.0684C192.213 68.7762 195.083 68.5164 196.108 68.393C197.152 68.3772 200.03 68.25 201.533 67.3322C203.397 66.2026 207.726 61.5801 208.278 59.8068C208.556 59.023 208.545 58.166 208.249 57.3891C207.947 56.5944 207.369 55.9353 206.621 55.5328Z" fill="#535C62"/>
</g>
<path d="M191.238 56.6381C191.941 57.0043 192.703 57.2401 193.489 57.3342C194.119 57.4077 194.752 57.4359 195.386 57.4187L196.055 67.401C195.007 67.5259 192.077 67.7891 190.423 67.0892C188.39 66.2212 183.38 62.2186 182.573 60.542C182.187 59.7885 182.088 58.9204 182.294 58.0994C182.501 57.2785 182.997 56.5606 183.693 56.0795C185.104 55.0589 188.202 53.0658 191.23 52.5479C192.883 52.2553 193.977 52.0851 194.635 51.9865L194.632 51.9383L195.016 51.9124L195.1 53.1655C195.1 53.1655 191.98 53.4778 190.713 54.5735C189.446 55.6691 191.238 56.6381 191.238 56.6381Z" fill="#525B61"/>
<path d="M191.238 56.6381C191.94 57.0043 192.703 57.2401 193.489 57.3342C194.119 57.4077 195.308 57.365 195.941 57.3477L196.393 67.2111C195.344 67.336 192.077 67.7891 190.423 67.0892C188.39 66.2212 183.38 62.2186 182.573 60.542C182.187 59.7885 182.088 58.9204 182.294 58.0995C182.501 57.2785 182.997 56.5606 183.693 56.0795C185.104 55.0589 188.202 53.0658 191.229 52.5479C192.883 52.2554 193.977 52.0851 194.635 51.9865L194.631 51.9383L195.338 51.9437L195.564 53.0018C195.564 53.0018 191.98 53.4778 190.713 54.5735C189.446 55.6692 191.238 56.6381 191.238 56.6381Z" fill="#525B61"/>
<path d="M208.504 58.8015C207.928 60.5708 203.496 65.1887 201.598 66.3388C200.053 67.2533 197.115 67.384 196.053 67.4008L195.383 57.4191C194.75 57.4363 194.116 57.4081 193.487 57.3346C192.701 57.2405 191.938 57.0047 191.236 56.6385C191.236 56.6385 189.426 55.6769 190.704 54.5684C191.983 53.46 195.091 53.1605 195.091 53.1605L195.008 51.9136L195.405 51.8869L195.408 51.9412C196.067 51.9514 197.168 51.9743 198.852 52.0428C201.923 52.1755 205.265 53.7363 206.792 54.5354C207.549 54.9173 208.14 55.5626 208.456 56.3504C208.771 57.1381 208.788 58.0139 208.505 58.8135L208.504 58.8015Z" fill="#525B61"/>
<g opacity="0.4">
<path d="M208.511 58.8722C207.935 60.6412 203.502 65.2592 201.604 66.4094C200.058 67.3241 197.119 67.4554 196.057 67.4724L195.389 57.4865C194.756 57.5088 194.122 57.4827 193.493 57.4084C192.707 57.3144 191.944 57.0788 191.241 56.7129C191.241 56.7129 189.431 55.7517 190.71 54.6432C191.989 53.5347 195.098 53.2347 195.098 53.2347L195.014 51.982L195.411 51.9553L195.415 52.0095C196.074 52.0196 197.175 52.0423 198.859 52.1105C201.93 52.2426 205.272 53.8024 206.8 54.6011C207.549 54.9824 208.135 55.6227 208.45 56.4034C208.764 57.1842 208.785 58.0527 208.51 58.8481L208.511 58.8722Z" fill="#525B61"/>
<g style="mix-blend-mode:multiply" opacity="0.2">
<path d="M208.511 58.8724C207.935 60.6414 203.502 65.2594 201.604 66.4096C200.058 67.3243 197.119 67.4556 196.057 67.4726L195.389 57.4867C194.756 57.509 194.122 57.4829 193.493 57.4086C192.707 57.3147 191.944 57.079 191.241 56.7131C191.241 56.7131 189.431 55.7519 190.71 54.6434C191.989 53.5349 195.098 53.2349 195.098 53.2349L195.014 51.9822L195.411 51.9555L195.415 52.0097C196.074 52.0198 197.175 52.0425 198.859 52.1107C201.93 52.2428 205.272 53.8026 206.8 54.6013C207.549 54.9826 208.135 55.6229 208.45 56.4037C208.764 57.1844 208.785 58.0529 208.51 58.8483L208.511 58.8724Z" fill="#525B61"/>
</g>
</g>
<path d="M200.883 61.9034C200.787 61.6412 200.768 61.3569 200.828 61.0842C200.884 60.8089 201.015 60.5548 201.208 60.3507C201.88 59.5673 202.6 59.047 203.13 59.199C203.246 59.217 203.358 59.2589 203.458 59.3219C203.558 59.385 203.644 59.4679 203.71 59.5655C203.778 59.6608 203.826 59.7686 203.852 59.8827C203.884 59.9963 203.892 60.1153 203.876 60.2321C203.868 60.5499 203.774 60.8597 203.604 61.1278C203.439 61.4025 203.204 61.6275 202.922 61.7786C202.384 62.0318 201.798 62.168 201.204 62.1784C200.918 62.0645 200.883 61.9034 200.883 61.9034Z" fill="#6D7780"/>
<path d="M190.538 62.5977C190.598 62.3249 190.579 62.0406 190.483 61.7784C190.391 61.5131 190.227 61.2788 190.009 61.1022C189.232 60.4161 188.455 59.9963 187.95 60.2177C187.837 60.2512 187.732 60.3076 187.642 60.3834C187.551 60.4592 187.477 60.5528 187.424 60.6585C187.367 60.7609 187.334 60.8748 187.326 60.9919C187.312 61.1088 187.32 61.2272 187.349 61.3413C187.404 61.6548 187.54 61.9482 187.745 62.1922C187.943 62.4438 188.206 62.6356 188.506 62.7461C189.074 62.9251 189.673 62.9818 190.263 62.9126C190.329 62.8827 190.387 62.8392 190.435 62.7849C190.482 62.7306 190.517 62.6667 190.538 62.5977Z" fill="#6D7780"/>
<g opacity="0.51">
<path opacity="0.51" d="M199.395 56.0885C198.749 56.5459 198.024 56.8815 197.257 57.0787C196.662 57.2154 196.197 57.3011 195.88 57.3526C195.718 57.3828 195.552 57.3939 195.387 57.3857C194.754 57.4079 194.121 57.3817 193.492 57.3073C192.705 57.2133 191.943 56.9776 191.24 56.6117C191.24 56.6117 189.43 55.6506 190.709 54.5427C191.988 53.4347 195.096 53.1353 195.096 53.1353C195.096 53.1353 198.23 53.0278 199.638 53.9433C201.046 54.8588 199.395 56.0885 199.395 56.0885Z" fill="white"/>
</g>
<path d="M218.153 70.2319C217.969 70.2755 217.809 70.3888 217.707 70.5479C217.605 70.707 217.569 70.8996 217.606 71.085C217.606 71.085 217.329 74.5265 215.565 75.8545C211.421 78.9932 205.886 77.0546 197.197 75.8055C197.012 75.7624 196.821 75.7526 196.633 75.7768C196.446 75.7782 196.26 75.8132 196.085 75.8801C187.645 78.261 182.413 80.9405 177.882 78.3842C175.968 77.3032 175.218 73.9547 175.222 73.9303C175.23 73.8366 175.22 73.7422 175.191 73.6527C175.162 73.5632 175.116 73.4804 175.054 73.4093C174.932 73.2663 174.759 73.1761 174.572 73.1574C174.038 73.1207 173.822 73.5888 173.837 73.993C174.176 75.998 175.236 77.8093 176.818 79.0846C178.601 80.4647 181.643 80.7987 184.957 80.2376C188.271 79.6764 192.179 78.3376 196.735 77.0278C201.43 77.6984 205.518 78.5005 208.842 78.6341C212.167 78.7678 215.178 78.0093 216.755 76.4036C218.15 74.9271 218.959 72.991 219.029 70.9593C218.954 70.5591 218.703 70.1526 218.153 70.2319Z" fill="#525B61"/>
<path d="M196.68 76.7192L197.26 85.3756C194.488 85.5617 191.885 84.2115 189.888 82.7178C187.606 81.0194 186.138 79.7504 186.138 79.7504C189.413 78.0418 192.998 77.0109 196.68 76.7192Z" fill="#525B61"/>
<path d="M197.149 75.9051C200.83 75.6134 197.487 85.2391 197.487 85.2391C194.716 85.4251 191.886 84.2116 189.889 82.7179C187.607 81.0195 186.139 79.7505 186.139 79.7505C189.414 78.0419 193.467 76.1969 197.149 75.9051Z" fill="#525B61"/>
<path d="M207.584 78.3051C207.584 78.3051 206.298 79.759 204.269 81.7468C202.49 83.4939 200.084 85.1803 197.264 85.3696L196.684 76.7192C200.387 76.5031 204.095 77.0426 207.584 78.3051Z" fill="#525B61"/>
<g style="mix-blend-mode:multiply" opacity="0.2">
<path d="M207.584 78.3051C207.584 78.3051 206.298 79.7589 204.269 81.7467C202.49 83.4939 200.084 85.1802 197.264 85.3695L196.684 76.7192C200.387 76.5031 204.095 77.0426 207.584 78.3051Z" fill="#525B61"/>
</g>
<g opacity="0.33">
<g style="mix-blend-mode:multiply" opacity="0.33">
<path d="M218.199 70.8946C218.017 70.9381 217.858 71.0504 217.756 71.2081C217.654 71.3659 217.617 71.5568 217.652 71.7413C217.652 71.7413 217.376 75.1872 215.611 76.5147C211.467 79.6522 205.932 77.7151 197.242 76.4675C197.059 76.4185 196.867 76.4088 196.679 76.4389C196.491 76.4373 196.305 76.4724 196.13 76.5422C187.69 78.9228 182.458 81.6015 177.927 79.0469C176.013 77.9666 175.263 74.6199 175.267 74.5894C175.279 74.4027 175.219 74.2185 175.1 74.0748C174.977 73.9328 174.804 73.8429 174.618 73.8231C174.084 73.7864 173.868 74.2543 173.883 74.6583C174.222 76.6695 175.289 78.485 176.881 79.7578C178.665 81.1431 181.707 81.4706 185.02 80.9034C188.334 80.3362 192.244 79.0157 196.799 77.6941C201.494 78.3639 205.582 79.1591 208.906 79.2984C212.231 79.4376 215.243 78.6852 216.82 77.0742C218.215 75.6005 219.024 73.6673 219.095 71.6383C219 71.2216 218.747 70.7852 218.199 70.8946Z" fill="#535C62"/>
</g>
</g>
<path d="M196.717 75.7408L196.804 77.0417C192.24 78.3281 188.194 79.6885 184.941 80.2578C181.688 80.827 178.585 80.4848 176.802 79.1043C175.22 77.8312 174.159 76.021 173.821 74.0171C173.802 73.9117 173.808 73.8034 173.837 73.7004C173.865 73.5973 173.917 73.5021 173.988 73.4218C174.058 73.3415 174.146 73.2782 174.245 73.2365C174.343 73.1949 174.45 73.176 174.556 73.1813C174.744 73.1971 174.918 73.2864 175.041 73.4299C175.164 73.5734 175.225 73.7595 175.212 73.9479C175.216 74.0142 175.97 77.3331 177.872 78.4093C182.404 80.9605 187.602 78.2401 196.041 75.8346C196.261 75.7723 196.488 75.7408 196.717 75.7408Z" fill="#525B61"/>
<path d="M218.993 70.961C218.923 72.9916 218.114 74.9263 216.719 76.401C215.141 78.0071 212.166 78.7513 208.806 78.6321C205.446 78.5128 201.498 77.7312 196.8 77.0181L196.713 75.7173C196.868 75.6979 197.026 75.712 197.175 75.7589C205.857 76.9909 211.4 78.948 215.543 75.8084C217.296 74.4808 217.589 71.0976 217.584 71.0314C217.547 70.8469 217.584 70.6552 217.688 70.4981C217.79 70.34 217.949 70.2275 218.131 70.184C218.241 70.168 218.353 70.1764 218.459 70.2085C218.564 70.2407 218.662 70.2958 218.744 70.37C218.826 70.4442 218.891 70.5356 218.934 70.6377C218.977 70.7399 218.997 70.8503 218.993 70.961Z" fill="#525B61"/>
<g style="mix-blend-mode:multiply" opacity="0.2">
<path d="M218.993 70.9611C218.922 72.9916 218.114 74.9263 216.719 76.401C215.141 78.0072 212.166 78.7514 208.806 78.6321C205.446 78.5128 201.498 77.7312 196.8 77.0182L196.713 75.7173C196.868 75.6979 197.026 75.7121 197.175 75.7589C205.857 76.991 211.4 78.948 215.543 75.8084C217.296 74.4808 217.589 71.0976 217.584 71.0314C217.547 70.847 217.584 70.6553 217.687 70.4982C217.79 70.34 217.949 70.2275 218.131 70.184C218.241 70.168 218.353 70.1764 218.458 70.2086C218.564 70.2407 218.662 70.2958 218.744 70.37C218.826 70.4442 218.891 70.5356 218.934 70.6378C218.977 70.7399 218.997 70.8503 218.993 70.9611Z" fill="#525B61"/>
</g>
<g opacity="0.33">
<path opacity="0.33" d="M200.91 86.8396C200.06 87.2241 199.161 87.488 198.239 87.6237L197.436 87.726L196.633 87.7315C195.701 87.7203 194.774 87.5789 193.881 87.3114C192.95 87.0352 191.901 87.6923 192.162 88.6969C192.423 89.7015 193.92 90.8651 195.419 91.3269C196.885 91.7848 198.47 91.6785 199.862 91.0287C201.286 90.3706 202.591 89.0311 202.744 87.9865C202.898 86.942 201.777 86.4427 200.91 86.8396Z" fill="#535C62"/>
</g>
<path d="M190.551 86.0157C191.612 86.5628 192.739 86.9689 193.905 87.2238C196.227 87.7258 198.646 87.5361 200.862 86.6782C201.976 86.2527 203.028 85.6797 203.99 84.9744C203.133 85.8389 202.123 86.5363 201.012 87.031C198.752 88.0713 196.196 88.2708 193.803 87.5935C192.632 87.2709 191.53 86.7361 190.551 86.0157Z" fill="#535C62"/>
<path d="M203.592 81.8231C201.596 81.7816 199.958 81.6738 198.611 82.1151C198.116 82.274 197.603 82.3714 197.084 82.4052L197.283 85.3745C200.067 85.1876 202.389 83.5253 204.172 81.8326C203.941 81.8118 203.828 81.8315 203.592 81.8231Z" fill="#D24A60"/>
<g style="mix-blend-mode:multiply" opacity="0.3">
<path d="M203.591 81.8232C201.596 81.7817 199.958 81.6738 198.61 82.1152C198.115 82.274 197.602 82.3715 197.084 82.4052L197.283 85.3746C200.066 85.1877 202.389 83.5253 204.172 81.8326C203.941 81.8118 203.827 81.8315 203.591 81.8232Z" fill="#D24A60"/>
</g>
<path d="M197.061 82.4066L197.26 85.3759C194.488 85.562 192.032 84.3172 189.978 82.7852C190.192 82.7345 190.333 82.7614 190.576 82.6967C192.548 82.3888 194.157 82.063 195.557 82.3199C196.053 82.4088 196.558 82.4379 197.061 82.4066Z" fill="#D24A60"/>
<g opacity="0.5">
<path opacity="0.5" d="M169.272 53.9018C170.779 53.8016 172.223 53.2559 173.421 52.3337C174.619 51.4115 175.517 50.1542 176.001 48.721C176.485 47.2878 176.534 45.743 176.142 44.282C175.75 42.8209 174.933 41.5094 173.797 40.5132C172.66 39.517 171.253 38.881 169.755 38.6855C168.257 38.49 166.735 38.7439 165.381 39.4151C164.027 40.0862 162.902 41.1445 162.149 42.4559C161.395 43.7674 161.047 45.2732 161.148 46.7828C161.214 47.7847 161.477 48.7637 161.921 49.6638C162.365 50.564 162.982 51.3676 163.737 52.0287C164.491 52.6898 165.368 53.1956 166.318 53.517C167.268 53.8384 168.272 53.9691 169.272 53.9018Z" fill="#525B61"/>
</g>
<path d="M169.235 53.3489C170.632 53.2563 171.971 52.7504 173.082 51.8953C174.192 51.0402 175.025 49.8743 175.474 48.545C175.923 47.2157 175.968 45.7829 175.604 44.4276C175.24 43.0724 174.483 41.8557 173.428 40.9315C172.374 40.0073 171.07 39.417 169.681 39.2354C168.292 39.0538 166.88 39.289 165.625 39.9113C164.37 40.5335 163.327 41.5149 162.628 42.7312C161.93 43.9475 161.607 45.3441 161.701 46.7443C161.762 47.6736 162.006 48.5817 162.418 49.4167C162.83 50.2517 163.402 50.9971 164.102 51.6105C164.802 52.2239 165.615 52.6931 166.496 52.9914C167.377 53.2897 168.307 53.4112 169.235 53.3489Z" fill="#525B61"/>
<path d="M171.574 45.6456C171.827 45.6298 172.069 45.5393 172.27 45.3856C172.471 45.2319 172.622 45.0218 172.704 44.782C172.785 44.5422 172.794 44.2835 172.729 44.0386C172.664 43.7938 172.528 43.5738 172.338 43.4065C172.148 43.2392 171.912 43.1322 171.662 43.0991C171.411 43.0659 171.156 43.1081 170.929 43.2202C170.702 43.3324 170.514 43.5094 170.388 43.729C170.261 43.9486 170.203 44.2008 170.22 44.4536C170.243 44.7913 170.398 45.1062 170.652 45.3296C170.905 45.553 171.237 45.6666 171.574 45.6456Z" fill="#E6F4FD"/>
<path d="M169.314 42.7407C169.473 42.7312 169.625 42.6748 169.751 42.5786C169.878 42.4824 169.973 42.3508 170.024 42.2004C170.076 42.05 170.082 41.8876 170.041 41.7338C170.001 41.58 169.915 41.4417 169.796 41.3366C169.677 41.2314 169.53 41.1641 169.372 41.1431C169.215 41.1221 169.055 41.1484 168.912 41.2187C168.77 41.289 168.651 41.4001 168.572 41.5379C168.493 41.6757 168.456 41.834 168.467 41.9927C168.483 42.2036 168.58 42.4 168.738 42.5397C168.897 42.6795 169.103 42.7517 169.314 42.7407Z" fill="#E6F4FD"/>
<path d="M174.999 34.4901C174.999 34.4901 171.386 31.6718 167.329 31.43C163.273 31.1881 160.098 31.6614 158.887 32.6984C157.677 33.7354 157.706 34.3504 158.149 34.5626C158.592 34.7748 159.602 34.3562 160.042 34.1573C160.382 34.0014 160.969 33.3873 165.566 33.3147C171.658 33.2142 174.184 35.7606 174.693 35.3272C175.201 34.8939 174.999 34.4901 174.999 34.4901Z" fill="#525B61"/>
<path opacity="0.5" d="M227.892 42.3024C227.79 40.7936 227.243 39.349 226.321 38.1514C225.399 36.9539 224.143 36.0572 222.712 35.5749C221.281 35.0926 219.74 35.0463 218.283 35.4418C216.826 35.8374 215.519 36.657 214.528 37.797C213.536 38.937 212.904 40.3462 212.713 41.8462C212.521 43.3462 212.777 44.8696 213.45 46.2236C214.122 47.5776 215.181 48.7015 216.491 49.4529C217.801 50.2043 219.304 50.5495 220.81 50.4448C222.826 50.3046 224.705 49.3685 226.033 47.8418C227.36 46.3152 228.029 44.3229 227.892 42.3024Z" fill="#525B61"/>
<path d="M227.338 42.3396C227.243 40.9403 226.736 39.6007 225.881 38.4903C225.026 37.3798 223.861 36.5483 222.534 36.1012C221.207 35.654 219.778 35.6112 218.427 35.9781C217.076 36.3451 215.864 37.1053 214.945 38.1627C214.025 39.22 213.44 40.5269 213.262 41.9179C213.084 43.309 213.322 44.7217 213.946 45.9772C214.57 47.2328 215.552 48.2748 216.767 48.9715C217.982 49.6681 219.376 49.9879 220.772 49.8906C222.642 49.7603 224.383 48.892 225.615 47.4762C226.846 46.0605 227.466 44.2131 227.338 42.3396Z" fill="#525B61"/>
<g style="mix-blend-mode:multiply" opacity="0.2">
<path d="M227.339 42.3394C227.244 40.9402 226.737 39.6005 225.881 38.4901C225.026 37.3796 223.862 36.5482 222.535 36.101C221.208 35.6538 219.779 35.611 218.428 35.978C217.077 36.3449 215.865 37.1052 214.945 38.1625C214.026 39.2198 213.44 40.5267 213.262 41.9177C213.085 43.3088 213.323 44.7215 213.947 45.977C214.57 47.2326 215.552 48.2746 216.767 48.9713C217.982 49.6679 219.376 49.9877 220.773 49.8904C222.642 49.7601 224.384 48.8918 225.615 47.476C226.846 46.0603 227.466 44.2129 227.339 42.3394Z" fill="#525B61"/>
</g>
<path d="M218.578 41.2086C218.56 40.9575 218.468 40.7174 218.314 40.5186C218.16 40.3198 217.95 40.1711 217.712 40.0914C217.474 40.0117 217.217 40.0045 216.975 40.0707C216.732 40.1369 216.515 40.2736 216.35 40.4635C216.185 40.6533 216.08 40.8879 216.048 41.1376C216.016 41.3872 216.059 41.6408 216.171 41.8662C216.282 42.0917 216.458 42.2789 216.676 42.4043C216.894 42.5297 217.144 42.5877 217.395 42.5709C217.562 42.5597 217.725 42.5155 217.875 42.4409C218.025 42.3662 218.159 42.2627 218.269 42.1361C218.379 42.0095 218.463 41.8624 218.516 41.7032C218.569 41.5441 218.59 41.376 218.578 41.2086Z" fill="#E6F4FD"/>
<path d="M220.009 38.516C219.999 38.3575 219.941 38.2058 219.844 38.0799C219.748 37.954 219.616 37.8597 219.466 37.8089C219.316 37.7581 219.154 37.753 219.001 37.7943C218.848 37.8357 218.71 37.9215 218.606 38.0411C218.502 38.1607 218.435 38.3085 218.415 38.466C218.394 38.6235 218.421 38.7835 218.491 38.9259C218.561 39.0682 218.672 39.1865 218.81 39.2657C218.947 39.3449 219.105 39.3815 219.263 39.3709C219.475 39.3551 219.671 39.2566 219.811 39.0966C219.951 38.9367 220.022 38.7281 220.009 38.516Z" fill="#E6F4FD"/>
<path d="M212.937 32.7553C213.522 33.1092 215.662 30.2557 221.719 29.5405C226.279 28.9986 226.943 29.5287 227.3 29.6377C227.768 29.7757 228.821 30.08 229.231 29.7864C229.64 29.4928 229.61 28.8778 228.25 28.0376C226.889 27.1974 223.702 27.1331 219.714 27.9089C215.726 28.6847 212.522 31.9726 212.522 31.9726C212.522 31.9726 212.351 32.4015 212.937 32.7553Z" fill="#525B61"/>
<g style="mix-blend-mode:multiply" opacity="0.2">
<path d="M212.937 32.7551C213.523 33.109 215.662 30.2554 221.72 29.5403C226.279 28.9983 226.943 29.5284 227.301 29.6375C227.769 29.7754 228.822 30.0798 229.231 29.7862C229.64 29.4925 229.611 28.8775 228.25 28.0373C226.889 27.1971 223.702 27.1328 219.714 27.9086C215.726 28.6845 212.522 31.9724 212.522 31.9724C212.522 31.9724 212.352 32.4012 212.937 32.7551Z" fill="#525B61"/>
</g>
<path d="M247.9 55.5411C247.481 60.268 246.624 64.9432 245.799 69.608C245.236 72.825 244.834 75.8525 242.182 78.0261C239.375 80.3147 235.553 81.7502 232.26 83.1621C228.25 84.8751 224.124 86.3024 219.915 87.4336C218.975 87.6813 218.675 86.2054 219.609 85.9511C226.606 84.0184 234.579 81.6533 240.573 77.3608C244.109 74.824 244.051 70.099 244.672 66.1319C245.241 62.5042 245.854 58.8791 246.717 55.3068C246.883 54.6318 247.985 54.8673 247.9 55.5411Z" fill="#525B61"/>
<g style="mix-blend-mode:multiply" opacity="0.4">
<path d="M247.9 55.5411C247.481 60.268 246.624 64.9432 245.799 69.608C245.236 72.825 244.834 75.8525 242.182 78.0261C239.375 80.3147 235.553 81.7502 232.26 83.1621C228.25 84.8751 224.124 86.3024 219.915 87.4336C218.975 87.6813 218.675 86.2054 219.609 85.9511C226.606 84.0184 234.579 81.6533 240.573 77.3608C244.109 74.824 244.051 70.099 244.672 66.1319C245.241 62.5042 245.854 58.8791 246.717 55.3068C246.883 54.6318 247.985 54.8673 247.9 55.5411Z" fill="#525B61"/>
</g>
<path d="M251.348 43.7364C251.071 43.7194 250.823 44.1369 250.79 44.6726L250.417 50.7743C250.384 51.31 250.58 51.7546 250.857 51.7715L251.411 51.8054C251.738 51.8254 252.043 51.5845 252.388 51.1915C253.168 50.2712 253.623 49.1196 253.683 47.9149C253.773 46.7116 253.461 45.5124 252.797 44.5048C252.502 44.0727 252.223 43.796 251.902 43.7764L251.348 43.7364Z" fill="#545555"/>
<path d="M247.624 39.2906C246.824 39.2417 246.125 40.0851 246.058 41.1778L245.295 53.6614C245.227 54.7604 245.793 55.6812 246.618 55.7316L248.286 55.8336C250.177 55.9493 251.83 53.9558 251.989 51.3566L252.421 44.2875C252.58 41.6883 251.183 39.5083 249.292 39.3926L247.624 39.2906Z" fill="#F18854"/>
<path d="M219.187 82.1084C217.422 81.8762 215.675 82.5769 214.033 83.2779C212.983 83.723 211.874 84.2329 211.281 85.203C210.941 85.8397 210.811 86.5684 210.911 87.2836C211.011 87.9989 211.336 88.6637 211.837 89.1818C212.352 89.6841 212.965 90.0749 213.637 90.3297C214.309 90.5846 215.027 90.6981 215.744 90.6633C217.184 90.5865 218.598 90.2523 219.92 89.6762C220.926 89.3655 221.822 88.7738 222.504 87.9706C224.13 85.7094 221.516 82.431 219.187 82.1084Z" fill="#525B61"/>
<g style="mix-blend-mode:multiply" opacity="0.4">
<path d="M219.186 82.1078C217.421 81.8756 215.674 82.5763 214.032 83.2773C212.982 83.7224 211.872 84.2323 211.28 85.2025C210.939 85.8391 210.81 86.5678 210.91 87.2831C211.01 87.9983 211.334 88.6631 211.836 89.1813C212.351 89.6836 212.964 90.0743 213.636 90.3292C214.308 90.584 215.025 90.6976 215.743 90.6627C217.182 90.586 218.597 90.2517 219.919 89.6757C220.924 89.3649 221.82 88.7732 222.502 87.97C224.128 85.7088 221.515 82.4304 219.186 82.1078Z" fill="#525B61"/>
</g>
</g>
<defs>
<clipPath id="clip0">
<rect width="380" height="388" fill="white"/>
</clipPath>
</defs>
</svg>
