<svg width="304" height="84" viewBox="0 0 304 84" fill="none" xmlns="http://www.w3.org/2000/svg">
<rect width="304" height="84" rx="9" fill="white"/>
<g clip-path="url(#clip0)">
<path d="M272.785 28.0538H259.753V31.0004H272.785V28.0538Z" fill="#3564AC"/>
<path fill-rule="evenodd" clip-rule="evenodd" d="M259.753 39.3196H272.785V36.3517H261.93V35.0844H272.785V32.2673H259.753V39.3196Z" fill="#3564AC"/>
<path fill-rule="evenodd" clip-rule="evenodd" d="M258.252 36.3516H248.731C248.241 36.3516 247.897 36.2158 247.697 35.9443C247.497 35.6727 247.397 35.2352 247.397 34.6317V32.692C247.369 32.2503 247.477 31.8108 247.705 31.4333C247.918 31.1402 248.256 30.9915 248.748 30.9915H258.252V28.0538H247.705C247.397 28.0554 247.094 28.1253 246.816 28.2586C246.515 28.397 246.244 28.594 246.018 28.8384C245.77 29.1068 245.575 29.4206 245.443 29.763C245.294 30.1493 245.222 30.5616 245.231 30.9764V36.4163C245.225 36.8349 245.297 37.2509 245.443 37.6426C245.566 37.9777 245.754 38.2847 245.995 38.5457C246.219 38.7851 246.487 38.9783 246.784 39.1147C247.077 39.255 247.396 39.3286 247.72 39.3302H258.266L258.252 36.3516Z" fill="#3564AC"/>
<path d="M243.718 28.0538H241.526V31.0004H243.718V28.0538Z" fill="#3564AC"/>
<path d="M243.718 32.2673H241.526V39.3196H243.718V32.2673Z" fill="#3564AC"/>
<path fill-rule="evenodd" clip-rule="evenodd" d="M229.874 28.0538H227.329L232.833 39.3197H234.871L240.361 28.0538H237.816L233.846 36.0738L229.874 28.0538Z" fill="#3564AC"/>
<path fill-rule="evenodd" clip-rule="evenodd" d="M215.602 39.3198V35.0846H221.518L224.048 39.3198H226.457L224.072 35.0846H224.178C224.471 35.0835 224.761 35.0212 225.029 34.9014C225.305 34.7789 225.553 34.5999 225.757 34.3755C225.97 34.1385 226.142 33.8658 226.263 33.5694C226.394 33.2452 226.459 32.8978 226.455 32.5477V30.9571C226.458 30.542 226.386 30.1299 226.242 29.7415C226.121 29.4021 225.934 29.0912 225.691 28.8276C225.464 28.5865 225.193 28.3931 224.893 28.2586C224.602 28.1235 224.285 28.0536 223.965 28.0538H213.434V30.998H224.284V32.2697H213.434V39.322L215.602 39.3198Z" fill="#3564AC"/>
<path d="M211.923 28.0538H198.892V31.0004H211.923V28.0538Z" fill="#3564AC"/>
<path fill-rule="evenodd" clip-rule="evenodd" d="M198.892 39.3196H211.923V36.3517H201.068V35.0844H211.923V32.2673H198.892V39.3196Z" fill="#3564AC"/>
<path fill-rule="evenodd" clip-rule="evenodd" d="M195.213 35.0847V36.3779H184.362V39.3243H194.911C195.232 39.3206 195.548 39.2471 195.838 39.1087C196.138 38.9736 196.408 38.7803 196.634 38.5397C196.875 38.2782 197.063 37.9714 197.187 37.6366C197.332 37.2446 197.404 36.8288 197.4 36.4102V34.8195C197.404 34.4694 197.339 34.122 197.209 33.7979C197.088 33.5011 196.916 33.2282 196.702 32.9918C196.499 32.7669 196.251 32.5878 195.975 32.4659C195.706 32.3457 195.417 32.2833 195.123 32.2827H186.534V30.9895H197.385V28.0539H186.839C186.516 28.0523 186.197 28.1222 185.905 28.2586C185.608 28.395 185.34 28.5882 185.115 28.8276C184.872 29.0917 184.684 29.4024 184.562 29.7415C184.419 30.1302 184.347 30.5422 184.349 30.9571V32.5478C184.345 32.8979 184.41 33.2453 184.541 33.5694C184.662 33.8658 184.834 34.1386 185.047 34.3755C185.251 34.6004 185.499 34.7796 185.775 34.9015C186.043 35.0217 186.333 35.0841 186.626 35.0847H195.213Z" fill="#3564AC"/>
<path fill-rule="evenodd" clip-rule="evenodd" d="M163.478 36.3518V28.0538H161.301V39.3197H174.333V36.3518H163.478Z" fill="#3564AC"/>
<path fill-rule="evenodd" clip-rule="evenodd" d="M159.799 30.9764C159.808 30.5616 159.735 30.1493 159.586 29.763C159.454 29.4206 159.259 29.1068 159.012 28.8384C158.786 28.594 158.515 28.397 158.214 28.2586C157.936 28.1255 157.634 28.0556 157.327 28.0538H149.25C148.943 28.0556 148.64 28.1255 148.363 28.2586C148.062 28.397 147.791 28.594 147.565 28.8384C147.317 29.1068 147.123 29.4206 146.991 29.763C146.838 30.1485 146.762 30.5609 146.767 30.9764V36.4163C146.763 36.8349 146.835 37.2506 146.98 37.6426C147.104 37.9774 147.292 38.2842 147.533 38.5457C147.758 38.7851 148.026 38.9783 148.323 39.1147C148.615 39.2548 148.934 39.3284 149.257 39.3302H157.322C157.643 39.3268 157.958 39.2533 158.248 39.1147C158.548 38.9801 158.819 38.7868 159.046 38.5457C159.287 38.2842 159.475 37.9774 159.599 37.6426C159.744 37.2506 159.816 36.8349 159.812 36.4163V30.9764H159.799ZM156.92 29.1853C157.182 29.1648 157.443 29.2243 157.671 29.3561C157.898 29.488 158.082 29.686 158.197 29.9246C158.446 30.416 158.569 31.1208 158.569 32.0346V35.2869C158.569 36.2503 158.448 36.9702 158.207 37.453C158.092 37.6862 157.91 37.8792 157.686 38.0075C157.462 38.1357 157.205 38.1933 156.948 38.1728H149.627C149.031 38.1728 148.61 37.9444 148.367 37.4874C148.125 37.0305 148.003 36.2977 148.003 35.2869V32.0346C148.003 31.1208 148.129 30.416 148.378 29.9246C148.493 29.6858 148.676 29.4876 148.904 29.3558C149.131 29.2239 149.393 29.1645 149.655 29.1853H156.92Z" fill="#3564AC"/>
<path fill-rule="evenodd" clip-rule="evenodd" d="M145.161 33.4166C145.161 34.3235 144.973 35.2204 144.609 36.0488C144.245 36.8773 143.713 37.6189 143.047 38.2255C142.382 38.832 141.598 39.29 140.746 39.5695C139.894 39.8491 138.994 39.944 138.104 39.8482C138.302 39.2124 138.587 38.3546 138.898 37.5916C139.485 36.1539 139.344 36.5419 141.259 35.822C143.174 35.1021 142.787 32.5049 142.131 31.3992C141.476 30.2935 141.642 33.4166 140.276 33.4166C138.91 33.4166 137.821 31.3992 138.787 30.5716C139.753 29.7439 139.355 28.4701 137.123 29.6857C134.891 30.9013 135.421 32.7269 136.085 34.3844C136.723 35.9966 135.234 38.5722 135.142 38.7188C134.241 38.0834 133.517 37.2234 133.04 36.2219C132.563 35.2203 132.349 34.111 132.419 33.0012C132.489 31.8913 132.84 30.8185 133.439 29.8863C134.037 28.9541 134.863 28.194 135.836 27.6795C136.809 27.165 137.897 26.9135 138.994 26.9493C140.091 26.985 141.161 27.3068 142.099 27.8836C143.038 28.4604 143.814 29.2726 144.352 30.2418C144.89 31.2111 145.173 32.3046 145.172 33.4166H145.161Z" fill="#ECDB13"/>
<path fill-rule="evenodd" clip-rule="evenodd" d="M119.879 39.3198V35.0846H128.447C128.74 35.084 129.03 35.0216 129.298 34.9014C129.575 34.7802 129.823 34.601 130.026 34.3755C130.24 34.1391 130.411 33.8662 130.532 33.5694C130.663 33.2452 130.728 32.8978 130.723 32.5477V30.9571C130.727 30.542 130.655 30.1299 130.511 29.7415C130.389 29.4024 130.2 29.0916 129.957 28.8276C129.732 28.587 129.461 28.3937 129.162 28.2586C128.871 28.1237 128.554 28.0539 128.234 28.0538H117.692V30.998H128.543V32.2697H117.692V39.322L119.879 39.3198Z" fill="#3564AC"/>
<path d="M151.244 48.6508L152.085 48.5754C152.109 48.8739 152.204 49.1622 152.361 49.4159C152.533 49.6541 152.769 49.8379 153.04 49.946C153.366 50.0853 153.718 50.1543 154.072 50.1486C154.379 50.154 154.685 50.1021 154.974 49.9956C155.205 49.9122 155.407 49.7625 155.555 49.5646C155.678 49.3953 155.744 49.1907 155.744 48.9806C155.746 48.7834 155.682 48.5915 155.563 48.4353C155.4 48.2488 155.191 48.1097 154.957 48.0323C154.563 47.9012 154.164 47.7904 153.759 47.7004C153.311 47.6067 152.875 47.4621 152.459 47.2694C152.168 47.1271 151.919 46.9083 151.74 46.6358C151.581 46.3823 151.498 46.0872 151.502 45.7867C151.502 45.443 151.603 45.1072 151.791 44.8212C151.999 44.5103 152.296 44.2717 152.642 44.138C153.03 43.983 153.444 43.9054 153.861 43.9096C154.313 43.8998 154.763 43.9826 155.182 44.1531C155.541 44.2971 155.848 44.5472 156.063 44.8708C156.269 45.1922 156.383 45.5652 156.393 45.9483L155.542 46.013C155.532 45.8268 155.486 45.6445 155.406 45.4768C155.325 45.3091 155.212 45.1595 155.074 45.0367C154.732 44.7933 154.318 44.6768 153.902 44.707C153.361 44.707 152.97 44.8061 152.723 45.0065C152.609 45.0892 152.517 45.1979 152.452 45.3237C152.388 45.4496 152.354 45.589 152.353 45.7307C152.35 45.8445 152.372 45.9577 152.417 46.062C152.462 46.1663 152.53 46.2592 152.614 46.3341C152.787 46.4936 153.233 46.6552 153.959 46.8211C154.467 46.9199 154.965 47.0642 155.448 47.2522C155.796 47.3973 156.097 47.6385 156.316 47.9483C156.505 48.2349 156.603 48.5733 156.597 48.9181C156.597 49.2834 156.489 49.6403 156.289 49.9439C156.073 50.275 155.766 50.5349 155.406 50.6917C154.998 50.8759 154.555 50.9678 154.108 50.9611C153.584 50.9772 153.063 50.8848 152.576 50.6896C152.18 50.5238 151.842 50.2416 151.606 49.8792C151.373 49.5129 151.247 49.0868 151.244 48.6508Z" fill="#3564AC"/>
<path d="M162.778 47.5169C162.778 46.386 163.078 45.4995 163.678 44.8572C163.976 44.5398 164.337 44.29 164.738 44.1243C165.138 43.9586 165.569 43.8808 166.001 43.8959C166.594 43.8836 167.178 44.0372 167.69 44.3399C168.185 44.636 168.582 45.074 168.831 45.5986C169.1 46.1696 169.235 46.7959 169.225 47.4285C169.235 48.0726 169.093 48.7099 168.81 49.2864C168.554 49.8112 168.146 50.2439 167.639 50.5258C167.14 50.8094 166.576 50.9578 166.003 50.9568C165.404 50.9666 164.814 50.8053 164.301 50.4913C163.81 50.1873 163.416 49.7456 163.167 49.2196C162.91 48.6899 162.777 48.1072 162.778 47.5169ZM163.697 47.532C163.697 48.3539 163.915 49.0005 164.35 49.4718C164.563 49.697 164.819 49.8762 165.103 49.9986C165.386 50.121 165.691 50.1841 165.999 50.1841C166.307 50.1841 166.612 50.121 166.895 49.9986C167.179 49.8762 167.435 49.697 167.648 49.4718C168.082 48.9933 168.299 48.3151 168.299 47.4371C168.309 46.9376 168.214 46.4416 168.02 45.9823C167.85 45.5867 167.567 45.2518 167.208 45.021C166.848 44.792 166.432 44.673 166.008 44.6783C165.707 44.6723 165.409 44.7263 165.129 44.8372C164.849 44.9482 164.594 45.1139 164.378 45.3249C163.922 45.7689 163.696 46.5046 163.697 47.532Z" fill="#3564AC"/>
<path d="M175.639 50.8406V44.0188H180.182V44.8228H176.531V46.9264H179.69V47.7325H176.531V50.832L175.639 50.8406Z" fill="#3564AC"/>
<path d="M188.115 50.8406V44.8228H185.892V44.0188H191.23V44.8228H189.003V50.8406H188.115Z" fill="#3564AC"/>
<path d="M198.377 50.8407L196.59 44.0192H197.505L198.541 48.4893C198.649 48.9591 198.754 49.4247 198.824 49.8859C198.996 49.1574 199.096 48.7372 199.128 48.6251L200.405 44.0192H201.468L202.434 47.4677C202.662 48.2603 202.837 49.0675 202.958 49.8838C203.043 49.4527 203.155 48.9577 203.294 48.3988L204.358 44.0171H205.253L203.407 50.8386H202.556L201.124 45.6336C201.005 45.2025 200.934 44.9331 200.911 44.8339C200.841 45.1465 200.775 45.4137 200.713 45.6336L199.285 50.8321L198.377 50.8407Z" fill="#3564AC"/>
<path d="M210.049 50.8406L212.636 44.0188H213.596L216.361 50.8406H215.344L214.559 48.7736H211.732L210.991 50.8406H210.049ZM211.993 48.0386H214.285L213.581 46.1483C213.368 45.5736 213.209 45.1022 213.104 44.7344C213.016 45.1745 212.895 45.6069 212.74 46.0276L211.993 48.0386Z" fill="#3564AC"/>
<path d="M221.787 50.8403V44.0187H224.766C225.229 43.9983 225.692 44.0603 226.134 44.2019C226.449 44.3252 226.713 44.5532 226.883 44.8485C227.069 45.1579 227.167 45.514 227.164 45.8766C227.174 46.3306 227.007 46.7705 226.7 47.1008C226.389 47.4327 225.912 47.644 225.266 47.7345C225.46 47.8216 225.641 47.9355 225.804 48.0729C226.087 48.3433 226.335 48.648 226.544 48.9803L227.715 50.8382H226.593L225.702 49.4178C225.442 49.0083 225.23 48.695 225.064 48.4781C224.937 48.3024 224.784 48.1482 224.61 48.0211C224.486 47.9383 224.348 47.8771 224.204 47.8401C224.04 47.8138 223.874 47.803 223.708 47.8078H222.674V50.8382L221.787 50.8403ZM222.676 47.0275H224.591C224.915 47.0403 225.238 46.9973 225.547 46.9004C225.761 46.8266 225.945 46.6825 226.07 46.4909C226.187 46.3089 226.25 46.0961 226.249 45.8787C226.253 45.7284 226.224 45.579 226.164 45.4414C226.104 45.3038 226.014 45.1815 225.902 45.0834C225.67 44.8679 225.306 44.7709 224.806 44.7709H222.679L222.676 47.0275Z" fill="#3564AC"/>
<path d="M233.812 50.8406V44.0188H238.682V44.8228H234.71V46.9113H238.435V47.7131H234.71V50.0345H238.844V50.8406H233.812Z" fill="#3564AC"/>
<path d="M252.516 46.8699H245.554V47.9805H252.516V46.8699Z" fill="#3564AC"/>
<path d="M144.294 46.8699H137.332V47.9805H144.294V46.8699Z" fill="#3564AC"/>
<path fill-rule="evenodd" clip-rule="evenodd" d="M46.1993 10H87.6614C89.6901 10.0056 91.6342 10.8246 93.0688 12.2779C94.5033 13.7311 95.3117 15.7006 95.3173 17.7558V59.7591C95.3117 61.8143 94.5033 63.7837 93.0688 65.237C91.6342 66.6903 89.6901 67.5092 87.6614 67.5149H46.1993C44.1706 67.5092 42.2265 66.6903 40.792 65.237C39.3574 63.7837 38.549 61.8143 38.5435 59.7591V17.7558C38.549 15.7006 39.3574 13.7311 40.792 12.2779C42.2265 10.8246 44.1706 10.0056 46.1993 10ZM49.5405 14.6364C47.8392 14.6414 46.2091 15.3283 45.0061 16.547C43.8031 17.7657 43.1251 19.4171 43.1201 21.1405V56.3743C43.1251 58.0978 43.8031 59.7492 45.0061 60.9679C46.2091 62.1865 47.8392 62.8734 49.5405 62.8785H84.3203C86.0215 62.8734 87.6517 62.1865 88.8546 60.9679C90.0576 59.7492 90.7356 58.0978 90.7406 56.3743V21.1405C90.7356 19.4171 90.0576 17.7657 88.8546 16.547C87.6517 15.3283 86.0215 14.6414 84.3203 14.6364H49.5405Z" fill="#BBBCBE"/>
<path fill-rule="evenodd" clip-rule="evenodd" d="M39.1093 35.0584C24.8071 55.1442 75.4625 33.1329 103.987 43.5737L97.4861 50.2533C58.8583 37.6344 19.3899 56.0878 39.1093 31.5796V35.0584Z" fill="#91BD40"/>
<path fill-rule="evenodd" clip-rule="evenodd" d="M36.8116 45.2871C52.6746 54.9192 79.4543 42.8331 103.995 57.0715L96.35 62.1507C65.1584 48.813 32.8031 52.8481 36.8116 45.2871Z" fill="#ECDB13"/>
<path fill-rule="evenodd" clip-rule="evenodd" d="M34.5708 44.353C22.6994 58.0608 112.654 56.516 69.3316 76.3213C69.2175 58.7732 13.8144 53.6769 34.5708 44.353Z" fill="#3564AC"/>
<path fill-rule="evenodd" clip-rule="evenodd" d="M86.3204 33.2826V34.7802L83.6762 34.8316L81.2876 38.1969H85.9634C86.3348 38.1959 86.7018 38.1157 87.0405 37.9615C87.3888 37.8049 87.7031 37.5802 87.9656 37.3005C88.2421 36.9961 88.4574 36.64 88.5992 36.2521C88.7664 35.798 88.848 35.3162 88.8399 34.8316V32.981C88.8455 32.5746 88.7693 32.1713 88.6161 31.7957C88.477 31.4515 88.279 31.135 88.031 30.8608C87.7947 30.5993 87.507 30.3908 87.1863 30.2489C86.873 30.1081 86.5342 30.0353 86.1915 30.035H76.2547V28.5374H86.4957L88.8463 25.1143H76.6096C76.2357 25.1131 75.8661 25.1942 75.5261 25.3517C75.1814 25.5102 74.8701 25.7347 74.6095 26.0128C74.3282 26.3216 74.1125 26.6858 73.9759 27.0825C73.8107 27.5327 73.7291 28.01 73.7352 28.4903V29.8232C75.0678 30.3602 75.6951 31.9626 75.6951 33.2805H86.3267L86.3204 33.2826Z" fill="#3564AC"/>
<path fill-rule="evenodd" clip-rule="evenodd" d="M47.8741 38.1951V33.2741H57.8151C58.1584 33.2736 58.4979 33.2008 58.8119 33.0602C59.1322 32.9175 59.4198 32.7091 59.6567 32.4483C59.7262 32.3719 59.7917 32.2919 59.8531 32.2087C59.695 31.9941 59.5638 31.7605 59.4624 31.5133C59.3147 31.1364 59.2429 30.7334 59.2512 30.328V28.488C59.2451 28.0077 59.3267 27.5304 59.492 27.0802C59.5833 26.8222 59.7053 26.5765 59.8552 26.3485C59.7745 26.2303 59.6849 26.1187 59.587 26.0147C59.3245 25.7349 59.0102 25.5102 58.662 25.3536C58.3244 25.1979 57.9579 25.117 57.587 25.1161H48.4654L45.3481 28.5394H57.9397V30.0092H45.3481V38.1908L47.8741 38.1951Z" fill="#91BD40"/>
<path fill-rule="evenodd" clip-rule="evenodd" d="M72.5269 33.2826V34.7803H62.4972L59.9438 38.2037H72.1806C72.5513 38.2027 72.9176 38.1225 73.2556 37.9683C73.6038 37.8116 73.9181 37.587 74.1806 37.3072C74.4578 37.0033 74.6731 36.647 74.8142 36.2588C74.9796 35.8042 75.0606 35.3225 75.0529 34.8381V32.9809C75.0578 32.5748 74.9824 32.1718 74.8311 31.7956C74.6913 31.4513 74.4925 31.1348 74.244 30.8606C74.01 30.6016 73.7255 30.3947 73.4085 30.2529C73.0915 30.1111 72.7489 30.0375 72.4023 30.0369H62.4698V28.5392L72.0243 28.4878L74.0898 25.1201H62.8267C62.4522 25.119 62.0818 25.2 61.7411 25.3576C61.3966 25.5165 61.0855 25.741 60.8245 26.0188C60.5446 26.3287 60.3291 26.6925 60.1909 27.0885C60.0257 27.5388 59.9441 28.0161 59.9502 28.4964V30.3428C59.9459 30.7491 60.022 31.1522 60.1741 31.5282C60.3138 31.8725 60.5126 32.189 60.7612 32.4632C60.9975 32.7247 61.2853 32.9331 61.606 33.0751C61.9192 33.2159 62.258 33.2887 62.6007 33.289L72.5269 33.2826Z" fill="#ECDB13"/>
<path fill-rule="evenodd" clip-rule="evenodd" d="M81.131 34.8276H83.0064L80.6663 38.1946H78.7402L81.131 34.8276Z" fill="#ECDB13"/>
<path fill-rule="evenodd" clip-rule="evenodd" d="M79.4287 34.8276H80.5966L78.2565 38.1946H77.04L79.4287 34.8276Z" fill="#91BD40"/>
</g>
<defs>
<clipPath id="clip0">
<rect width="245" height="66" fill="white" transform="translate(29 10)"/>
</clipPath>
</defs>
</svg>
