<svg width="30" height="26" viewBox="0 0 30 26" fill="none" xmlns="http://www.w3.org/2000/svg">
<path fill-rule="evenodd" clip-rule="evenodd" d="M6.73573 0H23.252C24.0602 0.00221351 24.8346 0.323263 25.406 0.89299C25.9775 1.46272 26.2995 2.2348 26.3017 3.04051V19.5071C26.2995 20.3128 25.9775 21.0849 25.406 21.6546C24.8346 22.2243 24.0602 22.5454 23.252 22.5476H6.73573C5.92758 22.5454 5.15317 22.2243 4.58172 21.6546C4.01027 21.0849 3.68826 20.3128 3.68604 19.5071V3.04051C3.68826 2.2348 4.01027 1.46272 4.58172 0.89299C5.15317 0.323263 5.92758 0.00221351 6.73573 0ZM8.06665 1.8176C7.38897 1.81959 6.73961 2.08887 6.26041 2.56663C5.78121 3.04438 5.51112 3.69179 5.50912 4.36743V18.1802C5.51112 18.8558 5.78121 19.5032 6.26041 19.981C6.73961 20.4587 7.38897 20.728 8.06665 20.73H21.9211C22.5988 20.728 23.2481 20.4587 23.7273 19.981C24.2065 19.5032 24.4766 18.8558 24.4786 18.1802V4.36743C24.4766 3.69179 24.2065 3.04438 23.7273 2.56663C23.2481 2.08887 22.5988 1.81959 21.9211 1.8176H8.06665Z" fill="#BBBCBE"/>
<path fill-rule="evenodd" clip-rule="evenodd" d="M3.91161 9.82378C-1.78563 17.698 18.3928 9.0689 29.7553 13.162L27.1658 15.7806C11.7785 10.8336 -3.94355 18.0679 3.91161 8.45996V9.82378Z" fill="#91BD40"/>
<path fill-rule="evenodd" clip-rule="evenodd" d="M2.99645 13.8335C9.3154 17.6096 19.983 12.8714 29.7588 18.4533L26.7134 20.4445C14.2883 15.2158 1.39967 16.7976 2.99645 13.8335Z" fill="#ECDB13"/>
<path fill-rule="evenodd" clip-rule="evenodd" d="M2.10362 13.4673C-2.6253 18.8411 33.2079 18.2356 15.9505 25.9998C15.905 19.1204 -6.16462 17.1225 2.10362 13.4673Z" fill="#3564AC"/>
<path fill-rule="evenodd" clip-rule="evenodd" d="M22.718 9.12754V9.71464L21.6647 9.73477L20.7132 11.0541H22.5758C22.7237 11.0537 22.8699 11.0223 23.0049 10.9618C23.1436 10.9004 23.2688 10.8123 23.3734 10.7027C23.4835 10.5834 23.5692 10.4437 23.6257 10.2917C23.6923 10.1137 23.7249 9.92475 23.7216 9.73477V9.00928C23.7238 8.84996 23.6935 8.69187 23.6325 8.54463C23.5771 8.4097 23.4982 8.28561 23.3994 8.1781C23.3053 8.07559 23.1907 7.99387 23.0629 7.93823C22.9381 7.88304 22.8032 7.85448 22.6667 7.85436H18.7084V7.26725H22.7878L23.7242 5.9253H18.8497C18.7008 5.92485 18.5536 5.95661 18.4181 6.0184C18.2808 6.0805 18.1568 6.16851 18.053 6.27756C17.9409 6.39863 17.855 6.54137 17.8006 6.69692C17.7348 6.87341 17.7023 7.06052 17.7047 7.2488V7.77132C18.2356 7.98184 18.4854 8.61004 18.4854 9.1267H22.7205L22.718 9.12754Z" fill="#3564AC"/>
<path fill-rule="evenodd" clip-rule="evenodd" d="M7.40267 11.0536V9.12448H11.3626C11.4994 9.12428 11.6346 9.09571 11.7597 9.0406C11.8873 8.98465 12.0019 8.90298 12.0962 8.80071C12.1239 8.77076 12.15 8.7394 12.1745 8.70677C12.1115 8.62266 12.0592 8.5311 12.0188 8.43417C11.96 8.28643 11.9314 8.12843 11.9347 7.9695V7.24816C11.9323 7.05987 11.9648 6.87276 12.0306 6.69625C12.067 6.59514 12.1156 6.49881 12.1753 6.4094C12.1432 6.36307 12.1075 6.31933 12.0685 6.27855C11.9639 6.16886 11.8387 6.08079 11.7 6.01937C11.5655 5.95836 11.4195 5.92662 11.2718 5.92627H7.63823L6.39648 7.26829H11.4123V7.84452H6.39648V11.052L7.40267 11.0536Z" fill="#91BD40"/>
<path fill-rule="evenodd" clip-rule="evenodd" d="M17.2234 9.1272V9.71434H13.2281L12.2109 11.0564H17.0854C17.2331 11.056 17.379 11.0246 17.5136 10.9641C17.6523 10.9027 17.7775 10.8146 17.8821 10.7049C17.9925 10.5858 18.0783 10.4461 18.1345 10.2939C18.2004 10.1157 18.2326 9.9269 18.2296 9.73699V9.00893C18.2315 8.8497 18.2015 8.6917 18.1412 8.54424C18.0855 8.40927 18.0064 8.28518 17.9073 8.1777C17.8142 8.07616 17.7008 7.99503 17.5745 7.93945C17.4483 7.88386 17.3118 7.85502 17.1737 7.85477H13.2171V7.26762L17.0231 7.24749L17.8459 5.92725H13.3593C13.2101 5.92679 13.0626 5.95855 12.9269 6.02036C12.7897 6.08265 12.6657 6.17064 12.5618 6.27954C12.4503 6.40103 12.3644 6.54366 12.3094 6.69893C12.2435 6.87543 12.211 7.06255 12.2135 7.25084V7.97471C12.2117 8.13399 12.2421 8.292 12.3026 8.4394C12.3583 8.57437 12.4375 8.69846 12.5365 8.80594C12.6306 8.90847 12.7453 8.99019 12.873 9.04583C12.9978 9.10102 13.1328 9.12959 13.2693 9.12971L17.2234 9.1272Z" fill="#ECDB13"/>
<path fill-rule="evenodd" clip-rule="evenodd" d="M20.6506 9.73291H21.3977L20.4655 11.0529H19.6982L20.6506 9.73291Z" fill="#ECDB13"/>
<path fill-rule="evenodd" clip-rule="evenodd" d="M19.9725 9.73291H20.4377L19.5056 11.0529H19.021L19.9725 9.73291Z" fill="#91BD40"/>
</svg>
