<svg width="244" height="299" viewBox="0 0 244 299" fill="none" xmlns="http://www.w3.org/2000/svg">
<g clip-path="url(#clip0)">
<path d="M90.1621 198.36L91.4968 198.507C91.5316 198.507 91.578 198.468 91.6167 198.472C92.3479 198.507 92.9321 197.36 93.0907 196.725C93.2686 196 92.8199 194.814 92.4562 194.632C92.0926 194.45 90.6805 193.857 90.3246 193.698C90.3157 193.694 90.3059 193.693 90.2962 193.694C90.2865 193.694 90.2772 193.698 90.2692 193.703C90.2611 193.709 90.2545 193.716 90.2499 193.724C90.2454 193.733 90.2432 193.743 90.2433 193.752L90.1079 198.298C90.1078 198.313 90.1132 198.328 90.1232 198.339C90.1332 198.351 90.147 198.358 90.1621 198.36Z" fill="#E7E8E9"/>
<path d="M138.211 272.697C138.311 273.063 138.441 273.421 138.598 273.766C139.321 275.398 140.633 276.653 142.412 276.928C144.567 277.261 168.646 276.886 169.412 276.975C169.838 276.924 170.235 276.734 170.542 276.432C171.923 275.305 173.497 272.681 170.754 270.845C170.391 270.6 167.168 267.601 158.997 266.911C156.1 266.667 152.56 266.245 150.873 265.028C150.448 264.731 150.05 264.395 149.685 264.025C149.525 263.872 149.394 263.691 149.299 263.49C149.279 263.446 149.27 263.398 149.272 263.35L148.649 262.723L144.587 262.362L139.724 263.591C139.783 264.025 139.783 264.466 139.724 264.9C139.698 265.11 139.662 265.318 139.615 265.524L139.557 265.745C139.232 266.954 137.631 270.566 138.211 272.697Z" fill="#515A60"/>
<g style="mix-blend-mode:multiply" opacity="0.2">
<path d="M138.211 272.697C138.311 273.063 138.441 273.421 138.598 273.766C139.321 275.398 140.633 276.653 142.412 276.928C144.567 277.261 168.646 276.886 169.412 276.975C169.838 276.924 170.235 276.734 170.542 276.432C171.923 275.305 173.497 272.681 170.754 270.845C170.391 270.6 167.168 267.601 158.997 266.911C156.1 266.667 152.56 266.245 150.873 265.028C150.448 264.731 150.05 264.395 149.685 264.025C149.525 263.872 149.394 263.691 149.299 263.49C149.279 263.446 149.27 263.398 149.272 263.35L148.649 262.723L144.587 262.362L139.724 263.591C139.783 264.025 139.783 264.466 139.724 264.9C139.698 265.11 139.662 265.318 139.615 265.524L139.557 265.745C139.232 266.954 137.631 270.566 138.211 272.697Z" fill="#515A60"/>
</g>
<g style="mix-blend-mode:multiply" opacity="0.4">
<path d="M138.594 273.767C139.317 275.398 140.629 276.653 142.409 276.929C144.563 277.262 168.642 276.886 169.408 276.975C169.834 276.925 170.232 276.734 170.538 276.433H143.047C143.047 276.433 141.248 276.39 139.619 274.565C139.335 274.232 138.986 273.96 138.594 273.767Z" fill="#515A60"/>
</g>
<g style="mix-blend-mode:multiply" opacity="0.4">
<path d="M139.619 265.529C140.126 265.959 141.12 266.761 141.12 266.761L141.372 266.486C142.006 265.811 143.38 265.42 143.38 265.42C143.38 265.42 143.914 266.005 144.25 266.315C144.414 266.47 144.604 266.593 144.811 266.679C144.811 266.679 144.834 266.679 144.873 266.218C144.947 265.443 145.929 265.056 145.929 265.056C145.929 265.056 146.262 265.304 146.8 265.761C147.11 266.036 147.468 266.251 147.856 266.397C147.83 266.269 147.822 266.139 147.833 266.009C147.833 265.699 147.763 265.819 148.219 265.432C148.428 265.246 149.132 264.544 149.686 264.006L150.127 263.591L150.247 263.486C149.728 263.39 150.27 263.61 149.705 263.525L149.318 263.471C149.02 263.428 148.734 263.393 148.455 263.366C144.316 262.979 141.256 263.459 139.743 264.874C139.714 265.094 139.673 265.313 139.619 265.529Z" fill="#515A60"/>
</g>
<path d="M112.736 272.698C112.636 273.064 112.506 273.422 112.349 273.767C111.626 275.399 110.314 276.654 108.535 276.929C106.38 277.262 82.3011 276.887 81.5351 276.976C81.1089 276.925 80.7115 276.735 80.4054 276.433C79.0243 275.306 77.4497 272.682 80.1926 270.846C80.5563 270.601 83.7789 267.602 91.9496 266.912C94.8472 266.668 98.387 266.246 100.074 265.029C100.499 264.732 100.897 264.396 101.261 264.026C101.422 263.873 101.553 263.692 101.648 263.491C101.668 263.447 101.677 263.399 101.675 263.351L102.298 262.724L106.36 262.363L111.223 263.592C111.164 264.026 111.164 264.467 111.223 264.901C111.249 265.111 111.285 265.319 111.332 265.525L111.39 265.746C111.715 266.955 113.316 270.567 112.736 272.698Z" fill="#515A60"/>
<g style="mix-blend-mode:multiply" opacity="0.2">
<path d="M112.353 273.767C111.629 275.398 110.318 276.653 108.538 276.929C106.384 277.262 82.3048 276.886 81.5388 276.975C81.1126 276.925 80.7152 276.734 80.4092 276.433H107.9C107.9 276.433 109.699 276.39 111.328 274.565C111.612 274.232 111.96 273.96 112.353 273.767Z" fill="#515A60"/>
</g>
<g style="mix-blend-mode:multiply" opacity="0.2">
<path d="M111.328 265.529C110.821 265.959 109.827 266.761 109.827 266.761L109.575 266.486C108.941 265.811 107.567 265.42 107.567 265.42C107.567 265.42 107.033 266.005 106.697 266.315C106.533 266.47 106.343 266.593 106.136 266.679C106.136 266.679 106.113 266.679 106.074 266.218C106.001 265.443 105.018 265.056 105.018 265.056C105.018 265.056 104.685 265.304 104.147 265.761C103.837 266.036 103.479 266.251 103.091 266.397C103.117 266.269 103.125 266.139 103.114 266.009C103.114 265.699 103.184 265.819 102.728 265.432C102.519 265.246 101.815 264.544 101.261 264.006L100.82 263.591L100.7 263.486C101.219 263.39 100.677 263.61 101.242 263.525L101.629 263.471C101.927 263.428 102.213 263.393 102.492 263.366C106.631 262.979 109.691 263.459 111.204 264.874C111.233 265.094 111.274 265.313 111.328 265.529Z" fill="#515A60"/>
</g>
<path d="M41.5728 268.124C41.7391 272.999 46.5479 275.986 52.9312 278.257C56.8366 279.61 61.0397 279.854 65.075 278.962L65.3806 278.749C65.4978 278.569 65.5717 278.364 65.5965 278.15C65.6213 277.936 65.5964 277.719 65.5238 277.517C65.2723 276.812 59.7556 274.711 55.9991 271.879C55.5543 271.557 55.156 271.175 54.8153 270.743C53.0125 268.38 55.4691 266.276 58.3783 264.365C61.7518 262.153 76.5611 259.661 83.8033 257.832C91.0455 256.003 94.6898 254.922 94.6898 254.922C94.6898 254.922 95.0418 252.81 95.3397 250.908C95.5525 249.528 95.7266 248.257 95.7266 247.978C95.7266 247.316 90.9758 230.487 90.2021 231.095C90.0886 231.186 89.9493 231.306 89.7843 231.456C88.0047 233.197 86.1252 234.832 84.1553 236.353C80.8708 238.845 65.7752 245.878 54.3317 252.132C42.8881 258.386 41.4103 263.253 41.5728 268.124Z" fill="#4D9BE2"/>
<g style="mix-blend-mode:multiply" opacity="0.16">
<path d="M54.8155 270.74C53.0127 268.377 55.4693 266.272 58.3786 264.362C61.7521 262.149 76.5614 259.658 83.8036 257.829C91.0458 256 94.6901 254.919 94.6901 254.919C95.8311 257.324 97.195 259.616 98.7638 261.766C100.671 264.145 101.719 264.753 102.385 265.226C103.05 265.699 102.911 266.222 102.911 266.222C103.284 266.096 103.623 265.888 103.905 265.614L103.979 265.552C103.274 264.898 102.64 264.172 102.087 263.386C100.646 261.474 99.3296 259.472 98.1448 257.391C97.4059 255.973 95.7965 253.16 94.7055 251.121C94.3651 250.482 93.9898 249.351 93.75 249.002C92.7325 247.529 92.6551 248.13 92.1561 248.277C92.0803 248.306 92.0077 248.342 91.9394 248.386C90.6318 249.099 84.2601 253.21 77.103 255.651C69.3657 258.29 57.7325 261.998 55.6318 263.401C54.9189 263.863 54.3131 264.472 53.8552 265.188C53.3974 265.904 53.0982 266.71 52.9779 267.551C52.9315 268.241 53.3493 269.729 54.8155 270.74Z" fill="#4D9BE2"/>
</g>
<path d="M137.781 222.722C137.53 223.074 137.294 223.233 137.166 222.977C137.089 222.822 137.395 222.76 137.781 222.722Z" fill="#DBF0FD"/>
<g style="mix-blend-mode:multiply" opacity="0.5">
<path d="M135.805 82.7359C135.918 82.7359 136.01 82.644 136.01 82.5306C136.01 82.4171 135.918 82.3252 135.805 82.3252C135.692 82.3252 135.6 82.4171 135.6 82.5306C135.6 82.644 135.692 82.7359 135.805 82.7359Z" fill="#515A60"/>
</g>
<path d="M178.805 160.963C178.805 160.963 178.449 161.032 177.83 161.141L177.474 161.203C174.847 161.641 168.874 162.474 164.576 161.846C161.384 161.364 158.219 160.717 155.094 159.909C154.529 159.761 154.212 159.672 154.212 159.672C154.212 159.672 153.747 159.029 153.074 157.932C151.391 155.185 148.432 149.578 148.3 144.118C148.134 136.477 150.343 133.877 150.343 133.877L150.931 134.354C152.37 135.518 153.725 136.783 154.985 138.139C156.811 140.185 164.328 145.649 167.365 147.292C169.903 148.664 175.327 150.163 177.037 150.621L177.389 150.714L177.571 150.76L178.186 155.91L178.805 160.963Z" fill="#4D9BE2"/>
<g style="mix-blend-mode:multiply" opacity="0.4">
<path d="M178.805 160.963C178.805 160.963 178.449 161.032 177.83 161.141L177.474 161.203C174.847 161.641 168.874 162.474 164.576 161.846C161.384 161.364 158.219 160.717 155.094 159.909C154.529 159.761 154.212 159.672 154.212 159.672C154.212 159.672 153.747 159.029 153.074 157.932C151.391 155.185 148.432 149.578 148.3 144.118C148.134 136.477 150.343 133.877 150.343 133.877L150.931 134.354C152.37 135.518 153.725 136.783 154.985 138.139C156.811 140.185 164.328 145.649 167.365 147.292C169.903 148.664 175.327 150.163 177.037 150.621L177.389 150.714L177.571 150.76L178.186 155.91L178.805 160.963Z" fill="#4D9BE2"/>
</g>
<path d="M161.148 237.989C160.922 241.533 160.199 245.028 159.001 248.37C158.227 250.609 157.312 252.796 156.262 254.919C155.121 257.324 153.757 259.616 152.188 261.766C150.281 264.145 149.233 264.753 148.567 265.226C147.902 265.699 148.041 266.222 148.041 266.222C147.669 266.096 147.329 265.888 147.047 265.614L146.973 265.552C146.351 265.032 145.886 264.699 145.886 264.699L145.472 265.168C145.196 265.589 145.043 266.079 145.031 266.582L144.532 266.164C144.147 265.81 143.796 265.421 143.484 265.001C143.154 265.168 142.84 265.362 142.544 265.583C142.1 265.876 141.708 266.242 141.383 266.664C141.259 266.571 139.209 265.04 138.35 263.428C137.491 261.816 136.776 260.413 136.776 260.413C136.776 260.413 148.908 255.419 154.444 246.037C160.634 235.575 161.164 231.456 161.164 231.456C160.889 233.576 161.253 235.796 161.148 237.989Z" fill="#4D9BE2"/>
<g style="mix-blend-mode:multiply" opacity="0.4">
<path d="M161.148 237.989C160.922 241.533 160.199 245.028 159.001 248.37C158.227 250.609 157.312 252.796 156.262 254.919C155.121 257.324 153.757 259.616 152.188 261.766C150.281 264.145 149.233 264.753 148.567 265.226C147.902 265.699 148.041 266.222 148.041 266.222C147.669 266.096 147.329 265.888 147.047 265.614L146.973 265.552C146.351 265.032 145.886 264.699 145.886 264.699L145.472 265.168C145.196 265.589 145.043 266.079 145.031 266.582L144.532 266.164C144.147 265.81 143.796 265.421 143.484 265.001C143.154 265.168 142.84 265.362 142.544 265.583C142.1 265.876 141.708 266.242 141.383 266.664C141.259 266.571 139.209 265.04 138.35 263.428C137.491 261.816 136.776 260.413 136.776 260.413C136.776 260.413 148.908 255.419 154.444 246.037C160.634 235.575 161.164 231.456 161.164 231.456C160.889 233.576 161.253 235.796 161.148 237.989Z" fill="#4D9BE2"/>
</g>
<g style="mix-blend-mode:multiply" opacity="0.2">
<path d="M161.802 213.72C161.802 219.785 162.425 221.703 161.164 231.452C161.164 231.452 160.626 236.718 154.444 247.196C148.908 256.577 136.776 261.572 136.776 261.572L133.46 262.153C132.377 262.347 131.12 262.49 129.928 262.599C128.129 262.765 126.446 262.851 125.696 262.882H125.255C122.654 262.784 120.06 262.541 117.486 262.153C114.194 261.576 113.652 261.417 113.652 261.417L91.1367 219.757C91.1793 219.513 91.218 219.281 91.2605 219.06L91.423 218.188C91.4501 218.064 91.4733 217.944 91.4965 217.832C91.5197 217.719 91.5352 217.65 91.5507 217.56C91.553 217.554 91.553 217.547 91.5507 217.541C91.57 217.464 91.5855 217.382 91.601 217.309C91.6899 216.898 91.7712 216.553 91.8369 216.289C91.8369 216.239 91.8679 216.193 91.8795 216.146C91.8911 216.1 91.9259 215.972 91.9491 215.902C92.0149 215.697 92.0729 215.514 92.1271 215.297C92.1813 215.08 92.2316 214.91 92.2702 214.705C92.3436 214.367 92.3953 214.026 92.425 213.682C92.425 213.565 92.4443 213.445 92.4482 213.325C92.4521 213.205 92.4482 213 92.4482 212.833L145.492 213.221L161.74 213.434C161.756 213.53 161.776 213.626 161.802 213.72Z" fill="#515A60"/>
</g>
<path d="M162.425 212.402C162.425 218.467 162.425 221.702 161.164 231.452C161.164 231.452 160.626 235.555 154.444 246.033C148.908 255.414 136.776 260.409 136.776 260.409L133.46 260.99C130.888 261.378 128.296 261.621 125.696 261.719H125.475V103.408C125.475 103.408 128.067 103.839 135.383 100.669C143.697 97.0651 151.074 91.648 153.465 84.3438C152.448 91.2373 151.024 99.5141 150.351 104.493C150.212 105.497 150.107 106.365 150.041 107.059C149.488 112.929 150.746 129.177 150.931 134.385C150.931 134.629 150.931 134.85 150.951 135.043C150.951 135.117 150.951 135.198 150.951 135.284C151.04 137.221 151.748 141.712 152.56 146.358C152.562 146.384 152.562 146.41 152.56 146.436C152.56 146.455 152.56 146.482 152.56 146.513C153.574 152.306 154.738 158.316 155.055 159.94L155.14 160.366C155.14 160.366 155.554 162.276 156.22 165.516C156.885 168.755 158.541 175.23 160.363 186.274C162.185 197.317 162.425 211.798 162.425 212.402Z" fill="#4D9BE2"/>
<path d="M145.5 212.054C144.534 218.464 143.216 224.816 141.55 231.08C140.032 236.826 138.182 242.479 136.01 248.01C134.247 252.598 132.216 257.079 129.928 261.429C128.129 261.595 126.446 261.681 125.696 261.712H125.255C122.654 261.614 120.06 261.371 117.487 260.983L114.171 260.402C114.171 260.402 113.482 261.758 112.597 263.417C111.711 265.075 109.556 266.656 109.556 266.656C109.231 266.234 108.839 265.869 108.395 265.575C108.1 265.356 107.786 265.161 107.459 264.994C107.146 265.414 106.794 265.804 106.407 266.156L105.911 266.575C105.897 266.071 105.743 265.581 105.467 265.16L105.053 264.691C105.053 264.691 104.557 265.052 103.892 265.606C103.658 265.815 103.398 265.994 103.118 266.137C103.053 266.171 102.985 266.197 102.913 266.214C102.913 266.214 103.053 265.687 102.387 265.218C101.722 264.75 100.673 264.137 98.7699 261.758C96.8665 259.379 90.3129 248.525 89.8139 237.982C89.6907 235.152 89.7191 232.318 89.899 229.492L89.9338 228.934C90.0035 227.856 90.0886 226.811 90.1891 225.799C90.1912 225.77 90.1912 225.742 90.1891 225.714C90.2472 225.094 90.3129 224.485 90.3826 223.9C90.4097 223.671 90.4367 223.443 90.4638 223.222C90.4909 223.001 90.5296 222.71 90.5605 222.447L90.5838 222.269C90.665 221.656 90.7462 221.067 90.8313 220.513C90.8739 220.234 90.9165 219.963 90.9551 219.704C90.9784 219.572 90.9977 219.44 91.0209 219.316C91.0635 219.06 91.1022 218.816 91.1447 218.576C91.1873 218.336 91.226 218.099 91.2685 217.878C91.3227 217.568 91.3768 217.278 91.431 217.007C91.4581 216.883 91.4813 216.762 91.5045 216.65C91.5277 216.538 91.5432 216.468 91.5587 216.379C91.561 216.373 91.561 216.366 91.5587 216.359C91.578 216.282 91.5935 216.201 91.609 216.127C91.6979 215.716 91.7792 215.371 91.8449 215.108C91.8449 215.057 91.8759 215.011 91.8875 214.964C91.8991 214.918 91.9339 214.79 91.9571 214.72C92.0229 214.515 92.0809 214.333 92.1351 214.116C92.1893 213.899 92.2395 213.728 92.2782 213.523C92.3494 213.185 92.4011 212.844 92.433 212.5C92.433 212.38 92.4523 212.264 92.4562 212.144C92.4601 212.023 92.4562 211.818 92.4562 211.651C92.4562 211.485 92.4562 211.295 92.433 211.113C92.3931 210.622 92.3168 210.135 92.2047 209.656C91.7908 207.827 88.7229 197.283 90.5451 186.24C92.3672 175.196 94.0269 168.721 94.6923 165.482C95.3577 162.242 95.7678 160.332 95.7678 160.332C95.7678 160.332 99.915 139.326 99.9962 135.009C100.077 130.692 101.49 113.17 100.909 107.024C100.843 106.331 100.739 105.474 100.604 104.459C99.9266 99.4877 98.4952 91.2031 97.4777 84.3096C99.8608 91.6254 107.246 97.0503 115.568 100.658C122.883 103.828 125.475 103.397 125.475 103.397C125.475 103.397 127.472 103.731 132.911 101.662C134.563 112.798 136.137 124.663 138.157 132.18C141.639 145.134 145.623 165.396 146.981 181.671C147.658 189.801 147.241 200.48 145.5 212.054Z" fill="#4D9BE2"/>
<g style="mix-blend-mode:multiply" opacity="0.4">
<path d="M162.425 212.402C162.425 218.467 162.425 221.702 161.164 231.452C161.164 231.452 160.626 235.555 154.444 246.033C148.908 255.414 136.776 260.409 136.776 260.409L133.461 260.99C132.377 261.184 131.12 261.327 129.928 261.436C132.217 257.086 134.247 252.605 136.01 248.017C138.182 242.486 140.032 236.833 141.55 231.087C143.216 224.821 144.535 218.466 145.5 212.054C147.241 200.471 147.659 189.792 146.982 181.674C145.624 165.399 141.639 145.137 138.157 132.184C136.138 124.666 134.563 112.809 132.911 101.665C133.685 101.382 134.49 101.049 135.383 100.661C143.697 97.0573 151.075 91.6402 153.465 84.3359C152.448 91.2294 151.024 99.5063 150.351 104.486C150.212 105.489 150.107 106.357 150.042 107.051C149.488 112.921 150.746 129.169 150.932 134.377C150.932 134.621 150.932 134.842 150.951 135.036C150.951 135.109 150.951 135.191 150.951 135.276C151.04 137.213 151.748 141.704 152.56 146.35C152.562 146.376 152.562 146.402 152.56 146.428C152.56 146.447 152.56 146.474 152.56 146.505C153.574 152.298 154.738 158.308 155.056 159.932L155.141 160.358C155.141 160.358 155.555 162.269 156.22 165.508C156.885 168.747 158.541 175.222 160.363 186.266C162.093 196.728 162.36 210.263 162.383 212.197C162.425 212.298 162.425 212.371 162.425 212.402Z" fill="#4D9BE2"/>
</g>
<path d="M147.675 180.988C146.317 164.713 142.333 144.451 138.851 131.497C136.831 123.98 135.257 112.123 133.605 100.978C131.746 101.73 129.812 102.281 127.837 102.621C127.759 102.621 127.686 102.645 127.616 102.652C127.547 102.66 127.388 102.683 127.284 102.691H127.229C127.109 102.691 127.001 102.714 126.904 102.718C126.66 102.743 126.414 102.743 126.169 102.718C125.978 102.736 125.785 102.736 125.593 102.718H125.349H125.117L124.893 102.695L124.711 102.672C124.53 102.648 124.329 102.617 124.107 102.579C122.94 102.363 121.789 102.064 120.664 101.684L120.045 101.478L119.353 101.23C118.432 100.897 117.418 100.49 116.258 99.9942C110.884 97.6692 105.901 94.5693 102.408 90.6943C102.992 93.7245 108.211 96.4331 108.841 99.2192C109.31 101.833 109.56 104.481 109.588 107.136C109.337 115.936 110.018 120.531 108.927 129.083C107.766 138.182 108.459 149.524 103.917 167.197C98.1137 189.792 99.5567 204.067 102.706 211.371C105.855 218.676 107.901 222.938 112.822 226.98C116.095 229.669 121.554 233.001 127.017 233.001C131.315 233.001 137.624 232.656 142.24 230.386C147.176 211.894 148.716 193.43 147.675 180.988ZM137.86 222.283C137.783 222.128 138.089 222.066 138.476 222.027C138.224 222.38 137.988 222.539 137.86 222.283Z" fill="#DBF0FD"/>
<path d="M153.248 167.066C149.101 149.28 147.782 137.892 146.118 128.871C145.043 122.977 145.345 113.332 146.374 105.644C146.637 103.707 146.942 101.897 147.306 100.219C147.921 97.4218 148.649 94.4071 149.24 91.3691C145.759 95.2441 140.764 98.3246 135.391 100.669C134.497 101.056 133.677 101.39 132.918 101.673C134.57 112.809 136.145 124.674 138.164 132.192C141.646 145.145 145.631 165.407 146.989 181.682C148.03 194.125 146.49 212.589 141.573 231.088C142.703 230.556 143.747 229.855 144.668 229.011C152.204 221.931 155.5 215.623 156.734 210.229C158.769 201.223 157.392 184.836 153.248 167.066Z" fill="#DBF0FD"/>
<g style="mix-blend-mode:multiply" opacity="0.5">
<path d="M153.248 167.066C149.101 149.28 147.782 137.892 146.118 128.871C145.043 122.977 145.345 113.332 146.374 105.644C146.637 103.707 146.942 101.897 147.306 100.219C147.921 97.4218 148.649 94.4071 149.24 91.3691C145.759 95.2441 140.764 98.3246 135.391 100.669C134.497 101.056 133.677 101.39 132.918 101.673C134.57 112.809 136.145 124.674 138.164 132.192C141.646 145.145 145.631 165.407 146.989 181.682C148.03 194.125 146.49 212.589 141.573 231.088C142.703 230.556 143.747 229.855 144.668 229.011C152.204 221.931 155.5 215.623 156.734 210.229C158.769 201.223 157.392 184.836 153.248 167.066Z" fill="#DBF0FD"/>
</g>
<path d="M146.981 181.682C145.624 165.408 141.639 145.146 138.157 132.192C136.138 124.674 134.563 112.817 132.911 101.673C131.052 102.424 129.118 102.975 127.143 103.316C127.065 103.316 126.992 103.339 126.922 103.347C126.853 103.354 126.694 103.378 126.59 103.385H126.535C126.416 103.385 126.307 103.409 126.211 103.413C125.966 103.438 125.72 103.438 125.475 103.413C125.284 103.431 125.091 103.431 124.899 103.413H124.655H124.423L124.199 103.389L124.017 103.366C123.836 103.343 123.635 103.312 123.413 103.273C122.246 103.057 121.095 102.758 119.97 102.378L119.351 102.173L118.659 101.925C117.738 101.591 116.725 101.184 115.564 100.689C110.19 98.3635 105.207 95.2636 101.714 91.3887C102.298 94.4189 107.517 97.1274 108.148 99.9135C108.616 102.527 108.866 105.175 108.894 107.83C108.643 116.63 109.324 121.226 108.233 129.778C107.072 138.876 107.765 150.218 103.223 167.891C97.4198 190.486 98.8628 204.761 102.012 212.066C105.161 219.37 107.208 223.632 112.129 227.674C115.401 230.363 120.86 233.695 126.323 233.695C130.621 233.695 136.931 233.351 141.546 231.08C146.482 212.589 148.022 194.125 146.981 181.682ZM137.167 222.977C137.089 222.822 137.395 222.76 137.782 222.722C137.53 223.074 137.294 223.233 137.167 222.977Z" fill="#DBF0FD"/>
<g style="mix-blend-mode:multiply" opacity="0.2">
<path d="M178.79 141.23V146.808C178.79 146.808 177.883 149.056 177.765 149.056C177.648 149.056 176.258 149.425 175.775 149.449C175.643 149.461 175.511 149.486 175.383 149.523C174.517 149.787 173.672 150.117 172.855 150.509C171.552 151.103 169.574 150.796 168.687 149.696C168.389 149.323 168.173 148.977 168.204 147.991C168.236 147.005 170.073 145.803 171.081 145.583C172.734 145.221 174.103 143.799 175.422 142.483C175.772 142.133 176.121 141.791 176.466 141.477C177.467 140.581 178.79 141.23 178.79 141.23Z" fill="#515A60"/>
</g>
<path d="M178.79 141.23V146.808C178.79 146.808 177.883 149.056 177.765 149.056C177.648 149.056 176.258 149.425 175.775 149.449C175.643 149.461 175.511 149.486 175.383 149.523C174.517 149.787 173.672 150.117 172.855 150.509C171.552 151.103 169.574 150.796 168.687 149.696C168.389 149.323 168.173 148.977 168.204 147.991C168.236 147.005 170.073 145.803 171.081 145.583C172.734 145.221 174.103 143.799 175.422 142.483C175.772 142.133 176.121 141.791 176.466 141.477C177.467 140.581 178.79 141.23 178.79 141.23Z" fill="#515A60"/>
<g style="mix-blend-mode:multiply" opacity="0.2">
<path d="M178.79 141.23V146.808C178.79 146.808 177.884 149.056 177.766 149.056C177.648 149.056 176.259 149.425 175.776 149.449C175.643 149.461 175.512 149.486 175.383 149.523C175.238 148.447 175.238 147.516 175.211 147.111C175.172 146.439 175.25 144.424 175.305 143.206C175.317 142.961 175.356 142.719 175.423 142.483C175.772 142.133 176.121 141.791 176.467 141.477C177.468 140.581 178.79 141.23 178.79 141.23Z" fill="#515A60"/>
</g>
<path d="M218.223 147.143H145.177V198.522H218.223V147.143Z" fill="#FDC73C"/>
<path d="M181.698 166.186L218.223 198.523H145.177L181.698 166.186Z" fill="#F59F3C"/>
<path d="M181.698 179.484L218.223 147.143H145.177L181.698 179.484Z" fill="#FFE23D"/>
<path d="M190.918 154.477C190.498 156.186 188.696 157.699 187.33 156.406C186.826 155.903 186.442 155.292 186.208 154.619C185.497 152.749 185.529 150.446 185.49 149.747C185.45 149.048 185.525 147.099 185.572 145.921C185.591 145.328 185.765 144.75 186.078 144.247C186.204 144.043 186.354 143.856 186.526 143.689C186.722 143.474 186.967 143.308 187.24 143.205C187.513 143.102 187.806 143.064 188.096 143.096C189.701 143.32 191.118 144.891 191.145 147.755C191.173 150.619 191.31 152.764 190.918 154.477Z" fill="#515A60"/>
<g style="mix-blend-mode:multiply" opacity="0.2">
<path d="M190.918 154.477C190.498 156.186 188.696 157.699 187.33 156.406C186.826 155.903 186.442 155.292 186.208 154.619C185.497 152.749 185.529 150.446 185.49 149.747C185.45 149.048 185.525 147.099 185.572 145.921C185.591 145.328 185.765 144.75 186.078 144.247C186.204 144.043 186.354 143.856 186.526 143.689C186.722 143.474 186.967 143.308 187.24 143.205C187.513 143.102 187.806 143.064 188.096 143.096C189.701 143.32 191.118 144.891 191.145 147.755C191.173 150.619 191.31 152.764 190.918 154.477Z" fill="#515A60"/>
</g>
<g style="mix-blend-mode:multiply" opacity="0.2">
<path d="M186.671 153.668C186.568 154.008 186.412 154.329 186.208 154.619C185.497 152.749 185.529 150.447 185.49 149.747C185.45 149.048 185.525 147.099 185.572 145.921C185.591 145.328 185.765 144.751 186.078 144.247C186.654 145.123 186.949 146.153 186.926 147.201C186.957 149.971 187.134 152.022 186.671 153.668Z" fill="#515A60"/>
</g>
<path d="M186.396 153.409C185.925 155.24 183.908 156.855 182.377 155.472C181.905 155.029 181.528 154.494 181.271 153.9C180.344 151.853 180.384 149.162 180.336 148.372C180.293 147.677 180.372 145.575 180.427 144.31C180.443 143.821 180.561 143.341 180.772 142.9C180.944 142.518 181.191 142.174 181.498 141.89C181.723 141.658 181.997 141.481 182.3 141.371C182.604 141.262 182.928 141.223 183.249 141.258C185.042 141.497 186.628 143.179 186.659 146.239C186.691 149.3 186.864 151.578 186.396 153.409Z" fill="#515A60"/>
<g style="mix-blend-mode:multiply" opacity="0.2">
<path d="M186.396 153.409C185.925 155.24 183.908 156.855 182.377 155.472C181.905 155.029 181.528 154.494 181.271 153.9C180.344 151.853 180.384 149.162 180.336 148.372C180.293 147.677 180.372 145.575 180.427 144.31C180.443 143.821 180.561 143.341 180.772 142.9C180.944 142.518 181.191 142.174 181.498 141.89C181.723 141.658 181.997 141.481 182.3 141.371C182.604 141.262 182.928 141.223 183.249 141.258C185.042 141.497 186.628 143.179 186.659 146.239C186.691 149.3 186.864 151.578 186.396 153.409Z" fill="#515A60"/>
</g>
<g style="mix-blend-mode:multiply" opacity="0.2">
<path d="M181.89 152.725C181.763 153.157 181.547 153.558 181.258 153.904C180.332 151.857 180.371 149.166 180.324 148.376C180.281 147.681 180.36 145.579 180.414 144.314C180.431 143.825 180.549 143.344 180.76 142.903C181.576 143.634 182.134 144.805 182.153 146.4C182.192 149.095 182.369 151.106 181.89 152.725Z" fill="#515A60"/>
</g>
<path d="M175.697 143.32C175.722 142.403 176.107 141.533 176.769 140.9C176.993 140.668 177.266 140.491 177.569 140.381C177.872 140.271 178.195 140.232 178.515 140.267C180.309 140.507 181.899 142.188 181.93 145.249C181.961 148.309 182.134 150.596 181.663 152.427C181.192 154.257 179.179 155.872 177.648 154.489C175.584 152.623 175.662 148.404 175.603 147.382C175.564 146.687 175.642 144.585 175.697 143.32Z" fill="#515A60"/>
<g style="mix-blend-mode:multiply" opacity="0.2">
<path d="M175.697 143.32C175.722 142.403 176.107 141.533 176.769 140.9C176.993 140.668 177.266 140.491 177.569 140.381C177.872 140.271 178.195 140.232 178.515 140.267C180.309 140.507 181.899 142.188 181.93 145.249C181.961 148.309 182.134 150.596 181.663 152.427C181.192 154.257 179.179 155.872 177.648 154.489C175.584 152.623 175.662 148.404 175.603 147.382C175.564 146.687 175.642 144.585 175.697 143.32Z" fill="#515A60"/>
</g>
<path d="M100.846 139.947C100.846 139.947 104.716 141.291 106.145 146.681C107.573 152.071 106.902 158.129 105.725 160.573C105.024 162.019 104.416 163.508 103.904 165.032C104.642 166.225 105.7 167.188 106.957 167.809C109.175 168.988 112.452 170.56 112.452 170.56L114.383 182.051L113.253 182.507C113.253 182.507 98.5777 181.662 93.8679 178.551C88.538 175.015 85.7945 172.194 86.3832 166.132C86.9719 160.07 92.4589 147.698 95.1513 144.355C97.8438 141.012 99.0134 140.139 99.661 139.951C100.047 139.834 100.459 139.833 100.846 139.947Z" fill="#4D9BE2"/>
<path d="M141.386 171.114C141.386 172.041 141.182 172.823 140.648 173.291C140.324 173.566 139.919 173.729 139.494 173.754C139.4 173.754 139.302 173.754 139.2 173.754H134.557H132.265C132.738 174.41 132.996 175.196 133.003 176.005C133.003 176.505 132.894 177 132.684 177.453C132.473 177.907 132.165 178.308 131.782 178.63C131.435 178.856 131.063 179.043 130.675 179.188C130.113 179.404 129.528 179.559 128.933 179.651H128.889C128.889 179.651 130.067 180.193 129.835 182.26C129.631 184.032 128.203 184.519 126.954 184.774C125.706 185.03 120.529 185.56 118.355 184.908C116.644 184.393 114.748 183.674 114.195 183.309C113.852 183.082 113.535 182.819 113.249 182.523C113.249 182.523 111.738 181.47 111.483 178.48C111.228 175.491 110.855 173.346 112.452 170.568C114.05 167.79 116.279 164.718 116.612 162.4C116.946 160.082 117.162 156.719 116.781 155.878C116.401 155.038 117.566 153.435 118.928 153.855C120.29 154.276 123.245 156.802 122.586 160.043C121.927 163.284 121.491 165.095 122.88 166.781C124.27 168.466 126.707 168.745 129.733 168.843C132.759 168.941 137.555 169.051 138.368 169.138C139.18 169.224 141.386 169.582 141.386 171.114Z" fill="#515A60"/>
<g style="mix-blend-mode:multiply" opacity="0.2">
<path d="M140.648 173.271C140.226 173.555 139.732 173.716 139.224 173.734H126.064C125.805 173.624 125.636 173.459 125.62 173.271H140.648Z" fill="#515A60"/>
</g>
<g style="mix-blend-mode:multiply" opacity="0.2">
<path d="M130.679 179.167C130.116 179.383 129.532 179.539 128.936 179.631H125.604C125.509 179.591 125.426 179.528 125.362 179.447C125.299 179.365 125.258 179.269 125.243 179.167H130.679Z" fill="#515A60"/>
</g>
<path d="M137.781 222.722C137.53 223.074 137.294 223.233 137.166 222.977C137.089 222.822 137.395 222.76 137.781 222.722Z" fill="#DBF0FD"/>
<path d="M71.248 193.737H71.3445V193.938L71.248 193.737Z" fill="#3F9BD6"/>
<path d="M91.1368 218.595L114.171 260.409C114.171 260.409 113.482 261.765 112.596 263.424C111.71 265.082 109.556 266.663 109.556 266.663C109.231 266.241 108.839 265.876 108.395 265.582C108.099 265.363 107.786 265.168 107.459 265.001C107.146 265.422 106.794 265.811 106.406 266.163L105.911 266.582C105.897 266.078 105.743 265.588 105.466 265.168L105.052 264.699C105.052 264.699 104.557 265.059 103.892 265.613C103.658 265.823 103.398 266.001 103.118 266.144C103.053 266.178 102.984 266.204 102.913 266.221C102.913 266.221 103.052 265.694 102.387 265.226C101.722 264.757 100.673 264.145 98.7697 261.765C96.8663 259.386 90.3128 248.532 89.8137 237.989C89.4539 230.619 90.3592 223.086 91.1368 218.595Z" fill="#4D9BE2"/>
<path d="M102.635 266.663H102.693C102.685 266.67 102.674 266.673 102.664 266.673C102.653 266.673 102.643 266.67 102.635 266.663Z" fill="#515A60"/>
<path d="M85.0472 270.252H84.9507L84.916 270.248L85.0472 270.252Z" fill="#515A60"/>
<path d="M126.673 95.3808C126.59 95.2897 126.495 95.2111 126.39 95.1475L126.673 95.3808Z" fill="#2E98D5"/>
<path d="M126.673 95.3808C126.59 95.2897 126.495 95.2111 126.39 95.1475L126.673 95.3808Z" fill="#DBF0FD"/>
<g opacity="0.33">
<path opacity="0.33" d="M126.673 95.3808C126.59 95.2897 126.495 95.2111 126.39 95.1475L126.673 95.3808Z" fill="#535C62"/>
</g>
<g opacity="0.33">
<path opacity="0.33" d="M126.958 95.75L126.699 95.7674L126.673 95.3809C126.789 95.4859 126.885 95.611 126.958 95.75Z" fill="#535C62"/>
</g>
<path d="M126.963 95.7692L126.7 95.7868L126.673 95.3809C126.792 95.4953 126.89 95.631 126.96 95.781L126.963 95.7692Z" fill="#E6F4FD"/>
<path d="M126.673 95.3808C126.59 95.2897 126.495 95.2111 126.39 95.1475L126.673 95.3808Z" fill="#E6F4FD"/>
<g opacity="0.3">
<path opacity="0.3" d="M158.774 74.7281C158.848 77.0991 158.622 81.0044 158.273 85.4537C158.257 85.6255 158.246 85.7972 158.23 85.969C156.061 94.4964 148.039 101.246 138.833 106.001C130.728 110.182 127.733 109.886 127.733 109.886C127.733 109.886 124.801 110.58 116.21 107.518C106.43 104.031 97.5772 98.4007 94.2937 90.2272C93.5581 86.7824 92.9274 83.6877 92.531 81.3072C92.4074 80.508 92.3056 79.8005 92.2412 79.1875C91.4598 71.712 90.0329 63.2315 97.6063 57.0868C105.18 50.942 116.269 46.2154 119.933 45.4962C121.713 45.144 122.612 44.9711 123.098 44.8725L123.62 44.8376C124.095 44.8717 125.026 44.922 126.833 45.0338C130.56 45.2654 142.191 48.4885 150.509 53.5409C158.827 58.5934 158.561 67.2262 158.774 74.7281Z" fill="#525B61"/>
<path opacity="0.3" d="M92.9314 82.3681C90.9417 81.5189 89.1211 80.3177 87.557 78.8222C85.0659 76.3877 82.9649 73.9853 83.6404 71.9715C84.3159 69.9576 86.958 67.9983 88.8495 66.4737C90.7411 64.9491 93.5694 64.0296 93.5694 64.0296C93.5694 64.0296 92.4367 74.0804 92.7872 77.3922C93.1377 80.7041 92.9314 82.3681 92.9314 82.3681Z" fill="#525B61"/>
<path opacity="0.3" d="M158.015 73.0184C157.92 69.6894 155.453 59.8799 155.453 59.8799C155.453 59.8799 158.375 60.414 160.458 61.6722C162.54 62.9304 165.424 64.5193 166.355 66.4255C167.286 68.3317 165.552 70.9911 163.39 73.7375C162.04 75.4284 160.396 76.8617 158.538 77.9688C158.538 77.9688 158.111 76.3434 158.015 73.0184Z" fill="#525B61"/>
</g>
<path d="M92.7236 79.2811C90.7341 78.432 88.9137 77.2309 87.3497 75.7354C84.8585 73.2971 82.7577 70.8947 83.4333 68.8808C84.1088 66.8669 86.7511 64.9113 88.6427 63.3866C90.5342 61.8619 93.3624 60.9422 93.3624 60.9422C93.3624 60.9422 92.2294 70.9933 92.5795 74.3013C92.9295 77.6093 92.7236 79.2811 92.7236 79.2811Z" fill="#4D9BE2"/>
<path d="M91.9863 68.309C91.9863 68.309 89.8047 67.8224 88.5135 68.0021C87.2223 68.1818 86.7837 68.7548 86.8885 69.7961C86.9908 70.9548 87.4885 72.043 88.2979 72.8777C89.2564 73.9239 90.4844 74.8239 91.1857 74.8119C91.8869 74.7998 92.356 73.8132 92.356 73.8132L91.9863 68.309Z" fill="#DBF0FD"/>
<g opacity="0.18">
<path opacity="0.18" d="M86.9785 68.9351C89.0156 68.8843 89.5335 69.7193 90.1286 70.72C90.6277 71.5641 90.9131 73.9016 91.0047 74.8001C91.0583 74.8143 91.1135 74.821 91.169 74.8201C91.8665 74.8085 92.3393 73.8218 92.3393 73.8218L91.9681 68.3103C91.9681 68.3103 89.786 67.8234 88.4946 68.0029C87.6447 68.114 87.1727 68.4212 86.9785 68.9351Z" fill="#535C62"/>
</g>
<g style="mix-blend-mode:multiply" opacity="0.16">
<path d="M83.3535 69.1762C84.8349 68.6375 86.3696 68.2588 87.9315 68.0463C89.1191 67.9238 90.3184 67.9835 91.4881 68.2233L92.6601 65.9824L93.0508 64.0617C93.2241 62.2527 93.3703 60.9657 93.3703 60.9657C93.3703 60.9657 90.5463 61.8809 88.6514 63.4055C86.7565 64.9301 84.1033 66.886 83.4395 68.8987C83.3992 68.9907 83.3704 69.0819 83.3535 69.1762Z" fill="#515A60"/>
</g>
<path d="M157.808 69.9288C157.713 66.6037 155.246 56.7939 155.246 56.7939C155.246 56.7939 158.168 57.3242 160.251 58.5863C162.333 59.8484 165.217 61.4296 166.148 63.3358C167.079 65.242 165.345 67.9015 163.183 70.6518C161.833 72.3427 160.189 73.776 158.331 74.8832C158.331 74.8832 157.904 73.2577 157.808 69.9288Z" fill="#4D9BE2"/>
<g style="mix-blend-mode:multiply" opacity="0.4">
<path d="M157.808 69.9288C157.713 66.6037 155.246 56.7939 155.246 56.7939C155.246 56.7939 158.168 57.3242 160.25 58.5863C162.333 59.8484 165.217 61.4296 166.148 63.3358C167.079 65.242 165.345 67.9015 163.183 70.6518C161.833 72.3427 160.189 73.776 158.331 74.8832C158.331 74.8832 157.904 73.2577 157.808 69.9288Z" fill="#4D9BE2"/>
</g>
<path d="M157.964 69.4138C157.964 69.4138 158.565 70.3287 159.258 70.2473C159.95 70.1659 161.051 69.1098 161.861 67.9451C162.551 67.0098 162.899 65.8649 162.846 64.703C162.81 63.6571 162.303 63.1514 160.999 63.1417C159.695 63.132 157.595 63.9096 157.595 63.9096L157.964 69.4138Z" fill="#DBF0FD"/>
<g opacity="0.18">
<g style="mix-blend-mode:multiply" opacity="0.18">
<path d="M160.996 63.1419C159.692 63.1358 157.595 63.9089 157.595 63.9089L157.966 69.4203C157.966 69.4203 158.567 70.3352 159.26 70.2539L159.279 70.2527C159.334 70.2462 159.388 70.2321 159.439 70.2109C159.409 69.3083 159.379 66.9537 159.76 66.0508C160.216 64.9799 160.617 64.0834 162.643 63.8626C162.385 63.379 161.872 63.1376 160.996 63.1419Z" fill="#525B61"/>
</g>
</g>
<g style="mix-blend-mode:multiply" opacity="0.16">
<path d="M166.156 63.3529C165.229 61.4468 162.334 59.859 160.256 58.6046C158.178 57.3502 155.253 56.8164 155.253 56.8164C155.253 56.8164 155.57 58.0724 155.984 59.8421L156.628 61.6934L158.089 63.7578C159.216 63.364 160.397 63.1448 161.59 63.1077C163.166 63.1098 164.738 63.2804 166.278 63.6165C166.233 63.5263 166.197 63.4395 166.156 63.3529Z" fill="#3583B9"/>
</g>
<path d="M124.12 42.7842L128.51 106.901L128.285 107.574C128.181 107.581 128.019 107.592 127.795 107.607L127.66 107.616L127.404 107.614L127.361 107.617C125.862 107.593 122.653 107.218 116.908 105.184C110.586 102.932 104.646 99.7928 100.363 95.6221L100.131 95.393C99.3715 94.6433 98.6599 93.8467 98.0002 93.0079C97.9198 92.9084 97.843 92.8049 97.7665 92.7051C97.2816 92.0706 96.832 91.4097 96.4196 90.7257C96.1529 90.2776 95.9052 89.8243 95.6725 89.3623C95.4882 88.9864 95.3156 88.6096 95.1596 88.2512C95.0592 88.0147 94.9829 87.7688 94.9319 87.517C94.402 85.0556 93.9337 82.761 93.5771 80.8006C93.4598 80.1522 93.3527 79.5381 93.264 78.9693C93.1411 78.1776 93.039 77.4661 92.9743 76.8491C92.1892 69.3762 90.7662 60.8937 98.3405 54.7631C105.915 48.6325 117.003 43.8896 120.667 43.1702L123.781 42.857C123.879 42.8445 124.021 42.7849 124.12 42.7842Z" fill="#4D9BE2"/>
<path d="M158.534 72.5025C158.553 73.1226 158.547 73.8414 158.531 74.6424C158.519 75.2179 158.495 75.8408 158.465 76.499C158.375 78.4972 158.225 80.8371 158.005 83.3371C157.989 83.5934 157.946 83.8473 157.878 84.0951C157.773 84.4904 157.652 84.8869 157.518 85.2647C157.349 85.7537 157.165 86.2359 156.96 86.7156C156.644 87.4471 156.288 88.1607 155.894 88.8529C155.821 88.9821 155.748 89.1112 155.671 89.2367C155.127 90.1538 154.525 91.0358 153.87 91.8776C150.174 96.6649 144.639 100.651 138.581 103.775C134.641 105.799 131.91 106.774 130.141 107.242C129.867 107.315 129.615 107.374 129.378 107.425C129.141 107.476 128.838 107.535 128.612 107.57L128.362 107.606L128.304 107.61L128.169 107.619L128.046 107.627C127.822 107.642 127.66 107.653 127.555 107.66L127.463 107.666L123.095 42.6402L123.188 42.6339C123.287 42.6214 123.386 42.6148 123.485 42.614L126.554 42.7966C130.277 43.0247 141.912 46.2444 150.23 51.3057C158.548 56.3671 158.325 64.991 158.534 72.5025Z" fill="#4D9BE2"/>
<g style="mix-blend-mode:multiply" opacity="0.4">
<path d="M158.534 72.5025C158.553 73.1226 158.547 73.8414 158.53 74.6424C158.519 75.2179 158.495 75.8408 158.465 76.4991C158.374 78.4972 158.225 80.8371 158.005 83.3371C157.988 83.5934 157.946 83.8474 157.878 84.0951C157.772 84.4905 157.652 84.8869 157.518 85.2647C157.349 85.7537 157.164 86.2359 156.96 86.7156C156.644 87.4471 156.288 88.1607 155.893 88.853C155.821 88.9821 155.748 89.1112 155.671 89.2368C155.126 90.1538 154.525 91.0358 153.87 91.8776C150.173 96.6649 144.639 100.651 138.581 103.775C134.64 105.799 131.909 106.774 130.141 107.242C129.867 107.315 129.615 107.374 129.378 107.425C129.141 107.476 128.838 107.535 128.612 107.57L128.362 107.606L128.304 107.61L128.169 107.619L128.045 107.627C127.821 107.642 127.659 107.653 127.555 107.66L127.462 107.666L123.095 42.6402L123.188 42.6339C123.286 42.6214 123.386 42.6148 123.485 42.614L126.554 42.7966C130.277 43.0247 141.912 46.2444 150.23 51.3057C158.548 56.3671 158.324 64.991 158.534 72.5025Z" fill="#4D9BE2"/>
</g>
<path d="M123.136 42.6382L127.505 107.683L127.358 107.693C127.254 107.7 127.091 107.711 126.868 107.726L126.732 107.735L126.476 107.733L126.434 107.736C124.935 107.712 121.726 107.337 115.98 105.303C109.658 103.051 103.719 99.9117 99.436 95.741L99.2034 95.5119C98.4442 94.7622 97.7326 93.9656 97.0729 93.1268C96.9925 93.0273 96.9157 92.9238 96.8392 92.824C96.3543 92.1894 95.9047 91.5286 95.4923 90.8446C95.2256 90.3965 94.9779 89.9432 94.7452 89.4812C94.5609 89.1052 94.3882 88.7285 94.2323 88.3701C94.1319 88.1336 94.0556 87.8876 94.0046 87.6359C93.4747 85.1745 93.0064 82.8799 92.6498 80.9195C92.5325 80.2711 92.4253 79.657 92.3367 79.0882C92.2137 78.2965 92.1116 77.585 92.0469 76.968C91.2619 69.4951 89.8389 61.0126 97.4132 54.882C104.987 48.7514 116.076 44.0085 119.739 43.2891L122.756 42.6986C122.855 42.6861 122.954 42.6562 123.049 42.6358L123.136 42.6382Z" fill="#4D9BE2"/>
<path d="M126.771 76.2524L128.863 107.393L128.712 107.403C128.608 107.41 128.446 107.421 128.222 107.436L128.087 107.445L127.831 107.443L127.788 107.446C126.29 107.422 123.081 107.047 117.336 105.013C111.015 102.761 105.076 99.6218 100.794 95.4513L100.561 95.2223C99.8018 94.4726 99.0903 93.676 98.4307 92.8373C100.599 88.1645 104.711 84.3165 109.54 81.4379C119.059 75.752 126.558 76.2434 126.776 76.2598L126.771 76.2524Z" fill="#DBF0FD"/>
<path d="M125.414 76.5434L127.506 107.684L127.355 107.694C127.251 107.701 127.089 107.712 126.865 107.727L126.73 107.736L126.474 107.734L126.431 107.737C124.933 107.713 121.724 107.338 115.979 105.304C109.658 103.052 103.719 99.9129 99.4366 95.7423L99.204 95.5133C98.4449 94.7636 97.7334 93.967 97.0737 93.1283C99.2419 88.4555 103.354 84.6076 108.183 81.7289C117.702 76.043 125.201 76.5344 125.419 76.5508L125.414 76.5434Z" fill="#DBF0FD"/>
<path d="M155.685 89.238C155.141 90.155 154.539 91.0369 153.885 91.8787C150.188 96.6656 144.654 100.652 138.597 103.776C134.657 105.799 131.926 106.774 130.158 107.242C129.884 107.315 129.632 107.374 129.395 107.425C129.158 107.476 128.859 107.531 128.629 107.57L128.379 107.606L128.322 107.61L128.186 107.619L128.063 107.627C127.839 107.642 127.677 107.653 127.573 107.66L127.449 107.668L125.359 76.5468L125.417 76.5429C126.114 76.4108 133.315 75.1903 143.137 79.3855C148.311 81.5937 152.918 84.8727 155.685 89.238Z" fill="#CCE9FC"/>
<g opacity="0.5">
<path opacity="0.5" d="M135.317 86.2263C135.397 86.2209 135.472 86.184 135.525 86.1237C135.577 86.0634 135.604 85.9846 135.598 85.9046C135.593 85.8247 135.556 85.7501 135.496 85.6974C135.436 85.6446 135.357 85.618 135.277 85.6234C135.197 85.6287 135.123 85.6656 135.07 85.7259C135.017 85.7863 134.991 85.8651 134.996 85.945C135.001 86.025 135.038 86.0995 135.099 86.1523C135.159 86.205 135.238 86.2316 135.317 86.2263Z" fill="#525B61"/>
</g>
<g opacity="0.5">
<path opacity="0.5" d="M136.691 84.8452C136.745 84.8423 136.798 84.8231 136.841 84.7902C136.885 84.7573 136.918 84.7121 136.936 84.6604C136.954 84.6086 136.956 84.5528 136.942 84.4999C136.928 84.447 136.898 84.3995 136.857 84.3635C136.816 84.3274 136.765 84.3045 136.711 84.2976C136.656 84.2908 136.601 84.3002 136.552 84.3249C136.504 84.3495 136.463 84.3881 136.437 84.4358C136.41 84.4835 136.398 84.5382 136.402 84.5927C136.407 84.6645 136.44 84.7314 136.494 84.7787C136.548 84.8261 136.619 84.85 136.691 84.8452Z" fill="#525B61"/>
</g>
<g opacity="0.5">
<path opacity="0.5" d="M136.607 82.3306C136.657 82.328 136.705 82.3106 136.744 82.2807C136.784 82.2508 136.815 82.2096 136.831 82.1625C136.848 82.1153 136.85 82.0643 136.837 82.016C136.825 81.9676 136.798 81.9241 136.761 81.8909C136.723 81.8577 136.677 81.8364 136.628 81.8296C136.578 81.8229 136.528 81.831 136.483 81.853C136.438 81.875 136.401 81.9098 136.376 81.9531C136.351 81.9963 136.339 82.0461 136.343 82.0959C136.347 82.1619 136.377 82.2235 136.427 82.2674C136.476 82.3113 136.541 82.334 136.607 82.3306Z" fill="#525B61"/>
</g>
<g opacity="0.5">
<path opacity="0.5" d="M137.703 83.2893C137.77 83.2849 137.832 83.2541 137.876 83.2039C137.92 83.1536 137.942 83.0879 137.937 83.0213C137.933 82.9547 137.902 82.8925 137.852 82.8486C137.802 82.8046 137.736 82.7824 137.669 82.7869C137.603 82.7913 137.541 82.8221 137.497 82.8724C137.453 82.9226 137.431 82.9883 137.435 83.0549C137.44 83.1216 137.471 83.1837 137.521 83.2277C137.571 83.2716 137.637 83.2938 137.703 83.2893Z" fill="#525B61"/>
</g>
<g opacity="0.5">
<path opacity="0.5" d="M117.033 87.4529C117.092 87.4489 117.149 87.4273 117.197 87.3908C117.244 87.3544 117.279 87.3047 117.298 87.2481C117.317 87.1915 117.319 87.1305 117.304 87.0728C117.288 87.0151 117.256 86.9633 117.211 86.9239C117.166 86.8846 117.11 86.8595 117.051 86.8518C116.992 86.8441 116.932 86.8541 116.878 86.8806C116.825 86.9071 116.78 86.9489 116.751 87.0007C116.721 87.0525 116.707 87.112 116.711 87.1716C116.717 87.2515 116.753 87.3261 116.814 87.3789C116.874 87.4316 116.953 87.4582 117.033 87.4529Z" fill="#525B61"/>
</g>
<g opacity="0.5">
<path opacity="0.5" d="M115.468 86.2678C115.522 86.2641 115.574 86.2443 115.617 86.211C115.66 86.1776 115.693 86.1322 115.71 86.0804C115.727 86.0287 115.729 85.973 115.714 85.9204C115.7 85.8678 115.67 85.8206 115.629 85.785C115.587 85.7494 115.536 85.7269 115.482 85.7203C115.428 85.7137 115.373 85.7234 115.325 85.7482C115.276 85.7729 115.236 85.8115 115.209 85.8591C115.183 85.9067 115.171 85.9612 115.175 86.0156C115.178 86.0514 115.187 86.0865 115.203 86.1186C115.219 86.1508 115.242 86.1794 115.269 86.2029C115.296 86.2263 115.328 86.2441 115.362 86.2553C115.396 86.2664 115.432 86.2707 115.468 86.2678Z" fill="#525B61"/>
</g>
<g opacity="0.5">
<path opacity="0.5" d="M115.218 83.7649C115.268 83.7616 115.316 83.7436 115.355 83.7132C115.394 83.6829 115.424 83.6415 115.44 83.5943C115.456 83.5471 115.457 83.4963 115.444 83.4482C115.431 83.4001 115.404 83.3569 115.367 83.3242C115.33 83.2914 115.283 83.2704 115.234 83.264C115.185 83.2576 115.134 83.2659 115.09 83.288C115.045 83.3101 115.008 83.3449 114.983 83.3881C114.959 83.4313 114.947 83.4808 114.95 83.5305C114.955 83.5972 114.986 83.6593 115.036 83.7032C115.086 83.7472 115.152 83.7694 115.218 83.7649Z" fill="#525B61"/>
</g>
<g opacity="0.5">
<path opacity="0.5" d="M114.264 84.8616C114.314 84.8583 114.361 84.8403 114.401 84.8099C114.44 84.7796 114.47 84.7382 114.486 84.691C114.502 84.6438 114.503 84.593 114.49 84.5449C114.477 84.4968 114.45 84.4536 114.413 84.4208C114.375 84.3881 114.329 84.3671 114.28 84.3607C114.23 84.3543 114.18 84.3626 114.136 84.3847C114.091 84.4068 114.054 84.4416 114.029 84.4848C114.004 84.528 113.993 84.5775 113.996 84.6272C114.001 84.6938 114.032 84.756 114.082 84.7999C114.132 84.8439 114.198 84.8661 114.264 84.8616Z" fill="#525B61"/>
</g>
<path d="M115.483 86.1261C114.182 86.1868 112.886 86.3268 111.602 86.5454C110.329 86.7627 109.056 87.0344 107.779 87.3607C105.259 88.0271 102.808 88.9285 100.456 90.0529C99.2874 90.6213 98.1479 91.2483 97.0421 91.9317C96.7585 92.0982 96.492 92.2869 96.2167 92.4607C95.9414 92.6344 95.6669 92.8197 95.4045 93.012L94.6031 93.551L93.8419 94.1689C93.5836 94.3648 93.3313 94.5913 93.0809 94.7906C92.8306 94.9898 92.5742 95.2128 92.3483 95.4298C91.867 95.8852 91.3682 96.3108 90.9161 96.7953C89.9803 97.7372 89.1007 98.7334 88.2818 99.7788C89.0912 98.7248 89.964 97.7212 90.8952 96.7734C91.3433 96.2853 91.8415 95.852 92.319 95.3968C92.56 95.1749 92.818 94.9751 93.0511 94.7499C93.2841 94.5246 93.5501 94.3282 93.8074 94.1168L94.5848 93.5096L95.3798 92.9322C95.6458 92.7357 95.9205 92.5543 96.1915 92.3731C96.4624 92.1918 96.7328 92.0029 97.0124 91.8366C98.1216 91.1463 99.263 90.5107 100.436 89.93C102.786 88.787 105.238 87.8688 107.76 87.1873C109.016 86.8469 110.293 86.5672 111.581 86.345C112.872 86.111 114.176 85.9575 115.486 85.8852C115.51 85.8955 115.53 85.9132 115.544 85.9357C115.557 85.9588 115.566 85.9848 115.568 86.0117C115.573 86.0227 115.574 86.0349 115.57 86.0465C115.574 86.0577 115.575 86.0696 115.573 86.0812C115.565 86.0928 115.555 86.1027 115.544 86.1104C115.526 86.1223 115.504 86.1278 115.483 86.1261Z" fill="#525B61"/>
<path d="M115.172 83.5843C114.338 82.9879 113.42 82.5185 112.449 82.1912C112.33 82.1487 112.21 82.0985 112.091 82.0599L111.727 81.9524L110.995 81.7337C110.503 81.6269 110.01 81.5009 109.512 81.414C109.014 81.3271 108.52 81.2554 108.016 81.1999L106.516 81.0871C105.516 81.0584 104.518 81.0774 103.522 81.1442L102.411 81.2187L102.026 81.2717L100.547 81.4756C100.052 81.5359 99.5606 81.6272 99.0766 81.7489L97.6155 82.0486C96.6559 82.3109 95.692 82.5657 94.7371 82.8393L91.9093 83.8051L94.7294 82.8398C95.6796 82.5549 96.6315 82.2931 97.6018 82.0185L99.0619 81.7033C99.5518 81.6083 100.031 81.4753 100.531 81.4146L102.014 81.1988L102.398 81.142L103.556 81.0643C104.555 80.9845 105.557 80.9549 106.559 80.9755L108.07 81.076C108.574 81.1238 109.08 81.2101 109.576 81.2739C110.073 81.3376 110.579 81.4783 111.074 81.5809L111.818 81.795L112.185 81.9023C112.308 81.9406 112.428 81.9908 112.551 82.033C113.552 82.3568 114.499 82.8298 115.359 83.4358C115.359 83.4358 115.409 83.483 115.345 83.5688C115.347 83.5918 115.34 83.6147 115.325 83.6324C115.31 83.6501 115.289 83.6612 115.266 83.6633C115.243 83.6654 115.22 83.6582 115.203 83.6434C115.185 83.6285 115.174 83.6073 115.172 83.5843Z" fill="#525B61"/>
<path d="M117.071 87.2618C115.385 87.7994 113.744 88.4703 112.164 89.268C110.568 90.0617 109.035 90.9757 107.578 92.0021C106.837 92.5215 106.137 93.0616 105.459 93.6467C104.769 94.2242 104.11 94.8373 103.484 95.4835C102.215 96.7874 101.094 98.2286 100.143 99.7804C101.078 98.2149 102.184 96.759 103.442 95.4397C104.065 94.7912 104.72 94.1745 105.404 93.5921C106.078 93.0033 106.79 92.4471 107.509 91.898C108.959 90.8503 110.487 89.9146 112.079 89.099C113.661 88.2744 115.307 87.5785 117 87.0181C117 87.0181 117.07 87.0134 117.107 87.1118C117.121 87.1368 117.125 87.1662 117.119 87.1941C117.112 87.222 117.095 87.2462 117.071 87.2618Z" fill="#525B61"/>
<path d="M114.236 84.7245C113.214 84.6341 112.186 84.6173 111.162 84.6745C110.14 84.7164 109.122 84.8106 108.11 84.9567C106.085 85.2431 104.08 85.6615 102.11 86.209L100.642 86.6412C100.147 86.7792 99.6709 86.9625 99.1856 87.127C98.2137 87.4367 97.2702 87.8221 96.314 88.1928C95.8372 88.3684 95.3708 88.5821 94.8999 88.7883L93.4951 89.4065L90.7433 90.7554C91.6554 90.3061 92.5654 89.8259 93.4855 89.3799L94.8816 88.7468C95.3481 88.5331 95.8143 88.3156 96.2908 88.1361C97.2423 87.7541 98.1776 87.3614 99.1565 87.0396C99.6418 86.8751 100.118 86.688 100.609 86.5541L102.076 86.1065C104.046 85.5353 106.051 85.0948 108.079 84.788C109.097 84.646 110.117 84.5272 111.16 84.4766C112.194 84.4075 113.231 84.4145 114.264 84.4975C114.264 84.4975 114.331 84.5163 114.334 84.6248C114.338 84.7332 114.236 84.7245 114.236 84.7245Z" fill="#525B61"/>
<path d="M136.714 84.7017C138.012 84.5882 139.315 84.554 140.616 84.5993C141.912 84.6445 143.211 84.7437 144.514 84.8971C147.095 85.221 149.64 85.7874 152.116 86.5887C153.356 86.9939 154.576 87.4616 155.77 87.9898C156.065 88.1176 156.358 88.2687 156.654 88.4042C156.95 88.5396 157.247 88.6866 157.533 88.8422L158.401 89.3003L159.253 89.7945C159.539 89.9539 159.819 90.1448 160.094 90.3088C160.369 90.4729 160.649 90.6599 160.906 90.8445C161.443 91.2316 161.991 91.587 162.508 92.0066C163.562 92.8141 164.567 93.6841 165.517 94.6117C164.573 93.6763 163.574 92.7982 162.525 91.9821C162.012 91.5584 161.464 91.1953 160.93 90.8079C160.658 90.6204 160.379 90.4566 160.118 90.2645C159.857 90.0724 159.563 89.9135 159.276 89.7386L158.428 89.2403L157.56 88.7744C157.277 88.6148 156.981 88.4716 156.684 88.3284C156.388 88.1852 156.098 88.0338 155.799 87.9064C154.607 87.3655 153.388 86.8874 152.147 86.4741C149.668 85.6548 147.118 85.0718 144.53 84.7329C143.227 84.564 141.933 84.4528 140.631 84.4081C139.319 84.3485 138.004 84.3705 136.695 84.474C136.675 84.4884 136.658 84.5083 136.649 84.5314C136.642 84.5571 136.644 84.5841 136.654 84.6087C136.649 84.6188 136.647 84.6299 136.648 84.6409C136.649 84.6519 136.653 84.6625 136.659 84.6718C136.665 84.6811 136.673 84.6887 136.683 84.6939C136.692 84.6991 136.703 84.7018 136.714 84.7017Z" fill="#525B61"/>
<path d="M136.664 82.1428C137.412 81.442 138.258 80.8545 139.176 80.3987C139.292 80.3405 139.4 80.275 139.517 80.2206L139.863 80.0655L140.555 79.7513C141.032 79.5796 141.504 79.3888 141.983 79.2365C142.461 79.0841 142.952 78.9464 143.436 78.8246L144.908 78.5125C145.894 78.3494 146.891 78.236 147.886 78.1692L149.01 78.0939L149.398 78.0951L150.895 78.0995C151.392 78.0936 151.89 78.1186 152.385 78.1742L153.877 78.276C154.859 78.4081 155.833 78.5329 156.831 78.6755L159.763 79.2552L156.839 78.675C155.855 78.5198 154.881 78.3872 153.886 78.2443L152.393 78.1271C151.895 78.0984 151.398 78.0308 150.902 78.0369L149.4 78.0212L149.012 78.0161L147.881 78.092C146.878 78.1463 145.878 78.2509 144.886 78.4054L143.401 78.7067C142.913 78.8209 142.427 78.9738 141.935 79.1038C141.444 79.2338 140.973 79.44 140.495 79.6078L139.791 79.9189L139.437 80.0746C139.321 80.129 139.205 80.195 139.096 80.2527C138.147 80.7064 137.272 81.3016 136.5 82.0179C136.488 82.0379 136.482 82.0614 136.484 82.085C136.485 82.1086 136.494 82.1311 136.509 82.1493C136.565 82.227 136.664 82.1428 136.664 82.1428Z" fill="#525B61"/>
<path d="M135.304 86.0388C137.046 86.3472 138.762 86.793 140.435 87.3722C142.119 87.9466 143.759 88.6479 145.338 89.4701C146.141 89.8861 146.904 90.328 147.662 90.8169C148.419 91.2987 149.152 91.8184 149.857 92.3742C151.292 93.4949 152.597 94.7736 153.746 96.1864C152.609 94.7598 151.316 93.4647 149.892 92.3253C149.191 91.7592 148.461 91.2289 147.707 90.7362C146.952 90.2432 146.181 89.7863 145.387 89.3387C143.811 88.4947 142.173 87.7712 140.487 87.1745C138.809 86.5685 137.085 86.0984 135.332 85.769C135.332 85.769 135.263 85.7737 135.239 85.8762C135.229 85.9067 135.231 85.9395 135.242 85.9691C135.254 85.9986 135.276 86.0233 135.304 86.0388Z" fill="#525B61"/>
<path d="M137.766 83.1469C138.765 82.9209 139.778 82.7673 140.799 82.6874C141.827 82.5918 142.859 82.5485 143.892 82.5576C145.936 82.5715 147.977 82.7187 150.002 82.998L151.518 83.2302C152.019 83.3014 152.52 83.4192 153.019 83.5177C154.027 83.6946 155.018 83.9504 156.011 84.1904C156.511 84.3005 157.002 84.45 157.488 84.5921L158.963 85.0172L161.874 85.9864C160.91 85.6629 159.944 85.3085 158.973 84.9894L157.501 84.5485C157.014 84.3988 156.522 84.2454 156.022 84.1314C155.032 83.8795 154.049 83.6155 153.036 83.4273C152.537 83.3288 152.04 83.2068 151.535 83.1398L150.022 82.8919C147.993 82.5904 145.947 82.4229 143.896 82.3905C142.872 82.3854 141.846 82.4037 140.801 82.4932C139.768 82.5624 138.74 82.7078 137.728 82.9282C137.728 82.9282 137.668 82.9555 137.675 83.0637C137.683 83.1719 137.766 83.1469 137.766 83.1469Z" fill="#525B61"/>
<g opacity="0.33">
<path opacity="0.33" d="M132.671 76.0542C131.708 75.5249 129.609 74.5208 127.677 74.4487C126.618 74.3995 125.927 74.3838 125.512 74.3768L125.509 74.342L125.019 74.3749L125.021 74.4097C124.611 74.4722 123.924 74.5805 122.885 74.7705C120.969 75.1128 119.034 76.3879 118.15 77.0295C117.709 77.343 117.396 77.805 117.268 78.3309C117.141 78.8557 117.204 79.4087 117.446 79.8911C117.957 80.9709 121.107 83.5271 122.382 84.0974C123.421 84.5517 125.263 84.3853 125.921 84.3061C126.592 84.2961 128.44 84.2146 129.405 83.6257C130.601 82.901 133.381 79.9349 133.735 78.7971C133.913 78.2941 133.906 77.7441 133.716 77.2456C133.522 76.7355 133.151 76.3126 132.671 76.0542Z" fill="#535C62"/>
</g>
<path d="M122.794 76.7637C123.245 76.9987 123.735 77.15 124.24 77.2104C124.644 77.2576 125.051 77.2758 125.457 77.2647L125.888 83.67C125.214 83.7501 123.333 83.9189 122.271 83.4697C120.966 82.9127 117.749 80.3442 117.231 79.2684C116.983 78.7849 116.92 78.2279 117.052 77.7011C117.184 77.1743 117.503 76.7137 117.95 76.4051C118.856 75.7502 120.845 74.4714 122.789 74.1392C123.85 73.9516 124.553 73.8423 124.975 73.7791L124.973 73.7482L125.22 73.7316L125.274 74.5356C125.274 74.5356 123.271 74.7359 122.457 75.4389C121.643 76.1419 122.794 76.7637 122.794 76.7637Z" fill="#525B61"/>
<path d="M122.794 76.7637C123.245 76.9987 123.735 77.15 124.24 77.2104C124.644 77.2576 125.407 77.2302 125.814 77.2192L126.104 83.5481C125.431 83.6282 123.333 83.9188 122.271 83.4697C120.966 82.9126 117.749 80.3442 117.231 79.2684C116.983 78.7849 116.92 78.2279 117.052 77.7011C117.184 77.1743 117.503 76.7137 117.95 76.4051C118.856 75.7502 120.845 74.4714 122.789 74.1392C123.85 73.9516 124.553 73.8423 124.975 73.7791L124.973 73.7482L125.426 73.7516L125.572 74.4306C125.572 74.4306 123.271 74.7359 122.457 75.4389C121.643 76.1419 122.794 76.7637 122.794 76.7637Z" fill="#525B61"/>
<path d="M133.881 78.1514C133.511 79.2867 130.666 82.2497 129.447 82.9876C128.455 83.5744 126.568 83.6582 125.886 83.6689L125.456 77.264C125.05 77.275 124.643 77.2569 124.239 77.2097C123.734 77.1493 123.244 76.998 122.793 76.763C122.793 76.763 121.631 76.1459 122.452 75.4347C123.273 74.7234 125.269 74.5314 125.269 74.5314L125.215 73.7313L125.47 73.7142L125.472 73.749C125.895 73.7556 126.602 73.7703 127.683 73.8143C129.655 73.8996 131.801 74.9011 132.782 75.4139C133.268 75.659 133.647 76.0731 133.85 76.5786C134.052 77.0841 134.063 77.6461 133.881 78.1591L133.881 78.1514Z" fill="#525B61"/>
<g opacity="0.4">
<path d="M133.885 78.1988C133.515 79.3338 130.67 82.2961 129.451 83.0337C128.459 83.6203 126.572 83.7039 125.89 83.7145L125.459 77.3067C125.053 77.3209 124.646 77.304 124.242 77.2562C123.737 77.1958 123.247 77.0444 122.796 76.8094C122.796 76.8094 121.634 76.1923 122.454 75.4813C123.275 74.7703 125.272 74.5785 125.272 74.5785L125.218 73.7746L125.472 73.7575L125.475 73.7923C125.898 73.7989 126.605 73.8138 127.686 73.8579C129.658 73.9433 131.804 74.9449 132.785 75.4578C133.267 75.7026 133.643 76.1136 133.845 76.6146C134.047 77.1157 134.061 77.673 133.884 78.1833L133.885 78.1988Z" fill="#525B61"/>
<g style="mix-blend-mode:multiply" opacity="0.2">
<path d="M133.885 78.1987C133.515 79.3338 130.67 82.296 129.451 83.0337C128.459 83.6203 126.572 83.7038 125.89 83.7145L125.459 77.3067C125.053 77.3209 124.646 77.304 124.242 77.2562C123.737 77.1958 123.247 77.0444 122.796 76.8094C122.796 76.8094 121.634 76.1923 122.454 75.4813C123.275 74.7703 125.272 74.5785 125.272 74.5785L125.218 73.7746L125.472 73.7575L125.475 73.7923C125.898 73.7989 126.605 73.8138 127.686 73.8579C129.658 73.9433 131.804 74.9449 132.785 75.4578C133.267 75.7026 133.643 76.1136 133.845 76.6146C134.047 77.1157 134.061 77.673 133.884 78.1833L133.885 78.1987Z" fill="#525B61"/>
</g>
</g>
<path d="M128.988 80.1423C128.926 79.9741 128.914 79.7916 128.953 79.6166C128.989 79.44 129.073 79.277 129.197 79.146C129.628 78.6434 130.09 78.3095 130.431 78.4071C130.505 78.4187 130.577 78.4455 130.641 78.486C130.705 78.5264 130.76 78.5796 130.803 78.6422C130.847 78.7034 130.878 78.7726 130.894 78.8458C130.915 78.9187 130.92 78.995 130.909 79.07C130.905 79.2739 130.844 79.4727 130.735 79.6447C130.629 79.821 130.478 79.9653 130.297 80.0623C129.952 80.2247 129.576 80.3121 129.194 80.3188C129.011 80.2456 128.988 80.1423 128.988 80.1423Z" fill="#6D7780"/>
<path d="M122.345 80.5873C122.384 80.4123 122.372 80.2299 122.31 80.0616C122.251 79.8914 122.145 79.7411 122.005 79.6277C121.507 79.1875 121.008 78.9181 120.684 79.0601C120.611 79.0816 120.543 79.1178 120.485 79.1664C120.427 79.2151 120.38 79.2752 120.346 79.3429C120.309 79.4087 120.288 79.4817 120.283 79.5568C120.274 79.6319 120.279 79.7078 120.298 79.781C120.333 79.9822 120.42 80.1705 120.552 80.327C120.679 80.4885 120.848 80.6116 121.041 80.6825C121.405 80.7974 121.789 80.8338 122.169 80.7894C122.211 80.7702 122.248 80.7423 122.279 80.7074C122.309 80.6726 122.332 80.6316 122.345 80.5873Z" fill="#6D7780"/>
<g opacity="0.51">
<path opacity="0.51" d="M128.033 76.4127C127.618 76.7062 127.153 76.9214 126.66 77.0479C126.278 77.1355 125.98 77.1904 125.776 77.2234C125.672 77.2428 125.566 77.2499 125.46 77.2446C125.053 77.2587 124.646 77.2418 124.242 77.194C123.738 77.1336 123.248 76.9822 122.797 76.7473C122.797 76.7473 121.634 76.1303 122.455 75.4194C123.276 74.7086 125.272 74.517 125.272 74.517C125.272 74.517 127.284 74.4484 128.188 75.0361C129.093 75.6238 128.033 76.4127 128.033 76.4127Z" fill="white"/>
</g>
<path d="M140.077 85.4855C139.959 85.5135 139.856 85.5862 139.791 85.6883C139.725 85.7904 139.702 85.914 139.726 86.033C139.726 86.033 139.548 88.2416 138.415 89.0938C135.754 91.108 132.2 89.8637 126.621 89.0618C126.502 89.0341 126.38 89.0278 126.259 89.0433C126.139 89.0442 126.019 89.0667 125.907 89.1096C120.488 90.6373 117.129 92.3567 114.219 90.7161C112.99 90.0222 112.508 87.8733 112.511 87.8576C112.516 87.7975 112.509 87.7369 112.491 87.6795C112.472 87.6221 112.443 87.5689 112.403 87.5233C112.325 87.4315 112.214 87.3736 112.094 87.3616C111.751 87.3381 111.612 87.6384 111.622 87.8978C111.839 89.1846 112.52 90.3471 113.536 91.1655C114.681 92.0512 116.634 92.2657 118.762 91.9057C120.89 91.5457 123.399 90.6866 126.325 89.8462C129.339 90.2767 131.964 90.7916 134.099 90.8774C136.233 90.9633 138.167 90.4766 139.179 89.4462C140.075 88.4987 140.594 87.2562 140.639 85.9523C140.591 85.6955 140.43 85.4347 140.077 85.4855Z" fill="#525B61"/>
<path d="M126.288 89.648L126.662 95.2026C124.882 95.3219 123.21 94.4554 121.928 93.4969C120.463 92.407 119.52 91.5927 119.52 91.5927C121.623 90.4965 123.925 89.8351 126.288 89.648Z" fill="#525B61"/>
<path d="M126.59 89.1256C128.954 88.9385 126.808 95.1149 126.808 95.1149C125.028 95.2342 123.211 94.4554 121.929 93.4969C120.463 92.407 119.52 91.5927 119.52 91.5927C121.623 90.4965 124.226 89.3127 126.59 89.1256Z" fill="#525B61"/>
<path d="M133.29 90.6664C133.29 90.6664 132.465 91.5992 131.162 92.8747C130.019 93.9957 128.475 95.0777 126.664 95.1991L126.292 89.6484C128.669 89.5099 131.05 89.8562 133.29 90.6664Z" fill="#525B61"/>
<g style="mix-blend-mode:multiply" opacity="0.2">
<path d="M133.29 90.6664C133.29 90.6664 132.465 91.5992 131.162 92.8747C130.019 93.9957 128.475 95.0777 126.664 95.1991L126.292 89.6484C128.669 89.5099 131.05 89.8562 133.29 90.6664Z" fill="#525B61"/>
</g>
<g opacity="0.33">
<g style="mix-blend-mode:multiply" opacity="0.33">
<path d="M140.106 85.9141C139.989 85.9421 139.887 86.0141 139.821 86.1153C139.756 86.2165 139.732 86.3391 139.755 86.4575C139.755 86.4575 139.578 88.6692 138.445 89.521C135.784 91.5342 132.23 90.2901 126.65 89.488C126.532 89.4566 126.409 89.4503 126.288 89.4696C126.168 89.4686 126.048 89.4911 125.936 89.5358C120.517 91.0625 117.158 92.7811 114.248 91.1408C113.019 90.4471 112.537 88.299 112.539 88.2794C112.547 88.1596 112.509 88.0414 112.432 87.9491C112.353 87.858 112.242 87.8002 112.122 87.7875C111.779 87.7639 111.641 88.0641 111.65 88.3234C111.868 89.6143 112.554 90.7798 113.577 91.597C114.722 92.4863 116.675 92.697 118.803 92.3334C120.931 91.9698 123.441 91.1229 126.366 90.2753C129.381 90.7058 132.005 91.2168 134.14 91.3067C136.275 91.3965 138.209 90.914 139.221 89.8802C140.117 88.9346 140.636 87.6939 140.681 86.3916C140.62 86.1241 140.458 85.844 140.106 85.9141Z" fill="#535C62"/>
</g>
</g>
<path d="M126.312 89.0204L126.368 89.8551C123.438 90.6805 120.84 91.5534 118.751 91.9186C116.663 92.2837 114.67 92.064 113.525 91.1781C112.509 90.3611 111.828 89.1995 111.611 87.9135C111.599 87.8459 111.602 87.7764 111.621 87.7103C111.639 87.6441 111.673 87.583 111.718 87.5315C111.763 87.48 111.82 87.4393 111.883 87.4126C111.946 87.3859 112.015 87.3738 112.083 87.3772C112.204 87.3874 112.316 87.4447 112.394 87.5368C112.473 87.6288 112.512 87.7483 112.504 87.8692C112.507 87.9117 112.991 90.0415 114.212 90.7322C117.122 92.3694 120.46 90.6239 125.878 89.0805C126.019 89.0406 126.165 89.0203 126.312 89.0204Z" fill="#525B61"/>
<path d="M140.616 85.9541C140.571 87.2571 140.052 88.4986 139.156 89.4449C138.143 90.4755 136.232 90.953 134.075 90.8763C131.918 90.7997 129.383 90.298 126.366 89.8403L126.31 89.0055C126.41 88.993 126.511 89.0022 126.607 89.0322C132.182 89.8231 135.741 91.0791 138.401 89.0645C139.527 88.2127 139.714 86.0417 139.712 85.9992C139.688 85.8808 139.711 85.7578 139.778 85.657C139.843 85.5555 139.945 85.4833 140.063 85.4554C140.133 85.4452 140.205 85.4506 140.273 85.4712C140.341 85.4918 140.403 85.5272 140.456 85.5748C140.509 85.6224 140.551 85.6811 140.578 85.7466C140.606 85.8122 140.619 85.883 140.616 85.9541Z" fill="#525B61"/>
<g style="mix-blend-mode:multiply" opacity="0.2">
<path d="M140.616 85.9541C140.571 87.2571 140.052 88.4986 139.156 89.4449C138.143 90.4755 136.232 90.953 134.075 90.8763C131.918 90.7997 129.383 90.298 126.366 89.8403L126.31 89.0055C126.41 88.993 126.511 89.0022 126.607 89.0322C132.182 89.8231 135.741 91.0791 138.401 89.0645C139.527 88.2127 139.714 86.0417 139.712 85.9992C139.688 85.8808 139.711 85.7578 139.778 85.657C139.843 85.5555 139.945 85.4833 140.063 85.4554C140.133 85.4452 140.205 85.4506 140.273 85.4712C140.341 85.4918 140.403 85.5272 140.456 85.5748C140.509 85.6224 140.551 85.6811 140.578 85.7466C140.606 85.8122 140.619 85.883 140.616 85.9541Z" fill="#525B61"/>
</g>
<g opacity="0.33">
<path opacity="0.33" d="M129.005 96.143C128.459 96.3896 127.882 96.5588 127.29 96.6458L126.774 96.7113L126.259 96.7147C125.66 96.7074 125.065 96.6165 124.492 96.4447C123.894 96.2673 123.221 96.6888 123.388 97.3336C123.556 97.9783 124.517 98.7252 125.48 99.0218C126.421 99.3158 127.439 99.2478 128.333 98.831C129.247 98.409 130.085 97.5495 130.183 96.8793C130.281 96.209 129.562 95.8884 129.005 96.143Z" fill="#535C62"/>
</g>
<path d="M122.353 95.6133C123.035 95.9644 123.759 96.2251 124.507 96.3887C125.998 96.7109 127.551 96.5893 128.974 96.0388C129.689 95.7658 130.365 95.3981 130.983 94.9455C130.433 95.5003 129.784 95.9478 129.071 96.2652C127.62 96.9328 125.978 97.0607 124.442 96.626C123.69 96.4189 122.982 96.0757 122.353 95.6133Z" fill="#535C62"/>
<path d="M130.727 92.9228C129.445 92.8961 128.394 92.8269 127.529 93.11C127.211 93.212 126.881 93.2744 126.548 93.2961L126.676 95.2015C128.464 95.0817 129.955 94.015 131.099 92.9289C130.951 92.9155 130.878 92.9282 130.727 92.9228Z" fill="#D24A60"/>
<g style="mix-blend-mode:multiply" opacity="0.3">
<path d="M130.727 92.9228C129.445 92.8961 128.393 92.8269 127.528 93.11C127.21 93.212 126.881 93.2745 126.548 93.2961L126.676 95.2015C128.463 95.0817 129.955 94.015 131.099 92.9289C130.951 92.9155 130.878 92.9282 130.727 92.9228Z" fill="#D24A60"/>
</g>
<path d="M126.533 93.2972L126.661 95.2026C124.882 95.3219 123.304 94.5231 121.986 93.5399C122.123 93.5074 122.213 93.5247 122.37 93.4831C123.636 93.2857 124.669 93.0766 125.568 93.2415C125.886 93.2986 126.211 93.3173 126.533 93.2972Z" fill="#D24A60"/>
<g opacity="0.5">
<path opacity="0.5" d="M108.69 75.0085C109.658 74.9443 110.585 74.5942 111.354 74.0025C112.123 73.4108 112.699 72.6041 113.01 71.6845C113.321 70.7648 113.352 69.7735 113.1 68.836C112.848 67.8985 112.324 67.0569 111.594 66.4176C110.864 65.7783 109.961 65.37 108.999 65.2445C108.038 65.119 107.06 65.2819 106.191 65.7124C105.322 66.143 104.599 66.822 104.116 67.6635C103.632 68.505 103.408 69.4712 103.473 70.4399C103.516 71.0829 103.685 71.7111 103.97 72.2887C104.255 72.8663 104.651 73.382 105.136 73.8063C105.62 74.2306 106.183 74.5551 106.793 74.7614C107.403 74.9677 108.048 75.0517 108.69 75.0085Z" fill="#525B61"/>
</g>
<path d="M108.666 74.6531C109.564 74.5937 110.423 74.2692 111.136 73.7205C111.849 73.1719 112.384 72.4238 112.672 71.5708C112.96 70.7179 112.989 69.7985 112.755 68.9289C112.522 68.0593 112.036 67.2786 111.359 66.6855C110.682 66.0924 109.844 65.7137 108.952 65.5971C108.061 65.4805 107.154 65.6314 106.348 66.0306C105.542 66.4299 104.872 67.0595 104.424 67.84C103.976 68.6204 103.768 69.5165 103.829 70.415C103.868 71.0113 104.025 71.594 104.289 72.1298C104.554 72.6655 104.921 73.1439 105.371 73.5375C105.82 73.9311 106.342 74.2322 106.908 74.4236C107.473 74.615 108.071 74.693 108.666 74.6531Z" fill="#525B61"/>
<path d="M110.169 69.7103C110.331 69.7002 110.486 69.6422 110.615 69.5435C110.744 69.4449 110.841 69.3101 110.894 69.1563C110.946 69.0024 110.952 68.8364 110.91 68.6792C110.868 68.5221 110.781 68.3809 110.659 68.2736C110.537 68.1663 110.386 68.0976 110.225 68.0763C110.064 68.0551 109.9 68.0821 109.754 68.1541C109.609 68.226 109.488 68.3396 109.407 68.4805C109.325 68.6214 109.288 68.7832 109.299 68.9454C109.313 69.1621 109.413 69.3642 109.576 69.5076C109.739 69.6509 109.952 69.7238 110.169 69.7103Z" fill="#E6F4FD"/>
<path d="M108.717 67.8466C108.819 67.8405 108.917 67.8043 108.998 67.7426C109.079 67.6809 109.14 67.5964 109.173 67.4999C109.206 67.4034 109.21 67.2992 109.184 67.2005C109.158 67.1018 109.103 67.0131 109.027 66.9456C108.95 66.8782 108.855 66.8349 108.754 66.8215C108.653 66.808 108.55 66.8249 108.459 66.87C108.367 66.9151 108.291 66.9864 108.241 67.0748C108.19 67.1632 108.166 67.2648 108.173 67.3666C108.183 67.5019 108.246 67.6279 108.347 67.7176C108.449 67.8073 108.582 67.8536 108.717 67.8466Z" fill="#E6F4FD"/>
<path d="M112.367 62.5531C112.367 62.5531 110.047 60.7445 107.443 60.5891C104.838 60.4338 102.799 60.7374 102.022 61.4028C101.244 62.0682 101.263 62.4629 101.548 62.5991C101.832 62.7353 102.481 62.4667 102.763 62.3391C102.982 62.239 103.358 61.845 106.31 61.7985C110.222 61.7342 111.844 63.3684 112.171 63.0903C112.497 62.8122 112.367 62.5531 112.367 62.5531Z" fill="#525B61"/>
<path opacity="0.5" d="M146.33 67.5656C146.264 66.5974 145.913 65.6705 145.321 64.9021C144.729 64.1336 143.922 63.5582 143.004 63.2487C142.085 62.9391 141.095 62.9094 140.16 63.1631C139.225 63.4169 138.385 63.9428 137.749 64.6743C137.112 65.4057 136.707 66.3099 136.583 67.2724C136.46 68.2349 136.625 69.2124 137.057 70.0812C137.489 70.9501 138.168 71.6712 139.01 72.1534C139.851 72.6356 140.816 72.8571 141.783 72.79C143.078 72.7001 144.284 72.0995 145.136 71.12C145.989 70.1404 146.418 68.8621 146.33 67.5656Z" fill="#525B61"/>
<path d="M145.975 67.5896C145.914 66.6918 145.588 65.8322 145.039 65.1197C144.49 64.4071 143.742 63.8736 142.89 63.5866C142.038 63.2996 141.12 63.2721 140.253 63.5075C139.385 63.7429 138.607 64.2307 138.017 64.9091C137.426 65.5875 137.05 66.4261 136.936 67.3186C136.822 68.2112 136.975 69.1177 137.376 69.9234C137.776 70.729 138.407 71.3977 139.187 71.8447C139.967 72.2917 140.862 72.497 141.759 72.4346C142.959 72.3511 144.077 71.794 144.868 70.8856C145.658 69.9772 146.056 68.7918 145.975 67.5896Z" fill="#525B61"/>
<g style="mix-blend-mode:multiply" opacity="0.2">
<path d="M145.975 67.5896C145.914 66.6918 145.588 65.8322 145.039 65.1197C144.49 64.4071 143.742 63.8735 142.89 63.5866C142.038 63.2996 141.12 63.2721 140.253 63.5075C139.386 63.7429 138.608 64.2307 138.017 64.9091C137.427 65.5875 137.051 66.4261 136.937 67.3186C136.823 68.2112 136.976 69.1177 137.376 69.9234C137.777 70.729 138.407 71.3977 139.187 71.8447C139.968 72.2917 140.863 72.497 141.759 72.4346C142.96 72.3511 144.078 71.7939 144.868 70.8856C145.659 69.9772 146.057 68.7918 145.975 67.5896Z" fill="#525B61"/>
</g>
<path d="M140.35 66.8637C140.338 66.7026 140.279 66.5485 140.18 66.4209C140.081 66.2933 139.947 66.198 139.794 66.1468C139.641 66.0956 139.476 66.091 139.32 66.1335C139.165 66.176 139.025 66.2637 138.919 66.3855C138.813 66.5073 138.746 66.6578 138.725 66.818C138.705 66.9782 138.732 67.1409 138.804 67.2856C138.876 67.4302 138.989 67.5504 139.129 67.6309C139.268 67.7114 139.429 67.7486 139.59 67.7378C139.697 67.7306 139.802 67.7022 139.898 67.6544C139.995 67.6065 140.081 67.54 140.151 67.4588C140.222 67.3776 140.276 67.2832 140.31 67.1811C140.344 67.0789 140.357 66.9711 140.35 66.8637Z" fill="#E6F4FD"/>
<path d="M141.269 65.1357C141.262 65.034 141.225 64.9366 141.163 64.8559C141.101 64.7751 141.016 64.7146 140.92 64.682C140.823 64.6493 140.72 64.6461 140.621 64.6726C140.523 64.6991 140.435 64.7542 140.368 64.8309C140.301 64.9076 140.258 65.0025 140.245 65.1036C140.232 65.2046 140.249 65.3073 140.294 65.3987C140.339 65.49 140.41 65.5659 140.499 65.6167C140.587 65.6675 140.688 65.691 140.79 65.6842C140.926 65.6741 141.052 65.6109 141.142 65.5083C141.231 65.4056 141.277 65.2718 141.269 65.1357Z" fill="#E6F4FD"/>
<path d="M136.728 61.44C137.104 61.6671 138.477 59.836 142.367 59.3773C145.294 59.0296 145.721 59.3698 145.95 59.4398C146.251 59.5284 146.927 59.7237 147.19 59.5353C147.452 59.3469 147.434 58.9522 146.56 58.413C145.686 57.8738 143.64 57.8324 141.079 58.3302C138.518 58.8279 136.461 60.9377 136.461 60.9377C136.461 60.9377 136.352 61.2129 136.728 61.44Z" fill="#525B61"/>
<g style="mix-blend-mode:multiply" opacity="0.2">
<path d="M136.728 61.439C137.104 61.6662 138.478 59.835 142.367 59.3763C145.295 59.0287 145.721 59.3689 145.95 59.4389C146.251 59.5274 146.927 59.7227 147.19 59.5343C147.453 59.3459 147.434 58.9512 146.56 58.412C145.686 57.8728 143.64 57.8314 141.079 58.3292C138.518 58.8269 136.461 60.9368 136.461 60.9368C136.461 60.9368 136.352 61.2119 136.728 61.439Z" fill="#525B61"/>
</g>
</g>
<defs>
<clipPath id="clip0">
<rect width="244" height="299" fill="white"/>
</clipPath>
</defs>
</svg>
