<svg width="129" height="40" viewBox="0 0 129 40" fill="none" xmlns="http://www.w3.org/2000/svg">
<g filter="url(#filter0_d)">
<path d="M13.0237 22.6956C14.6495 23.5332 16.3858 23.9313 18.1894 23.6797C20.9708 23.294 23.7041 23.4149 26.3877 24.2543C27.9048 24.7283 29.3839 25.3224 30.8682 25.9314C28.3784 25.2535 25.8904 25.137 23.4656 26.0823C22.2266 26.5669 21.0964 27.3454 19.8802 27.905C18.3875 28.5926 16.8982 29.3481 15.3339 29.7886C12.8594 30.4867 8.91239 29.3755 7.09608 27.6526L10.4506 22.0292L7.00759 20.2162L10.4834 14.4287L7 12.5892L10.856 6.19531C11.004 6.25782 11.1469 6.33279 11.2833 6.41951C13.6255 8.25895 16.2754 8.79295 19.1216 8.42224C21.7032 8.08683 24.23 8.3631 26.7004 9.15749C28.1618 9.62706 29.5896 10.2167 31.0174 10.7992C28.4324 10.0737 25.8499 9.93687 23.3231 10.9387C22.1339 11.41 21.0315 12.1232 19.8894 12.7252C18.3589 13.5328 16.862 14.441 15.1224 14.6723C14.3925 14.7694 13.6533 14.7791 12.6782 14.8444C13.049 15.096 13.2285 15.2663 13.4367 15.3528C15.1055 16.0386 16.808 16.3237 18.6184 16.0801C21.3096 15.7112 23.9822 15.9036 26.5824 16.7589C28.032 17.2373 29.4581 17.7916 30.8808 18.3759C28.3936 17.7077 25.9157 17.5886 23.4791 18.5048C22.4727 18.8843 21.554 19.5022 20.5704 19.9532C18.8426 20.7423 17.1148 21.549 15.3449 22.2128C14.6377 22.4776 13.8076 22.384 13.0338 22.4529L13.0237 22.6956Z" fill="#1F60AB"/>
</g>
<path d="M59.5471 13.9493V28.8908H56.1463V16.9821C54.3764 17.0765 52.6789 17.0129 51.0362 17.298C49.2393 17.6096 48.0669 19.3802 47.9228 21.4942C47.777 23.6478 48.6737 25.4281 50.4252 26.1104C51.3523 26.4723 52.3839 26.5579 53.3102 26.7557C52.0316 27.2014 50.3603 27.2482 49.7897 29.1838C48.104 28.5545 46.7386 27.5553 45.605 25.7856V28.9314H34.4442V6.8042H37.8029V25.6409H45.4331C45.1971 24.8632 44.9004 24.1245 44.7512 23.353C43.9168 19.0607 46.2632 15.0508 50.3982 14.3729C53.3776 13.8857 56.4531 14.0675 59.5471 13.9493Z" fill="#27211F"/>
<path d="M79.9809 6.0459C81.6666 13.65 83.3522 21.2549 85.0531 28.9296H81.8132C80.8794 24.4695 79.9405 19.9821 79.0858 15.8972L72.5859 29.9455C70.36 25.0627 68.2226 20.3652 66.0851 15.6748C65.1808 20.0704 64.2672 24.5119 63.3527 28.9552H60.1423C61.8103 21.2761 63.4656 13.6464 65.1218 6.0203L65.2904 6C67.7245 11.5001 70.1628 17.0079 72.6053 22.5233L79.8081 6.03178L79.9809 6.0459Z" fill="#27211F"/>
<path d="M128.523 24.0037C127.412 27.8485 123.196 30.0684 119.285 28.9721C116.138 28.0895 113.008 24.2385 114.104 19.4766C114.862 16.1834 118.219 12.9062 122.977 13.8921C124.883 14.2806 126.568 15.4347 127.673 17.1076C128.777 18.7804 129.212 20.8393 128.885 22.8439H117.423C117.745 24.4035 118.543 25.4036 119.86 25.9182C123.532 27.2059 124.954 24.001 124.954 24.001C125.333 24.0169 128.081 24.0037 128.523 24.0037ZM125.419 20.0892C124.986 17.9911 123.26 16.6609 121.126 16.7466C119.378 16.8172 117.723 18.3177 117.487 20.0892H125.419Z" fill="#27211F"/>
<path d="M99.6063 21.5047C99.6004 25.7794 96.1288 29.3082 91.9694 29.2667C87.7966 29.2252 84.4286 25.7361 84.4379 21.4685C84.4472 17.2009 87.8455 13.7472 92.0326 13.7613C96.2198 13.7754 99.6063 17.2557 99.6063 21.5047ZM96.2578 21.5232C96.2578 18.8568 94.4196 16.7658 92.0571 16.757C89.6946 16.7481 87.7999 18.8338 87.7789 21.4668C87.757 24.1368 89.655 26.2798 92.0394 26.2772C94.4018 26.271 96.2519 24.1871 96.2552 21.5232H96.2578Z" fill="#27211F"/>
<path d="M101.317 17.5291H98.9321V14.6005H101.292V9.19336H104.411V14.559H106.686V17.4974H104.439V28.9348H101.316L101.317 17.5291Z" fill="#27211F"/>
<path d="M109.124 17.5284H106.882V14.5998H109.095V9.19531H112.22V14.5592H114.635V17.494H112.249V28.9357H109.124L109.124 17.5284Z" fill="#27211F"/>
<path d="M129 10.4488C129 11.1355 128.427 11.7313 127.757 11.741C127.429 11.741 127.114 11.6046 126.882 11.3618C126.651 11.119 126.52 10.7896 126.52 10.4462C126.52 10.1028 126.651 9.77344 126.882 9.53061C127.114 9.28779 127.429 9.15137 127.757 9.15137C128.431 9.16284 128.999 9.76215 129 10.4488ZM127.757 9.36585C127.486 9.36708 127.226 9.47944 127.033 9.67889C126.839 9.87833 126.729 10.149 126.724 10.4329C126.719 10.7169 126.82 10.9915 127.007 11.1981C127.193 11.4046 127.449 11.5266 127.72 11.538C127.991 11.5368 128.251 11.4244 128.444 11.225C128.637 11.0255 128.748 10.7549 128.753 10.4709C128.757 10.187 128.656 9.91234 128.47 9.70579C128.284 9.49925 128.028 9.37723 127.757 9.36585Z" fill="#27211F"/>
<path d="M127.267 9.9049H127.456V11.1288H127.267V9.9049ZM127.352 10.448H127.809C127.842 10.4487 127.875 10.4405 127.904 10.4241C127.931 10.4092 127.953 10.3862 127.968 10.3579C127.984 10.3272 127.991 10.2929 127.991 10.2581C127.992 10.2234 127.984 10.189 127.968 10.1583C127.954 10.1301 127.932 10.1068 127.905 10.0912C127.875 10.0752 127.842 10.0673 127.809 10.0683H127.352V9.9049H127.802C127.872 9.90331 127.942 9.91808 128.006 9.94817C128.062 9.97475 128.11 10.0181 128.143 10.0727C128.168 10.1137 128.184 10.16 128.191 10.2083C128.198 10.2566 128.195 10.3059 128.182 10.3528C128.169 10.3997 128.146 10.4431 128.116 10.4801C128.085 10.5171 128.048 10.5468 128.005 10.5672C127.941 10.5976 127.872 10.6127 127.802 10.6114H127.352V10.448ZM127.717 10.5734L127.904 10.5345L128.247 11.1288H128.024L127.717 10.5734Z" fill="#27211F"/>
<defs>
<filter id="filter0_d" x="0" y="0.195312" width="40.0174" height="39.8048" filterUnits="userSpaceOnUse" color-interpolation-filters="sRGB">
<feFlood flood-opacity="0" result="BackgroundImageFix"/>
<feColorMatrix in="SourceAlpha" type="matrix" values="0 0 0 0 0 0 0 0 0 0 0 0 0 0 0 0 0 0 127 0" result="hardAlpha"/>
<feOffset dx="1" dy="2"/>
<feGaussianBlur stdDeviation="4"/>
<feColorMatrix type="matrix" values="0 0 0 0 1 0 0 0 0 1 0 0 0 0 1 0 0 0 1 0"/>
<feBlend mode="multiply" in2="BackgroundImageFix" result="effect1_dropShadow"/>
<feBlend mode="normal" in="SourceGraphic" in2="effect1_dropShadow" result="shape"/>
</filter>
</defs>
</svg>
