<svg width="126" height="171" viewBox="0 0 126 171" fill="none" xmlns="http://www.w3.org/2000/svg">
<g clip-path="url(#clip0)">
<path d="M40.6548 175.173C39.9124 180.132 23.5037 210.015 20.8008 213.117C20.2208 213.776 19.2579 214.968 18.0921 216.45C14.3046 221.247 8.41737 228.99 7.02533 230.818L6.72951 231.212L2.22277 229.36L-7.15613 225.535C-7.15613 225.535 -7.12713 225.414 -7.06333 225.182L-6.93573 224.679C-5.85109 220.547 -0.984736 202.348 3.62061 190.647C8.22596 178.946 21.7752 160.961 25.0059 157.98C27.3956 155.776 32.9986 156.453 37.3023 157.79C42.1977 159.34 41.403 170.208 40.6548 175.173Z" fill="#4D9BE2"/>
<g style="mix-blend-mode:multiply" opacity="0.5">
<path d="M78.6695 80.797C78.8393 80.797 78.9769 80.6597 78.9769 80.4903C78.9769 80.3209 78.8393 80.1836 78.6695 80.1836C78.4997 80.1836 78.3621 80.3209 78.3621 80.4903C78.3621 80.6597 78.4997 80.797 78.6695 80.797Z" fill="#515A60"/>
</g>
<path d="M143.138 197.62C143.138 197.62 142.605 197.724 141.677 197.886L141.143 197.979C137.205 198.632 128.249 199.877 121.805 198.939C117.02 198.218 112.275 197.253 107.589 196.046C106.742 195.826 106.266 195.693 106.266 195.693C106.266 195.693 105.57 194.732 104.561 193.095C102.038 188.992 97.601 180.618 97.4038 172.465C97.1544 161.053 100.466 157.17 100.466 157.17L101.348 157.882C103.506 159.621 105.537 161.51 107.427 163.536C110.164 166.591 121.434 174.751 125.987 177.204C129.792 179.253 137.924 181.492 140.488 182.175L141.015 182.314L141.288 182.383L142.21 190.074L143.138 197.62Z" fill="#4D9BE2"/>
<g style="mix-blend-mode:multiply" opacity="0.4">
<path d="M143.138 197.62C143.138 197.62 142.605 197.724 141.677 197.886L141.143 197.979C137.205 198.632 128.249 199.877 121.805 198.939C117.02 198.218 112.275 197.253 107.589 196.046C106.742 195.826 106.266 195.693 106.266 195.693C106.266 195.693 105.57 194.732 104.561 193.095C102.038 188.992 97.601 180.618 97.4038 172.465C97.1544 161.053 100.466 157.17 100.466 157.17L101.348 157.882C103.506 159.621 105.537 161.51 107.427 163.536C110.164 166.591 121.434 174.751 125.987 177.204C129.792 179.253 137.924 181.492 140.488 182.175L141.015 182.314L141.288 182.383L142.21 190.074L143.138 197.62Z" fill="#4D9BE2"/>
</g>
<path d="M118.58 274.439C118.58 283.495 118.58 288.327 116.689 302.886C116.689 302.886 115.883 309.015 106.615 324.662C98.3145 338.672 80.1251 346.131 80.1251 346.131L75.1543 346.999C71.2974 347.578 67.411 347.941 63.5134 348.087H63.1827V111.669C63.1827 111.669 67.0689 112.311 78.037 107.578C90.5016 102.196 101.563 94.1063 105.147 83.1982C103.622 93.4929 101.487 105.853 100.478 113.289C100.269 114.788 100.113 116.084 100.014 117.12C99.1845 125.887 101.07 150.151 101.348 157.928C101.348 158.293 101.348 158.623 101.377 158.912C101.377 159.022 101.377 159.144 101.377 159.271C101.51 162.164 102.572 168.871 103.79 175.809C103.793 175.848 103.793 175.887 103.79 175.925C103.79 175.954 103.79 175.995 103.79 176.041C105.31 184.692 107.055 193.667 107.531 196.092L107.659 196.728C107.659 196.728 108.279 199.581 109.277 204.419C110.274 209.257 112.757 218.926 115.489 235.419C118.221 251.911 118.58 273.536 118.58 274.439Z" fill="#4D9BE2"/>
<path d="M93.2047 273.918C91.7573 283.491 89.7803 292.976 87.2827 302.331C85.0072 310.912 82.2339 319.354 78.9768 327.614C76.3339 334.466 73.2894 341.157 69.8589 347.653C67.1618 347.902 64.6387 348.029 63.5135 348.076H62.8523C58.9527 347.93 55.0644 347.567 51.2055 346.988L46.2347 346.12C46.2347 346.12 45.2023 348.145 43.8741 350.622C42.5458 353.098 39.3151 355.459 39.3151 355.459C38.8284 354.829 38.2405 354.283 37.5751 353.845C37.132 353.517 36.6625 353.227 36.1714 352.977C35.703 353.605 35.1746 354.186 34.5937 354.713L33.8513 355.338C33.83 354.586 33.599 353.854 33.1843 353.226L32.5637 352.526C32.5637 352.526 31.8213 353.064 30.8236 353.891C30.4726 354.204 30.0827 354.47 29.6636 354.684C29.5665 354.735 29.4632 354.774 29.3562 354.8C29.3562 354.8 29.565 354.013 28.5674 353.312C27.5697 352.612 25.9979 351.698 23.1442 348.145C20.2905 344.592 10.465 328.383 9.71675 312.637C9.53199 308.412 9.57458 304.18 9.84435 299.959L9.89655 299.125C10.001 297.517 10.1286 295.956 10.2794 294.444C10.2825 294.401 10.2825 294.359 10.2794 294.317C10.3664 293.391 10.465 292.482 10.5694 291.608C10.61 291.267 10.6506 290.926 10.6912 290.596C10.7318 290.266 10.7898 289.832 10.8362 289.438L10.871 289.172C10.9928 288.258 11.1146 287.378 11.2422 286.551C11.306 286.134 11.3698 285.729 11.4278 285.341C11.4626 285.145 11.4916 284.948 11.5264 284.763C11.5902 284.381 11.6482 284.016 11.712 283.657C11.7758 283.299 11.8338 282.946 11.8976 282.616C11.9788 282.153 12.06 281.719 12.1412 281.314C12.1818 281.129 12.2166 280.949 12.2514 280.781C12.2862 280.614 12.3094 280.509 12.3326 280.376C12.3362 280.367 12.3362 280.357 12.3326 280.347C12.3616 280.232 12.3848 280.11 12.408 280C12.5414 279.387 12.6632 278.872 12.7618 278.478C12.7618 278.403 12.8082 278.334 12.8256 278.264C12.8431 278.195 12.8952 278.004 12.93 277.9C13.0287 277.593 13.1157 277.321 13.1969 276.997C13.2781 276.673 13.3535 276.418 13.4115 276.111C13.5182 275.607 13.5957 275.097 13.6435 274.584C13.6435 274.404 13.6725 274.231 13.6783 274.051C13.6841 273.872 13.6783 273.565 13.6783 273.316C13.6783 273.068 13.6783 272.784 13.6435 272.512C13.5837 271.779 13.4693 271.052 13.3013 270.336C12.6806 267.605 8.08109 251.859 10.813 235.367C13.5449 218.875 16.0332 209.205 17.0308 204.367C18.0284 199.53 18.6432 196.677 18.6432 196.677C18.6432 196.677 24.861 165.307 24.9828 158.86C25.1046 152.414 27.2217 126.246 26.3517 117.068C26.2531 116.033 26.0965 114.754 25.8935 113.238C24.8784 105.813 22.7324 93.4411 21.2069 83.1465C24.7798 94.0719 35.8524 102.173 48.3286 107.561C59.2968 112.294 63.1829 111.652 63.1829 111.652C63.1829 111.652 66.1758 112.15 74.3308 109.06C76.8075 125.691 79.1682 143.41 82.1959 154.636C87.4161 173.981 93.3903 204.24 95.4261 228.544C96.4412 240.685 95.8148 256.633 93.2047 273.918Z" fill="#4D9BE2"/>
<g style="mix-blend-mode:multiply" opacity="0.4">
<path d="M118.58 274.439C118.58 283.495 118.58 288.327 116.689 302.887C116.689 302.887 115.883 309.015 106.614 324.662C98.3143 338.672 80.125 346.131 80.125 346.131L75.1542 346.999C73.5302 347.289 71.6451 347.503 69.8586 347.665C73.2891 341.169 76.3337 334.478 78.9765 327.625C82.2336 319.365 85.0069 310.924 87.2824 302.343C89.7804 292.984 91.7575 283.495 93.2044 273.918C95.8145 256.622 96.4409 240.673 95.4259 228.55C93.39 204.246 87.4158 173.987 82.1956 154.642C79.1679 143.416 76.8073 125.708 74.3306 109.065C75.4906 108.643 76.6971 108.145 78.0369 107.567C90.5015 102.185 101.562 94.095 105.147 83.187C103.622 93.4816 101.487 105.842 100.478 113.278C100.269 114.777 100.112 116.073 100.014 117.109C99.1844 125.876 101.069 150.14 101.348 157.917C101.348 158.282 101.348 158.612 101.377 158.901C101.377 159.011 101.377 159.132 101.377 159.26C101.51 162.153 102.572 168.86 103.79 175.798C103.792 175.837 103.792 175.875 103.79 175.914C103.79 175.943 103.79 175.983 103.79 176.03C105.309 184.681 107.055 193.656 107.531 196.081L107.658 196.717C107.658 196.717 108.279 199.57 109.277 204.408C110.274 209.246 112.757 218.915 115.489 235.408C118.081 251.032 118.482 271.245 118.516 274.132C118.58 274.283 118.58 274.393 118.58 274.439Z" fill="#4D9BE2"/>
</g>
<path d="M96.0039 228.562C93.9681 204.257 87.9939 173.998 82.7737 154.653C79.746 143.427 77.3853 125.719 74.9086 109.077C72.1216 110.199 69.2225 111.022 66.2606 111.53C66.1445 111.53 66.0343 111.565 65.9299 111.577C65.8255 111.588 65.5877 111.623 65.4311 111.635H65.3499C65.1701 111.635 65.0077 111.669 64.8627 111.675C64.4963 111.712 64.1271 111.712 63.7607 111.675C63.4732 111.702 63.1839 111.702 62.8965 111.675H62.531H62.183L61.8466 111.64L61.574 111.606C61.3033 111.571 61.0017 111.525 60.6692 111.467C58.9188 111.144 57.1937 110.697 55.507 110.13L54.579 109.823L53.5407 109.453C52.1603 108.955 50.6406 108.348 48.9006 107.607C40.8441 104.135 33.3735 99.5055 28.1359 93.7188C29.0117 98.244 36.8362 102.289 37.7816 106.45C38.4842 110.352 38.8586 114.307 38.9011 118.272C38.5241 131.414 39.5449 138.277 37.9092 151.048C36.1692 164.635 37.2074 181.573 30.398 207.967C21.6977 241.709 23.8612 263.027 28.5825 273.936C33.3039 284.844 36.3722 291.209 43.75 297.245C48.657 301.261 56.841 306.237 65.0309 306.237C71.4749 306.237 80.935 305.722 87.8547 302.331C95.2557 274.717 97.5642 247.143 96.0039 228.562ZM81.2888 290.231C81.1728 290 81.6311 289.907 82.2111 289.849C81.8341 290.376 81.4803 290.613 81.2888 290.231Z" fill="#DBF0FD"/>
<path d="M104.822 206.734C98.6045 180.173 96.6266 163.166 94.1325 149.694C92.5201 140.892 92.9725 126.489 94.5153 115.008C94.9097 112.115 95.368 109.413 95.9132 106.907C96.8354 102.729 97.9258 98.2268 98.8133 93.6899C93.5931 99.4767 86.1051 104.077 78.0486 107.578C76.7088 108.157 75.4791 108.654 74.3423 109.077C76.819 125.708 79.1797 143.427 82.2074 154.653C87.4275 173.998 93.4017 204.257 95.4376 228.562C96.9978 247.143 94.6894 274.717 87.3173 302.343C89.012 301.548 90.5764 300.503 91.9575 299.241C103.256 288.669 108.198 279.248 110.048 271.193C113.099 257.744 111.034 233.272 104.822 206.734Z" fill="#DBF0FD"/>
<g style="mix-blend-mode:multiply" opacity="0.5">
<path d="M104.822 206.734C98.6045 180.173 96.6266 163.166 94.1325 149.694C92.5201 140.892 92.9725 126.489 94.5153 115.008C94.9097 112.115 95.368 109.413 95.9132 106.907C96.8354 102.729 97.9258 98.2268 98.8133 93.6899C93.5931 99.4767 86.1051 104.077 78.0486 107.578C76.7088 108.157 75.4791 108.654 74.3423 109.077C76.819 125.708 79.1797 143.427 82.2074 154.653C87.4275 173.998 93.4017 204.257 95.4376 228.562C96.9978 247.143 94.6894 274.717 87.3173 302.343C89.012 301.548 90.5764 300.503 91.9575 299.241C103.256 288.669 108.198 279.248 110.048 271.193C113.099 257.744 111.034 233.272 104.822 206.734Z" fill="#DBF0FD"/>
</g>
<path d="M95.4259 228.562C93.3901 204.257 87.4159 173.998 82.1957 154.653C79.168 143.427 76.8073 125.719 74.3306 109.077C71.5436 110.199 68.6445 111.022 65.6826 111.53C65.5665 111.53 65.4563 111.565 65.3519 111.577C65.2475 111.588 65.0097 111.623 64.8531 111.635H64.7719C64.5921 111.635 64.4297 111.669 64.2847 111.675C63.9183 111.712 63.5491 111.712 63.1827 111.675C62.8952 111.702 62.6059 111.702 62.3185 111.675H61.953H61.605L61.2686 111.64L60.996 111.606C60.7253 111.571 60.4237 111.525 60.0912 111.467C58.3408 111.144 56.6157 110.697 54.929 110.13L54.001 109.823L52.9627 109.453C51.5823 108.955 50.0626 108.348 48.3226 107.607C40.2661 104.135 32.7955 99.5055 27.5579 93.7188C28.4337 98.244 36.2582 102.289 37.2036 106.45C37.9062 110.352 38.2806 114.307 38.3231 118.272C37.9461 131.414 38.9669 138.277 37.3312 151.048C35.5912 164.635 36.6294 181.573 29.82 207.967C21.1197 241.709 23.2832 263.027 28.0045 273.936C32.7259 284.844 35.7942 291.209 43.172 297.245C48.079 301.261 56.263 306.237 64.4529 306.237C70.8969 306.237 80.357 305.722 87.2767 302.331C94.6777 274.717 96.9862 247.143 95.4259 228.562ZM80.7108 290.231C80.5948 290 81.0531 289.907 81.6331 289.849C81.2561 290.376 80.9023 290.613 80.7108 290.231Z" fill="#DBF0FD"/>
<path d="M63.0553 99.737C62.941 99.5929 62.8062 99.4662 62.6552 99.3608L63.0553 99.737Z" fill="#2E98D5"/>
<path d="M63.0553 99.737C62.941 99.5929 62.8062 99.4662 62.6552 99.3608L63.0553 99.737Z" fill="#DBF0FD"/>
<g opacity="0.33">
<path opacity="0.33" d="M63.0553 99.737C62.941 99.5929 62.8062 99.4662 62.6552 99.3608L63.0553 99.737Z" fill="#535C62"/>
</g>
<g opacity="0.33">
<path opacity="0.33" d="M63.4439 100.316H63.0553V99.7373C63.2184 99.9055 63.35 100.101 63.4439 100.316Z" fill="#535C62"/>
</g>
<path d="M63.4497 100.345H63.0553V99.7373C63.2226 99.9197 63.3544 100.132 63.4439 100.362L63.4497 100.345Z" fill="#E6F4FD"/>
<path d="M63.0553 99.737C62.941 99.5929 62.8062 99.4662 62.6552 99.3608L63.0553 99.737Z" fill="#E6F4FD"/>
<g opacity="0.3">
<path opacity="0.3" d="M113.134 72.1687C113.006 75.7102 112.276 81.5085 111.307 88.1054C111.266 88.3601 111.232 88.6147 111.191 88.8693C107.09 101.363 94.4168 110.622 80.1715 116.79C67.6315 122.213 63.1828 121.472 63.1828 121.472C63.1828 121.472 58.7282 122.213 46.1882 116.79C31.914 110.616 19.2405 101.34 15.1514 88.8288C14.3974 83.6207 13.7652 78.945 13.4113 75.3572C13.3069 74.1536 13.2257 73.0888 13.1909 72.1687C12.7733 60.9482 11.4915 48.1653 23.4341 39.7629C35.3767 31.3606 52.435 25.4234 57.9858 24.7174C60.6829 24.3702 62.0459 24.2024 62.7826 24.104H63.5656C64.2732 24.2024 65.6595 24.3702 68.3507 24.7174C73.9015 25.435 90.9715 31.4011 102.902 39.7629C114.833 48.1248 113.569 60.9656 113.134 72.1687Z" fill="#525B61"/>
<path opacity="0.3" d="M13.887 76.9776C10.9974 75.5132 8.39599 73.5412 6.20756 71.1562C2.72744 67.279 -0.172653 63.4887 1.03959 60.5548C2.25183 57.6209 6.39896 54.9648 9.38026 52.8816C12.3616 50.7984 16.6827 49.7104 16.6827 49.7104C16.6827 49.7104 13.9798 64.5766 14.1712 69.5474C14.3626 74.5183 13.887 76.9776 13.887 76.9776Z" fill="#525B61"/>
<path opacity="0.3" d="M112.189 69.5474C112.38 64.5766 109.677 49.7104 109.677 49.7104C109.677 49.7104 113.993 50.7984 116.98 52.8816C119.967 54.9648 124.12 57.6209 125.32 60.5548C126.521 63.4887 123.661 67.279 120.152 71.1562C117.964 73.5412 115.363 75.5132 112.473 76.9776C112.473 76.9776 111.997 74.5125 112.189 69.5474Z" fill="#525B61"/>
</g>
<path d="M13.887 72.3599C10.9974 70.8955 8.39599 68.9235 6.20756 66.5385C2.72744 62.6556 -0.172653 58.8652 1.03959 55.9313C2.25183 52.9975 6.39896 50.3471 9.38026 48.2639C12.3616 46.1807 16.6827 45.0928 16.6827 45.0928C16.6827 45.0928 13.9798 59.9589 14.1712 64.924C14.3626 69.889 13.887 72.3599 13.887 72.3599Z" fill="#4D9BE2"/>
<path d="M13.887 55.9311C13.887 55.9311 10.6737 54.9879 8.7248 55.1268C6.77593 55.2656 6.06251 56.0758 6.11471 57.6382C6.15131 59.3753 6.78625 61.0468 7.91277 62.3718C9.24102 64.0268 10.9869 65.4908 12.0367 65.5429C13.0865 65.595 13.887 64.1714 13.887 64.1714V55.9311Z" fill="#DBF0FD"/>
<g opacity="0.18">
<path opacity="0.18" d="M6.33521 56.3651C9.38611 56.4924 10.0763 57.7887 10.8652 59.3395C11.5264 60.6473 11.7178 64.1599 11.7642 65.5082C11.8429 65.5347 11.9248 65.5503 12.0078 65.5545C13.0518 65.6065 13.8581 64.183 13.8581 64.183V55.9311C13.8581 55.9311 10.6447 54.9879 8.69588 55.1268C7.41404 55.2078 6.67742 55.6186 6.33521 56.3651Z" fill="#535C62"/>
</g>
<path opacity="0.16" d="M0.888794 56.3653C3.1585 55.7104 5.49179 55.2991 7.84902 55.1385C9.63743 55.0746 11.4251 55.2834 13.1504 55.7577L15.1283 52.5345L15.9055 49.7105C16.3463 47.0313 16.6943 45.1274 16.6943 45.1274C16.6943 45.1274 12.379 46.2096 9.39187 48.2928C6.40478 50.376 2.24024 53.0264 1.0454 55.9602C0.975799 56.0933 0.923595 56.2264 0.888794 56.3653Z" fill="#525B61"/>
<path d="M112.189 64.924C112.38 59.9589 109.677 45.0928 109.677 45.0928C109.677 45.0928 113.993 46.1749 116.98 48.2639C119.967 50.3529 124.12 52.9975 125.32 55.9314C126.521 58.8652 123.661 62.6556 120.152 66.5385C117.964 68.9235 115.363 70.8955 112.473 72.3599C112.473 72.3599 111.997 69.8948 112.189 64.924Z" fill="#4D9BE2"/>
<g style="mix-blend-mode:multiply" opacity="0.4">
<path d="M112.189 64.924C112.38 59.9589 109.677 45.0928 109.677 45.0928C109.677 45.0928 113.993 46.1749 116.98 48.2639C119.967 50.3529 124.12 52.9975 125.32 55.9313C126.521 58.8652 123.661 62.6556 120.152 66.5385C117.964 68.9235 115.363 70.8955 112.473 72.3599C112.473 72.3599 111.997 69.8948 112.189 64.924Z" fill="#4D9BE2"/>
</g>
<path d="M112.473 64.1715C112.473 64.1715 113.279 65.5951 114.323 65.543C115.367 65.4909 117.119 64.0268 118.447 62.3718C119.574 61.0469 120.208 59.3753 120.245 57.6383C120.297 56.0758 119.59 55.2715 117.641 55.1268C115.692 54.9822 112.473 55.9312 112.473 55.9312V64.1715Z" fill="#DBF0FD"/>
<g style="mix-blend-mode:multiply" opacity="0.18">
<path d="M117.635 55.1268C115.686 54.9879 112.473 55.9311 112.473 55.9311V64.183C112.473 64.183 113.279 65.6065 114.323 65.5545H114.352C114.435 65.5503 114.517 65.5347 114.596 65.5082C114.642 64.1599 114.833 60.6473 115.495 59.3395C116.284 57.7887 116.974 56.4924 120.025 56.3651C119.688 55.6186 118.946 55.2078 117.635 55.1268Z" fill="#525B61"/>
</g>
<path opacity="0.16" d="M125.332 55.9602C124.137 53.0264 119.967 50.3702 116.986 48.2928C114.004 46.2154 109.683 45.1274 109.683 45.1274C109.683 45.1274 110.031 47.0313 110.472 49.7105L111.249 52.5345L113.227 55.7577C114.952 55.2834 116.74 55.0746 118.528 55.1385C120.886 55.2991 123.219 55.7104 125.489 56.3653C125.431 56.2264 125.384 56.0933 125.332 55.9602Z" fill="#525B61"/>
<path d="M63.1682 20.7881L63.0553 118.156H62.8348C62.6782 118.156 62.4346 118.156 62.0982 118.156H61.8952L61.5124 118.127H61.4486C59.2097 117.942 54.4478 117.062 46.0607 113.457C36.8326 109.47 28.2657 104.198 22.2799 97.5552L21.9551 97.1906C20.8951 95.9975 19.911 94.7393 19.0086 93.4235C18.8984 93.2672 18.794 93.1052 18.6896 92.9489C18.0282 91.9548 17.4221 90.9251 16.8741 89.8646C16.5203 89.1702 16.1955 88.47 15.8939 87.7582C15.6561 87.1796 15.4357 86.6009 15.2385 86.0511C15.1121 85.6888 15.0227 85.3146 14.9717 84.9343C14.4264 81.2134 13.9566 77.7472 13.6202 74.7901C13.51 73.8122 13.4114 72.8863 13.336 72.0298C13.2316 70.8378 13.1504 69.7672 13.1156 68.8413C12.6922 57.6266 11.4161 44.8437 23.3587 36.4645C35.3013 28.0853 52.3597 22.1249 57.9105 21.4189L62.481 20.8403C62.6298 20.8314 62.7779 20.7793 62.9266 20.7881H63.1682Z" fill="#4D9BE2"/>
<path d="M113.007 68.8299C112.972 69.7558 112.891 70.8264 112.786 72.0184C112.711 72.8749 112.612 73.8008 112.502 74.7787C112.165 77.7473 111.707 81.2194 111.127 84.9229C111.076 85.3032 110.987 85.6774 110.86 86.0397C110.663 86.6184 110.443 87.1971 110.205 87.7468C109.903 88.4586 109.579 89.1588 109.225 89.8532C108.679 90.9118 108.075 91.9395 107.415 92.9318C107.293 93.1169 107.172 93.3021 107.044 93.4815C106.137 94.7937 105.149 96.048 104.086 97.2371C98.0768 104.002 89.3998 109.389 80.0267 113.44C73.9307 116.061 69.7487 117.242 67.0574 117.763C66.6398 117.844 66.257 117.907 65.8974 117.959C65.5378 118.012 65.0796 118.069 64.7374 118.098L64.3603 118.127H64.2733H64.0703H63.8847C63.5483 118.127 63.3047 118.127 63.1481 118.127H63.0089V20.7884H63.1481C63.2969 20.7795 63.446 20.7795 63.5947 20.7884L68.1653 21.367C73.7102 22.0788 90.786 28.0391 102.717 36.4126C114.648 44.786 113.447 57.6152 113.007 68.8299Z" fill="#4D9BE2"/>
<path d="M63.0552 20.7885V118.156H62.8348C62.6782 118.156 62.4346 118.156 62.0982 118.156H61.8952L61.5124 118.127H61.4486C59.2097 117.942 54.4478 117.063 46.0607 113.458C36.8326 109.47 28.2657 104.199 22.2799 97.5555L21.9551 97.191C20.8951 95.9978 19.911 94.7396 19.0086 93.4238C18.8984 93.2675 18.794 93.1055 18.6896 92.9493C18.0282 91.9552 17.4221 90.9255 16.8741 89.8649C16.5203 89.1705 16.1955 88.4703 15.8939 87.7586C15.6561 87.1799 15.4357 86.6012 15.2385 86.0515C15.1121 85.6891 15.0227 85.3149 14.9717 84.9346C14.4264 81.2137 13.9566 77.7475 13.6202 74.7905C13.51 73.8125 13.4114 72.8866 13.336 72.0302C13.2316 70.8381 13.1504 69.7676 13.1156 68.8417C12.6922 57.627 11.4161 44.844 23.3587 36.4648C35.3013 28.0856 52.3597 22.1253 57.9105 21.4193L62.481 20.8406C62.6298 20.8318 62.7721 20.7798 62.9209 20.7886L63.0552 20.7885Z" fill="#4D9BE2"/>
<g style="mix-blend-mode:multiply" opacity="0.4">
<path d="M113.007 68.8299C112.972 69.7558 112.891 70.8264 112.786 72.0184C112.711 72.8749 112.612 73.8008 112.502 74.7787C112.166 77.7473 111.707 81.2194 111.127 84.9229C111.076 85.3032 110.987 85.6774 110.86 86.0397C110.663 86.6184 110.443 87.1971 110.205 87.7468C109.903 88.4586 109.579 89.1588 109.225 89.8532C108.679 90.9118 108.075 91.9395 107.415 92.9318C107.293 93.1169 107.172 93.3021 107.044 93.4815C106.137 94.7937 105.149 96.048 104.086 97.2371C98.0768 104.002 89.3998 109.389 80.0267 113.44C73.9307 116.061 69.7487 117.242 67.0574 117.763C66.6398 117.844 66.257 117.907 65.8974 117.959C65.5378 118.012 65.0796 118.069 64.7374 118.098L64.3603 118.127H64.2733H64.0703H63.8847C63.5483 118.127 63.3047 118.127 63.1481 118.127H63.0089V20.7884H63.1481C63.2969 20.7795 63.446 20.7795 63.5947 20.7884L68.1653 21.367C73.7103 22.0788 90.786 28.0391 102.717 36.4126C114.648 44.786 113.447 57.6152 113.007 68.8299Z" fill="#4D9BE2"/>
</g>
<path d="M63.0611 71.538L63.8669 118.03L62.8349 118.156C62.6783 118.156 62.4347 118.156 62.0983 118.156H61.8952L61.5124 118.127H61.4486C59.2098 117.942 54.4478 117.062 46.0607 113.457C36.8326 109.47 28.2658 104.198 22.28 97.5553L21.9552 97.1907C20.8951 95.9976 19.9111 94.7394 19.0087 93.4235C22.7208 86.6762 29.2576 81.3524 36.7688 77.5447C51.5767 70.0219 62.7421 71.5033 63.0669 71.5496L63.0611 71.538Z" fill="#DBF0FD"/>
<path d="M107.067 93.4815C106.16 94.7938 105.173 96.0481 104.109 97.2371C98.0999 104.002 89.4229 109.389 80.0498 113.44C73.9538 116.061 69.7718 117.242 67.0805 117.763C66.6629 117.844 66.2801 117.907 65.9205 117.959C65.5609 118.012 65.1085 118.064 64.7605 118.098L64.3834 118.127H64.2964H64.0934H63.9078C63.5714 118.127 63.3278 118.127 63.1712 118.127H62.9856V71.5382H63.0726C64.1282 71.4109 75.021 70.3114 89.2894 77.5448C96.8065 81.3525 103.366 86.6995 107.067 93.4815Z" fill="#CCE9FC"/>
<g opacity="0.5">
<path opacity="0.5" d="M76.906 86.9598C77.026 86.9598 77.1411 86.9123 77.2259 86.8276C77.3108 86.743 77.3584 86.6282 77.3584 86.5085C77.3584 86.3888 77.3108 86.274 77.2259 86.1893C77.1411 86.1047 77.026 86.0571 76.906 86.0571C76.786 86.0571 76.671 86.1047 76.5861 86.1893C76.5013 86.274 76.4536 86.3888 76.4536 86.5085C76.4536 86.6282 76.5013 86.743 76.5861 86.8276C76.671 86.9123 76.786 86.9598 76.906 86.9598Z" fill="#525B61"/>
</g>
<g opacity="0.5">
<path opacity="0.5" d="M79.0987 85.0384C79.1806 85.0396 79.261 85.0163 79.3297 84.9716C79.3983 84.9269 79.4519 84.8628 79.4838 84.7875C79.5157 84.7122 79.5244 84.6291 79.5087 84.5489C79.4929 84.4687 79.4536 84.3949 79.3957 84.3371C79.3377 84.2793 79.2638 84.2401 79.1834 84.2244C79.103 84.2087 79.0197 84.2174 78.9442 84.2492C78.8687 84.281 78.8045 84.3345 78.7597 84.403C78.7149 84.4714 78.6915 84.5516 78.6927 84.6334C78.6927 84.7408 78.7355 84.8438 78.8116 84.9198C78.8877 84.9958 78.991 85.0384 79.0987 85.0384Z" fill="#525B61"/>
</g>
<g opacity="0.5">
<path opacity="0.5" d="M79.2261 81.283C79.3009 81.2842 79.3743 81.2631 79.4371 81.2225C79.4998 81.1818 79.549 81.1235 79.5785 81.0549C79.6079 80.9862 79.6162 80.9104 79.6023 80.8371C79.5884 80.7638 79.553 80.6962 79.5005 80.643C79.448 80.5898 79.3809 80.5534 79.3076 80.5384C79.2343 80.5234 79.1582 80.5305 79.089 80.5588C79.0197 80.5871 78.9605 80.6353 78.9188 80.6973C78.8771 80.7593 78.8549 80.8322 78.8549 80.9069C78.8548 81.0056 78.8938 81.1004 78.9632 81.1708C79.0327 81.2412 79.1271 81.2815 79.2261 81.283Z" fill="#525B61"/>
</g>
<g opacity="0.5">
<path opacity="0.5" d="M80.769 82.8221C80.869 82.8221 80.9649 82.7825 81.0356 82.7119C81.1063 82.6414 81.146 82.5457 81.146 82.446C81.146 82.3462 81.1063 82.2505 81.0356 82.18C80.9649 82.1095 80.869 82.0698 80.769 82.0698C80.669 82.0698 80.5731 82.1095 80.5024 82.18C80.4317 82.2505 80.392 82.3462 80.392 82.446C80.392 82.5457 80.4317 82.6414 80.5024 82.7119C80.5731 82.7825 80.669 82.8221 80.769 82.8221Z" fill="#525B61"/>
</g>
<g opacity="0.5">
<path opacity="0.5" d="M49.4306 86.9598C49.52 86.9598 49.6075 86.9334 49.6819 86.8838C49.7563 86.8342 49.8143 86.7637 49.8485 86.6812C49.8828 86.5987 49.8917 86.508 49.8743 86.4204C49.8568 86.3329 49.8137 86.2525 49.7505 86.1893C49.6872 86.1262 49.6066 86.0832 49.5188 86.0658C49.4311 86.0484 49.3401 86.0573 49.2574 86.0915C49.1748 86.1256 49.1041 86.1835 49.0544 86.2577C49.0047 86.3319 48.9781 86.4192 48.9781 86.5085C48.9781 86.6282 49.0258 86.743 49.1107 86.8276C49.1955 86.9123 49.3106 86.9598 49.4306 86.9598Z" fill="#525B61"/>
</g>
<g opacity="0.5">
<path opacity="0.5" d="M47.2091 85.0385C47.2908 85.0385 47.3706 85.0142 47.4385 84.9688C47.5063 84.9234 47.5591 84.8589 47.5901 84.7835C47.6211 84.7081 47.6289 84.6252 47.6125 84.5453C47.5962 84.4655 47.5564 84.3923 47.4982 84.3351C47.44 84.2779 47.3661 84.2392 47.2858 84.224C47.2056 84.2088 47.1226 84.2178 47.0474 84.2498C46.9723 84.2817 46.9084 84.3353 46.8639 84.4036C46.8193 84.4719 46.7961 84.5519 46.7973 84.6334C46.7973 84.6871 46.808 84.7403 46.8287 84.7898C46.8495 84.8393 46.8799 84.8842 46.9182 84.9219C46.9566 84.9596 47.002 84.9893 47.0519 85.0093C47.1019 85.0294 47.1553 85.0393 47.2091 85.0385Z" fill="#525B61"/>
</g>
<g opacity="0.5">
<path opacity="0.5" d="M47.0873 81.2831C47.1619 81.2831 47.2348 81.261 47.2968 81.2197C47.3588 81.1783 47.4071 81.1196 47.4357 81.0509C47.4642 80.9821 47.4717 80.9065 47.4571 80.8335C47.4426 80.7606 47.4067 80.6935 47.3539 80.6409C47.3012 80.5883 47.234 80.5525 47.1609 80.538C47.0878 80.5235 47.0119 80.5309 46.9431 80.5594C46.8742 80.5879 46.8153 80.6361 46.7739 80.6979C46.7324 80.7598 46.7103 80.8325 46.7103 80.9069C46.7103 81.0067 46.75 81.1023 46.8207 81.1729C46.8914 81.2434 46.9873 81.2831 47.0873 81.2831Z" fill="#525B61"/>
</g>
<g opacity="0.5">
<path opacity="0.5" d="M45.5503 82.8221C45.6249 82.8221 45.6978 82.8001 45.7598 82.7587C45.8218 82.7174 45.8701 82.6586 45.8987 82.5899C45.9272 82.5212 45.9347 82.4456 45.9201 82.3726C45.9056 82.2996 45.8697 82.2326 45.8169 82.18C45.7642 82.1274 45.697 82.0916 45.6239 82.077C45.5508 82.0625 45.475 82.07 45.4061 82.0985C45.3372 82.1269 45.2783 82.1751 45.2369 82.237C45.1954 82.2989 45.1733 82.3716 45.1733 82.446C45.1733 82.5457 45.2131 82.6414 45.2838 82.7119C45.3545 82.7825 45.4504 82.8221 45.5503 82.8221Z" fill="#525B61"/>
</g>
<path d="M47.2439 84.8245C45.292 84.785 43.3396 84.8642 41.3973 85.0617C39.4717 85.2585 37.5402 85.5363 35.5971 85.895C31.7615 86.6366 28.004 87.7351 24.3738 89.1761C22.5683 89.9066 20.8008 90.7274 19.0782 91.6355C18.6374 91.8554 18.2198 92.11 17.7906 92.3415C17.3614 92.5729 16.9321 92.8218 16.5203 93.0822L15.2675 93.8055L14.0669 94.6504C13.6608 94.9166 13.2606 95.229 12.8662 95.501C12.4718 95.773 12.0658 96.0797 11.7062 96.3806C10.9405 97.0114 10.1517 97.5958 9.4267 98.2729C7.93243 99.5834 6.51667 100.98 5.18677 102.457C6.50338 100.967 7.90962 99.5578 9.3977 98.2382C10.1169 97.5553 10.9058 96.9593 11.6656 96.3285C12.0484 96.0218 12.4544 95.7499 12.8256 95.4374C13.1968 95.1249 13.6144 94.8587 14.0204 94.5694L15.2443 93.7419L16.4913 92.9606C16.9089 92.6944 17.3382 92.4514 17.7616 92.2084C18.185 91.9653 18.6084 91.7107 19.0434 91.4908C20.7719 90.5726 22.5429 89.7394 24.3564 88.9909C27.9852 87.5221 31.745 86.3983 35.5856 85.6346C37.4996 85.2527 39.4369 84.9634 41.3857 84.7608C43.3401 84.5411 45.3063 84.4425 47.2729 84.4657C47.3079 84.4835 47.3363 84.5118 47.3541 84.5467C47.3724 84.5826 47.3824 84.6222 47.3831 84.6625C47.3889 84.6793 47.3889 84.6976 47.3831 84.7145C47.3873 84.7316 47.3873 84.7495 47.3831 84.7666C47.3705 84.7831 47.3547 84.7968 47.3367 84.8071C47.3086 84.8231 47.2759 84.8292 47.2439 84.8245Z" fill="#525B61"/>
<path d="M47.0352 81.0113C45.8478 80.0387 44.5226 79.2469 43.1027 78.6618C42.9287 78.5866 42.7547 78.4998 42.5807 78.4304L42.047 78.2336L40.974 77.8343C40.249 77.626 39.524 77.3888 38.7873 77.2094C38.0507 77.03 37.3199 76.8737 36.5717 76.7406L34.3386 76.4224C32.846 76.2796 31.3515 76.2082 29.855 76.2082H28.1846L27.6046 76.2488L25.3715 76.405C24.6244 76.4454 23.8805 76.5324 23.1442 76.6654L20.9286 76.9663C19.4669 77.2614 17.9995 77.545 16.5436 77.8575L12.2167 79.0148L16.532 77.8575C17.9821 77.5276 19.4321 77.2325 20.9112 76.92L23.1268 76.596C23.8692 76.5034 24.6001 76.3529 25.3541 76.3124L27.593 76.1388L28.173 76.0925H29.913C31.4152 76.0734 32.9174 76.1294 34.414 76.2603L36.6645 76.5612C37.4127 76.6828 38.1609 76.8622 38.8975 77.0068C39.6342 77.1515 40.3766 77.4119 41.1074 77.6144L42.1978 78.0079L42.7373 78.2047C42.9171 78.2741 43.0911 78.3609 43.2709 78.4362C44.736 79.0191 46.1047 79.819 47.331 80.8087C47.331 80.8087 47.4006 80.8839 47.2962 81.0055C47.297 81.04 47.284 81.0734 47.26 81.0984C47.2361 81.1233 47.2032 81.1378 47.1686 81.1386C47.134 81.1393 47.1005 81.1264 47.0755 81.1025C47.0504 81.0786 47.036 81.0458 47.0352 81.0113Z" fill="#525B61"/>
<path d="M49.506 86.6765C46.9302 87.3093 44.4089 88.1453 41.9658 89.1764C39.4993 90.1999 37.1143 91.409 34.8315 92.7931C33.6715 93.4933 32.5695 94.2282 31.4964 95.0326C30.407 95.8244 29.3596 96.6724 28.3585 97.573C26.3291 99.3896 24.5083 101.425 22.9296 103.643C24.4851 101.404 26.2866 99.3442 28.3005 97.5035C29.2969 96.5991 30.3384 95.7454 31.421 94.9458C32.4883 94.1356 33.6077 93.3776 34.7387 92.6311C37.0132 91.2145 39.3923 89.9725 41.8556 88.916C44.3045 87.8451 46.8357 86.9723 49.4248 86.3062C49.4248 86.3062 49.5292 86.3062 49.5756 86.4566C49.5944 86.4952 49.5976 86.5395 49.5847 86.5804C49.5717 86.6213 49.5436 86.6557 49.506 86.6765Z" fill="#525B61"/>
<path d="M45.5212 82.6139C44.0011 82.3769 42.4659 82.2493 40.9275 82.232C39.3953 82.1924 37.862 82.231 36.3337 82.3477C33.2758 82.5724 30.2359 82.9957 27.2332 83.615L24.9944 84.1127C24.2403 84.269 23.5095 84.4946 22.7671 84.6914C21.2822 85.056 19.8322 85.5363 18.3647 85.9934C17.6339 86.2075 16.9147 86.4795 16.1897 86.7399L14.0262 87.5211L9.77466 89.2571C11.1841 88.6785 12.5936 88.0535 14.0146 87.4806L16.1665 86.6762C16.8857 86.4043 17.6049 86.1265 18.3357 85.9066C19.7974 85.4321 21.2358 84.9402 22.7323 84.5583C23.4747 84.3615 24.2055 84.1301 24.9538 83.9796L27.1926 83.4588C30.1966 82.8041 33.2406 82.3479 36.3047 82.0931C37.8418 81.9832 39.3788 81.908 40.9449 81.9369C42.4979 81.9371 44.0488 82.0512 45.585 82.2783C45.585 82.2783 45.6836 82.313 45.6778 82.4751C45.672 82.6371 45.5212 82.6139 45.5212 82.6139Z" fill="#525B61"/>
<path d="M79.1507 84.8248C81.1026 84.7852 83.0551 84.8645 84.9973 85.062C86.9307 85.2588 88.8641 85.5365 90.7975 85.8953C94.6258 86.6361 98.3757 87.7347 101.998 89.1764C103.813 89.9044 105.59 90.7233 107.322 91.63C107.751 91.8499 108.175 92.1045 108.604 92.336C109.033 92.5674 109.463 92.8163 109.874 93.0767L111.127 93.8463L112.351 94.668C112.763 94.9342 113.163 95.2467 113.557 95.5187C113.952 95.7907 114.352 96.0973 114.718 96.3983C115.483 97.029 116.266 97.6135 116.997 98.2905C118.493 99.5995 119.909 100.997 121.237 102.474C119.919 100.986 118.513 99.577 117.026 98.2558C116.301 97.573 115.518 96.9769 114.758 96.3462C114.37 96.0395 113.969 95.7675 113.598 95.455C113.227 95.1425 112.803 94.8763 112.392 94.587L111.174 93.7595L109.921 92.9783C109.515 92.7121 109.086 92.4691 108.656 92.226C108.227 91.983 107.809 91.7284 107.374 91.5085C105.646 90.5832 103.871 89.7488 102.056 89.0086C98.4308 87.5398 94.6749 86.416 90.8381 85.6523C88.9067 85.2703 86.981 84.9752 85.0379 84.7785C83.0816 84.5585 81.1135 84.4599 79.1449 84.4833C79.1128 84.5029 79.0867 84.5309 79.0695 84.5644C79.0579 84.6021 79.0579 84.6424 79.0695 84.6801C79.0617 84.6947 79.0577 84.711 79.0579 84.7275C79.058 84.744 79.0623 84.7602 79.0704 84.7746C79.0785 84.789 79.0901 84.8012 79.1042 84.8099C79.1182 84.8187 79.1342 84.8238 79.1507 84.8248Z" fill="#525B61"/>
<path d="M79.3306 81.0108C80.5197 80.0407 81.8445 79.2492 83.2631 78.6614C83.4429 78.5862 83.6111 78.4994 83.7909 78.4299L84.3246 78.2332L85.3918 77.8339C86.1226 77.6256 86.8476 77.3883 87.5784 77.2089C88.3093 77.0295 89.0575 76.8733 89.7941 76.7402L92.0272 76.4219C93.5178 76.2772 95.0201 76.2078 96.5165 76.2078H98.2044L98.7844 76.2483L101.023 76.4045C101.768 76.4456 102.51 76.5326 103.245 76.665L105.466 76.9659C106.922 77.261 108.366 77.5445 109.845 77.857L114.172 79.0144L109.857 77.857C108.401 77.5272 106.957 77.2321 105.484 76.9196L103.262 76.5955C102.52 76.5029 101.783 76.3525 101.041 76.312L98.796 76.1384L98.216 76.0921H96.5165C95.0105 76.0728 93.5044 76.1288 92.004 76.2599L89.7535 76.5608C89.0111 76.6823 88.2687 76.8617 87.5204 77.0064C86.7722 77.151 86.0472 77.4114 85.3164 77.614L84.2317 78.0075L83.6865 78.2042C83.5067 78.2737 83.3269 78.3605 83.1587 78.4357C81.6929 79.0173 80.324 79.8173 79.0986 80.8083C79.0778 80.8369 79.0667 80.8713 79.0667 80.9067C79.0667 80.942 79.0778 80.9764 79.0986 81.005C79.174 81.1265 79.3306 81.0108 79.3306 81.0108Z" fill="#525B61"/>
<path d="M76.9061 86.6761C79.4816 87.3098 82.0029 88.1457 84.4463 89.176C86.9087 90.2004 89.2897 91.4094 91.569 92.7927C92.729 93.4929 93.8252 94.2278 94.9099 95.0322C95.9942 95.8259 97.0376 96.6738 98.0362 97.5726C100.07 99.3861 101.893 101.422 103.471 103.643C101.913 101.403 100.11 99.3436 98.0942 97.5031C97.1021 96.5894 96.0644 95.7261 94.9853 94.9165C93.9064 94.1063 92.7986 93.3482 91.656 92.6018C89.3829 91.1863 87.0058 89.9444 84.5449 88.8867C82.096 87.8157 79.5648 86.943 76.9757 86.2769C76.9757 86.2769 76.8713 86.2769 76.8249 86.4273C76.8078 86.4718 76.8066 86.5208 76.8214 86.566C76.8362 86.6113 76.8661 86.6502 76.9061 86.6761Z" fill="#525B61"/>
<path d="M80.8792 82.614C82.3954 82.3769 83.9267 82.2493 85.4613 82.2321C87.009 82.1923 88.5577 82.231 90.1015 82.3478C93.1574 82.5729 96.1954 82.9962 99.1962 83.6151L101.441 84.1128C102.183 84.269 102.92 84.4947 103.657 84.6915C105.147 85.056 106.603 85.5363 108.065 85.9935C108.801 86.2076 109.521 86.4796 110.234 86.74L112.397 87.5212L116.655 89.2572C115.245 88.6785 113.836 88.0536 112.415 87.4807L110.257 86.6763C109.544 86.4043 108.825 86.1266 108.088 85.9067C106.632 85.4322 105.188 84.9403 103.691 84.5584C102.955 84.3616 102.224 84.1301 101.476 83.9797L99.2368 83.4589C96.2326 82.8066 93.1887 82.3523 90.1247 82.099C88.5934 81.989 87.0564 81.9138 85.4845 81.9428C83.9315 81.9427 82.3806 82.0568 80.8444 82.2842C80.8444 82.2842 80.7516 82.3189 80.7516 82.4809C80.7516 82.6429 80.8792 82.614 80.8792 82.614Z" fill="#525B61"/>
<g opacity="0.33">
<path opacity="0.33" d="M73.9654 71.5381C72.5791 70.6527 69.5398 68.9456 66.6571 68.6447C65.0795 68.4653 64.0471 68.3727 63.4265 68.3206V68.2686H62.6898V68.3206C62.0692 68.3727 61.031 68.4653 59.4591 68.6447C56.559 68.963 53.5371 70.6701 52.1509 71.5381C51.46 71.9612 50.9452 72.6187 50.7009 73.3898C50.4579 74.1594 50.497 74.99 50.8111 75.7335C51.4665 77.3943 55.921 81.5202 57.7713 82.4982C59.2793 83.2794 62.0518 83.2157 63.0436 83.1637C64.0471 83.2157 66.8196 83.2794 68.3218 82.4982C70.1837 81.5376 74.6382 77.3943 75.282 75.7335C75.5988 75.0015 75.644 74.181 75.4096 73.4188C75.1705 72.639 74.6578 71.9713 73.9654 71.5381Z" fill="#535C62"/>
</g>
<path d="M59.1227 71.6074C59.7737 72.0026 60.4909 72.2771 61.2398 72.4175C61.8393 72.5282 62.6798 72.5209 63.289 72.5451V82.0451C62.274 82.0972 59.2097 82.3244 57.6669 81.549C55.7702 80.5884 51.2171 76.4393 50.5501 74.7843C50.2286 74.039 50.1896 73.2025 50.4403 72.4307C50.6911 71.6589 51.2145 71.0043 51.9131 70.5889C53.3342 69.7035 56.4373 67.9964 59.378 67.6955C60.9846 67.5219 62.0461 67.4293 62.6841 67.3772L63.289 67.3633V68.5148C63.289 68.5148 60.0392 68.633 58.7515 69.5994C57.4639 70.5657 59.1227 71.6074 59.1227 71.6074Z" fill="#525B61"/>
<path d="M59.1227 71.6075C59.7737 72.0027 60.4909 72.2772 61.2398 72.4176C61.8393 72.5283 62.446 72.596 63.0553 72.6201V82.2088C62.0402 82.2609 59.2097 82.3245 57.6669 81.5491C55.7702 80.5885 51.2171 76.4394 50.5501 74.7844C50.2286 74.0391 50.1896 73.2026 50.4403 72.4308C50.6911 71.659 51.2145 71.0044 51.9131 70.589C53.3342 69.7036 56.4373 67.9965 59.378 67.6956C60.9846 67.522 62.0461 67.4294 62.6841 67.3773L63.0553 67.3311V68.5347C63.0553 68.5347 60.0392 68.6331 58.7515 69.5995C57.4639 70.5658 59.1227 71.6075 59.1227 71.6075Z" fill="#525B61"/>
<path d="M75.5663 74.7844C74.8993 76.4394 70.3461 80.5711 68.4495 81.5491C66.9066 82.3245 64.0761 82.2609 63.0553 82.2088V72.6201C62.446 72.596 61.8393 72.5283 61.2398 72.4176C60.4909 72.2772 59.7737 72.0027 59.1227 71.6075C59.1227 71.6075 57.4465 70.5716 58.7457 69.5937C60.045 68.6157 63.0495 68.5289 63.0495 68.5289V67.3311L63.4323 67.3831C64.0645 67.4352 65.1201 67.5278 66.7326 67.7014C69.6733 68.0255 72.7822 69.7326 74.1974 70.5948C74.8994 71.0085 75.4257 71.6637 75.6778 72.4372C75.9298 73.2108 75.8902 74.0495 75.5663 74.796V74.7844Z" fill="#525B61"/>
<g opacity="0.4">
<path d="M75.5663 74.8541C74.8993 76.5092 70.3461 80.6409 68.4495 81.6189C66.9066 82.3943 64.0761 82.3306 63.0553 82.2785V72.6841C62.446 72.6647 61.8391 72.5989 61.2398 72.4874C60.4909 72.3469 59.7737 72.0725 59.1227 71.6772C59.1227 71.6772 57.4465 70.6414 58.7457 69.6634C60.045 68.6855 63.0495 68.5987 63.0495 68.5987V67.395H63.4323V67.4471C64.0645 67.4992 65.1201 67.5918 66.7326 67.7654C69.6733 68.0894 72.7822 69.7965 74.1974 70.6587C74.8925 71.0717 75.4141 71.7218 75.6658 72.4889C75.9174 73.2559 75.8821 74.0879 75.5663 74.831V74.8541Z" fill="#525B61"/>
<g style="mix-blend-mode:multiply" opacity="0.2">
<path d="M75.5663 74.8541C74.8993 76.5091 70.3461 80.6409 68.4495 81.6188C66.9066 82.3943 64.0761 82.3306 63.0553 82.2785V72.6841C62.446 72.6647 61.8391 72.5989 61.2398 72.4874C60.4909 72.3469 59.7737 72.0724 59.1227 71.6772C59.1227 71.6772 57.4465 70.6414 58.7457 69.6634C60.045 68.6855 63.0495 68.5987 63.0495 68.5987V67.395L63.4323 67.4471C64.0645 67.4992 65.1201 67.5918 66.7326 67.7654C69.6733 68.0894 72.7822 69.7965 74.1974 70.6587C74.8925 71.0717 75.4141 71.7218 75.6658 72.4889C75.9174 73.2559 75.8821 74.0879 75.5663 74.831V74.8541Z" fill="#525B61"/>
</g>
</g>
<path d="M68.0492 77.2612C67.9738 77.0043 67.9738 76.7312 68.0492 76.4742C68.1204 76.2146 68.2631 75.9801 68.461 75.7972C69.1571 75.0912 69.8821 74.6398 70.3809 74.8192C70.4917 74.8439 70.5963 74.8911 70.688 74.9578C70.7798 75.0245 70.8569 75.1093 70.9145 75.2069C70.9735 75.3024 71.0129 75.4086 71.0305 75.5194C71.0538 75.6301 71.0538 75.7444 71.0305 75.855C71.0028 76.1585 70.8925 76.4486 70.7115 76.6941C70.5363 76.9463 70.2957 77.1463 70.0155 77.2728C69.4822 77.4803 68.911 77.573 68.3392 77.5448C68.0724 77.4175 68.0492 77.2612 68.0492 77.2612Z" fill="#6D7780"/>
<path d="M58.0671 77.2612C58.1425 77.0043 58.1425 76.7312 58.0671 76.4742C57.9959 76.2146 57.8533 75.9801 57.6553 75.7972C56.9535 75.0912 56.2343 74.6398 55.7354 74.8192C55.6246 74.8439 55.5201 74.8911 55.4283 74.9578C55.3365 75.0245 55.2594 75.1093 55.2018 75.2069C55.1404 75.3012 55.1008 75.4079 55.0858 75.5194C55.0655 75.6304 55.0655 75.7441 55.0858 75.855C55.1183 76.1583 55.2304 76.4477 55.4106 76.6941C55.5846 76.9475 55.8255 77.1478 56.1067 77.2728C56.6399 77.4803 57.2112 77.573 57.7829 77.5448C57.8478 77.5204 57.9067 77.4825 57.9557 77.4336C58.0047 77.3847 58.0427 77.3259 58.0671 77.2612Z" fill="#6D7780"/>
<g opacity="0.51">
<path opacity="0.51" d="M66.9938 71.6076C66.3433 72.0037 65.6259 72.2783 64.8767 72.4177C64.2967 72.5103 63.8443 72.5624 63.5369 72.5913C63.3789 72.6098 63.2192 72.6098 63.0612 72.5913C62.452 72.5719 61.845 72.5061 61.2458 72.3946C60.4969 72.2541 59.7796 71.9797 59.1287 71.5844C59.1287 71.5844 57.4525 70.5486 58.7517 69.5706C60.0509 68.5927 63.0554 68.5059 63.0554 68.5059C63.0554 68.5059 66.0715 68.6042 67.365 69.5706C68.6584 70.537 66.9938 71.6076 66.9938 71.6076Z" fill="white"/>
</g>
<path d="M84.0983 86.3292C83.9191 86.3591 83.7584 86.4573 83.6503 86.603C83.5421 86.7487 83.4948 86.9306 83.5183 87.1104C83.5183 87.1104 83.0311 90.3857 81.2504 91.543C77.0685 94.2802 71.8773 92.0696 63.6121 90.3162C63.4375 90.2631 63.2548 90.2415 63.0727 90.2526C62.8924 90.2419 62.7117 90.2634 62.539 90.3162C54.2796 92.0523 49.0826 94.2802 44.8949 91.543C43.1258 90.3857 42.6212 87.1335 42.627 87.1104C42.6411 87.0213 42.6371 86.9303 42.6152 86.8428C42.5932 86.7553 42.5539 86.6731 42.4994 86.6011C42.3912 86.4564 42.2312 86.359 42.0528 86.3292C41.5424 86.2597 41.3046 86.6937 41.293 87.0814C41.4889 89.0217 42.3906 90.823 43.8276 92.1448C45.4517 93.58 48.3518 94.095 51.5709 93.7709C54.79 93.4469 58.6297 92.4168 63.0901 91.4562C67.5562 92.3995 71.4307 93.4295 74.615 93.7709C77.7993 94.1123 80.74 93.58 82.3583 92.1448C83.7935 90.8217 84.6949 89.0211 84.8929 87.0814C84.8465 86.6937 84.6319 86.2886 84.0983 86.3292Z" fill="#525B61"/>
<path d="M63.5779 91.2573V99.3179C60.9041 99.3179 57.9685 98.0123 56.1472 96.4557C54.0649 94.6849 52.7367 93.3771 52.7367 93.3771C55.992 91.9534 60.0238 91.3 63.5779 91.2573Z" fill="#525B61"/>
<path d="M63.0554 91.1553V99.4708C60.3815 99.4708 57.9686 98.0126 56.1473 96.4559C54.0651 94.6852 52.7368 93.3774 52.7368 93.3774C55.9921 91.9537 59.5013 91.198 63.0554 91.1553Z" fill="#525B61"/>
<path d="M73.426 93.3716C73.426 93.3716 72.0978 94.6794 70.0213 96.4502C68.2 98.0068 65.7813 99.465 63.061 99.465V91.1553C66.6308 91.1863 70.1571 91.9403 73.426 93.3716Z" fill="#525B61"/>
<g style="mix-blend-mode:multiply" opacity="0.2">
<path d="M73.426 93.3716C73.426 93.3716 72.0978 94.6794 70.0213 96.4502C68.2 98.0068 65.7813 99.465 63.061 99.465V91.1553C66.6308 91.1863 70.1571 91.9403 73.426 93.3716Z" fill="#525B61"/>
</g>
<g opacity="0.33">
<g style="mix-blend-mode:multiply" opacity="0.33">
<path d="M84.0983 86.9659C83.9202 86.9958 83.7605 87.0931 83.6525 87.2376C83.5444 87.382 83.4964 87.5624 83.5183 87.7413C83.5183 87.7413 83.0311 91.0224 81.2504 92.1798C77.0685 94.9169 71.8773 92.7064 63.6121 90.953C63.4387 90.8942 63.2549 90.8725 63.0727 90.8893C62.8923 90.8757 62.7111 90.8974 62.539 90.953C54.2796 92.689 49.0826 94.9169 44.8949 92.1798C43.1258 91.0224 42.6212 87.7702 42.627 87.7413C42.6507 87.5634 42.605 87.3831 42.4994 87.2378C42.3904 87.094 42.2308 86.9968 42.0528 86.9659C41.5424 86.8964 41.3046 87.3304 41.293 87.7182C41.4892 89.6654 42.3977 91.4722 43.845 92.7931C45.4691 94.2341 48.3692 94.7433 51.5883 94.4134C54.8074 94.0836 58.6471 93.0709 63.1075 92.0987C67.5736 93.042 71.4481 94.0662 74.6324 94.4134C77.8167 94.7607 80.7574 94.2341 82.3757 92.7931C83.8106 91.4721 84.712 89.6734 84.9103 87.7355C84.8465 87.3304 84.6319 86.8964 84.0983 86.9659Z" fill="#535C62"/>
</g>
</g>
<path d="M63.1538 90.2236V91.4736C58.6877 92.411 54.7146 93.4526 51.5535 93.7883C48.3924 94.1239 45.4343 93.5973 43.8102 92.1622C42.3731 90.8428 41.4712 89.0432 41.2755 87.1046C41.2644 87.0025 41.2764 86.8993 41.3107 86.8026C41.3451 86.7059 41.4008 86.6181 41.4738 86.5458C41.5468 86.4735 41.6352 86.4186 41.7324 86.3851C41.8297 86.3516 41.9332 86.3404 42.0353 86.3523C42.2148 86.3795 42.3763 86.4761 42.4849 86.6212C42.5934 86.7664 42.6403 86.9483 42.6154 87.1277C42.6154 87.1914 43.1258 90.4146 44.8832 91.5661C49.071 94.2975 54.2389 92.0291 62.4984 90.2699C62.7137 90.2244 62.9343 90.2089 63.1538 90.2236Z" fill="#525B61"/>
<path d="M84.8582 87.0815C84.6599 89.0194 83.7585 90.8181 82.3236 92.1391C80.7053 93.5743 77.7994 94.0951 74.5803 93.7652C71.3612 93.4354 67.6201 92.4343 63.1539 91.4505V90.2213C63.3126 90.2213 63.4376 90.237 63.5947 90.27C71.8542 92.0061 77.0512 94.234 81.2331 91.4968C83.0022 90.3395 83.501 87.122 83.501 87.0584C83.4771 86.8796 83.525 86.6986 83.6344 86.5549C83.7426 86.4102 83.9026 86.3128 84.081 86.283C84.1872 86.2747 84.2939 86.2899 84.3936 86.3274C84.4932 86.365 84.5833 86.424 84.6575 86.5002C84.7317 86.5764 84.7882 86.6681 84.8229 86.7685C84.8576 86.869 84.8696 86.9759 84.8582 87.0815Z" fill="#525B61"/>
<g style="mix-blend-mode:multiply" opacity="0.2">
<path d="M84.8582 87.0815C84.6599 89.0194 83.7584 90.8181 82.3235 92.1391C80.7053 93.5743 77.7994 94.0951 74.5803 93.7652C71.3612 93.4354 67.6201 92.4343 63.1539 91.4505V90.2213C63.3126 90.2213 63.4376 90.237 63.5947 90.27C71.8542 92.0061 77.0512 94.234 81.2331 91.4968C83.0022 90.3395 83.501 87.122 83.501 87.0584C83.477 86.8796 83.525 86.6986 83.6344 86.5549C83.7426 86.4102 83.9026 86.3128 84.081 86.283C84.1872 86.2747 84.2939 86.2899 84.3935 86.3274C84.4932 86.365 84.5833 86.424 84.6575 86.5002C84.7317 86.5764 84.7882 86.6681 84.8229 86.7685C84.8575 86.869 84.8696 86.9759 84.8582 87.0815Z" fill="#525B61"/>
</g>
<g opacity="0.33">
<path opacity="0.33" d="M66.4658 101.102C65.6251 101.416 64.7446 101.61 63.85 101.681L63.0727 101.727L62.3013 101.681C61.4066 101.61 60.5262 101.416 59.6854 101.102C58.8096 100.778 57.7598 101.34 57.9454 102.318C58.131 103.296 59.494 104.505 60.9035 105.043C62.2824 105.575 63.8108 105.575 65.1898 105.043C66.5992 104.505 67.9391 103.307 68.1537 102.318C68.3683 101.328 67.3243 100.778 66.4658 101.102Z" fill="#535C62"/>
</g>
<path d="M68.7878 96.4789C66.8737 96.3111 65.3077 96.1028 63.9852 96.4384C63.4995 96.5586 63.0008 96.6188 62.5004 96.6178V99.4417C65.1859 99.4417 67.5233 98.0298 69.3446 96.5252C69.1242 96.4905 69.014 96.5021 68.7878 96.4789Z" fill="#CA3850"/>
<path d="M69.3658 96.4789C67.4517 96.3111 65.8857 96.1028 64.5632 96.4384C64.0775 96.5586 63.5788 96.6188 63.0784 96.6178V99.4707C65.7639 99.4707 68.1013 98.0298 69.9226 96.5252C69.7022 96.4905 69.592 96.5021 69.3658 96.4789Z" fill="#CA3850"/>
<path d="M63.0553 96.6178V99.4707C60.3814 99.4707 58.102 98.1224 56.2285 96.5252C56.4373 96.4905 56.5707 96.5252 56.8085 96.4789C58.7226 96.3111 60.2887 96.1028 61.6169 96.4384C62.0875 96.5553 62.5704 96.6155 63.0553 96.6178Z" fill="#CA3850"/>
<g opacity="0.5">
<path opacity="0.5" d="M38.2014 67.586C39.6551 67.5872 41.0765 67.1581 42.2858 66.3532C43.4951 65.5483 44.4379 64.4036 44.995 63.064C45.5521 61.7244 45.6985 60.25 45.4156 58.8274C45.1327 57.4048 44.4332 56.0978 43.4057 55.0719C42.3782 54.0459 41.0687 53.347 39.6431 53.0637C38.2174 52.7803 36.7395 52.9252 35.3963 53.4799C34.0531 54.0347 32.9051 54.9744 32.0973 56.1802C31.2895 57.3861 30.8584 58.8038 30.8584 60.2542C30.8576 61.2167 31.047 62.17 31.4157 63.0595C31.7844 63.949 32.3251 64.7573 33.0071 65.4382C33.689 66.1191 34.4988 66.6593 35.39 67.0278C36.2813 67.3963 37.2366 67.586 38.2014 67.586Z" fill="#525B61"/>
</g>
<path d="M38.2014 67.0535C39.5496 67.0546 40.8678 66.6568 41.9893 65.9104C43.1108 65.1639 43.9853 64.1024 44.502 62.8601C45.0187 61.6177 45.1545 60.2504 44.8922 58.9311C44.6299 57.6117 43.9812 56.3997 43.0283 55.4482C42.0754 54.4967 40.8611 53.8485 39.5389 53.5857C38.2167 53.3228 36.8461 53.4572 35.6005 53.9716C34.3548 54.4861 33.2901 55.3576 32.5409 56.4759C31.7918 57.5942 31.392 58.909 31.392 60.254C31.3912 61.1467 31.5668 62.0307 31.9086 62.8556C32.2505 63.6805 32.752 64.4301 33.3844 65.0616C34.0167 65.6931 34.7677 66.194 35.5942 66.5358C36.4207 66.8776 37.3067 67.0535 38.2014 67.0535Z" fill="#525B61"/>
<path d="M40.9449 59.8374C41.1883 59.8385 41.4266 59.7675 41.6296 59.6334C41.8326 59.4993 41.9911 59.3081 42.0851 59.0841C42.179 58.86 42.2042 58.6131 42.1574 58.3748C42.1106 58.1364 41.994 57.9173 41.8222 57.7452C41.6505 57.573 41.4314 57.4556 41.1927 57.4078C40.954 57.36 40.7065 57.3839 40.4815 57.4766C40.2565 57.5693 40.0641 57.7265 39.9287 57.9284C39.7933 58.1303 39.7211 58.3677 39.7211 58.6106C39.7211 58.9349 39.8498 59.2461 40.0792 59.476C40.3085 59.7059 40.6198 59.8358 40.9449 59.8374Z" fill="#E6F4FD"/>
<path d="M38.9612 56.9152C39.114 56.9164 39.2637 56.8722 39.3913 56.7883C39.5189 56.7045 39.6187 56.5847 39.678 56.4442C39.7373 56.3036 39.7534 56.1487 39.7243 55.999C39.6952 55.8494 39.6222 55.7117 39.5145 55.6035C39.4069 55.4952 39.2694 55.4214 39.1196 55.3912C38.9698 55.361 38.8144 55.3759 38.6731 55.434C38.5318 55.4921 38.411 55.5907 38.326 55.7174C38.241 55.8441 38.1956 55.9931 38.1956 56.1456C38.1971 56.3483 38.278 56.5423 38.4211 56.6861C38.5642 56.83 38.7581 56.9122 38.9612 56.9152Z" fill="#E6F4FD"/>
<path d="M44.9529 49.3924C44.9529 49.3924 41.6642 46.4643 37.7838 45.9724C33.9035 45.4805 30.8236 45.7294 29.594 46.6437C28.3643 47.558 28.3528 48.1482 28.7646 48.3797C29.1764 48.6112 30.174 48.2755 30.609 48.1135C30.9454 47.9862 31.5487 47.4365 35.9684 47.6621C41.8266 47.9573 44.0887 50.5555 44.6049 50.1736C45.1211 49.7917 44.9529 49.3924 44.9529 49.3924Z" fill="#525B61"/>
<path opacity="0.5" d="M95.2521 60.2538C95.2509 58.8044 94.8189 57.3878 94.0105 56.1835C93.2022 54.9791 92.054 54.041 90.7111 53.4879C89.3682 52.9348 87.891 52.7916 86.4665 53.0764C85.042 53.3611 83.7342 54.061 82.7086 55.0875C81.6829 56.1141 80.9855 57.4211 80.7046 58.8432C80.4237 60.2653 80.572 61.7385 81.1306 63.0765C81.6892 64.4146 82.6331 65.5572 83.8428 66.3598C85.0525 67.1625 86.4737 67.5891 87.9265 67.5856C89.8719 67.581 91.7361 66.8064 93.1096 65.4317C94.4831 64.0571 95.2536 62.1948 95.2521 60.2538Z" fill="#525B61"/>
<path d="M94.7184 60.2542C94.7173 58.91 94.3165 57.5964 93.5668 56.4796C92.8171 55.3628 91.7522 54.4929 90.5068 53.9801C89.2615 53.4673 87.8916 53.3346 86.5706 53.5988C85.2496 53.863 84.0369 54.5122 83.0858 55.4643C82.1348 56.4164 81.4882 57.6285 81.2279 58.9474C80.9676 60.2662 81.1053 61.6324 81.6235 62.8731C82.1417 64.1139 83.0172 65.1733 84.1392 65.9175C85.2612 66.6616 86.5792 67.057 87.9264 67.0536C89.7304 67.049 91.4588 66.3304 92.7322 65.0556C94.0056 63.7808 94.72 62.0539 94.7184 60.2542Z" fill="#525B61"/>
<g style="mix-blend-mode:multiply" opacity="0.2">
<path d="M94.7184 60.2542C94.7173 58.91 94.3165 57.5964 93.5668 56.4796C92.8171 55.3628 91.7522 54.4929 90.5068 53.9801C89.2615 53.4673 87.8916 53.3346 86.5706 53.5988C85.2496 53.863 84.0369 54.5122 83.0858 55.4643C82.1348 56.4164 81.4882 57.6285 81.2279 58.9474C80.9676 60.2662 81.1053 61.6324 81.6235 62.8731C82.1417 64.1139 83.0172 65.1733 84.1392 65.9175C85.2612 66.6616 86.5792 67.057 87.9264 67.0536C89.7304 67.049 91.4588 66.3304 92.7322 65.0556C94.0056 63.7808 94.72 62.0539 94.7184 60.2542Z" fill="#525B61"/>
</g>
<path d="M86.3778 58.6107C86.3766 58.3695 86.3039 58.134 86.1687 57.934C86.0335 57.7339 85.842 57.5783 85.6183 57.4868C85.3945 57.3953 85.1486 57.3719 84.9116 57.4197C84.6746 57.4674 84.4571 57.5842 84.2865 57.7552C84.1159 57.9262 83.9999 58.1437 83.9532 58.3804C83.9064 58.6171 83.931 58.8623 84.0238 59.0851C84.1166 59.3079 84.2734 59.4982 84.4746 59.6321C84.6757 59.7661 84.9121 59.8375 85.1539 59.8375C85.3151 59.8375 85.4747 59.8057 85.6236 59.744C85.7725 59.6823 85.9077 59.5919 86.0214 59.4779C86.1351 59.3639 86.2251 59.2286 86.2863 59.0798C86.3475 58.931 86.3785 58.7716 86.3778 58.6107Z" fill="#E6F4FD"/>
<path d="M87.9264 56.128C87.9264 55.9758 87.8811 55.827 87.7964 55.7004C87.7116 55.5739 87.5911 55.4752 87.4502 55.417C87.3092 55.3587 87.1541 55.3435 87.0045 55.3732C86.8548 55.4029 86.7174 55.4762 86.6095 55.5838C86.5016 55.6915 86.4281 55.8286 86.3984 55.9779C86.3686 56.1272 86.3839 56.2819 86.4423 56.4226C86.5007 56.5632 86.5995 56.6834 86.7264 56.768C86.8532 56.8525 87.0024 56.8977 87.155 56.8977C87.3591 56.8961 87.5544 56.8146 87.6988 56.6706C87.8431 56.5266 87.9249 56.3317 87.9264 56.128Z" fill="#E6F4FD"/>
<path d="M81.5055 50.1678C82.0449 50.5439 84.2838 47.9515 90.1478 47.6563C94.5617 47.4307 95.165 47.9804 95.5014 48.1077C95.9422 48.2697 96.934 48.6285 97.3458 48.3739C97.7576 48.1193 97.7693 47.529 96.5164 46.6379C95.2636 45.7467 92.2069 45.4805 88.3265 45.9666C84.4462 46.4527 81.1575 49.3924 81.1575 49.3924C81.1575 49.3924 80.9661 49.7917 81.5055 50.1678Z" fill="#525B61"/>
<path d="M86.4938 58.5006C86.4949 58.2578 86.4238 58.02 86.2894 57.8175C86.155 57.615 85.9633 57.4569 85.7388 57.3631C85.5142 57.2694 85.2668 57.2443 85.0279 57.2909C84.7889 57.3376 84.5693 57.454 84.3968 57.6253C84.2242 57.7967 84.1065 58.0153 84.0586 58.2534C84.0107 58.4915 84.0347 58.7385 84.1276 58.963C84.2205 59.1875 84.3781 59.3794 84.5804 59.5145C84.7828 59.6495 85.0207 59.7216 85.2642 59.7216C85.5893 59.7216 85.9012 59.5932 86.1316 59.3644C86.362 59.1356 86.4923 58.825 86.4938 58.5006Z" fill="#E6F4FD"/>
<path d="M88.0309 56.0123C88.0309 55.8601 87.9856 55.7113 87.9009 55.5847C87.8161 55.4582 87.6956 55.3595 87.5547 55.3013C87.4137 55.243 87.2586 55.2278 87.1089 55.2575C86.9593 55.2872 86.8219 55.3605 86.714 55.4681C86.6061 55.5757 86.5326 55.7129 86.5029 55.8622C86.4731 56.0115 86.4884 56.1662 86.5468 56.3068C86.6051 56.4475 86.704 56.5677 86.8309 56.6522C86.9577 56.7368 87.1069 56.7819 87.2595 56.7819C87.361 56.7827 87.4616 56.7633 87.5556 56.7249C87.6495 56.6865 87.7349 56.6299 87.8067 56.5582C87.8784 56.4866 87.9352 56.4015 87.9737 56.3077C88.0122 56.214 88.0316 56.1136 88.0309 56.0123Z" fill="#E6F4FD"/>
<path d="M81.6159 50.0519C82.1611 50.428 84.3999 47.8413 90.2581 47.5404C94.6779 47.3147 95.2811 47.8703 95.6117 47.9976C96.0525 48.1596 97.0502 48.5184 97.4562 48.2638C97.8622 48.0091 97.8796 47.4131 96.6326 46.4988C95.3855 45.5845 92.323 45.3415 88.4427 45.8333C84.5624 46.3252 81.2678 49.2475 81.2678 49.2475C81.2678 49.2475 81.0764 49.6757 81.6159 50.0519Z" fill="#525B61"/>
<path d="M56.6808 99.8182C57.6649 100.409 58.7216 100.87 59.8245 101.19C62.0231 101.816 64.3571 101.79 66.5411 101.114C67.6405 100.779 68.69 100.298 69.6616 99.6851C68.7808 100.457 67.764 101.06 66.6629 101.462C64.4254 102.31 61.9581 102.337 59.7027 101.537C58.5988 101.152 57.5747 100.57 56.6808 99.8182Z" fill="#535C62"/>
<path d="M115.874 68.1345C115.742 72.9096 115.165 77.6596 114.62 82.3971C114.25 85.6639 114.03 88.7304 111.484 91.0773C108.788 93.5493 105.013 95.2265 101.771 96.8474C97.8228 98.815 93.7408 100.503 89.5552 101.898C88.6209 102.204 88.2258 100.74 89.1539 100.427C96.1082 98.0552 104.022 95.189 109.816 90.5078C113.234 87.7416 112.883 82.9979 113.265 78.9738C113.616 75.294 114.011 71.6141 114.664 67.9718C114.789 67.2834 115.918 67.4524 115.874 68.1345Z" fill="#525B61"/>
<g style="mix-blend-mode:multiply" opacity="0.4">
<path d="M115.874 68.1345C115.742 72.9096 115.165 77.6596 114.62 82.3971C114.25 85.6639 114.03 88.7304 111.484 91.0773C108.788 93.5493 105.013 95.2265 101.771 96.8474C97.8229 98.815 93.741 100.503 89.5553 101.898C88.621 102.204 88.2259 100.74 89.154 100.427C96.1084 98.0552 104.022 95.189 109.816 90.5078C113.234 87.7416 112.883 82.9979 113.265 78.9738C113.616 75.294 114.012 71.6141 114.664 67.9718C114.789 67.2834 115.918 67.4524 115.874 68.1345Z" fill="#525B61"/>
</g>
<path d="M118.631 56.0625C118.35 56.0625 118.125 56.4972 118.125 57.0374V63.191C118.125 63.7312 118.35 64.1658 118.631 64.1658H119.194C119.525 64.1658 119.819 63.905 120.144 63.489C120.875 62.5164 121.264 61.3314 121.25 60.1173C121.266 58.9028 120.877 57.7171 120.144 56.7455C119.819 56.3295 119.519 56.0687 119.194 56.0687L118.631 56.0625Z" fill="#545555"/>
<path d="M114.591 51.8237C113.779 51.8237 113.125 52.7141 113.125 53.8161V66.4058C113.125 67.514 113.754 68.4044 114.591 68.4044H116.283C118.202 68.4044 119.75 66.2999 119.75 63.6786V56.5495C119.75 53.9282 118.202 51.8237 116.283 51.8237H114.591Z" fill="#F18854"/>
<path d="M88.4902 96.5919C86.6919 96.467 84.9689 97.2785 83.3523 98.0836C82.3185 98.5955 81.2283 99.1759 80.6894 100.187C80.3846 100.848 80.2987 101.588 80.444 102.3C80.5893 103.013 80.9583 103.661 81.4977 104.151C82.0494 104.624 82.6928 104.979 83.3881 105.193C84.0833 105.408 84.8155 105.478 85.5391 105.399C86.9895 105.233 88.3985 104.811 89.6995 104.151C90.6967 103.777 91.5661 103.127 92.2057 102.278C93.7095 99.9062 90.8649 96.7729 88.4902 96.5919Z" fill="#525B61"/>
<g style="mix-blend-mode:multiply" opacity="0.4">
<path d="M88.4902 96.5919C86.6919 96.467 84.9689 97.2785 83.3523 98.0836C82.3185 98.5955 81.2283 99.1759 80.6894 100.187C80.3846 100.848 80.2987 101.588 80.444 102.3C80.5893 103.013 80.9583 103.661 81.4977 104.151C82.0494 104.624 82.6928 104.979 83.3881 105.193C84.0833 105.408 84.8155 105.478 85.5391 105.399C86.9895 105.233 88.3985 104.811 89.6995 104.151C90.6967 103.777 91.5661 103.127 92.2057 102.278C93.7095 99.9062 90.8649 96.7729 88.4902 96.5919Z" fill="#525B61"/>
</g>
</g>
<defs>
<clipPath id="clip0">
<rect width="126" height="171" fill="white"/>
</clipPath>
</defs>
</svg>
