<svg width="48" height="48" viewBox="0 0 48 48" fill="none" xmlns="http://www.w3.org/2000/svg">
<path d="M44 24C44 35.0457 35.0457 44 24 44C12.9543 44 4 35.0457 4 24C4 12.9543 12.9543 4 24 4C35.0457 4 44 12.9543 44 24Z" fill="white"/>
<path d="M29.5714 15.0017C29.2721 14.9874 28.9754 15.0631 28.7195 15.219C28.4636 15.375 28.2603 15.6039 28.1357 15.8765C28.0112 16.149 27.9711 16.4526 28.0207 16.7481C28.0702 17.0436 28.2071 17.3175 28.4138 17.5345C28.6204 17.7515 28.8873 17.9016 29.1801 17.9655C29.4728 18.0294 29.778 18.0042 30.0563 17.893C30.3346 17.7819 30.5732 17.59 30.7414 17.342C30.9096 17.094 30.9997 16.8013 31 16.5017C31.0004 16.1159 30.8522 15.7449 30.5862 15.4655C30.3202 15.1862 29.9567 15.0201 29.5714 15.0017Z" fill="url(#paint0_linear)"/>
<path d="M23.931 18.0004C22.7474 18.014 21.5942 18.3774 20.6166 19.0449C19.639 19.7124 18.8807 20.6542 18.4372 21.7517C17.9936 22.8492 17.8846 24.0533 18.1238 25.2126C18.3631 26.3719 18.9399 27.4346 19.7817 28.2668C20.6235 29.099 21.6926 29.6637 22.8546 29.8897C24.0166 30.1156 25.2194 29.9929 26.3117 29.5368C27.4041 29.0807 28.3371 28.3117 28.9934 27.3265C29.6497 26.3414 29.9999 25.1841 30 24.0004C30.0001 23.2066 29.8426 22.4207 29.5368 21.6883C29.2309 20.9558 28.7828 20.2912 28.2183 19.7332C27.6539 19.1751 26.9843 18.7346 26.2483 18.4372C25.5124 18.1397 24.7247 17.9913 23.931 18.0004ZM23.931 27.8625C23.1672 27.8625 22.4205 27.636 21.7854 27.2116C21.1503 26.7872 20.6553 26.184 20.3629 25.4783C20.0706 24.7726 19.9942 23.9961 20.1432 23.2469C20.2922 22.4978 20.66 21.8096 21.2001 21.2695C21.7403 20.7294 22.4284 20.3616 23.1776 20.2125C23.9268 20.0635 24.7033 20.14 25.409 20.4323C26.1147 20.7246 26.7179 21.2196 27.1422 21.8547C27.5666 22.4899 27.7931 23.2366 27.7931 24.0004C27.7931 25.0247 27.3862 26.007 26.6619 26.7313C25.9377 27.4556 24.9553 27.8625 23.931 27.8625Z" fill="url(#paint1_linear)"/>
<path d="M28.5141 36H18.4859C16.5062 35.9816 14.6128 35.187 13.2129 33.7871C11.813 32.3872 11.0184 30.4938 11 28.5141V18.4859C11.0184 16.5062 11.813 14.6128 13.2129 13.2129C14.6128 11.813 16.5062 11.0184 18.4859 11H28.5141C30.4938 11.0184 32.3872 11.813 33.7871 13.2129C35.187 14.6128 35.9816 16.5062 36 18.4859V28.5141C35.9816 30.4938 35.187 32.3872 33.7871 33.7871C32.3872 35.187 30.4938 35.9816 28.5141 36ZM18.4859 13.3305C17.1186 13.3305 15.8073 13.8737 14.8405 14.8405C13.8737 15.8073 13.3305 17.1186 13.3305 18.4859V28.5141C13.3305 29.8814 13.8737 31.1927 14.8405 32.1595C15.8073 33.1263 17.1186 33.6695 18.4859 33.6695H28.5141C29.8814 33.6695 31.1927 33.1263 32.1595 32.1595C33.1263 31.1927 33.6695 29.8814 33.6695 28.5141V18.4859C33.6695 17.1186 33.1263 15.8073 32.1595 14.8405C31.1927 13.8737 29.8814 13.3305 28.5141 13.3305H18.4859Z" fill="url(#paint2_linear)"/>
<defs>
<linearGradient id="paint0_linear" x1="29.3494" y1="18.3635" x2="31.2043" y2="15.8831" gradientUnits="userSpaceOnUse">
<stop offset="0.318117" stop-color="#3564AC"/>
<stop offset="1" stop-color="#3C7DE1"/>
</linearGradient>
<linearGradient id="paint1_linear" x1="23.3975" y1="31.4539" x2="30.8172" y2="21.5323" gradientUnits="userSpaceOnUse">
<stop offset="0.318117" stop-color="#3564AC"/>
<stop offset="1" stop-color="#3C7DE1"/>
</linearGradient>
<linearGradient id="paint2_linear" x1="22.2448" y1="39.029" x2="37.7025" y2="18.3589" gradientUnits="userSpaceOnUse">
<stop offset="0.318117" stop-color="#3564AC"/>
<stop offset="1" stop-color="#3C7DE1"/>
</linearGradient>
</defs>
</svg>
