<svg width="482" height="172" viewBox="0 0 482 172" fill="none" xmlns="http://www.w3.org/2000/svg">
<g filter="url(#filter0_d)">
<rect x="63.5559" y="2" width="85.6389" height="85.6389" rx="10" transform="rotate(45 63.5559 2)" fill="#81C73C"/>
</g>
<rect x="63.5559" y="15.1642" width="67.0218" height="67.0218" rx="10" transform="rotate(45 63.5559 15.1642)" fill="white"/>
<g filter="url(#filter1_d)">
<path d="M14.1118 141.193C14.1118 137.22 17.1277 134 20.8479 134H104.376C108.096 134 111.112 137.22 111.112 141.193V159.895C111.112 163.867 108.096 167.088 104.376 167.088H20.8479C17.1277 167.088 14.1118 163.867 14.1118 159.895V141.193Z" fill="#82C73C"/>
</g>
<path d="M68.6318 53.5566H45.9843C45.6288 53.5566 45.3406 53.8455 45.3406 54.2019V69.5205C45.3406 69.8769 45.6288 70.1658 45.9843 70.1658H68.6318C68.9873 70.1658 69.2755 69.8769 69.2755 69.5205V54.2019C69.2755 53.8455 68.9873 53.5566 68.6318 53.5566Z" fill="white"/>
<path fill-rule="evenodd" clip-rule="evenodd" d="M45.9832 54.1126C45.9341 54.1126 45.8944 54.1524 45.8944 54.2016V69.5201C45.8944 69.5693 45.9341 69.6091 45.9832 69.6091H68.6306C68.6796 69.6091 68.7194 69.5693 68.7194 69.5201V54.2016C68.7194 54.1524 68.6796 54.1126 68.6306 54.1126H45.9832ZM44.7844 54.2016C44.7844 53.5379 45.3211 52.9999 45.9832 52.9999H68.6306C69.2926 52.9999 69.8293 53.5379 69.8293 54.2016V69.5201C69.8293 70.1838 69.2926 70.7217 68.6306 70.7217H45.9832C45.3211 70.7217 44.7844 70.1838 44.7844 69.5201V54.2016Z" fill="#474747"/>
<path d="M70.8258 71.6611H43.8125C43.4255 71.6611 43.1118 71.9248 43.1118 72.2501V73.0749C43.1118 73.4002 43.4255 73.6638 43.8125 73.6638H70.8258C71.2128 73.6638 71.5265 73.4002 71.5265 73.0749V72.2501C71.5265 71.9248 71.2128 71.6611 70.8258 71.6611Z" fill="#474747"/>
<path fill-rule="evenodd" clip-rule="evenodd" d="M54.8507 58.3314H60.0407C60.2946 58.3321 60.538 58.4329 60.7175 58.612C60.8971 58.791 60.9983 59.0336 60.999 59.2868V64.4612C60.9983 64.7144 60.8971 64.957 60.7175 65.136C60.538 65.315 60.2946 65.4159 60.0407 65.4166H54.8507C54.5967 65.4159 54.3534 65.315 54.1738 65.136C53.9942 64.957 53.893 64.7144 53.8923 64.4612V59.2868C53.893 59.0336 53.9942 58.791 54.1738 58.612C54.3534 58.4329 54.5967 58.3321 54.8507 58.3314ZM55.2689 58.9025C55.0559 58.9031 54.8519 58.9878 54.7013 59.1379C54.5507 59.288 54.4658 59.4914 54.4652 59.7038V64.0442C54.4658 64.2565 54.5507 64.46 54.7013 64.6101C54.8519 64.7602 55.0559 64.8448 55.2689 64.8455H59.6224C59.8354 64.8448 60.0394 64.7602 60.19 64.6101C60.3406 64.46 60.4255 64.2565 60.4261 64.0442V59.7038C60.4255 59.4914 60.3406 59.288 60.19 59.1379C60.0394 58.9878 59.8354 58.9031 59.6224 58.9025H55.2689Z" fill="#BBBCBE"/>
<path fill-rule="evenodd" clip-rule="evenodd" d="M53.9625 61.4184C52.1722 63.8928 58.513 61.1812 62.0835 62.4674L61.2698 63.2903C56.4346 61.7358 51.4941 64.009 53.9625 60.9899V61.4184Z" fill="#91BD40"/>
<path fill-rule="evenodd" clip-rule="evenodd" d="M53.6744 62.6783C55.66 63.8649 59.0122 62.376 62.0841 64.1301L61.1271 64.7558C57.2227 63.1127 53.1726 63.6098 53.6744 62.6783Z" fill="#ECDB13"/>
<path fill-rule="evenodd" clip-rule="evenodd" d="M53.3947 62.5633C51.9087 64.2519 63.1688 64.0617 57.7459 66.5015C57.7316 64.3397 50.7966 63.7119 53.3947 62.5633Z" fill="#3564AC"/>
<path fill-rule="evenodd" clip-rule="evenodd" d="M59.8723 61.1994V61.3839L59.5413 61.3902L59.2423 61.8048H59.8276C59.8741 61.8046 59.92 61.7948 59.9624 61.7758C60.006 61.7565 60.0453 61.7288 60.0782 61.6943C60.1128 61.6568 60.1398 61.613 60.1575 61.5652C60.1784 61.5092 60.1887 61.4499 60.1876 61.3902V61.1622C60.1883 61.1122 60.1788 61.0625 60.1596 61.0162C60.1422 60.9738 60.1174 60.9348 60.0864 60.901C60.0568 60.8688 60.0208 60.8431 59.9807 60.8257C59.9414 60.8083 59.899 60.7993 59.8561 60.7993H58.6123V60.6148H59.8942L60.1884 60.1931H58.6567C58.6099 60.193 58.5636 60.203 58.5211 60.2224C58.4779 60.2419 58.439 60.2695 58.4064 60.3038C58.3711 60.3419 58.3442 60.3867 58.3271 60.4356C58.3064 60.491 58.2962 60.5498 58.2969 60.609V60.7732C58.4637 60.8394 58.5422 61.0368 58.5422 61.1991H59.8731L59.8723 61.1994Z" fill="#3564AC"/>
<path fill-rule="evenodd" clip-rule="evenodd" d="M55.0603 61.805V61.1988H56.3047C56.3477 61.1987 56.3902 61.1897 56.4295 61.1724C56.4696 61.1548 56.5056 61.1292 56.5352 61.097C56.5439 61.0876 56.5521 61.0778 56.5598 61.0675C56.54 61.0411 56.5236 61.0123 56.5109 60.9819C56.4924 60.9354 56.4834 60.8858 56.4845 60.8358V60.6092C56.4837 60.55 56.4939 60.4912 56.5146 60.4357C56.526 60.404 56.5413 60.3737 56.5601 60.3456C56.55 60.331 56.5387 60.3173 56.5265 60.3045C56.4936 60.27 56.4543 60.2423 56.4107 60.223C56.3684 60.2039 56.3226 60.1939 56.2761 60.1938H55.1343L54.7441 60.6155H56.3203V60.7966H54.7441V61.8045L55.0603 61.805Z" fill="#91BD40"/>
<path fill-rule="evenodd" clip-rule="evenodd" d="M58.1459 61.1996V61.3841H56.8904L56.5708 61.8059H58.1025C58.1489 61.8057 58.1948 61.7958 58.2371 61.7769C58.2807 61.7576 58.32 61.7299 58.3529 61.6954C58.3876 61.658 58.4145 61.6141 58.4322 61.5663C58.4529 61.5103 58.463 61.4509 58.4621 61.3912V61.1625C58.4627 61.1124 58.4532 61.0628 58.4343 61.0164C58.4168 60.974 58.3919 60.935 58.3608 60.9013C58.3315 60.8694 58.2959 60.8439 58.2562 60.8264C58.2166 60.8089 58.1737 60.7999 58.1303 60.7998H56.887V60.6153L58.083 60.609L58.3415 60.1941H56.9317C56.8848 60.1939 56.8384 60.2039 56.7958 60.2234C56.7527 60.2429 56.7137 60.2706 56.681 60.3048C56.646 60.343 56.619 60.3878 56.6017 60.4366C56.581 60.492 56.5708 60.5508 56.5716 60.61V60.8375C56.5711 60.8875 56.5806 60.9372 56.5996 60.9835C56.6171 61.0259 56.642 61.0649 56.6731 61.0987C56.7027 61.1309 56.7387 61.1566 56.7789 61.1741C56.8181 61.1914 56.8605 61.2004 56.9034 61.2004L58.1459 61.1996Z" fill="#ECDB13"/>
<path fill-rule="evenodd" clip-rule="evenodd" d="M59.2228 61.3901H59.4576L59.1647 61.8049H58.9236L59.2228 61.3901Z" fill="#ECDB13"/>
<path fill-rule="evenodd" clip-rule="evenodd" d="M59.0107 61.3901H59.1569L58.8639 61.8049H58.7117L59.0107 61.3901Z" fill="#91BD40"/>
<path d="M81.9157 58.8527H76.0467C75.3119 58.8527 74.7163 59.4498 74.7163 60.1863V71.5656C74.7163 72.3021 75.3119 72.8992 76.0467 72.8992H81.9157C82.6504 72.8992 83.246 72.3021 83.246 71.5656V60.1863C83.246 59.4498 82.6504 58.8527 81.9157 58.8527Z" fill="#474747"/>
<path d="M82.4134 59.9611H75.5461V70.9805H82.4134V59.9611Z" fill="white"/>
<path d="M80.1561 71.5511H77.8078C77.671 71.5511 77.5601 71.6623 77.5601 71.7994V72.0154C77.5601 72.1526 77.671 72.2638 77.8078 72.2638H80.1561C80.293 72.2638 80.4039 72.1526 80.4039 72.0154V71.7994C80.4039 71.6623 80.293 71.5511 80.1561 71.5511Z" fill="white"/>
<path fill-rule="evenodd" clip-rule="evenodd" d="M77.7384 63.5591H80.4483C80.5809 63.5595 80.7079 63.6122 80.8017 63.7057C80.8954 63.7991 80.9483 63.9258 80.9486 64.058V66.7597C80.9483 66.8919 80.8954 67.0186 80.8017 67.1121C80.7079 67.2055 80.5809 67.2582 80.4483 67.2586H77.7384C77.6058 67.2582 77.4788 67.2055 77.385 67.1121C77.2912 67.0186 77.2384 66.8919 77.238 66.7597V64.058C77.2384 63.9258 77.2912 63.7991 77.385 63.7057C77.4788 63.6122 77.6058 63.5595 77.7384 63.5591ZM77.9568 63.8574C77.8456 63.8577 77.739 63.9019 77.6604 63.9803C77.5818 64.0586 77.5375 64.1649 77.5372 64.2757V66.542C77.5375 66.6529 77.5818 66.7591 77.6604 66.8375C77.739 66.9158 77.8456 66.96 77.9568 66.9604H80.2299C80.3411 66.96 80.4476 66.9158 80.5263 66.8375C80.6049 66.7591 80.6492 66.6529 80.6495 66.542V64.2757C80.6492 64.1649 80.6049 64.0586 80.5263 63.9803C80.4476 63.9019 80.3411 63.8577 80.2299 63.8574H77.9568Z" fill="#BBBCBE"/>
<path fill-rule="evenodd" clip-rule="evenodd" d="M77.2741 65.1709C76.3394 66.4629 79.6501 65.0471 81.5143 65.7186L81.0895 66.1483C78.5649 65.3366 75.9853 66.5235 77.2741 64.9471V65.1709Z" fill="#91BD40"/>
<path fill-rule="evenodd" clip-rule="evenodd" d="M77.1251 65.8289C78.1619 66.4484 79.9121 65.671 81.5161 66.5868L81.0164 66.9135C78.9778 66.0556 76.8631 66.3152 77.1251 65.8289Z" fill="#ECDB13"/>
<path fill-rule="evenodd" clip-rule="evenodd" d="M76.978 65.7687C76.2021 66.6504 82.0813 66.551 79.2498 67.8249C79.2424 66.6962 75.6214 66.3684 76.978 65.7687Z" fill="#3564AC"/>
<path fill-rule="evenodd" clip-rule="evenodd" d="M80.3599 65.0566V65.153L80.1871 65.1563L80.031 65.3727H80.3366C80.3609 65.3727 80.3848 65.3675 80.407 65.3576C80.4297 65.3475 80.4503 65.3331 80.4674 65.3151C80.4855 65.2955 80.4996 65.2726 80.5088 65.2477C80.5198 65.2184 80.5251 65.1874 80.5246 65.1563V65.0372C80.5249 65.0111 80.52 64.9852 80.51 64.961C80.5009 64.9389 80.4879 64.9185 80.4717 64.9009C80.4563 64.8841 80.4375 64.8706 80.4165 64.8615C80.396 64.8525 80.3739 64.8478 80.3515 64.8478H79.702V64.7514H80.3714L80.525 64.5313H79.7252C79.7008 64.5312 79.6766 64.5364 79.6544 64.5465C79.6319 64.5567 79.6116 64.5712 79.5945 64.589C79.5761 64.6089 79.562 64.6323 79.5531 64.6579C79.5423 64.6868 79.537 64.7175 79.5374 64.7484V64.8341C79.6245 64.8687 79.6655 64.9717 79.6655 65.0565H80.3603L80.3599 65.0566Z" fill="#3564AC"/>
<path fill-rule="evenodd" clip-rule="evenodd" d="M77.8465 65.3726V65.0561H78.4962C78.5186 65.0561 78.5408 65.0514 78.5614 65.0423C78.5823 65.0332 78.6011 65.0198 78.6166 65.003C78.6211 64.9981 78.6254 64.9929 78.6294 64.9876C78.6191 64.9738 78.6105 64.9588 78.6039 64.9428C78.5942 64.9186 78.5895 64.8927 78.5901 64.8666V64.7483C78.5897 64.7174 78.595 64.6867 78.6058 64.6577C78.6118 64.6411 78.6197 64.6253 78.6295 64.6106C78.6243 64.603 78.6184 64.5959 78.612 64.5892C78.5949 64.5712 78.5743 64.5567 78.5516 64.5466C78.5295 64.5366 78.5055 64.5314 78.4813 64.5314H77.8851L77.6814 64.7516H78.5043V64.8461H77.6814V65.3724L77.8465 65.3726Z" fill="#91BD40"/>
<path fill-rule="evenodd" clip-rule="evenodd" d="M79.4589 65.0564V65.1527H78.8034L78.6365 65.3729H79.4362C79.4605 65.3729 79.4844 65.3677 79.5065 65.3578C79.5293 65.3477 79.5498 65.3333 79.567 65.3153C79.5851 65.2957 79.5991 65.2728 79.6084 65.2478C79.6192 65.2186 79.6245 65.1876 79.624 65.1564V65.037C79.6243 65.0109 79.6194 64.9849 79.6095 64.9607C79.6003 64.9386 79.5873 64.9182 79.5711 64.9006C79.5558 64.8839 79.5372 64.8706 79.5165 64.8615C79.4958 64.8524 79.4734 64.8477 79.4507 64.8476H78.8016V64.7513L79.426 64.748L79.561 64.5314H78.8249C78.8004 64.5313 78.7762 64.5365 78.7539 64.5466C78.7314 64.5569 78.7111 64.5713 78.694 64.5892C78.6757 64.6091 78.6617 64.6325 78.6526 64.658C78.6418 64.6869 78.6365 64.7176 78.6369 64.7485V64.8673C78.6366 64.8934 78.6416 64.9194 78.6515 64.9435C78.6607 64.9657 78.6736 64.9861 78.6899 65.0037C78.7053 65.0205 78.7241 65.0339 78.7451 65.043C78.7656 65.0521 78.7877 65.0568 78.8101 65.0568L79.4589 65.0564Z" fill="#ECDB13"/>
<path fill-rule="evenodd" clip-rule="evenodd" d="M80.0217 65.1559H80.1443L79.9914 65.3725H79.8655L80.0217 65.1559Z" fill="#ECDB13"/>
<path fill-rule="evenodd" clip-rule="evenodd" d="M79.9083 65.1559H79.9846L79.8317 65.3725H79.7522L79.9083 65.1559Z" fill="#91BD40"/>
<path d="M55.8944 151.692V154.197H54.4295V147.087H57.203C57.7368 147.087 58.2056 147.185 58.6092 147.38C59.0161 147.576 59.3286 147.854 59.5467 148.215C59.7648 148.573 59.8739 148.982 59.8739 149.441C59.8739 150.138 59.6346 150.688 59.1561 151.091C58.6808 151.492 58.0217 151.692 57.1786 151.692H55.8944ZM55.8944 150.505H57.203C57.5904 150.505 57.885 150.414 58.0868 150.232C58.2919 150.05 58.3944 149.789 58.3944 149.451C58.3944 149.102 58.2919 148.821 58.0868 148.606C57.8817 148.391 57.5985 148.28 57.2372 148.274H55.8944V150.505ZM64.5711 152.332C64.5711 152.055 64.4735 151.843 64.2782 151.697C64.0829 151.547 63.7313 151.391 63.2235 151.228C62.7157 151.062 62.3137 150.899 62.0174 150.74C61.2101 150.304 60.8065 149.716 60.8065 148.977C60.8065 148.593 60.9139 148.251 61.1288 147.952C61.3469 147.649 61.6577 147.413 62.0614 147.244C62.4683 147.074 62.924 146.99 63.4286 146.99C63.9364 146.99 64.3889 147.083 64.786 147.268C65.1831 147.45 65.4907 147.709 65.7088 148.044C65.9302 148.38 66.0409 148.761 66.0409 149.187H64.576C64.576 148.861 64.4735 148.609 64.2684 148.43C64.0633 148.248 63.7752 148.157 63.4042 148.157C63.0461 148.157 62.7678 148.233 62.5692 148.386C62.3706 148.536 62.2713 148.735 62.2713 148.982C62.2713 149.213 62.3869 149.407 62.618 149.563C62.8524 149.719 63.1958 149.866 63.6483 150.002C64.4816 150.253 65.0887 150.564 65.4696 150.935C65.8504 151.306 66.0409 151.768 66.0409 152.322C66.0409 152.937 65.8081 153.42 65.3426 153.772C64.8771 154.12 64.2505 154.294 63.4627 154.294C62.9159 154.294 62.4178 154.195 61.9686 153.997C61.5194 153.795 61.176 153.52 60.9383 153.171C60.704 152.823 60.5868 152.419 60.5868 151.96H62.0565C62.0565 152.745 62.5252 153.137 63.4627 153.137C63.8111 153.137 64.0829 153.067 64.2782 152.927C64.4735 152.784 64.5711 152.585 64.5711 152.332ZM70.7235 152.332C70.7235 152.055 70.6258 151.843 70.4305 151.697C70.2352 151.547 69.8836 151.391 69.3758 151.228C68.868 151.062 68.466 150.899 68.1698 150.74C67.3625 150.304 66.9588 149.716 66.9588 148.977C66.9588 148.593 67.0663 148.251 67.2811 147.952C67.4992 147.649 67.8101 147.413 68.2137 147.244C68.6206 147.074 69.0764 146.99 69.5809 146.99C70.0887 146.99 70.5412 147.083 70.9383 147.268C71.3355 147.45 71.6431 147.709 71.8612 148.044C72.0825 148.38 72.1932 148.761 72.1932 149.187H70.7284C70.7284 148.861 70.6258 148.609 70.4208 148.43C70.2157 148.248 69.9276 148.157 69.5565 148.157C69.1984 148.157 68.9201 148.233 68.7215 148.386C68.523 148.536 68.4237 148.735 68.4237 148.982C68.4237 149.213 68.5392 149.407 68.7704 149.563C69.0047 149.719 69.3482 149.866 69.8006 150.002C70.634 150.253 71.2411 150.564 71.6219 150.935C72.0028 151.306 72.1932 151.768 72.1932 152.322C72.1932 152.937 71.9605 153.42 71.495 153.772C71.0295 154.12 70.4029 154.294 69.6151 154.294C69.0682 154.294 68.5702 154.195 68.121 153.997C67.6717 153.795 67.3283 153.52 67.0907 153.171C66.8563 152.823 66.7391 152.419 66.7391 151.96H68.2088C68.2088 152.745 68.6776 153.137 69.6151 153.137C69.9634 153.137 70.2352 153.067 70.4305 152.927C70.6258 152.784 70.7235 152.585 70.7235 152.332Z" fill="white"/>
<g filter="url(#filter2_d)">
<rect x="240.667" y="2" width="85.6389" height="85.6389" rx="10" transform="rotate(45 240.667 2)" fill="#3E83CC"/>
</g>
<rect x="240.667" y="15.1642" width="67.0218" height="67.0218" rx="10" transform="rotate(45 240.667 15.1642)" fill="white"/>
<g filter="url(#filter3_d)">
<path d="M191.223 141.193C191.223 137.22 194.239 134 197.96 134H281.487C285.208 134 288.223 137.22 288.223 141.193V159.895C288.223 163.867 285.208 167.088 281.487 167.088H197.959C194.239 167.088 191.223 163.867 191.223 159.895V141.193Z" fill="#3E83CC"/>
</g>
<path d="M231.671 76.1183V53.1934H242.854L249.564 59.9031V76.1183H231.671Z" fill="white"/>
<path d="M250.055 59.5183L243.215 52.6786C243.118 52.5807 242.987 52.5252 242.849 52.5242H239.919C239.611 52.055 239.192 51.6699 238.697 51.4038C238.203 51.1377 237.651 50.9989 237.09 51C236.53 51.0014 235.979 51.1413 235.486 51.4073C234.994 51.6732 234.574 52.0569 234.266 52.5242H231.633C231.494 52.5242 231.362 52.5791 231.264 52.6768C231.166 52.7745 231.112 52.907 231.112 53.0452V76.1563C231.112 76.2247 231.125 76.2924 231.151 76.3556C231.177 76.4188 231.216 76.4763 231.264 76.5246C231.313 76.573 231.37 76.6114 231.433 76.6376C231.496 76.6637 231.564 76.6772 231.633 76.6772H249.689C249.826 76.6764 249.958 76.6211 250.055 76.5235C250.152 76.4259 250.206 76.2939 250.206 76.1563V59.8849C250.206 59.8169 250.193 59.7495 250.167 59.6866C250.141 59.6237 250.103 59.5665 250.055 59.5183ZM243.37 54.3089L248.431 59.3704H243.37V54.3089ZM237.086 52.058C237.597 52.0605 238.093 52.2299 238.498 52.5403H235.662C236.071 52.2276 236.571 52.0582 237.086 52.058ZM232.147 75.6353V53.5661H239.276C239.379 53.8286 239.432 54.1076 239.434 54.3893V61.5957C239.434 61.9567 239.291 62.303 239.036 62.5586C238.781 62.8142 238.435 62.9583 238.074 62.9591C237.713 62.9583 237.368 62.8147 237.113 62.5598C236.858 62.3049 236.714 61.9594 236.713 61.5989V55.547C236.723 55.4379 236.773 55.3363 236.853 55.2622C236.934 55.1882 237.04 55.1471 237.149 55.1471C237.259 55.1471 237.364 55.1882 237.445 55.2622C237.525 55.3363 237.575 55.4379 237.585 55.547V61.0812C237.584 61.1494 237.597 61.2171 237.623 61.2803C237.649 61.3435 237.687 61.4009 237.735 61.4493C237.783 61.4977 237.841 61.5362 237.904 61.5624C237.967 61.5886 238.034 61.6021 238.102 61.6021C238.24 61.6013 238.372 61.546 238.469 61.4484C238.566 61.3508 238.62 61.2188 238.62 61.0812V55.547C238.62 55.1555 238.465 54.7801 238.188 54.5033C237.911 54.2265 237.536 54.071 237.144 54.071C236.753 54.071 236.377 54.2265 236.1 54.5033C235.824 54.7801 235.668 55.1555 235.668 55.547V61.5957C235.669 62.2325 235.922 62.843 236.373 63.2933C236.823 63.7436 237.433 63.9969 238.07 63.9978C238.707 63.9961 239.317 63.7419 239.767 63.291C240.217 62.8401 240.469 62.2293 240.469 61.5925V54.3861C240.467 54.1086 240.433 53.8323 240.366 53.5629H242.318V59.8817C242.319 60.0196 242.374 60.1516 242.472 60.2491C242.569 60.3467 242.701 60.4018 242.839 60.4027H249.158V75.6321L232.147 75.6353Z" fill="#474747"/>
<path d="M246.723 65.9464H234.594C234.456 65.9464 234.323 66.0013 234.225 66.099C234.128 66.1967 234.073 66.3292 234.073 66.4673C234.073 66.6055 234.128 66.738 234.225 66.8357C234.323 66.9334 234.456 66.9883 234.594 66.9883H246.723C246.861 66.9883 246.994 66.9334 247.092 66.8357C247.189 66.738 247.244 66.6055 247.244 66.4673C247.244 66.3292 247.189 66.1967 247.092 66.099C246.994 66.0013 246.861 65.9464 246.723 65.9464Z" fill="#474747" stroke="#474747" stroke-width="0.2"/>
<path d="M246.723 69.0145H234.593C234.522 69.0088 234.45 69.0181 234.382 69.0416C234.314 69.0652 234.252 69.1025 234.199 69.1513C234.146 69.2 234.104 69.2592 234.075 69.325C234.046 69.3909 234.031 69.462 234.031 69.5338C234.031 69.6057 234.046 69.6768 234.075 69.7426C234.104 69.8084 234.146 69.8676 234.199 69.9164C234.252 69.9651 234.314 70.0025 234.382 70.026C234.45 70.0496 234.522 70.0588 234.593 70.0532H246.723C246.795 70.0588 246.867 70.0496 246.934 70.026C247.002 70.0025 247.065 69.9651 247.117 69.9164C247.17 69.8676 247.212 69.8084 247.241 69.7426C247.27 69.6768 247.285 69.6057 247.285 69.5338C247.285 69.462 247.27 69.3909 247.241 69.325C247.212 69.2592 247.17 69.2 247.117 69.1513C247.065 69.1025 247.002 69.0652 246.934 69.0416C246.867 69.0181 246.795 69.0088 246.723 69.0145Z" fill="#474747" stroke="#474747" stroke-width="0.2"/>
<path d="M246.723 72.0788H234.594C234.456 72.0788 234.323 72.1337 234.225 72.2314C234.128 72.3291 234.073 72.4616 234.073 72.5997C234.073 72.7379 234.128 72.8704 234.225 72.9681C234.323 73.0658 234.456 73.1207 234.594 73.1207H246.723C246.861 73.1207 246.994 73.0658 247.092 72.9681C247.189 72.8704 247.244 72.7379 247.244 72.5997C247.244 72.4616 247.189 72.3291 247.092 72.2314C246.994 72.1337 246.861 72.0788 246.723 72.0788Z" fill="#474747" stroke="#474747" stroke-width="0.2"/>
<path d="M218.064 145.692V148.197H216.599V141.087H219.373C219.907 141.087 220.375 141.185 220.779 141.38C221.186 141.576 221.498 141.854 221.716 142.215C221.935 142.573 222.044 142.982 222.044 143.441C222.044 144.138 221.804 144.688 221.326 145.091C220.851 145.492 220.191 145.692 219.348 145.692H218.064ZM218.064 144.505H219.373C219.76 144.505 220.055 144.414 220.256 144.232C220.462 144.05 220.564 143.789 220.564 143.451C220.564 143.102 220.462 142.821 220.256 142.606C220.051 142.391 219.768 142.28 219.407 142.274H218.064V144.505ZM225.686 145.594H224.519V148.197H223.054V141.087H225.696C226.536 141.087 227.184 141.275 227.639 141.649C228.095 142.023 228.323 142.552 228.323 143.236C228.323 143.721 228.217 144.126 228.005 144.452C227.797 144.774 227.48 145.031 227.053 145.223L228.591 148.128V148.197H227.019L225.686 145.594ZM224.519 144.408H225.701C226.069 144.408 226.353 144.315 226.555 144.129C226.757 143.941 226.858 143.682 226.858 143.353C226.858 143.018 226.762 142.754 226.57 142.562C226.381 142.37 226.09 142.274 225.696 142.274H224.519V144.408ZM235.281 144.803C235.281 145.503 235.157 146.117 234.91 146.644C234.662 147.171 234.308 147.578 233.845 147.865C233.386 148.151 232.859 148.294 232.263 148.294C231.674 148.294 231.148 148.153 230.686 147.87C230.224 147.586 229.866 147.183 229.612 146.659C229.358 146.131 229.229 145.526 229.226 144.842V144.491C229.226 143.791 229.352 143.176 229.602 142.645C229.856 142.111 230.213 141.703 230.671 141.419C231.134 141.133 231.661 140.99 232.254 140.99C232.846 140.99 233.372 141.133 233.831 141.419C234.293 141.703 234.649 142.111 234.9 142.645C235.154 143.176 235.281 143.789 235.281 144.486V144.803ZM233.796 144.481C233.796 143.736 233.663 143.169 233.396 142.782C233.129 142.394 232.748 142.201 232.254 142.201C231.762 142.201 231.383 142.393 231.116 142.777C230.849 143.158 230.714 143.718 230.711 144.457V144.803C230.711 145.529 230.844 146.092 231.111 146.493C231.378 146.893 231.762 147.093 232.263 147.093C232.755 147.093 233.132 146.901 233.396 146.517C233.66 146.13 233.793 145.567 233.796 144.828V144.481ZM237.81 145.692V148.197H236.345V141.087H239.119C239.653 141.087 240.121 141.185 240.525 141.38C240.932 141.576 241.244 141.854 241.463 142.215C241.681 142.573 241.79 142.982 241.79 143.441C241.79 144.138 241.55 144.688 241.072 145.091C240.597 145.492 239.937 145.692 239.094 145.692H237.81ZM237.81 144.505H239.119C239.506 144.505 239.801 144.414 240.003 144.232C240.208 144.05 240.31 143.789 240.31 143.451C240.31 143.102 240.208 142.821 240.003 142.606C239.797 142.391 239.514 142.28 239.153 142.274H237.81V144.505ZM247.078 145.116H244.265V147.02H247.566V148.197H242.8V141.087H247.556V142.274H244.265V143.968H247.078V145.116ZM251.057 145.594H249.89V148.197H248.425V141.087H251.067C251.907 141.087 252.555 141.275 253.01 141.649C253.466 142.023 253.694 142.552 253.694 143.236C253.694 143.721 253.588 144.126 253.377 144.452C253.168 144.774 252.851 145.031 252.424 145.223L253.963 148.128V148.197H252.39L251.057 145.594ZM249.89 144.408H251.072C251.44 144.408 251.725 144.315 251.926 144.129C252.128 143.941 252.229 143.682 252.229 143.353C252.229 143.018 252.133 142.754 251.941 142.562C251.752 142.37 251.461 142.274 251.067 142.274H249.89V144.408ZM259.92 142.274H257.742V148.197H256.277V142.274H254.129V141.087H259.92V142.274ZM263.289 144.291L264.768 141.087H266.37L264.036 145.619V148.197H262.546V145.619L260.213 141.087H261.819L263.289 144.291ZM225.588 157.594H224.421V160.197H222.957V153.087H225.598C226.438 153.087 227.086 153.275 227.542 153.649C227.997 154.023 228.225 154.552 228.225 155.236C228.225 155.721 228.119 156.126 227.908 156.452C227.699 156.774 227.382 157.031 226.956 157.223L228.494 160.128V160.197H226.921L225.588 157.594ZM224.421 156.408H225.603C225.971 156.408 226.256 156.315 226.458 156.129C226.659 155.941 226.76 155.682 226.76 155.353C226.76 155.018 226.664 154.754 226.472 154.562C226.283 154.37 225.992 154.274 225.598 154.274H224.421V156.408ZM233.621 157.116H230.808V159.02H234.109V160.197H229.343V153.087H234.099V154.274H230.808V155.968H233.621V157.116ZM236.433 157.692V160.197H234.968V153.087H237.742C238.276 153.087 238.744 153.185 239.148 153.38C239.555 153.576 239.867 153.854 240.086 154.215C240.304 154.573 240.413 154.982 240.413 155.441C240.413 156.138 240.173 156.688 239.695 157.091C239.22 157.492 238.56 157.692 237.717 157.692H236.433ZM236.433 156.505H237.742C238.129 156.505 238.424 156.414 238.626 156.232C238.831 156.05 238.933 155.789 238.933 155.451C238.933 155.102 238.831 154.821 238.626 154.606C238.421 154.391 238.137 154.28 237.776 154.274H236.433V156.505ZM247.263 156.803C247.263 157.503 247.14 158.117 246.892 158.644C246.645 159.171 246.29 159.578 245.828 159.865C245.369 160.151 244.841 160.294 244.246 160.294C243.657 160.294 243.131 160.153 242.669 159.87C242.206 159.586 241.848 159.183 241.594 158.659C241.34 158.131 241.212 157.526 241.209 156.842V156.491C241.209 155.791 241.334 155.176 241.585 154.645C241.838 154.111 242.195 153.703 242.654 153.419C243.116 153.133 243.643 152.99 244.236 152.99C244.828 152.99 245.354 153.133 245.813 153.419C246.275 153.703 246.632 154.111 246.882 154.645C247.136 155.176 247.263 155.789 247.263 156.486V156.803ZM245.779 156.481C245.779 155.736 245.645 155.169 245.379 154.782C245.112 154.394 244.731 154.201 244.236 154.201C243.744 154.201 243.365 154.393 243.098 154.777C242.831 155.158 242.696 155.718 242.693 156.457V156.803C242.693 157.529 242.826 158.092 243.093 158.493C243.36 158.893 243.744 159.093 244.246 159.093C244.737 159.093 245.115 158.901 245.379 158.517C245.642 158.13 245.776 157.567 245.779 156.828V156.481ZM250.96 157.594H249.793V160.197H248.328V153.087H250.969C251.809 153.087 252.457 153.275 252.913 153.649C253.368 154.023 253.596 154.552 253.596 155.236C253.596 155.721 253.491 156.126 253.279 156.452C253.071 156.774 252.753 157.031 252.327 157.223L253.865 160.128V160.197H252.293L250.96 157.594ZM249.793 156.408H250.974C251.342 156.408 251.627 156.315 251.829 156.129C252.031 155.941 252.131 155.682 252.131 155.353C252.131 155.018 252.035 154.754 251.843 154.562C251.655 154.37 251.363 154.274 250.969 154.274H249.793V156.408ZM259.822 154.274H257.644V160.197H256.179V154.274H254.031V153.087H259.822V154.274Z" fill="white"/>
<g filter="url(#filter4_d)">
<rect x="417.779" y="2" width="85.6389" height="85.6389" rx="10" transform="rotate(45 417.779 2)" fill="#2AA6B2"/>
</g>
<rect x="417.779" y="15.1642" width="67.0218" height="67.0218" rx="10" transform="rotate(45 417.779 15.1642)" fill="white"/>
<g filter="url(#filter5_d)">
<path d="M368.335 141.193C368.335 137.22 371.351 134 375.071 134H458.599C462.319 134 465.335 137.22 465.335 141.193V159.895C465.335 163.867 462.319 167.088 458.599 167.088H375.071C371.351 167.088 368.335 163.867 368.335 159.895V141.193Z" fill="#2AA6B2"/>
</g>
<path d="M405.574 56.2003V63.0072L402.383 64.2432L399.193 63.0072V56.2003H405.574Z" fill="#EDB984"/>
<g style="mix-blend-mode:multiply" opacity="0.29">
<g style="mix-blend-mode:multiply">
<path d="M405.574 56.2003V63.0072L402.383 64.2432L399.193 63.0072V56.2003H405.574Z" fill="#EDB984"/>
</g>
</g>
<path d="M412.877 69.965H391.883C391.883 69.965 391.883 69.7284 391.918 69.3351C392.288 65.4911 394.822 62.4158 398.098 61.7327L399.195 61.5051C399.428 62.1631 399.86 62.7327 400.43 63.1356C401 63.5384 401.681 63.7547 402.379 63.7547C403.077 63.7547 403.757 63.5384 404.328 63.1356C404.898 62.7327 405.329 62.1631 405.562 61.5051L406.662 61.7327C409.935 62.4158 412.469 65.497 412.839 69.3351C412.877 69.7284 412.877 69.965 412.877 69.965Z" fill="#2AA6B2"/>
<path opacity="0.1" d="M406.792 56.774C406.719 57.1205 406.594 57.4536 406.42 57.7617C405.532 59.2668 403.977 60.9907 402.383 60.9907C400.789 60.9907 399.231 59.2668 398.344 57.7617C398.17 57.454 398.045 57.1207 397.974 56.774L397.51 53.4386C397.51 53.4386 397.285 49.2988 399.831 48.3969C400.33 48.1938 400.86 48.0768 401.399 48.051H403.368C403.906 48.0772 404.436 48.1941 404.935 48.3969C407.481 49.3136 407.203 51.7679 407.301 53.3321C407.304 53.3883 406.792 56.774 406.792 56.774Z" fill="#112530"/>
<path d="M406.792 56.4693C406.719 56.8157 406.594 57.1488 406.42 57.4569C405.532 58.962 403.977 60.6859 402.383 60.6859C400.789 60.6859 399.231 58.962 398.344 57.4569C398.17 57.1492 398.045 56.8159 397.974 56.4693L397.51 53.1338C397.51 53.1338 397.285 48.9941 399.831 48.0922C400.33 47.8891 400.86 47.7721 401.399 47.7462H403.368C403.906 47.7724 404.436 47.8894 404.935 48.0922C407.481 49.0088 407.203 51.4631 407.301 53.0274C407.304 53.0836 406.792 56.4693 406.792 56.4693Z" fill="#EDB984"/>
<path d="M407.951 51.0551C407.951 51.0551 407.528 50.4637 406.91 50.5288C406.292 50.5938 405.323 48.3199 405.323 48.3199C404.328 48.3988 403.329 48.4097 402.333 48.3524C401.026 48.2696 399.595 48.0301 398.743 47.4328C398.602 47.3381 398.474 47.2258 398.362 47.0987C398.957 46.7924 399.581 46.5448 400.225 46.3594C400.906 46.1549 401.61 46.0357 402.321 46.0046H402.342C403.058 45.9742 403.772 46.0951 404.438 46.3594C405.007 46.5991 405.513 46.9664 405.917 47.4328C406.108 47.6488 406.279 47.8814 406.428 48.1277C406.428 48.1277 408.336 48.7014 407.951 51.0551Z" fill="#593A35"/>
<path d="M405.92 47.4328C405.071 48.0242 403.643 48.2696 402.333 48.3524C401.336 48.4097 400.336 48.3988 399.34 48.3199C399.34 48.3199 398.368 50.5997 397.753 50.5288C397.137 50.4578 396.7 51.0551 396.7 51.0551C396.315 48.6895 398.223 48.1395 398.223 48.1395C398.371 47.8892 398.541 47.6527 398.731 47.4328C399.135 46.9664 399.641 46.5991 400.21 46.3594C400.876 46.0951 401.59 45.9742 402.306 46.0046H402.327C403.038 46.0357 403.742 46.1549 404.423 46.3594C404.998 46.5968 405.511 46.9642 405.92 47.4328Z" fill="#593A35"/>
<path d="M402.756 46.6491C399.03 46.2351 398.042 47.6486 397.794 49.201C397.794 49.201 398.344 50.4547 402.454 50.4547C406.564 50.4547 406.922 49.201 406.922 49.201C406.112 47.1962 404.012 46.8029 402.756 46.6491Z" fill="#593A35"/>
<path d="M407.392 54.2161C407.392 54.2161 408.486 49.8309 406.922 49.2129C406.653 49.1065 406.118 49.8428 406.118 49.8428C406.118 49.8428 406.056 51.5844 407.392 54.2161Z" fill="#593A35"/>
<path d="M397.404 54.2161C397.404 54.2161 396.289 49.754 397.856 49.1331C398.122 49.0266 398.678 49.8427 398.678 49.8427C398.678 49.8427 398.74 51.5844 397.404 54.2161Z" fill="#593A35"/>
<path d="M404.317 57.3505C404.317 57.4421 404.308 57.5333 404.287 57.6226C404.219 57.9195 404.057 58.1868 403.826 58.3855C403.444 58.7029 402.963 58.8766 402.466 58.8766C401.969 58.8766 401.488 58.7029 401.106 58.3855C400.875 58.1868 400.713 57.9195 400.644 57.6226C400.624 57.5333 400.614 57.4421 400.615 57.3505V57.3358H404.317V57.3505Z" fill="#921913"/>
<path d="M404.317 57.3505C404.317 57.4421 404.308 57.5333 404.287 57.6226H400.644C400.624 57.5333 400.614 57.4421 400.615 57.3505V57.3358H404.317V57.3505Z" fill="white"/>
<path d="M403.826 58.3854C403.444 58.7028 402.963 58.8766 402.466 58.8766C401.969 58.8766 401.488 58.7028 401.106 58.3854C401.504 58.1055 401.979 57.9553 402.466 57.9553C402.953 57.9553 403.428 58.1055 403.826 58.3854Z" fill="#EB5D67"/>
<path d="M403.267 58.8231H403.178V58.5836C404.796 58.6072 405.973 57.9508 406.673 56.632C407.003 56.0048 407.204 55.3182 407.265 54.6124H407.489C407.436 55.3515 407.235 56.0725 406.898 56.7325C406.598 57.3181 406.154 57.817 405.606 58.1814C404.908 58.624 404.093 58.8475 403.267 58.8231Z" fill="#092F43"/>
<path d="M403.347 59.1455H402.241C402.185 59.1436 402.129 59.1306 402.078 59.1073C402.027 59.0839 401.981 59.0507 401.942 59.0095C401.904 58.9683 401.874 58.92 401.854 58.8672C401.834 58.8144 401.825 58.7583 401.827 58.7019C401.825 58.6458 401.834 58.5898 401.854 58.5372C401.874 58.4846 401.904 58.4364 401.942 58.3954C401.981 58.3545 402.027 58.3215 402.078 58.2985C402.13 58.2755 402.185 58.2629 402.241 58.2614H403.347C403.46 58.2652 403.567 58.3137 403.645 58.3963C403.722 58.4788 403.764 58.5887 403.761 58.7019C403.763 58.7583 403.754 58.8144 403.734 58.8672C403.714 58.92 403.684 58.9683 403.646 59.0095C403.608 59.0507 403.561 59.0839 403.51 59.1073C403.459 59.1306 403.403 59.1436 403.347 59.1455Z" fill="#112530"/>
<path d="M408.182 53.4088C408.037 53.2417 407.834 53.1359 407.614 53.1131C407.499 53.082 407.377 53.082 407.262 53.1131V56.2387C407.378 56.2668 407.498 56.2668 407.614 56.2387C407.834 56.2162 408.037 56.1104 408.182 55.943C408.398 55.6857 408.398 53.6779 408.182 53.4088Z" fill="#112530"/>
<path d="M406.837 53.746V55.6443C406.826 55.7802 406.862 55.9157 406.94 56.0277C407.018 56.1398 407.131 56.2216 407.262 56.2594V53.1191C407.129 53.1572 407.014 53.2408 406.936 53.3554C406.858 53.4699 406.823 53.6081 406.837 53.746Z" fill="#112530"/>
<path d="M400.822 53.9589C400.822 54.3196 400.624 54.6124 400.378 54.6124C400.133 54.6124 399.938 54.3167 399.938 53.9589C399.938 53.6011 400.136 53.3083 400.378 53.3083C400.621 53.3083 400.822 53.6011 400.822 53.9589Z" fill="#352B2A"/>
<path d="M404.459 54.6123C404.702 54.6123 404.899 54.3198 404.899 53.9589C404.899 53.5979 404.702 53.3054 404.459 53.3054C404.216 53.3054 404.018 53.5979 404.018 53.9589C404.018 54.3198 404.216 54.6123 404.459 54.6123Z" fill="#352B2A"/>
<path d="M401.481 52.374C400.78 52.2485 400.059 52.3076 399.388 52.5455L399.503 52.9122C400.135 52.7385 400.795 52.6893 401.446 52.7673L401.481 52.374Z" fill="#593A35"/>
<path d="M403.566 52.365C404.269 52.255 404.989 52.3304 405.654 52.5839L405.521 52.9476C404.895 52.7593 404.237 52.696 403.587 52.7613L403.566 52.365Z" fill="#593A35"/>
<path d="M406.041 52.859H403.572C403.393 52.8441 403.215 52.8998 403.077 53.0142C402.939 53.1286 402.851 53.2926 402.833 53.471H402.099C402.08 53.2926 401.993 53.1286 401.854 53.0142C401.716 52.8998 401.539 52.8441 401.36 52.859H398.891C398.798 52.8499 398.704 52.8604 398.615 52.8896C398.526 52.9189 398.444 52.9663 398.375 53.0289C398.305 53.0914 398.249 53.1678 398.211 53.2531C398.173 53.3384 398.152 53.4307 398.152 53.5243L398.308 55.0028C398.342 55.1694 398.436 55.318 398.571 55.4208C398.707 55.5236 398.875 55.5737 399.045 55.5616H401.36C401.539 55.5773 401.717 55.5219 401.855 55.4073C401.994 55.2927 402.081 55.1283 402.099 54.9495V53.746H402.833V54.9673C402.85 55.146 402.938 55.3105 403.077 55.425C403.215 55.5396 403.393 55.595 403.572 55.5794H405.887C406.057 55.5914 406.225 55.5414 406.36 55.4385C406.496 55.3357 406.589 55.1871 406.623 55.0205L406.777 53.542C406.779 53.4471 406.761 53.3529 406.724 53.2655C406.687 53.178 406.632 53.0995 406.563 53.0349C406.493 52.9704 406.41 52.9213 406.321 52.891C406.231 52.8606 406.135 52.8497 406.041 52.859ZM401.771 54.8372C401.757 54.9873 401.685 55.1261 401.57 55.2235C401.455 55.3209 401.306 55.3691 401.156 55.3576H399.225C399.082 55.366 398.941 55.3224 398.828 55.2349C398.715 55.1474 398.638 55.0218 398.61 54.8815L398.48 53.6307C398.48 53.5521 398.496 53.4743 398.527 53.4023C398.559 53.3303 398.605 53.2656 398.663 53.2125C398.721 53.1593 398.789 53.1188 398.863 53.0936C398.938 53.0684 399.017 53.0589 399.095 53.0659H401.165C401.315 53.0536 401.464 53.1011 401.579 53.198C401.694 53.295 401.766 53.4335 401.78 53.5834L401.771 54.8372ZM406.458 53.6366L406.328 54.8874C406.3 55.0277 406.222 55.1533 406.109 55.2408C405.996 55.3283 405.855 55.3719 405.713 55.3635H403.782C403.631 55.375 403.483 55.3268 403.367 55.2294C403.252 55.132 403.18 54.9933 403.167 54.8431V53.5893C403.18 53.4394 403.252 53.3009 403.368 53.2039C403.483 53.107 403.632 53.0595 403.782 53.0719H405.852C405.929 53.0662 406.007 53.0765 406.08 53.1024C406.154 53.1282 406.221 53.1689 406.278 53.2219C406.335 53.2749 406.38 53.3391 406.411 53.4105C406.442 53.4819 406.458 53.5589 406.458 53.6366Z" fill="#E3ECED"/>
<path d="M414.492 74.0012L414.4 74.0396C414.323 74.0692 414.247 74.0929 414.164 74.1165L413.898 74.1904C412.809 74.4861 411.57 74.0544 411.133 73.2206L410.621 72.2448L410.574 72.1531L409.291 69.7136L409.101 69.3558L408.853 68.8797L408.806 68.791L406.848 65.0593C406.411 64.2225 406.94 63.3029 408.031 63.0042L408.297 62.9303C408.577 62.8554 408.868 62.8255 409.158 62.8416C409.216 62.8434 409.274 62.8484 409.332 62.8564C409.551 62.88 409.994 62.9658 410.021 62.9776L410.255 63.0427C410.626 63.2108 410.916 63.519 411.062 63.9002L415.172 71.7421L415.347 72.0703C415.734 72.8095 415.355 73.6227 414.492 74.0012Z" fill="#2AA6B2"/>
<path opacity="0.2" d="M411.34 71.3992C411.141 71.6007 410.893 71.7482 410.621 71.828C410.524 71.8664 410.423 71.9019 410.326 71.9344L410.577 71.7215L409.294 68.7645L408.897 73.1497L408.46 77.9933L408.386 78.7946H407.522C407.522 78.7946 403.918 77.0441 403.927 76.9258C403.974 76.3344 407.647 74.6519 408.049 73.0492C408.605 70.8285 408.486 69.143 408.806 67.6616C408.872 67.2723 408.989 66.8935 409.155 66.535C409.155 66.535 409.267 66.736 409.45 67.0613C409.994 68.0608 411.139 70.2135 411.34 71.071C411.38 71.1768 411.38 71.2934 411.34 71.3992Z" fill="#151412"/>
<path d="M401.005 78.6082C400.488 78.5875 400.414 78.0375 400.911 77.8985C402.052 77.5732 403.043 76.9522 404.036 77.0114C405.955 77.1326 406.76 77.9369 406.76 77.9369C406.76 77.9369 406.91 78.7442 404.018 78.6969C402.859 78.6791 401.827 78.6436 401.005 78.6082Z" fill="#F6AE94"/>
<path d="M414.788 74.2378C414.755 74.2674 414.72 74.294 414.684 74.3206L409.243 77.9606L408.756 78.2888L408.182 78.6703L407.833 78.9039L407.555 79.0902L407.114 79.3859C407.004 79.4574 406.875 79.4955 406.743 79.4955C406.612 79.4955 406.483 79.4574 406.372 79.3859C406.282 79.3296 406.204 79.2551 406.145 79.1671L406.091 79.0902L405.204 77.8098C405.092 77.655 405.041 77.4644 405.06 77.2741C405.079 77.0839 405.167 76.9073 405.308 76.7778L407.836 74.6163L408.259 74.2555L408.537 74.019L409.199 73.4512L409.533 73.1555L410.627 72.2182L410.879 72.0053L411.636 71.3577L412.26 70.8254C412.627 70.5432 413.077 70.3895 413.54 70.3878C413.807 70.3861 414.071 70.4375 414.318 70.5391C414.565 70.6406 414.789 70.7902 414.977 70.9792C415.193 71.1974 415.361 71.4586 415.47 71.7457C415.578 72.0329 415.626 72.3397 415.608 72.6463C415.591 72.9529 415.51 73.2524 415.369 73.5255C415.229 73.7987 415.033 74.0393 414.794 74.2319L414.788 74.2378Z" fill="#EDB984"/>
<path d="M390.224 74.0013L390.316 74.0397C390.39 74.0693 390.469 74.0929 390.549 74.1166L390.818 74.1905C391.907 74.4862 393.143 74.0545 393.58 73.2206L394.092 72.2448L394.139 72.1532L395.425 69.7048L395.612 69.347L395.86 68.8709L395.91 68.7822L397.865 65.0505C398.303 64.2137 397.776 63.2941 396.682 62.9954L396.413 62.9215C396.134 62.8466 395.844 62.8167 395.555 62.8328C395.496 62.8328 395.437 62.8328 395.378 62.8476C395.159 62.8712 394.719 62.957 394.689 62.9688L394.455 63.0339C394.085 63.2024 393.796 63.5106 393.651 63.8914L389.544 71.7333L389.372 72.0615C388.979 72.8096 389.361 73.6228 390.224 74.0013Z" fill="#2AA6B2"/>
<path opacity="0.2" d="M393.373 71.3992C393.573 71.6007 393.82 71.7482 394.092 71.828C394.19 71.8654 394.289 71.9009 394.388 71.9344L394.133 71.7215L395.42 68.7645L395.813 73.1556L396.256 77.9933L396.327 78.7946H397.191C397.191 78.7946 400.795 77.0441 400.786 76.9258C400.742 76.3344 397.07 74.6519 396.667 73.0492C396.111 70.8285 396.23 69.143 395.91 67.6616C395.843 67.2726 395.726 66.894 395.561 66.535C395.561 66.535 395.446 66.736 395.266 67.0613C394.719 68.0608 393.577 70.2135 393.373 71.071C393.337 71.1773 393.337 71.2928 393.373 71.3992Z" fill="#151412"/>
<path d="M403.708 78.6082C404.228 78.5875 404.299 78.0375 403.802 77.8985C402.661 77.5732 401.67 76.9522 400.68 77.0114C398.758 77.1326 397.956 77.9369 397.956 77.9369C397.956 77.9369 397.806 78.7442 400.698 78.6969C401.854 78.6791 402.886 78.6436 403.708 78.6082Z" fill="#F6AE94"/>
<path d="M389.928 74.2378L390.029 74.3206L395.473 77.9606L395.961 78.2888L396.534 78.6703L396.883 78.9039L397.158 79.0902L397.599 79.3859C397.709 79.4574 397.838 79.4955 397.97 79.4955C398.102 79.4955 398.23 79.4574 398.341 79.3859C398.432 79.3297 398.511 79.2552 398.572 79.167L398.625 79.0902L399.512 77.8098C399.625 77.6555 399.677 77.465 399.659 77.2746C399.64 77.0842 399.552 76.9074 399.411 76.7778L396.88 74.6163L396.46 74.2555L396.182 74.0189L395.517 73.4512L395.186 73.1555L394.092 72.2182L393.837 72.0052L393.081 71.3577L392.457 70.8254C392.09 70.5424 391.64 70.3886 391.176 70.3878C390.909 70.3864 390.645 70.438 390.398 70.5395C390.152 70.641 389.928 70.7905 389.739 70.9792C389.525 71.1985 389.359 71.46 389.251 71.7471C389.144 72.0342 389.097 72.3405 389.115 72.6466C389.132 72.9526 389.214 73.2517 389.353 73.5246C389.493 73.7976 389.688 74.0384 389.925 74.2319L389.928 74.2378Z" fill="#EDB984"/>
<path d="M410.834 79.1907H392.971L392.48 68.6343C392.48 68.4367 392.559 68.2472 392.699 68.1074C392.838 67.9677 393.028 67.8892 393.226 67.8892H410.58C410.778 67.8892 410.967 67.9677 411.107 68.1074C411.247 68.2472 411.325 68.4367 411.325 68.6343L410.834 79.1907Z" fill="#EAEAEA"/>
<path d="M398.499 72.3772C398.499 72.3772 399.344 72.7306 400.195 73.5419C401.418 74.8395 402.367 74.9961 402.367 74.9961C402.367 74.9961 401.835 75.1353 399.756 73.4145C399.169 72.8696 398.269 72.4756 398.269 72.4756L398.112 72.5615V72.5831C398.237 72.6317 398.848 72.8879 399.668 73.5475C400.393 74.1275 401.253 74.8802 402.371 75.1085C403.102 75.2394 403.985 74.8049 403.985 74.8049C403.985 74.8049 403.283 74.5557 403.014 74.2836C402.745 74.0114 402.74 73.8952 402.531 73.6634C402.323 73.4316 401.962 73.1284 401.467 72.9682C400.984 72.7654 400.545 72.667 400.545 72.667C400.545 72.667 401.056 72.7075 401.495 72.8697C401.934 73.032 402.416 73.3796 402.416 73.3796C402.416 73.3796 402.35 73.2754 402.285 72.9451C402.219 72.6148 402.219 72.5047 402.219 72.5047C402.219 72.5047 401.55 72.0587 400.573 71.9951C400.508 71.9908 400.442 71.9888 400.376 71.9888C399.455 71.9888 398.499 72.3774 398.499 72.3774" fill="url(#paint0_linear)"/>
<path d="M398.609 72.5104L398.834 72.632C398.834 72.632 399.438 72.2496 400.37 72.2557C401.302 72.2614 402.202 72.632 402.202 72.632C402.202 72.632 401.62 72.2419 400.406 72.1583C399.251 72.1583 398.609 72.5104 398.609 72.5104Z" fill="#8BC540"/>
<path d="M402.363 71.2396C402.363 71.2396 402.542 71.5678 403.025 72.074C403.434 72.5405 403.563 72.6804 403.727 72.8853C403.891 73.0901 404.038 73.5609 404.038 73.5609C404.038 73.5609 403.928 73.3179 403.705 73.0281C403.483 72.7383 402.974 72.2982 402.762 72.0586C402.549 71.8189 402.337 71.4253 402.337 71.4253C402.337 71.4253 402.082 72.7384 402.703 73.7116C403.325 74.6849 404.111 74.7702 404.111 74.7702C404.111 74.7702 404.294 74.0634 404.166 73.6154C404.015 73.1754 403.958 72.8853 403.105 72.0045C402.63 71.4867 402.381 71 402.381 71L402.363 71.2396Z" fill="url(#paint1_linear)"/>
<path d="M402.411 71.4445L402.532 71.6338C402.532 71.6338 402.424 72.8086 402.681 73.3487C403.095 74.3183 403.91 74.5384 403.91 74.5384C403.91 74.5384 403.274 74.5539 402.656 73.4608C402.235 72.3792 402.411 71.4445 402.411 71.4445Z" fill="#009FAE"/>
<path d="M392.971 79.1759H410.834V79.2883C410.834 79.5345 410.736 79.7707 410.562 79.9448C410.388 80.1189 410.152 80.2168 409.906 80.2168H393.899C393.653 80.2168 393.417 80.1189 393.243 79.9448C393.069 79.7707 392.971 79.5345 392.971 79.2883V79.1759Z" fill="#C8C8C8"/>
<path d="M410.799 79.3031H393.006C392.948 79.3031 392.893 79.2801 392.852 79.239C392.811 79.198 392.788 79.1424 392.788 79.0843C392.788 79.026 392.811 78.97 392.852 78.9285C392.892 78.887 392.948 78.8633 393.006 78.8625H410.799C410.857 78.8625 410.914 78.8859 410.955 78.9275C410.997 78.9691 411.02 79.0255 411.02 79.0843C411.02 79.1133 411.015 79.142 411.003 79.1687C410.992 79.1955 410.976 79.2197 410.955 79.2401C410.935 79.2605 410.91 79.2765 410.883 79.2873C410.856 79.2982 410.828 79.3035 410.799 79.3031Z" fill="#57657D"/>
<path d="M439.68 56.1516C439.68 61.1228 436.502 62.2764 432.451 62.2764C428.401 62.2764 425.02 61.1228 425.02 56.1516C425.02 51.1805 428.3 47.1475 432.348 47.1475C436.396 47.1475 439.68 51.1923 439.68 56.1516Z" fill="#593A35"/>
<path d="M434.59 57.1813V63.9728L432.369 65.203L430.144 63.9728V57.1813H434.59Z" fill="#EDB984"/>
<g style="mix-blend-mode:multiply" opacity="0.29">
<g style="mix-blend-mode:multiply">
<path d="M434.59 57.1813V63.9728L432.369 65.203L430.144 63.9728V57.1813H434.59Z" fill="#EDB984"/>
</g>
</g>
<path d="M441.063 70.4487H423.675C423.675 70.4487 423.675 70.2127 423.704 69.8203C423.999 65.9849 426.109 62.9167 428.823 62.2352L429.731 62.008C430.147 63.3238 432.369 64.7753 432.369 64.7753C432.369 64.7753 434.591 63.3238 435.006 62.008L435.915 62.2352C438.626 62.9167 440.727 65.9908 441.034 69.8203C441.063 70.2127 441.063 70.4487 441.063 70.4487Z" fill="#2AA6B2"/>
<path d="M436.546 57.4498C436.479 57.7948 436.36 58.1278 436.195 58.4381C435.354 59.9369 433.879 61.6569 432.36 61.6569C430.84 61.6569 429.374 59.9369 428.524 58.4381C428.359 58.1278 428.241 57.7948 428.173 57.4498L427.734 54.1219C427.734 54.1219 427.521 49.9915 429.932 49.1065C430.399 48.9044 430.899 48.7875 431.407 48.7613H433.271C433.78 48.7875 434.279 48.9044 434.747 49.1065C437.157 50.0181 436.894 52.4698 436.983 54.0275C437.024 54.0747 436.546 57.4498 436.546 57.4498Z" fill="#EDB984"/>
<path d="M434.298 58.2109C434.299 58.3022 434.289 58.3933 434.269 58.4823C434.2 58.7794 434.039 59.047 433.809 59.2464C433.427 59.5631 432.947 59.7365 432.451 59.7365C431.956 59.7365 431.476 59.5631 431.094 59.2464C430.864 59.047 430.702 58.7794 430.634 58.4823C430.614 58.3933 430.604 58.3022 430.605 58.2109H434.298Z" fill="#921913"/>
<path d="M434.298 58.2109C434.299 58.3022 434.289 58.3933 434.269 58.4823H430.634C430.614 58.3933 430.604 58.3022 430.605 58.2109H434.298Z" fill="white"/>
<path d="M433.808 59.2465C433.427 59.5632 432.947 59.7365 432.451 59.7365C431.956 59.7365 431.476 59.5632 431.094 59.2465C431.492 58.9671 431.966 58.8173 432.451 58.8173C432.937 58.8173 433.411 58.9671 433.808 59.2465Z" fill="#EB5D67"/>
<path d="M433.251 59.8011H433.162V59.5621C434.776 59.5857 435.95 58.9337 436.65 57.6149C436.978 56.9901 437.179 56.3061 437.24 55.6028H437.464C437.411 56.3405 437.211 57.0599 436.874 57.7182C436.575 58.3024 436.131 58.8002 435.585 59.1638C434.888 59.6044 434.075 59.8263 433.251 59.8011Z" fill="#092F43"/>
<path d="M433.331 60.1198H432.227C432.171 60.1183 432.116 60.1057 432.065 60.0828C432.014 60.0598 431.968 60.0269 431.929 59.9861C431.891 59.9452 431.861 59.8971 431.841 59.8447C431.821 59.7922 431.812 59.7363 431.814 59.6803C431.812 59.6242 431.821 59.5683 431.841 59.5158C431.861 59.4634 431.891 59.4153 431.929 59.3744C431.968 59.3336 432.014 59.3007 432.065 59.2777C432.116 59.2548 432.171 59.2422 432.227 59.2407H433.331C433.444 59.2445 433.55 59.2929 433.628 59.3753C433.705 59.4576 433.747 59.5673 433.744 59.6803C433.747 59.7932 433.705 59.9029 433.628 59.9852C433.55 60.0676 433.444 60.116 433.331 60.1198Z" fill="#112530"/>
<path d="M438.154 54.3992C438.01 54.2321 437.807 54.1266 437.588 54.1042C437.473 54.0746 437.352 54.0746 437.237 54.1042V57.2226C437.352 57.2537 437.473 57.2537 437.588 57.2226C437.807 57.1999 438.01 57.0944 438.154 56.9276C438.37 56.6679 438.37 54.6647 438.154 54.3992Z" fill="#112530"/>
<path d="M436.812 54.7326V56.6296C436.802 56.7647 436.839 56.8991 436.916 57.0103C436.993 57.1215 437.107 57.2027 437.237 57.2403V54.1071C437.104 54.1451 436.989 54.2286 436.911 54.3429C436.833 54.4572 436.798 54.5951 436.812 54.7326Z" fill="#112530"/>
<path d="M430.811 54.948C430.811 55.3079 430.613 55.6 430.369 55.6C430.124 55.6 429.929 55.3049 429.929 54.948C429.929 54.591 430.127 54.296 430.369 54.296C430.61 54.296 430.811 54.588 430.811 54.948Z" fill="#352B2A"/>
<path d="M434.44 55.597C434.683 55.597 434.88 55.3051 434.88 54.945C434.88 54.5849 434.683 54.293 434.44 54.293C434.197 54.293 434 54.5849 434 54.945C434 55.3051 434.197 55.597 434.44 55.597Z" fill="#352B2A"/>
<path d="M431.419 52.877C430.723 52.9638 430.044 53.1557 429.406 53.4464L429.566 53.6293C430.162 53.3866 430.783 53.2124 431.419 53.11V52.877Z" fill="#593A35"/>
<path d="M433.617 52.8622C434.308 52.9667 434.98 53.1767 435.608 53.4847L435.428 53.6588C434.837 53.3987 434.217 53.2086 433.581 53.0923L433.617 52.8622Z" fill="#593A35"/>
<path d="M443.565 74.0567L443.474 74.0951C443.397 74.1246 443.32 74.1482 443.238 74.1718L442.972 74.2455C441.887 74.5406 440.65 74.1098 440.214 73.2778L439.703 72.3043L439.656 72.2128L438.376 69.7788L438.187 69.4219L437.939 68.9469L437.892 68.8584L435.939 65.1351C435.502 64.3002 436.03 63.3827 437.119 63.0847L437.385 63.0109C437.664 62.9362 437.954 62.9064 438.243 62.9224C438.301 62.9243 438.359 62.9292 438.417 62.9372C438.635 62.9608 439.078 63.0463 439.105 63.0581L439.338 63.1231C439.708 63.2909 439.998 63.5984 440.143 63.9786L444.244 71.8027L444.418 72.1302C444.804 72.8678 444.427 73.6791 443.565 74.0567Z" fill="#2AA6B2"/>
<path opacity="0.2" d="M440.42 71.4605C440.221 71.6615 439.974 71.8087 439.703 71.8883C439.606 71.9267 439.505 71.9621 439.408 71.9945L439.659 71.7821L438.378 68.8319L437.983 73.2071L437.546 78.0396L437.473 78.8391H436.611C436.611 78.8391 433.015 77.0926 433.024 76.9746C433.071 76.3845 436.735 74.7058 437.136 73.1068C437.691 70.8911 437.573 69.2095 437.892 67.7314C437.958 67.343 438.075 66.9651 438.24 66.6074C438.24 66.6074 438.352 66.808 438.535 67.1325C439.078 68.1297 440.219 70.2775 440.42 71.1331C440.46 71.2386 440.46 71.355 440.42 71.4605Z" fill="#151412"/>
<path d="M430.109 78.6533C429.592 78.6327 429.519 78.0839 430.014 77.9453C431.153 77.6208 432.141 77.0012 433.133 77.0602C435.047 77.1812 435.85 77.9836 435.85 77.9836C435.85 77.9836 436 78.7891 433.115 78.7419C431.959 78.7242 430.929 78.6888 430.109 78.6533Z" fill="#F6AE94"/>
<path d="M443.86 74.2928C443.827 74.3223 443.792 74.3488 443.757 74.3754L438.328 78.0071L437.841 78.3346L437.269 78.7152L436.921 78.9483L436.644 79.1341L436.204 79.4292C436.094 79.5005 435.965 79.5385 435.834 79.5385C435.702 79.5385 435.574 79.5005 435.463 79.4292C435.373 79.373 435.296 79.2987 435.236 79.2108L435.183 79.1341L434.298 77.8567C434.186 77.7022 434.135 77.512 434.154 77.3222C434.173 77.1324 434.261 76.9562 434.401 76.827L436.924 74.6704L437.346 74.3105L437.623 74.0744L438.284 73.508L438.617 73.213L439.709 72.2777L439.96 72.0653L440.715 71.4192L441.337 70.8882C441.704 70.6066 442.153 70.4532 442.615 70.4515C442.881 70.4498 443.145 70.5011 443.391 70.6024C443.637 70.7037 443.861 70.853 444.049 71.0416C444.264 71.2593 444.432 71.5198 444.54 71.8064C444.649 72.0929 444.696 72.399 444.679 72.7049C444.661 73.0108 444.58 73.3096 444.44 73.5821C444.3 73.8546 444.104 74.0947 443.866 74.2869L443.86 74.2928Z" fill="#EDB984"/>
<path d="M421.122 74.0568L421.214 74.0952C421.288 74.1247 421.367 74.1483 421.447 74.1719L421.715 74.2456C422.801 74.5407 424.034 74.1099 424.471 73.278L424.981 72.3044L425.029 72.2129L426.312 69.7701L426.498 69.4131L426.746 68.9381L426.796 68.8496L428.746 65.1264C429.182 64.2915 428.657 63.3739 427.566 63.076L427.297 63.0022C427.019 62.9275 426.73 62.8976 426.442 62.9137C426.383 62.9137 426.324 62.9137 426.265 62.9285C426.046 62.9521 425.607 63.0376 425.577 63.0494L425.344 63.1143C424.974 63.2825 424.686 63.59 424.542 63.9699L420.444 71.794L420.273 72.1215C419.88 72.8679 420.261 73.6792 421.122 74.0568Z" fill="#2AA6B2"/>
<path opacity="0.2" d="M424.264 71.4605C424.463 71.6615 424.71 71.8087 424.981 71.8883C425.08 71.9257 425.178 71.9611 425.276 71.9945L425.023 71.7821L426.306 68.8319L426.698 73.213L427.141 78.0396L427.212 78.8391H428.073C428.073 78.8391 431.67 77.0926 431.661 76.9746C431.616 76.3845 427.952 74.7058 427.551 73.1068C426.996 70.8911 427.114 69.2095 426.796 67.7314C426.728 67.3434 426.611 66.9656 426.448 66.6074C426.448 66.6074 426.333 66.808 426.153 67.1325C425.607 68.1297 424.468 70.2775 424.264 71.1331C424.228 71.2392 424.228 71.3544 424.264 71.4605Z" fill="#151412"/>
<path d="M434.576 78.6533C435.095 78.6327 435.166 78.0839 434.67 77.9453C433.531 77.6208 432.543 77.0012 431.554 77.0602C429.637 77.1812 428.837 77.9836 428.837 77.9836C428.837 77.9836 428.687 78.7891 431.572 78.7419C432.726 78.7242 433.755 78.6888 434.576 78.6533Z" fill="#F6AE94"/>
<path d="M420.827 74.2927L420.928 74.3753L426.359 78.0071L426.846 78.3346L427.418 78.7152L427.766 78.9482L428.041 79.1341L428.48 79.4291C428.591 79.5005 428.719 79.5385 428.851 79.5385C428.982 79.5385 429.111 79.5005 429.221 79.4291C429.312 79.3731 429.39 79.2988 429.451 79.2108L429.504 79.1341L430.389 77.8567C430.502 77.7027 430.554 77.5126 430.536 77.3227C430.517 77.1327 430.429 76.9563 430.289 76.827L427.763 74.6704L427.345 74.3104L427.067 74.0744L426.403 73.508L426.073 73.2129L424.981 72.2777L424.728 72.0653L423.972 71.4192L423.35 70.8881C422.984 70.6058 422.535 70.4523 422.072 70.4515C421.806 70.4501 421.542 70.5016 421.296 70.6029C421.05 70.7042 420.827 70.8533 420.639 71.0416C420.425 71.2604 420.259 71.5213 420.152 71.8078C420.045 72.0942 419.998 72.3998 420.016 72.7052C420.033 73.0105 420.114 73.3089 420.253 73.5812C420.393 73.8535 420.587 74.0939 420.824 74.2868L420.827 74.2927Z" fill="#EDB984"/>
<path d="M440.801 79.2346H422.978L422.488 68.7021C422.488 68.505 422.567 68.3159 422.706 68.1764C422.845 68.037 423.035 67.9587 423.232 67.9587H440.547C440.744 67.9587 440.933 68.037 441.073 68.1764C441.212 68.3159 441.29 68.505 441.29 68.7021L440.801 79.2346Z" fill="#EAEAEA"/>
<path d="M428.499 72.3772C428.499 72.3772 429.344 72.7306 430.195 73.5419C431.418 74.8395 432.367 74.9961 432.367 74.9961C432.367 74.9961 431.835 75.1353 429.756 73.4145C429.169 72.8696 428.269 72.4756 428.269 72.4756L428.112 72.5615V72.5831C428.237 72.6317 428.848 72.8879 429.668 73.5475C430.393 74.1275 431.253 74.8802 432.371 75.1085C433.102 75.2394 433.985 74.8049 433.985 74.8049C433.985 74.8049 433.283 74.5557 433.014 74.2836C432.745 74.0114 432.74 73.8952 432.531 73.6634C432.323 73.4316 431.962 73.1284 431.467 72.9682C430.984 72.7654 430.545 72.667 430.545 72.667C430.545 72.667 431.056 72.7075 431.495 72.8697C431.934 73.032 432.416 73.3796 432.416 73.3796C432.416 73.3796 432.35 73.2754 432.285 72.9451C432.219 72.6148 432.219 72.5047 432.219 72.5047C432.219 72.5047 431.55 72.0587 430.573 71.9951C430.508 71.9908 430.442 71.9888 430.376 71.9888C429.455 71.9888 428.499 72.3774 428.499 72.3774" fill="url(#paint2_linear)"/>
<path d="M428.609 72.5104L428.834 72.632C428.834 72.632 429.438 72.2496 430.37 72.2557C431.302 72.2614 432.202 72.632 432.202 72.632C432.202 72.632 431.62 72.2419 430.406 72.1583C429.251 72.1583 428.609 72.5104 428.609 72.5104Z" fill="#8BC540"/>
<path d="M432.363 71.2396C432.363 71.2396 432.542 71.5678 433.025 72.074C433.434 72.5405 433.563 72.6804 433.727 72.8853C433.891 73.0901 434.038 73.5609 434.038 73.5609C434.038 73.5609 433.928 73.3179 433.705 73.0281C433.483 72.7383 432.974 72.2982 432.762 72.0586C432.549 71.8189 432.337 71.4253 432.337 71.4253C432.337 71.4253 432.082 72.7384 432.703 73.7116C433.325 74.6849 434.111 74.7702 434.111 74.7702C434.111 74.7702 434.294 74.0634 434.166 73.6154C434.015 73.1754 433.958 72.8853 433.105 72.0045C432.63 71.4867 432.381 71 432.381 71L432.363 71.2396Z" fill="url(#paint3_linear)"/>
<path d="M432.411 71.4445L432.532 71.6338C432.532 71.6338 432.424 72.8086 432.681 73.3487C433.095 74.3183 433.91 74.5384 433.91 74.5384C433.91 74.5384 433.274 74.5539 432.656 73.4608C432.235 72.3792 432.411 71.4445 432.411 71.4445Z" fill="#009FAE"/>
<path d="M422.978 79.2314H440.801V79.3436C440.801 79.5892 440.703 79.8249 440.529 79.9986C440.355 80.1723 440.12 80.2699 439.874 80.2699H423.904C423.659 80.2699 423.423 80.1723 423.249 79.9986C423.076 79.8249 422.978 79.5892 422.978 79.3436V79.2314Z" fill="#C8C8C8"/>
<path d="M440.765 79.3466H423.013C422.956 79.3466 422.9 79.3236 422.859 79.2826C422.818 79.2417 422.795 79.1862 422.795 79.1283C422.795 79.0701 422.818 79.0142 422.859 78.9728C422.9 78.9314 422.955 78.9078 423.013 78.907H440.765C440.824 78.907 440.88 78.9303 440.922 78.9718C440.963 79.0133 440.986 79.0696 440.986 79.1283C440.986 79.1572 440.981 79.1858 440.97 79.2125C440.958 79.2392 440.942 79.2634 440.921 79.2837C440.901 79.304 440.876 79.32 440.85 79.3308C440.823 79.3416 440.794 79.347 440.765 79.3466Z" fill="#57657D"/>
<path d="M427.389 52.8769C428.89 52.797 430.352 52.3677 431.658 51.623C433.965 50.3603 434.313 50.1479 434.313 50.1479C434.623 50.76 434.982 51.3461 435.387 51.9003C435.879 52.6135 436.514 53.2163 437.252 53.6705L437.791 52.8739C437.791 52.8739 437.709 50.7202 436.611 49.7408C435.514 48.7613 434.602 47.5281 432.366 47.9381C430.13 48.3482 427.383 49.9296 427.256 51.0684C427.161 51.6734 427.206 52.2922 427.389 52.8769Z" fill="#593A35"/>
<path d="M389.347 149.803C389.347 150.503 389.224 151.117 388.976 151.644C388.729 152.171 388.374 152.578 387.912 152.865C387.453 153.151 386.925 153.294 386.33 153.294C385.741 153.294 385.215 153.153 384.753 152.87C384.29 152.586 383.932 152.183 383.678 151.659C383.424 151.131 383.296 150.526 383.293 149.842V149.491C383.293 148.791 383.418 148.176 383.669 147.645C383.922 147.111 384.279 146.703 384.738 146.419C385.2 146.133 385.727 145.99 386.32 145.99C386.912 145.99 387.438 146.133 387.897 146.419C388.359 146.703 388.716 147.111 388.966 147.645C389.22 148.176 389.347 148.789 389.347 149.486V149.803ZM387.863 149.481C387.863 148.736 387.729 148.169 387.463 147.782C387.196 147.394 386.815 147.201 386.32 147.201C385.828 147.201 385.449 147.393 385.182 147.777C384.915 148.158 384.78 148.718 384.777 149.457V149.803C384.777 150.529 384.91 151.092 385.177 151.493C385.444 151.893 385.828 152.093 386.33 152.093C386.821 152.093 387.199 151.901 387.463 151.517C387.726 151.13 387.86 150.567 387.863 149.828V149.481ZM393.044 150.594H391.877V153.197H390.412V146.087H393.053C393.893 146.087 394.541 146.275 394.997 146.649C395.452 147.023 395.68 147.552 395.68 148.236C395.68 148.721 395.574 149.126 395.363 149.452C395.155 149.774 394.837 150.031 394.411 150.223L395.949 153.128V153.197H394.377L393.044 150.594ZM391.877 149.408H393.058C393.426 149.408 393.711 149.315 393.913 149.129C394.115 148.941 394.215 148.682 394.215 148.353C394.215 148.018 394.119 147.754 393.927 147.562C393.739 147.37 393.447 147.274 393.053 147.274H391.877V149.408ZM401.076 150.116H398.263V152.02H401.564V153.197H396.798V146.087H401.554V147.274H398.263V148.968H401.076V150.116ZM408.205 153.197H406.74L403.888 148.519V153.197H402.423V146.087H403.888L406.745 150.775V146.087H408.205V153.197ZM409.484 153.197V146.087H411.671C412.296 146.087 412.855 146.229 413.346 146.512C413.841 146.792 414.227 147.193 414.504 147.713C414.78 148.231 414.919 148.82 414.919 149.481V149.808C414.919 150.469 414.782 151.056 414.508 151.571C414.238 152.085 413.856 152.484 413.361 152.767C412.866 153.05 412.308 153.194 411.686 153.197H409.484ZM410.949 147.274V152.02H411.657C412.23 152.02 412.668 151.833 412.97 151.458C413.273 151.084 413.428 150.549 413.434 149.852V149.476C413.434 148.753 413.284 148.207 412.985 147.835C412.685 147.461 412.248 147.274 411.671 147.274H410.949ZM419.894 151.732H417.326L416.838 153.197H415.28L417.926 146.087H419.284L421.945 153.197H420.387L419.894 151.732ZM417.721 150.545H419.499L418.605 147.884L417.721 150.545ZM430.158 147.274H427.98V153.197H426.515V147.274H424.367V146.087H430.158V147.274ZM435.275 150.116H432.463V152.02H435.763V153.197H430.998V146.087H435.754V147.274H432.463V148.968H435.275V150.116ZM440.636 151.732H438.068L437.58 153.197H436.022L438.669 146.087H440.026L442.687 153.197H441.129L440.636 151.732ZM438.463 150.545H440.241L439.347 147.884L438.463 150.545ZM445.265 146.087L447.091 151.244L448.908 146.087H450.832V153.197H449.362V151.253L449.508 147.899L447.589 153.197H446.584L444.67 147.904L444.816 151.253V153.197H443.351V146.087H445.265Z" fill="white"/>
<rect x="140" y="49" width="9" height="28" fill="#81C73C"/>
<path d="M148.112 88V38L164.112 63L148.112 88Z" fill="#81C73C"/>
<rect x="317" y="49" width="9" height="28" fill="#3E83CC"/>
<path d="M325.223 88V38L341.223 63L325.223 88Z" fill="#3E83CC"/>
<defs>
<filter id="filter0_d" x="0" y="0" width="127.112" height="127.112" filterUnits="userSpaceOnUse" color-interpolation-filters="sRGB">
<feFlood flood-opacity="0" result="BackgroundImageFix"/>
<feColorMatrix in="SourceAlpha" type="matrix" values="0 0 0 0 0 0 0 0 0 0 0 0 0 0 0 0 0 0 127 0" result="hardAlpha"/>
<feOffset dy="1"/>
<feGaussianBlur stdDeviation="1.5"/>
<feComposite in2="hardAlpha" operator="out"/>
<feColorMatrix type="matrix" values="0 0 0 0 0 0 0 0 0 0 0 0 0 0 0 0 0 0 0.21 0"/>
<feBlend mode="normal" in2="BackgroundImageFix" result="effect1_dropShadow"/>
<feBlend mode="normal" in="SourceGraphic" in2="effect1_dropShadow" result="shape"/>
</filter>
<filter id="filter1_d" x="11.1118" y="132" width="103" height="39.0877" filterUnits="userSpaceOnUse" color-interpolation-filters="sRGB">
<feFlood flood-opacity="0" result="BackgroundImageFix"/>
<feColorMatrix in="SourceAlpha" type="matrix" values="0 0 0 0 0 0 0 0 0 0 0 0 0 0 0 0 0 0 127 0" result="hardAlpha"/>
<feOffset dy="1"/>
<feGaussianBlur stdDeviation="1.5"/>
<feComposite in2="hardAlpha" operator="out"/>
<feColorMatrix type="matrix" values="0 0 0 0 0 0 0 0 0 0 0 0 0 0 0 0 0 0 0.21 0"/>
<feBlend mode="normal" in2="BackgroundImageFix" result="effect1_dropShadow"/>
<feBlend mode="normal" in="SourceGraphic" in2="effect1_dropShadow" result="shape"/>
</filter>
<filter id="filter2_d" x="177.112" y="0" width="127.112" height="127.112" filterUnits="userSpaceOnUse" color-interpolation-filters="sRGB">
<feFlood flood-opacity="0" result="BackgroundImageFix"/>
<feColorMatrix in="SourceAlpha" type="matrix" values="0 0 0 0 0 0 0 0 0 0 0 0 0 0 0 0 0 0 127 0" result="hardAlpha"/>
<feOffset dy="1"/>
<feGaussianBlur stdDeviation="1.5"/>
<feComposite in2="hardAlpha" operator="out"/>
<feColorMatrix type="matrix" values="0 0 0 0 0 0 0 0 0 0 0 0 0 0 0 0 0 0 0.21 0"/>
<feBlend mode="normal" in2="BackgroundImageFix" result="effect1_dropShadow"/>
<feBlend mode="normal" in="SourceGraphic" in2="effect1_dropShadow" result="shape"/>
</filter>
<filter id="filter3_d" x="188.223" y="132" width="103" height="39.0877" filterUnits="userSpaceOnUse" color-interpolation-filters="sRGB">
<feFlood flood-opacity="0" result="BackgroundImageFix"/>
<feColorMatrix in="SourceAlpha" type="matrix" values="0 0 0 0 0 0 0 0 0 0 0 0 0 0 0 0 0 0 127 0" result="hardAlpha"/>
<feOffset dy="1"/>
<feGaussianBlur stdDeviation="1.5"/>
<feComposite in2="hardAlpha" operator="out"/>
<feColorMatrix type="matrix" values="0 0 0 0 0 0 0 0 0 0 0 0 0 0 0 0 0 0 0.21 0"/>
<feBlend mode="normal" in2="BackgroundImageFix" result="effect1_dropShadow"/>
<feBlend mode="normal" in="SourceGraphic" in2="effect1_dropShadow" result="shape"/>
</filter>
<filter id="filter4_d" x="354.223" y="0" width="127.112" height="127.112" filterUnits="userSpaceOnUse" color-interpolation-filters="sRGB">
<feFlood flood-opacity="0" result="BackgroundImageFix"/>
<feColorMatrix in="SourceAlpha" type="matrix" values="0 0 0 0 0 0 0 0 0 0 0 0 0 0 0 0 0 0 127 0" result="hardAlpha"/>
<feOffset dy="1"/>
<feGaussianBlur stdDeviation="1.5"/>
<feComposite in2="hardAlpha" operator="out"/>
<feColorMatrix type="matrix" values="0 0 0 0 0 0 0 0 0 0 0 0 0 0 0 0 0 0 0.21 0"/>
<feBlend mode="normal" in2="BackgroundImageFix" result="effect1_dropShadow"/>
<feBlend mode="normal" in="SourceGraphic" in2="effect1_dropShadow" result="shape"/>
</filter>
<filter id="filter5_d" x="365.335" y="132" width="103" height="39.0877" filterUnits="userSpaceOnUse" color-interpolation-filters="sRGB">
<feFlood flood-opacity="0" result="BackgroundImageFix"/>
<feColorMatrix in="SourceAlpha" type="matrix" values="0 0 0 0 0 0 0 0 0 0 0 0 0 0 0 0 0 0 127 0" result="hardAlpha"/>
<feOffset dy="1"/>
<feGaussianBlur stdDeviation="1.5"/>
<feComposite in2="hardAlpha" operator="out"/>
<feColorMatrix type="matrix" values="0 0 0 0 0 0 0 0 0 0 0 0 0 0 0 0 0 0 0.21 0"/>
<feBlend mode="normal" in2="BackgroundImageFix" result="effect1_dropShadow"/>
<feBlend mode="normal" in="SourceGraphic" in2="effect1_dropShadow" result="shape"/>
</filter>
<linearGradient id="paint0_linear" x1="398.112" y1="73.5609" x2="403.985" y2="73.5609" gradientUnits="userSpaceOnUse">
<stop stop-color="#DBE9CE"/>
<stop offset="0.15" stop-color="#C5DFA7"/>
<stop offset="0.32" stop-color="#B0D682"/>
<stop offset="0.5" stop-color="#A0CE65"/>
<stop offset="0.67" stop-color="#94C950"/>
<stop offset="0.84" stop-color="#8DC644"/>
<stop offset="1" stop-color="#8BC540"/>
</linearGradient>
<linearGradient id="paint1_linear" x1="402.285" y1="72.8851" x2="404.211" y2="72.8851" gradientUnits="userSpaceOnUse">
<stop stop-color="#C3DFE2"/>
<stop offset="0.01" stop-color="#BFDEE1"/>
<stop offset="0.15" stop-color="#8DCDD4"/>
<stop offset="0.29" stop-color="#62BFC8"/>
<stop offset="0.43" stop-color="#3EB4BF"/>
<stop offset="0.57" stop-color="#23ABB7"/>
<stop offset="0.71" stop-color="#10A4B2"/>
<stop offset="0.85" stop-color="#04A0AF"/>
<stop offset="1" stop-color="#009FAE"/>
</linearGradient>
<linearGradient id="paint2_linear" x1="428.112" y1="73.5609" x2="433.985" y2="73.5609" gradientUnits="userSpaceOnUse">
<stop stop-color="#DBE9CE"/>
<stop offset="0.15" stop-color="#C5DFA7"/>
<stop offset="0.32" stop-color="#B0D682"/>
<stop offset="0.5" stop-color="#A0CE65"/>
<stop offset="0.67" stop-color="#94C950"/>
<stop offset="0.84" stop-color="#8DC644"/>
<stop offset="1" stop-color="#8BC540"/>
</linearGradient>
<linearGradient id="paint3_linear" x1="432.285" y1="72.8851" x2="434.211" y2="72.8851" gradientUnits="userSpaceOnUse">
<stop stop-color="#C3DFE2"/>
<stop offset="0.01" stop-color="#BFDEE1"/>
<stop offset="0.15" stop-color="#8DCDD4"/>
<stop offset="0.29" stop-color="#62BFC8"/>
<stop offset="0.43" stop-color="#3EB4BF"/>
<stop offset="0.57" stop-color="#23ABB7"/>
<stop offset="0.71" stop-color="#10A4B2"/>
<stop offset="0.85" stop-color="#04A0AF"/>
<stop offset="1" stop-color="#009FAE"/>
</linearGradient>
</defs>
</svg>
