<svg width="267" height="105" viewBox="0 0 267 105" fill="none" xmlns="http://www.w3.org/2000/svg">
<g filter="url(#filter0_d)">
<path d="M27.4177 7.07107C31.3229 3.16583 37.6546 3.16583 41.5598 7.07107L61.3632 26.8745C65.2685 30.7797 65.2685 37.1114 61.3633 41.0166L41.5598 60.82C37.6546 64.7253 31.3229 64.7253 27.4177 60.82L7.61429 41.0166C3.70905 37.1114 3.70905 30.7797 7.61429 26.8745L27.4177 7.07107Z" fill="#81C73C"/>
</g>
<path d="M27.4177 14.4505C31.3229 10.5452 37.6546 10.5452 41.5598 14.4505L53.9838 26.8744C57.8891 30.7797 57.8891 37.1113 53.9838 41.0166L41.5598 53.4406C37.6546 57.3458 31.3229 57.3458 27.4177 53.4406L14.9937 41.0166C11.0885 37.1113 11.0885 30.7797 14.9937 26.8744L27.4177 14.4505Z" fill="white"/>
<g filter="url(#filter1_d)">
<path d="M6.36182 79.9434C6.36182 76.8535 8.05106 74.3486 10.1348 74.3486H56.9204C59.0042 74.3486 60.6934 76.8535 60.6934 79.9434V94.4899C60.6934 97.5798 59.0042 100.085 56.9204 100.085H10.1348C8.05106 100.085 6.36182 97.5798 6.36182 94.4899V79.9434Z" fill="#82C73C"/>
</g>
<path d="M37.3341 28.9009H24.6387C24.4394 28.9009 24.2778 29.0628 24.2778 29.2626V37.8497C24.2778 38.0495 24.4394 38.2114 24.6387 38.2114H37.3341C37.5334 38.2114 37.695 38.0495 37.695 37.8497V29.2626C37.695 29.0628 37.5334 28.9009 37.3341 28.9009Z" fill="white"/>
<path fill-rule="evenodd" clip-rule="evenodd" d="M24.6383 29.2126C24.6108 29.2126 24.5885 29.2349 24.5885 29.2625V37.8495C24.5885 37.8771 24.6108 37.8994 24.6383 37.8994H37.3337C37.3612 37.8994 37.3834 37.8771 37.3834 37.8495V29.2625C37.3834 29.2349 37.3612 29.2126 37.3337 29.2126H24.6383ZM23.9663 29.2625C23.9663 28.8904 24.2672 28.5889 24.6383 28.5889H37.3337C37.7048 28.5889 38.0056 28.8904 38.0056 29.2625V37.8495C38.0056 38.2215 37.7048 38.5231 37.3337 38.5231H24.6383C24.2672 38.5231 23.9663 38.2215 23.9663 37.8495V29.2625Z" fill="#474747"/>
<path d="M38.5644 39.0498H23.4216C23.2047 39.0498 23.0288 39.1976 23.0288 39.3799V39.8423C23.0288 40.0247 23.2047 40.1725 23.4216 40.1725H38.5644C38.7813 40.1725 38.9571 40.0247 38.9571 39.8423V39.3799C38.9571 39.1976 38.7813 39.0498 38.5644 39.0498Z" fill="#474747"/>
<path fill-rule="evenodd" clip-rule="evenodd" d="M29.6095 31.5771H32.5188C32.6612 31.5775 32.7976 31.6341 32.8982 31.7344C32.9989 31.8348 33.0556 31.9708 33.056 32.1127V35.0133C33.0556 35.1552 32.9989 35.2912 32.8982 35.3916C32.7976 35.492 32.6612 35.5485 32.5188 35.5489H29.6095C29.4671 35.5485 29.3307 35.492 29.23 35.3916C29.1294 35.2912 29.0727 35.1552 29.0723 35.0133V32.1127C29.0727 31.9708 29.1294 31.8348 29.23 31.7344C29.3307 31.6341 29.4671 31.5775 29.6095 31.5771ZM29.8439 31.8973C29.7245 31.8977 29.6102 31.9451 29.5257 32.0293C29.4413 32.1134 29.3938 32.2275 29.3934 32.3465V34.7796C29.3938 34.8986 29.4413 35.0126 29.5257 35.0968C29.6102 35.1809 29.7245 35.2284 29.8439 35.2287H32.2844C32.4037 35.2284 32.5181 35.1809 32.6025 35.0968C32.6869 35.0126 32.7345 34.8986 32.7349 34.7796V32.3465C32.7345 32.2275 32.6869 32.1134 32.6025 32.0293C32.5181 31.9451 32.4037 31.8977 32.2844 31.8973H29.8439Z" fill="#BBBCBE"/>
<path fill-rule="evenodd" clip-rule="evenodd" d="M29.1119 33.3076C28.1083 34.6947 31.6627 33.1746 33.6642 33.8957L33.2081 34.3569C30.4976 33.4855 27.7282 34.7598 29.1119 33.0674V33.3076Z" fill="#91BD40"/>
<path fill-rule="evenodd" clip-rule="evenodd" d="M28.95 34.0137C30.0631 34.6788 31.9422 33.8442 33.6642 34.8275L33.1277 35.1782C30.939 34.2572 28.6687 34.5358 28.95 34.0137Z" fill="#ECDB13"/>
<path fill-rule="evenodd" clip-rule="evenodd" d="M28.7933 33.9492C27.9603 34.8958 34.2723 34.7891 31.2324 36.1568C31.2244 34.945 27.3369 34.5931 28.7933 33.9492Z" fill="#3564AC"/>
<path fill-rule="evenodd" clip-rule="evenodd" d="M32.4246 33.1852V33.2886L32.2391 33.2921L32.0715 33.5245H32.3996C32.4256 33.5245 32.4514 33.5189 32.4751 33.5083C32.4996 33.4975 32.5216 33.4819 32.5401 33.4626C32.5595 33.4416 32.5746 33.417 32.5845 33.3902C32.5962 33.3589 32.602 33.3256 32.6014 33.2921V33.1643C32.6018 33.1363 32.5965 33.1084 32.5857 33.0825C32.5759 33.0587 32.562 33.0369 32.5446 33.0179C32.5281 32.9999 32.5079 32.9855 32.4854 32.9757C32.4634 32.966 32.4396 32.9609 32.4156 32.9609H31.7183V32.8575H32.4369L32.6019 32.6211H31.7432C31.717 32.621 31.691 32.6266 31.6672 32.6375C31.643 32.6484 31.6212 32.6639 31.6029 32.6831C31.5831 32.7045 31.568 32.7296 31.5584 32.757C31.5468 32.7881 31.5411 32.8211 31.5415 32.8542V32.9463C31.635 32.9834 31.679 33.094 31.679 33.185H32.4251L32.4246 33.1852Z" fill="#3564AC"/>
<path fill-rule="evenodd" clip-rule="evenodd" d="M29.727 33.5243V33.1845H30.4246C30.4487 33.1844 30.4725 33.1794 30.4945 33.1697C30.517 33.1598 30.5372 33.1454 30.5538 33.1274C30.5587 33.1221 30.5633 33.1166 30.5676 33.1109C30.5565 33.0961 30.5473 33.0799 30.5402 33.0629C30.5298 33.0368 30.5248 33.009 30.5254 32.981V32.8539C30.5249 32.8208 30.5307 32.7878 30.5423 32.7567C30.5487 32.7389 30.5572 32.7219 30.5677 32.7062C30.5621 32.698 30.5558 32.6903 30.5489 32.6831C30.5305 32.6638 30.5085 32.6483 30.484 32.6375C30.4603 32.6267 30.4346 32.6212 30.4086 32.6211H29.7685L29.5498 32.8575H30.4333V32.959H29.5498V33.524L29.727 33.5243Z" fill="#91BD40"/>
<path fill-rule="evenodd" clip-rule="evenodd" d="M31.4567 33.1848V33.2882H30.7529L30.5737 33.5246H31.4324C31.4584 33.5245 31.4841 33.519 31.5078 33.5083C31.5322 33.4975 31.5543 33.482 31.5727 33.4627C31.5922 33.4417 31.6073 33.4171 31.6172 33.3903C31.6288 33.3589 31.6345 33.3256 31.6339 33.2922V33.1639C31.6343 33.1359 31.629 33.1081 31.6183 33.0821C31.6085 33.0583 31.5946 33.0364 31.5772 33.0175C31.5607 32.9996 31.5408 32.9853 31.5185 32.9755C31.4963 32.9658 31.4722 32.9607 31.4479 32.9606H30.751V32.8572L31.4214 32.8537L31.5663 32.6211H30.776C30.7497 32.621 30.7237 32.6266 30.6998 32.6375C30.6757 32.6485 30.6538 32.664 30.6355 32.6832C30.6159 32.7046 30.6008 32.7297 30.5911 32.757C30.5795 32.7881 30.5737 32.8211 30.5742 32.8542V32.9818C30.5739 33.0098 30.5792 33.0376 30.5899 33.0636C30.5997 33.0874 30.6136 33.1092 30.6311 33.1282C30.6477 33.1462 30.6679 33.1606 30.6904 33.1704C30.7123 33.1802 30.7361 33.1852 30.7602 33.1852L31.4567 33.1848Z" fill="#ECDB13"/>
<path fill-rule="evenodd" clip-rule="evenodd" d="M32.0603 33.292H32.1919L32.0277 33.5245H31.8926L32.0603 33.292Z" fill="#ECDB13"/>
<path fill-rule="evenodd" clip-rule="evenodd" d="M31.9415 33.292H32.0235L31.8593 33.5245H31.7739L31.9415 33.292Z" fill="#91BD40"/>
<path d="M44.7808 31.8696H41.4909C41.079 31.8696 40.7451 32.2043 40.7451 32.6172V38.9961C40.7451 39.4089 41.079 39.7436 41.4909 39.7436H44.7808C45.1927 39.7436 45.5266 39.4089 45.5266 38.9961V32.6172C45.5266 32.2043 45.1927 31.8696 44.7808 31.8696Z" fill="#474747"/>
<path d="M45.06 32.4907H41.2104V38.6678H45.06V32.4907Z" fill="white"/>
<path d="M43.7946 38.9878H42.4782C42.4015 38.9878 42.3394 39.0501 42.3394 39.127V39.2481C42.3394 39.325 42.4015 39.3873 42.4782 39.3873H43.7946C43.8713 39.3873 43.9335 39.325 43.9335 39.2481V39.127C43.9335 39.0501 43.8713 38.9878 43.7946 38.9878Z" fill="white"/>
<path fill-rule="evenodd" clip-rule="evenodd" d="M42.4397 34.5078H43.9587C44.0331 34.508 44.1043 34.5375 44.1568 34.5899C44.2094 34.6423 44.239 34.7134 44.2392 34.7875V36.3019C44.239 36.376 44.2094 36.4471 44.1568 36.4995C44.1043 36.5519 44.0331 36.5814 43.9587 36.5816H42.4397C42.3653 36.5814 42.2941 36.5519 42.2416 36.4995C42.189 36.4471 42.1594 36.376 42.1592 36.3019V34.7875C42.1594 34.7134 42.189 34.6423 42.2416 34.5899C42.2941 34.5375 42.3653 34.508 42.4397 34.5078ZM42.5621 34.675C42.4998 34.6752 42.44 34.6999 42.396 34.7439C42.3519 34.7878 42.327 34.8474 42.3269 34.9095V36.1799C42.327 36.242 42.3519 36.3016 42.396 36.3455C42.44 36.3895 42.4998 36.4142 42.5621 36.4144H43.8363C43.8986 36.4142 43.9584 36.3895 44.0024 36.3455C44.0465 36.3016 44.0714 36.242 44.0715 36.1799V34.9095C44.0714 34.8474 44.0465 34.7878 44.0024 34.7439C43.9584 34.6999 43.8986 34.6752 43.8363 34.675H42.5621Z" fill="#BBBCBE"/>
<path fill-rule="evenodd" clip-rule="evenodd" d="M42.1791 35.4111C41.6551 36.1353 43.511 35.3417 44.556 35.7181L44.3178 35.9589C42.9026 35.504 41.4566 36.1693 42.1791 35.2856V35.4111Z" fill="#91BD40"/>
<path fill-rule="evenodd" clip-rule="evenodd" d="M42.0959 35.7803C42.6771 36.1276 43.6582 35.6918 44.5573 36.2052L44.2772 36.3883C43.1344 35.9074 41.949 36.0529 42.0959 35.7803Z" fill="#ECDB13"/>
<path fill-rule="evenodd" clip-rule="evenodd" d="M42.0133 35.7461C41.5783 36.2403 44.874 36.1846 43.2868 36.8988C43.2826 36.266 41.2528 36.0823 42.0133 35.7461Z" fill="#3564AC"/>
<path fill-rule="evenodd" clip-rule="evenodd" d="M43.9089 35.3473V35.4013L43.812 35.4031L43.7245 35.5244H43.8958C43.9094 35.5244 43.9228 35.5215 43.9352 35.516C43.948 35.5103 43.9595 35.5022 43.9691 35.4921C43.9793 35.4812 43.9871 35.4683 43.9923 35.4543C43.9985 35.438 44.0015 35.4206 44.0012 35.4031V35.3364C44.0014 35.3217 43.9986 35.3072 43.993 35.2936C43.9879 35.2812 43.9806 35.2698 43.9715 35.2599C43.9629 35.2505 43.9523 35.243 43.9406 35.2379C43.9291 35.2328 43.9167 35.2302 43.9041 35.2302H43.5401V35.1762H43.9153L44.0014 35.0527H43.5531C43.5394 35.0527 43.5258 35.0556 43.5134 35.0613C43.5008 35.067 43.4893 35.0751 43.4798 35.0851C43.4695 35.0963 43.4616 35.1094 43.4566 35.1237C43.4505 35.1399 43.4475 35.1571 43.4478 35.1745V35.2225C43.4966 35.2419 43.5196 35.2997 43.5196 35.3472H43.9091L43.9089 35.3473Z" fill="#3564AC"/>
<path fill-rule="evenodd" clip-rule="evenodd" d="M42.5003 35.5243V35.3469H42.8645C42.877 35.3469 42.8895 35.3442 42.901 35.3392C42.9127 35.334 42.9233 35.3265 42.9319 35.3171C42.9345 35.3144 42.9369 35.3115 42.9391 35.3085C42.9333 35.3007 42.9285 35.2923 42.9248 35.2834C42.9194 35.2698 42.9168 35.2553 42.9171 35.2407V35.1743C42.9169 35.157 42.9199 35.1398 42.9259 35.1236C42.9293 35.1143 42.9337 35.1054 42.9392 35.0972C42.9363 35.0929 42.933 35.0889 42.9294 35.0851C42.9198 35.075 42.9083 35.0669 42.8955 35.0613C42.8831 35.0557 42.8697 35.0528 42.8561 35.0527H42.5219L42.4077 35.1762H42.869V35.2292H42.4077V35.5242L42.5003 35.5243Z" fill="#91BD40"/>
<path fill-rule="evenodd" clip-rule="evenodd" d="M43.4039 35.347V35.401H43.0364L42.9429 35.5245H43.3912C43.4048 35.5244 43.4182 35.5216 43.4306 35.516C43.4433 35.5103 43.4549 35.5022 43.4645 35.4922C43.4746 35.4812 43.4825 35.4684 43.4877 35.4544C43.4937 35.438 43.4967 35.4206 43.4964 35.4031V35.3362C43.4966 35.3215 43.4938 35.307 43.4883 35.2934C43.4832 35.281 43.4759 35.2696 43.4668 35.2597C43.4582 35.2504 43.4478 35.2429 43.4362 35.2378C43.4246 35.2327 43.412 35.23 43.3993 35.23H43.0354V35.176L43.3855 35.1742L43.4611 35.0527H43.0485C43.0348 35.0527 43.0212 35.0556 43.0087 35.0613C42.9961 35.067 42.9847 35.0751 42.9751 35.0851C42.9649 35.0963 42.957 35.1094 42.9519 35.1237C42.9459 35.1399 42.9429 35.1572 42.9431 35.1745V35.241C42.9429 35.2557 42.9457 35.2702 42.9513 35.2838C42.9564 35.2962 42.9637 35.3076 42.9728 35.3175C42.9815 35.3269 42.992 35.3344 43.0038 35.3396C43.0152 35.3446 43.0277 35.3473 43.0402 35.3473L43.4039 35.347Z" fill="#ECDB13"/>
<path fill-rule="evenodd" clip-rule="evenodd" d="M43.7194 35.4028H43.7881L43.7024 35.5242H43.6318L43.7194 35.4028Z" fill="#ECDB13"/>
<path fill-rule="evenodd" clip-rule="evenodd" d="M43.6559 35.4028H43.6987L43.6129 35.5242H43.5684L43.6559 35.4028Z" fill="#91BD40"/>
<path d="M29.3848 87.5947V89.3481H28.3594V84.3716H30.3008C30.6745 84.3716 31.0026 84.4399 31.2852 84.5767C31.57 84.7134 31.7887 84.9082 31.9414 85.1611C32.0941 85.4118 32.1704 85.6978 32.1704 86.019C32.1704 86.5067 32.0029 86.8918 31.668 87.1743C31.3353 87.4546 30.8739 87.5947 30.2837 87.5947H29.3848ZM29.3848 86.7642H30.3008C30.5719 86.7642 30.7782 86.7004 30.9194 86.5728C31.063 86.4451 31.1348 86.2629 31.1348 86.0259C31.1348 85.7821 31.063 85.585 30.9194 85.4346C30.7759 85.2842 30.5776 85.2067 30.3247 85.2021H29.3848V86.7642Z" fill="white"/>
<path d="M35.4585 88.0425C35.4585 87.8488 35.3901 87.7007 35.2534 87.5981C35.1167 87.4933 34.8706 87.384 34.5151 87.27C34.1597 87.1538 33.8783 87.0399 33.6709 86.9282C33.1058 86.6229 32.8232 86.2116 32.8232 85.6943C32.8232 85.4255 32.8984 85.1862 33.0488 84.9766C33.2015 84.7646 33.4191 84.5994 33.7017 84.481C33.9865 84.3625 34.3055 84.3032 34.6587 84.3032C35.0142 84.3032 35.3309 84.3682 35.6089 84.498C35.8869 84.6257 36.1022 84.8068 36.2549 85.0415C36.4098 85.2762 36.4873 85.5428 36.4873 85.8413H35.4619C35.4619 85.6134 35.3901 85.4368 35.2466 85.3115C35.103 85.1839 34.9014 85.1201 34.6416 85.1201C34.391 85.1201 34.1961 85.1737 34.0571 85.2808C33.9181 85.3856 33.8486 85.5246 33.8486 85.6978C33.8486 85.8595 33.9295 85.9951 34.0913 86.1045C34.2554 86.2139 34.4958 86.3164 34.8125 86.4121C35.3958 86.5876 35.8208 86.8052 36.0874 87.0649C36.354 87.3247 36.4873 87.6483 36.4873 88.0356C36.4873 88.4663 36.3244 88.8047 35.9985 89.0508C35.6727 89.2946 35.234 89.4165 34.6826 89.4165C34.2998 89.4165 33.9512 89.347 33.6367 89.208C33.3223 89.0667 33.0819 88.8742 32.9155 88.6304C32.7515 88.3866 32.6694 88.104 32.6694 87.7827H33.6982C33.6982 88.3319 34.0264 88.6064 34.6826 88.6064C34.9264 88.6064 35.1167 88.5575 35.2534 88.4595C35.3901 88.3592 35.4585 88.2202 35.4585 88.0425Z" fill="white"/>
<path d="M39.7651 88.0425C39.7651 87.8488 39.6968 87.7007 39.5601 87.5981C39.4233 87.4933 39.1772 87.384 38.8218 87.27C38.4663 87.1538 38.1849 87.0399 37.9775 86.9282C37.4124 86.6229 37.1299 86.2116 37.1299 85.6943C37.1299 85.4255 37.2051 85.1862 37.3555 84.9766C37.5081 84.7646 37.7257 84.5994 38.0083 84.481C38.2931 84.3625 38.6121 84.3032 38.9653 84.3032C39.3208 84.3032 39.6375 84.3682 39.9155 84.498C40.1935 84.6257 40.4089 84.8068 40.5615 85.0415C40.7165 85.2762 40.7939 85.5428 40.7939 85.8413H39.7686C39.7686 85.6134 39.6968 85.4368 39.5532 85.3115C39.4097 85.1839 39.208 85.1201 38.9482 85.1201C38.6976 85.1201 38.5028 85.1737 38.3638 85.2808C38.2248 85.3856 38.1553 85.5246 38.1553 85.6978C38.1553 85.8595 38.2362 85.9951 38.3979 86.1045C38.562 86.2139 38.8024 86.3164 39.1191 86.4121C39.7025 86.5876 40.1274 86.8052 40.394 87.0649C40.6606 87.3247 40.7939 87.6483 40.7939 88.0356C40.7939 88.4663 40.631 88.8047 40.3052 89.0508C39.9793 89.2946 39.5407 89.4165 38.9893 89.4165C38.6064 89.4165 38.2578 89.347 37.9434 89.208C37.6289 89.0667 37.3885 88.8742 37.2222 88.6304C37.0581 88.3866 36.9761 88.104 36.9761 87.7827H38.0049C38.0049 88.3319 38.333 88.6064 38.9893 88.6064C39.2331 88.6064 39.4233 88.5575 39.5601 88.4595C39.6968 88.3592 39.7651 88.2202 39.7651 88.0425Z" fill="white"/>
<g filter="url(#filter2_d)">
<path d="M126.7 7.07107C130.606 3.16583 136.937 3.16583 140.843 7.07107L160.646 26.8745C164.551 30.7797 164.551 37.1114 160.646 41.0166L140.843 60.82C136.937 64.7253 130.606 64.7253 126.7 60.82L106.897 41.0166C102.992 37.1114 102.992 30.7797 106.897 26.8745L126.7 7.07107Z" fill="#3E83CC"/>
</g>
<path d="M126.7 14.4505C130.606 10.5452 136.937 10.5452 140.843 14.4505L153.267 26.8744C157.172 30.7797 157.172 37.1113 153.267 41.0166L140.843 53.4406C136.937 57.3458 130.606 57.3458 126.7 53.4406L114.276 41.0166C110.371 37.1113 110.371 30.7797 114.276 26.8744L126.7 14.4505Z" fill="white"/>
<g filter="url(#filter3_d)">
<path d="M106.446 79.9434C106.446 76.8535 108.136 74.3486 110.219 74.3486H157.005C159.089 74.3486 160.778 76.8535 160.778 79.9434V94.4899C160.778 97.5798 159.089 100.085 157.005 100.085H110.219C108.136 100.085 106.446 97.5798 106.446 94.4899V79.9434Z" fill="#3E83CC"/>
</g>
<path d="M128.729 40.6224V27.7715H134.998L138.759 31.5327V40.6224H128.729Z" fill="white"/>
<path d="M139.034 31.3171L135.2 27.483C135.146 27.4281 135.072 27.397 134.995 27.3964H133.352C133.18 27.1334 132.944 26.9175 132.667 26.7683C132.39 26.6192 132.081 26.5414 131.766 26.542C131.452 26.5428 131.143 26.6212 130.867 26.7703C130.591 26.9194 130.356 27.1345 130.183 27.3964H128.707C128.63 27.3964 128.555 27.4272 128.501 27.482C128.446 27.5367 128.415 27.611 128.415 27.6885V40.6438C128.415 40.6821 128.423 40.7201 128.437 40.7555C128.452 40.7909 128.473 40.8231 128.501 40.8502C128.528 40.8774 128.56 40.8989 128.595 40.9135C128.631 40.9282 128.669 40.9358 128.707 40.9358H138.829C138.906 40.9353 138.98 40.9043 139.034 40.8496C139.088 40.7949 139.119 40.7209 139.119 40.6438V31.5226C139.119 31.4844 139.112 31.4467 139.097 31.4114C139.082 31.3761 139.061 31.3441 139.034 31.3171ZM135.287 28.3969L138.124 31.2342H135.287V28.3969ZM131.764 27.1351C132.05 27.1365 132.328 27.2314 132.556 27.4054H130.966C131.195 27.2302 131.476 27.1352 131.764 27.1351ZM128.995 40.3517V27.9805H132.992C133.049 28.1276 133.079 28.284 133.08 28.4419V32.4816C133.08 32.684 133 32.8781 132.857 33.0214C132.714 33.1647 132.52 33.2454 132.318 33.2459C132.116 33.2454 131.922 33.1649 131.779 33.022C131.636 32.8791 131.556 32.6855 131.555 32.4834V29.0909C131.56 29.0297 131.588 28.9728 131.634 28.9313C131.679 28.8897 131.738 28.8667 131.799 28.8667C131.861 28.8667 131.92 28.8897 131.965 28.9313C132.01 28.9728 132.038 29.0297 132.044 29.0909V32.1932C132.043 32.2314 132.051 32.2693 132.065 32.3048C132.08 32.3402 132.101 32.3724 132.128 32.3995C132.155 32.4267 132.187 32.4482 132.222 32.4629C132.258 32.4776 132.296 32.4852 132.334 32.4852C132.411 32.4847 132.485 32.4537 132.539 32.399C132.594 32.3443 132.624 32.2703 132.624 32.1932V29.0909C132.624 28.8714 132.537 28.661 132.382 28.5058C132.227 28.3507 132.016 28.2635 131.797 28.2635C131.577 28.2635 131.367 28.3507 131.212 28.5058C131.056 28.661 130.969 28.8714 130.969 29.0909V32.4816C130.97 32.8385 131.112 33.1808 131.364 33.4332C131.617 33.6856 131.959 33.8276 132.316 33.8281C132.673 33.8272 133.015 33.6847 133.267 33.4319C133.519 33.1792 133.661 32.8367 133.661 32.4798V28.4401C133.66 28.2846 133.64 28.1297 133.603 27.9787H134.697V31.5208C134.698 31.5981 134.728 31.6721 134.783 31.7267C134.838 31.7814 134.912 31.8123 134.989 31.8128H138.531V40.3499L128.995 40.3517Z" fill="#474747"/>
<path d="M137.166 34.9204H130.367C130.289 34.9204 130.215 34.9512 130.16 35.0059C130.105 35.0607 130.075 35.135 130.075 35.2124C130.075 35.2899 130.105 35.3642 130.16 35.4189C130.215 35.4737 130.289 35.5045 130.367 35.5045H137.166C137.244 35.5045 137.318 35.4737 137.373 35.4189C137.427 35.3642 137.458 35.2899 137.458 35.2124C137.458 35.135 137.427 35.0607 137.373 35.0059C137.318 34.9512 137.244 34.9204 137.166 34.9204Z" fill="#474747"/>
<path fill-rule="evenodd" clip-rule="evenodd" d="M130.09 34.9356C130.163 34.8621 130.263 34.8208 130.367 34.8208H137.167C137.27 34.8208 137.37 34.8621 137.444 34.9356C137.517 35.0091 137.559 35.1089 137.559 35.2128C137.559 35.3168 137.517 35.4165 137.444 35.49C137.37 35.5635 137.27 35.6048 137.167 35.6048H130.367C130.263 35.6048 130.163 35.5635 130.09 35.49C130.016 35.4165 129.975 35.3168 129.975 35.2128C129.975 35.1089 130.016 35.0091 130.09 34.9356ZM130.367 35.0208C130.316 35.0208 130.267 35.041 130.231 35.077C130.195 35.1131 130.175 35.1619 130.175 35.2128C130.175 35.2637 130.195 35.3126 130.231 35.3486C130.267 35.3846 130.316 35.4048 130.367 35.4048H137.167C137.217 35.4048 137.266 35.3846 137.302 35.3486C137.338 35.3126 137.359 35.2637 137.359 35.2128C137.359 35.1619 137.338 35.1131 137.302 35.077C137.266 35.041 137.217 35.0208 137.167 35.0208H130.367Z" fill="#474747"/>
<path d="M137.166 36.6405H130.367C130.327 36.6374 130.286 36.6426 130.248 36.6558C130.21 36.669 130.175 36.6899 130.146 36.7172C130.116 36.7446 130.092 36.7777 130.076 36.8146C130.06 36.8515 130.052 36.8914 130.052 36.9317C130.052 36.972 130.06 37.0118 130.076 37.0487C130.092 37.0856 130.116 37.1188 130.146 37.1461C130.175 37.1735 130.21 37.1944 130.248 37.2076C130.286 37.2208 130.327 37.226 130.367 37.2228H137.166C137.206 37.226 137.247 37.2208 137.285 37.2076C137.323 37.1944 137.358 37.1735 137.387 37.1461C137.417 37.1188 137.44 37.0856 137.457 37.0487C137.473 37.0118 137.481 36.972 137.481 36.9317C137.481 36.8914 137.473 36.8515 137.457 36.8146C137.44 36.7777 137.417 36.7446 137.387 36.7172C137.358 36.6899 137.323 36.669 137.285 36.6558C137.247 36.6426 137.206 36.6374 137.166 36.6405Z" fill="#474747"/>
<path fill-rule="evenodd" clip-rule="evenodd" d="M130.37 36.5405H137.162C137.215 36.5369 137.268 36.5439 137.317 36.5612C137.368 36.5789 137.415 36.607 137.455 36.6437C137.495 36.6804 137.526 36.7249 137.548 36.7745C137.57 36.824 137.581 36.8775 137.581 36.9316C137.581 36.9856 137.57 37.0391 137.548 37.0887C137.526 37.1382 137.495 37.1827 137.455 37.2194C137.415 37.2562 137.368 37.2842 137.317 37.302C137.268 37.3192 137.215 37.3263 137.162 37.3227H130.37C130.318 37.3263 130.265 37.3192 130.215 37.302C130.164 37.2842 130.117 37.2562 130.078 37.2194C130.038 37.1827 130.006 37.1382 129.985 37.0887C129.963 37.0391 129.952 36.9856 129.952 36.9316C129.952 36.8775 129.963 36.824 129.985 36.7745C130.006 36.7249 130.038 36.6804 130.078 36.6437C130.117 36.607 130.164 36.5789 130.215 36.5612C130.265 36.5439 130.318 36.5369 130.37 36.5405ZM137.166 36.6405V36.7405H130.359C130.332 36.7384 130.306 36.7415 130.281 36.7501C130.256 36.7588 130.233 36.7726 130.213 36.7906C130.194 36.8085 130.178 36.8304 130.168 36.8546C130.157 36.8789 130.152 36.9051 130.152 36.9316C130.152 36.9581 130.157 36.9843 130.168 37.0085C130.178 37.0328 130.194 37.0546 130.213 37.0726C130.233 37.0906 130.256 37.1043 130.281 37.113C130.306 37.1217 130.332 37.1251 130.359 37.123L130.367 37.1224L137.174 37.1227C137.2 37.1248 137.227 37.1217 137.252 37.113C137.277 37.1043 137.3 37.0906 137.319 37.0726C137.339 37.0546 137.354 37.0328 137.365 37.0085C137.375 36.9843 137.381 36.9581 137.381 36.9316C137.381 36.9051 137.375 36.8789 137.365 36.8546C137.354 36.8303 137.339 36.8085 137.319 36.7906C137.3 36.7726 137.277 36.7588 137.252 36.7501C137.227 36.7415 137.2 36.7381 137.174 36.7401L137.166 36.6405Z" fill="#474747"/>
<path d="M137.166 38.3579H130.367C130.289 38.3579 130.215 38.3887 130.16 38.4434C130.105 38.4982 130.075 38.5725 130.075 38.6499C130.075 38.7274 130.105 38.8017 130.16 38.8564C130.215 38.9112 130.289 38.942 130.367 38.942H137.166C137.244 38.942 137.318 38.9112 137.373 38.8564C137.427 38.8017 137.458 38.7274 137.458 38.6499C137.458 38.5725 137.427 38.4982 137.373 38.4434C137.318 38.3887 137.244 38.3579 137.166 38.3579Z" fill="#474747"/>
<path fill-rule="evenodd" clip-rule="evenodd" d="M130.09 38.3726C130.163 38.2991 130.263 38.2578 130.367 38.2578H137.167C137.27 38.2578 137.37 38.2991 137.444 38.3726C137.517 38.4462 137.559 38.5459 137.559 38.6498C137.559 38.7538 137.517 38.8535 137.444 38.927C137.37 39.0006 137.27 39.0419 137.167 39.0419H130.367C130.263 39.0419 130.163 39.0006 130.09 38.927C130.016 38.8535 129.975 38.7538 129.975 38.6498C129.975 38.5459 130.016 38.4462 130.09 38.3726ZM130.367 38.4578C130.316 38.4578 130.267 38.478 130.231 38.5141C130.195 38.5501 130.175 38.5989 130.175 38.6498C130.175 38.7008 130.195 38.7496 130.231 38.7856C130.267 38.8216 130.316 38.8419 130.367 38.8419H137.167C137.217 38.8419 137.266 38.8216 137.302 38.7856C137.338 38.7496 137.359 38.7008 137.359 38.6498C137.359 38.5989 137.338 38.5501 137.302 38.5141C137.266 38.478 137.217 38.4578 137.167 38.4578H130.367Z" fill="#474747"/>
<path d="M118.865 83.5952V85.3486H117.839V80.3721H119.781C120.154 80.3721 120.483 80.4404 120.765 80.5771C121.05 80.7139 121.269 80.9087 121.421 81.1616C121.574 81.4123 121.65 81.6982 121.65 82.0195C121.65 82.5072 121.483 82.8923 121.148 83.1748C120.815 83.4551 120.354 83.5952 119.764 83.5952H118.865ZM118.865 82.7646H119.781C120.052 82.7646 120.258 82.7008 120.399 82.5732C120.543 82.4456 120.615 82.2633 120.615 82.0264C120.615 81.7826 120.543 81.5854 120.399 81.4351C120.256 81.2847 120.058 81.2072 119.805 81.2026H118.865V82.7646Z" fill="white"/>
<path d="M124.2 83.5269H123.383V85.3486H122.358V80.3721H124.207C124.795 80.3721 125.248 80.5031 125.567 80.7651C125.886 81.0272 126.046 81.3975 126.046 81.876C126.046 82.2155 125.972 82.4992 125.824 82.7271C125.678 82.9526 125.456 83.1326 125.157 83.2671L126.234 85.3008V85.3486H125.133L124.2 83.5269ZM123.383 82.6963H124.21C124.468 82.6963 124.667 82.6313 124.809 82.5015C124.95 82.3693 125.021 82.1882 125.021 81.958C125.021 81.7233 124.953 81.5387 124.819 81.4043C124.687 81.2699 124.483 81.2026 124.207 81.2026H123.383V82.6963Z" fill="white"/>
<path d="M130.917 82.9731C130.917 83.4631 130.83 83.8926 130.657 84.2617C130.484 84.6309 130.235 84.9157 129.912 85.1162C129.59 85.3167 129.221 85.417 128.804 85.417C128.392 85.417 128.024 85.3179 127.7 85.1196C127.377 84.9214 127.126 84.6388 126.948 84.272C126.771 83.9028 126.681 83.479 126.678 83.0005V82.7544C126.678 82.2645 126.766 81.8338 126.941 81.4624C127.119 81.0887 127.369 80.8027 127.69 80.6045C128.014 80.404 128.383 80.3037 128.797 80.3037C129.212 80.3037 129.58 80.404 129.901 80.6045C130.225 80.8027 130.474 81.0887 130.65 81.4624C130.828 81.8338 130.917 82.2633 130.917 82.751V82.9731ZM129.877 82.7476C129.877 82.2257 129.784 81.8293 129.597 81.5581C129.41 81.2869 129.144 81.1514 128.797 81.1514C128.453 81.1514 128.188 81.2858 128.001 81.5547C127.814 81.8213 127.72 82.2132 127.717 82.7305V82.9731C127.717 83.4813 127.811 83.8755 127.998 84.1558C128.184 84.436 128.453 84.5762 128.804 84.5762C129.148 84.5762 129.413 84.4417 129.597 84.1729C129.782 83.9017 129.875 83.5075 129.877 82.9902V82.7476Z" fill="white"/>
<path d="M132.687 83.5952V85.3486H131.662V80.3721H133.603C133.977 80.3721 134.305 80.4404 134.587 80.5771C134.872 80.7139 135.091 80.9087 135.244 81.1616C135.396 81.4123 135.473 81.6982 135.473 82.0195C135.473 82.5072 135.305 82.8923 134.97 83.1748C134.638 83.4551 134.176 83.5952 133.586 83.5952H132.687ZM132.687 82.7646H133.603C133.874 82.7646 134.08 82.7008 134.222 82.5732C134.365 82.4456 134.437 82.2633 134.437 82.0264C134.437 81.7826 134.365 81.5854 134.222 81.4351C134.078 81.2847 133.88 81.2072 133.627 81.2026H132.687V82.7646Z" fill="white"/>
<path d="M139.174 83.1919H137.206V84.5249H139.516V85.3486H136.18V80.3721H139.509V81.2026H137.206V82.3887H139.174V83.1919Z" fill="white"/>
<path d="M141.96 83.5269H141.143V85.3486H140.118V80.3721H141.967C142.555 80.3721 143.008 80.5031 143.327 80.7651C143.646 81.0272 143.806 81.3975 143.806 81.876C143.806 82.2155 143.732 82.4992 143.583 82.7271C143.438 82.9526 143.215 83.1326 142.917 83.2671L143.994 85.3008V85.3486H142.893L141.96 83.5269ZM141.143 82.6963H141.97C142.228 82.6963 142.427 82.6313 142.568 82.5015C142.71 82.3693 142.78 82.1882 142.78 81.958C142.78 81.7233 142.713 81.5387 142.579 81.4043C142.446 81.2699 142.243 81.2026 141.967 81.2026H141.143V82.6963Z" fill="white"/>
<path d="M148.164 81.2026H146.639V85.3486H145.614V81.2026H144.11V80.3721H148.164V81.2026Z" fill="white"/>
<path d="M150.522 82.6143L151.558 80.3721H152.679L151.045 83.5439V85.3486H150.002V83.5439L148.369 80.3721H149.493L150.522 82.6143Z" fill="white"/>
<path d="M124.132 91.5269H123.315V93.3486H122.29V88.3721H124.139C124.727 88.3721 125.18 88.5031 125.499 88.7651C125.818 89.0272 125.978 89.3975 125.978 89.876C125.978 90.2155 125.903 90.4992 125.755 90.7271C125.61 90.9526 125.387 91.1326 125.089 91.2671L126.166 93.3008V93.3486H125.065L124.132 91.5269ZM123.315 90.6963H124.142C124.4 90.6963 124.599 90.6313 124.74 90.5015C124.882 90.3693 124.952 90.1882 124.952 89.958C124.952 89.7233 124.885 89.5387 124.75 89.4043C124.618 89.2699 124.414 89.2026 124.139 89.2026H123.315V90.6963Z" fill="white"/>
<path d="M129.754 91.1919H127.786V92.5249H130.096V93.3486H126.76V88.3721H130.089V89.2026H127.786V90.3887H129.754V91.1919Z" fill="white"/>
<path d="M131.723 91.5952V93.3486H130.698V88.3721H132.639C133.013 88.3721 133.341 88.4404 133.624 88.5771C133.908 88.7139 134.127 88.9087 134.28 89.1616C134.432 89.4123 134.509 89.6982 134.509 90.0195C134.509 90.5072 134.341 90.8923 134.006 91.1748C133.674 91.4551 133.212 91.5952 132.622 91.5952H131.723ZM131.723 90.7646H132.639C132.91 90.7646 133.117 90.7008 133.258 90.5732C133.401 90.4456 133.473 90.2633 133.473 90.0264C133.473 89.7826 133.401 89.5854 133.258 89.4351C133.114 89.2847 132.916 89.2072 132.663 89.2026H131.723V90.7646Z" fill="white"/>
<path d="M139.304 90.9731C139.304 91.4631 139.218 91.8926 139.044 92.2617C138.871 92.6309 138.623 92.9157 138.299 93.1162C137.978 93.3167 137.609 93.417 137.192 93.417C136.779 93.417 136.411 93.3179 136.088 93.1196C135.764 92.9214 135.514 92.6388 135.336 92.272C135.158 91.9028 135.068 91.479 135.066 91.0005V90.7544C135.066 90.2645 135.154 89.8338 135.329 89.4624C135.507 89.0887 135.756 88.8027 136.078 88.6045C136.401 88.404 136.77 88.3037 137.185 88.3037C137.6 88.3037 137.968 88.404 138.289 88.6045C138.613 88.8027 138.862 89.0887 139.038 89.4624C139.215 89.8338 139.304 90.2633 139.304 90.751V90.9731ZM138.265 90.7476C138.265 90.2257 138.172 89.8293 137.985 89.5581C137.798 89.2869 137.531 89.1514 137.185 89.1514C136.841 89.1514 136.576 89.2858 136.389 89.5547C136.202 89.8213 136.107 90.2132 136.105 90.7305V90.9731C136.105 91.4813 136.198 91.8755 136.385 92.1558C136.572 92.436 136.841 92.5762 137.192 92.5762C137.536 92.5762 137.8 92.4417 137.985 92.1729C138.169 91.9017 138.263 91.5075 138.265 90.9902V90.7476Z" fill="white"/>
<path d="M141.892 91.5269H141.075V93.3486H140.049V88.3721H141.898C142.486 88.3721 142.94 88.5031 143.259 88.7651C143.578 89.0272 143.737 89.3975 143.737 89.876C143.737 90.2155 143.663 90.4992 143.515 90.7271C143.369 90.9526 143.147 91.1326 142.849 91.2671L143.925 93.3008V93.3486H142.825L141.892 91.5269ZM141.075 90.6963H141.902C142.159 90.6963 142.359 90.6313 142.5 90.5015C142.641 90.3693 142.712 90.1882 142.712 89.958C142.712 89.7233 142.645 89.5387 142.51 89.4043C142.378 89.2699 142.174 89.2026 141.898 89.2026H141.075V90.6963Z" fill="white"/>
<path d="M148.095 89.2026H146.571V93.3486H145.545V89.2026H144.042V88.3721H148.095V89.2026Z" fill="white"/>
<g filter="url(#filter4_d)">
<path d="M225.984 7.07107C229.889 3.16583 236.221 3.16583 240.126 7.07107L259.929 26.8745C263.834 30.7797 263.834 37.1114 259.929 41.0166L240.126 60.82C236.221 64.7253 229.889 64.7253 225.984 60.82L206.18 41.0166C202.275 37.1114 202.275 30.7797 206.18 26.8745L225.984 7.07107Z" fill="#2AA6B2"/>
</g>
<path d="M225.984 14.4505C229.889 10.5452 236.221 10.5452 240.126 14.4505L252.55 26.8744C256.455 30.7797 256.455 37.1113 252.55 41.0166L240.126 53.4406C236.221 57.3458 229.889 57.3458 225.984 53.4406L213.56 41.0166C209.654 37.1113 209.654 30.7797 213.56 26.8744L225.984 14.4505Z" fill="white"/>
<g filter="url(#filter5_d)">
<path d="M205.578 79.9434C205.578 76.8535 207.267 74.3486 209.351 74.3486H256.136C258.22 74.3486 259.909 76.8535 259.909 79.9434V94.4899C259.909 97.5798 258.22 100.085 256.136 100.085H209.351C207.267 100.085 205.578 97.5798 205.578 94.4899V79.9434Z" fill="#2AA6B2"/>
</g>
<path d="M226.213 30.3828V34.1986L224.424 34.8914L222.635 34.1986V30.3828H226.213Z" fill="#EDB984"/>
<g style="mix-blend-mode:multiply" opacity="0.29">
<g style="mix-blend-mode:multiply">
<path d="M226.213 30.3828V34.1986L224.424 34.8914L222.635 34.1986V30.3828H226.213Z" fill="#EDB984"/>
</g>
</g>
<path d="M230.307 38.0993H218.538C218.538 38.0993 218.538 37.9667 218.558 37.7462C218.765 35.5914 220.186 33.8675 222.022 33.4846L222.637 33.3569C222.768 33.7258 223.01 34.0451 223.329 34.2709C223.649 34.4968 224.03 34.618 224.422 34.618C224.813 34.618 225.195 34.4968 225.514 34.2709C225.834 34.0451 226.075 33.7258 226.206 33.3569L226.823 33.4846C228.658 33.8675 230.078 35.5947 230.285 37.7462C230.307 37.9667 230.307 38.0993 230.307 38.0993Z" fill="#2AA6B2"/>
<path opacity="0.1" d="M226.896 30.7048C226.855 30.899 226.784 31.0857 226.687 31.2584C226.19 32.1021 225.318 33.0685 224.424 33.0685C223.531 33.0685 222.657 32.1021 222.16 31.2584C222.062 31.086 221.992 30.8991 221.953 30.7048L221.693 28.8351C221.693 28.8351 221.567 26.5144 222.994 26.0089C223.274 25.895 223.571 25.8294 223.872 25.8149H224.976C225.278 25.8296 225.575 25.8952 225.855 26.0089C227.282 26.5227 227.126 27.8985 227.181 28.7754C227.182 28.8069 226.896 30.7048 226.896 30.7048Z" fill="#112530"/>
<path d="M226.896 30.5339C226.855 30.7281 226.784 30.9148 226.687 31.0875C226.19 31.9312 225.318 32.8976 224.424 32.8976C223.531 32.8976 222.657 31.9312 222.16 31.0875C222.062 30.9151 221.992 30.7282 221.953 30.5339L221.693 28.6642C221.693 28.6642 221.567 26.3435 222.994 25.838C223.274 25.7241 223.571 25.6585 223.872 25.644H224.976C225.278 25.6587 225.575 25.7243 225.855 25.838C227.282 26.3518 227.126 27.7276 227.181 28.6045C227.182 28.636 226.896 30.5339 226.896 30.5339Z" fill="#EDB984"/>
<path d="M227.545 27.4988C227.545 27.4988 227.308 27.1672 226.962 27.2037C226.616 27.2402 226.072 25.9655 226.072 25.9655C225.514 26.0097 224.954 26.0158 224.396 25.9837C223.663 25.9373 222.861 25.8031 222.384 25.4682C222.305 25.4151 222.233 25.3522 222.17 25.2809C222.504 25.1092 222.853 24.9704 223.214 24.8665C223.596 24.7519 223.991 24.685 224.389 24.6676H224.401C224.802 24.6506 225.203 24.7183 225.576 24.8665C225.895 25.0009 226.179 25.2068 226.405 25.4682C226.512 25.5893 226.608 25.7197 226.692 25.8578C226.692 25.8578 227.761 26.1793 227.545 27.4988Z" fill="#593A35"/>
<path d="M226.406 25.4682C225.931 25.7997 225.13 25.9373 224.396 25.9837C223.837 26.0158 223.276 26.0098 222.718 25.9655C222.718 25.9655 222.173 27.2435 221.828 27.2037C221.483 27.1639 221.238 27.4988 221.238 27.4988C221.023 26.1727 222.092 25.8644 222.092 25.8644C222.175 25.7241 222.27 25.5915 222.377 25.4682C222.603 25.2068 222.887 25.0009 223.206 24.8665C223.579 24.7183 223.98 24.6506 224.381 24.6676H224.393C224.791 24.685 225.186 24.7519 225.568 24.8665C225.89 24.9996 226.177 25.2055 226.406 25.4682Z" fill="#593A35"/>
<path d="M224.633 25.0292C222.544 24.7971 221.991 25.5895 221.852 26.4597C221.852 26.4597 222.16 27.1625 224.464 27.1625C226.768 27.1625 226.969 26.4597 226.969 26.4597C226.514 25.3359 225.337 25.1154 224.633 25.0292Z" fill="#593A35"/>
<path d="M227.232 29.2705C227.232 29.2705 227.845 26.8123 226.968 26.4659C226.818 26.4062 226.518 26.8189 226.518 26.8189C226.518 26.8189 226.483 27.7952 227.232 29.2705Z" fill="#593A35"/>
<path d="M221.633 29.2708C221.633 29.2708 221.008 26.7695 221.886 26.4214C222.036 26.3617 222.347 26.8192 222.347 26.8192C222.347 26.8192 222.382 27.7955 221.633 29.2708Z" fill="#593A35"/>
<path d="M225.508 31.0278C225.508 31.0791 225.503 31.1303 225.492 31.1803C225.453 31.3468 225.363 31.4966 225.233 31.608C225.019 31.7859 224.749 31.8833 224.471 31.8833C224.192 31.8833 223.922 31.7859 223.708 31.608C223.579 31.4966 223.488 31.3468 223.449 31.1803C223.438 31.1303 223.433 31.0791 223.433 31.0278V31.0195H225.508V31.0278Z" fill="#921913"/>
<path d="M225.508 31.0278C225.508 31.0791 225.503 31.1303 225.492 31.1803H223.449C223.438 31.1303 223.433 31.0791 223.433 31.0278V31.0195H225.508V31.0278Z" fill="white"/>
<path d="M225.233 31.6078C225.019 31.7858 224.749 31.8832 224.471 31.8832C224.192 31.8832 223.923 31.7858 223.708 31.6078C223.932 31.4509 224.198 31.3667 224.471 31.3667C224.744 31.3667 225.01 31.4509 225.233 31.6078Z" fill="#EB5D67"/>
<path d="M224.92 31.8531H224.87V31.7188C225.777 31.7321 226.436 31.3641 226.829 30.6248C227.014 30.2733 227.127 29.8884 227.161 29.4927H227.287C227.257 29.907 227.144 30.3112 226.955 30.6812C226.787 31.0094 226.538 31.2891 226.231 31.4934C225.839 31.7415 225.383 31.8668 224.92 31.8531Z" fill="#092F43"/>
<path d="M224.964 32.0342H224.345C224.313 32.0331 224.282 32.0258 224.253 32.0128C224.224 31.9997 224.198 31.9811 224.177 31.958C224.155 31.9349 224.139 31.9078 224.128 31.8782C224.116 31.8486 224.111 31.8171 224.112 31.7856C224.111 31.7541 224.116 31.7227 224.128 31.6932C224.139 31.6637 224.155 31.6367 224.177 31.6137C224.199 31.5908 224.225 31.5723 224.253 31.5594C224.282 31.5465 224.313 31.5394 224.345 31.5386H224.964C225.028 31.5407 225.088 31.5679 225.131 31.6142C225.175 31.6605 225.198 31.7221 225.197 31.7856C225.198 31.8171 225.192 31.8486 225.181 31.8782C225.17 31.9078 225.154 31.9349 225.132 31.958C225.11 31.9811 225.085 31.9997 225.056 32.0128C225.027 32.0258 224.996 32.0331 224.964 32.0342Z" fill="#112530"/>
<path d="M227.675 28.818C227.594 28.7243 227.48 28.665 227.356 28.6523C227.292 28.6348 227.224 28.6348 227.159 28.6523V30.4043C227.224 30.4201 227.292 30.4201 227.356 30.4043C227.48 30.3917 227.594 30.3324 227.675 30.2386C227.796 30.0944 227.796 28.9689 227.675 28.818Z" fill="#112530"/>
<path d="M226.921 29.0072V30.0713C226.915 30.1475 226.935 30.2234 226.979 30.2863C227.022 30.3491 227.086 30.395 227.159 30.4161V28.6558C227.085 28.6771 227.02 28.724 226.976 28.7882C226.933 28.8524 226.913 28.9299 226.921 29.0072Z" fill="#112530"/>
<path d="M223.549 29.1264C223.549 29.3286 223.438 29.4927 223.3 29.4927C223.163 29.4927 223.053 29.327 223.053 29.1264C223.053 28.9258 223.164 28.7617 223.3 28.7617C223.436 28.7617 223.549 28.9258 223.549 29.1264Z" fill="#352B2A"/>
<path d="M225.588 29.4929C225.724 29.4929 225.835 29.3289 225.835 29.1266C225.835 28.9243 225.724 28.7603 225.588 28.7603C225.451 28.7603 225.341 28.9243 225.341 29.1266C225.341 29.3289 225.451 29.4929 225.588 29.4929Z" fill="#352B2A"/>
<path d="M223.918 28.2382C223.526 28.1678 223.121 28.2009 222.745 28.3343L222.81 28.5398C223.164 28.4425 223.534 28.4149 223.899 28.4586L223.918 28.2382Z" fill="#593A35"/>
<path d="M225.087 28.2331C225.482 28.1714 225.885 28.2137 226.258 28.3558L226.183 28.5597C225.832 28.4542 225.464 28.4187 225.099 28.4553L225.087 28.2331Z" fill="#593A35"/>
<path d="M226.475 28.5101H225.091C224.99 28.5017 224.891 28.533 224.813 28.5971C224.736 28.6612 224.687 28.7532 224.676 28.8532H224.265C224.255 28.7532 224.205 28.6612 224.128 28.5971C224.05 28.533 223.951 28.5017 223.851 28.5101H222.467C222.414 28.505 222.362 28.5109 222.312 28.5273C222.262 28.5437 222.216 28.5703 222.177 28.6053C222.138 28.6404 222.107 28.6832 222.086 28.731C222.064 28.7788 222.053 28.8306 222.052 28.883L222.14 29.7118C222.159 29.8052 222.212 29.8885 222.287 29.9462C222.363 30.0038 222.458 30.0319 222.553 30.0251H223.851C223.951 30.0339 224.051 30.0028 224.128 29.9386C224.206 29.8744 224.255 29.7822 224.265 29.682V29.0074H224.676V29.6919C224.686 29.7921 224.735 29.8843 224.813 29.9485C224.891 30.0128 224.99 30.0438 225.091 30.0351H226.388C226.484 30.0418 226.578 30.0138 226.654 29.9561C226.73 29.8985 226.782 29.8152 226.801 29.7218L226.887 28.893C226.889 28.8398 226.878 28.787 226.858 28.738C226.837 28.689 226.806 28.6449 226.767 28.6087C226.728 28.5725 226.682 28.545 226.631 28.528C226.581 28.511 226.528 28.5049 226.475 28.5101ZM224.081 29.619C224.074 29.7032 224.033 29.781 223.969 29.8356C223.904 29.8902 223.821 29.9172 223.736 29.9107H222.654C222.574 29.9155 222.495 29.891 222.432 29.842C222.368 29.7929 222.325 29.7225 222.309 29.6439L222.236 28.9427C222.236 28.8987 222.245 28.855 222.263 28.8147C222.28 28.7743 222.306 28.7381 222.339 28.7083C222.371 28.6785 222.409 28.6558 222.451 28.6416C222.493 28.6275 222.537 28.6222 222.581 28.6261H223.741C223.825 28.6192 223.909 28.6458 223.973 28.7002C224.038 28.7545 224.079 28.8321 224.086 28.9162L224.081 29.619ZM226.708 28.946L226.635 29.6472C226.62 29.7258 226.577 29.7962 226.513 29.8453C226.45 29.8943 226.371 29.9188 226.291 29.9141H225.208C225.124 29.9205 225.041 29.8935 224.976 29.8389C224.912 29.7843 224.871 29.7065 224.864 29.6223V28.9195C224.871 28.8355 224.912 28.7578 224.976 28.7035C225.041 28.6491 225.124 28.6225 225.208 28.6294H226.369C226.412 28.6262 226.456 28.6321 226.497 28.6465C226.538 28.661 226.576 28.6838 226.608 28.7135C226.64 28.7433 226.665 28.7793 226.682 28.8193C226.7 28.8593 226.709 28.9024 226.708 28.946Z" fill="#E3ECED"/>
<path d="M231.212 40.3616L231.16 40.3831C231.117 40.3997 231.074 40.413 231.028 40.4262L230.879 40.4677C230.269 40.6334 229.574 40.3914 229.329 39.924L229.042 39.377L229.015 39.3256L228.296 37.9581L228.19 37.7575L228.051 37.4907L228.024 37.4409L226.927 35.3491C226.682 34.88 226.978 34.3645 227.59 34.1971L227.739 34.1556C227.896 34.1136 228.059 34.0969 228.222 34.1059C228.254 34.1069 228.287 34.1097 228.319 34.1142C228.442 34.1274 228.691 34.1755 228.706 34.1821L228.836 34.2186C229.045 34.3129 229.207 34.4857 229.289 34.6993L231.593 39.0952L231.691 39.2792C231.908 39.6936 231.696 40.1494 231.212 40.3616Z" fill="#2AA6B2"/>
<path opacity="0.2" d="M229.445 38.903C229.333 39.0159 229.195 39.0986 229.042 39.1433C228.987 39.1649 228.931 39.1848 228.876 39.203L229.017 39.0837L228.298 37.4261L228.076 39.8843L227.83 42.5994L227.789 43.0486H227.305C227.305 43.0486 225.284 42.0673 225.289 42.001C225.316 41.6695 227.375 40.7263 227.6 39.8279C227.912 38.5831 227.845 37.6383 228.024 36.8078C228.061 36.5896 228.127 36.3772 228.22 36.1763C228.22 36.1763 228.283 36.289 228.386 36.4713C228.691 37.0316 229.332 38.2383 229.445 38.719C229.467 38.7783 229.467 38.8437 229.445 38.903Z" fill="#151412"/>
<path d="M223.652 42.9442C223.362 42.9326 223.32 42.6243 223.599 42.5464C224.238 42.364 224.794 42.0159 225.351 42.0491C226.426 42.117 226.877 42.5679 226.877 42.5679C226.877 42.5679 226.962 43.0204 225.341 42.9939C224.691 42.984 224.112 42.9641 223.652 42.9442Z" fill="#F6AE94"/>
<path d="M231.378 40.4941C231.359 40.5107 231.34 40.5256 231.32 40.5405L228.27 42.581L227.996 42.765L227.675 42.9788L227.479 43.1098L227.323 43.2142L227.076 43.38C227.014 43.4201 226.942 43.4414 226.868 43.4414C226.794 43.4414 226.722 43.4201 226.66 43.38C226.61 43.3484 226.566 43.3067 226.533 43.2573L226.503 43.2142L226.006 42.4965C225.943 42.4097 225.914 42.3028 225.925 42.1962C225.935 42.0896 225.985 41.9906 226.064 41.918L227.481 40.7063L227.718 40.5041L227.874 40.3715L228.245 40.0532L228.432 39.8875L229.046 39.362L229.186 39.2427L229.611 38.8796L229.96 38.5813C230.166 38.4231 230.419 38.3369 230.678 38.336C230.828 38.335 230.976 38.3638 231.114 38.4207C231.253 38.4777 231.378 38.5615 231.484 38.6675C231.605 38.7898 231.699 38.9362 231.76 39.0972C231.821 39.2581 231.847 39.4301 231.838 39.602C231.828 39.7739 231.782 39.9418 231.704 40.0949C231.625 40.248 231.515 40.3829 231.381 40.4908L231.378 40.4941Z" fill="#EDB984"/>
<path d="M217.608 40.3617L217.66 40.3832C217.701 40.3998 217.746 40.4131 217.791 40.4263L217.941 40.4678C218.551 40.6335 219.244 40.3915 219.49 39.9241L219.776 39.3771L219.803 39.3257L220.524 37.9532L220.628 37.7527L220.768 37.4858L220.796 37.4361L221.891 35.3442C222.137 34.8751 221.842 34.3596 221.228 34.1922L221.077 34.1507C220.921 34.1088 220.759 34.092 220.597 34.101C220.564 34.101 220.53 34.101 220.497 34.1093C220.375 34.1226 220.128 34.1706 220.111 34.1773L219.98 34.2137C219.772 34.3082 219.61 34.481 219.529 34.6944L217.227 39.0903L217.131 39.2743C216.91 39.6937 217.124 40.1495 217.608 40.3617Z" fill="#2AA6B2"/>
<path opacity="0.2" d="M219.374 38.903C219.485 39.0159 219.624 39.0986 219.777 39.1433C219.832 39.1643 219.887 39.1842 219.942 39.203L219.8 39.0837L220.521 37.4261L220.741 39.8876L220.99 42.5994L221.03 43.0486H221.514C221.514 43.0486 223.534 42.0673 223.529 42.001C223.504 41.6695 221.446 40.7263 221.22 39.8279C220.909 38.5831 220.975 37.6383 220.796 36.8078C220.758 36.5898 220.692 36.3775 220.6 36.1763C220.6 36.1763 220.536 36.289 220.435 36.4713C220.128 37.0316 219.488 38.2383 219.374 38.719C219.353 38.7786 219.353 38.8434 219.374 38.903Z" fill="#151412"/>
<path d="M225.167 42.9442C225.458 42.9326 225.498 42.6243 225.22 42.5464C224.58 42.364 224.025 42.0159 223.469 42.0491C222.392 42.117 221.943 42.5679 221.943 42.5679C221.943 42.5679 221.858 43.0204 223.479 42.9939C224.127 42.984 224.706 42.9641 225.167 42.9442Z" fill="#F6AE94"/>
<path d="M217.442 40.4941L217.499 40.5405L220.55 42.581L220.824 42.765L221.145 42.9788L221.341 43.1098L221.495 43.2142L221.742 43.38C221.804 43.4201 221.876 43.4414 221.95 43.4414C222.024 43.4414 222.096 43.4201 222.158 43.38C222.209 43.3485 222.253 43.3067 222.287 43.2573L222.317 43.2142L222.815 42.4965C222.878 42.41 222.907 42.3032 222.897 42.1965C222.886 42.0897 222.837 41.9906 222.758 41.918L221.339 40.7063L221.104 40.5041L220.948 40.3715L220.575 40.0532L220.39 39.8874L219.776 39.362L219.634 39.2426L219.209 38.8796L218.86 38.5813C218.654 38.4226 218.402 38.3364 218.142 38.336C217.992 38.3352 217.844 38.3641 217.706 38.421C217.568 38.4779 217.442 38.5617 217.336 38.6675C217.216 38.7904 217.123 38.937 217.063 39.0979C217.003 39.2589 216.977 39.4306 216.986 39.6022C216.996 39.7737 217.042 39.9414 217.12 40.0944C217.198 40.2474 217.307 40.3824 217.441 40.4908L217.442 40.4941Z" fill="#EDB984"/>
<path d="M229.162 43.2708H219.148L218.873 37.3533C218.873 37.2425 218.917 37.1362 218.995 37.0579C219.074 36.9796 219.18 36.9355 219.291 36.9355H229.019C229.13 36.9355 229.236 36.9796 229.314 37.0579C229.393 37.1362 229.437 37.2425 229.437 37.3533L229.162 43.2708Z" fill="#EAEAEA"/>
<path d="M222.247 39.4511C222.247 39.4511 222.72 39.6492 223.197 40.104C223.883 40.8314 224.415 40.9192 224.415 40.9192C224.415 40.9192 224.117 40.9972 222.951 40.0326C222.622 39.7271 222.118 39.5062 222.118 39.5062L222.03 39.5544V39.5665C222.1 39.5938 222.442 39.7374 222.902 40.1072C223.309 40.4323 223.791 40.8542 224.417 40.9822C224.827 41.0556 225.322 40.812 225.322 40.812C225.322 40.812 224.928 40.6723 224.778 40.5197C224.627 40.3672 224.624 40.302 224.507 40.1721C224.39 40.0421 224.188 39.8722 223.911 39.7824C223.64 39.6687 223.394 39.6135 223.394 39.6135C223.394 39.6135 223.68 39.6363 223.926 39.7272C224.172 39.8182 224.443 40.013 224.443 40.013C224.443 40.013 224.406 39.9546 224.369 39.7695C224.332 39.5843 224.332 39.5226 224.332 39.5226C224.332 39.5226 223.957 39.2725 223.409 39.2369C223.373 39.2345 223.336 39.2334 223.299 39.2334C222.783 39.2334 222.247 39.4512 222.247 39.4512" fill="url(#paint0_linear)"/>
<path d="M222.309 39.526L222.435 39.5942C222.435 39.5942 222.773 39.3798 223.296 39.3832C223.818 39.3864 224.323 39.5942 224.323 39.5942C224.323 39.5942 223.997 39.3755 223.316 39.3286C222.668 39.3286 222.309 39.526 222.309 39.526Z" fill="#8BC540"/>
<path d="M224.413 38.8135C224.413 38.8135 224.514 38.9975 224.784 39.2812C225.014 39.5427 225.086 39.6212 225.178 39.736C225.27 39.8508 225.352 40.1148 225.352 40.1148C225.352 40.1148 225.29 39.9786 225.166 39.8161C225.041 39.6536 224.755 39.4069 224.636 39.2726C224.517 39.1383 224.399 38.9176 224.399 38.9176C224.399 38.9176 224.255 39.6537 224.604 40.1993C224.952 40.7448 225.393 40.7926 225.393 40.7926C225.393 40.7926 225.495 40.3964 225.424 40.1453C225.339 39.8986 225.307 39.736 224.829 39.2423C224.563 38.952 224.423 38.6792 224.423 38.6792L224.413 38.8135Z" fill="url(#paint1_linear)"/>
<path d="M224.44 38.9282L224.507 39.0343C224.507 39.0343 224.447 39.6929 224.591 39.9956C224.823 40.5392 225.28 40.6625 225.28 40.6625C225.28 40.6625 224.924 40.6712 224.577 40.0585C224.341 39.4522 224.44 38.9282 224.44 38.9282Z" fill="#009FAE"/>
<path d="M219.148 43.2622H229.161V43.3252C229.161 43.4632 229.107 43.5956 229.009 43.6932C228.911 43.7908 228.779 43.8457 228.641 43.8457H219.668C219.53 43.8457 219.398 43.7908 219.3 43.6932C219.203 43.5956 219.148 43.4632 219.148 43.3252V43.2622Z" fill="#C8C8C8"/>
<path d="M229.142 43.3339H219.168C219.136 43.3339 219.104 43.321 219.081 43.298C219.058 43.275 219.045 43.2438 219.045 43.2112C219.045 43.1785 219.058 43.1472 219.081 43.1239C219.104 43.1006 219.135 43.0873 219.168 43.0869H229.142C229.175 43.0869 229.206 43.1 229.23 43.1233C229.253 43.1466 229.266 43.1783 229.266 43.2112C229.266 43.2275 229.263 43.2436 229.257 43.2586C229.25 43.2735 229.241 43.2871 229.23 43.2986C229.218 43.31 229.204 43.319 229.189 43.325C229.174 43.3311 229.158 43.3341 229.142 43.3339Z" fill="#57657D"/>
<path d="M245.332 30.3555C245.332 33.1422 243.55 33.7889 241.28 33.7889C239.009 33.7889 237.114 33.1422 237.114 30.3555C237.114 27.5689 238.953 25.3081 241.222 25.3081C243.491 25.3081 245.332 27.5755 245.332 30.3555Z" fill="#593A35"/>
<path d="M242.479 30.9326V34.7397L241.233 35.4293L239.986 34.7397V30.9326H242.479Z" fill="#EDB984"/>
<g style="mix-blend-mode:multiply" opacity="0.29">
<g style="mix-blend-mode:multiply">
<path d="M242.479 30.9326V34.7397L241.233 35.4293L239.986 34.7397V30.9326H242.479Z" fill="#EDB984"/>
</g>
</g>
<path d="M246.107 38.3702H236.36C236.36 38.3702 236.36 38.2379 236.376 38.018C236.542 35.868 237.724 34.148 239.246 33.766L239.755 33.6387C239.988 34.3763 241.233 35.1899 241.233 35.1899C241.233 35.1899 242.479 34.3763 242.712 33.6387L243.221 33.766C244.741 34.148 245.919 35.8713 246.091 38.018C246.107 38.2379 246.107 38.3702 246.107 38.3702Z" fill="#2AA6B2"/>
<path d="M243.575 31.0834C243.537 31.2768 243.471 31.4635 243.378 31.6374C242.907 32.4775 242.08 33.4417 241.228 33.4417C240.377 33.4417 239.555 32.4775 239.078 31.6374C238.986 31.4635 238.92 31.2768 238.882 31.0834L238.635 29.2179C238.635 29.2179 238.516 26.9025 239.867 26.4064C240.129 26.2931 240.409 26.2276 240.694 26.2129H241.739C242.024 26.2276 242.304 26.2931 242.566 26.4064C243.918 26.9174 243.77 28.2917 243.82 29.165C243.843 29.1914 243.575 31.0834 243.575 31.0834Z" fill="#EDB984"/>
<path d="M242.315 31.5103C242.315 31.5614 242.31 31.6125 242.298 31.6624C242.26 31.8289 242.17 31.979 242.04 32.0907C241.827 32.2683 241.558 32.3655 241.28 32.3655C241.002 32.3655 240.733 32.2683 240.519 32.0907C240.39 31.979 240.299 31.8289 240.261 31.6624C240.25 31.6125 240.244 31.5614 240.244 31.5103H242.315Z" fill="#921913"/>
<path d="M242.315 31.5103C242.315 31.5614 242.31 31.6125 242.298 31.6624H240.261C240.25 31.6125 240.244 31.5614 240.244 31.5103H242.315Z" fill="white"/>
<path d="M242.04 32.0902C241.827 32.2677 241.557 32.3649 241.28 32.3649C241.002 32.3649 240.733 32.2677 240.519 32.0902C240.742 31.9336 241.007 31.8496 241.28 31.8496C241.552 31.8496 241.818 31.9336 242.04 32.0902Z" fill="#EB5D67"/>
<path d="M241.728 32.4012H241.678V32.2673C242.583 32.2805 243.241 31.915 243.633 31.1758C243.817 30.8255 243.93 30.4421 243.964 30.0479H244.089C244.06 30.4613 243.948 30.8647 243.759 31.2336C243.591 31.5611 243.342 31.8402 243.036 32.044C242.645 32.291 242.19 32.4154 241.728 32.4012Z" fill="#092F43"/>
<path d="M241.773 32.5802H241.154C241.123 32.5794 241.092 32.5723 241.063 32.5594C241.034 32.5466 241.008 32.5282 240.987 32.5053C240.965 32.4823 240.949 32.4554 240.938 32.426C240.927 32.3966 240.921 32.3652 240.923 32.3338C240.921 32.3024 240.927 32.2711 240.938 32.2417C240.949 32.2122 240.965 32.1853 240.987 32.1624C241.008 32.1395 241.034 32.1211 241.063 32.1082C241.092 32.0953 241.123 32.0883 241.154 32.0874H241.773C241.836 32.0896 241.896 32.1167 241.939 32.1629C241.983 32.209 242.006 32.2705 242.004 32.3338C242.006 32.3972 241.983 32.4586 241.939 32.5048C241.896 32.551 241.836 32.5781 241.773 32.5802Z" fill="#112530"/>
<path d="M244.477 29.3731C244.396 29.2795 244.282 29.2203 244.159 29.2078C244.095 29.1912 244.027 29.1912 243.962 29.2078V30.9558C244.027 30.9733 244.095 30.9733 244.159 30.9558C244.282 30.9431 244.396 30.884 244.477 30.7905C244.597 30.6449 244.597 29.522 244.477 29.3731Z" fill="#112530"/>
<path d="M243.724 29.5601V30.6235C243.718 30.6992 243.739 30.7746 243.782 30.8369C243.826 30.8993 243.889 30.9448 243.962 30.9658V29.2095C243.888 29.2308 243.823 29.2775 243.78 29.3416C243.736 29.4057 243.716 29.483 243.724 29.5601Z" fill="#112530"/>
<path d="M240.36 29.6809C240.36 29.8827 240.249 30.0464 240.112 30.0464C239.975 30.0464 239.866 29.881 239.866 29.6809C239.866 29.4808 239.977 29.3154 240.112 29.3154C240.248 29.3154 240.36 29.4792 240.36 29.6809Z" fill="#352B2A"/>
<path d="M242.395 30.045C242.531 30.045 242.641 29.8813 242.641 29.6795C242.641 29.4776 242.531 29.314 242.395 29.314C242.259 29.314 242.148 29.4776 242.148 29.6795C242.148 29.8813 242.259 30.045 242.395 30.045Z" fill="#352B2A"/>
<path d="M240.701 28.52C240.311 28.5687 239.931 28.6763 239.573 28.8392L239.662 28.9417C239.996 28.8057 240.345 28.708 240.701 28.6507V28.52Z" fill="#593A35"/>
<path d="M241.933 28.5117C242.321 28.5703 242.697 28.688 243.049 28.8607L242.948 28.9582C242.617 28.8125 242.269 28.7059 241.913 28.6407L241.933 28.5117Z" fill="#593A35"/>
<path d="M247.51 40.3928L247.458 40.4143C247.415 40.4308 247.372 40.4441 247.326 40.4573L247.177 40.4986C246.569 40.664 245.876 40.4226 245.631 39.9562L245.345 39.4104L245.318 39.3592L244.601 37.9948L244.495 37.7946L244.356 37.5284L244.329 37.4788L243.235 35.3917C242.99 34.9236 243.286 34.4093 243.896 34.2423L244.045 34.2009C244.202 34.159 244.364 34.1423 244.526 34.1513C244.559 34.1523 244.591 34.1551 244.624 34.1596C244.746 34.1728 244.994 34.2208 245.009 34.2274L245.14 34.2638C245.348 34.3578 245.51 34.5302 245.591 34.7434L247.89 39.1293L247.988 39.3129C248.204 39.7263 247.993 40.1811 247.51 40.3928Z" fill="#2AA6B2"/>
<path opacity="0.2" d="M245.747 38.9373C245.635 39.05 245.497 39.1325 245.345 39.1771C245.29 39.1986 245.234 39.2185 245.179 39.2367L245.32 39.1176L244.602 37.4638L244.381 39.9164L244.136 42.6253L244.095 43.0735H243.612C243.612 43.0735 241.596 42.0945 241.601 42.0283C241.627 41.6975 243.681 40.7565 243.906 39.8602C244.217 38.6181 244.151 37.6755 244.329 36.8469C244.366 36.6292 244.432 36.4173 244.525 36.2168C244.525 36.2168 244.587 36.3293 244.69 36.5112C244.994 37.0702 245.634 38.2741 245.747 38.7537C245.769 38.8129 245.769 38.8781 245.747 38.9373Z" fill="#151412"/>
<path d="M239.966 42.9695C239.677 42.9579 239.636 42.6503 239.914 42.5726C240.552 42.3906 241.106 42.0433 241.662 42.0764C242.735 42.1442 243.185 42.5941 243.185 42.5941C243.185 42.5941 243.269 43.0456 241.652 43.0191C241.003 43.0092 240.426 42.9893 239.966 42.9695Z" fill="#F6AE94"/>
<path d="M247.675 40.5249C247.657 40.5414 247.637 40.5563 247.617 40.5712L244.574 42.607L244.301 42.7906L243.98 43.0039L243.785 43.1346L243.63 43.2388L243.383 43.4042C243.321 43.4442 243.249 43.4655 243.176 43.4655C243.102 43.4655 243.03 43.4442 242.968 43.4042C242.918 43.3727 242.874 43.331 242.841 43.2818L242.811 43.2388L242.315 42.5227C242.252 42.4361 242.223 42.3295 242.234 42.2231C242.245 42.1167 242.294 42.0179 242.373 41.9455L243.787 40.7366L244.023 40.5348L244.179 40.4025L244.549 40.085L244.736 39.9196L245.348 39.3953L245.489 39.2762L245.912 38.9141L246.261 38.6164C246.466 38.4585 246.718 38.3725 246.977 38.3716C247.126 38.3707 247.274 38.3994 247.412 38.4562C247.55 38.513 247.675 38.5967 247.781 38.7024C247.902 38.8244 247.995 38.9705 248.056 39.1311C248.117 39.2917 248.144 39.4633 248.134 39.6348C248.124 39.8062 248.079 39.9738 248 40.1265C247.922 40.2793 247.812 40.4139 247.678 40.5216L247.675 40.5249Z" fill="#EDB984"/>
<path d="M234.929 40.3929L234.98 40.4144C235.022 40.4309 235.066 40.4441 235.111 40.4574L235.261 40.4987C235.87 40.6641 236.561 40.4226 236.806 39.9563L237.092 39.4105L237.119 39.3592L237.838 37.9899L237.942 37.7898L238.081 37.5235L238.109 37.4739L239.202 35.3868C239.447 34.9187 239.153 34.4044 238.541 34.2374L238.39 34.196C238.234 34.1542 238.072 34.1374 237.911 34.1464C237.878 34.1464 237.845 34.1464 237.812 34.1547C237.689 34.1679 237.443 34.2159 237.426 34.2225L237.296 34.2589C237.088 34.3531 236.926 34.5255 236.846 34.7385L234.549 39.1244L234.453 39.308C234.233 39.7264 234.446 40.1812 234.929 40.3929Z" fill="#2AA6B2"/>
<path opacity="0.2" d="M236.69 38.9373C236.802 39.05 236.94 39.1325 237.092 39.1771C237.147 39.1981 237.202 39.2179 237.258 39.2367L237.115 39.1176L237.835 37.4638L238.055 39.9197L238.303 42.6253L238.343 43.0735H238.825C238.825 43.0735 240.841 42.0945 240.836 42.0283C240.812 41.6975 238.758 40.7565 238.533 39.8602C238.222 38.6181 238.288 37.6755 238.109 36.8469C238.072 36.6294 238.006 36.4176 237.914 36.2168C237.914 36.2168 237.85 36.3293 237.749 36.5112C237.443 37.0702 236.804 38.2741 236.69 38.7537C236.67 38.8132 236.67 38.8778 236.69 38.9373Z" fill="#151412"/>
<path d="M242.47 42.9695C242.761 42.9579 242.801 42.6503 242.523 42.5726C241.885 42.3906 241.331 42.0433 240.777 42.0764C239.702 42.1442 239.254 42.5941 239.254 42.5941C239.254 42.5941 239.169 43.0456 240.787 43.0191C241.433 43.0092 242.011 42.9893 242.47 42.9695Z" fill="#F6AE94"/>
<path d="M234.764 40.5249L234.82 40.5712L237.865 42.607L238.137 42.7906L238.458 43.0039L238.653 43.1346L238.807 43.2388L239.054 43.4042C239.115 43.4442 239.188 43.4655 239.261 43.4655C239.335 43.4655 239.407 43.4442 239.469 43.4042C239.52 43.3728 239.564 43.3311 239.598 43.2818L239.627 43.2388L240.124 42.5227C240.187 42.4364 240.216 42.3298 240.206 42.2233C240.195 42.1169 240.146 42.0179 240.067 41.9455L238.652 40.7366L238.417 40.5348L238.261 40.4025L237.889 40.0849L237.704 39.9196L237.092 39.3953L236.95 39.2762L236.527 38.914L236.178 38.6164C235.972 38.4581 235.721 38.372 235.462 38.3716C235.312 38.3708 235.164 38.3997 235.027 38.4565C234.889 38.5132 234.763 38.5968 234.658 38.7024C234.538 38.825 234.445 38.9713 234.385 39.1319C234.325 39.2924 234.299 39.4638 234.309 39.6349C234.318 39.8061 234.364 39.9734 234.442 40.126C234.52 40.2787 234.629 40.4134 234.762 40.5216L234.764 40.5249Z" fill="#EDB984"/>
<path d="M245.96 43.2955H235.969L235.695 37.3914C235.695 37.2808 235.739 37.1748 235.817 37.0967C235.895 37.0185 236.001 36.9746 236.112 36.9746H245.818C245.928 36.9746 246.034 37.0185 246.113 37.0967C246.191 37.1748 246.235 37.2808 246.235 37.3914L245.96 43.2955Z" fill="#EAEAEA"/>
<path d="M239.065 39.4511C239.065 39.4511 239.538 39.6492 240.015 40.104C240.7 40.8314 241.233 40.9192 241.233 40.9192C241.233 40.9192 240.934 40.9972 239.769 40.0326C239.44 39.7271 238.935 39.5062 238.935 39.5062L238.847 39.5544V39.5665C238.917 39.5938 239.26 39.7374 239.72 40.1072C240.126 40.4323 240.608 40.8542 241.235 40.9822C241.644 41.0556 242.14 40.812 242.14 40.812C242.14 40.812 241.746 40.6723 241.595 40.5197C241.444 40.3672 241.442 40.302 241.325 40.1721C241.208 40.0421 241.006 39.8722 240.728 39.7824C240.457 39.6687 240.211 39.6135 240.211 39.6135C240.211 39.6135 240.498 39.6363 240.744 39.7272C240.99 39.8182 241.26 40.013 241.26 40.013C241.26 40.013 241.223 39.9546 241.186 39.7695C241.15 39.5843 241.149 39.5226 241.149 39.5226C241.149 39.5226 240.774 39.2725 240.227 39.2369C240.19 39.2345 240.154 39.2334 240.117 39.2334C239.6 39.2334 239.065 39.4512 239.065 39.4512" fill="url(#paint2_linear)"/>
<path d="M239.126 39.526L239.252 39.5942C239.252 39.5942 239.591 39.3798 240.113 39.3832C240.636 39.3864 241.14 39.5942 241.14 39.5942C241.14 39.5942 240.814 39.3755 240.133 39.3286C239.486 39.3286 239.126 39.526 239.126 39.526Z" fill="#8BC540"/>
<path d="M241.231 38.8135C241.231 38.8135 241.331 38.9975 241.602 39.2812C241.831 39.5427 241.903 39.6212 241.995 39.736C242.087 39.8508 242.169 40.1148 242.169 40.1148C242.169 40.1148 242.108 39.9786 241.983 39.8161C241.858 39.6536 241.573 39.4069 241.454 39.2726C241.335 39.1383 241.216 38.9176 241.216 38.9176C241.216 38.9176 241.073 39.6537 241.421 40.1993C241.77 40.7448 242.21 40.7926 242.21 40.7926C242.21 40.7926 242.313 40.3964 242.241 40.1453C242.156 39.8986 242.124 39.736 241.647 39.2423C241.38 38.952 241.241 38.6792 241.241 38.6792L241.231 38.8135Z" fill="url(#paint3_linear)"/>
<path d="M241.257 38.9282L241.325 39.0343C241.325 39.0343 241.265 39.6929 241.409 39.9956C241.64 40.5392 242.098 40.6625 242.098 40.6625C242.098 40.6625 241.741 40.6712 241.394 40.0585C241.159 39.4522 241.257 38.9282 241.257 38.9282Z" fill="#009FAE"/>
<path d="M235.969 43.2935H245.96V43.3563C245.96 43.494 245.905 43.6261 245.808 43.7235C245.71 43.8209 245.578 43.8756 245.441 43.8756H236.489C236.351 43.8756 236.219 43.8209 236.121 43.7235C236.024 43.6261 235.969 43.494 235.969 43.3563V43.2935Z" fill="#C8C8C8"/>
<path d="M245.94 43.3577H235.989C235.957 43.3577 235.925 43.3449 235.903 43.3219C235.88 43.2989 235.867 43.2678 235.867 43.2354C235.867 43.2028 235.88 43.1715 235.902 43.1482C235.925 43.125 235.956 43.1118 235.989 43.1113H245.94C245.973 43.1113 246.005 43.1244 246.028 43.1477C246.051 43.1709 246.064 43.2025 246.064 43.2354C246.064 43.2516 246.061 43.2676 246.055 43.2826C246.048 43.2975 246.039 43.3111 246.028 43.3225C246.016 43.3339 246.002 43.3429 245.987 43.3489C245.972 43.355 245.956 43.358 245.94 43.3577Z" fill="#57657D"/>
<path d="M238.442 28.5199C239.283 28.4751 240.103 28.2345 240.835 27.817C242.128 27.1092 242.323 26.9901 242.323 26.9901C242.497 27.3333 242.699 27.6618 242.925 27.9725C243.201 28.3722 243.557 28.7102 243.971 28.9648L244.273 28.5182C244.273 28.5182 244.227 27.311 243.612 26.7619C242.997 26.2128 242.486 25.5215 241.232 25.7514C239.978 25.9813 238.439 26.8677 238.368 27.5061C238.314 27.8453 238.34 28.1922 238.442 28.5199Z" fill="#593A35"/>
<path d="M223.59 82.9731C223.59 83.4631 223.504 83.8926 223.331 84.2617C223.157 84.6309 222.909 84.9157 222.585 85.1162C222.264 85.3167 221.895 85.417 221.478 85.417C221.066 85.417 220.698 85.3179 220.374 85.1196C220.05 84.9214 219.8 84.6388 219.622 84.272C219.444 83.9028 219.354 83.479 219.352 83.0005V82.7544C219.352 82.2645 219.44 81.8338 219.615 81.4624C219.793 81.0887 220.042 80.8027 220.364 80.6045C220.687 80.404 221.056 80.3037 221.471 80.3037C221.886 80.3037 222.254 80.404 222.575 80.6045C222.899 80.8027 223.148 81.0887 223.324 81.4624C223.501 81.8338 223.59 82.2633 223.59 82.751V82.9731ZM222.551 82.7476C222.551 82.2257 222.458 81.8293 222.271 81.5581C222.084 81.2869 221.818 81.1514 221.471 81.1514C221.127 81.1514 220.862 81.2858 220.675 81.5547C220.488 81.8213 220.393 82.2132 220.391 82.7305V82.9731C220.391 83.4813 220.485 83.8755 220.671 84.1558C220.858 84.436 221.127 84.5762 221.478 84.5762C221.822 84.5762 222.086 84.4417 222.271 84.1729C222.456 83.9017 222.549 83.5075 222.551 82.9902V82.7476Z" fill="white"/>
<path d="M226.178 83.5269H225.361V85.3486H224.335V80.3721H226.185C226.772 80.3721 227.226 80.5031 227.545 80.7651C227.864 81.0272 228.023 81.3975 228.023 81.876C228.023 82.2155 227.949 82.4992 227.801 82.7271C227.655 82.9526 227.433 83.1326 227.135 83.2671L228.211 85.3008V85.3486H227.111L226.178 83.5269ZM225.361 82.6963H226.188C226.445 82.6963 226.645 82.6313 226.786 82.5015C226.927 82.3693 226.998 82.1882 226.998 81.958C226.998 81.7233 226.931 81.5387 226.796 81.4043C226.664 81.2699 226.46 81.2026 226.185 81.2026H225.361V82.6963Z" fill="white"/>
<path d="M231.8 83.1919H229.832V84.5249H232.142V85.3486H228.806V80.3721H232.135V81.2026H229.832V82.3887H231.8V83.1919Z" fill="white"/>
<path d="M236.791 85.3486H235.765L233.769 82.0742V85.3486H232.744V80.3721H233.769L235.769 83.6533V80.3721H236.791V85.3486Z" fill="white"/>
<path d="M237.686 85.3486V80.3721H239.217C239.655 80.3721 240.046 80.4712 240.39 80.6694C240.736 80.8654 241.006 81.1457 241.2 81.5103C241.393 81.8726 241.49 82.285 241.49 82.7476V82.9766C241.49 83.4391 241.395 83.8504 241.203 84.2104C241.014 84.5705 240.746 84.8496 240.4 85.0479C240.054 85.2461 239.663 85.3464 239.228 85.3486H237.686ZM238.711 81.2026V84.5249H239.207C239.608 84.5249 239.915 84.3939 240.126 84.1318C240.338 83.8698 240.447 83.495 240.451 83.0073V82.7441C240.451 82.2383 240.346 81.8555 240.137 81.5957C239.927 81.3337 239.621 81.2026 239.217 81.2026H238.711Z" fill="white"/>
<path d="M244.973 84.3232H243.175L242.833 85.3486H241.743L243.596 80.3721H244.546L246.409 85.3486H245.318L244.973 84.3232ZM243.452 83.4927H244.696L244.071 81.6299L243.452 83.4927Z" fill="white"/>
<path d="M227.377 89.2026H225.853V93.3486H224.828V89.2026H223.324V88.3721H227.377V89.2026Z" fill="white"/>
<path d="M230.959 91.1919H228.991V92.5249H231.301V93.3486H227.965V88.3721H231.294V89.2026H228.991V90.3887H230.959V91.1919Z" fill="white"/>
<path d="M234.712 92.3232H232.915L232.573 93.3486H231.482L233.335 88.3721H234.285L236.148 93.3486H235.058L234.712 92.3232ZM233.191 91.4927H234.436L233.81 89.6299L233.191 91.4927Z" fill="white"/>
<path d="M237.953 88.3721L239.231 91.9814L240.502 88.3721H241.849V93.3486H240.82V91.9883L240.923 89.6401L239.58 93.3486H238.875L237.536 89.6436L237.638 91.9883V93.3486H236.613V88.3721H237.953Z" fill="white"/>
<path d="M77 26H83V42H77V26Z" fill="#81C73C"/>
<path d="M81.8882 48.209V20.1807L90.8572 34.1948L81.8882 48.209Z" fill="#81C73C"/>
<path d="M177 26H182V42H177V26Z" fill="#3E83CC"/>
<path d="M181.171 48.209V20.1807L190.14 34.1948L181.171 48.209Z" fill="#3E83CC"/>
<defs>
<filter id="filter0_d" x="1.68555" y="2.14209" width="65.6068" height="65.6068" filterUnits="userSpaceOnUse" color-interpolation-filters="sRGB">
<feFlood flood-opacity="0" result="BackgroundImageFix"/>
<feColorMatrix in="SourceAlpha" type="matrix" values="0 0 0 0 0 0 0 0 0 0 0 0 0 0 0 0 0 0 127 0" result="hardAlpha"/>
<feOffset dy="1"/>
<feGaussianBlur stdDeviation="1.5"/>
<feComposite in2="hardAlpha" operator="out"/>
<feColorMatrix type="matrix" values="0 0 0 0 0 0 0 0 0 0 0 0 0 0 0 0 0 0 0.21 0"/>
<feBlend mode="normal" in2="BackgroundImageFix" result="effect1_dropShadow"/>
<feBlend mode="normal" in="SourceGraphic" in2="effect1_dropShadow" result="shape"/>
</filter>
<filter id="filter1_d" x="3.36182" y="72.3486" width="60.3316" height="31.736" filterUnits="userSpaceOnUse" color-interpolation-filters="sRGB">
<feFlood flood-opacity="0" result="BackgroundImageFix"/>
<feColorMatrix in="SourceAlpha" type="matrix" values="0 0 0 0 0 0 0 0 0 0 0 0 0 0 0 0 0 0 127 0" result="hardAlpha"/>
<feOffset dy="1"/>
<feGaussianBlur stdDeviation="1.5"/>
<feComposite in2="hardAlpha" operator="out"/>
<feColorMatrix type="matrix" values="0 0 0 0 0 0 0 0 0 0 0 0 0 0 0 0 0 0 0.21 0"/>
<feBlend mode="normal" in2="BackgroundImageFix" result="effect1_dropShadow"/>
<feBlend mode="normal" in="SourceGraphic" in2="effect1_dropShadow" result="shape"/>
</filter>
<filter id="filter2_d" x="100.968" y="2.14209" width="65.6068" height="65.6068" filterUnits="userSpaceOnUse" color-interpolation-filters="sRGB">
<feFlood flood-opacity="0" result="BackgroundImageFix"/>
<feColorMatrix in="SourceAlpha" type="matrix" values="0 0 0 0 0 0 0 0 0 0 0 0 0 0 0 0 0 0 127 0" result="hardAlpha"/>
<feOffset dy="1"/>
<feGaussianBlur stdDeviation="1.5"/>
<feComposite in2="hardAlpha" operator="out"/>
<feColorMatrix type="matrix" values="0 0 0 0 0 0 0 0 0 0 0 0 0 0 0 0 0 0 0.21 0"/>
<feBlend mode="normal" in2="BackgroundImageFix" result="effect1_dropShadow"/>
<feBlend mode="normal" in="SourceGraphic" in2="effect1_dropShadow" result="shape"/>
</filter>
<filter id="filter3_d" x="103.446" y="72.3486" width="60.3316" height="31.736" filterUnits="userSpaceOnUse" color-interpolation-filters="sRGB">
<feFlood flood-opacity="0" result="BackgroundImageFix"/>
<feColorMatrix in="SourceAlpha" type="matrix" values="0 0 0 0 0 0 0 0 0 0 0 0 0 0 0 0 0 0 127 0" result="hardAlpha"/>
<feOffset dy="1"/>
<feGaussianBlur stdDeviation="1.5"/>
<feComposite in2="hardAlpha" operator="out"/>
<feColorMatrix type="matrix" values="0 0 0 0 0 0 0 0 0 0 0 0 0 0 0 0 0 0 0.21 0"/>
<feBlend mode="normal" in2="BackgroundImageFix" result="effect1_dropShadow"/>
<feBlend mode="normal" in="SourceGraphic" in2="effect1_dropShadow" result="shape"/>
</filter>
<filter id="filter4_d" x="200.251" y="2.14209" width="65.6068" height="65.6068" filterUnits="userSpaceOnUse" color-interpolation-filters="sRGB">
<feFlood flood-opacity="0" result="BackgroundImageFix"/>
<feColorMatrix in="SourceAlpha" type="matrix" values="0 0 0 0 0 0 0 0 0 0 0 0 0 0 0 0 0 0 127 0" result="hardAlpha"/>
<feOffset dy="1"/>
<feGaussianBlur stdDeviation="1.5"/>
<feComposite in2="hardAlpha" operator="out"/>
<feColorMatrix type="matrix" values="0 0 0 0 0 0 0 0 0 0 0 0 0 0 0 0 0 0 0.21 0"/>
<feBlend mode="normal" in2="BackgroundImageFix" result="effect1_dropShadow"/>
<feBlend mode="normal" in="SourceGraphic" in2="effect1_dropShadow" result="shape"/>
</filter>
<filter id="filter5_d" x="202.578" y="72.3486" width="60.3316" height="31.736" filterUnits="userSpaceOnUse" color-interpolation-filters="sRGB">
<feFlood flood-opacity="0" result="BackgroundImageFix"/>
<feColorMatrix in="SourceAlpha" type="matrix" values="0 0 0 0 0 0 0 0 0 0 0 0 0 0 0 0 0 0 127 0" result="hardAlpha"/>
<feOffset dy="1"/>
<feGaussianBlur stdDeviation="1.5"/>
<feComposite in2="hardAlpha" operator="out"/>
<feColorMatrix type="matrix" values="0 0 0 0 0 0 0 0 0 0 0 0 0 0 0 0 0 0 0.21 0"/>
<feBlend mode="normal" in2="BackgroundImageFix" result="effect1_dropShadow"/>
<feBlend mode="normal" in="SourceGraphic" in2="effect1_dropShadow" result="shape"/>
</filter>
<linearGradient id="paint0_linear" x1="222.03" y1="40.1146" x2="225.322" y2="40.1146" gradientUnits="userSpaceOnUse">
<stop stop-color="#DBE9CE"/>
<stop offset="0.15" stop-color="#C5DFA7"/>
<stop offset="0.32" stop-color="#B0D682"/>
<stop offset="0.5" stop-color="#A0CE65"/>
<stop offset="0.67" stop-color="#94C950"/>
<stop offset="0.84" stop-color="#8DC644"/>
<stop offset="1" stop-color="#8BC540"/>
</linearGradient>
<linearGradient id="paint1_linear" x1="224.369" y1="39.7359" x2="225.449" y2="39.7359" gradientUnits="userSpaceOnUse">
<stop stop-color="#C3DFE2"/>
<stop offset="0.01" stop-color="#BFDEE1"/>
<stop offset="0.15" stop-color="#8DCDD4"/>
<stop offset="0.29" stop-color="#62BFC8"/>
<stop offset="0.43" stop-color="#3EB4BF"/>
<stop offset="0.57" stop-color="#23ABB7"/>
<stop offset="0.71" stop-color="#10A4B2"/>
<stop offset="0.85" stop-color="#04A0AF"/>
<stop offset="1" stop-color="#009FAE"/>
</linearGradient>
<linearGradient id="paint2_linear" x1="238.847" y1="40.1146" x2="242.14" y2="40.1146" gradientUnits="userSpaceOnUse">
<stop stop-color="#DBE9CE"/>
<stop offset="0.15" stop-color="#C5DFA7"/>
<stop offset="0.32" stop-color="#B0D682"/>
<stop offset="0.5" stop-color="#A0CE65"/>
<stop offset="0.67" stop-color="#94C950"/>
<stop offset="0.84" stop-color="#8DC644"/>
<stop offset="1" stop-color="#8BC540"/>
</linearGradient>
<linearGradient id="paint3_linear" x1="241.187" y1="39.7359" x2="242.267" y2="39.7359" gradientUnits="userSpaceOnUse">
<stop stop-color="#C3DFE2"/>
<stop offset="0.01" stop-color="#BFDEE1"/>
<stop offset="0.15" stop-color="#8DCDD4"/>
<stop offset="0.29" stop-color="#62BFC8"/>
<stop offset="0.43" stop-color="#3EB4BF"/>
<stop offset="0.57" stop-color="#23ABB7"/>
<stop offset="0.71" stop-color="#10A4B2"/>
<stop offset="0.85" stop-color="#04A0AF"/>
<stop offset="1" stop-color="#009FAE"/>
</linearGradient>
</defs>
</svg>
