<svg width="174" height="49" viewBox="0 0 174 49" fill="none" xmlns="http://www.w3.org/2000/svg">
<path d="M4.57103 16.2336C4.57103 16.2336 14.5283 20.3987 24.552 29.9615C38.9681 45.2576 50.1572 47.1025 50.1572 47.1025C50.1572 47.1025 43.8847 48.7433 19.3786 28.4603C12.4593 22.038 1.85702 17.393 1.85702 17.393L0 18.4055V18.6604C1.47385 19.2337 8.6796 22.2538 18.344 30.0286C26.8931 36.8645 37.0303 45.7368 50.2111 48.428C58.8201 49.9713 69.23 44.8498 69.23 44.8498C69.23 44.8498 60.9548 41.9124 57.7845 38.704C54.6141 35.4957 54.5541 34.1266 52.0966 31.394C49.639 28.6614 45.384 25.0881 39.5519 23.1996C33.8591 20.8096 28.6853 19.6491 28.6853 19.6491C28.6853 19.6491 34.7032 20.1267 39.8767 22.0391C45.0502 23.9515 50.7388 28.0491 50.7388 28.0491C50.7388 28.0491 49.9641 26.8211 49.1887 22.9276C48.4133 19.0341 48.411 17.7359 48.411 17.7359C48.411 17.7359 40.5235 12.479 29.0138 11.7294C28.2433 11.6789 27.4694 11.6558 26.6959 11.6558C15.8368 11.6558 4.57103 16.2355 4.57103 16.2355" fill="url(#paint0_linear)"/>
<path d="M5.86621 17.8029L8.51573 19.2369C8.51573 19.2369 15.6312 14.7292 26.6185 14.8005C37.6122 14.8684 48.2183 19.2369 48.2183 19.2369C48.2183 19.2369 41.3608 14.6385 27.043 13.6533C13.4308 13.6533 5.86621 17.8029 5.86621 17.8029Z" fill="#8BC540"/>
<path d="M50.1151 2.82365C50.1151 2.82365 52.2278 6.69322 57.9165 12.6592C62.7421 18.1578 64.255 19.8077 66.192 22.222C68.1291 24.6363 69.8575 30.1861 69.8575 30.1861C69.8575 30.1861 68.5631 27.3218 65.9363 23.9056C63.3096 20.4894 57.3133 15.3019 54.811 12.4775C52.3086 9.65306 49.8093 5.01261 49.8093 5.01261C49.8093 5.01261 46.7953 20.4909 54.1228 31.9627C61.4503 43.4344 70.7194 44.4397 70.7194 44.4397C70.7194 44.4397 72.8739 36.1084 71.3625 30.8276C69.5855 25.6412 68.9083 22.222 58.863 11.8401C53.2578 5.73721 50.3272 0 50.3272 0L50.1151 2.82365Z" fill="url(#paint1_linear)"/>
<path d="M50.6715 5.23926L52.0979 7.47071C52.0979 7.47071 50.8338 21.3177 53.865 27.6839C58.7365 39.1132 68.3478 41.707 68.3478 41.707C68.3478 41.707 60.8484 41.8902 53.5645 29.006C48.6039 16.2565 50.6715 5.23926 50.6715 5.23926Z" fill="#009FAE"/>
<path d="M166.561 25.4192C167.227 24.4685 167.524 23.129 167.494 21.9446C167.411 18.6657 164.669 16.2457 161.287 16.7628C159.681 17.0105 158.498 17.9768 157.81 19.0599C157.415 19.6824 156.854 21.1369 156.94 22.5998C156.981 23.3206 157.07 23.8987 157.436 24.6965C158.115 26.1761 159.864 27.6936 161.969 27.7804C164.058 27.8665 165.684 26.6803 166.561 25.4192ZM171.527 29.8108H169.17C168.703 28.9801 168.329 28.1013 168.052 27.1897C167.79 27.1795 167.629 27.5012 167.494 27.6484C166.318 28.887 164.612 30.0612 162.217 30.0764C157.888 30.0919 154.512 26.2618 154.83 21.5527C154.944 19.855 155.711 18.1171 156.879 16.8311C158.247 15.3341 160.318 14.0184 163.146 14.4031C165.072 14.6664 166.535 15.6721 167.618 16.8963C168.737 18.1702 169.432 19.9992 169.541 22.0095C169.579 22.6661 169.511 23.113 169.541 23.7815C169.629 25.6597 170.182 27.0577 170.906 28.436C171.129 28.8563 171.438 29.2877 171.528 29.8116" fill="#231F20"/>
<path d="M148.187 24.5666C149.088 22.7414 148.784 20.3313 147.88 18.9291C146.943 17.4792 144.935 16.2239 142.603 16.5012C141.945 16.5771 141.226 16.7956 140.741 17.0903C138.961 18.1628 137.42 21.0821 138.443 23.9767C139.1 25.8356 140.874 27.5401 143.284 27.5807C145.295 27.6148 147.339 26.2927 148.187 24.5654V24.5666ZM150.92 10.6016C150.971 13.4033 150.858 16.0532 150.858 18.7304C150.858 20.8104 150.95 22.9034 150.423 24.4968C149.481 27.3383 147.156 29.6285 143.721 29.8079C141.077 29.9532 139.272 28.8314 137.885 27.1869C136.669 25.7491 135.981 24.0457 136.022 21.7433C136.074 18.7725 137.801 16.3088 139.869 15.1229C140.641 14.6802 141.553 14.2542 142.665 14.1392C145.593 13.8391 147.212 15.184 148.749 16.4985C148.759 14.3786 148.888 12.7781 148.749 10.7321C148.749 10.6156 148.796 10.561 148.871 10.5326C149.536 10.5705 150.357 10.451 150.92 10.6009" fill="#231F20"/>
<path d="M132.609 18.4056C132.661 19.1852 132.547 20.1507 132.547 21.0912C132.547 23.8298 132.485 27.1531 132.424 29.7465C131.734 29.7085 130.897 29.8307 130.312 29.6809C130.365 26.9987 130.437 23.5521 130.437 20.6325C130.437 19.2076 130.631 18.049 130 17.2246C128.859 15.7273 125.744 15.9727 125.098 17.7482C124.805 18.5361 124.975 19.7156 124.975 20.8309C124.975 23.5392 124.89 26.8348 124.788 29.6809C123.886 29.6938 123.401 29.6365 122.737 29.6152C122.908 25.7582 122.558 21.7088 122.8 18.4056C122.99 15.7538 125.077 13.6339 128.263 13.9461C130.653 14.1821 132.434 15.8266 132.609 18.4056Z" fill="#231F20"/>
<path d="M117.027 17.7475C116.81 16.9732 116.034 16.3324 115.29 15.9121C113.411 14.8464 111.075 15.0668 109.517 16.1742C108.959 16.5722 108.25 17.0107 108.216 17.6807C111.193 17.6598 114.122 17.694 117.027 17.7475ZM118.644 16.9599C119.051 17.6807 119.441 18.5184 119.449 19.4546C115.94 19.5134 111.531 19.3488 107.656 19.3867C107.372 19.842 107.293 20.4038 107.282 21.0275C107.225 25.4195 111.038 27.7363 115.476 26.4692C115.521 26.8508 115.447 27.8729 115.476 28.6316C114.338 29.0197 113.191 29.0459 112.124 28.9586C108.088 28.6198 105.173 25.4521 105.173 21.1561C105.173 18.7809 106.36 16.5278 107.656 15.3222C108.775 14.2774 110.351 13.4974 111.999 13.354C115.201 13.0755 117.473 14.9124 118.644 16.958" fill="#231F20"/>
<path d="M101.511 13.4214C101.789 13.9802 101.555 15.0789 101.634 15.8494C100.688 16.4116 99.9325 16.7659 99.2773 17.4871C97.0747 19.8972 98.1161 25.1261 97.7219 29.29C97.1187 29.4467 96.3111 29.3113 95.6733 29.29C95.9389 25.1041 95.2063 21.1268 96.4184 18.0778C96.7648 17.2026 97.3289 16.2686 97.9086 15.6528C98.8608 14.6357 100.147 14.1498 101.51 13.4221" fill="#231F20"/>
<path d="M86.4891 26.6643C89.3689 25.8342 91.2692 21.9267 89.7138 18.7313C89.3948 18.0832 88.9528 17.5034 88.4125 17.0241C87.4713 16.1838 86.0984 15.5601 84.2524 15.7786C83.5915 15.8545 82.991 16.0135 82.5774 16.2384C81.6002 16.7737 80.3896 18.1008 79.9719 19.4525C79.0235 22.5219 80.7898 25.3012 82.5774 26.2693C83.8252 26.9416 85.4477 26.9644 86.4891 26.6628V26.6643ZM92.3219 20.1717C92.4782 21.6782 92.2609 23.2852 91.7646 24.4966C90.8022 26.8308 88.5214 28.8252 85.6814 29.0869C84.1617 29.2303 82.4898 28.8312 81.4609 28.236C79.2515 26.9632 77.577 24.2792 77.6119 21.0242C77.6289 19.4513 78.3831 17.5313 78.8524 16.8261C79.9067 15.2365 81.714 13.7498 84.1302 13.4823C84.6575 13.4235 85.7235 13.3685 86.3643 13.4823C88.6606 13.8932 90.5211 15.7343 91.3299 17.155C91.4293 17.3238 91.4816 17.597 91.5769 17.8105C91.8606 18.4263 92.2464 19.3777 92.3219 20.1706" fill="#231F20"/>
<path d="M81.4101 34.6021H82.239V36.0376H83.0163V36.744H82.239V40.1003C82.239 40.2786 82.2963 40.3996 82.4074 40.461C82.4712 40.4944 82.5774 40.5119 82.7284 40.5119L82.8543 40.5092L83.0163 40.4929V41.1796C82.9197 41.21 82.8206 41.2313 82.72 41.2433C82.6111 41.2561 82.5015 41.2624 82.3919 41.2619C82.0083 41.2619 81.7507 41.1598 81.613 40.9523C81.4753 40.7448 81.4101 40.4781 81.4101 40.1469V36.744H80.7515V36.0376H81.4101V34.6021Z" fill="#231F20"/>
<path d="M88.9948 38.1985C88.9626 37.8233 88.8829 37.5228 88.7638 37.2979C88.5411 36.8855 88.1708 36.6761 87.6511 36.6761C87.4729 36.6732 87.2963 36.7101 87.1342 36.7841C86.9721 36.8581 86.8285 36.9674 86.7141 37.104C86.4618 37.3935 86.3282 37.7561 86.3096 38.1985H88.9948ZM88.7012 36.1803C89.0233 36.3513 89.2703 36.5718 89.436 36.8441C89.6044 37.1218 89.7153 37.4303 89.7623 37.7516C89.8098 37.9909 89.8336 38.369 89.8336 38.8859H86.293C86.3066 39.4079 86.4219 39.8294 86.6405 40.1447C86.859 40.4599 87.1909 40.6204 87.6454 40.6204C88.0676 40.6204 88.4072 40.4686 88.6602 40.1701C88.8032 39.9937 88.9058 39.7882 88.9611 39.568H89.7638C89.7443 39.7562 89.6748 39.9664 89.5552 40.1985C89.4523 40.4085 89.3178 40.6014 89.1564 40.7706C88.9074 41.0266 88.5903 41.2059 88.2425 41.2873C88.0248 41.3407 87.8013 41.3662 87.5771 41.3632C86.9751 41.3632 86.4644 41.1325 86.0456 40.6655C85.6268 40.1985 85.417 39.546 85.417 38.708C85.417 37.8815 85.6283 37.2113 86.0509 36.6973C86.4735 36.1834 87.0243 35.9258 87.7031 35.9246C88.0519 35.9251 88.395 36.013 88.7012 36.1803Z" fill="#231F20"/>
<path d="M95.9506 36.31C96.2953 36.5922 96.5021 37.0775 96.5709 37.7656H95.7772C95.7291 37.4473 95.6179 37.1848 95.4442 36.975C95.2704 36.7652 94.9942 36.662 94.6137 36.662C94.0902 36.662 93.7173 36.9297 93.495 37.4652C93.3493 37.8142 93.2749 38.244 93.2749 38.755C93.2749 39.266 93.3793 39.7034 93.5837 40.054C93.7882 40.4045 94.1149 40.5828 94.5583 40.5828C94.8975 40.5828 95.1653 40.4739 95.3656 40.2539C95.5659 40.0339 95.7025 39.7376 95.7772 39.3578H96.5709C96.4798 40.0407 96.2556 40.5369 95.8911 40.8529C95.5265 41.169 95.061 41.326 94.4931 41.326C93.8584 41.326 93.3493 41.0806 92.9699 40.5897C92.5906 40.0988 92.4009 39.4868 92.4009 38.7463C92.4009 37.8457 92.6065 37.1442 93.0242 36.6404C93.4419 36.1366 93.9692 35.8862 94.6122 35.8862C95.1615 35.8862 95.6043 36.0266 95.9491 36.3085" fill="#231F20"/>
<path d="M99.251 34.1011H100.072V36.7335C100.261 36.4748 100.439 36.2908 100.594 36.1865C100.86 36.004 101.185 35.9133 101.58 35.9133C102.283 35.9133 102.764 36.1728 103.015 36.6952C103.153 36.9813 103.222 37.3743 103.222 37.8804V41.1809H102.381V37.9395C102.381 37.5621 102.334 37.2851 102.245 37.1099C102.093 36.825 101.815 36.6857 101.405 36.6857C101.064 36.6857 100.758 36.8102 100.481 37.0568C100.204 37.3033 100.07 37.7677 100.07 38.4528V41.1809H99.2495L99.251 34.1011Z" fill="#231F20"/>
<path d="M106.293 36.0375H107.072V36.7666C107.299 36.4662 107.545 36.2495 107.801 36.1217C108.068 35.9874 108.364 35.9196 108.664 35.924C109.352 35.924 109.819 36.1763 110.062 36.6862C110.197 36.9646 110.26 37.3641 110.26 37.882V41.1825H109.43V37.9411C109.43 37.6282 109.386 37.3755 109.298 37.1824C109.152 36.862 108.888 36.7016 108.505 36.7014C108.344 36.6968 108.184 36.7181 108.031 36.7643C107.795 36.8415 107.588 36.9888 107.438 37.1866C107.31 37.3389 107.22 37.5191 107.175 37.7128C107.131 37.8952 107.113 38.1513 107.113 38.4874V41.181H106.293V36.0375Z" fill="#231F20"/>
<path d="M116.358 39.9686C116.558 39.5134 116.659 39.0206 116.654 38.5232C116.654 38.0427 116.582 37.6522 116.438 37.3518C116.211 36.8796 115.818 36.6435 115.26 36.6435C114.767 36.6435 114.407 36.8438 114.18 37.2474C113.953 37.6511 113.845 38.1359 113.845 38.7053C113.845 39.2524 113.959 39.7065 114.18 40.0711C114.401 40.4356 114.762 40.6196 115.252 40.6196C115.787 40.6196 116.155 40.4025 116.358 39.9683V39.9686ZM116.863 36.5498C117.293 36.9909 117.508 37.6403 117.508 38.4982C117.508 39.3268 117.318 40.0157 116.939 40.5517C116.559 41.0878 115.971 41.3624 115.173 41.3624C114.509 41.3624 113.98 41.1239 113.588 40.647C113.195 40.17 112.999 39.5272 113 38.7186C113 37.8557 113.207 37.1681 113.619 36.656C114.034 36.1442 114.585 35.8889 115.282 35.8889C115.903 35.8889 116.432 36.1093 116.861 36.5498" fill="#231F20"/>
<path d="M121.215 34.125H120.395V41.1798H121.215V34.125Z" fill="#231F20"/>
<path d="M127.323 39.9687C127.524 39.5362 127.624 39.0544 127.624 38.5233C127.624 38.0427 127.552 37.6522 127.408 37.3518C127.181 36.8795 126.786 36.6435 126.232 36.6435C125.736 36.6435 125.376 36.8438 125.152 37.2474C124.927 37.6511 124.814 38.1359 124.814 38.7054C124.814 39.2524 124.925 39.7065 125.152 40.0711C125.379 40.4357 125.732 40.6197 126.221 40.6197C126.757 40.6197 127.123 40.4025 127.321 39.9683L127.323 39.9687ZM127.829 36.5498C128.261 36.9909 128.477 37.6403 128.476 38.4982C128.476 39.3268 128.287 40.0157 127.907 40.5518C127.528 41.0878 126.94 41.3625 126.141 41.3625C125.475 41.3625 124.947 41.124 124.557 40.647C124.167 40.17 123.971 39.5272 123.971 38.7186C123.971 37.8557 124.177 37.1682 124.591 36.656C125.004 36.1439 125.557 35.8882 126.25 35.8889C126.874 35.8889 127.401 36.1092 127.829 36.5498Z" fill="#231F20"/>
<path d="M134.153 37.1672C133.906 36.8615 133.589 36.7086 133.207 36.7086C132.634 36.7086 132.242 36.9936 132.031 37.5637C131.917 37.8672 131.865 38.2648 131.865 38.7602C131.865 39.3369 131.973 39.7784 132.195 40.08C132.295 40.2246 132.428 40.3421 132.585 40.4216C132.741 40.5011 132.915 40.5402 133.09 40.5353C133.673 40.5353 134.085 40.2552 134.323 39.695C134.456 39.3788 134.523 39.0095 134.523 38.5868C134.523 37.9495 134.398 37.4768 134.153 37.168V37.1672ZM134.051 36.2435C134.207 36.355 134.363 36.5189 134.523 36.7329V36.0834H135.277V40.7633C135.277 41.4131 135.187 41.9302 135.006 42.3073C134.668 43.0065 134.028 43.3551 133.09 43.3551C132.568 43.3551 132.126 43.2318 131.77 42.9826C131.413 42.7333 131.213 42.3475 131.173 41.8183H132.004C132.044 42.0482 132.121 42.2273 132.241 42.3517C132.425 42.5414 132.714 42.6408 133.109 42.6408C133.731 42.6408 134.14 42.4067 134.334 41.9386C134.448 41.662 134.5 41.1707 134.492 40.4647C134.349 40.7072 134.146 40.9087 133.903 41.0497C133.673 41.1776 133.369 41.2428 132.993 41.2428C132.467 41.2428 132.006 41.0455 131.614 40.6476C131.221 40.2496 131.022 39.6001 131.022 38.6874C131.022 37.8249 131.221 37.1531 131.618 36.6718C132.015 36.1862 132.494 35.946 133.055 35.946C133.437 35.946 133.767 36.0432 134.05 36.2435" fill="#231F20"/>
<path d="M138.384 36.0617H139.214V41.1806H138.384V36.0617ZM138.384 34.127H139.214V35.1076H138.384V34.127Z" fill="#231F20"/>
<path d="M145.618 38.1987C145.586 37.8235 145.507 37.523 145.388 37.2981C145.164 36.8857 144.792 36.6763 144.274 36.6763C144.096 36.6732 143.919 36.7101 143.756 36.7841C143.594 36.8581 143.45 36.9675 143.336 37.1042C143.085 37.3937 142.949 37.7563 142.935 38.1987H145.618ZM145.323 36.1793C145.647 36.3504 145.892 36.5708 146.061 36.8432C146.23 37.1204 146.341 37.4292 146.387 37.7507C146.435 37.99 146.458 38.3675 146.458 38.885H142.916C142.931 39.407 143.049 39.8285 143.263 40.1437C143.477 40.459 143.814 40.6194 144.269 40.6194C144.694 40.6194 145.032 40.4677 145.286 40.1691C145.428 39.9921 145.53 39.7869 145.586 39.5671H146.39C146.368 39.7552 146.298 39.9654 146.179 40.1976C146.075 40.4078 145.94 40.6006 145.777 40.7689C145.529 41.0262 145.211 41.2058 144.863 41.2856C144.646 41.3392 144.422 41.3647 144.199 41.3615C143.597 41.3615 143.087 41.1308 142.668 40.6638C142.248 40.1968 142.04 39.5443 142.04 38.7063C142.04 37.8798 142.25 37.2095 142.671 36.6956C143.092 36.1817 143.643 35.9241 144.325 35.9229C144.674 35.9229 145.017 36.0112 145.323 36.1797" fill="#231F20"/>
<path d="M149.841 39.5672C149.869 39.8559 149.938 40.0756 150.052 40.2292C150.263 40.5075 150.628 40.6466 151.146 40.6466C151.433 40.6533 151.716 40.581 151.965 40.4375C152.199 40.2987 152.317 40.0847 152.317 39.7926C152.321 39.6906 152.296 39.5895 152.247 39.5004C152.197 39.4113 152.123 39.3377 152.034 39.2877C151.915 39.216 151.677 39.1359 151.325 39.0414L150.663 38.8703C150.242 38.7603 149.929 38.6378 149.73 38.505C149.37 38.2694 149.193 37.9466 149.193 37.5334C149.193 37.0463 149.361 36.6544 149.695 36.3525C150.029 36.0505 150.486 35.9006 151.055 35.9006C151.798 35.9006 152.335 36.1283 152.66 36.5835C152.861 36.8519 152.967 37.1793 152.961 37.5145H152.189C152.174 37.322 152.105 37.1378 151.989 36.9834C151.796 36.758 151.464 36.6419 150.988 36.6419C150.672 36.6419 150.434 36.706 150.269 36.8316C150.192 36.8879 150.129 36.9622 150.087 37.0481C150.044 37.1341 150.024 37.229 150.026 37.3248C150.026 37.5456 150.133 37.7273 150.349 37.8612C150.471 37.9401 150.652 38.013 150.89 38.071L151.446 38.2114C152.045 38.3597 152.444 38.5077 152.649 38.648C152.967 38.8703 153.126 39.2171 153.126 39.6902C153.128 39.9114 153.085 40.1308 152.999 40.3347C152.913 40.5386 152.786 40.7226 152.626 40.8753C152.293 41.208 151.785 41.3749 151.106 41.3749C150.373 41.3749 149.853 41.2013 149.548 40.8541C149.245 40.5058 149.08 40.0779 149.057 39.5642L149.841 39.5672Z" fill="#231F20"/>
<path d="M171.549 11.2161C172.597 11.2161 173.431 12.0677 173.431 13.133C173.431 14.2146 172.596 15.0579 171.54 15.0579C170.491 15.0579 169.64 14.2146 169.64 13.133C169.639 12.8822 169.687 12.6336 169.781 12.4014C169.876 12.1692 170.016 11.958 170.192 11.7799C170.369 11.6018 170.579 11.4603 170.81 11.3635C171.041 11.2668 171.29 11.2167 171.54 11.2161H171.549ZM171.54 11.5142C170.696 11.5142 170.006 12.2385 170.006 13.133C170.006 14.0435 170.696 14.7601 171.549 14.7601C172.401 14.7685 173.082 14.0446 173.082 13.1414C173.082 12.2381 172.399 11.5142 171.549 11.5142H171.54ZM171.183 14.2487H170.842V12.1106C171.042 12.0778 171.244 12.0607 171.446 12.0594C171.77 12.0594 171.982 12.1277 172.111 12.2214C172.239 12.3151 172.306 12.46 172.306 12.6645C172.306 12.9456 172.119 13.1159 171.889 13.1842V13.2009C172.076 13.2351 172.204 13.4058 172.246 13.721C172.297 14.0526 172.348 14.1808 172.383 14.2487H172.024C171.974 14.1808 171.922 13.9832 171.88 13.7036C171.829 13.4312 171.693 13.3288 171.42 13.3288H171.182L171.183 14.2487ZM171.183 13.0651H171.43C171.711 13.0651 171.95 12.9623 171.95 12.6983C171.95 12.5112 171.813 12.3238 171.43 12.3238C171.347 12.323 171.265 12.3287 171.183 12.3409V13.0651Z" fill="#231F20"/>
<defs>
<linearGradient id="paint0_linear" x1="0" y1="30.1861" x2="69.2316" y2="30.1861" gradientUnits="userSpaceOnUse">
<stop stop-color="#DBE9CE"/>
<stop offset="0.15" stop-color="#C5DFA7"/>
<stop offset="0.32" stop-color="#B0D682"/>
<stop offset="0.5" stop-color="#A0CE65"/>
<stop offset="0.67" stop-color="#94C950"/>
<stop offset="0.84" stop-color="#8DC644"/>
<stop offset="1" stop-color="#8BC540"/>
</linearGradient>
<linearGradient id="paint1_linear" x1="49.1952" y1="22.2201" x2="71.9012" y2="22.2201" gradientUnits="userSpaceOnUse">
<stop stop-color="#C3DFE2"/>
<stop offset="0.01" stop-color="#BFDEE1"/>
<stop offset="0.15" stop-color="#8DCDD4"/>
<stop offset="0.29" stop-color="#62BFC8"/>
<stop offset="0.43" stop-color="#3EB4BF"/>
<stop offset="0.57" stop-color="#23ABB7"/>
<stop offset="0.71" stop-color="#10A4B2"/>
<stop offset="0.85" stop-color="#04A0AF"/>
<stop offset="1" stop-color="#009FAE"/>
</linearGradient>
</defs>
</svg>
