<svg width="192" height="67" viewBox="0 0 192 67" fill="none" xmlns="http://www.w3.org/2000/svg">
<g filter="url(#filter0_d)">
<path d="M12.571 23.2336C12.571 23.2336 22.5283 27.3987 32.552 36.9615C46.9681 52.2576 58.1572 54.1025 58.1572 54.1025C58.1572 54.1025 51.8847 55.7433 27.3786 35.4603C20.4593 29.038 9.85702 24.393 9.85702 24.393L8 25.4055V25.6604C9.47385 26.2337 16.6796 29.2538 26.344 37.0286C34.8931 43.8645 45.0303 52.7368 58.2111 55.428C66.8201 56.9713 77.23 51.8498 77.23 51.8498C77.23 51.8498 68.9548 48.9124 65.7845 45.704C62.6141 42.4957 62.5541 41.1266 60.0966 38.394C57.639 35.6614 53.384 32.0881 47.5519 30.1996C41.8591 27.8096 36.6853 26.6491 36.6853 26.6491C36.6853 26.6491 42.7032 27.1267 47.8767 29.0391C53.0502 30.9515 58.7388 35.0491 58.7388 35.0491C58.7388 35.0491 57.9641 33.8211 57.1887 29.9276C56.4133 26.0341 56.411 24.7359 56.411 24.7359C56.411 24.7359 48.5235 19.479 37.0138 18.7294C36.2433 18.6789 35.4694 18.6558 34.6959 18.6558C23.8368 18.6558 12.571 23.2355 12.571 23.2355" fill="url(#paint0_linear)"/>
<path d="M13.8662 24.8029L16.5157 26.2369C16.5157 26.2369 23.6312 21.7292 34.6185 21.8005C45.6122 21.8684 56.2183 26.2369 56.2183 26.2369C56.2183 26.2369 49.3608 21.6385 35.043 20.6533C21.4308 20.6533 13.8662 24.8029 13.8662 24.8029Z" fill="#8BC540"/>
<path d="M58.1151 9.82365C58.1151 9.82365 60.2278 13.6932 65.9165 19.6592C70.7421 25.1578 72.255 26.8077 74.192 29.222C76.1291 31.6363 77.8575 37.1861 77.8575 37.1861C77.8575 37.1861 76.5631 34.3218 73.9363 30.9056C71.3096 27.4894 65.3133 22.3019 62.811 19.4775C60.3086 16.6531 57.8093 12.0126 57.8093 12.0126C57.8093 12.0126 54.7953 27.4909 62.1228 38.9627C69.4503 50.4344 78.7194 51.4397 78.7194 51.4397C78.7194 51.4397 80.8739 43.1084 79.3625 37.8276C77.5855 32.6412 76.9083 29.222 66.863 18.8401C61.2578 12.7372 58.3272 7 58.3272 7L58.1151 9.82365Z" fill="url(#paint1_linear)"/>
<path d="M58.6715 12.2393L60.0979 14.4707C60.0979 14.4707 58.8338 28.3177 61.865 34.6839C66.7365 46.1132 76.3478 48.707 76.3478 48.707C76.3478 48.707 68.8484 48.8902 61.5645 36.006C56.6039 23.2565 58.6715 12.2393 58.6715 12.2393Z" fill="#009FAE"/>
<path d="M174.561 32.4192C175.227 31.4685 175.524 30.129 175.494 28.9446C175.411 25.6657 172.669 23.2457 169.287 23.7628C167.681 24.0105 166.498 24.9768 165.81 26.0599C165.415 26.6824 164.854 28.1369 164.94 29.5998C164.981 30.3206 165.07 30.8987 165.436 31.6965C166.115 33.1761 167.864 34.6936 169.969 34.7804C172.058 34.8665 173.684 33.6803 174.561 32.4192ZM179.527 36.8108H177.17C176.703 35.9801 176.329 35.1013 176.052 34.1897C175.79 34.1795 175.629 34.5012 175.494 34.6484C174.318 35.887 172.612 37.0612 170.217 37.0764C165.888 37.0919 162.512 33.2618 162.83 28.5527C162.944 26.855 163.711 25.1171 164.879 23.8311C166.247 22.3341 168.318 21.0184 171.146 21.4031C173.072 21.6664 174.535 22.6721 175.618 23.8963C176.737 25.1702 177.432 26.9992 177.541 29.0095C177.579 29.6661 177.511 30.113 177.541 30.7815C177.629 32.6597 178.182 34.0577 178.906 35.436C179.129 35.8563 179.438 36.2877 179.528 36.8116" fill="#231F20"/>
<path d="M156.187 31.5666C157.088 29.7414 156.784 27.3313 155.88 25.9291C154.943 24.4792 152.935 23.2239 150.603 23.5012C149.945 23.5771 149.226 23.7956 148.741 24.0903C146.961 25.1628 145.42 28.0821 146.443 30.9767C147.1 32.8356 148.874 34.5401 151.284 34.5807C153.295 34.6148 155.339 33.2927 156.187 31.5654V31.5666ZM158.92 17.6016C158.971 20.4033 158.858 23.0532 158.858 25.7304C158.858 27.8104 158.95 29.9034 158.423 31.4968C157.481 34.3383 155.156 36.6285 151.721 36.8079C149.077 36.9532 147.272 35.8314 145.885 34.1869C144.669 32.7491 143.981 31.0457 144.022 28.7433C144.074 25.7725 145.801 23.3088 147.869 22.1229C148.641 21.6802 149.553 21.2542 150.665 21.1392C153.593 20.8391 155.212 22.184 156.749 23.4985C156.759 21.3786 156.888 19.7781 156.749 17.7321C156.749 17.6156 156.796 17.561 156.871 17.5326C157.536 17.5705 158.357 17.451 158.92 17.6009" fill="#231F20"/>
<path d="M140.608 25.4056C140.66 26.1852 140.547 27.1507 140.547 28.0912C140.547 30.8298 140.485 34.1531 140.424 36.7465C139.734 36.7085 138.897 36.8307 138.312 36.6809C138.365 33.9987 138.436 30.5521 138.436 27.6325C138.436 26.2076 138.631 25.049 138 24.2246C136.859 22.7273 133.744 22.9727 133.098 24.7482C132.805 25.5361 132.975 26.7156 132.975 27.8309C132.975 30.5392 132.89 33.8348 132.788 36.6809C131.886 36.6938 131.401 36.6365 130.736 36.6152C130.908 32.7582 130.557 28.7088 130.8 25.4056C130.99 22.7538 133.076 20.6339 136.263 20.9461C138.653 21.1821 140.433 22.8266 140.608 25.4056Z" fill="#231F20"/>
<path d="M125.027 24.7477C124.81 23.9734 124.034 23.3327 123.29 22.9123C121.411 21.8467 119.075 22.0671 117.517 23.1745C116.959 23.5724 116.249 24.011 116.215 24.6809C119.193 24.6601 122.122 24.6942 125.027 24.7477ZM126.644 23.9601C127.051 24.6809 127.44 25.5186 127.448 26.4549C123.94 26.5137 119.531 26.349 115.655 26.387C115.372 26.8422 115.293 27.4041 115.282 28.0277C115.225 32.4197 119.037 34.7365 123.476 33.4694C123.521 33.8511 123.446 34.8731 123.476 35.6318C122.338 36.0199 121.191 36.0461 120.124 35.9589C116.088 35.6201 113.173 32.4523 113.173 28.1564C113.173 25.7811 114.36 23.528 115.655 22.3224C116.774 21.2776 118.351 20.4976 119.999 20.3542C123.201 20.0758 125.473 21.9127 126.644 23.9582" fill="#231F20"/>
<path d="M109.511 20.4214C109.789 20.9802 109.555 22.0789 109.634 22.8494C108.688 23.4116 107.932 23.7659 107.277 24.4871C105.075 26.8972 106.116 32.1261 105.722 36.29C105.119 36.4467 104.311 36.3113 103.673 36.29C103.939 32.1041 103.206 28.1268 104.418 25.0778C104.765 24.2026 105.329 23.2686 105.909 22.6528C106.861 21.6357 108.147 21.1498 109.51 20.4221" fill="#231F20"/>
<path d="M94.4891 33.6643C97.3689 32.8342 99.2692 28.9267 97.7138 25.7313C97.3948 25.0832 96.9528 24.5034 96.4125 24.0241C95.4713 23.1838 94.0984 22.5601 92.2524 22.7786C91.5915 22.8545 90.991 23.0135 90.5774 23.2384C89.6002 23.7737 88.3896 25.1008 87.9719 26.4525C87.0235 29.5219 88.7898 32.3012 90.5774 33.2693C91.8252 33.9416 93.4477 33.9644 94.4891 33.6628V33.6643ZM100.322 27.1717C100.478 28.6782 100.261 30.2852 99.7646 31.4966C98.8022 33.8308 96.5214 35.8252 93.6814 36.0869C92.1617 36.2303 90.4898 35.8312 89.4609 35.236C87.2515 33.9632 85.577 31.2792 85.6119 28.0242C85.6289 26.4513 86.3831 24.5313 86.8524 23.8261C87.9067 22.2365 89.714 20.7498 92.1302 20.4823C92.6575 20.4235 93.7235 20.3685 94.3643 20.4823C96.6606 20.8932 98.5211 22.7343 99.3299 24.155C99.4293 24.3238 99.4816 24.597 99.5769 24.8105C99.8606 25.4263 100.246 26.3777 100.322 27.1706" fill="#231F20"/>
<path d="M89.4101 41.6021H90.239V43.0376H91.0163V43.744H90.239V47.1003C90.239 47.2786 90.2963 47.3996 90.4074 47.461C90.4712 47.4944 90.5774 47.5119 90.7284 47.5119L90.8543 47.5092L91.0163 47.4929V48.1796C90.9197 48.21 90.8206 48.2313 90.72 48.2433C90.6111 48.2561 90.5015 48.2624 90.3919 48.2619C90.0083 48.2619 89.7507 48.1598 89.613 47.9523C89.4753 47.7448 89.4101 47.4781 89.4101 47.1469V43.744H88.7515V43.0376H89.4101V41.6021Z" fill="#231F20"/>
<path d="M96.9948 45.1987C96.9626 44.8235 96.8829 44.5231 96.7638 44.2981C96.5411 43.8857 96.1708 43.6763 95.6511 43.6763C95.4729 43.6734 95.2963 43.7103 95.1342 43.7843C94.9721 43.8584 94.8285 43.9677 94.7141 44.1043C94.4618 44.3937 94.3282 44.7564 94.3096 45.1987H96.9948ZM96.7012 43.1805C97.0233 43.3516 97.2703 43.572 97.436 43.8444C97.6044 44.122 97.7153 44.4306 97.7623 44.7518C97.8098 44.9911 97.8336 45.3692 97.8336 45.8862H94.293C94.3066 46.4082 94.4219 46.8296 94.6405 47.1449C94.859 47.4602 95.1909 47.6206 95.6454 47.6206C96.0676 47.6206 96.4072 47.4689 96.6602 47.1703C96.8032 46.9939 96.9058 46.7885 96.9611 46.5683H97.7638C97.7443 46.7564 97.6748 46.9666 97.5552 47.1988C97.4523 47.4087 97.3178 47.6017 97.1564 47.7709C96.9074 48.0268 96.5903 48.2061 96.2425 48.2876C96.0248 48.341 95.8013 48.3665 95.5771 48.3634C94.9751 48.3634 94.4644 48.1328 94.0456 47.6658C93.6268 47.1988 93.417 46.5463 93.417 45.7082C93.417 44.8817 93.6283 44.2115 94.0509 43.6976C94.4735 43.1837 95.0243 42.9261 95.7031 42.9248C96.0519 42.9254 96.395 43.0133 96.7012 43.1805Z" fill="#231F20"/>
<path d="M103.951 43.31C104.295 43.5922 104.502 44.0775 104.571 44.7656H103.777C103.729 44.4473 103.618 44.1848 103.444 43.975C103.27 43.7652 102.994 43.662 102.614 43.662C102.09 43.662 101.717 43.9297 101.495 44.4652C101.349 44.8142 101.275 45.244 101.275 45.755C101.275 46.266 101.379 46.7034 101.584 47.054C101.788 47.4045 102.115 47.5828 102.558 47.5828C102.897 47.5828 103.165 47.4739 103.366 47.2539C103.566 47.0339 103.703 46.7376 103.777 46.3578H104.571C104.48 47.0407 104.256 47.5369 103.891 47.8529C103.526 48.169 103.061 48.326 102.493 48.326C101.858 48.326 101.349 48.0806 100.97 47.5897C100.591 47.0988 100.401 46.4868 100.401 45.7463C100.401 44.8457 100.606 44.1442 101.024 43.6404C101.442 43.1366 101.969 42.8862 102.612 42.8862C103.162 42.8862 103.604 43.0266 103.949 43.3085" fill="#231F20"/>
<path d="M107.251 41.1011H108.072V43.7335C108.262 43.4748 108.439 43.2908 108.594 43.1865C108.86 43.004 109.186 42.9133 109.581 42.9133C110.283 42.9133 110.764 43.1728 111.015 43.6952C111.153 43.9813 111.223 44.3743 111.223 44.8804V48.1809H110.381V44.9395C110.381 44.5621 110.334 44.2851 110.245 44.1099C110.093 43.825 109.815 43.6857 109.406 43.6857C109.064 43.6857 108.759 43.8102 108.482 44.0568C108.205 44.3033 108.07 44.7677 108.07 45.4528V48.1809H107.25L107.251 41.1011Z" fill="#231F20"/>
<path d="M114.294 43.0375H115.072V43.7666C115.299 43.4662 115.545 43.2495 115.801 43.1217C116.069 42.9874 116.365 42.9196 116.664 42.924C117.352 42.924 117.819 43.1763 118.062 43.6862C118.197 43.9646 118.261 44.3641 118.261 44.882V48.1825H117.431V44.9411C117.431 44.6282 117.386 44.3755 117.298 44.1824C117.152 43.862 116.888 43.7016 116.505 43.7014C116.345 43.6968 116.184 43.7181 116.031 43.7643C115.795 43.8415 115.588 43.9888 115.438 44.1866C115.31 44.3389 115.22 44.5191 115.175 44.7128C115.131 44.8952 115.113 45.1513 115.113 45.4874V48.181H114.294V43.0375Z" fill="#231F20"/>
<path d="M124.358 46.9689C124.558 46.5136 124.659 46.0209 124.654 45.5235C124.654 45.043 124.582 44.6525 124.438 44.352C124.211 43.8798 123.818 43.6437 123.26 43.6437C122.767 43.6437 122.407 43.844 122.18 44.2477C121.953 44.6513 121.845 45.1362 121.845 45.7056C121.845 46.2526 121.959 46.7067 122.18 47.0713C122.401 47.4359 122.762 47.6199 123.252 47.6199C123.787 47.6199 124.155 47.4028 124.358 46.9685V46.9689ZM124.863 43.55C125.293 43.9911 125.508 44.6406 125.508 45.4985C125.508 46.327 125.318 47.0159 124.939 47.552C124.559 48.088 123.971 48.3627 123.173 48.3627C122.509 48.3627 121.98 48.1242 121.588 47.6472C121.195 47.1702 120.999 46.5274 121 45.7189C121 44.8559 121.207 44.1684 121.619 43.6562C122.034 43.1445 122.585 42.8892 123.282 42.8892C123.903 42.8892 124.432 43.1096 124.861 43.55" fill="#231F20"/>
<path d="M129.215 41.125H128.395V48.1798H129.215V41.125Z" fill="#231F20"/>
<path d="M135.323 46.9689C135.524 46.5364 135.624 46.0546 135.624 45.5235C135.624 45.043 135.552 44.6525 135.408 44.352C135.181 43.8797 134.787 43.6437 134.232 43.6437C133.737 43.6437 133.376 43.844 133.152 44.2477C132.928 44.6513 132.815 45.1362 132.815 45.7056C132.815 46.2527 132.925 46.7068 133.152 47.0713C133.379 47.4359 133.732 47.6199 134.221 47.6199C134.757 47.6199 135.124 47.4028 135.322 46.9685L135.323 46.9689ZM135.83 43.55C136.261 43.9911 136.477 44.6406 136.477 45.4985C136.477 46.327 136.287 47.0159 135.908 47.552C135.528 48.088 134.94 48.3627 134.142 48.3627C133.476 48.3627 132.947 48.1242 132.557 47.6472C132.167 47.1702 131.971 46.5274 131.971 45.7189C131.971 44.8559 132.178 44.1684 132.591 43.6562C133.005 43.1441 133.558 42.8884 134.25 42.8892C134.875 42.8892 135.401 43.1094 135.83 43.55Z" fill="#231F20"/>
<path d="M142.152 44.1675C141.905 43.8617 141.589 43.7088 141.207 43.7088C140.634 43.7088 140.242 43.9939 140.031 44.5639C139.917 44.8674 139.865 45.265 139.865 45.7605C139.865 46.3371 139.973 46.7787 140.195 47.0803C140.294 47.2249 140.428 47.3423 140.585 47.4218C140.741 47.5014 140.915 47.5405 141.09 47.5355C141.673 47.5355 142.084 47.2554 142.323 46.6952C142.456 46.3791 142.523 46.0097 142.523 45.5871C142.523 44.9497 142.398 44.477 142.152 44.1682V44.1675ZM142.05 43.2437C142.207 43.3552 142.363 43.5191 142.523 43.7331V43.0836H143.276V47.7635C143.276 48.4134 143.187 48.9305 143.006 49.3076C142.668 50.0067 142.028 50.3554 141.09 50.3554C140.567 50.3554 140.126 50.2321 139.77 49.9828C139.413 49.7336 139.212 49.3478 139.172 48.8186H140.004C140.044 49.0484 140.12 49.2275 140.24 49.3519C140.424 49.5416 140.713 49.641 141.108 49.641C141.731 49.641 142.139 49.407 142.334 48.9388C142.448 48.6622 142.5 48.171 142.492 47.465C142.349 47.7075 142.146 47.909 141.903 48.0499C141.673 48.1778 141.369 48.243 140.992 48.243C140.467 48.243 140.006 48.0458 139.613 47.6478C139.221 47.2499 139.022 46.6004 139.022 45.6876C139.022 44.8252 139.221 44.1533 139.617 43.672C140.014 43.1864 140.494 42.9463 141.055 42.9463C141.437 42.9463 141.767 43.0434 142.05 43.2437" fill="#231F20"/>
<path d="M146.384 43.0617H147.214V48.1806H146.384V43.0617ZM146.384 41.127H147.214V42.1076H146.384V41.127Z" fill="#231F20"/>
<path d="M153.618 45.1987C153.586 44.8235 153.508 44.523 153.389 44.2981C153.164 43.8857 152.792 43.6763 152.274 43.6763C152.096 43.6732 151.919 43.7101 151.757 43.7841C151.594 43.8581 151.451 43.9675 151.336 44.1042C151.085 44.3937 150.949 44.7563 150.936 45.1987H153.618ZM153.323 43.1793C153.647 43.3504 153.892 43.5708 154.061 43.8432C154.23 44.1204 154.341 44.4292 154.387 44.7507C154.436 44.99 154.458 45.3675 154.458 45.885H150.916C150.931 46.407 151.049 46.8285 151.263 47.1437C151.477 47.459 151.815 47.6194 152.269 47.6194C152.694 47.6194 153.032 47.4677 153.286 47.1691C153.428 46.9921 153.53 46.7869 153.586 46.5671H154.39C154.368 46.7552 154.298 46.9654 154.179 47.1976C154.075 47.4078 153.94 47.6006 153.777 47.7689C153.529 48.0262 153.211 48.2058 152.863 48.2856C152.646 48.3392 152.423 48.3647 152.199 48.3615C151.597 48.3615 151.088 48.1308 150.668 47.6638C150.248 47.1968 150.04 46.5443 150.04 45.7063C150.04 44.8798 150.251 44.2095 150.672 43.6956C151.092 43.1817 151.644 42.9241 152.325 42.9229C152.674 42.9229 153.018 43.0112 153.323 43.1797" fill="#231F20"/>
<path d="M157.841 46.567C157.869 46.8557 157.938 47.0754 158.052 47.229C158.263 47.5072 158.628 47.6463 159.146 47.6463C159.433 47.653 159.716 47.5807 159.965 47.4373C160.199 47.2984 160.317 47.0845 160.317 46.7923C160.321 46.6904 160.296 46.5893 160.247 46.5002C160.197 46.4111 160.123 46.3375 160.034 46.2874C159.915 46.2157 159.677 46.1357 159.325 46.0412L158.663 45.8701C158.242 45.7601 157.929 45.6375 157.73 45.5048C157.37 45.2692 157.193 44.9463 157.193 44.5332C157.193 44.0461 157.361 43.6542 157.695 43.3522C158.029 43.0502 158.486 42.9004 159.055 42.9004C159.798 42.9004 160.335 43.128 160.66 43.5833C160.861 43.8516 160.967 44.1791 160.961 44.5142H160.189C160.174 44.3218 160.105 44.1376 159.989 43.9831C159.796 43.7578 159.464 43.6417 158.988 43.6417C158.672 43.6417 158.434 43.7058 158.269 43.8314C158.192 43.8876 158.129 43.9619 158.087 44.0479C158.044 44.1338 158.024 44.2288 158.026 44.3245C158.026 44.5453 158.133 44.7271 158.349 44.861C158.471 44.9399 158.652 45.0127 158.89 45.0708L159.446 45.2111C160.045 45.3595 160.444 45.5074 160.649 45.6478C160.967 45.8701 161.126 46.2168 161.126 46.6899C161.128 46.9112 161.085 47.1306 160.999 47.3345C160.913 47.5384 160.786 47.7224 160.626 47.8751C160.293 48.2078 159.785 48.3747 159.106 48.3747C158.373 48.3747 157.853 48.2011 157.548 47.8538C157.245 47.5056 157.08 47.0776 157.057 46.564L157.841 46.567Z" fill="#231F20"/>
<path d="M179.549 18.2158C180.597 18.2158 181.431 19.0675 181.431 20.1328C181.431 21.2144 180.596 22.0577 179.54 22.0577C178.491 22.0577 177.64 21.2144 177.64 20.1328C177.639 19.882 177.687 19.6334 177.781 19.4012C177.876 19.169 178.016 18.9577 178.192 18.7796C178.369 18.6015 178.579 18.46 178.81 18.3633C179.041 18.2665 179.29 18.2164 179.54 18.2158H179.549ZM179.54 18.514C178.696 18.514 178.006 19.2382 178.006 20.1328C178.006 21.0433 178.696 21.7599 179.549 21.7599C180.401 21.7682 181.082 21.0444 181.082 20.1411C181.082 19.2378 180.399 18.514 179.549 18.514H179.54ZM179.183 21.2485H178.842V19.1104C179.042 19.0775 179.244 19.0604 179.446 19.0592C179.77 19.0592 179.982 19.1274 180.111 19.2212C180.239 19.3149 180.306 19.4598 180.306 19.6643C180.306 19.9454 180.119 20.1157 179.889 20.184V20.2007C180.076 20.2348 180.204 20.4055 180.246 20.7208C180.297 21.0524 180.348 21.1806 180.383 21.2485H180.024C179.974 21.1806 179.922 20.9829 179.88 20.7033C179.829 20.431 179.693 20.3285 179.42 20.3285H179.182L179.183 21.2485ZM179.183 20.0649H179.43C179.711 20.0649 179.95 19.9621 179.95 19.698C179.95 19.511 179.813 19.3236 179.43 19.3236C179.347 19.3228 179.265 19.3285 179.183 19.3407V20.0649Z" fill="#231F20"/>
</g>
<defs>
<filter id="filter0_d" x="0" y="0" width="191.431" height="66.7179" filterUnits="userSpaceOnUse" color-interpolation-filters="sRGB">
<feFlood flood-opacity="0" result="BackgroundImageFix"/>
<feColorMatrix in="SourceAlpha" type="matrix" values="0 0 0 0 0 0 0 0 0 0 0 0 0 0 0 0 0 0 127 0" result="hardAlpha"/>
<feMorphology radius="1" operator="dilate" in="SourceAlpha" result="effect1_dropShadow"/>
<feOffset dx="1" dy="2"/>
<feGaussianBlur stdDeviation="4"/>
<feColorMatrix type="matrix" values="0 0 0 0 0.207843 0 0 0 0 0.392157 0 0 0 0 0.67451 0 0 0 0.3 0"/>
<feBlend mode="multiply" in2="BackgroundImageFix" result="effect1_dropShadow"/>
<feBlend mode="normal" in="SourceGraphic" in2="effect1_dropShadow" result="shape"/>
</filter>
<linearGradient id="paint0_linear" x1="8" y1="37.1861" x2="77.2316" y2="37.1861" gradientUnits="userSpaceOnUse">
<stop stop-color="#DBE9CE"/>
<stop offset="0.15" stop-color="#C5DFA7"/>
<stop offset="0.32" stop-color="#B0D682"/>
<stop offset="0.5" stop-color="#A0CE65"/>
<stop offset="0.67" stop-color="#94C950"/>
<stop offset="0.84" stop-color="#8DC644"/>
<stop offset="1" stop-color="#8BC540"/>
</linearGradient>
<linearGradient id="paint1_linear" x1="57.1952" y1="29.2201" x2="79.9012" y2="29.2201" gradientUnits="userSpaceOnUse">
<stop stop-color="#C3DFE2"/>
<stop offset="0.01" stop-color="#BFDEE1"/>
<stop offset="0.15" stop-color="#8DCDD4"/>
<stop offset="0.29" stop-color="#62BFC8"/>
<stop offset="0.43" stop-color="#3EB4BF"/>
<stop offset="0.57" stop-color="#23ABB7"/>
<stop offset="0.71" stop-color="#10A4B2"/>
<stop offset="0.85" stop-color="#04A0AF"/>
<stop offset="1" stop-color="#009FAE"/>
</linearGradient>
</defs>
</svg>
