<svg width="239" height="191" viewBox="0 0 239 191" fill="none" xmlns="http://www.w3.org/2000/svg">
<g clip-path="url(#clip0)">
<path d="M57.8513 145.586L57.9431 145.76L58.0254 145.914C58.1537 146.136 58.2958 146.348 58.451 146.551C59.4168 147.869 60.5874 149.024 61.9185 149.972C62.6176 150.472 63.3703 150.893 64.1625 151.227C67.0868 152.407 70.1645 153.165 73.303 153.48C75.6534 153.707 80.214 151.429 81.6697 150.662L82.1292 150.416C82.1292 150.416 82.7288 149.934 83.6816 149.094L85.3356 147.647C88.2724 145.109 91.0656 142.411 93.7023 139.565C97.639 135.092 93.2525 115.604 91.7291 114.707C90.8827 114.224 89.3448 114.953 88.1454 115.715C87.5555 116.088 86.9871 116.494 86.4431 116.931C86.4431 116.931 84.5666 118.504 80.5574 122.427C79.3 123.657 77.9893 124.868 76.7899 125.949L76.1951 126.48C73.8495 128.574 72.0504 130.065 72.0504 130.065C72.0504 130.065 66.8031 129.997 62.7262 130.065C58.6492 130.132 57.4063 132.617 56.2311 136.757C55.2349 140.279 57.2177 144.428 57.8513 145.586Z" fill="#4D9BE2"/>
<path d="M138.491 107.493C138.81 110.489 139.013 113.5 139.168 116.506C139.381 120.794 139.566 125.085 139.724 129.379C139.879 133.485 139.83 137.581 138.592 141.533C138.478 141.911 138.278 142.258 138.007 142.546C138.568 154.126 138.728 165.744 137.867 177.339C137.867 179.394 137.794 181.448 137.649 183.5C139.572 193.608 139.789 203.964 138.292 214.143C138.275 215.515 138.126 216.882 137.847 218.225C138.331 222.032 138.844 225.82 139.264 229.568C139.279 229.7 139.279 229.833 139.264 229.964C139.245 230.283 139.146 230.591 138.977 230.862C138.808 231.134 138.575 231.359 138.297 231.518C138.244 231.585 138.186 231.653 138.128 231.716C137.973 231.876 137.797 232.015 137.606 232.13L137.741 232.29C137.966 232.575 138.131 232.904 138.225 233.255C138.623 233.603 138.952 234.024 139.192 234.495C139.501 235.05 139.583 235.703 139.422 236.318C139.261 236.932 138.868 237.461 138.326 237.795C138.033 237.954 137.711 238.053 137.379 238.087C137.047 238.121 136.711 238.089 136.392 237.993C136.052 238.16 135.673 238.234 135.296 238.205C134.918 238.176 134.555 238.046 134.244 237.829C134.153 237.771 134.061 237.713 133.969 237.645C132.761 236.869 131.6 236.023 130.492 235.112C128.95 234.145 127.52 233.012 126.226 231.735C125.904 231.678 125.597 231.556 125.323 231.377C125.05 231.197 124.816 230.965 124.635 230.693C122.879 228.174 121.143 225.636 119.552 223.021C118.746 221.699 117.98 220.356 117.255 218.992L117.144 218.814C116.887 218.714 116.653 218.564 116.455 218.374C116.257 218.183 116.098 217.956 115.988 217.704C115.275 216.247 114.551 214.791 113.816 213.337L113.787 213.289C113.451 213.099 113.163 212.835 112.946 212.517C110.625 209.043 108.728 205.305 107.297 201.381C105.846 197.589 104.018 193.512 103.834 189.42C103.811 189.08 103.864 188.739 103.989 188.422C103.588 185.387 103.433 182.294 103.244 179.254C102.939 176.55 102.939 173.819 103.244 171.115C103.568 160.32 105.231 149.608 108.196 139.222C108.002 138.724 108.002 138.171 108.196 137.673C113.381 123.28 112.588 107.894 111.635 92.8785V92.8447C111.538 92.5073 111.523 92.1517 111.592 91.8074C111.594 91.4404 111.694 91.0807 111.882 90.7652C111.5 87.5084 111.151 84.2467 110.948 80.9802C110.566 79.113 110.17 77.2458 109.807 75.3737H119.388C119.449 75.3776 119.51 75.3776 119.571 75.3737V74.8574C119.709 75.0109 119.819 75.1873 119.895 75.3785C119.971 75.5534 120.026 75.7363 120.06 75.9237C120.988 80.8886 121.869 85.8679 122.879 90.8134C123.218 90.7096 123.577 90.687 123.927 90.7474C124.276 90.8077 124.607 90.9494 124.891 91.1608C124.94 90.5175 124.993 89.8613 125.051 89.1923C125.092 88.8355 125.204 88.4906 125.38 88.1773C125.556 87.8641 125.792 87.5888 126.076 87.3675C126.359 87.1462 126.684 86.9833 127.031 86.8882C127.378 86.7931 127.741 86.7678 128.098 86.8136C128.098 86.6061 128.098 86.3986 128.098 86.1912C128.1 85.807 128.196 85.4292 128.377 85.0901C128.558 84.751 128.819 84.4606 129.137 84.2439C129.455 84.0272 129.821 83.8906 130.203 83.8457C130.586 83.8008 130.973 83.849 131.333 83.9862C131.769 83.873 132.227 83.873 132.663 83.9862V83.2866C132.615 81.0333 136.179 79.8078 137.166 82.0707C139.153 86.6061 139.352 91.3249 139.584 96.0629C140.163 99.0635 140.486 102.108 140.551 105.163C140.549 105.734 140.339 106.285 139.96 106.714C139.581 107.143 139.059 107.42 138.491 107.493Z" fill="#5EC4E6"/>
<path d="M181.533 145.051C181.426 145.273 181.33 145.461 181.252 145.601C181.175 145.741 181.185 145.727 181.165 145.775L181.078 145.929C180.959 146.149 180.826 146.362 180.682 146.566C179.712 147.882 178.54 149.037 177.209 149.987C176.51 150.487 175.758 150.908 174.965 151.241C172.041 152.422 168.963 153.181 165.825 153.495C163.474 153.721 158.919 151.444 157.458 150.677L156.975 150.431C156.975 150.431 156.375 149.948 155.422 149.109L153.768 147.661C150.832 145.125 148.04 142.427 145.406 139.58C141.465 135.107 145.851 115.619 147.375 114.722C148.221 114.239 149.759 114.968 150.958 115.73C151.548 116.103 152.117 116.509 152.661 116.946C152.661 116.946 154.532 118.499 158.561 122.427C159.823 123.657 161.129 124.868 162.328 125.949C162.531 126.128 162.734 126.306 162.923 126.48C165.273 128.574 167.068 130.065 167.068 130.065H167.551C168.949 130.065 173.055 130.017 176.387 130.065C180.459 130.132 181.707 132.617 182.877 136.757C183.748 139.845 182.326 143.435 181.533 145.051Z" fill="#4D9BE2"/>
<g style="mix-blend-mode:multiply" opacity="0.4">
<path d="M181.533 145.051C181.427 145.273 181.33 145.461 181.253 145.601C181.175 145.741 181.185 145.727 181.166 145.775L181.079 145.929C180.959 146.149 180.827 146.362 180.682 146.566C179.713 147.882 178.541 149.037 177.21 149.987C176.511 150.487 175.758 150.908 174.966 151.241C172.042 152.422 168.964 153.181 165.825 153.495C163.475 153.721 158.919 151.444 157.459 150.677L156.975 150.431C156.975 150.431 156.375 149.948 155.423 149.109L153.769 147.661C150.832 145.125 148.041 142.427 145.407 139.58C141.465 135.107 145.852 115.619 147.375 114.722C148.221 114.239 149.759 114.968 150.959 115.73C151.549 116.103 152.117 116.509 152.661 116.946C152.661 116.946 154.533 118.499 158.561 122.427C159.824 123.657 161.129 124.868 162.329 125.949C162.532 126.128 162.735 126.306 162.924 126.48C165.274 128.574 167.068 130.065 167.068 130.065H167.552C168.949 130.065 173.055 130.017 176.388 130.065C180.46 130.132 181.707 132.617 182.878 136.757C183.748 139.845 182.326 143.435 181.533 145.051Z" fill="#4D9BE2"/>
</g>
<path d="M119.871 75.3745V281.736H119.267C116.015 281.615 112.773 281.312 109.556 280.829L105.411 280.106C105.411 280.106 104.55 281.794 103.443 283.859C102.335 285.924 99.6413 287.893 99.6413 287.893C99.2355 287.367 98.7453 286.913 98.1904 286.547C97.821 286.274 97.4295 286.032 97.0201 285.823C96.6295 286.347 96.1889 286.832 95.7046 287.271L95.0856 287.792C95.0677 287.164 94.8752 286.555 94.5294 286.031L94.0119 285.447C94.0119 285.447 93.3929 285.895 92.5611 286.585C92.2684 286.846 91.9433 287.068 91.5938 287.246C91.5128 287.289 91.4267 287.322 91.3375 287.343C91.3375 287.343 91.5116 286.687 90.6798 286.103C89.8479 285.519 88.5373 284.757 86.1579 281.794C83.7785 278.832 75.5859 265.317 74.962 252.189C74.3381 239.06 76.9304 225.512 77.6558 223.239C78.1633 221.799 78.3674 220.27 78.2555 218.747C78.2057 218.136 78.1103 217.53 77.9701 216.933C77.4527 214.656 73.6175 201.527 75.8954 187.776C78.1733 174.025 80.248 165.962 81.0798 161.929C81.9117 157.895 82.4243 155.516 82.4243 155.516C82.4243 155.516 87.6088 129.361 87.7103 123.986C87.8119 118.611 89.5771 96.7924 88.8517 89.1401C88.5808 86.3078 87.7732 78.1875 86.8495 72.4072L119.388 75.3745C119.449 75.3784 119.51 75.3784 119.571 75.3745V74.8583C119.709 75.0118 119.819 75.1882 119.895 75.3794L119.871 75.3745Z" fill="#4D9BE2"/>
<path d="M164.152 252.189C163.867 256.602 162.962 260.953 161.463 265.115C160.495 267.902 159.352 270.625 158.039 273.269C156.613 276.263 154.908 279.118 152.946 281.794C150.562 284.757 149.251 285.514 148.42 286.103C147.588 286.692 147.762 287.343 147.762 287.343C147.296 287.186 146.871 286.927 146.519 286.585L146.427 286.508C145.648 285.862 145.068 285.447 145.068 285.447L144.551 286.031C144.205 286.554 144.014 287.165 143.999 287.792L143.375 287.271C142.894 286.831 142.455 286.346 142.065 285.823C141.653 286.03 141.26 286.272 140.89 286.547C140.335 286.913 139.845 287.367 139.439 287.893C139.284 287.777 136.721 285.871 135.647 283.864C134.573 281.857 133.679 280.11 133.679 280.11L129.544 280.829C126.339 281.311 123.11 281.614 119.871 281.736V75.3745L152.274 72.4072C151.35 78.1971 150.543 86.3078 150.272 89.1401C150.238 89.4826 150.209 89.8348 150.19 90.1919C149.996 93.5114 150.127 98.6548 150.364 103.991C150.361 104.035 150.361 104.078 150.364 104.121C150.538 108.126 150.78 112.227 150.983 115.735C151.162 118.833 151.317 121.472 151.375 123.165C151.375 123.469 151.375 123.744 151.399 123.986C151.399 124.077 151.399 124.179 151.399 124.285C151.51 126.697 152.395 132.289 153.411 138.074C153.411 138.074 153.411 138.103 153.411 138.171C153.411 138.238 153.411 138.229 153.411 138.267C154.083 142.094 154.808 145.987 155.398 149.114C155.921 151.878 156.341 154.035 156.53 154.986L156.636 155.516C156.636 155.516 157.154 157.895 157.986 161.929C158.818 165.962 160.887 174.025 163.165 187.776C165.443 201.527 161.613 214.656 161.095 216.933C160.91 217.712 160.803 218.507 160.776 219.307C160.755 220.644 160.968 221.975 161.405 223.239C161.98 225.039 163.726 233.917 164.118 244.049C164.273 246.712 164.282 249.458 164.152 252.189Z" fill="#4D9BE2"/>
<g style="mix-blend-mode:multiply" opacity="0.4">
<path d="M164.152 252.189C163.867 256.602 162.962 260.953 161.463 265.115C160.495 267.902 159.351 270.625 158.039 273.269C156.612 276.263 154.907 279.118 152.946 281.794C150.562 284.757 149.251 285.514 148.419 286.103C147.588 286.692 147.762 287.343 147.762 287.343C147.296 287.186 146.871 286.927 146.519 286.585L146.427 286.508C145.648 285.862 145.068 285.447 145.068 285.447L144.55 286.031C144.205 286.554 144.014 287.165 143.999 287.792L143.375 287.271C142.893 286.831 142.454 286.346 142.065 285.823C141.653 286.03 141.26 286.272 140.889 286.547C140.335 286.913 139.844 287.367 139.439 287.893C139.284 287.777 136.721 285.871 135.647 283.864C134.573 281.857 133.679 280.11 133.679 280.11L129.544 280.829C126.339 281.311 123.11 281.614 119.871 281.736V75.3745L152.274 72.4072C151.35 78.1971 150.542 86.3078 150.272 89.1401C150.238 89.4826 150.209 89.8348 150.189 90.1919C149.996 93.5114 150.127 98.6548 150.364 103.991C150.361 104.035 150.361 104.078 150.364 104.121C150.538 108.126 150.779 112.227 150.983 115.735C151.162 118.833 151.316 121.472 151.374 123.165C151.374 123.469 151.374 123.744 151.399 123.986C151.399 124.077 151.399 124.179 151.399 124.285C151.51 126.697 152.395 132.289 153.41 138.074C153.41 138.074 153.41 138.103 153.41 138.171C153.41 138.238 153.41 138.229 153.41 138.267C154.083 142.094 154.808 145.987 155.398 149.114C155.92 151.878 156.341 154.035 156.53 154.986L156.636 155.516C156.636 155.516 157.154 157.895 157.985 161.929C158.817 165.962 160.887 174.025 163.165 187.776C165.443 201.527 161.613 214.656 161.095 216.933C160.909 217.712 160.803 218.507 160.776 219.307C160.755 220.644 160.967 221.975 161.405 223.239C161.98 225.039 163.726 233.917 164.118 244.049C164.273 246.712 164.282 249.458 164.152 252.189Z" fill="#4D9BE2"/>
</g>
<path d="M120.165 75.3744V247.344H120.112V247.392H119.836H119.556V247.344L117.902 247.19C115.136 246.707 112.442 245.187 109.883 243.05C107.325 240.913 96.4822 225.613 92.5455 216.513C88.6088 207.413 81.1465 185.913 86.3261 163.786C91.5057 141.659 97.3092 129.047 96.2742 117.674C95.2393 106.302 94.8233 90.9975 92.5455 80.6577C92.1682 78.9545 91.7572 77.1789 91.3558 75.3502H119.682C119.743 75.3541 119.804 75.3541 119.865 75.3502V74.834C120.003 74.9875 120.113 75.1639 120.189 75.3551L120.165 75.3744Z" fill="#DBF0FD"/>
<path d="M119.871 75.3744V247.344H119.818V247.392H119.542H119.261V247.344L117.607 247.19C114.841 246.707 112.147 245.187 109.589 243.05C107.031 240.913 96.1877 225.613 92.251 216.513C88.3143 207.413 80.852 185.913 86.0316 163.786C91.2112 141.659 97.0147 129.047 95.9798 117.674C94.9448 106.302 94.5289 90.9975 92.251 80.6577C91.8738 78.9545 91.4627 77.1789 91.0613 75.3502H119.387C119.448 75.3541 119.51 75.3541 119.571 75.3502V74.834C119.709 74.9875 119.818 75.1639 119.895 75.3551L119.871 75.3744Z" fill="#DBF0FD"/>
<path d="M146.843 216.513C145.174 220.372 142.263 225.347 139.269 229.96C138.882 230.548 138.5 231.132 138.113 231.711C137.983 231.904 137.857 232.097 137.726 232.285C136.421 234.215 135.134 236.053 133.973 237.641C131.971 240.362 130.317 242.369 129.505 243.05C126.946 245.187 124.253 246.707 121.491 247.189L119.885 247.339V75.374H148.032C147.631 77.1834 147.22 78.9589 146.843 80.6814C144.565 91.0212 144.149 106.326 143.114 117.698C142.079 129.071 147.883 141.683 153.062 163.81C158.242 185.937 150.784 207.422 146.843 216.513Z" fill="#CCE9FC"/>
<g style="mix-blend-mode:multiply" opacity="0.12">
<path d="M164.587 150.493C163.411 150.091 162.258 149.624 161.134 149.094C162.101 149.489 163.156 149.89 164.249 150.358L164.587 150.493Z" fill="#515A60"/>
</g>
<path d="M119.445 74.6603C119.35 74.5401 119.238 74.4345 119.112 74.3467L119.445 74.6603Z" fill="#2E98D5"/>
<path d="M119.445 74.6603C119.35 74.5401 119.238 74.4345 119.112 74.3467L119.445 74.6603Z" fill="#DBF0FD"/>
<g opacity="0.33">
<path opacity="0.33" d="M119.445 74.6603C119.35 74.5401 119.238 74.4345 119.112 74.3467L119.445 74.6603Z" fill="#535C62"/>
</g>
<g opacity="0.33">
<path opacity="0.33" d="M119.77 75.1426H119.446V74.6602C119.582 74.8004 119.691 74.9638 119.77 75.1426Z" fill="#535C62"/>
</g>
<path d="M119.774 75.1668H119.446V74.6602C119.585 74.8123 119.695 74.989 119.77 75.1812L119.774 75.1668Z" fill="#E6F4FD"/>
<path d="M119.445 74.6603C119.35 74.5401 119.238 74.4345 119.112 74.3467L119.445 74.6603Z" fill="#E6F4FD"/>
<g opacity="0.3">
<path opacity="0.3" d="M161.202 51.6744C161.095 54.6273 160.486 59.4618 159.678 64.9622C159.645 65.1745 159.616 65.3868 159.582 65.5991C156.162 76.0161 145.595 83.736 133.718 88.8793C123.262 93.4003 119.552 92.7827 119.552 92.7827C119.552 92.7827 115.838 93.4003 105.382 88.8793C93.4801 83.7312 82.9129 75.9968 79.5034 65.5653C78.8746 61.2229 78.3475 57.3244 78.0525 54.3329C77.9654 53.3293 77.8977 52.4416 77.8687 51.6744C77.5205 42.3189 76.4517 31.6606 86.4095 24.6549C96.3673 17.6491 110.591 12.6987 115.219 12.1101C117.468 11.8206 118.604 11.6807 119.218 11.5986H119.871C120.461 11.6807 121.617 11.8206 123.861 12.1101C128.49 12.7084 142.723 17.6829 152.671 24.6549C162.619 31.6269 161.565 42.3334 161.202 51.6744Z" fill="#525B61"/>
<path opacity="0.3" d="M78.4488 55.6842C76.0395 54.4632 73.8704 52.819 72.0457 50.8304C69.144 47.5977 66.7258 44.4373 67.7366 41.9911C68.7474 39.5449 72.2053 37.3302 74.6911 35.5933C77.1769 33.8563 80.7799 32.9492 80.7799 32.9492C80.7799 32.9492 78.5262 45.3444 78.6858 49.489C78.8454 53.6336 78.4488 55.6842 78.4488 55.6842Z" fill="#525B61"/>
<path opacity="0.3" d="M160.413 49.489C160.573 45.3444 158.319 32.9492 158.319 32.9492C158.319 32.9492 161.917 33.8563 164.408 35.5933C166.899 37.3302 170.362 39.5449 171.363 41.9911C172.364 44.4373 169.979 47.5977 167.054 50.8304C165.229 52.819 163.06 54.4632 160.65 55.6842C160.65 55.6842 160.254 53.6288 160.413 49.489Z" fill="#525B61"/>
</g>
<path d="M78.4488 51.8336C76.0395 50.6127 73.8704 48.9684 72.0457 46.9798C69.144 43.7423 66.7258 40.5819 67.7366 38.1357C68.7474 35.6895 72.2053 33.4797 74.6911 31.7427C77.1769 30.0057 80.7799 29.0986 80.7799 29.0986C80.7799 29.0986 78.5262 41.4938 78.6858 45.6336C78.8454 49.7734 78.4488 51.8336 78.4488 51.8336Z" fill="#4D9BE2"/>
<path d="M78.4489 38.1354C78.4489 38.1354 75.7696 37.349 74.1446 37.4648C72.5196 37.5806 71.9247 38.256 71.9683 39.5588C71.9988 41.0071 72.5282 42.4008 73.4675 43.5056C74.575 44.8855 76.0307 46.1062 76.9061 46.1496C77.7815 46.1931 78.4489 45.0061 78.4489 45.0061V38.1354Z" fill="#DBF0FD"/>
<g opacity="0.18">
<path opacity="0.18" d="M72.1523 38.4973C74.6962 38.6034 75.2717 39.6842 75.9294 40.9773C76.4808 42.0677 76.6404 44.9965 76.6791 46.1207C76.7447 46.1428 76.813 46.1558 76.8822 46.1593C77.7527 46.2027 78.4249 45.0158 78.4249 45.0158V38.1354C78.4249 38.1354 75.7457 37.349 74.1207 37.4648C73.0519 37.5323 72.4377 37.8749 72.1523 38.4973Z" fill="#535C62"/>
</g>
<g style="mix-blend-mode:multiply" opacity="0.16">
<path d="M67.6111 38.4979C69.5036 37.9519 71.4491 37.609 73.4146 37.475C74.9057 37.4217 76.3963 37.5958 77.8349 37.9913L79.484 35.3038L80.1321 32.9493C80.4996 30.7153 80.7898 29.1279 80.7898 29.1279C80.7898 29.1279 77.1917 30.0302 74.701 31.7672C72.2103 33.5041 68.7379 35.7139 67.7417 38.1602C67.6836 38.2711 67.6401 38.3821 67.6111 38.4979Z" fill="#525B61"/>
</g>
<path d="M160.413 45.6336C160.573 41.4938 158.319 29.0986 158.319 29.0986C158.319 29.0986 161.917 30.0009 164.408 31.7427C166.899 33.4845 170.362 35.6895 171.363 38.1357C172.364 40.5819 169.979 43.7423 167.054 46.9798C165.229 48.9684 163.06 50.6127 160.65 51.8336C160.65 51.8336 160.254 49.7782 160.413 45.6336Z" fill="#4D9BE2"/>
<g style="mix-blend-mode:multiply" opacity="0.4">
<path d="M160.414 45.6336C160.573 41.4938 158.32 29.0986 158.32 29.0986C158.32 29.0986 161.918 30.0009 164.408 31.7427C166.899 33.4845 170.362 35.6895 171.363 38.1357C172.364 40.5819 169.98 43.7423 167.054 46.9798C165.229 48.9684 163.06 50.6127 160.651 51.8336C160.651 51.8336 160.254 49.7782 160.414 45.6336Z" fill="#4D9BE2"/>
</g>
<path d="M160.65 45.006C160.65 45.006 161.322 46.1929 162.193 46.1495C163.063 46.1061 164.524 44.8854 165.631 43.5054C166.571 42.4007 167.1 41.007 167.131 39.5587C167.174 38.2559 166.584 37.5853 164.959 37.4647C163.334 37.344 160.65 38.1353 160.65 38.1353V45.006Z" fill="#DBF0FD"/>
<path opacity="0.18" d="M164.954 37.4648C163.329 37.349 160.65 38.1354 160.65 38.1354V45.0158C160.65 45.0158 161.322 46.2027 162.193 46.1593H162.217C162.286 46.1558 162.355 46.1428 162.42 46.1207C162.459 44.9965 162.618 42.0677 163.17 40.9773C163.828 39.6842 164.403 38.6034 166.947 38.4973C166.666 37.8749 166.047 37.5323 164.954 37.4648Z" fill="#D6EBF8"/>
<path opacity="0.16" d="M171.372 38.1602C170.376 35.7139 166.899 33.4993 164.413 31.7672C161.927 30.035 158.324 29.1279 158.324 29.1279C158.324 29.1279 158.614 30.7153 158.982 32.9493L159.63 35.3038L161.279 37.9913C162.717 37.5958 164.208 37.4217 165.699 37.475C167.665 37.609 169.61 37.9519 171.503 38.4979C171.454 38.3821 171.416 38.2711 171.372 38.1602Z" fill="#525B61"/>
<path d="M119.446 8.83398V90.0181H119.262C119.131 90.0181 118.928 90.0181 118.648 90.0181H118.478L118.159 89.994H118.106C116.239 89.8396 112.269 89.1062 105.275 86.1002C97.5809 82.7759 90.4378 78.3804 85.4468 72.8414L85.176 72.5374C84.2921 71.5426 83.4716 70.4935 82.7192 69.3964C82.6273 69.2661 82.5402 69.131 82.4532 69.0007C81.9017 68.1718 81.3964 67.3133 80.9394 66.4291C80.6444 65.8501 80.3736 65.2662 80.1221 64.6728C79.9238 64.1903 79.74 63.7078 79.5756 63.2494C79.4703 62.9473 79.3957 62.6353 79.3531 62.3182C78.8985 59.2158 78.5068 56.3257 78.2263 53.8601C78.1344 53.0447 78.0522 52.2727 77.9893 51.5586C77.9023 50.5647 77.8346 49.6721 77.8055 48.9001C77.4525 39.5494 76.3885 28.8912 86.3463 21.9047C96.3041 14.9182 110.527 9.94854 115.156 9.3599L118.967 8.87741C119.091 8.87006 119.215 8.87006 119.339 8.87741L119.446 8.83398Z" fill="#4D9BE2"/>
<path d="M119.633 8.87741L121.5 89.5002L119.262 90.0182C119.131 90.0182 118.928 90.0182 118.648 90.0182H118.478L118.159 89.9941H118.106C116.239 89.8397 112.269 89.1063 105.275 86.1004C97.5809 82.776 90.4378 78.3806 85.4468 72.8415L85.176 72.5376C84.2921 71.5428 83.4716 70.4937 82.7192 69.3965C82.6273 69.2663 82.5402 69.1312 82.4532 69.0009C81.9017 68.172 81.3964 67.3135 80.9394 66.4292C80.6444 65.8502 80.3736 65.2664 80.1221 64.673C79.9238 64.1905 79.74 63.708 79.5756 63.2496C79.4703 62.9475 79.3957 62.6355 79.3531 62.3184C78.8985 59.216 78.5068 56.3258 78.2263 53.8603C78.1344 53.0449 78.0522 52.2729 77.9893 51.5588C77.9023 50.5649 77.8346 49.6723 77.8055 48.9003C77.4525 39.5496 76.3885 28.8914 86.3463 21.9049C96.3041 14.9184 110.527 9.94872 115.156 9.36008L118.967 8.87758C119.091 8.87023 119.215 8.87023 119.339 8.87758L119.633 8.87741Z" fill="#4D9BE2"/>
<path d="M161.095 48.8901C161.066 49.6621 160.998 50.5547 160.911 51.5487C160.848 52.2627 160.766 53.0347 160.674 53.8501C160.394 56.3253 160.012 59.2203 159.528 62.3082C159.486 62.6253 159.411 62.9373 159.306 63.2394C159.141 63.7219 158.957 64.2044 158.759 64.6628C158.508 65.2562 158.237 65.8401 157.942 66.419C157.486 67.3017 156.983 68.1586 156.433 68.9859C156.331 69.1403 156.23 69.2947 156.123 69.4443C155.368 70.5384 154.544 71.5842 153.657 72.5756C148.647 78.216 141.412 82.708 133.596 86.0854C128.513 88.2711 125.026 89.2554 122.782 89.6896C122.434 89.7572 122.115 89.8103 121.815 89.8537C121.515 89.8971 121.133 89.9454 120.848 89.9695L120.534 89.9936H120.461H120.292H120.137C119.856 89.9936 119.653 89.9936 119.523 89.9936H119.407V8.83364H119.523C119.647 8.82629 119.771 8.82629 119.895 8.83364L123.706 9.31613C128.33 9.9096 142.567 14.8793 152.516 21.8609C162.464 28.8426 161.463 39.5394 161.095 48.8901Z" fill="#4D9BE2"/>
<g style="mix-blend-mode:multiply" opacity="0.4">
<path d="M161.095 48.8901C161.066 49.6621 160.998 50.5547 160.911 51.5487C160.848 52.2627 160.766 53.0347 160.674 53.8501C160.394 56.3253 160.011 59.2203 159.528 62.3082C159.485 62.6253 159.411 62.9373 159.305 63.2394C159.141 63.7219 158.957 64.2044 158.759 64.6628C158.507 65.2562 158.237 65.8401 157.942 66.419C157.486 67.3017 156.983 68.1586 156.433 68.9859C156.331 69.1403 156.23 69.2947 156.123 69.4443C155.367 70.5384 154.544 71.5842 153.657 72.5756C148.646 78.216 141.411 82.708 133.596 86.0854C128.513 88.2711 125.026 89.2554 122.782 89.6896C122.434 89.7572 122.115 89.8103 121.815 89.8537C121.515 89.8971 121.133 89.9454 120.848 89.9695L120.533 89.9936H120.461H120.292H120.137C119.856 89.9936 119.653 89.9936 119.523 89.9936H119.406V8.83364H119.523C119.647 8.82629 119.771 8.82629 119.895 8.83364L123.706 9.31613C128.329 9.9096 142.567 14.8793 152.515 21.8609C162.463 28.8426 161.462 39.5394 161.095 48.8901Z" fill="#4D9BE2"/>
</g>
<path d="M119.45 51.1477L120 89.5L119.262 90.0173C119.131 90.0173 118.928 90.0173 118.648 90.0173H118.478L118.159 89.9931H118.106C116.239 89.8387 112.269 89.1054 105.275 86.0994C97.581 82.7751 90.4379 78.3796 85.4469 72.8406L85.176 72.5366C84.2922 71.5418 83.4717 70.4927 82.7192 69.3956C85.8144 63.7697 91.2649 59.3308 97.5278 56.156C109.875 49.8836 119.184 51.1188 119.455 51.1574L119.45 51.1477Z" fill="#DBF0FD"/>
<path d="M156.143 69.444C155.387 70.5381 154.563 71.584 153.677 72.5754C148.666 78.2157 141.431 82.7077 133.616 86.0852C128.533 88.2708 125.046 89.2551 122.802 89.6894C122.454 89.7569 122.135 89.81 121.835 89.8534C121.535 89.8968 121.158 89.9403 120.868 89.9692L120.553 89.9933H120.481H120.311H120.157C119.876 89.9933 119.673 89.9933 119.542 89.9933H119.388V51.1479H119.46C120.34 51.0418 129.423 50.125 141.32 56.1562C147.588 59.331 153.058 63.7892 156.143 69.444Z" fill="#CCE9FC"/>
<g opacity="0.5">
<path opacity="0.5" d="M130.994 64.0066C131.094 64.0066 131.19 63.9669 131.261 63.8964C131.332 63.8258 131.371 63.7301 131.371 63.6302C131.371 63.5304 131.332 63.4347 131.261 63.3641C131.19 63.2936 131.094 63.2539 130.994 63.2539C130.894 63.2539 130.798 63.2936 130.727 63.3641C130.657 63.4347 130.617 63.5304 130.617 63.6302C130.617 63.7301 130.657 63.8258 130.727 63.8964C130.798 63.9669 130.894 64.0066 130.994 64.0066Z" fill="#525B61"/>
</g>
<g opacity="0.5">
<path opacity="0.5" d="M132.823 62.4048C132.891 62.4058 132.958 62.3864 133.015 62.3491C133.072 62.3118 133.117 62.2584 133.144 62.1956C133.17 62.1328 133.178 62.0635 133.165 61.9966C133.151 61.9297 133.119 61.8683 133.07 61.8201C133.022 61.7719 132.96 61.7391 132.893 61.7261C132.826 61.713 132.757 61.7202 132.694 61.7467C132.631 61.7733 132.577 61.8179 132.54 61.875C132.503 61.932 132.483 61.9989 132.484 62.0671C132.484 62.1567 132.52 62.2426 132.583 62.3059C132.647 62.3693 132.733 62.4048 132.823 62.4048Z" fill="#525B61"/>
</g>
<g opacity="0.5">
<path opacity="0.5" d="M132.929 59.2737C132.991 59.2746 133.053 59.2571 133.105 59.2232C133.157 59.1893 133.198 59.1407 133.223 59.0835C133.247 59.0262 133.254 58.963 133.243 58.9019C133.231 58.8407 133.201 58.7844 133.158 58.7401C133.114 58.6957 133.058 58.6654 132.997 58.6529C132.936 58.6404 132.872 58.6463 132.815 58.6699C132.757 58.6935 132.707 58.7337 132.673 58.7853C132.638 58.837 132.619 58.8978 132.619 58.9601C132.619 59.0424 132.652 59.1215 132.71 59.1801C132.768 59.2388 132.846 59.2724 132.929 59.2737Z" fill="#525B61"/>
</g>
<g opacity="0.5">
<path opacity="0.5" d="M134.215 60.5569C134.299 60.5569 134.379 60.5239 134.438 60.4651C134.497 60.4062 134.53 60.3265 134.53 60.2433C134.53 60.1601 134.497 60.0804 134.438 60.0215C134.379 59.9627 134.299 59.9297 134.215 59.9297C134.132 59.9297 134.052 59.9627 133.993 60.0215C133.934 60.0804 133.901 60.1601 133.901 60.2433C133.901 60.3265 133.934 60.4062 133.993 60.4651C134.052 60.5239 134.132 60.5569 134.215 60.5569Z" fill="#525B61"/>
</g>
<g opacity="0.5">
<path opacity="0.5" d="M108.085 64.0066C108.16 64.0066 108.233 63.9845 108.295 63.9432C108.357 63.9018 108.405 63.843 108.434 63.7743C108.462 63.7055 108.47 63.6298 108.455 63.5568C108.44 63.4838 108.405 63.4168 108.352 63.3641C108.299 63.3115 108.232 63.2757 108.159 63.2611C108.085 63.2466 108.01 63.2541 107.941 63.2826C107.872 63.311 107.813 63.3593 107.771 63.4212C107.73 63.4831 107.708 63.5558 107.708 63.6302C107.708 63.7301 107.748 63.8258 107.818 63.8964C107.889 63.9669 107.985 64.0066 108.085 64.0066Z" fill="#525B61"/>
</g>
<g opacity="0.5">
<path opacity="0.5" d="M106.233 62.4049C106.301 62.4049 106.368 62.3846 106.424 62.3468C106.481 62.3089 106.525 62.2551 106.551 62.1923C106.577 62.1294 106.583 62.0603 106.569 61.9937C106.556 61.9271 106.523 61.8661 106.474 61.8183C106.426 61.7706 106.364 61.7384 106.297 61.7257C106.23 61.7131 106.161 61.7205 106.098 61.7472C106.036 61.7739 105.982 61.8185 105.945 61.8755C105.908 61.9325 105.889 61.9992 105.89 62.0671C105.89 62.1119 105.899 62.1562 105.916 62.1975C105.933 62.2388 105.959 62.2762 105.991 62.3077C106.023 62.3391 106.06 62.3639 106.102 62.3806C106.144 62.3972 106.188 62.4055 106.233 62.4049Z" fill="#525B61"/>
</g>
<g opacity="0.5">
<path opacity="0.5" d="M106.131 59.2738C106.193 59.2738 106.254 59.2554 106.306 59.2209C106.358 59.1864 106.398 59.1375 106.422 59.0801C106.445 59.0228 106.452 58.9598 106.44 58.8989C106.427 58.8381 106.397 58.7822 106.354 58.7383C106.31 58.6945 106.254 58.6646 106.193 58.6525C106.132 58.6404 106.068 58.6466 106.011 58.6704C105.954 58.6941 105.904 58.7343 105.87 58.7859C105.835 58.8374 105.817 58.8981 105.817 58.9601C105.817 59.0433 105.85 59.1231 105.909 59.1819C105.968 59.2407 106.048 59.2738 106.131 59.2738Z" fill="#525B61"/>
</g>
<g opacity="0.5">
<path opacity="0.5" d="M104.85 60.5569C104.912 60.5569 104.973 60.5385 105.024 60.5041C105.076 60.4696 105.116 60.4206 105.14 60.3633C105.164 60.306 105.17 60.243 105.158 60.1821C105.146 60.1213 105.116 60.0654 105.072 60.0215C105.028 59.9777 104.972 59.9478 104.911 59.9357C104.85 59.9236 104.787 59.9298 104.729 59.9536C104.672 59.9773 104.623 60.0175 104.588 60.0691C104.554 60.1206 104.535 60.1813 104.535 60.2433C104.535 60.3265 104.569 60.4062 104.627 60.4651C104.686 60.5239 104.766 60.5569 104.85 60.5569Z" fill="#525B61"/>
</g>
<path d="M106.262 62.2267C104.634 62.1937 103.006 62.2598 101.387 62.4245C99.7813 62.5886 98.1709 62.8202 96.5507 63.1193C93.3526 63.7376 90.2195 64.6535 87.1926 65.855C85.6872 66.4641 84.2135 67.1485 82.7771 67.9056C82.4096 68.089 82.0614 68.3013 81.7035 68.4943C81.3456 68.6873 80.9877 68.8947 80.6443 69.1119L79.5997 69.715L78.5986 70.4194C78.2601 70.6414 77.9264 70.9019 77.5975 71.1287C77.2686 71.3555 76.9301 71.6112 76.6303 71.8621C75.9919 72.388 75.3342 72.8753 74.7296 73.4398C73.4837 74.5325 72.3032 75.6973 71.1943 76.9282C72.2921 75.6858 73.4647 74.5112 74.7054 73.4109C75.3051 72.8415 75.9629 72.3446 76.5964 71.8186C76.9156 71.5629 77.2541 71.3362 77.5637 71.0756C77.8732 70.8151 78.2214 70.5931 78.5599 70.3519L79.5804 69.6619L80.6202 69.0105C80.9684 68.7886 81.3263 68.586 81.6793 68.3833C82.0323 68.1807 82.3854 67.9684 82.7481 67.785C84.1893 67.0195 85.666 66.3247 87.1781 65.7006C90.2038 64.4759 93.3388 63.539 96.5411 62.9022C98.137 62.5838 99.7523 62.3425 101.377 62.1736C103.007 61.9904 104.646 61.9082 106.286 61.9276C106.315 61.9424 106.339 61.966 106.354 61.9951C106.369 62.025 106.377 62.058 106.378 62.0916C106.383 62.1057 106.383 62.1209 106.378 62.135C106.381 62.1493 106.381 62.1642 106.378 62.1785C106.367 62.1922 106.354 62.2036 106.339 62.2122C106.316 62.2255 106.289 62.2306 106.262 62.2267Z" fill="#525B61"/>
<path d="M106.088 59.0466C105.098 58.2357 103.993 57.5756 102.809 57.0877C102.664 57.025 102.519 56.9526 102.374 56.8947L101.929 56.7306L101.034 56.3977C100.429 56.224 99.8249 56.0262 99.2107 55.8766C98.5965 55.7271 97.9871 55.5968 97.3632 55.4858L95.5013 55.2204C94.2568 55.1014 93.0106 55.0419 91.7629 55.0419H90.3701L89.8864 55.0757L88.0245 55.206C87.4015 55.2396 86.7813 55.3122 86.1674 55.4231L84.3199 55.674C83.1012 55.9201 81.8776 56.1565 80.6637 56.417L77.0559 57.382L80.6541 56.417C81.8631 56.142 83.0722 55.8959 84.3054 55.6354L86.1529 55.3652C86.7719 55.288 87.3813 55.1625 88.01 55.1288L89.8768 54.984L90.3604 54.9454H91.8113C93.0638 54.9295 94.3163 54.9762 95.5642 55.0853L97.4406 55.3362C98.0645 55.4376 98.6884 55.5871 99.3026 55.7078C99.9168 55.8284 100.536 56.0455 101.145 56.2144L102.054 56.5425L102.504 56.7065C102.654 56.7644 102.799 56.8368 102.949 56.8995C104.171 57.3856 105.312 58.0525 106.334 58.8777C106.334 58.8777 106.393 58.9405 106.305 59.0418C106.306 59.0706 106.295 59.0984 106.275 59.1193C106.255 59.1401 106.228 59.1521 106.199 59.1528C106.17 59.1534 106.142 59.1426 106.121 59.1227C106.101 59.1028 106.088 59.0754 106.088 59.0466Z" fill="#525B61"/>
<path d="M108.148 63.7697C106 64.2974 103.898 64.9944 101.861 65.8541C99.8045 66.7075 97.8159 67.7156 95.9125 68.8697C94.9452 69.4535 94.0263 70.0662 93.1316 70.7369C92.2232 71.3971 91.3499 72.1041 90.5152 72.8551C88.8231 74.3697 87.3049 76.0672 85.9885 77.9164C87.2856 76.0489 88.7877 74.3318 90.4669 72.7972C91.2976 72.043 92.1661 71.3313 93.0688 70.6645C93.9586 69.9891 94.892 69.357 95.8351 68.7346C97.7315 67.5534 99.7153 66.5179 101.769 65.637C103.811 64.744 105.922 64.0164 108.08 63.4609C108.08 63.4609 108.167 63.4609 108.206 63.5864C108.222 63.6186 108.225 63.6555 108.214 63.6896C108.203 63.7237 108.179 63.7524 108.148 63.7697Z" fill="#525B61"/>
<path d="M104.826 60.3832C103.558 60.1855 102.278 60.0791 100.995 60.0647C99.7179 60.0317 98.4394 60.0639 97.1651 60.1612C94.6155 60.3485 92.0807 60.7015 89.5771 61.2179L87.7103 61.6328C87.0816 61.7631 86.4722 61.9513 85.8532 62.1153C84.6151 62.4193 83.4061 62.8198 82.1825 63.201C81.5731 63.3795 80.9734 63.6062 80.3689 63.8234L78.565 64.4747L75.02 65.9222C76.1952 65.4397 77.3704 64.9186 78.5553 64.441L80.3496 63.7703C80.9492 63.5435 81.5489 63.3119 82.1583 63.1286C83.377 62.7329 84.5764 62.3228 85.8242 62.0044C86.4432 61.8403 87.0526 61.6473 87.6764 61.5219L89.5432 61.0876C92.0479 60.5418 94.586 60.1614 97.141 59.9489C98.4226 59.8573 99.7042 59.7945 101.01 59.8187C102.305 59.8189 103.598 59.914 104.879 60.1033C104.879 60.1033 104.961 60.1323 104.956 60.2674C104.951 60.4025 104.826 60.3832 104.826 60.3832Z" fill="#525B61"/>
<path d="M132.866 62.226C134.494 62.193 136.122 62.2591 137.741 62.4238C139.353 62.5878 140.965 62.8194 142.577 63.1186C145.769 63.7362 148.896 64.6522 151.916 65.8543C153.429 66.4613 154.911 67.1441 156.356 67.9001C156.713 68.0834 157.067 68.2957 157.424 68.4887C157.782 68.6817 158.14 68.8892 158.484 69.1063L159.528 69.748L160.549 70.4331C160.892 70.6551 161.226 70.9156 161.555 71.1424C161.883 71.3692 162.217 71.6249 162.522 71.8758C163.16 72.4017 163.813 72.889 164.422 73.4535C165.67 74.545 166.85 75.7098 167.958 76.9419C166.859 75.7007 165.686 74.5262 164.447 73.4246C163.842 72.8552 163.189 72.3583 162.556 71.8324C162.232 71.5766 161.898 71.3499 161.588 71.0893C161.279 70.8288 160.926 70.6068 160.582 70.3656L159.567 69.6756L158.522 69.0243C158.184 68.8023 157.826 68.5997 157.468 68.397C157.11 68.1944 156.762 67.9821 156.399 67.7987C154.958 67.0273 153.478 66.3316 151.964 65.7144C148.942 64.4897 145.81 63.5527 142.611 62.9159C141.001 62.5975 139.395 62.3514 137.775 62.1874C136.144 62.004 134.503 61.9218 132.861 61.9413C132.834 61.9575 132.813 61.9809 132.798 62.0088C132.789 62.0403 132.789 62.0739 132.798 62.1053C132.792 62.1175 132.788 62.1311 132.789 62.1448C132.789 62.1586 132.792 62.1721 132.799 62.1841C132.806 62.1962 132.815 62.2063 132.827 62.2136C132.839 62.2209 132.852 62.2252 132.866 62.226Z" fill="#525B61"/>
<path d="M133.016 59.0466C134.008 58.2378 135.112 57.5778 136.295 57.0877C136.445 57.025 136.585 56.9526 136.735 56.8947L137.18 56.7307L138.07 56.3978C138.679 56.2241 139.284 56.0262 139.893 55.8767C140.503 55.7271 141.127 55.5968 141.741 55.4858L143.603 55.2205C144.846 55.0999 146.098 55.042 147.346 55.042H148.753L149.237 55.0757L151.104 55.206C151.725 55.2402 152.344 55.3127 152.956 55.4231L154.808 55.674C156.022 55.9201 157.226 56.1565 158.46 56.4171L162.067 57.382L158.469 56.4171C157.255 56.142 156.051 55.896 154.823 55.6354L152.971 55.3652C152.351 55.288 151.737 55.1626 151.118 55.1288L149.247 54.9841L148.763 54.9455H147.346C146.09 54.9294 144.834 54.9761 143.583 55.0854L141.707 55.3363C141.088 55.4376 140.469 55.5872 139.845 55.7078C139.221 55.8284 138.617 56.0455 138.007 56.2144L137.103 56.5425L136.648 56.7066C136.498 56.7645 136.348 56.8368 136.208 56.8996C134.986 57.3845 133.845 58.0515 132.823 58.8778C132.805 58.9016 132.796 58.9303 132.796 58.9598C132.796 58.9893 132.805 59.018 132.823 59.0418C132.886 59.1431 133.016 59.0466 133.016 59.0466Z" fill="#525B61"/>
<path d="M130.994 63.7704C133.142 64.2988 135.244 64.9958 137.282 65.8548C139.335 66.7089 141.32 67.717 143.22 68.8704C144.188 69.4542 145.102 70.0669 146.006 70.7376C146.91 71.3994 147.78 72.1063 148.613 72.8557C150.309 74.3679 151.829 76.0657 153.144 77.9171C151.846 76.0495 150.342 74.3325 148.661 72.7979C147.834 72.036 146.969 71.3162 146.069 70.6411C145.169 69.9656 144.246 69.3336 143.293 68.7111C141.398 67.531 139.416 66.4955 137.364 65.6135C135.322 64.7206 133.211 63.9929 131.052 63.4375C131.052 63.4375 130.965 63.4375 130.927 63.5629C130.913 63.6 130.912 63.6409 130.924 63.6786C130.936 63.7164 130.961 63.7488 130.994 63.7704Z" fill="#525B61"/>
<path d="M134.308 60.3832C135.572 60.1855 136.849 60.0791 138.128 60.0648C139.419 60.0316 140.71 60.0638 141.997 60.1613C144.545 60.3489 147.078 60.7019 149.58 61.218L151.452 61.6329C152.071 61.7632 152.685 61.9513 153.299 62.1154C154.542 62.4194 155.756 62.8198 156.975 63.201C157.589 63.3795 158.189 63.6063 158.784 63.8234L160.588 64.4748L164.137 65.9222C162.962 65.4398 161.787 64.9187 160.602 64.441L158.803 63.7703C158.208 63.5436 157.609 63.312 156.994 63.1286C155.78 62.733 154.576 62.3229 153.328 62.0044C152.714 61.8404 152.105 61.6474 151.481 61.5219L149.614 61.0877C147.109 60.5438 144.571 60.165 142.017 59.9538C140.74 59.8622 139.458 59.7994 138.148 59.8236C136.853 59.8235 135.559 59.9186 134.279 60.1082C134.279 60.1082 134.201 60.1372 134.201 60.2723C134.201 60.4074 134.308 60.3832 134.308 60.3832Z" fill="#525B61"/>
<g opacity="0.33">
<path opacity="0.33" d="M128.542 51.148C127.387 50.4097 124.852 48.9864 122.449 48.7355C121.133 48.5859 120.272 48.5087 119.755 48.4653V48.4219H119.141V48.4653C118.623 48.5087 117.758 48.5859 116.447 48.7355C114.029 49.0009 111.509 50.4242 110.353 51.148C109.777 51.5008 109.348 52.0489 109.144 52.6919C108.942 53.3336 108.974 54.0261 109.236 54.646C109.783 56.0308 113.497 59.4709 115.04 60.2864C116.297 60.9377 118.609 60.8846 119.436 60.8412C120.272 60.8846 122.584 60.9377 123.837 60.2864C125.389 59.4854 129.103 56.0308 129.64 54.646C129.904 54.0357 129.942 53.3516 129.747 52.7161C129.547 52.0659 129.12 51.5092 128.542 51.148Z" fill="#535C62"/>
</g>
<path d="M116.167 51.2062C116.709 51.5358 117.307 51.7646 117.932 51.8817C118.432 51.974 118.938 52.0305 119.446 52.0506V60.0455C118.599 60.0889 116.239 60.142 114.953 59.4955C113.371 58.6945 109.575 55.2351 109.019 53.8551C108.751 53.2337 108.718 52.5363 108.927 51.8927C109.136 51.2492 109.573 50.7034 110.155 50.3571C111.34 49.6188 113.927 48.1955 116.379 47.9446C117.719 47.7998 118.604 47.7226 119.136 47.6792V47.6406H119.446V48.6442C119.446 48.6442 116.931 48.7262 115.857 49.532C114.784 50.3378 116.167 51.2062 116.167 51.2062Z" fill="#525B61"/>
<path d="M116.167 51.2062C116.709 51.5358 117.307 51.7646 117.932 51.8817C118.432 51.974 119.492 51.9799 120 52V60C119.154 60.0434 116.239 60.142 114.953 59.4955C113.371 58.6945 109.575 55.2351 109.019 53.8551C108.751 53.2337 108.718 52.5363 108.927 51.8927C109.136 51.2492 109.573 50.7034 110.155 50.3571C111.34 49.6188 113.927 48.1955 116.379 47.9446C117.719 47.7998 118.604 47.7226 119.136 47.6792V47.6406L119.668 47.6792L120 49C120 49 116.931 48.7262 115.857 49.532C114.784 50.3378 116.167 51.2062 116.167 51.2062Z" fill="#525B61"/>
<path d="M129.877 53.8551C129.321 55.2351 125.525 58.6801 123.943 59.4955C122.657 60.142 120.297 60.0889 119.445 60.0455V52.0506C118.937 52.0305 118.431 51.974 117.932 51.8817C117.307 51.7646 116.709 51.5358 116.166 51.2062C116.166 51.2062 114.769 50.3426 115.852 49.5272C116.935 48.7118 119.441 48.6394 119.441 48.6394V47.6406H119.76V47.684C120.287 47.7275 121.167 47.8047 122.512 47.9494C124.963 48.2196 127.556 49.643 128.736 50.3619C129.321 50.7069 129.76 51.2531 129.97 51.8981C130.18 52.5431 130.147 53.2424 129.877 53.8648V53.8551Z" fill="#525B61"/>
<g opacity="0.4">
<path opacity="0.4" d="M129.877 53.9127C129.321 55.2926 125.524 58.7376 123.943 59.553C122.657 60.1996 120.297 60.1465 119.445 60.1031V52.1033C118.937 52.0871 118.431 52.0323 117.932 51.9393C117.307 51.8222 116.709 51.5933 116.166 51.2638C116.166 51.2638 114.769 50.4001 115.852 49.5847C116.935 48.7693 119.441 48.6969 119.441 48.6969V47.6934H119.76V47.7368C120.287 47.7802 121.167 47.8574 122.512 48.0022C124.963 48.2723 127.556 49.6957 128.736 50.4146C129.315 50.7589 129.75 51.301 129.96 51.9406C130.17 52.5801 130.14 53.2738 129.877 53.8934V53.9127Z" fill="#525B61"/>
<g style="mix-blend-mode:multiply" opacity="0.2">
<path d="M129.877 53.9127C129.321 55.2926 125.524 58.7376 123.943 59.553C122.657 60.1996 120.297 60.1465 119.445 60.1031V52.1033C118.937 52.0871 118.431 52.0323 117.932 51.9393C117.307 51.8222 116.709 51.5933 116.166 51.2638C116.166 51.2638 114.769 50.4001 115.852 49.5847C116.935 48.7693 119.441 48.6969 119.441 48.6969V47.6934H119.76V47.7368C120.287 47.7802 121.167 47.8574 122.512 48.0022C124.963 48.2723 127.556 49.6957 128.736 50.4146C129.315 50.7589 129.75 51.301 129.96 51.9406C130.17 52.5801 130.14 53.2738 129.877 53.8934V53.9127Z" fill="#474F55"/>
</g>
</g>
<path d="M123.61 55.9196C123.547 55.7053 123.547 55.4776 123.61 55.2634C123.669 55.0469 123.788 54.8513 123.953 54.6989C124.534 54.1102 125.138 53.7339 125.554 53.8835C125.646 53.9041 125.734 53.9434 125.81 53.999C125.887 54.0546 125.951 54.1253 125.999 54.2067C126.048 54.2864 126.081 54.3749 126.096 54.4673C126.115 54.5595 126.115 54.6548 126.096 54.7471C126.073 55.0001 125.981 55.242 125.83 55.4467C125.684 55.657 125.483 55.8237 125.249 55.9292C124.805 56.1023 124.328 56.1795 123.852 56.156C123.629 56.0498 123.61 55.9196 123.61 55.9196Z" fill="#6D7780"/>
<path d="M115.286 55.9196C115.349 55.7053 115.349 55.4776 115.286 55.2634C115.227 55.0469 115.108 54.8513 114.943 54.6989C114.358 54.1102 113.758 53.7339 113.342 53.8835C113.25 53.9041 113.163 53.9434 113.086 53.999C113.01 54.0546 112.945 54.1253 112.897 54.2067C112.846 54.2853 112.813 54.3743 112.801 54.4673C112.784 54.5598 112.784 54.6546 112.801 54.7471C112.828 55 112.921 55.2413 113.071 55.4467C113.216 55.658 113.417 55.825 113.652 55.9292C114.096 56.1023 114.573 56.1795 115.049 56.156C115.104 56.1357 115.153 56.1041 115.194 56.0633C115.234 56.0225 115.266 55.9735 115.286 55.9196Z" fill="#6D7780"/>
<g opacity="0.51">
<path opacity="0.51" d="M122.729 51.2063C122.187 51.5366 121.589 51.7655 120.964 51.8818C120.481 51.959 120.103 52.0024 119.847 52.0265C119.715 52.0419 119.582 52.0419 119.451 52.0265C118.942 52.0103 118.436 51.9555 117.937 51.8625C117.312 51.7454 116.714 51.5165 116.172 51.187C116.172 51.187 114.774 50.3233 115.857 49.5079C116.94 48.6925 119.446 48.6201 119.446 48.6201C119.446 48.6201 121.961 48.7021 123.039 49.5079C124.117 50.3137 122.729 51.2063 122.729 51.2063Z" fill="white"/>
</g>
<path d="M136.991 63.4808C136.842 63.5057 136.708 63.5876 136.618 63.7091C136.528 63.8305 136.488 63.9822 136.508 64.1321C136.508 64.1321 136.102 66.863 134.617 67.828C131.13 70.1102 126.801 68.2671 119.91 66.8051C119.764 66.7608 119.612 66.7428 119.46 66.752C119.31 66.7431 119.159 66.7611 119.015 66.8051C112.128 68.2526 107.795 70.1102 104.303 67.828C102.828 66.863 102.408 64.1514 102.412 64.1321C102.424 64.0578 102.421 63.982 102.403 63.909C102.384 63.8361 102.351 63.7675 102.306 63.7075C102.216 63.5869 102.082 63.5056 101.934 63.4808C101.508 63.4229 101.31 63.7847 101.3 64.108C101.463 65.7257 102.215 67.2277 103.413 68.3298C104.768 69.5264 107.186 69.9558 109.87 69.6856C112.554 69.4154 115.756 68.5566 119.475 67.7556C123.198 68.5421 126.429 69.4009 129.084 69.6856C131.739 69.9702 134.191 69.5264 135.541 68.3298C136.737 67.2266 137.489 65.7252 137.654 64.108C137.615 63.7847 137.436 63.447 136.991 63.4808Z" fill="#525B61"/>
<g opacity="0.33">
<path opacity="0.33" d="M136.991 64.011C136.843 64.036 136.71 64.1171 136.62 64.2376C136.53 64.358 136.49 64.5084 136.508 64.6576C136.508 64.6576 136.102 67.3933 134.617 68.3583C131.13 70.6405 126.801 68.7974 119.91 67.3354C119.765 67.2864 119.612 67.2684 119.46 67.2823C119.31 67.271 119.159 67.2891 119.015 67.3354C112.128 68.7829 107.795 70.6405 104.303 68.3583C102.828 67.3933 102.408 64.6817 102.412 64.6576C102.432 64.5092 102.394 64.3589 102.306 64.2378C102.215 64.1179 102.082 64.0368 101.934 64.011C101.508 63.9531 101.31 64.315 101.3 64.6383C101.464 66.2618 102.221 67.7683 103.428 68.8697C104.782 70.0711 107.2 70.4957 109.884 70.2207C112.568 69.9457 115.77 69.1013 119.489 68.2907C123.213 69.0772 126.444 69.9312 129.099 70.2207C131.754 70.5102 134.206 70.0711 135.555 68.8697C136.751 67.7683 137.503 66.2685 137.668 64.6527C137.615 64.315 137.436 63.9531 136.991 64.011Z" fill="#535C62"/>
</g>
<path d="M119.528 66.7278V67.77C115.804 68.5516 112.491 69.4201 109.855 69.7C107.22 69.9798 104.753 69.5407 103.399 68.3442C102.201 67.2441 101.449 65.7436 101.286 64.1272C101.276 64.0421 101.286 63.9561 101.315 63.8754C101.344 63.7948 101.39 63.7216 101.451 63.6613C101.512 63.601 101.586 63.5552 101.667 63.5273C101.748 63.4994 101.834 63.49 101.919 63.4999C102.069 63.5226 102.203 63.6032 102.294 63.7242C102.384 63.8452 102.424 63.9969 102.403 64.1465C102.403 64.1996 102.828 66.887 104.294 67.8472C107.785 70.1246 112.095 68.2332 118.981 66.7664C119.161 66.7285 119.345 66.7155 119.528 66.7278Z" fill="#525B61"/>
<path d="M137.625 64.1081C137.46 65.7239 136.708 67.2236 135.512 68.3251C134.163 69.5216 131.74 69.9559 129.055 69.6809C126.371 69.4058 123.252 68.5711 119.528 67.7509V66.7087C119.653 66.7015 119.779 66.7213 119.896 66.7666C126.782 68.2141 131.116 70.0717 134.603 67.7895C136.078 66.8245 136.494 64.1419 136.494 64.0888C136.474 63.9397 136.514 63.7888 136.605 63.669C136.695 63.5484 136.828 63.4671 136.977 63.4423C137.066 63.4354 137.155 63.448 137.238 63.4793C137.321 63.5106 137.396 63.5598 137.458 63.6234C137.52 63.687 137.567 63.7633 137.596 63.8471C137.625 63.9309 137.635 64.02 137.625 64.1081Z" fill="#525B61"/>
<g style="mix-blend-mode:multiply" opacity="0.2">
<path d="M137.625 64.1081C137.46 65.7239 136.708 67.2236 135.512 68.3251C134.163 69.5216 131.74 69.9559 129.055 69.6809C126.371 69.4058 123.252 68.5711 119.528 67.7509V66.7087C119.653 66.7015 119.779 66.7213 119.896 66.7666C126.782 68.2141 131.116 70.0717 134.603 67.7895C136.078 66.8245 136.494 64.1419 136.494 64.0888C136.474 63.9397 136.514 63.7888 136.605 63.669C136.695 63.5484 136.828 63.4671 136.977 63.4423C137.066 63.4354 137.155 63.448 137.238 63.4793C137.321 63.5106 137.396 63.5598 137.458 63.6234C137.52 63.687 137.567 63.7633 137.596 63.8471C137.625 63.9309 137.635 64.02 137.625 64.1081Z" fill="#474F55"/>
</g>
<path opacity="0.5" d="M146.291 41.7392C146.29 40.5307 145.93 39.3496 145.256 38.3454C144.582 37.3413 143.625 36.5591 142.505 36.0979C141.385 35.6368 140.154 35.5174 138.966 35.7548C137.778 35.9922 136.688 36.5758 135.832 37.4317C134.977 38.2876 134.396 39.3773 134.161 40.5631C133.927 41.7488 134.051 42.9772 134.517 44.0928C134.982 45.2084 135.769 46.1611 136.778 46.8303C137.787 47.4996 138.972 47.8553 140.183 47.8524C141.805 47.8486 143.36 47.2027 144.505 46.0565C145.65 44.9103 146.293 43.3576 146.291 41.7392Z" fill="#525B61"/>
<path d="M145.847 41.7397C145.846 40.619 145.512 39.5237 144.886 38.5925C144.261 37.6613 143.373 36.9361 142.335 36.5085C141.297 36.0809 140.154 35.9703 139.053 36.1906C137.952 36.4109 136.94 36.9522 136.147 37.746C135.354 38.5398 134.815 39.5505 134.598 40.6501C134.381 41.7497 134.496 42.8889 134.928 43.9234C135.36 44.9579 136.09 45.8413 137.026 46.4617C137.961 47.0822 139.06 47.4118 140.183 47.409C141.688 47.4051 143.129 46.806 144.191 45.7431C145.252 44.6802 145.848 43.2403 145.847 41.7397Z" fill="#525B61"/>
<g style="mix-blend-mode:multiply" opacity="0.2">
<path d="M145.847 41.7397C145.846 40.619 145.512 39.5237 144.886 38.5925C144.261 37.6613 143.373 36.9361 142.335 36.5085C141.297 36.0809 140.154 35.9703 139.053 36.1906C137.952 36.4109 136.94 36.9522 136.147 37.746C135.354 38.5398 134.815 39.5505 134.598 40.6501C134.381 41.7497 134.496 42.8889 134.928 43.9234C135.36 44.9579 136.09 45.8413 137.026 46.4617C137.961 47.0822 139.06 47.4118 140.183 47.409C141.688 47.4051 143.129 46.806 144.191 45.7431C145.252 44.6802 145.848 43.2403 145.847 41.7397Z" fill="#525B61"/>
</g>
<path d="M138.892 40.3697C138.891 40.1685 138.831 39.9722 138.718 39.8054C138.605 39.6386 138.446 39.5089 138.259 39.4326C138.072 39.3563 137.867 39.3368 137.67 39.3766C137.472 39.4164 137.291 39.5138 137.149 39.6563C137.006 39.7989 136.91 39.9803 136.871 40.1777C136.832 40.375 136.852 40.5795 136.929 40.7652C137.007 40.9509 137.138 41.1097 137.305 41.2213C137.473 41.333 137.67 41.3926 137.872 41.3926C138.006 41.3926 138.139 41.3661 138.263 41.3146C138.388 41.2631 138.5 41.1877 138.595 41.0927C138.69 40.9976 138.765 40.8848 138.816 40.7608C138.867 40.6367 138.893 40.5038 138.892 40.3697Z" fill="#E6F4FD"/>
<path d="M140.183 38.2999C140.183 38.173 140.146 38.0489 140.075 37.9434C140.004 37.8379 139.904 37.7556 139.786 37.7071C139.669 37.6585 139.539 37.6458 139.415 37.6705C139.29 37.6953 139.175 37.7564 139.085 37.8462C138.995 37.9359 138.934 38.0502 138.909 38.1747C138.885 38.2992 138.897 38.4282 138.946 38.5455C138.995 38.6627 139.077 38.763 139.183 38.8335C139.289 38.904 139.413 38.9416 139.54 38.9416C139.71 38.9404 139.873 38.8724 139.994 38.7523C140.114 38.6322 140.182 38.4697 140.183 38.2999Z" fill="#E6F4FD"/>
<path d="M134.829 33.33C135.279 33.6436 137.146 31.482 142.035 31.236C145.716 31.0478 146.219 31.5062 146.499 31.6123C146.867 31.7474 147.694 32.0466 148.037 31.8343C148.381 31.622 148.39 31.1298 147.346 30.3868C146.301 29.6438 143.752 29.4218 140.517 29.8271C137.281 30.2324 134.539 32.6834 134.539 32.6834C134.539 32.6834 134.38 33.0164 134.829 33.33Z" fill="#525B61"/>
<g style="mix-blend-mode:multiply" opacity="0.5">
<path d="M106.228 44.9674C101.283 43.2713 96.0133 42.7283 90.8247 43.3799C92.3868 41.0399 95.5159 39.6165 98.9641 39.9736C102.412 40.3306 105.174 42.3619 106.228 44.9674Z" fill="#525B61"/>
</g>
<path d="M105.696 44.4269C101.137 43.0129 96.3412 42.5208 91.5891 42.9794C92.9868 41.1266 95.8353 40.0217 98.9934 40.345C102.151 40.6682 104.7 42.3328 105.696 44.4269Z" fill="#525B61"/>
<path d="M104.449 36.0318C104.449 36.0318 101.702 33.5904 98.4662 33.1802C95.2308 32.7701 92.6627 32.9776 91.6375 33.7399C90.6122 34.5023 90.6073 34.9944 90.9507 35.1874C91.2941 35.3804 92.1211 35.1006 92.4886 34.9655C92.7691 34.8593 93.2673 34.3961 96.9525 34.5843C101.837 34.8352 103.723 36.9968 104.158 36.6783C104.594 36.3599 104.449 36.0318 104.449 36.0318Z" fill="#525B61"/>
<path d="M138.989 40.2777C138.99 40.0752 138.931 39.877 138.819 39.7081C138.707 39.5393 138.547 39.4074 138.359 39.3293C138.172 39.2511 137.966 39.2301 137.767 39.2691C137.567 39.308 137.384 39.405 137.24 39.5479C137.097 39.6907 136.998 39.873 136.959 40.0715C136.919 40.2701 136.939 40.476 137.016 40.6632C137.094 40.8504 137.225 41.0104 137.394 41.123C137.562 41.2357 137.761 41.2958 137.964 41.2958C138.235 41.2958 138.495 41.1887 138.687 40.9979C138.879 40.8071 138.988 40.5482 138.989 40.2777Z" fill="#E6F4FD"/>
<path d="M140.27 38.2032C140.27 38.0763 140.233 37.9523 140.162 37.8467C140.091 37.7412 139.991 37.6589 139.873 37.6104C139.756 37.5618 139.626 37.5491 139.502 37.5739C139.377 37.5986 139.262 37.6597 139.172 37.7495C139.082 37.8392 139.021 37.9536 138.996 38.078C138.971 38.2025 138.984 38.3316 139.033 38.4488C139.082 38.5661 139.164 38.6663 139.27 38.7368C139.376 38.8073 139.5 38.845 139.627 38.845C139.712 38.8456 139.796 38.8294 139.874 38.7974C139.952 38.7654 140.024 38.7181 140.083 38.6584C140.143 38.5987 140.191 38.5277 140.223 38.4496C140.255 38.3714 140.271 38.2877 140.27 38.2032Z" fill="#E6F4FD"/>
<path d="M134.922 33.2331C135.377 33.5467 137.243 31.3899 142.128 31.1391C145.813 30.9509 146.316 31.4141 146.592 31.5202C146.959 31.6553 147.791 31.9545 148.13 31.7422C148.468 31.5299 148.483 31.0329 147.443 30.2706C146.403 29.5082 143.85 29.3056 140.614 29.7157C137.379 30.1258 134.632 32.5624 134.632 32.5624C134.632 32.5624 134.472 32.9194 134.922 33.2331Z" fill="#525B61"/>
<g opacity="0.33">
<path opacity="0.33" d="M122.372 76.1072C121.658 76.284 120.93 76.3922 120.195 76.4305L119.547 76.4594L118.899 76.4305C118.165 76.3926 117.436 76.2843 116.723 76.1072C115.993 75.9239 115.113 76.2375 115.272 76.7875C115.432 77.3376 116.568 78.0227 117.743 78.3267C118.916 78.6259 120.145 78.6259 121.317 78.3267C122.488 78.0227 123.605 77.3617 123.784 76.7875C123.963 76.2134 123.102 75.9046 122.372 76.1072Z" fill="#535C62"/>
</g>
<path d="M114.131 74.7272C114.951 75.2197 115.832 75.604 116.752 75.8707C118.585 76.393 120.531 76.3712 122.352 75.808C123.269 75.5283 124.144 75.1275 124.954 74.6162C124.22 75.2601 123.372 75.7624 122.454 76.0975C120.588 76.8051 118.531 76.8274 116.65 76.1602C115.73 75.8397 114.876 75.354 114.131 74.7272Z" fill="#535C62"/>
<path d="M61.2127 124.313C61.2127 124.313 61.5802 122.866 61.8221 121.785C62.0639 120.704 62.8232 117.09 62.4072 114.547C62.3191 113.723 62.0459 112.929 61.608 112.224C61.1702 111.519 60.5788 110.921 59.8779 110.475C59.0267 109.887 55.8445 110.22 54.5967 111.947C53.9986 112.75 53.5869 113.676 53.3912 114.657C53.1955 115.638 53.2207 116.651 53.465 117.621C53.9003 119.802 54.4903 122.591 54.471 123.802C54.4516 125.013 54.1615 126.817 54.1615 127.15C54.1615 127.483 57.5468 127.589 58.2674 127.305C58.988 127.02 61.4061 126.402 61.3626 125.452C61.3738 125.067 61.3232 124.682 61.2127 124.313Z" fill="#3C454A"/>
<g style="mix-blend-mode:multiply" opacity="0.12">
<path d="M73.2159 139.497C72.223 139.896 71.1739 140.139 70.1062 140.216H69.9659C69.6992 140.241 69.4342 140.283 69.1728 140.341C69.1728 140.341 69.2647 140.529 69.3566 140.737C69.4485 140.944 69.5307 141.099 69.5694 141.185C69.9019 141.88 70.0486 142.648 69.9952 143.416C69.9418 144.184 69.6902 144.925 69.2647 145.567C68.4183 146.893 62.7599 147.747 62.7599 147.747C62.315 147.781 57.9237 148.524 55.0993 147.212C52.5845 146.044 50.6113 143.226 50.118 140.457C49.6247 137.687 50.9595 126.884 53.6872 125.365C56.4148 123.845 62.4891 124.679 65.9712 125.625C69.4533 126.571 71.0928 127.391 71.3781 127.743C72.3163 128.901 72.7951 131.169 71.5135 132.457C71.3757 132.593 71.2233 132.712 71.0589 132.814C71.3268 132.867 71.5903 132.939 71.8472 133.031C72.5663 133.283 73.2417 133.644 73.8494 134.103C74.6716 134.735 75.2519 138.585 73.2159 139.497Z" fill="#3C454A"/>
</g>
<path d="M72.6599 138.942C71.667 139.342 70.6179 139.584 69.5502 139.661H69.4099C69.1397 139.689 68.8715 139.734 68.6071 139.796C68.6071 139.796 68.699 139.984 68.7909 140.192C68.8828 140.399 68.965 140.554 69.0037 140.641C69.3362 141.335 69.4829 142.103 69.4295 142.871C69.3761 143.639 69.1245 144.38 68.699 145.022C67.8527 146.348 62.1943 147.202 62.1943 147.202C61.7493 147.236 57.358 147.979 54.5337 146.667C52.0188 145.499 50.0456 142.682 49.5523 139.912C49.059 137.142 50.3938 126.34 53.1215 124.82C55.8491 123.3 61.9234 124.135 65.4055 125.08C68.8876 126.026 70.5271 126.846 70.8124 127.198C71.7507 128.356 72.2294 130.624 70.9478 131.912C70.8101 132.048 70.6576 132.168 70.4932 132.269C70.7611 132.322 71.0246 132.394 71.2815 132.486C72.0006 132.738 72.6761 133.099 73.2837 133.558C74.1156 134.18 74.6959 138.03 72.6599 138.942Z" fill="#515A60"/>
<path d="M71.2867 132.477C71.2596 132.482 71.2317 132.482 71.2045 132.477C70.9434 132.477 62.9394 132.134 62.2285 132.12C61.5176 132.105 61.5127 131.999 61.4837 131.98C61.4547 131.96 61.3967 131.912 63.3215 131.98C65.2463 132.047 67.3791 131.98 68.8686 131.98C69.7923 131.98 70.5323 131.936 70.953 131.907C70.8187 132.043 70.6694 132.162 70.5081 132.264C70.7726 132.315 71.0329 132.386 71.2867 132.477Z" fill="#3C454A"/>
<path d="M69.4102 139.681C69.1403 139.702 68.8722 139.741 68.6073 139.797C68.6073 139.797 68.6992 139.985 68.7911 140.192H68.6219C68.2495 140.192 61.8124 139.372 61.5658 139.343C61.3191 139.314 61.7496 139.116 61.7496 139.116C61.7496 139.116 65.251 139.459 66.8566 139.599C67.7562 139.671 68.7911 139.676 69.5407 139.661L69.4102 139.681Z" fill="#3C454A"/>
<path d="M177.906 124.313C177.906 124.313 177.533 122.866 177.296 121.785C177.059 120.704 176.29 117.09 176.706 114.547C176.796 113.723 177.07 112.93 177.508 112.225C177.946 111.52 178.536 110.922 179.236 110.475C180.087 109.887 183.274 110.22 184.517 111.947C185.117 112.753 185.53 113.682 185.724 114.667C185.919 115.652 185.892 116.667 185.644 117.64C185.204 119.821 184.614 122.61 184.638 123.821C184.662 125.032 184.943 126.837 184.943 127.169C184.943 127.502 181.557 127.608 180.841 127.324C180.126 127.039 177.698 126.422 177.741 125.471C177.73 125.079 177.785 124.687 177.906 124.313Z" fill="#3C454A"/>
<g style="mix-blend-mode:multiply" opacity="0.3">
<path d="M177.906 124.313C177.906 124.313 177.533 122.866 177.296 121.785C177.059 120.704 176.29 117.09 176.706 114.547C176.796 113.723 177.07 112.93 177.508 112.225C177.946 111.52 178.536 110.922 179.236 110.475C180.087 109.887 183.274 110.22 184.517 111.947C185.117 112.753 185.53 113.682 185.724 114.667C185.919 115.652 185.892 116.667 185.644 117.64C185.204 119.821 184.614 122.61 184.638 123.821C184.662 125.032 184.943 126.837 184.943 127.169C184.943 127.502 181.557 127.608 180.841 127.324C180.126 127.039 177.698 126.422 177.741 125.471C177.73 125.079 177.785 124.687 177.906 124.313Z" fill="#3C454A"/>
</g>
<g style="mix-blend-mode:multiply" opacity="0.12">
<path d="M165.883 139.497C166.876 139.896 167.925 140.139 168.993 140.216H169.133C169.398 140.24 169.662 140.282 169.921 140.341L169.738 140.737C169.655 140.915 169.568 141.099 169.525 141.185C169.195 141.881 169.05 142.649 169.104 143.416C169.158 144.184 169.41 144.924 169.834 145.567C170.681 146.893 176.334 147.747 176.334 147.747C176.779 147.781 181.195 148.524 183.995 147.212C186.51 146.044 188.488 143.226 188.981 140.457C189.474 137.687 188.135 126.884 185.412 125.365C182.689 123.845 176.61 124.679 173.128 125.625C169.646 126.571 168.001 127.391 167.721 127.743C166.778 128.901 166.299 131.169 167.586 132.457C167.723 132.592 167.873 132.711 168.035 132.814C167.774 132.871 167.517 132.947 167.266 133.041C166.546 133.29 165.871 133.652 165.264 134.112C164.427 134.735 163.847 138.585 165.883 139.497Z" fill="#3C454A"/>
</g>
<path d="M166.439 138.942C167.432 139.341 168.481 139.584 169.549 139.661H169.689C169.954 139.686 170.218 139.728 170.477 139.786L170.294 140.182L170.086 140.631C169.753 141.325 169.606 142.094 169.66 142.861C169.713 143.629 169.965 144.37 170.39 145.012C171.237 146.339 176.89 147.193 176.89 147.193C177.335 147.226 181.751 147.97 184.551 146.657C187.066 145.489 189.044 142.672 189.537 139.902C190.03 137.133 188.691 126.33 185.968 124.81C183.245 123.29 177.166 124.125 173.684 125.07C170.202 126.016 168.557 126.836 168.277 127.189C167.334 128.347 166.855 130.614 168.142 131.903C168.279 132.037 168.429 132.156 168.591 132.26C168.325 132.313 168.063 132.385 167.808 132.477C167.088 132.726 166.412 133.087 165.806 133.548C164.984 134.18 164.403 138.03 166.439 138.942Z" fill="#515A60"/>
<path d="M166.439 138.942C167.432 139.341 168.481 139.584 169.549 139.661H169.689C169.954 139.686 170.218 139.728 170.477 139.786L170.294 140.182L170.086 140.631C169.753 141.325 169.606 142.094 169.66 142.861C169.713 143.629 169.965 144.37 170.39 145.012C171.237 146.339 176.89 147.193 176.89 147.193C177.335 147.226 181.751 147.97 184.551 146.657C187.066 145.489 189.044 142.672 189.537 139.902C190.03 137.133 188.691 126.33 185.968 124.81C183.245 123.29 177.166 124.125 173.684 125.07C170.202 126.016 168.557 126.836 168.277 127.189C167.334 128.347 166.855 130.614 168.142 131.903C168.279 132.037 168.429 132.156 168.591 132.26C168.325 132.313 168.063 132.385 167.808 132.477C167.088 132.726 166.412 133.087 165.806 133.548C164.984 134.18 164.403 138.03 166.439 138.942Z" fill="#3C444A"/>
<path d="M167.808 132.477C167.835 132.482 167.863 132.482 167.89 132.477C168.156 132.477 176.16 132.134 176.866 132.12C177.572 132.105 177.582 131.999 177.616 131.98C177.65 131.96 177.703 131.912 175.778 131.98C173.853 132.047 171.721 131.98 170.231 131.98C169.307 131.98 168.567 131.936 168.147 131.907C168.28 132.044 168.429 132.164 168.592 132.264C168.326 132.316 168.064 132.387 167.808 132.477Z" fill="#3C454A"/>
<path d="M169.684 139.681C169.95 139.706 170.213 139.747 170.473 139.806L170.289 140.202H170.463C170.835 140.202 177.273 139.382 177.514 139.353C177.756 139.324 177.331 139.126 177.331 139.126C177.331 139.126 173.834 139.469 172.228 139.608C171.324 139.681 170.294 139.686 169.544 139.671L169.684 139.681Z" fill="#3C454A"/>
<g style="mix-blend-mode:multiply" opacity="0.3">
<path d="M167.808 132.477C167.835 132.482 167.863 132.482 167.89 132.477C168.156 132.477 176.16 132.134 176.866 132.12C177.572 132.105 177.582 131.999 177.616 131.98C177.65 131.96 177.703 131.912 175.778 131.98C173.853 132.047 171.72 131.98 170.231 131.98C169.307 131.98 168.567 131.936 168.146 131.907C168.28 132.044 168.429 132.164 168.591 132.264C168.325 132.316 168.063 132.387 167.808 132.477Z" fill="#3C454A"/>
</g>
<g style="mix-blend-mode:multiply" opacity="0.3">
<path d="M169.685 139.681C169.95 139.706 170.213 139.747 170.473 139.806L170.289 140.202H170.463C170.836 140.202 177.273 139.382 177.515 139.353C177.756 139.324 177.331 139.126 177.331 139.126C177.331 139.126 173.834 139.469 172.229 139.608C171.324 139.681 170.294 139.686 169.544 139.671L169.685 139.681Z" fill="#3C454A"/>
</g>
</g>
<defs>
<clipPath id="clip0">
<rect width="195" height="191" fill="white" transform="translate(22)"/>
</clipPath>
</defs>
</svg>
