<svg width="220" height="244" viewBox="0 0 220 244" fill="none" xmlns="http://www.w3.org/2000/svg">
<path d="M132.71 108.237C132.71 108.237 131.084 111.54 133.577 115.892C136.07 120.243 140.327 123.696 142.624 124.516C143.986 125 145.316 125.569 146.607 126.22C146.889 127.45 146.82 128.734 146.409 129.926C145.736 132.08 144.634 135.155 144.634 135.155L150.661 143.728L151.671 143.306C151.671 143.306 160.522 133.499 161.567 128.534C162.741 122.905 162.713 119.368 158.505 115.86C154.298 112.353 142.972 107.901 139.137 107.461C135.303 107.022 134.004 107.203 133.47 107.491C133.149 107.66 132.885 107.919 132.71 108.237Z" fill="#4D9BE2"/>
<g style="mix-blend-mode:multiply" opacity="0.4">
<path d="M132.71 108.237C132.71 108.237 131.084 111.54 133.577 115.892C136.07 120.243 140.327 123.696 142.624 124.516C143.986 125 145.316 125.569 146.607 126.22C146.889 127.45 146.82 128.734 146.409 129.926C145.736 132.08 144.634 135.155 144.634 135.155L150.661 143.728L151.671 143.306C151.671 143.306 160.522 133.499 161.567 128.534C162.741 122.905 162.713 119.368 158.505 115.86C154.298 112.353 142.972 107.901 139.137 107.461C135.303 107.022 134.004 107.203 133.47 107.491C133.149 107.66 132.885 107.919 132.71 108.237Z" fill="#4D9BE2"/>
</g>
<path d="M81.6772 162.944L82.8767 163.076C82.908 163.076 82.9497 163.041 82.9845 163.045C83.6416 163.076 84.1666 162.045 84.3091 161.473C84.4691 160.822 84.0658 159.755 83.739 159.591C83.4121 159.428 82.1431 158.894 81.8232 158.751C81.8152 158.748 81.8065 158.747 81.7978 158.747C81.7891 158.748 81.7807 158.751 81.7734 158.756C81.7662 158.761 81.7602 158.767 81.7562 158.775C81.7521 158.783 81.7501 158.791 81.7502 158.8L81.6285 162.888C81.6284 162.902 81.6333 162.915 81.6423 162.925C81.6513 162.936 81.6637 162.942 81.6772 162.944Z" fill="#E7E8E9"/>
<path d="M124.859 229.799C124.949 230.129 125.065 230.45 125.206 230.761C125.857 232.228 127.035 233.358 128.635 233.605C130.571 233.905 152.211 233.567 152.899 233.647C153.282 233.602 153.639 233.43 153.914 233.159C155.155 232.145 156.57 229.785 154.105 228.134C153.779 227.914 150.882 225.217 143.54 224.596C140.935 224.377 137.754 223.997 136.238 222.903C135.856 222.635 135.498 222.333 135.171 222C135.026 221.863 134.909 221.699 134.823 221.519C134.806 221.48 134.797 221.437 134.799 221.394L134.239 220.829L130.589 220.505L126.218 221.61C126.272 222 126.272 222.397 126.218 222.788C126.196 222.976 126.163 223.163 126.121 223.349L126.069 223.547C125.777 224.635 124.337 227.883 124.859 229.799Z" fill="#515A60"/>
<g style="mix-blend-mode:multiply" opacity="0.2">
<path d="M124.859 229.799C124.949 230.129 125.065 230.45 125.206 230.761C125.857 232.228 127.035 233.357 128.635 233.605C130.571 233.905 152.211 233.567 152.899 233.647C153.282 233.602 153.639 233.43 153.914 233.159C155.155 232.145 156.57 229.785 154.105 228.134C153.779 227.914 150.882 225.217 143.54 224.596C140.935 224.377 137.754 223.997 136.238 222.903C135.856 222.635 135.498 222.333 135.171 222C135.026 221.863 134.909 221.699 134.823 221.519C134.806 221.48 134.797 221.437 134.799 221.394L134.239 220.829L130.589 220.505L126.218 221.61C126.272 222 126.272 222.397 126.218 222.788C126.196 222.976 126.163 223.163 126.121 223.349L126.069 223.547C125.777 224.635 124.337 227.883 124.859 229.799Z" fill="#515A60"/>
</g>
<g style="mix-blend-mode:multiply" opacity="0.4">
<path d="M125.203 230.762C125.853 232.229 127.032 233.358 128.631 233.605C130.568 233.905 152.207 233.567 152.895 233.647C153.278 233.602 153.636 233.43 153.911 233.159H129.205C129.205 233.159 127.588 233.121 126.124 231.48C125.869 231.18 125.556 230.936 125.203 230.762Z" fill="#515A60"/>
</g>
<g style="mix-blend-mode:multiply" opacity="0.4">
<path d="M126.125 223.353C126.58 223.739 127.474 224.461 127.474 224.461L127.699 224.213C128.27 223.607 129.504 223.255 129.504 223.255C129.504 223.255 129.984 223.781 130.286 224.06C130.433 224.199 130.604 224.31 130.79 224.388C130.79 224.388 130.811 224.388 130.846 223.973C130.912 223.276 131.795 222.927 131.795 222.927C131.795 222.927 132.094 223.151 132.577 223.562C132.856 223.809 133.178 224.003 133.527 224.133C133.504 224.019 133.497 223.901 133.506 223.785C133.506 223.506 133.443 223.614 133.853 223.266C134.041 223.098 134.674 222.467 135.171 221.983L135.567 221.61L135.675 221.516C135.209 221.429 135.696 221.628 135.188 221.551L134.841 221.502C134.573 221.464 134.316 221.432 134.065 221.408C130.345 221.06 127.595 221.492 126.236 222.764C126.21 222.962 126.172 223.159 126.125 223.353Z" fill="#515A60"/>
</g>
<path d="M101.964 229.8C101.874 230.13 101.758 230.451 101.617 230.762C100.966 232.229 99.7878 233.358 98.1885 233.606C96.2519 233.906 74.6125 233.568 73.9241 233.648C73.541 233.602 73.1839 233.431 72.9089 233.16C71.6676 232.146 70.2526 229.786 72.7176 228.134C73.0444 227.915 75.9406 225.218 83.2835 224.597C85.8876 224.378 89.0689 223.998 90.5848 222.904C90.9673 222.636 91.3246 222.334 91.6521 222.001C91.7967 221.863 91.9145 221.7 91.9998 221.52C92.0175 221.481 92.0258 221.438 92.0242 221.395L92.5839 220.83L96.2345 220.506L100.605 221.611C100.551 222.001 100.551 222.398 100.605 222.789C100.627 222.977 100.66 223.164 100.702 223.35L100.754 223.548C101.046 224.636 102.486 227.884 101.964 229.8Z" fill="#515A60"/>
<g style="mix-blend-mode:multiply" opacity="0.2">
<path d="M101.62 230.762C100.97 232.229 99.7914 233.358 98.1921 233.605C96.2555 233.905 74.6161 233.567 73.9277 233.647C73.5447 233.602 73.1875 233.43 72.9125 233.159H97.6184C97.6184 233.159 99.2351 233.121 100.699 231.48C100.954 231.18 101.268 230.936 101.62 230.762Z" fill="#515A60"/>
</g>
<g style="mix-blend-mode:multiply" opacity="0.2">
<path d="M100.699 223.353C100.243 223.739 99.3498 224.461 99.3498 224.461L99.1238 224.213C98.5536 223.607 97.3193 223.255 97.3193 223.255C97.3193 223.255 96.8395 223.781 96.5371 224.06C96.3901 224.199 96.2193 224.31 96.0329 224.388C96.0329 224.388 96.0121 224.388 95.9773 223.973C95.9113 223.276 95.0282 222.927 95.0282 222.927C95.0282 222.927 94.7292 223.151 94.2459 223.562C93.9671 223.809 93.6454 224.003 93.2967 224.133C93.3197 224.019 93.3267 223.901 93.3176 223.785C93.3176 223.506 93.3802 223.614 92.9699 223.266C92.7822 223.098 92.1494 222.467 91.6522 221.983L91.2559 221.61L91.1481 221.516C91.614 221.429 91.1272 221.628 91.6348 221.551L91.9825 221.502C92.2502 221.464 92.5075 221.432 92.7578 221.408C96.478 221.06 99.2281 221.492 100.588 222.764C100.614 222.962 100.651 223.159 100.699 223.353Z" fill="#515A60"/>
</g>
<path d="M38.0101 225.688C38.1596 230.072 42.4812 232.759 48.2179 234.801C51.7277 236.018 55.505 236.238 59.1315 235.435L59.4062 235.244C59.5114 235.081 59.5778 234.897 59.6002 234.705C59.6225 234.512 59.6001 234.318 59.5348 234.135C59.3088 233.501 54.3509 231.612 50.975 229.065C50.5753 228.775 50.2173 228.431 49.9111 228.044C48.2909 225.918 50.4987 224.026 53.1132 222.307C56.145 220.318 69.454 218.077 75.9626 216.432C82.4711 214.787 85.7462 213.815 85.7462 213.815C85.7462 213.815 86.0626 211.915 86.3303 210.204C86.5215 208.964 86.678 207.82 86.678 207.57C86.678 206.974 82.4085 191.838 81.7131 192.386C81.6112 192.467 81.486 192.575 81.3377 192.71C79.7384 194.275 78.0493 195.746 76.2789 197.115C73.3272 199.356 59.7608 205.681 49.4765 211.305C39.1922 216.93 37.8641 221.307 38.0101 225.688Z" fill="#4D9BE2"/>
<g style="mix-blend-mode:multiply" opacity="0.16">
<path d="M49.9113 228.04C48.2911 225.914 50.4988 224.022 53.1134 222.304C56.1451 220.314 69.4542 218.073 75.9627 216.428C82.4713 214.783 85.7464 213.811 85.7464 213.811C86.7718 215.974 87.9975 218.035 89.4074 219.969C91.1215 222.108 92.0637 222.656 92.6617 223.081C93.2597 223.506 93.1345 223.976 93.1345 223.976C93.4694 223.863 93.7748 223.676 94.0281 223.429L94.0941 223.373C93.4612 222.785 92.8914 222.132 92.394 221.425C91.0993 219.706 89.9159 217.905 88.8511 216.034C88.1871 214.759 86.7407 212.229 85.7603 210.395C85.4543 209.82 85.1171 208.803 84.9015 208.489C83.9871 207.165 83.9176 207.705 83.4691 207.837C83.401 207.863 83.3357 207.896 83.2744 207.935C82.0992 208.576 76.373 212.274 69.941 214.469C62.9874 216.843 52.5327 220.178 50.6448 221.439C50.0041 221.854 49.4597 222.402 49.0482 223.046C48.6368 223.69 48.3679 224.415 48.2598 225.172C48.2181 225.792 48.5936 227.13 49.9113 228.04Z" fill="#4D9BE2"/>
</g>
<path d="M124.473 184.854C124.247 185.172 124.034 185.315 123.92 185.085C123.85 184.945 124.125 184.889 124.473 184.854Z" fill="#DBF0FD"/>
<g style="mix-blend-mode:multiply" opacity="0.5">
<path d="M122.696 58.9563C122.798 58.9563 122.881 58.8736 122.881 58.7716C122.881 58.6696 122.798 58.5869 122.696 58.5869C122.594 58.5869 122.512 58.6696 122.512 58.7716C122.512 58.8736 122.594 58.9563 122.696 58.9563Z" fill="#515A60"/>
</g>
<path d="M145.472 198.585C145.269 201.772 144.619 204.915 143.543 207.921C142.847 209.934 142.025 211.901 141.081 213.81C140.056 215.973 138.83 218.035 137.42 219.968C135.706 222.108 134.764 222.655 134.166 223.08C133.568 223.506 133.693 223.976 133.693 223.976C133.358 223.863 133.053 223.676 132.799 223.429L132.733 223.373C132.174 222.906 131.756 222.606 131.756 222.606L131.384 223.028C131.136 223.406 130.999 223.847 130.988 224.3L130.54 223.924C130.193 223.606 129.878 223.256 129.597 222.878C129.301 223.028 129.019 223.203 128.752 223.401C128.354 223.665 128.001 223.994 127.709 224.373C127.598 224.29 125.755 222.913 124.984 221.463C124.212 220.014 123.569 218.752 123.569 218.752C123.569 218.752 134.472 214.26 139.447 205.823C145.01 196.413 145.486 192.709 145.486 192.709C145.239 194.615 145.566 196.612 145.472 198.585Z" fill="#4D9BE2"/>
<g style="mix-blend-mode:multiply" opacity="0.4">
<path d="M145.472 198.585C145.269 201.772 144.619 204.915 143.543 207.921C142.847 209.934 142.025 211.901 141.081 213.81C140.056 215.973 138.83 218.035 137.42 219.968C135.706 222.108 134.764 222.655 134.166 223.08C133.568 223.506 133.693 223.976 133.693 223.976C133.358 223.863 133.053 223.676 132.799 223.429L132.733 223.373C132.174 222.906 131.756 222.606 131.756 222.606L131.384 223.028C131.136 223.406 130.999 223.847 130.988 224.3L130.54 223.924C130.193 223.606 129.878 223.256 129.597 222.878C129.301 223.028 129.019 223.203 128.752 223.401C128.354 223.665 128.001 223.994 127.709 224.373C127.598 224.29 125.755 222.913 124.984 221.463C124.212 220.014 123.569 218.752 123.569 218.752C123.569 218.752 134.472 214.26 139.447 205.823C145.01 196.413 145.486 192.709 145.486 192.709C145.239 194.615 145.566 196.612 145.472 198.585Z" fill="#4D9BE2"/>
</g>
<g style="mix-blend-mode:multiply" opacity="0.2">
<path d="M146.06 176.758C146.06 182.212 146.62 183.937 145.486 192.705C145.486 192.705 145.003 197.441 139.447 206.865C134.472 215.302 123.569 219.794 123.569 219.794L120.589 220.317C119.616 220.491 118.486 220.62 117.415 220.717C115.798 220.867 114.286 220.944 113.611 220.972H113.215C110.877 220.884 108.546 220.665 106.233 220.317C103.275 219.797 102.788 219.654 102.788 219.654L82.5531 182.188C82.5913 181.968 82.6261 181.759 82.6644 181.56L82.8104 180.776C82.8347 180.665 82.8556 180.557 82.8764 180.456C82.8973 180.354 82.9112 180.292 82.9251 180.212C82.9273 180.206 82.9273 180.2 82.9251 180.194C82.9425 180.124 82.9564 180.051 82.9703 179.985C83.0503 179.616 83.1233 179.306 83.1824 179.069C83.1824 179.023 83.2102 178.981 83.2206 178.94C83.2311 178.898 83.2624 178.783 83.2832 178.72C83.3423 178.535 83.3945 178.372 83.4432 178.176C83.4918 177.981 83.537 177.828 83.5718 177.643C83.6377 177.34 83.6842 177.033 83.7109 176.723C83.7109 176.619 83.7282 176.511 83.7317 176.403C83.7352 176.295 83.7317 176.11 83.7317 175.96L131.402 176.308L146.004 176.5C146.018 176.587 146.037 176.673 146.06 176.758Z" fill="#515A60"/>
</g>
<path d="M146.62 175.573C146.62 181.027 146.62 183.937 145.486 192.706C145.486 192.706 145.003 196.396 139.447 205.819C134.472 214.257 123.569 218.749 123.569 218.749L120.589 219.271C118.277 219.62 115.948 219.839 113.611 219.927H113.413V77.5484C113.413 77.5484 115.743 77.9352 122.317 75.0845C129.789 71.8435 136.419 66.9715 138.568 60.4023C137.653 66.6021 136.374 74.046 135.769 78.5242C135.644 79.4268 135.55 80.2074 135.491 80.8312C134.993 86.1109 136.123 100.723 136.29 105.407C136.29 105.627 136.29 105.825 136.308 106C136.308 106.066 136.308 106.139 136.308 106.216C136.388 107.958 137.024 111.997 137.754 116.176C137.756 116.199 137.756 116.222 137.754 116.245C137.754 116.263 137.754 116.287 137.754 116.315C138.665 121.525 139.711 126.93 139.996 128.391L140.073 128.774C140.073 128.774 140.445 130.492 141.043 133.405C141.641 136.319 143.129 142.142 144.767 152.074C146.404 162.006 146.62 175.03 146.62 175.573Z" fill="#4D9BE2"/>
<path d="M131.409 175.26C130.541 181.025 129.356 186.737 127.859 192.371C126.495 197.539 124.833 202.623 122.88 207.597C121.296 211.724 119.471 215.753 117.415 219.665C115.798 219.815 114.286 219.892 113.611 219.92H113.215C110.877 219.832 108.547 219.613 106.234 219.265L103.254 218.742C103.254 218.742 102.635 219.962 101.839 221.453C101.043 222.945 99.1062 224.367 99.1062 224.367C98.8145 223.987 98.462 223.658 98.0632 223.394C97.7976 223.197 97.5162 223.022 97.2218 222.872C96.941 223.25 96.6243 223.6 96.2761 223.917L95.8311 224.293C95.8183 223.84 95.6798 223.4 95.4313 223.021L95.0593 222.6C95.0593 222.6 94.6142 222.924 94.0162 223.422C93.8058 223.611 93.5721 223.771 93.3209 223.9C93.2627 223.931 93.2007 223.954 93.1366 223.969C93.1366 223.969 93.2618 223.495 92.6638 223.074C92.0658 222.652 91.1236 222.101 89.413 219.962C87.7024 217.822 81.8128 208.06 81.3643 198.578C81.2535 196.033 81.279 193.484 81.4408 190.942L81.472 190.44C81.5346 189.472 81.6111 188.532 81.7015 187.621C81.7034 187.596 81.7034 187.57 81.7015 187.544C81.7537 186.987 81.8128 186.44 81.8753 185.913C81.8997 185.708 81.924 185.502 81.9484 185.304C81.9727 185.105 82.0075 184.844 82.0353 184.607L82.0561 184.446C82.1291 183.896 82.2022 183.366 82.2786 182.868C82.3169 182.617 82.3551 182.373 82.3899 182.139C82.4108 182.021 82.4282 181.902 82.449 181.791C82.4873 181.561 82.522 181.341 82.5603 181.125C82.5985 180.909 82.6333 180.696 82.6715 180.498C82.7202 180.219 82.7689 179.958 82.8175 179.714C82.8419 179.602 82.8627 179.494 82.8836 179.393C82.9045 179.292 82.9184 179.229 82.9323 179.149C82.9344 179.144 82.9344 179.137 82.9323 179.132C82.9497 179.062 82.9636 178.989 82.9775 178.923C83.0574 178.553 83.1305 178.243 83.1896 178.006C83.1896 177.961 83.2174 177.919 83.2278 177.877C83.2382 177.835 83.2695 177.72 83.2904 177.658C83.3495 177.473 83.4016 177.309 83.4503 177.114C83.499 176.919 83.5442 176.765 83.579 176.581C83.6429 176.277 83.6894 175.97 83.718 175.661C83.718 175.553 83.7354 175.448 83.7389 175.34C83.7424 175.232 83.7389 175.047 83.7389 174.897C83.7389 174.748 83.7389 174.577 83.718 174.413C83.6822 173.972 83.6136 173.534 83.5129 173.103C83.1409 171.458 80.3838 161.975 82.0214 152.043C83.6589 142.111 85.1505 136.288 85.7485 133.374C86.3465 130.461 86.715 128.743 86.715 128.743C86.715 128.743 90.4421 109.851 90.5151 105.968C90.5881 102.086 91.8571 86.3271 91.3356 80.8C91.2765 80.1762 91.1827 79.406 91.061 78.4929C90.4525 74.0217 89.1661 66.5708 88.2517 60.3711C90.3934 66.9507 97.0306 71.8297 104.509 75.0742C111.084 77.9249 113.413 77.538 113.413 77.538C113.413 77.538 115.207 77.8377 120.095 75.9768C121.58 85.9926 122.995 96.6635 124.81 103.424C127.939 115.075 131.52 133.297 132.74 147.934C133.349 155.246 132.973 164.85 131.409 175.26Z" fill="#4D9BE2"/>
<g style="mix-blend-mode:multiply" opacity="0.4">
<path d="M146.62 175.575C146.62 181.029 146.62 183.939 145.487 192.707C145.487 192.707 145.003 196.397 139.447 205.821C134.472 214.258 123.569 218.75 123.569 218.75L120.589 219.273C119.616 219.447 118.486 219.576 117.415 219.673C119.471 215.761 121.296 211.732 122.881 207.605C124.833 202.631 126.495 197.547 127.859 192.379C129.357 186.743 130.542 181.028 131.409 175.261C132.974 164.844 133.349 155.24 132.741 147.939C131.52 133.302 127.939 115.079 124.81 103.429C122.995 96.668 121.58 86.004 120.096 75.9813C120.791 75.7269 121.514 75.4271 122.317 75.0786C129.789 71.8376 136.419 66.9656 138.568 60.3965C137.653 66.5962 136.374 74.0401 135.769 78.5183C135.644 79.4209 135.55 80.2015 135.491 80.8254C134.994 86.1051 136.124 100.718 136.291 105.401C136.291 105.621 136.291 105.82 136.308 105.994C136.308 106.06 136.308 106.133 136.308 106.21C136.388 107.952 137.024 111.991 137.754 116.17C137.756 116.193 137.756 116.216 137.754 116.24C137.754 116.257 137.754 116.281 137.754 116.309C138.665 121.519 139.712 126.924 139.997 128.385L140.073 128.768C140.073 128.768 140.445 130.486 141.043 133.4C141.641 136.313 143.129 142.136 144.767 152.069C146.321 161.478 146.561 173.651 146.582 175.39C146.62 175.481 146.62 175.547 146.62 175.575Z" fill="#4D9BE2"/>
</g>
<path d="M133.364 147.321C132.144 132.684 128.563 114.461 125.434 102.811C123.619 96.0501 122.204 85.3861 120.719 75.3634C119.049 76.0392 117.311 76.5345 115.535 76.841C115.466 76.841 115.4 76.8619 115.337 76.8689C115.275 76.8758 115.132 76.8967 115.038 76.9037H114.989C114.882 76.9037 114.784 76.9246 114.697 76.9281C114.478 76.9505 114.256 76.9505 114.037 76.9281C113.865 76.9443 113.691 76.9443 113.519 76.9281H113.3H113.091L112.889 76.9072L112.726 76.8863C112.564 76.8654 112.383 76.8375 112.184 76.8026C111.134 76.6084 110.1 76.3393 109.089 75.9976L108.533 75.8129L107.911 75.5899C107.083 75.2902 106.172 74.9242 105.129 74.4782C100.3 72.3872 95.822 69.5992 92.6825 66.1143C93.2074 68.8395 97.8976 71.2755 98.4643 73.7812C98.8855 76.1316 99.1099 78.5131 99.1354 80.901C98.9094 88.8153 99.5213 92.9485 98.5408 100.64C97.4978 108.823 98.1201 119.023 94.0384 134.918C88.8232 155.239 90.1201 168.077 92.9502 174.647C95.7803 181.216 97.6195 185.049 102.042 188.684C104.983 191.103 109.889 194.1 114.798 194.1C118.661 194.1 124.332 193.789 128.479 191.747C132.916 175.117 134.299 158.511 133.364 147.321ZM124.544 184.46C124.474 184.321 124.749 184.265 125.096 184.23C124.87 184.547 124.658 184.69 124.544 184.46Z" fill="#DBF0FD"/>
<path d="M138.373 134.8C134.646 118.804 133.46 108.561 131.965 100.448C130.999 95.1476 131.27 86.4735 132.195 79.5593C132.431 77.8168 132.706 76.1894 133.032 74.6804C133.585 72.1642 134.239 69.4529 134.771 66.7207C131.642 70.2057 127.153 72.9762 122.324 75.0846C121.521 75.4331 120.784 75.7328 120.102 75.9872C121.587 86.003 123.002 96.674 124.817 103.435C127.946 115.085 131.527 133.308 132.747 147.945C133.683 159.135 132.299 175.741 127.88 192.378C128.896 191.9 129.833 191.27 130.661 190.51C137.434 184.143 140.396 178.47 141.505 173.619C143.334 165.519 142.096 150.782 138.373 134.8Z" fill="#DBF0FD"/>
<g style="mix-blend-mode:multiply" opacity="0.5">
<path d="M138.373 134.8C134.646 118.804 133.46 108.561 131.965 100.448C130.999 95.1476 131.27 86.4735 132.195 79.5593C132.431 77.8168 132.706 76.1894 133.032 74.6804C133.585 72.1642 134.239 69.4529 134.771 66.7207C131.642 70.2057 127.153 72.9762 122.324 75.0846C121.521 75.4331 120.784 75.7328 120.102 75.9872C121.587 86.003 123.002 96.674 124.817 103.435C127.946 115.085 131.527 133.308 132.747 147.945C133.683 159.135 132.299 175.741 127.88 192.378C128.896 191.9 129.833 191.27 130.661 190.51C137.434 184.143 140.396 178.47 141.505 173.619C143.334 165.519 142.096 150.782 138.373 134.8Z" fill="#DBF0FD"/>
</g>
<path d="M132.741 147.946C131.52 133.309 127.939 115.086 124.81 103.436C122.995 96.6751 121.58 86.0111 120.096 75.9884C118.425 76.6642 116.687 77.1595 114.912 77.466C114.842 77.466 114.776 77.4869 114.714 77.4939C114.651 77.5008 114.509 77.5217 114.415 77.5287H114.366C114.258 77.5287 114.161 77.5496 114.074 77.5531C113.854 77.5755 113.633 77.5755 113.413 77.5531C113.241 77.5693 113.068 77.5693 112.895 77.5531H112.676H112.468L112.266 77.5322L112.103 77.5113C111.94 77.4904 111.76 77.4625 111.56 77.4276C110.511 77.2334 109.477 76.9643 108.466 76.6226L107.91 76.4379L107.287 76.2149C106.46 75.9152 105.549 75.5492 104.506 75.1032C99.6767 73.0122 95.1986 70.2242 92.059 66.7393C92.584 69.4645 97.2742 71.9005 97.8409 74.4062C98.262 76.7566 98.4865 79.1381 98.5119 81.526C98.2859 89.4403 98.8979 93.5735 97.9174 101.265C96.8744 109.448 97.4967 119.648 93.415 135.543C88.1998 155.864 89.4967 168.702 92.3268 175.272C95.1568 181.841 96.9961 185.674 101.419 189.309C104.36 191.728 109.266 194.725 114.175 194.725C118.037 194.725 123.708 194.414 127.856 192.372C132.292 175.742 133.676 159.136 132.741 147.946ZM123.92 185.085C123.851 184.946 124.125 184.89 124.473 184.855C124.247 185.172 124.035 185.315 123.92 185.085Z" fill="#DBF0FD"/>
<path d="M95.1937 108.237C95.1937 108.237 96.8193 111.54 94.3266 115.892C91.8339 120.243 87.5764 123.696 85.2792 124.516C83.9172 125 82.5871 125.569 81.2969 126.22C81.0149 127.45 81.0833 128.734 81.4942 129.926C82.1674 132.08 83.27 135.155 83.27 135.155L77.243 143.728L76.2322 143.306C76.2322 143.306 67.3819 133.499 66.3364 128.534C65.1626 122.905 65.1908 119.368 69.3981 115.86C73.6053 112.353 84.932 107.901 88.7665 107.461C92.6009 107.022 93.9 107.203 94.4333 107.491C94.7541 107.66 95.0184 107.919 95.1937 108.237Z" fill="#4D9BE2"/>
<path d="M85.1005 159.866C84.2678 159.91 83.556 159.764 83.1107 159.307C82.8478 159.029 82.6824 158.674 82.6395 158.294C82.6351 158.209 82.6304 158.121 82.6256 158.03L82.405 153.863L82.2961 151.806C81.7299 152.262 81.0355 152.531 80.3094 152.575C79.8602 152.599 79.4111 152.525 78.9938 152.357C78.5765 152.19 78.2012 151.933 77.8944 151.604C77.6748 151.303 77.4891 150.979 77.3408 150.638C77.1197 150.143 76.9524 149.626 76.8416 149.096L76.8396 149.057C76.8396 149.057 76.4086 150.139 74.5417 150.03C72.9407 149.931 72.4353 148.672 72.1466 147.564C71.858 146.456 71.1357 141.835 71.6181 139.853C71.9991 138.293 72.5547 136.557 72.8565 136.043C73.0438 135.725 73.2654 135.428 73.5173 135.157C73.5173 135.157 74.3911 133.751 77.0641 133.38C79.7371 133.009 81.6459 132.572 84.2164 133.874C86.7868 135.175 89.6519 137.03 91.7495 137.219C93.8471 137.408 96.8777 137.442 97.6147 137.06C98.3517 136.679 99.8467 137.649 99.5338 138.891C99.221 140.133 97.0926 142.906 94.1504 142.468C91.2081 142.03 89.5608 141.725 88.1132 143.052C86.6655 144.379 86.5308 146.58 86.5863 149.3C86.6419 152.021 86.7709 156.33 86.7319 157.063C86.6929 157.797 86.4766 159.793 85.1005 159.866Z" fill="#515A60"/>
<g style="mix-blend-mode:multiply" opacity="0.2">
<path d="M83.1278 159.306C82.852 158.941 82.6843 158.506 82.6437 158.05L82.0185 146.239C82.105 146.002 82.2452 145.842 82.4138 145.819L83.1278 159.306Z" fill="#515A60"/>
</g>
<g style="mix-blend-mode:multiply" opacity="0.2">
<path d="M77.3579 150.64C77.1368 150.145 76.9695 149.629 76.8587 149.098L76.7004 146.108C76.7311 146.02 76.7841 145.943 76.8541 145.882C76.9241 145.821 77.0087 145.78 77.0996 145.762L77.3579 150.64Z" fill="#515A60"/>
</g>
<path d="M142.803 159.866C143.636 159.91 144.348 159.764 144.793 159.307C145.056 159.029 145.221 158.674 145.264 158.294C145.268 158.209 145.273 158.121 145.278 158.03L145.499 153.863L145.607 151.806C146.174 152.262 146.868 152.531 147.594 152.575C148.043 152.599 148.492 152.525 148.91 152.357C149.327 152.19 149.702 151.933 150.009 151.604C150.229 151.303 150.414 150.979 150.563 150.638C150.784 150.143 150.951 149.626 151.062 149.096L151.064 149.057C151.064 149.057 151.495 150.139 153.362 150.03C154.963 149.931 155.468 148.672 155.757 147.564C156.046 146.456 156.768 141.835 156.285 139.853C155.905 138.293 155.349 136.557 155.047 136.043C154.86 135.725 154.638 135.428 154.386 135.157C154.386 135.157 153.512 133.751 150.839 133.38C148.166 133.009 146.258 132.572 143.687 133.874C141.117 135.175 138.252 137.03 136.154 137.219C134.056 137.408 131.026 137.442 130.289 137.06C129.552 136.679 128.057 137.649 128.37 138.891C128.683 140.133 130.811 142.906 133.753 142.468C136.695 142.03 138.343 141.725 139.79 143.052C141.238 144.379 141.373 146.58 141.317 149.3C141.262 152.021 141.133 156.33 141.172 157.063C141.211 157.797 141.427 159.793 142.803 159.866Z" fill="#515A60"/>
<g style="mix-blend-mode:multiply" opacity="0.2">
<path d="M142.803 159.866C143.636 159.91 144.348 159.764 144.793 159.307C145.056 159.029 145.221 158.674 145.264 158.294C145.268 158.209 145.273 158.121 145.278 158.03L145.499 153.863L145.607 151.806C146.174 152.262 146.868 152.531 147.594 152.575C148.043 152.599 148.492 152.525 148.91 152.357C149.327 152.19 149.702 151.933 150.009 151.604C150.229 151.303 150.414 150.979 150.563 150.638C150.784 150.143 150.951 149.626 151.062 149.096L151.064 149.057C151.064 149.057 151.495 150.139 153.362 150.03C154.963 149.931 155.468 148.672 155.757 147.564C156.046 146.456 156.768 141.835 156.285 139.853C155.905 138.293 155.349 136.557 155.047 136.043C154.86 135.725 154.638 135.428 154.386 135.157C154.386 135.157 153.512 133.751 150.839 133.38C148.166 133.009 146.258 132.572 143.687 133.874C141.117 135.175 138.252 137.03 136.154 137.219C134.056 137.408 131.026 137.442 130.289 137.06C129.552 136.679 128.057 137.649 128.37 138.891C128.683 140.133 130.811 142.906 133.753 142.468C136.695 142.03 138.343 141.725 139.79 143.052C141.238 144.379 141.373 146.58 141.317 149.3C141.262 152.021 141.133 156.33 141.172 157.063C141.211 157.797 141.427 159.793 142.803 159.866Z" fill="#515A60"/>
</g>
<g style="mix-blend-mode:multiply" opacity="0.2">
<path d="M144.776 159.306C145.052 158.941 145.219 158.506 145.26 158.05L145.885 146.239C145.799 146.002 145.658 145.842 145.49 145.819L144.776 159.306Z" fill="#515A60"/>
</g>
<g style="mix-blend-mode:multiply" opacity="0.2">
<path d="M150.546 150.64C150.767 150.145 150.934 149.629 151.045 149.098L151.203 146.108C151.172 146.02 151.119 145.943 151.049 145.882C150.979 145.821 150.895 145.78 150.804 145.762L150.546 150.64Z" fill="#515A60"/>
</g>
<path d="M124.473 184.854C124.247 185.172 124.034 185.315 123.92 185.085C123.85 184.945 124.125 184.889 124.473 184.854Z" fill="#DBF0FD"/>
<path d="M64.6792 158.787H64.7659V158.968L64.6792 158.787Z" fill="#3F9BD6"/>
<path d="M82.5534 181.143L103.254 218.749C103.254 218.749 102.635 219.969 101.839 221.46C101.043 222.952 99.1063 224.374 99.1063 224.374C98.8146 223.994 98.4621 223.665 98.0633 223.401C97.7977 223.204 97.5162 223.029 97.2219 222.879C96.9411 223.257 96.6244 223.607 96.2762 223.924L95.8312 224.3C95.8184 223.847 95.6799 223.407 95.4313 223.028L95.0593 222.607C95.0593 222.607 94.6143 222.931 94.0163 223.429C93.8059 223.617 93.5722 223.778 93.3209 223.907C93.2627 223.938 93.2008 223.961 93.1367 223.976C93.1367 223.976 93.2618 223.502 92.6638 223.081C92.0658 222.659 91.1236 222.108 89.4131 219.969C87.7025 217.829 81.8128 208.067 81.3643 198.585C81.041 191.956 81.8546 185.182 82.5534 181.143Z" fill="#4D9BE2"/>
<path d="M92.8864 224.374H92.9392C92.9317 224.38 92.9224 224.383 92.9128 224.383C92.9032 224.383 92.8938 224.38 92.8864 224.374Z" fill="#515A60"/>
<path d="M77.0793 227.601H76.9935L76.9626 227.598L77.0793 227.601Z" fill="#515A60"/>
<path d="M113.53 70.3614C113.46 70.2754 113.378 70.2001 113.287 70.1377L113.53 70.3614Z" fill="#2E98D5"/>
<path d="M113.53 70.3614C113.46 70.2754 113.378 70.2001 113.287 70.1377L113.53 70.3614Z" fill="#DBF0FD"/>
<g opacity="0.33">
<path opacity="0.33" d="M113.53 70.3614C113.46 70.2754 113.378 70.2001 113.287 70.1377L113.53 70.3614Z" fill="#535C62"/>
</g>
<g opacity="0.33">
<path opacity="0.33" d="M113.767 70.7061L113.534 70.7087L113.53 70.3604C113.629 70.4605 113.709 70.5776 113.767 70.7061Z" fill="#535C62"/>
</g>
<path d="M113.77 70.7235L113.534 70.7262L113.53 70.3604C113.631 70.4691 113.712 70.5958 113.767 70.734L113.77 70.7235Z" fill="#E6F4FD"/>
<path d="M113.53 70.3614C113.46 70.2754 113.378 70.2001 113.287 70.1377L113.53 70.3614Z" fill="#E6F4FD"/>
<g opacity="0.3">
<path opacity="0.3" d="M143.372 53.4212C143.319 55.5539 142.92 59.049 142.383 63.0265C142.361 63.18 142.342 63.3335 142.319 63.4871C139.944 71.0352 132.407 76.6943 123.907 80.5039C116.424 83.8527 113.751 83.437 113.751 83.437C113.751 83.437 111.085 83.913 103.529 80.7341C94.9284 77.1142 87.2666 71.6164 84.7304 64.1132C84.2432 60.9834 83.8326 58.1732 83.5963 56.016C83.5256 55.2922 83.4697 54.6518 83.4427 54.0982C83.1167 47.347 82.262 39.6612 89.3666 34.5226C96.4712 29.384 106.66 25.6946 109.984 25.232C111.598 25.0048 112.415 24.8945 112.856 24.8303L113.325 24.825C113.75 24.8794 114.583 24.9711 116.199 25.1618C119.532 25.5562 129.808 29.0318 137.018 33.9843C144.229 38.9368 143.557 46.6747 143.372 53.4212Z" fill="#525B61"/>
<path opacity="0.3" d="M83.9053 56.9849C82.1624 56.1229 80.5889 54.9533 79.2603 53.5322C77.1469 51.2217 75.382 48.9594 76.0893 47.1849C76.7966 45.4104 79.2661 43.7833 81.0401 42.5089C82.8142 41.2345 85.3985 40.5503 85.3985 40.5503C85.3985 40.5503 83.8775 49.5185 84.0258 52.5098C84.174 55.5011 83.9053 56.9849 83.9053 56.9849Z" fill="#525B61"/>
<path opacity="0.3" d="M142.773 51.8493C142.854 48.8554 141.133 39.9238 141.133 39.9238C141.133 39.9238 143.729 40.5495 145.534 41.7835C147.34 43.0174 149.849 44.5883 150.589 46.3465C151.328 48.1046 149.639 50.4059 147.56 52.7638C146.264 54.2145 144.717 55.4193 142.994 56.3205C142.994 56.3205 142.692 54.8396 142.773 51.8493Z" fill="#525B61"/>
</g>
<path d="M83.8744 54.2036C82.1315 53.3417 80.5582 52.1721 79.2297 50.7511C77.1165 48.4371 75.3517 46.1749 76.0591 44.4003C76.7664 42.6258 79.2358 41.0019 81.0099 39.7275C82.7839 38.453 85.3682 37.7687 85.3682 37.7687C85.3682 37.7687 83.8468 46.7371 83.9949 49.7249C84.143 52.7128 83.8744 54.2036 83.8744 54.2036Z" fill="#4D9BE2"/>
<path d="M83.7633 44.315C83.7633 44.315 81.83 43.7689 80.6622 43.8657C79.4945 43.9625 79.0721 44.4551 79.1139 45.3953C79.1476 46.4408 79.5396 47.4428 80.224 48.2328C81.0317 49.2201 82.0885 50.0896 82.7184 50.1139C83.3483 50.1381 83.8187 49.2757 83.8187 49.2757L83.7633 44.315Z" fill="#DBF0FD"/>
<g opacity="0.18">
<path opacity="0.18" d="M79.2378 44.6269C81.0686 44.683 81.4914 45.4586 81.975 46.3868C82.3805 47.1696 82.5191 49.2827 82.556 50.094C82.6034 50.1094 82.6527 50.1182 82.7025 50.1202C83.329 50.1445 83.803 49.2822 83.803 49.2822L83.7471 44.3149C83.7471 44.3149 81.8134 43.7688 80.6454 43.8655C79.8771 43.9229 79.4381 44.1752 79.2378 44.6269Z" fill="#535C62"/>
</g>
<g style="mix-blend-mode:multiply" opacity="0.16">
<path d="M75.9725 44.6605C77.3289 44.2509 78.7251 43.9876 80.1373 43.8749C81.2092 43.8243 82.2824 43.9379 83.32 44.2117L84.4842 42.2583L84.9312 40.5533C85.1774 38.9377 85.3733 37.7894 85.3733 37.7894C85.3733 37.7894 82.7932 38.47 81.0163 39.7441C79.2394 41.0182 76.7603 42.6416 76.0637 44.4156C76.0228 44.4962 75.9924 44.5766 75.9725 44.6605Z" fill="#515A60"/>
</g>
<path d="M142.743 49.0648C142.824 46.0743 141.103 37.1426 141.103 37.1426C141.103 37.1426 143.698 37.7648 145.504 39.0023C147.31 40.2397 149.818 41.8037 150.558 43.5619C151.298 45.32 149.608 47.6213 147.53 49.9828C146.233 51.4335 144.686 52.6384 142.963 53.5396C142.963 53.5396 142.661 52.0587 142.743 49.0648Z" fill="#4D9BE2"/>
<g style="mix-blend-mode:multiply" opacity="0.4">
<path d="M142.743 49.0648C142.824 46.0743 141.103 37.1426 141.103 37.1426C141.103 37.1426 143.698 37.7648 145.504 39.0023C147.31 40.2397 149.818 41.8037 150.558 43.5619C151.298 45.32 149.608 47.6213 147.53 49.9828C146.233 51.4335 144.686 52.6384 142.963 53.5396C142.963 53.5396 142.661 52.0587 142.743 49.0648Z" fill="#4D9BE2"/>
</g>
<path d="M142.909 48.6103C142.909 48.6103 143.402 49.4618 144.028 49.4234C144.654 49.3849 145.694 48.4917 146.48 47.4864C147.146 46.6811 147.516 45.6705 147.526 44.6245C147.547 43.6836 147.117 43.2042 145.947 43.1303C144.778 43.0564 142.854 43.6495 142.854 43.6495L142.909 48.6103Z" fill="#DBF0FD"/>
<g opacity="0.18">
<g style="mix-blend-mode:multiply" opacity="0.18">
<path d="M145.944 43.1308C144.775 43.0604 142.854 43.6498 142.854 43.6498L142.909 48.617C142.909 48.617 143.403 49.4685 144.028 49.4301L144.046 49.4299C144.096 49.4268 144.145 49.4169 144.192 49.4004C144.21 48.5885 144.301 46.4728 144.689 45.6811C145.152 44.7423 145.557 43.9574 147.386 43.8602C147.179 43.4131 146.731 43.1708 145.944 43.1308Z" fill="#525B61"/>
</g>
</g>
<g style="mix-blend-mode:multiply" opacity="0.16">
<path d="M150.564 43.5773C149.828 41.8195 147.309 40.249 145.508 39.0188C143.706 37.7886 141.108 37.1631 141.108 37.1631C141.108 37.1631 141.33 38.3066 141.612 39.9163L142.097 41.6107L143.305 43.5373C144.336 43.2402 145.406 43.1024 146.479 43.1287C147.893 43.2095 149.295 43.4412 150.66 43.82C150.625 43.7368 150.596 43.657 150.564 43.5773Z" fill="#3583B9"/>
</g>
<path d="M113.878 23.0037L114.601 80.7966L114.365 81.39C114.272 81.3911 114.125 81.3927 113.924 81.395L113.802 81.3964L113.572 81.3815L113.534 81.382C112.19 81.2856 109.329 80.7882 104.276 78.6742C98.7152 76.3359 93.5427 73.2196 89.9086 69.2602L89.7114 69.0429C89.0677 68.3316 88.4691 67.5807 87.9192 66.7946C87.852 66.7012 87.7883 66.6044 87.7247 66.511C87.3214 65.9169 86.951 65.301 86.6152 64.6662C86.3984 64.2505 86.1989 63.8311 86.0133 63.4045C85.8668 63.0577 85.7307 62.7108 85.6087 62.3811C85.5305 62.1638 85.4744 61.9391 85.4412 61.7105C85.0891 59.4738 84.784 57.3899 84.5623 55.6118C84.4897 55.0237 84.4243 54.4669 84.3733 53.9517C84.3026 53.2347 84.2467 52.5906 84.2196 52.0334C83.89 45.2838 83.0385 37.5958 90.1431 32.4699C97.2476 27.3441 107.436 23.6401 110.76 23.1775L113.57 23.0521C113.659 23.0458 113.789 22.9994 113.878 23.0037Z" fill="#4D9BE2"/>
<path d="M143.267 51.4125C143.253 51.9702 143.211 52.6154 143.157 53.3338C143.117 53.85 143.064 54.4081 143.005 54.9977C142.823 56.7874 142.572 58.881 142.249 61.1149C142.221 61.3442 142.17 61.5701 142.097 61.7891C141.982 62.1389 141.854 62.4888 141.715 62.8214C141.539 63.252 141.349 63.6758 141.142 64.0963C140.821 64.7373 140.466 65.3602 140.077 65.9621C140.005 66.0744 139.934 66.1867 139.858 66.2956C139.324 67.0918 138.74 67.8537 138.11 68.5769C134.552 72.6905 129.386 75.993 123.793 78.4952C120.155 80.1148 117.656 80.8538 116.045 81.1856C115.795 81.2372 115.566 81.2781 115.351 81.3119C115.136 81.3457 114.861 81.3836 114.656 81.4033L114.43 81.4233L114.378 81.4239L114.257 81.4253L114.145 81.4265C113.944 81.4288 113.797 81.4304 113.704 81.4315L113.62 81.4324L112.963 22.8243L113.046 22.8234C113.136 22.817 113.225 22.816 113.314 22.8203L116.059 23.1379C119.388 23.529 129.668 27.0024 136.878 31.9634C144.089 36.9245 143.456 44.6571 143.267 51.4125Z" fill="#4D9BE2"/>
<g style="mix-blend-mode:multiply" opacity="0.4">
<path d="M143.267 51.4125C143.252 51.9702 143.211 52.6154 143.156 53.3338C143.117 53.85 143.064 54.4081 143.004 54.9977C142.823 56.7874 142.571 58.881 142.248 61.1149C142.22 61.3442 142.169 61.5701 142.096 61.7891C141.982 62.1389 141.853 62.4888 141.715 62.8214C141.539 63.252 141.348 63.6758 141.141 64.0963C140.821 64.7373 140.465 65.3602 140.077 65.9621C140.005 66.0744 139.933 66.1867 139.858 66.2956C139.323 67.0918 138.739 67.8537 138.109 68.5769C134.552 72.6905 129.385 75.993 123.792 78.4952C120.155 80.1148 117.655 80.8538 116.045 81.1856C115.795 81.2372 115.566 81.2781 115.35 81.3119C115.135 81.3457 114.861 81.3836 114.656 81.4034L114.43 81.4233L114.378 81.4239L114.256 81.4253L114.145 81.4265C113.943 81.4288 113.797 81.4304 113.703 81.4315L113.62 81.4324L112.962 22.8243L113.046 22.8234C113.135 22.817 113.224 22.816 113.314 22.8203L116.058 23.1379C119.388 23.529 129.667 27.0024 136.878 31.9634C144.089 36.9245 143.455 44.6571 143.267 51.4125Z" fill="#4D9BE2"/>
</g>
<path d="M113.002 22.8235L113.66 81.449L113.527 81.4505C113.433 81.4516 113.287 81.4532 113.086 81.4555L112.964 81.4569L112.734 81.442L112.696 81.4425C111.352 81.3461 108.491 80.8487 103.437 78.7347C97.8771 76.3964 92.7046 73.2801 89.0705 69.3207L88.8732 69.1034C88.2296 68.3921 87.631 67.6412 87.081 66.855C87.0139 66.7617 86.9502 66.6649 86.8865 66.5715C86.4832 65.9774 86.1129 65.3615 85.7771 64.7267C85.5603 64.311 85.3608 63.8916 85.1751 63.465C85.0286 63.1182 84.8925 62.7713 84.7706 62.4416C84.6924 62.2243 84.6362 61.9996 84.603 61.771C84.251 59.5343 83.9459 57.4504 83.7242 55.6722C83.6515 55.0842 83.5861 54.5273 83.5351 54.0122C83.4645 53.2951 83.4086 52.6511 83.3814 52.0939C83.0518 45.3443 82.2004 37.6563 89.3049 32.5304C96.4094 27.4046 106.598 23.7006 109.921 23.238L112.658 22.8587C112.747 22.8524 112.838 22.8305 112.924 22.817L113.002 22.8235Z" fill="#4D9BE2"/>
<path d="M114.578 53.1897L114.893 81.2563L114.757 81.2578C114.663 81.2589 114.517 81.2605 114.316 81.2628L114.194 81.2642L113.964 81.2494L113.926 81.2498C112.582 81.1534 109.721 80.656 104.669 78.5422C99.1092 76.2041 93.9374 73.0881 90.3039 69.129L90.1067 68.9117C89.4631 68.2005 88.8646 67.4496 88.3147 66.6635C90.4947 62.5762 94.3778 59.3268 98.8554 56.9836C107.683 52.3545 114.387 53.171 114.582 53.1966L114.578 53.1897Z" fill="#DBF0FD"/>
<path d="M113.346 53.3831L113.661 81.4497L113.525 81.4512C113.431 81.4523 113.285 81.4539 113.084 81.4562L112.962 81.4575L112.732 81.4427L112.694 81.4432C111.35 81.3468 108.489 80.8494 103.437 78.7355C97.8772 76.3974 92.7054 73.2814 89.0718 69.3223L88.8746 69.105C88.231 68.3938 87.6325 67.643 87.0826 66.8569C89.2626 62.7695 93.1458 59.5202 97.6233 57.177C106.45 52.5478 113.155 53.3643 113.35 53.39L113.346 53.3831Z" fill="#DBF0FD"/>
<path d="M139.871 66.2971C139.336 67.0932 138.753 67.8551 138.123 68.5781C134.566 72.6914 129.4 75.9936 123.808 78.4956C120.171 80.115 117.672 80.854 116.062 81.1858C115.812 81.2373 115.583 81.2783 115.367 81.312C115.152 81.3458 114.881 81.3802 114.673 81.4035L114.447 81.4235L114.395 81.424L114.273 81.4254L114.162 81.4267C113.96 81.4289 113.814 81.4306 113.72 81.4316L113.609 81.4329L113.294 53.3837L113.347 53.3831C113.979 53.2994 120.502 52.5638 129.105 56.8224C133.638 59.064 137.607 62.2389 139.871 66.2971Z" fill="#CCE9FC"/>
<g opacity="0.5">
<path opacity="0.5" d="M121.746 62.5735C121.817 62.5727 121.886 62.5433 121.936 62.4918C121.987 62.4402 122.015 62.3708 122.014 62.2988C122.013 62.2267 121.984 62.1579 121.932 62.1076C121.881 62.0572 121.811 62.0293 121.739 62.0301C121.667 62.031 121.599 62.0604 121.548 62.1119C121.498 62.1634 121.47 62.2328 121.471 62.3049C121.472 62.3769 121.501 62.4457 121.553 62.4961C121.604 62.5465 121.674 62.5743 121.746 62.5735Z" fill="#525B61"/>
</g>
<g opacity="0.5">
<path opacity="0.5" d="M123.047 61.402C123.096 61.4022 123.144 61.3876 123.185 61.3602C123.226 61.3329 123.257 61.2939 123.276 61.2484C123.295 61.2028 123.299 61.1528 123.289 61.1046C123.279 61.0564 123.255 61.0123 123.22 60.9778C123.185 60.9434 123.14 60.9203 123.092 60.9114C123.044 60.9025 122.994 60.9083 122.949 60.928C122.904 60.9476 122.865 60.9803 122.839 61.0218C122.813 61.0633 122.799 61.1117 122.8 61.1609C122.801 61.2256 122.828 61.2873 122.874 61.3326C122.92 61.3778 122.982 61.4028 123.047 61.402Z" fill="#525B61"/>
</g>
<g opacity="0.5">
<path opacity="0.5" d="M123.098 59.1397C123.142 59.1399 123.186 59.1267 123.224 59.1019C123.261 59.077 123.29 59.0415 123.307 59C123.324 58.9585 123.329 58.9128 123.32 58.8688C123.311 58.8247 123.29 58.7843 123.258 58.7527C123.226 58.721 123.185 58.6995 123.141 58.691C123.097 58.6825 123.052 58.6873 123.01 58.7048C122.969 58.7223 122.934 58.7517 122.909 58.7893C122.885 58.8268 122.872 58.8709 122.872 58.9158C122.873 58.9753 122.897 59.0321 122.939 59.074C122.981 59.1159 123.038 59.1395 123.098 59.1397Z" fill="#525B61"/>
</g>
<g opacity="0.5">
<path opacity="0.5" d="M124.033 60.0567C124.093 60.0561 124.15 60.0316 124.192 59.9886C124.234 59.9457 124.258 59.8878 124.257 59.8278C124.256 59.7677 124.232 59.7104 124.189 59.6684C124.146 59.6264 124.088 59.6032 124.028 59.6039C123.968 59.6046 123.911 59.6291 123.869 59.672C123.827 59.715 123.804 59.7728 123.805 59.8329C123.805 59.8929 123.83 59.9502 123.873 59.9922C123.916 60.0342 123.973 60.0574 124.033 60.0567Z" fill="#525B61"/>
</g>
<g opacity="0.5">
<path opacity="0.5" d="M105.277 62.7591C105.33 62.7585 105.383 62.7419 105.427 62.7116C105.471 62.6812 105.506 62.6384 105.526 62.5885C105.545 62.5387 105.55 62.484 105.539 62.4314C105.528 62.3788 105.502 62.3307 105.463 62.2931C105.425 62.2555 105.376 62.2302 105.324 62.2203C105.271 62.2104 105.216 62.2164 105.167 62.2375C105.118 62.2587 105.076 62.294 105.046 62.339C105.017 62.384 105.002 62.4367 105.002 62.4904C105.003 62.5625 105.033 62.6313 105.084 62.6817C105.135 62.732 105.205 62.7599 105.277 62.7591Z" fill="#525B61"/>
</g>
<g opacity="0.5">
<path opacity="0.5" d="M103.932 61.6168C103.981 61.6163 104.029 61.6011 104.069 61.5734C104.109 61.5456 104.141 61.5064 104.159 61.4608C104.177 61.4152 104.181 61.3652 104.171 61.3173C104.16 61.2693 104.136 61.2255 104.101 61.1915C104.065 61.1574 104.021 61.1346 103.973 61.126C103.924 61.1174 103.875 61.1234 103.83 61.1431C103.785 61.1629 103.747 61.1956 103.721 61.237C103.695 61.2784 103.681 61.3267 103.682 61.3758C103.683 61.4081 103.69 61.44 103.702 61.4697C103.715 61.4994 103.734 61.5262 103.757 61.5486C103.78 61.5711 103.808 61.5886 103.838 61.6003C103.868 61.6121 103.9 61.6177 103.932 61.6168Z" fill="#525B61"/>
</g>
<g opacity="0.5">
<path opacity="0.5" d="M103.834 59.3556C103.879 59.355 103.922 59.3413 103.959 59.316C103.996 59.2907 104.024 59.255 104.041 59.2134C104.058 59.1719 104.062 59.1263 104.053 59.0825C104.043 59.0386 104.021 58.9985 103.989 58.9672C103.957 58.9359 103.917 58.9148 103.873 58.9066C103.829 58.8983 103.784 58.9033 103.742 58.9209C103.701 58.9385 103.666 58.968 103.642 59.0055C103.617 59.043 103.605 59.0869 103.605 59.1317C103.606 59.1917 103.63 59.2491 103.673 59.291C103.716 59.333 103.774 59.3562 103.834 59.3556Z" fill="#525B61"/>
</g>
<g opacity="0.5">
<path opacity="0.5" d="M102.923 60.2931C102.967 60.2926 103.011 60.2788 103.048 60.2535C103.085 60.2282 103.113 60.1925 103.13 60.1509C103.147 60.1094 103.151 60.0638 103.141 60.02C103.132 59.9762 103.11 59.9361 103.078 59.9047C103.046 59.8734 103.006 59.8523 102.962 59.8441C102.918 59.8358 102.872 59.8408 102.831 59.8584C102.79 59.876 102.755 59.9055 102.731 59.943C102.706 59.9805 102.694 60.0244 102.694 60.0692C102.695 60.1292 102.719 60.1866 102.762 60.2286C102.805 60.2705 102.863 60.2937 102.923 60.2931Z" fill="#525B61"/>
</g>
<path d="M103.953 61.4885C102.783 61.4779 101.613 61.5388 100.45 61.6708C99.297 61.8023 98.141 61.9825 96.9786 62.2116C94.6843 62.6839 92.4392 63.3704 90.2728 64.2623C89.1954 64.7142 88.1414 65.2202 87.1149 65.7785C86.8521 65.9138 86.6035 66.0699 86.3477 66.2121C86.092 66.3543 85.8364 66.507 85.5913 66.6665L84.8451 67.1104L84.1311 67.627C83.8895 67.79 83.6517 67.9808 83.4171 68.1471C83.1825 68.3135 82.9411 68.5009 82.7276 68.6844C82.2729 69.0693 81.804 69.4264 81.3739 69.8388C80.487 70.6377 79.6477 71.4882 78.8605 72.3858C79.6397 71.48 80.4731 70.6225 81.3563 69.8181C81.7828 69.4022 82.2517 69.0381 82.7029 68.6533C82.9303 68.4662 83.1719 68.2997 83.3923 68.1091C83.6127 67.9185 83.8613 67.7555 84.1027 67.5786L84.8308 67.0722L85.5731 66.5936C85.8216 66.4305 86.0773 66.2813 86.3294 66.1322C86.5816 65.983 86.8337 65.8269 87.093 65.6916C88.123 65.1273 89.179 64.6137 90.2611 64.151C92.4265 63.2424 94.6728 62.5406 96.9699 62.0549C98.1148 61.8121 99.2741 61.6249 100.441 61.4898C101.611 61.3443 102.789 61.2717 103.968 61.2724C103.989 61.2828 104.007 61.2997 104.017 61.3206C104.029 61.3421 104.035 61.3658 104.036 61.3901C104.039 61.4002 104.039 61.4112 104.036 61.4214C104.039 61.4317 104.039 61.4424 104.036 61.4528C104.029 61.4627 104.019 61.4711 104.009 61.4775C103.992 61.4873 103.972 61.4912 103.953 61.4885Z" fill="#525B61"/>
<path d="M103.801 59.191C103.083 58.6139 102.283 58.1465 101.428 57.8041C101.323 57.76 101.218 57.709 101.113 57.6684L100.792 57.5536L100.146 57.3206C99.7103 57.2002 99.2741 57.0624 98.8313 56.9594C98.3885 56.8565 97.9494 56.7674 97.5 56.6924L96.1593 56.516C95.2636 56.4402 94.3673 56.4074 93.4703 56.4175L92.469 56.4288L92.1216 56.4571L90.7841 56.5662C90.3365 56.5955 89.8912 56.6528 89.4508 56.7379L88.1247 56.9339C87.2505 57.1213 86.3728 57.3018 85.5022 57.4996L82.9163 58.2252L85.4953 57.4997C86.3622 57.2915 87.2294 57.1041 88.1139 56.9061L89.4399 56.6962C89.8843 56.6355 90.3213 56.54 90.773 56.5106L92.1139 56.391L92.4613 56.3592L93.5043 56.3475C94.4046 56.3258 95.3054 56.3494 96.2034 56.418L97.5544 56.5838C98.0038 56.6519 98.4535 56.7548 98.896 56.8368C99.3385 56.9189 99.7853 57.0705 100.225 57.1875L100.881 57.4168L101.206 57.5315C101.314 57.5721 101.419 57.6232 101.527 57.6672C102.409 58.008 103.235 58.48 103.977 59.0672C103.977 59.0672 104.019 59.1119 103.957 59.1858C103.958 59.2065 103.95 59.2267 103.936 59.2419C103.922 59.2571 103.903 59.266 103.882 59.2667C103.861 59.2674 103.841 59.2598 103.826 59.2456C103.811 59.2314 103.802 59.2118 103.801 59.191Z" fill="#525B61"/>
<path d="M105.321 62.5893C103.781 62.9877 102.276 63.5079 100.818 64.1452C99.3462 64.778 97.9246 65.5219 96.5654 66.3706C95.8747 66.7999 95.219 67.2498 94.5812 67.7413C93.9334 68.2253 93.3112 68.7428 92.7172 69.2917C91.5128 70.399 90.435 71.6369 89.5035 72.9827C90.4209 71.6239 91.487 70.372 92.6819 69.2503C93.2731 68.6991 93.8917 68.1782 94.5354 67.6895C95.1697 67.1946 95.8357 66.7307 96.5087 66.2737C97.8626 65.4055 99.2805 64.6418 100.75 63.9892C102.211 63.3279 103.723 62.7854 105.27 62.3669C105.27 62.3669 105.333 62.3662 105.362 62.4565C105.373 62.4796 105.375 62.5062 105.368 62.5309C105.36 62.5556 105.344 62.5765 105.321 62.5893Z" fill="#525B61"/>
<path d="M102.905 60.1687C101.992 60.0363 101.071 59.9699 100.149 59.9699C99.2299 59.9564 98.3111 59.99 97.3958 60.0706C95.5643 60.2264 93.7449 60.5017 91.9492 60.8946L90.6105 61.2092C90.1595 61.3083 89.723 61.4491 89.2793 61.5725C88.3917 61.8019 87.5257 62.1007 86.6491 62.3857C86.2125 62.5194 85.7832 62.688 85.3504 62.8496L84.0588 63.3343L81.522 64.4076C82.3629 64.0499 83.2036 63.6643 84.0515 63.31L85.336 62.8114C85.7653 62.6429 86.1946 62.4709 86.6312 62.3336C87.5041 62.0382 88.3631 61.7325 89.2575 61.4926C89.7012 61.3692 90.1377 61.225 90.5852 61.1294L91.9238 60.8009C93.72 60.3866 95.5416 60.0916 97.3767 59.9175C98.2973 59.841 99.2181 59.7854 100.157 59.7922C101.088 59.7818 102.018 59.84 102.941 59.9663C102.941 59.9663 103 59.9865 102.998 60.084C102.995 60.1816 102.905 60.1687 102.905 60.1687Z" fill="#525B61"/>
<path d="M123.075 61.2753C124.245 61.2383 125.416 61.2728 126.581 61.3786C127.742 61.4839 128.903 61.6381 130.064 61.841C132.364 62.261 134.619 62.8969 136.8 63.7403C137.893 64.1662 138.964 64.6471 140.009 65.1811C140.268 65.3106 140.523 65.461 140.782 65.5974C141.041 65.7339 141.3 65.8807 141.548 66.0347L142.305 66.4895L143.044 66.9758C143.292 67.1333 143.535 67.3187 143.773 67.4797C144.011 67.6407 144.253 67.8226 144.474 68.0013C144.937 68.3758 145.411 68.7223 145.853 69.1249C146.759 69.9027 147.617 70.7341 148.423 71.6146C147.623 70.7274 146.771 69.889 145.871 69.1038C145.431 68.6977 144.958 68.3442 144.498 67.9697C144.263 67.7877 144.021 67.6267 143.797 67.4411C143.572 67.2555 143.316 67.0982 143.068 66.9268L142.332 66.4369L141.576 65.9752C141.33 65.8177 141.071 65.6743 140.812 65.5309C140.554 65.3875 140.301 65.2371 140.039 65.1076C138.997 64.5624 137.927 64.0722 136.834 63.6389C134.651 62.7792 132.392 62.1282 130.087 61.6944C128.926 61.4776 127.77 61.3129 126.604 61.2076C125.43 61.0884 124.249 61.0424 123.069 61.0698C123.05 61.0818 123.035 61.0988 123.025 61.1191C123.018 61.1418 123.018 61.1661 123.025 61.1887C123.021 61.1976 123.018 61.2074 123.019 61.2173C123.019 61.2273 123.022 61.237 123.026 61.2456C123.031 61.2542 123.038 61.2615 123.047 61.2667C123.055 61.2718 123.065 61.2748 123.075 61.2753Z" fill="#525B61"/>
<path d="M123.158 58.9743C123.864 58.3826 124.653 57.8975 125.5 57.5343C125.607 57.4878 125.707 57.4344 125.814 57.3914L126.133 57.2695L126.77 57.022C127.207 56.8918 127.64 56.7441 128.076 56.6313C128.513 56.5184 128.961 56.4193 129.401 56.3343L130.738 56.1277C131.63 56.0306 132.53 55.9787 133.427 55.9686L134.439 55.9572L134.787 55.9776L136.13 56.0565C136.577 56.0762 137.022 56.1235 137.464 56.1982L138.797 56.3642C139.672 56.5319 140.54 56.6927 141.428 56.8707L144.03 57.5378L141.435 56.8707C140.56 56.6821 139.693 56.5143 138.807 56.3362L137.474 56.1563C137.028 56.1056 136.585 56.02 136.14 56.0007L134.793 55.9114L134.445 55.8875L133.427 55.899C132.524 55.8976 131.621 55.9414 130.723 56.0304L129.376 56.2267C128.932 56.3048 128.488 56.4177 128.04 56.5098C127.593 56.6019 127.16 56.7635 126.723 56.8902L126.076 57.1343L125.75 57.2564C125.643 57.2994 125.536 57.3528 125.435 57.3992C124.561 57.759 123.746 58.2495 123.018 58.854C123.005 58.8714 122.999 58.8921 122.999 58.9134C122.999 58.9347 123.006 58.9553 123.019 58.9724C123.065 59.045 123.158 58.9743 123.158 58.9743Z" fill="#525B61"/>
<path d="M121.743 62.4048C123.291 62.7689 124.808 63.255 126.28 63.8587C127.763 64.4588 129.198 65.1705 130.574 65.9879C131.274 66.4015 131.936 66.8365 132.592 67.3134C133.248 67.7839 133.879 68.2873 134.483 68.8216C135.715 69.8996 136.822 71.1131 137.783 72.4392C136.834 71.1013 135.739 69.8738 134.518 68.7794C133.917 68.236 133.289 67.7233 132.637 67.2433C131.984 66.7628 131.315 66.314 130.625 65.8723C129.253 65.0356 127.819 64.304 126.337 63.6839C124.862 63.0557 123.338 62.5474 121.782 62.1639C121.782 62.1639 121.719 62.1646 121.692 62.2555C121.682 62.2824 121.682 62.3119 121.691 62.3391C121.7 62.3662 121.718 62.3894 121.743 62.4048Z" fill="#525B61"/>
<path d="M124.097 59.9312C125.004 59.7783 125.921 59.6912 126.841 59.6704C127.768 59.6361 128.697 59.6488 129.623 59.7087C131.457 59.8235 133.28 60.0577 135.083 60.4099L136.432 60.6942C136.878 60.7832 137.321 60.914 137.764 61.0274C138.66 61.2367 139.536 61.5159 140.416 61.7811C140.859 61.9049 141.292 62.0637 141.721 62.2156L143.023 62.6711L145.587 63.6869C144.738 63.3483 143.889 62.9817 143.033 62.6466L141.734 62.1772C141.305 62.0183 140.872 61.856 140.429 61.7287C139.553 61.453 138.684 61.1668 137.784 60.9471C137.341 60.8337 136.902 60.6993 136.452 60.6138L135.107 60.3156C133.301 59.9434 131.474 59.6906 129.635 59.5589C128.717 59.503 127.795 59.4682 126.853 59.4962C125.922 59.5066 124.993 59.5858 124.074 59.733C124.074 59.733 124.018 59.7545 124.019 59.852C124.021 59.9495 124.097 59.9312 124.097 59.9312Z" fill="#525B61"/>
<g opacity="0.33">
<path opacity="0.33" d="M119.882 53.3079C119.045 52.7845 117.211 51.778 115.481 51.6167C114.534 51.5196 113.914 51.471 113.542 51.4439L113.541 51.4125L113.1 51.4176L113.1 51.4489C112.728 51.4845 112.106 51.5474 111.165 51.6661C109.429 51.8776 107.628 52.9257 106.803 53.4576C106.391 53.717 106.087 54.1162 105.946 54.582C105.805 55.0468 105.834 55.5464 106.027 55.9917C106.431 56.9867 109.129 59.4392 110.245 60.0151C111.155 60.4749 112.816 60.4175 113.411 60.3794C114.013 60.4038 115.675 60.4231 116.571 59.9426C117.681 59.3517 120.324 56.8276 120.699 55.8237C120.884 55.381 120.906 54.8869 120.76 54.4298C120.612 53.9622 120.3 53.5639 119.882 53.3079Z" fill="#535C62"/>
</g>
<path d="M110.983 53.4485C111.376 53.6821 111.808 53.8425 112.258 53.922C112.618 53.9846 112.982 54.0212 113.347 54.0316L113.412 59.8046C112.804 59.8428 111.107 59.9003 110.177 59.4438C109.033 58.8783 106.276 56.4111 105.865 55.4191C105.667 54.9726 105.638 54.4693 105.783 54.0029C105.928 53.5365 106.237 53.1388 106.653 52.884C107.499 52.3414 109.348 51.2926 111.109 51.0916C112.072 50.9762 112.707 50.9133 113.089 50.8777L113.089 50.8498L113.312 50.8473L113.32 51.572C113.32 51.572 111.512 51.6516 110.747 52.2421C109.981 52.8326 110.983 53.4485 110.983 53.4485Z" fill="#525B61"/>
<path d="M110.983 53.4485C111.376 53.6821 111.808 53.8425 112.258 53.922C112.618 53.9846 113.304 53.9982 113.67 54.0086L113.613 59.706C113.005 59.7443 111.107 59.9002 110.177 59.4438C109.033 58.8783 106.276 56.411 105.865 55.4191C105.667 54.9726 105.638 54.4692 105.783 54.0029C105.928 53.5365 106.237 53.1388 106.653 52.884C107.499 52.3414 109.348 51.2926 111.109 51.0916C112.072 50.9762 112.707 50.9133 113.089 50.8777L113.089 50.8498L113.496 50.8756L113.592 51.4925C113.592 51.4925 111.512 51.6515 110.747 52.2421C109.981 52.8326 110.983 53.4485 110.983 53.4485Z" fill="#525B61"/>
<path d="M120.861 55.25C120.473 56.2509 117.771 58.7691 116.64 59.3707C115.721 59.8479 114.023 59.8287 113.411 59.8042L113.346 54.0316C112.981 54.0212 112.616 53.9845 112.256 53.9219C111.806 53.8425 111.375 53.6821 110.982 53.4485C110.982 53.4485 109.97 52.8362 110.742 52.2387C111.514 51.6412 113.315 51.5686 113.315 51.5686L113.307 50.8475L113.536 50.8449L113.537 50.8762C113.916 50.9033 114.55 50.9519 115.517 51.0456C117.283 51.2208 119.158 52.2275 120.012 52.737C120.436 52.9814 120.756 53.3723 120.912 53.8362C121.069 54.3002 121.05 54.8054 120.861 55.257L120.861 55.25Z" fill="#525B61"/>
<g opacity="0.4">
<path d="M120.863 55.2909C120.474 56.2917 117.772 58.8098 116.641 59.4115C115.721 59.8888 114.023 59.8699 113.411 59.8455L113.347 54.0706C112.982 54.063 112.617 54.0276 112.257 53.9646C111.807 53.8852 111.375 53.7249 110.982 53.4914C110.982 53.4914 109.97 52.8795 110.743 52.2819C111.515 51.6844 113.316 51.6115 113.316 51.6115L113.308 50.887L113.538 50.8844L113.538 50.9158C113.918 50.9428 114.551 50.9913 115.519 51.0847C117.285 51.2596 119.16 52.2658 120.014 52.7751C120.434 53.0189 120.751 53.4066 120.907 53.8666C121.063 54.3265 121.047 54.8276 120.863 55.277L120.863 55.2909Z" fill="#525B61"/>
<g style="mix-blend-mode:multiply" opacity="0.2">
<path d="M120.863 55.2909C120.474 56.2917 117.772 58.8098 116.641 59.4115C115.721 59.8888 114.023 59.8699 113.411 59.8455L113.347 54.0705C112.982 54.063 112.617 54.0276 112.257 53.9646C111.807 53.8852 111.375 53.7249 110.982 53.4914C110.982 53.4914 109.97 52.8795 110.743 52.2819C111.515 51.6844 113.316 51.6115 113.316 51.6115L113.308 50.887L113.538 50.8844L113.538 50.9158C113.918 50.9428 114.551 50.9913 115.519 51.0847C117.285 51.2596 119.16 52.2658 120.014 52.7751C120.434 53.0189 120.751 53.4066 120.907 53.8666C121.063 54.3265 121.047 54.8276 120.863 55.277L120.863 55.2909Z" fill="#525B61"/>
</g>
</g>
<path d="M116.371 56.7933C116.324 56.6392 116.322 56.4747 116.366 56.3195C116.406 56.1627 116.49 56.0206 116.608 55.9091C117.02 55.4794 117.452 55.2028 117.752 55.3074C117.819 55.3215 117.882 55.3492 117.937 55.3888C117.993 55.4283 118.04 55.4788 118.075 55.5372C118.111 55.5943 118.135 55.658 118.146 55.7246C118.161 55.791 118.162 55.8598 118.149 55.9266C118.134 56.1095 118.07 56.2849 117.963 56.4339C117.86 56.5869 117.717 56.709 117.55 56.787C117.231 56.9156 116.89 56.9752 116.547 56.9621C116.386 56.8872 116.371 56.7933 116.371 56.7933Z" fill="#6D7780"/>
<path d="M110.388 56.8594C110.432 56.7042 110.43 56.5398 110.383 56.3856C110.338 56.2298 110.251 56.0896 110.131 55.9808C109.706 55.5605 109.272 55.2936 108.974 55.405C108.907 55.4206 108.845 55.4497 108.791 55.4905C108.736 55.5313 108.69 55.5828 108.656 55.642C108.62 55.6992 108.597 55.7637 108.589 55.8309C108.578 55.8979 108.578 55.9663 108.591 56.033C108.613 56.2154 108.682 56.3889 108.792 56.536C108.898 56.6873 109.043 56.8063 109.213 56.8796C109.534 57.001 109.877 57.0529 110.22 57.0321C110.258 57.0169 110.293 56.9937 110.323 56.964C110.352 56.9342 110.374 56.8986 110.388 56.8594Z" fill="#6D7780"/>
<g opacity="0.51">
<path opacity="0.51" d="M115.7 53.3952C115.313 53.638 114.885 53.808 114.437 53.897C114.09 53.9566 113.819 53.991 113.635 54.0105C113.54 54.0227 113.444 54.0238 113.349 54.0137C112.984 54.0062 112.62 53.9707 112.26 53.9076C111.81 53.8282 111.378 53.6679 110.985 53.4344C110.985 53.4344 109.973 52.8225 110.745 52.2252C111.518 51.628 113.318 51.5555 113.318 51.5555C113.318 51.5555 115.127 51.5943 115.909 52.167C116.691 52.7398 115.7 53.3952 115.7 53.3952Z" fill="white"/>
</g>
<path d="M126.053 62.1469C125.946 62.1661 125.85 62.2262 125.786 62.3146C125.722 62.403 125.695 62.5128 125.711 62.6208C125.711 62.6208 125.441 64.5948 124.381 65.3032C121.893 66.9783 118.766 65.6834 113.8 64.6842C113.695 64.6534 113.585 64.6417 113.476 64.6496C113.368 64.6443 113.26 64.6585 113.157 64.6915C108.217 65.7918 105.117 67.1674 102.588 65.5488C101.52 64.8644 101.196 62.9111 101.199 62.8971C101.207 62.8434 101.204 62.7887 101.19 62.7362C101.177 62.6837 101.152 62.6345 101.119 62.5916C101.053 62.5052 100.957 62.4477 100.85 62.4309C100.543 62.3926 100.404 62.6554 100.399 62.8887C100.53 64.0548 101.082 65.1325 101.953 65.9181C102.936 66.7707 104.678 67.0609 106.605 66.8442C108.533 66.6275 110.827 65.9818 113.495 65.3737C116.178 65.911 118.508 66.5046 120.419 66.6885C122.33 66.8724 124.089 66.5322 125.049 65.6578C125.901 64.852 126.429 63.7625 126.534 62.5941C126.504 62.3612 126.373 62.1189 126.053 62.1469Z" fill="#525B61"/>
<path d="M113.472 65.194L113.529 70.2002C111.926 70.2182 110.469 69.3566 109.367 68.4318C108.107 67.3798 107.301 66.6014 107.301 66.6014C109.243 65.7223 111.342 65.2437 113.472 65.194Z" fill="#525B61"/>
<path d="M113.769 64.7404C115.899 64.6907 113.664 70.1292 113.664 70.1292C112.061 70.1472 110.469 69.357 109.367 68.4322C108.107 67.3802 107.302 66.6019 107.302 66.6019C109.244 65.7228 111.638 64.7901 113.769 64.7404Z" fill="#525B61"/>
<path d="M119.704 66.4586C119.704 66.4586 118.916 67.2549 117.683 68.3349C116.602 69.2844 115.162 70.1786 113.531 70.197L113.475 65.1943C115.615 65.1889 117.734 65.619 119.704 66.4586Z" fill="#525B61"/>
<g style="mix-blend-mode:multiply" opacity="0.2">
<path d="M119.704 66.4586C119.704 66.4586 118.916 67.2549 117.683 68.3349C116.602 69.2844 115.162 70.1786 113.531 70.197L113.475 65.1943C115.615 65.1889 117.734 65.619 119.704 66.4586Z" fill="#525B61"/>
</g>
<g opacity="0.33">
<g style="mix-blend-mode:multiply" opacity="0.33">
<path d="M126.058 62.5299C125.952 62.5492 125.857 62.6088 125.793 62.6964C125.729 62.7839 125.702 62.8928 125.716 63.0002C125.716 63.0002 125.446 64.9767 124.386 65.6848C121.898 67.3593 118.771 66.0652 113.805 65.0669C113.7 65.0328 113.59 65.021 113.481 65.0323C113.373 65.0254 113.264 65.0396 113.161 65.0742C108.222 66.1743 105.122 67.5494 102.593 65.9319C101.525 65.2479 101.2 63.2955 101.204 63.2781C101.217 63.1709 101.188 63.0629 101.124 62.9762C101.057 62.8905 100.961 62.8331 100.854 62.8157C100.548 62.7774 100.408 63.04 100.404 63.2732C100.534 64.4429 101.091 65.5233 101.968 66.3079C102.951 67.1634 104.693 67.4499 106.62 67.2297C108.548 67.0094 110.843 66.3743 113.51 65.7594C116.193 66.2963 118.523 66.8859 120.434 67.073C122.345 67.2602 124.104 66.9235 125.065 66.046C125.916 65.2418 126.444 64.154 126.55 62.9873C126.509 62.7441 126.378 62.4846 126.058 62.5299Z" fill="#535C62"/>
</g>
</g>
<path d="M113.525 64.6313L113.533 65.3836C110.863 65.978 108.488 66.6317 106.595 66.8551C104.703 67.0784 102.926 66.7815 101.943 65.9287C101.072 65.1443 100.519 64.0673 100.389 62.9018C100.382 62.8405 100.388 62.7783 100.408 62.7198C100.428 62.6614 100.461 62.6082 100.504 62.5642C100.547 62.5202 100.6 62.4865 100.658 62.4657C100.716 62.4449 100.778 62.4374 100.839 62.4439C100.947 62.4591 101.045 62.5161 101.111 62.6027C101.177 62.6894 101.206 62.7986 101.192 62.9067C101.193 62.945 101.52 64.8815 102.582 65.5627C105.111 67.1784 108.193 65.7782 113.132 64.6636C113.261 64.6347 113.393 64.6239 113.525 64.6313Z" fill="#525B61"/>
<path d="M126.513 62.5932C126.408 63.7608 125.879 64.8495 125.028 65.6543C124.068 66.529 122.329 66.8621 120.397 66.6853C118.465 66.5085 116.216 65.9313 113.532 65.3693L113.524 64.617C113.614 64.6108 113.704 64.6241 113.788 64.6559C118.751 65.6449 121.882 66.9507 124.37 65.2751C125.423 64.5665 125.7 62.6267 125.7 62.5884C125.684 62.4809 125.712 62.3717 125.776 62.2845C125.84 62.1967 125.935 62.1369 126.042 62.1178C126.106 62.1121 126.17 62.1205 126.23 62.1424C126.29 62.1643 126.344 62.1992 126.389 62.2446C126.434 62.29 126.469 62.3448 126.49 62.405C126.512 62.4652 126.52 62.5295 126.513 62.5932Z" fill="#525B61"/>
<g style="mix-blend-mode:multiply" opacity="0.2">
<path d="M126.513 62.5931C126.408 63.7608 125.879 64.8495 125.028 65.6543C124.068 66.529 122.329 66.8621 120.397 66.6853C118.465 66.5085 116.216 65.9313 113.532 65.3693L113.524 64.617C113.614 64.6108 113.704 64.6241 113.788 64.6559C118.751 65.6449 121.882 66.9507 124.37 65.2751C125.423 64.5665 125.7 62.6267 125.7 62.5884C125.684 62.4809 125.712 62.3717 125.776 62.2845C125.84 62.1966 125.935 62.1369 126.042 62.1178C126.106 62.1121 126.17 62.1205 126.23 62.1424C126.29 62.1643 126.344 62.1992 126.389 62.2446C126.434 62.29 126.469 62.3448 126.49 62.405C126.512 62.4652 126.52 62.5295 126.513 62.5931Z" fill="#525B61"/>
</g>
<g opacity="0.33">
<path opacity="0.33" d="M115.584 71.1604C115.082 71.3546 114.556 71.4778 114.02 71.5263L113.554 71.5594L113.091 71.5368C112.554 71.5003 112.025 71.3891 111.519 71.2062C110.992 71.0172 110.366 71.362 110.484 71.9492C110.602 72.5364 111.427 73.255 112.276 73.5693C113.106 73.8803 114.023 73.8699 114.846 73.5403C115.687 73.207 116.482 72.4771 116.604 71.8803C116.726 71.2834 116.097 70.9596 115.584 71.1604Z" fill="#535C62"/>
</g>
<path d="M109.642 70.3535C110.236 70.7029 110.872 70.9731 111.536 71.1575C112.858 71.5214 114.257 71.4899 115.561 71.0668C116.217 70.8575 116.842 70.5612 117.419 70.1858C116.897 70.6563 116.293 71.0257 115.637 71.2749C114.301 71.8017 112.822 71.8344 111.465 71.3672C110.801 71.1437 110.183 70.8001 109.642 70.3535Z" fill="#535C62"/>
<path d="M117.29 68.3573C116.142 68.2692 115.202 68.1544 114.411 68.3654C114.121 68.441 113.822 68.4806 113.522 68.4834L113.542 70.2006C115.151 70.1825 116.543 69.2994 117.625 68.3814C117.492 68.362 117.426 68.3697 117.29 68.3573Z" fill="#D24A60"/>
<g style="mix-blend-mode:multiply" opacity="0.3">
<path d="M117.29 68.3573C116.142 68.2692 115.201 68.1544 114.411 68.3654C114.121 68.441 113.822 68.4806 113.522 68.4834L113.541 70.2006C115.151 70.1825 116.543 69.2994 117.624 68.3814C117.492 68.362 117.426 68.3697 117.29 68.3573Z" fill="#D24A60"/>
</g>
<path d="M113.509 68.4832L113.528 70.2004C111.925 70.2185 110.55 69.4223 109.416 68.4736C109.541 68.4513 109.621 68.4713 109.763 68.4418C110.91 68.3278 111.847 68.1919 112.645 68.3849C112.928 68.4521 113.218 68.4851 113.509 68.4832Z" fill="#D24A60"/>
<g opacity="0.5">
<path opacity="0.5" d="M98.4148 51.166C99.2865 51.1567 100.136 50.8887 100.856 50.3959C101.576 49.9031 102.133 49.2076 102.458 48.3974C102.784 47.5872 102.862 46.6987 102.682 45.8443C102.503 44.9899 102.075 44.208 101.452 43.5975C100.829 42.987 100.039 42.5753 99.1827 42.4145C98.3259 42.2537 97.4407 42.351 96.639 42.6941C95.8373 43.0373 95.1551 43.6108 94.6787 44.3422C94.2024 45.0736 93.9533 45.93 93.9629 46.803C93.9689 47.3824 94.0888 47.9549 94.3158 48.4878C94.5428 49.0207 94.8724 49.5036 95.2858 49.9087C95.6993 50.3139 96.1884 50.6335 96.7253 50.8492C97.2622 51.065 97.8363 51.1726 98.4148 51.166Z" fill="#525B61"/>
</g>
<path d="M98.4113 50.8462C99.2196 50.8378 100.007 50.5894 100.675 50.1325C101.342 49.6755 101.859 49.0305 102.16 48.2791C102.462 47.5276 102.534 46.7035 102.368 45.911C102.202 45.1185 101.805 44.3931 101.227 43.8267C100.649 43.2603 99.9168 42.8783 99.1223 42.729C98.3278 42.5797 97.507 42.6698 96.7637 42.9879C96.0203 43.3061 95.3879 43.8379 94.9463 44.5163C94.5047 45.1946 94.2739 45.9889 94.283 46.7987C94.2885 47.3361 94.3998 47.8671 94.6103 48.3615C94.8208 48.8558 95.1265 49.3037 95.5099 49.6796C95.8933 50.0555 96.3469 50.352 96.8448 50.5522C97.3426 50.7524 97.8749 50.8523 98.4113 50.8462Z" fill="#525B61"/>
<path d="M100.007 46.4826C100.153 46.4816 100.295 46.4373 100.416 46.3551C100.537 46.273 100.631 46.1569 100.685 46.0213C100.74 45.8858 100.754 45.737 100.724 45.5938C100.694 45.4507 100.623 45.3195 100.519 45.217C100.415 45.1146 100.282 45.0453 100.139 45.0182C99.9956 44.991 99.8474 45.0071 99.7131 45.0644C99.5788 45.1217 99.4645 45.2177 99.3847 45.3401C99.305 45.4626 99.2632 45.606 99.2649 45.7522C99.2671 45.9475 99.3463 46.134 99.4854 46.2708C99.6245 46.4077 99.8119 46.4838 100.007 46.4826Z" fill="#E6F4FD"/>
<path d="M98.798 44.736C98.8896 44.7356 98.9791 44.708 99.0551 44.6567C99.131 44.6053 99.19 44.5325 99.2246 44.4475C99.2592 44.3625 99.2678 44.2691 99.2493 44.1792C99.2309 44.0893 99.1862 44.0069 99.1209 43.9425C99.0556 43.8781 98.9727 43.8345 98.8827 43.8174C98.7927 43.8002 98.6996 43.8102 98.6153 43.8462C98.531 43.8821 98.4592 43.9423 98.4091 44.0191C98.359 44.096 98.3328 44.186 98.3338 44.2778C98.3361 44.3998 98.3859 44.5161 98.4727 44.6017C98.5594 44.6873 98.6762 44.7355 98.798 44.736Z" fill="#E6F4FD"/>
<path d="M102.339 40.1656C102.339 40.1656 100.348 38.4257 98.0182 38.1559C95.6888 37.8861 93.8443 38.0566 93.1133 38.6152C92.3824 39.1737 92.3794 39.529 92.6279 39.6656C92.8763 39.8021 93.472 39.5934 93.7317 39.4929C93.9325 39.414 94.2904 39.0791 96.9413 39.1851C100.455 39.3231 101.828 40.8715 102.135 40.6381C102.442 40.4048 102.339 40.1656 102.339 40.1656Z" fill="#525B61"/>
<path opacity="0.5" d="M132.562 46.3675C132.552 45.4949 132.283 44.645 131.791 43.9253C131.298 43.2057 130.603 42.6487 129.794 42.3248C128.985 42.0009 128.099 41.9246 127.247 42.1057C126.395 42.2867 125.615 42.7169 125.007 43.3419C124.399 43.9668 123.99 44.7584 123.831 45.6165C123.672 46.4745 123.771 47.3605 124.115 48.1623C124.459 48.9641 125.033 49.6456 125.763 50.1206C126.494 50.5957 127.349 50.8429 128.22 50.8311C129.386 50.8151 130.499 50.3362 131.313 49.4993C132.127 48.6624 132.576 47.536 132.562 46.3675Z" fill="#525B61"/>
<path d="M132.242 46.3716C132.233 45.5623 131.984 44.7742 131.527 44.1069C131.07 43.4396 130.425 42.9231 129.675 42.6228C128.925 42.3224 128.103 42.2518 127.313 42.4198C126.522 42.5878 125.8 42.9868 125.236 43.5664C124.672 44.1461 124.293 44.8802 124.146 45.6759C123.999 46.4717 124.09 47.2933 124.409 48.0368C124.728 48.7803 125.26 49.4122 125.938 49.8526C126.616 50.2931 127.409 50.5222 128.216 50.511C129.298 50.4961 130.329 50.0518 131.084 49.2757C131.839 48.4996 132.256 47.4551 132.242 46.3716Z" fill="#525B61"/>
<g style="mix-blend-mode:multiply" opacity="0.2">
<path d="M132.243 46.3716C132.233 45.5623 131.984 44.7742 131.527 44.1069C131.07 43.4396 130.425 42.9231 129.675 42.6228C128.925 42.3224 128.103 42.2518 127.313 42.4198C126.523 42.5878 125.8 42.9868 125.236 43.5664C124.673 44.1461 124.293 44.8802 124.146 45.6759C123.999 46.4717 124.091 47.2933 124.41 48.0368C124.729 48.7803 125.261 49.4122 125.938 49.8526C126.616 50.2931 127.409 50.5222 128.217 50.511C129.298 50.4961 130.33 50.0518 131.084 49.2757C131.839 48.4996 132.256 47.4551 132.243 46.3716Z" fill="#525B61"/>
</g>
<path d="M127.231 45.4377C127.229 45.2925 127.184 45.1512 127.101 45.0317C127.019 44.9122 126.903 44.8198 126.768 44.7662C126.634 44.7126 126.486 44.7002 126.344 44.7306C126.203 44.7609 126.073 44.8327 125.972 44.9368C125.871 45.0409 125.803 45.1727 125.776 45.3155C125.75 45.4583 125.766 45.6057 125.823 45.7392C125.88 45.8727 125.976 45.9863 126.097 46.0655C126.219 46.1448 126.361 46.1862 126.506 46.1846C126.603 46.1835 126.698 46.1633 126.787 46.1251C126.876 46.087 126.956 46.0316 127.024 45.9622C127.091 45.8928 127.144 45.8107 127.18 45.7207C127.215 45.6307 127.233 45.5346 127.231 45.4377Z" fill="#E6F4FD"/>
<path d="M128.142 43.9334C128.141 43.8418 128.113 43.7525 128.062 43.6769C128.01 43.6012 127.937 43.5427 127.852 43.5085C127.767 43.4744 127.674 43.4663 127.585 43.4852C127.495 43.5041 127.413 43.5491 127.349 43.6147C127.285 43.6802 127.242 43.7632 127.225 43.8533C127.209 43.9434 127.219 44.0365 127.255 44.1208C127.291 44.205 127.351 44.2767 127.427 44.3268C127.504 44.3768 127.594 44.403 127.685 44.402C127.808 44.3997 127.924 44.3493 128.01 44.2616C128.095 44.1739 128.143 44.056 128.142 43.9334Z" fill="#E6F4FD"/>
<path d="M124.253 40.387C124.579 40.6097 125.903 39.0344 129.416 38.8172C132.061 38.6516 132.426 38.9783 132.629 39.0527C132.894 39.1472 133.491 39.3564 133.736 39.2004C133.981 39.0444 133.984 38.6891 133.227 38.1612C132.47 37.6334 130.636 37.4939 128.313 37.8126C125.99 38.1313 124.039 39.9227 124.039 39.9227C124.039 39.9227 123.927 40.1643 124.253 40.387Z" fill="#525B61"/>
<g style="mix-blend-mode:multiply" opacity="0.2">
<path d="M124.253 40.387C124.579 40.6097 125.903 39.0344 129.417 38.8172C132.061 38.6516 132.426 38.9783 132.629 39.0527C132.894 39.1472 133.491 39.3564 133.736 39.2004C133.981 39.0444 133.984 38.6891 133.227 38.1613C132.47 37.6334 130.636 37.4939 128.313 37.8126C125.991 38.1314 124.039 39.9227 124.039 39.9227C124.039 39.9227 123.927 40.1643 124.253 40.387Z" fill="#525B61"/>
</g>
</svg>
