<svg width="32" height="32" viewBox="0 0 32 32" fill="none" xmlns="http://www.w3.org/2000/svg">
<path d="M20.9203 27.59H10.9933C9.66947 27.5884 8.40032 27.0618 7.46424 26.1258C6.52816 25.1897 6.00158 23.9205 6 22.5967V14.8506C6 13.5257 6.52589 12.255 7.46214 11.3177C8.39839 10.3803 9.66844 9.8529 10.9933 9.85132H20.9203C22.2451 9.8529 23.5152 10.3803 24.4514 11.3177C25.3877 12.255 25.9136 13.5257 25.9136 14.8506V22.5967C25.912 23.9205 25.3854 25.1897 24.4493 26.1258C23.5132 27.0618 22.2441 27.5884 20.9203 27.59ZM10.9933 11.7938C10.1752 11.7954 9.39101 12.1211 8.81251 12.6996C8.23401 13.2781 7.90832 14.0622 7.90674 14.8804V22.6265C7.90989 23.4436 8.23628 24.2262 8.81461 24.8034C9.39294 25.3806 10.1762 25.7055 10.9933 25.7071H20.9203C21.7374 25.7055 22.5206 25.3806 23.099 24.8034C23.6773 24.2262 24.0037 23.4436 24.0068 22.6265V14.8804C24.0052 14.0622 23.6795 13.2781 23.101 12.6996C22.5226 12.1211 21.7384 11.7954 20.9203 11.7938H10.9933Z" fill="#C8C8C8"/>
<path fill-rule="evenodd" clip-rule="evenodd" d="M8.24658 11C7.6943 11 7.24658 11.4477 7.24658 12V25C7.24658 25.5523 7.6943 26 8.24658 26H23.2466C23.7989 26 24.2466 25.5523 24.2466 25V12C24.2466 11.4477 23.7989 11 23.2466 11H8.24658ZM18.8349 18.8367C18.8349 20.3834 17.5811 21.6372 16.0344 21.6372C14.4877 21.6372 13.2339 20.3834 13.2339 18.8367C13.2339 17.29 14.4877 16.0361 16.0344 16.0361C17.5811 16.0361 18.8349 17.29 18.8349 18.8367Z" fill="#C4C4C4"/>
<path d="M22.428 10.5544H20.5153C20.4722 9.34981 19.9633 8.20891 19.0959 7.37195C18.2284 6.535 17.07 6.06728 15.8646 6.06728C14.6592 6.06728 13.5009 6.535 12.6334 7.37195C11.766 8.20891 11.2571 9.34981 11.214 10.5544H9.30127C9.30127 8.81609 9.99182 7.14894 11.221 5.91975C12.4502 4.69055 14.1174 4 15.8557 4C17.594 4 19.2612 4.69055 20.4904 5.91975C21.7196 7.14894 22.4101 8.81609 22.4101 10.5544H22.428Z" fill="#C8C8C8"/>
</svg>
