<svg width="16" height="19" viewBox="0 0 16 19" fill="none" xmlns="http://www.w3.org/2000/svg">
<path d="M11.8666 18.762H3.97133C2.91845 18.7607 1.90906 18.3419 1.16456 17.5974C0.420064 16.8529 0.00125417 15.8435 0 14.7907V8.62988C-7.48449e-07 7.57618 0.418255 6.56557 1.16289 5.82005C1.90752 5.07452 2.91763 4.65506 3.97133 4.65381H11.8666C12.9203 4.65506 13.9304 5.07452 14.675 5.82005C15.4197 6.56557 15.8379 7.57618 15.8379 8.62988V14.7907C15.8367 15.8435 15.4179 16.8529 14.6734 17.5974C13.9289 18.3419 12.9195 18.7607 11.8666 18.762ZM3.97133 6.19874C3.32065 6.19999 2.69698 6.45903 2.23689 6.91913C1.77679 7.37923 1.51775 8.0029 1.5165 8.65357V14.8143C1.519 15.4642 1.77859 16.0867 2.23855 16.5457C2.69852 17.0048 3.32147 17.2632 3.97133 17.2644H11.8666C12.5165 17.2632 13.1394 17.0048 13.5994 16.5457C14.0593 16.0867 14.3189 15.4642 14.3214 14.8143V8.65357C14.3202 8.0029 14.0611 7.37923 13.601 6.91913C13.1409 6.45903 12.5173 6.19999 11.8666 6.19874H3.97133Z" fill="#474747"/>
<path fill-rule="evenodd" clip-rule="evenodd" d="M3 5C1.89543 5 1 5.89543 1 7V16C1 17.1046 1.89543 18 3 18H13C14.1046 18 15 17.1046 15 16V7C15 5.89543 14.1046 5 13 5H3ZM10.2086 11.8004C10.2086 13.0305 9.2114 14.0277 7.98126 14.0277C6.75113 14.0277 5.75391 13.0305 5.75391 11.8004C5.75391 10.5702 6.75113 9.573 7.98126 9.573C9.2114 9.573 10.2086 10.5702 10.2086 11.8004Z" fill="#474747"/>
<path d="M13.0661 5.21296H11.5449C11.5106 4.25488 11.1059 3.34749 10.416 2.68183C9.72603 2.01617 8.80474 1.64418 7.84605 1.64418C6.88736 1.64418 5.96606 2.01617 5.27615 2.68183C4.58623 3.34749 4.18151 4.25488 4.14721 5.21296H2.62598C2.62598 3.8304 3.1752 2.50446 4.15282 1.52684C5.13044 0.549221 6.45638 0 7.83894 0C9.2215 0 10.5474 0.549221 11.5251 1.52684C12.5027 2.50446 13.0519 3.8304 13.0519 5.21296H13.0661Z" fill="#474747"/>
</svg>
