<svg width="192" height="54" viewBox="0 0 192 54" fill="none" xmlns="http://www.w3.org/2000/svg">
<g filter="url(#filter0_d)">
<path d="M23.0911 38.892C14.9241 38.9108 8.38995 32.0291 8.31337 23.3258C8.23914 14.7431 14.8157 7.69688 22.9851 7.60775C31.006 7.51987 37.6591 14.5661 37.6791 23.1739C37.698 31.9123 31.2416 38.8719 23.0911 38.892ZM18.8591 27.0617C18.4739 27.0416 18.111 27.0316 17.7493 26.9989C16.0539 26.847 14.7497 25.4411 14.5682 23.5806C14.4057 21.8935 15.4542 20.1197 17.0177 19.7167C17.9496 19.4769 18.944 19.5171 19.9902 19.4242V20.5955C19.9902 24.1104 19.9784 27.6329 20.0008 31.1516C20.0114 32.6655 20.8161 33.5367 22.1745 33.5844C22.2238 33.4873 22.2577 33.3821 22.2746 33.2731C22.2817 28.0697 22.2899 22.8676 22.2581 17.6655C22.2581 17.4634 21.8682 17.0993 21.6502 17.0906C20.3542 17.0391 19.0523 17.0077 17.7623 17.0906C16.3529 17.1822 15.0222 17.814 14.0159 18.8694C13.0096 19.9248 12.3956 21.3324 12.2873 22.8325C12.0717 25.8101 14.011 28.607 16.7738 29.3125C18.8391 29.8372 19.1855 29.5083 18.9333 27.2563C18.914 27.1892 18.8892 27.1241 18.8591 27.0617ZM23.8074 12.9844V29.4293C25.418 29.4293 27.0073 29.5899 28.5507 29.374C29.63 29.1974 30.6548 28.7509 31.5409 28.071C33.5803 26.5131 34.2672 23.5919 33.3777 21.1152C32.4775 18.6045 30.1624 16.9437 27.7095 17.0893C27.4739 17.1031 27.0898 17.3517 27.065 17.5349C26.9838 18.145 27.0344 18.7752 27.0344 19.4443C27.4774 19.4744 27.8108 19.4845 28.1431 19.5196C30.4841 19.7707 31.9768 22.0102 31.3112 24.3389C30.6903 26.4955 28.8853 27.4998 26.0424 26.8408V25.775C26.0424 22.3153 26.0059 18.8556 26.0613 15.3971C26.0813 14.1782 24.9809 12.7232 23.8074 12.9844Z" fill="#2E9E48"/>
<path d="M109.783 24.1833C109.982 24.1318 110.051 24.1368 110.081 24.1029C113.075 20.7851 119.098 22.5777 119.968 28.2869C120.655 32.7923 117.779 36.7479 113.754 36.7592C112.13 36.7592 110.828 36.0361 109.711 34.5887C109.675 35.2528 109.648 35.77 109.617 36.3336H106.351V15.4072H109.783V24.1833ZM109.708 29.659C109.724 31.8734 111.224 33.5807 113.131 33.5505C115.039 33.5204 116.467 31.8069 116.468 29.5586C116.469 27.3103 115.028 25.6118 113.108 25.6018C111.228 25.598 109.688 27.4321 109.708 29.659Z" fill="#27211F"/>
<path d="M51.9966 34.7724C49.9124 36.8199 47.7234 37.3283 45.347 36.1872C42.9424 35.0323 41.8915 32.8379 41.7478 30.1276C41.5286 25.9787 43.9745 22.77 47.4878 22.4913C49.043 22.3658 50.3731 22.8754 51.5147 23.9877L52.0932 24.5601V22.9282H55.451V43H51.9966V34.7724ZM52.0991 29.6167C52.0991 27.4248 50.5958 25.6322 48.7425 25.6071C46.7985 25.582 45.3164 27.3219 45.3364 29.6066C45.3553 31.8487 46.8103 33.5497 48.7142 33.556C50.6182 33.5623 52.1015 31.8286 52.0956 29.6167H52.0991Z" fill="#27211F"/>
<path d="M165.987 36.3867C164.436 36.3867 163.087 36.418 161.746 36.3603C161.48 36.349 161.157 36.0527 160.977 35.7979C159.57 33.8421 158.19 31.8637 156.657 29.6869V36.3302H153.148V15.4639H156.595V28.5458C157.23 27.7662 157.699 27.1938 158.166 26.6163C159.032 25.5455 159.867 24.4446 160.778 23.419C161.084 23.104 161.484 22.9127 161.909 22.8779C163.11 22.8089 164.317 22.8528 165.729 22.8528L160.545 28.9889L165.987 36.3867Z" fill="#27211F"/>
<path d="M92.4263 15.4487H95.8053V28.4641C96.088 28.1905 96.2506 28.0637 96.379 27.9055C97.5772 26.4267 98.7837 24.9542 99.9571 23.4528C100.292 23.0235 100.63 22.8176 101.172 22.8377C102.372 22.8841 103.575 22.8528 104.984 22.8528L99.8004 28.9889L105.248 36.3816C103.674 36.3816 102.257 36.4054 100.843 36.3565C100.633 36.349 100.395 36.0351 100.236 35.8117C98.8225 33.8295 97.4299 31.8373 95.8771 29.6278V36.3352H92.4263V15.4487Z" fill="#27211F"/>
<path d="M143.961 36.7893C139.965 36.8006 137.056 33.7702 137.04 29.5825C137.023 25.4788 139.946 22.4711 143.946 22.4761C147.946 22.4811 150.843 25.4889 150.827 29.6076C150.81 33.7263 147.902 36.778 143.961 36.7893ZM143.907 33.5556C145.849 33.5706 147.206 31.9751 147.259 29.6352C147.304 27.3204 145.876 25.5968 143.92 25.6069C141.983 25.6182 140.612 27.2664 140.621 29.5762C140.624 31.9136 141.969 33.5405 143.907 33.5556Z" fill="#27211F"/>
<path d="M128.551 36.7896C124.545 36.7896 121.653 33.7592 121.656 29.5663C121.656 25.4362 124.558 22.4623 128.564 22.4761C132.525 22.4887 135.416 25.4626 135.427 29.5324C135.438 33.714 132.526 36.7896 128.551 36.7896ZM125.231 29.7458C125.243 30.0409 125.275 30.3346 125.328 30.6246C125.643 32.0318 126.344 33.1202 127.737 33.4554C128.969 33.7529 130.093 33.478 130.955 32.4059C132.126 30.9371 132.201 28.3599 131.024 26.8962C130.587 26.3569 130.015 25.9612 129.375 25.7551C127.095 25.0998 125.236 26.851 125.231 29.7458Z" fill="#27211F"/>
<path d="M66.8705 22.895H70.3379V36.3121H67.0579V34.6073L66.8635 34.463C66.6608 34.7278 66.477 35.0128 66.2532 35.2551C64.9454 36.6723 63.3808 37.1017 61.6029 36.5204C59.8592 35.9518 58.7365 34.596 58.6363 32.7444C58.4619 29.4918 58.588 26.2166 58.588 22.9038H61.9564C61.9564 25.1032 61.9481 27.2573 61.9623 29.4115C61.9614 30.1015 61.9984 30.791 62.073 31.4765C62.1791 32.3929 62.5443 33.185 63.4421 33.4512C63.8911 33.5999 64.3709 33.6081 64.8242 33.4745C65.2774 33.341 65.6851 33.0714 65.9987 32.6979C66.6361 31.9874 66.8811 31.115 66.8776 30.1446C66.8776 28.0419 66.8776 25.938 66.8776 23.8353L66.8705 22.895Z" fill="#27211F"/>
<path d="M165.976 34.5703L167.964 32.4952C168.836 32.9434 169.63 33.4819 170.499 33.7506C171.045 33.92 171.743 33.8096 172.294 33.5949C172.625 33.4694 172.99 32.8982 173.001 32.5191C173.012 32.14 172.657 31.6315 172.328 31.4307C171.803 31.1106 171.165 30.9988 170.576 30.803C169.932 30.5846 169.263 30.4264 168.649 30.1364C166.469 29.107 165.883 26.3177 167.404 24.3418C169.37 21.7846 174.579 21.8624 176.475 24.4321L174.766 26.4495C173.836 26.0377 173.046 25.5707 172.2 25.3561C171.699 25.2305 171.074 25.3812 170.575 25.5958C170.282 25.7214 169.958 26.2122 169.958 26.5399C169.958 26.8675 170.292 27.3094 170.589 27.4613C171.165 27.7575 171.822 27.8718 172.437 28.089C173.132 28.3312 173.85 28.5396 174.502 28.871C175.727 29.4899 176.543 30.4867 176.597 32.0006C176.655 33.6162 176.105 34.9394 174.797 35.8369C172.314 37.5354 168.059 36.9542 165.976 34.5703Z" fill="#27211F"/>
<path d="M90.4892 24.4206L88.2943 26.7467C88.081 26.581 87.8678 26.3927 87.6357 26.2446C85.8095 25.0457 83.6782 25.7424 83.0161 27.8979C82.729 28.8658 82.6831 29.8967 82.883 30.8893C83.4332 33.4414 85.8767 34.3515 87.9279 32.8916C88.0893 32.7761 88.2401 32.6405 88.4357 32.4899C88.9741 33.0987 89.496 33.6849 90.0097 34.2737C90.197 34.4896 90.3785 34.7118 90.5564 34.924C88.4722 37.4183 83.5345 37.3781 81.0274 34.8901C78.4048 32.289 78.2976 27.4095 80.8 24.6252C83.3024 21.8409 87.9727 21.7254 90.4892 24.4206Z" fill="#27211F"/>
<path d="M76.7193 22.9077V36.3499H73.3262V22.9077H76.7193Z" fill="#27211F"/>
<path d="M65.7963 18.8835H64.3884C64.346 18.6324 64.3036 18.3813 64.2576 18.1127C64.1799 18.142 64.1071 18.1843 64.042 18.2382C63.2915 19.1232 62.3714 19.3216 61.3534 18.9186C60.3355 18.5156 59.9396 17.5817 59.9161 16.4933C59.8795 15.0559 59.9066 13.6161 59.9066 12.0996H61.529C61.529 13.1491 61.529 14.2186 61.529 15.2882C61.529 15.6171 61.529 15.9497 61.5573 16.2774C61.6244 16.9854 61.8436 17.5754 62.6329 17.6444C63.3717 17.7085 64.0208 17.239 64.1363 16.3891C64.2518 15.5392 64.2141 14.6555 64.2329 13.7868C64.2435 13.2482 64.2329 12.7097 64.2329 12.0996H65.794L65.7963 18.8835Z" fill="#27211F"/>
<path d="M52.7484 18.8581H51.106C51.106 17.8011 51.106 16.788 51.106 15.7737C51.1173 15.3834 51.1078 14.9928 51.0777 14.6037C51.0035 13.9346 50.7773 13.3483 50.041 13.2818C49.3046 13.2152 48.7532 13.5843 48.5576 14.3325C48.4163 14.8698 48.4174 15.4561 48.4045 16.0222C48.3809 16.9462 48.3974 17.8714 48.3974 18.8493H46.854V12.0842H48.2678C48.3032 12.3352 48.3385 12.5775 48.3856 12.919C49.2221 11.8595 50.1976 11.5519 51.3122 12.0277C52.4515 12.5135 52.7178 13.5881 52.7366 14.7568C52.7649 16.1026 52.7484 17.4483 52.7484 18.8581Z" fill="#27211F"/>
<path d="M55.352 13.5959L53.5776 13.5106V12.0732H58.7097V13.5369H57.0179V18.838H55.352V13.5959Z" fill="#27211F"/>
<path d="M70.2756 13.5169V12.0708H75.449V13.5107L73.6911 13.5923V18.8458H72.1053V13.6036L70.2756 13.5169Z" fill="#27211F"/>
<path d="M43.5654 12.0679H45.0971V18.8253H43.5654V12.0679Z" fill="#27211F"/>
<path d="M69.0775 12.0796V18.8382H67.5576V12.0846L69.0775 12.0796Z" fill="#27211F"/>
<path d="M181.176 34.8546C181.165 35.2621 181.007 35.6494 180.735 35.9365C180.464 36.2236 180.099 36.3886 179.716 36.3974C179.331 36.3974 178.962 36.2345 178.69 35.9444C178.418 35.6544 178.265 35.261 178.265 34.8508C178.265 34.4406 178.418 34.0472 178.69 33.7572C178.962 33.4671 179.331 33.3042 179.716 33.3042C180.1 33.3149 180.464 33.4816 180.736 33.7699C181.007 34.0582 181.165 34.4463 181.176 34.8546ZM179.719 33.5603C179.396 33.5541 179.083 33.685 178.851 33.9241C178.618 34.1631 178.485 34.4909 178.479 34.8351C178.473 35.1794 178.596 35.512 178.82 35.7598C179.044 36.0076 179.352 36.1502 179.675 36.1564C179.998 36.1626 180.31 36.0317 180.543 35.7926C180.775 35.5536 180.909 35.2258 180.915 34.8816C180.921 34.5373 180.798 34.2047 180.574 33.9569C180.349 33.7091 180.042 33.5665 179.719 33.5603Z" fill="#27211F"/>
<path d="M18.8593 27.0617C18.8884 27.123 18.9124 27.1869 18.9312 27.2526C19.1833 29.5046 18.8369 29.8335 16.7716 29.3088C14.0088 28.6083 12.0695 25.8064 12.2851 22.8288C12.3935 21.3287 13.0074 19.9211 14.0137 18.8657C15.0201 17.8103 16.3507 17.1785 17.7601 17.0869C19.0561 17.009 20.3521 17.0404 21.648 17.0869C21.866 17.0957 22.2548 17.4635 22.256 17.6618C22.2878 22.8639 22.2795 28.066 22.2725 33.2694C22.2555 33.3783 22.2217 33.4836 22.1723 33.5807C20.8139 33.5368 20.0092 32.6618 19.9986 31.1479C19.9762 27.6329 19.9892 24.1105 19.988 20.5918V19.4193C18.9418 19.5122 17.9474 19.472 17.0155 19.7118C15.4521 20.1147 14.4035 21.8885 14.5661 23.5757C14.7452 25.4361 16.0494 26.8396 17.7471 26.994C18.1112 27.0316 18.4741 27.0417 18.8593 27.0617Z" fill="white"/>
<path d="M23.8076 12.9843C24.9858 12.7232 26.0815 14.1782 26.0615 15.3971C26.0061 18.8555 26.0426 22.3153 26.0426 25.775V26.8407C28.8867 27.5011 30.6905 26.5006 31.3114 24.3301C31.977 22.0014 30.4866 19.7594 28.1433 19.5108C27.811 19.4757 27.4776 19.4656 27.0346 19.4355C27.0346 18.7664 26.984 18.1362 27.0652 17.5261C27.09 17.3429 27.4776 17.0943 27.7097 17.0805C30.1626 16.9349 32.4777 18.5969 33.3779 21.1064C34.2674 23.5831 33.5805 26.5043 31.5411 28.0622C30.655 28.7421 29.6303 29.1886 28.5509 29.3652C27.0075 29.5811 25.4182 29.4205 23.8076 29.4205V12.9843Z" fill="white"/>
<path d="M56.2298 11.2669C56.6751 11.2669 57.0361 10.8823 57.0361 10.4079C57.0361 9.93343 56.6751 9.54883 56.2298 9.54883C55.7846 9.54883 55.4236 9.93343 55.4236 10.4079C55.4236 10.8823 55.7846 11.2669 56.2298 11.2669Z" fill="#27211F"/>
<path d="M72.8914 11.2669C73.3367 11.2669 73.6977 10.8823 73.6977 10.4079C73.6977 9.93343 73.3367 9.54883 72.8914 9.54883C72.4462 9.54883 72.0852 9.93343 72.0852 10.4079C72.0852 10.8823 72.4462 11.2669 72.8914 11.2669Z" fill="#27211F"/>
<path d="M179.349 34.2062H179.506V35.5637H179.349V34.2062ZM179.417 34.8077H179.797C179.825 34.8085 179.853 34.7997 179.876 34.7826C179.899 34.7633 179.918 34.7378 179.929 34.7085C179.942 34.6732 179.948 34.6358 179.948 34.598C179.948 34.5602 179.942 34.5227 179.929 34.4875C179.918 34.4577 179.9 34.4316 179.876 34.4121C179.853 34.3955 179.825 34.3867 179.797 34.387H179.417V34.2062H179.791C179.85 34.2044 179.909 34.221 179.96 34.2539C180.011 34.2859 180.053 34.3341 180.078 34.392C180.104 34.4568 180.118 34.5267 180.118 34.5974C180.118 34.668 180.104 34.7379 180.078 34.8027C180.052 34.86 180.011 34.9081 179.96 34.9408C179.909 34.974 179.851 34.991 179.791 34.9898H179.417V34.8077ZM179.72 34.9471L179.876 34.9044L180.16 35.5637H179.975L179.72 34.9471Z" fill="#27211F"/>
</g>
<defs>
<filter id="filter0_d" x="0.312744" y="0.606934" width="190.863" height="53.3931" filterUnits="userSpaceOnUse" color-interpolation-filters="sRGB">
<feFlood flood-opacity="0" result="BackgroundImageFix"/>
<feColorMatrix in="SourceAlpha" type="matrix" values="0 0 0 0 0 0 0 0 0 0 0 0 0 0 0 0 0 0 127 0" result="hardAlpha"/>
<feMorphology radius="1" operator="dilate" in="SourceAlpha" result="effect1_dropShadow"/>
<feOffset dx="1" dy="2"/>
<feGaussianBlur stdDeviation="4"/>
<feColorMatrix type="matrix" values="0 0 0 0 0.207843 0 0 0 0 0.392157 0 0 0 0 0.67451 0 0 0 0.3 0"/>
<feBlend mode="multiply" in2="BackgroundImageFix" result="effect1_dropShadow"/>
<feBlend mode="normal" in="SourceGraphic" in2="effect1_dropShadow" result="shape"/>
</filter>
</defs>
</svg>
