<svg width="107" height="22" viewBox="0 0 107 22" fill="none" xmlns="http://www.w3.org/2000/svg">
<path d="M9.06318 19.1863C4.05454 19.1978 0.0473465 14.9774 0.000381553 9.63998C-0.0451383 4.37641 3.98807 0.055159 8.99815 0.000498646C13.9172 -0.0533919 17.9974 4.26786 18.0096 9.54682C18.0212 14.9059 14.0617 19.174 9.06318 19.1863ZM6.46782 11.9311C6.23155 11.9188 6.00901 11.9126 5.78719 11.8926C4.74746 11.7994 3.94761 10.9372 3.83634 9.79626C3.73663 8.76156 4.37968 7.67374 5.33849 7.42661C5.91002 7.27957 6.51984 7.30421 7.16146 7.24724V7.96552C7.16146 10.1211 7.15423 12.2814 7.16796 14.4393C7.17446 15.3678 7.66796 15.9021 8.50104 15.9313C8.53131 15.8717 8.55207 15.8072 8.56246 15.7404C8.56679 12.5493 8.57185 9.35898 8.55234 6.16866C8.55234 6.04471 8.31318 5.82145 8.17951 5.81606C7.38472 5.78449 6.58632 5.76525 5.79514 5.81606C4.93081 5.87226 4.11474 6.25974 3.49761 6.90698C2.88047 7.55421 2.50393 8.41748 2.4375 9.33742C2.30528 11.1635 3.49458 12.8788 5.18893 13.3115C6.45554 13.6333 6.66796 13.4316 6.51334 12.0504C6.50149 12.0093 6.48625 11.9694 6.46782 11.9311ZM9.50248 3.29783V13.3831C10.4902 13.3831 11.4649 13.4816 12.4114 13.3492C13.0733 13.2409 13.7018 12.967 14.2452 12.5501C15.4959 11.5947 15.9172 9.80319 15.3717 8.28424C14.8196 6.74451 13.3998 5.72598 11.8955 5.81529C11.751 5.82376 11.5155 5.97619 11.5003 6.08859C11.4504 6.46274 11.4815 6.84922 11.4815 7.25955C11.7532 7.27803 11.9577 7.28419 12.1614 7.30575C13.5971 7.45972 14.5126 8.83316 14.1043 10.2613C13.7235 11.5839 12.6166 12.1998 10.8731 11.7956V11.142C10.8731 9.02024 10.8507 6.89849 10.8847 4.77751C10.897 4.02997 10.2221 3.1377 9.50248 3.29783Z" fill="#2E9E48"/>
<path d="M62.229 10.1658C62.3511 10.1342 62.393 10.1373 62.4118 10.1165C64.2478 8.08178 67.9414 9.18114 68.4754 12.6825C68.8966 15.4455 67.1329 17.8714 64.664 17.8783C63.6683 17.8783 62.8699 17.4348 62.185 16.5472C62.1626 16.9544 62.1459 17.2716 62.1271 17.6173H60.1243V4.78369H62.229V10.1658ZM62.1828 13.5239C62.1929 14.882 63.1127 15.929 64.2825 15.9105C65.4523 15.892 66.328 14.8412 66.3287 13.4623C66.3294 12.0835 65.4458 11.0419 64.268 11.0357C63.1149 11.0334 62.1705 12.1582 62.1828 13.5239Z" fill="#27211F"/>
<path d="M26.79 16.6598C25.5119 17.9155 24.1694 18.2273 22.712 17.5275C21.2373 16.8192 20.5928 15.4734 20.5047 13.8113C20.3703 11.2668 21.8703 9.29904 24.0249 9.12813C24.9786 9.05114 25.7944 9.36371 26.4945 10.0458L26.8493 10.3969V9.39605H28.9085V21.7056H26.79V16.6598ZM26.8529 13.4979C26.8529 12.1537 25.9309 11.0544 24.7944 11.039C23.6022 11.0236 22.6933 12.0906 22.7055 13.4918C22.7171 14.8668 23.6094 15.91 24.7771 15.9138C25.9447 15.9177 26.8544 14.8545 26.8507 13.4979H26.8529Z" fill="#27211F"/>
<path d="M96.6977 17.6493C95.7462 17.6493 94.9188 17.6685 94.0966 17.6331C93.9333 17.6262 93.7353 17.4445 93.6248 17.2882C92.7621 16.0888 91.916 14.8754 90.9759 13.5405V17.6146H88.8235V4.81787H90.9376V12.8407C91.3271 12.3626 91.6147 12.0115 91.9008 11.6574C92.4319 11.0007 92.9441 10.3255 93.5027 9.69653C93.6907 9.5034 93.9359 9.38607 94.1963 9.36472C94.9333 9.32237 95.6732 9.34932 96.5395 9.34932L93.3603 13.1124L96.6977 17.6493Z" fill="#27211F"/>
<path d="M51.585 4.80908H53.6572V12.7911C53.8306 12.6233 53.9303 12.5455 54.0091 12.4485C54.7439 11.5416 55.4838 10.6385 56.2034 9.71777C56.4086 9.45448 56.616 9.32822 56.9484 9.34054C57.6846 9.36902 58.4224 9.34978 59.2865 9.34978L56.1073 13.1129L59.4484 17.6467C58.483 17.6467 57.6138 17.6613 56.7468 17.6313C56.6182 17.6266 56.4722 17.4342 56.3747 17.2971C55.5076 16.0815 54.6536 14.8597 53.7013 13.5048V17.6182H51.585V4.80908Z" fill="#27211F"/>
<path d="M83.19 17.8966C80.7392 17.9035 78.9552 16.0451 78.9451 13.4768C78.935 10.9602 80.7276 9.11558 83.1806 9.11866C85.6336 9.12174 87.4104 10.9663 87.4003 13.4922C87.3901 16.0181 85.6069 17.8896 83.19 17.8966ZM83.1568 15.9134C84.3475 15.9226 85.1799 14.9442 85.2124 13.5091C85.2399 12.0895 84.3642 11.0325 83.1647 11.0387C81.9769 11.0456 81.1358 12.0564 81.1416 13.473C81.1431 14.9064 81.9682 15.9042 83.1568 15.9134Z" fill="#27211F"/>
<path d="M73.739 17.8967C71.2824 17.8967 69.5086 16.0383 69.5107 13.4669C69.5107 10.934 71.2904 9.11021 73.747 9.11868C76.1762 9.12638 77.9493 10.9502 77.9558 13.4461C77.9623 16.0106 76.1769 17.8967 73.739 17.8967ZM71.7029 13.577C71.7102 13.7579 71.73 13.9381 71.7622 14.1159C71.9558 14.9789 72.3857 15.6464 73.2398 15.852C73.9956 16.0344 74.6849 15.8658 75.213 15.2084C75.9312 14.3076 75.9775 12.7271 75.2557 11.8294C74.9876 11.4987 74.6367 11.256 74.2441 11.1296C72.846 10.7277 71.7058 11.8017 71.7029 13.577Z" fill="#27211F"/>
<path d="M35.9119 9.37598H38.0383V17.6043H36.0268V16.5588L35.9076 16.4703C35.7833 16.6327 35.6706 16.8075 35.5333 16.9561C34.7313 17.8253 33.7717 18.0885 32.6814 17.7321C31.6121 17.3833 30.9235 16.5519 30.8621 15.4163C30.7551 13.4216 30.8324 11.413 30.8324 9.38137H32.8982C32.8982 10.7302 32.8931 12.0513 32.9018 13.3723C32.9013 13.7955 32.9239 14.2184 32.9697 14.6388C33.0347 15.2008 33.2587 15.6866 33.8093 15.8498C34.0847 15.941 34.3789 15.946 34.6569 15.8641C34.9349 15.7822 35.1849 15.6169 35.3772 15.3879C35.7681 14.9521 35.9184 14.4171 35.9162 13.822C35.9162 12.5324 35.9162 11.2421 35.9162 9.95261L35.9119 9.37598Z" fill="#27211F"/>
<path d="M96.6904 16.5359L97.9101 15.2633C98.4448 15.5381 98.9318 15.8684 99.4643 16.0332C99.7995 16.1371 100.227 16.0693 100.565 15.9377C100.768 15.8607 100.992 15.5104 100.999 15.2779C101.005 15.0454 100.788 14.7336 100.586 14.6104C100.264 14.4141 99.8732 14.3456 99.512 14.2255C99.1167 14.0915 98.7063 13.9945 98.3299 13.8167C96.9932 13.1854 96.6333 11.4748 97.5661 10.263C98.7721 8.69476 101.966 8.74249 103.13 10.3184L102.081 11.5556C101.511 11.3031 101.026 11.0167 100.508 10.885C100.201 10.8081 99.8169 10.9004 99.5112 11.0321C99.3313 11.1091 99.1326 11.4101 99.1326 11.611C99.1326 11.812 99.3378 12.083 99.5199 12.1761C99.8732 12.3578 100.276 12.4279 100.653 12.561C101.079 12.7096 101.52 12.8374 101.919 13.0407C102.671 13.4202 103.171 14.0315 103.204 14.96C103.24 15.9508 102.903 16.7622 102.1 17.3127C100.578 18.3543 97.9679 17.9979 96.6904 16.5359Z" fill="#27211F"/>
<path d="M50.3968 10.3113L49.0507 11.7379C48.9199 11.6362 48.7892 11.5208 48.6468 11.4299C47.5269 10.6947 46.2198 11.122 45.8137 12.4438C45.6377 13.0375 45.6095 13.6697 45.7321 14.2784C46.0695 15.8435 47.5681 16.4017 48.826 15.5063C48.925 15.4355 49.0175 15.3524 49.1374 15.26C49.4676 15.6334 49.7877 15.9929 50.1027 16.354C50.2176 16.4864 50.3289 16.6226 50.438 16.7527C49.1598 18.2825 46.1317 18.2578 44.5941 16.732C42.9857 15.1368 42.92 12.1443 44.4547 10.4368C45.9893 8.72922 48.8535 8.6584 50.3968 10.3113Z" fill="#27211F"/>
<path d="M41.9518 9.38379V17.6276H39.8708V9.38379H41.9518Z" fill="#27211F"/>
<path d="M35.2532 6.91524H34.3897C34.3637 6.76126 34.3377 6.60729 34.3095 6.44254C34.2619 6.4605 34.2172 6.48649 34.1773 6.51953C33.7171 7.06228 33.1527 7.18392 32.5285 6.93679C31.9042 6.68967 31.6614 6.11689 31.647 5.44941C31.6246 4.56792 31.6412 3.68488 31.6412 2.75488H32.6361C32.6361 3.39849 32.6361 4.05442 32.6361 4.71034C32.6361 4.91205 32.6361 5.11606 32.6535 5.317C32.6947 5.7512 32.829 6.11304 33.3132 6.15538C33.7662 6.19464 34.1643 5.90671 34.2351 5.38551C34.3059 4.86432 34.2828 4.32233 34.2944 3.78958C34.3009 3.45931 34.2944 3.12904 34.2944 2.75488H35.2517L35.2532 6.91524Z" fill="#27211F"/>
<path d="M27.2511 6.9005H26.2439C26.2439 6.25226 26.2439 5.63097 26.2439 5.0089C26.2508 4.76957 26.245 4.53001 26.2265 4.29138C26.181 3.88103 26.0423 3.5215 25.5907 3.48069C25.1391 3.43989 24.801 3.66623 24.681 4.12508C24.5943 4.45459 24.595 4.81413 24.5871 5.16134C24.5726 5.72797 24.5828 6.29537 24.5828 6.89511H23.6362V2.74623H24.5033C24.525 2.90021 24.5466 3.04879 24.5755 3.2582C25.0885 2.60842 25.6868 2.4198 26.3703 2.71159C27.069 3.00953 27.2323 3.66854 27.2439 4.3853C27.2612 5.21061 27.2511 6.03592 27.2511 6.9005Z" fill="#27211F"/>
<path d="M28.8477 3.67259L27.7595 3.62024V2.73877H30.9069V3.63641H29.8693V6.88745H28.8477V3.67259Z" fill="#27211F"/>
<path d="M38.0002 3.62418V2.7373H41.1729V3.62034L40.0949 3.67038V6.89224H39.1224V3.67731L38.0002 3.62418Z" fill="#27211F"/>
<path d="M21.6194 2.73584H22.5587V6.88H21.6194V2.73584Z" fill="#27211F"/>
<path d="M37.2653 2.74268V6.88755H36.3333V2.74575L37.2653 2.74268Z" fill="#27211F"/>
<path d="M106.013 16.7106C106.006 16.9605 105.909 17.198 105.742 17.3741C105.576 17.5502 105.352 17.6513 105.117 17.6568C104.881 17.6568 104.655 17.5568 104.488 17.379C104.321 17.2011 104.227 16.9598 104.227 16.7083C104.227 16.4567 104.321 16.2155 104.488 16.0376C104.655 15.8597 104.881 15.7598 105.117 15.7598C105.352 15.7663 105.576 15.8685 105.743 16.0454C105.909 16.2222 106.006 16.4602 106.013 16.7106ZM105.119 15.9168C104.921 15.913 104.729 15.9933 104.587 16.1399C104.444 16.2865 104.362 16.4875 104.358 16.6986C104.355 16.9098 104.43 17.1138 104.568 17.2657C104.705 17.4177 104.894 17.5052 105.092 17.5089C105.29 17.5127 105.482 17.4325 105.624 17.2859C105.767 17.1392 105.849 16.9383 105.853 16.7271C105.856 16.516 105.781 16.312 105.643 16.1601C105.506 16.0081 105.317 15.9206 105.119 15.9168Z" fill="#27211F"/>
<path d="M6.46807 11.931C6.48589 11.9686 6.50064 12.0078 6.51214 12.048C6.66677 13.4292 6.45434 13.6309 5.18773 13.3091C3.49337 12.8795 2.30407 11.1612 2.4363 9.33504C2.50272 8.41511 2.87926 7.55184 3.4964 6.90461C4.11354 6.25738 4.92961 5.86989 5.79394 5.81369C6.58873 5.76596 7.38353 5.78521 8.17832 5.81369C8.31199 5.81908 8.55043 6.04465 8.55115 6.16629C8.57066 9.3566 8.5656 12.5469 8.56126 15.738C8.55088 15.8048 8.53012 15.8693 8.49985 15.9289C7.66676 15.902 7.17327 15.3654 7.16676 14.4369C7.15304 12.2813 7.16098 10.1211 7.16026 7.96315V7.2441C6.51865 7.30107 5.90882 7.27643 5.33729 7.42347C4.37848 7.6706 3.73542 8.75842 3.83513 9.79311C3.94496 10.934 4.74481 11.7948 5.78599 11.8894C6.00925 11.9125 6.2318 11.9187 6.46807 11.931Z" fill="white"/>
<path d="M9.50269 3.29765C10.2252 3.13752 10.8972 4.02979 10.8849 4.77733C10.8509 6.89831 10.8733 9.02006 10.8733 11.1418V11.7954C12.6176 12.2004 13.7238 11.5868 14.1045 10.2557C14.5128 8.82759 13.5988 7.45261 12.1616 7.30018C11.9579 7.27862 11.7534 7.27246 11.4817 7.25399C11.4817 6.84365 11.4506 6.45718 11.5005 6.08302C11.5157 5.97062 11.7534 5.81819 11.8957 5.80972C13.4001 5.72041 14.8198 6.73972 15.3719 8.27868C15.9174 9.79762 15.4961 11.5891 14.2454 12.5445C13.702 12.9615 13.0736 13.2353 12.4116 13.3436C11.4651 13.476 10.4904 13.3775 9.50269 13.3775V3.29765Z" fill="white"/>
<path d="M29.3866 2.24515C29.6598 2.24515 29.8813 2.00915 29.8813 1.71803C29.8813 1.42692 29.6598 1.19092 29.3866 1.19092C29.1133 1.19092 28.8918 1.42692 28.8918 1.71803C28.8918 2.00915 29.1133 2.24515 29.3866 2.24515Z" fill="#27211F"/>
<path d="M39.6048 2.24515C39.878 2.24515 40.0995 2.00915 40.0995 1.71803C40.0995 1.42692 39.878 1.19092 39.6048 1.19092C39.3316 1.19092 39.1101 1.42692 39.1101 1.71803C39.1101 2.00915 39.3316 2.24515 39.6048 2.24515Z" fill="#27211F"/>
<path d="M104.892 16.3126H104.988V17.1456H104.892V16.3126ZM104.934 16.6817H105.167C105.184 16.6821 105.201 16.6767 105.215 16.6663C105.23 16.6544 105.241 16.6388 105.248 16.6208C105.256 16.5992 105.26 16.5762 105.26 16.553C105.26 16.5298 105.256 16.5068 105.248 16.4852C105.241 16.4669 105.23 16.4509 105.215 16.439C105.201 16.4287 105.184 16.4233 105.167 16.4235H104.934V16.3126H105.163C105.2 16.3115 105.236 16.3217 105.267 16.3419C105.298 16.3615 105.324 16.3911 105.339 16.4266C105.355 16.4664 105.364 16.5093 105.364 16.5526C105.364 16.596 105.355 16.6389 105.339 16.6786C105.323 16.7138 105.298 16.7433 105.267 16.7634C105.236 16.7837 105.2 16.7941 105.163 16.7934H104.934V16.6817ZM105.12 16.7672L105.215 16.741L105.39 17.1456H105.276L105.12 16.7672Z" fill="#27211F"/>
</svg>
