<svg width="59" height="25" viewBox="0 0 59 25" fill="none" xmlns="http://www.w3.org/2000/svg">
<path d="M0 3.48361C0 1.55966 1.24738 0 2.78611 0H56.2139C57.7526 0 59 1.55966 59 3.48361V21.5164C59 23.4403 57.7526 25 56.2139 25H2.78611C1.24738 25 0 23.4403 0 21.5164V3.48361Z" fill="#EFF1F2"/>
<path d="M0 3.48361C0 1.55966 1.28109 0 2.86139 0H17V25H2.86139C1.28109 25 0 23.4403 0 21.5164V3.48361Z" fill="#C8C8C8"/>
<path d="M12.3095 10.6716H11.9138V9.11438C11.9138 7.3968 10.4941 6 8.74829 6C7.0025 6 5.58276 7.3968 5.58276 9.11438V10.6716H5.18707C4.53286 10.6716 4 11.1953 4 11.8395V17.2896C4 17.9338 4.53286 18.4575 5.18707 18.4575H12.3095C12.9637 18.4575 13.4966 17.9338 13.4966 17.2896V11.8395C13.4966 11.1953 12.9637 10.6716 12.3095 10.6716ZM6.63794 9.11438C6.63794 7.96932 7.58443 7.03813 8.74829 7.03813C9.91215 7.03813 10.8586 7.96932 10.8586 9.11438V10.6716H6.63794V9.11438ZM9.27588 14.6798V15.8622C9.27588 16.1487 9.04005 16.3813 8.74829 16.3813C8.45653 16.3813 8.2207 16.1487 8.2207 15.8622V14.6798C7.90679 14.4997 7.69311 14.1685 7.69311 13.7859C7.69311 13.2134 8.16636 12.7478 8.74829 12.7478C9.33022 12.7478 9.80347 13.2134 9.80347 13.7859C9.80347 14.1685 9.58979 14.4997 9.27588 14.6798Z" fill="#474747"/>
<path d="M22.2331 11.5823C22.2331 11.4291 22.1783 11.312 22.0689 11.2309C21.9594 11.148 21.7624 11.0615 21.4778 10.9713C21.1932 10.8794 20.9678 10.7893 20.8018 10.701C20.3494 10.4595 20.1231 10.1342 20.1231 9.72505C20.1231 9.51238 20.1834 9.32313 20.3038 9.15732C20.426 8.98971 20.6002 8.85904 20.8265 8.76532C21.0545 8.6716 21.3099 8.62474 21.5927 8.62474C21.8773 8.62474 22.1309 8.67611 22.3535 8.77884C22.576 8.87977 22.7484 9.02305 22.8707 9.20869C22.9947 9.39432 23.0568 9.60519 23.0568 9.8413H22.2358C22.2358 9.66107 22.1783 9.52139 22.0634 9.42226C21.9485 9.32133 21.787 9.27087 21.579 9.27087C21.3783 9.27087 21.2223 9.31322 21.1111 9.39793C20.9998 9.48084 20.9441 9.59078 20.9441 9.72775C20.9441 9.85571 21.0089 9.96295 21.1384 10.0495C21.2698 10.136 21.4623 10.2171 21.7158 10.2928C22.1829 10.4315 22.5231 10.6037 22.7366 10.8091C22.95 11.0146 23.0568 11.2705 23.0568 11.5769C23.0568 11.9175 22.9263 12.1852 22.6654 12.3798C22.4046 12.5727 22.0534 12.6691 21.6119 12.6691C21.3054 12.6691 21.0262 12.6141 20.7745 12.5042C20.5227 12.3925 20.3302 12.2402 20.197 12.0473C20.0657 11.8545 20 11.631 20 11.3769H20.8237C20.8237 11.8112 21.0864 12.0284 21.6119 12.0284C21.8071 12.0284 21.9594 11.9896 22.0689 11.9121C22.1783 11.8328 22.2331 11.7229 22.2331 11.5823Z" fill="#474747"/>
<path d="M25.2789 12.615C25.2424 12.5447 25.2159 12.4573 25.1995 12.3528C25.008 12.5637 24.7589 12.6691 24.4524 12.6691C24.1624 12.6691 23.9215 12.5862 23.73 12.4204C23.5402 12.2546 23.4454 12.0455 23.4454 11.7932C23.4454 11.4832 23.5612 11.2453 23.7929 11.0795C24.0264 10.9137 24.363 10.8299 24.8027 10.8281H25.1667V10.6604C25.1667 10.5253 25.1311 10.4171 25.06 10.336C24.9906 10.2549 24.8803 10.2144 24.7288 10.2144C24.5956 10.2144 24.4907 10.2459 24.4141 10.309C24.3393 10.3721 24.3019 10.4586 24.3019 10.5685H23.511C23.511 10.3991 23.564 10.2423 23.6698 10.0981C23.7756 9.95394 23.9252 9.8413 24.1186 9.76019C24.312 9.67729 24.5291 9.63583 24.7699 9.63583C25.1348 9.63583 25.4239 9.72685 25.6374 9.90888C25.8527 10.0891 25.9603 10.3432 25.9603 10.6713V11.9392C25.9621 12.2167 26.0013 12.4267 26.078 12.5691V12.615H25.2789ZM24.6248 12.0716C24.7416 12.0716 24.8492 12.0464 24.9478 11.9959C25.0463 11.9437 25.1192 11.8743 25.1667 11.7878V11.2849H24.8711C24.4752 11.2849 24.2645 11.4201 24.239 11.6905L24.2362 11.7364C24.2362 11.8337 24.2709 11.9139 24.3402 11.977C24.4096 12.0401 24.5044 12.0716 24.6248 12.0716Z" fill="#474747"/>
<path d="M26.784 12.615V10.263H26.3434V9.6899H26.784V9.44118C26.784 9.11317 26.8789 8.85904 27.0686 8.67881C27.2602 8.49678 27.5274 8.40576 27.8704 8.40576C27.9799 8.40576 28.114 8.42378 28.2727 8.45983L28.2645 9.0654C28.1988 9.04918 28.1185 9.04107 28.0237 9.04107C27.7263 9.04107 27.5776 9.17895 27.5776 9.4547V9.6899H28.166V10.263H27.5776V12.615H26.784Z" fill="#474747"/>
<path d="M29.8736 12.6691C29.4394 12.6691 29.0855 12.5375 28.8118 12.2744C28.54 12.0113 28.4041 11.6607 28.4041 11.2228V11.1471C28.4041 10.8533 28.4615 10.5911 28.5765 10.3604C28.6914 10.1279 28.8538 9.94943 29.0636 9.82507C29.2752 9.69891 29.516 9.63583 29.786 9.63583C30.1911 9.63583 30.5094 9.76199 30.7411 10.0143C30.9746 10.2666 31.0914 10.6244 31.0914 11.0876V11.4066H29.2059C29.2314 11.5976 29.3081 11.7508 29.4358 11.8662C29.5653 11.9815 29.7286 12.0392 29.9256 12.0392C30.2303 12.0392 30.4684 11.9302 30.6399 11.7121L31.0285 12.1419C30.9099 12.3077 30.7493 12.4375 30.5468 12.5312C30.3443 12.6231 30.1199 12.6691 29.8736 12.6691ZM29.7833 10.2684C29.6264 10.2684 29.4987 10.3207 29.4002 10.4252C29.3035 10.5298 29.2415 10.6794 29.2141 10.874H30.3142V10.8118C30.3106 10.6388 30.2631 10.5054 30.1719 10.4117C30.0807 10.3162 29.9512 10.2684 29.7833 10.2684Z" fill="#474747"/>
<path d="M32.8291 11.5553C32.8291 11.3733 32.8802 11.2047 32.9824 11.0497C33.0864 10.8947 33.2761 10.7226 33.5516 10.5334C33.433 10.3766 33.34 10.2297 33.2725 10.0927C33.205 9.95394 33.1712 9.80976 33.1712 9.66016C33.1712 9.35377 33.2688 9.10506 33.464 8.91401C33.6611 8.72116 33.9256 8.62474 34.2576 8.62474C34.555 8.62474 34.7986 8.71215 34.9883 8.88698C35.1799 9.0618 35.2756 9.27988 35.2756 9.54121C35.2756 9.85481 35.1151 10.1315 34.794 10.3712L34.4875 10.5902L35.1744 11.3796C35.282 11.1705 35.3358 10.9398 35.3358 10.6875H36.0091C36.0091 11.1993 35.8896 11.6139 35.6506 11.9311L36.2471 12.615H35.3495L35.1443 12.3825C34.8506 12.5736 34.513 12.6691 34.1317 12.6691C33.7377 12.6691 33.4221 12.5673 33.1849 12.3636C32.9477 12.1582 32.8291 11.8887 32.8291 11.5553ZM34.1701 12.0419C34.3598 12.0419 34.5395 11.9896 34.7092 11.8851L33.9238 10.9876L33.8663 11.0281C33.7039 11.1651 33.6227 11.3264 33.6227 11.512C33.6227 11.6688 33.6729 11.7968 33.7733 11.8959C33.8754 11.9932 34.0077 12.0419 34.1701 12.0419ZM33.88 9.64935C33.88 9.78452 33.9603 9.95484 34.1208 10.1603L34.3315 10.0224C34.4392 9.95394 34.513 9.88725 34.5532 9.82237C34.5951 9.75749 34.6161 9.67999 34.6161 9.58987C34.6161 9.49976 34.5824 9.42136 34.5149 9.35467C34.4474 9.28799 34.3607 9.25465 34.2549 9.25465C34.1418 9.25465 34.0506 9.29069 33.9812 9.36278C33.9137 9.43488 33.88 9.5304 33.88 9.64935Z" fill="#474747"/>
<path d="M40.1304 11.5823C40.1304 11.4291 40.0756 11.312 39.9662 11.2309C39.8567 11.148 39.6597 11.0615 39.3751 10.9713C39.0905 10.8794 38.8651 10.7893 38.6991 10.701C38.2467 10.4595 38.0204 10.1342 38.0204 9.72505C38.0204 9.51238 38.0806 9.32313 38.2011 9.15732C38.3233 8.98971 38.4975 8.85904 38.7237 8.76532C38.9518 8.6716 39.2072 8.62474 39.49 8.62474C39.7746 8.62474 40.0282 8.67611 40.2508 8.77884C40.4733 8.87977 40.6457 9.02305 40.768 9.20869C40.892 9.39432 40.9541 9.60519 40.9541 9.8413H40.1331C40.1331 9.66107 40.0756 9.52139 39.9607 9.42226C39.8457 9.32133 39.6843 9.27087 39.4763 9.27087C39.2756 9.27087 39.1196 9.31322 39.0084 9.39793C38.8971 9.48084 38.8414 9.59078 38.8414 9.72775C38.8414 9.85571 38.9062 9.96295 39.0357 10.0495C39.1671 10.136 39.3595 10.2171 39.6131 10.2928C40.0802 10.4315 40.4204 10.6037 40.6339 10.8091C40.8473 11.0146 40.9541 11.2705 40.9541 11.5769C40.9541 11.9175 40.8236 12.1852 40.5627 12.3798C40.3018 12.5727 39.9507 12.6691 39.5091 12.6691C39.2027 12.6691 38.9235 12.6141 38.6718 12.5042C38.42 12.3925 38.2275 12.2402 38.0943 12.0473C37.963 11.8545 37.8973 11.631 37.8973 11.3769H38.721C38.721 11.8112 38.9837 12.0284 39.5091 12.0284C39.7044 12.0284 39.8567 11.9896 39.9662 11.9121C40.0756 11.8328 40.1304 11.7229 40.1304 11.5823Z" fill="#474747"/>
<path d="M42.8232 12.6691C42.389 12.6691 42.035 12.5375 41.7614 12.2744C41.4895 12.0113 41.3536 11.6607 41.3536 11.2228V11.1471C41.3536 10.8533 41.4111 10.5911 41.526 10.3604C41.641 10.1279 41.8033 9.94943 42.0131 9.82507C42.2248 9.69891 42.4656 9.63583 42.7356 9.63583C43.1406 9.63583 43.459 9.76199 43.6907 10.0143C43.9242 10.2666 44.0409 10.6244 44.0409 11.0876V11.4066H42.1554C42.181 11.5976 42.2576 11.7508 42.3853 11.8662C42.5148 11.9815 42.6781 12.0392 42.8752 12.0392C43.1798 12.0392 43.4179 11.9302 43.5894 11.7121L43.978 12.1419C43.8594 12.3077 43.6989 12.4375 43.4964 12.5312C43.2939 12.6231 43.0695 12.6691 42.8232 12.6691ZM42.7329 10.2684C42.576 10.2684 42.4482 10.3207 42.3497 10.4252C42.253 10.5298 42.191 10.6794 42.1636 10.874H43.2638V10.8118C43.2601 10.6388 43.2127 10.5054 43.1214 10.4117C43.0302 10.3162 42.9007 10.2684 42.7329 10.2684Z" fill="#474747"/>
<path d="M45.7239 12.0392C45.8699 12.0392 45.9885 11.9996 46.0797 11.9203C46.1709 11.841 46.2184 11.7355 46.222 11.6039H46.9636C46.9618 11.8022 46.9071 11.9842 46.7994 12.15C46.6918 12.3141 46.544 12.442 46.3561 12.5339C46.17 12.6241 45.9639 12.6691 45.7376 12.6691C45.3144 12.6691 44.9805 12.5366 44.736 12.2717C44.4916 12.005 44.3693 11.6373 44.3693 11.1687V11.1173C44.3693 10.6667 44.4907 10.3072 44.7333 10.0386C44.9759 9.7701 45.3089 9.63583 45.7322 9.63583C46.1025 9.63583 46.399 9.74037 46.6215 9.94943C46.8459 10.1567 46.96 10.4334 46.9636 10.7794H46.222C46.2184 10.628 46.1709 10.5054 46.0797 10.4117C45.9885 10.3162 45.8681 10.2684 45.7185 10.2684C45.5342 10.2684 45.3946 10.3351 45.2998 10.4685C45.2067 10.6001 45.1602 10.8145 45.1602 11.1119V11.193C45.1602 11.494 45.2067 11.7103 45.2998 11.8419C45.3928 11.9734 45.5342 12.0392 45.7239 12.0392Z" fill="#474747"/>
<path d="M49.1885 12.3177C48.9933 12.552 48.7232 12.6691 48.3784 12.6691C48.061 12.6691 47.8183 12.579 47.6505 12.3988C47.4845 12.2185 47.3996 11.9545 47.396 11.6067V9.6899H48.1869V11.5796C48.1869 11.8842 48.3274 12.0365 48.6083 12.0365C48.8765 12.0365 49.0608 11.9446 49.1611 11.7607V9.6899H49.9547V12.615H49.2104L49.1885 12.3177Z" fill="#474747"/>
<path d="M52.2151 10.4225C52.1075 10.4081 52.0126 10.4009 51.9305 10.4009C51.6313 10.4009 51.4352 10.5009 51.3422 10.701V12.615H50.5513V9.6899H51.2984L51.3203 10.0386C51.479 9.7701 51.6988 9.63583 51.9798 9.63583C52.0674 9.63583 52.1495 9.64755 52.2261 9.67098L52.2151 10.4225Z" fill="#474747"/>
<path d="M53.9063 12.6691C53.4721 12.6691 53.1182 12.5375 52.8446 12.2744C52.5727 12.0113 52.4368 11.6607 52.4368 11.2228V11.1471C52.4368 10.8533 52.4943 10.5911 52.6092 10.3604C52.7241 10.1279 52.8865 9.94943 53.0963 9.82507C53.3079 9.69891 53.5488 9.63583 53.8188 9.63583C54.2238 9.63583 54.5421 9.76199 54.7738 10.0143C55.0074 10.2666 55.1241 10.6244 55.1241 11.0876V11.4066H53.2386C53.2642 11.5976 53.3408 11.7508 53.4685 11.8662C53.598 11.9815 53.7613 12.0392 53.9583 12.0392C54.263 12.0392 54.5011 11.9302 54.6726 11.7121L55.0612 12.1419C54.9426 12.3077 54.7821 12.4375 54.5795 12.5312C54.377 12.6231 54.1526 12.6691 53.9063 12.6691ZM53.816 10.2684C53.6591 10.2684 53.5314 10.3207 53.4329 10.4252C53.3362 10.5298 53.2742 10.6794 53.2468 10.874H54.3469V10.8118C54.3433 10.6388 54.2959 10.5054 54.2046 10.4117C54.1134 10.3162 53.9839 10.2684 53.816 10.2684Z" fill="#474747"/>
<path d="M21.2393 16.0182C20.8888 15.9187 20.6334 15.7967 20.473 15.6524C20.3141 15.5066 20.2346 15.3271 20.2346 15.1141C20.2346 14.873 20.3318 14.6739 20.5262 14.5169C20.722 14.3585 20.976 14.2793 21.2882 14.2793C21.5011 14.2793 21.6905 14.3199 21.8565 14.4013C22.024 14.4826 22.1531 14.5947 22.2439 14.7377C22.3361 14.8807 22.3822 15.037 22.3822 15.2066H21.9715C21.9715 15.0215 21.9119 14.8765 21.7927 14.7713C21.6735 14.6648 21.5053 14.6115 21.2882 14.6115C21.0867 14.6115 20.9292 14.6557 20.8157 14.744C20.7036 14.8309 20.6475 14.9522 20.6475 15.1078C20.6475 15.2325 20.7008 15.3383 20.8072 15.4253C20.915 15.5108 21.0974 15.5893 21.3542 15.6608C21.6125 15.7323 21.8139 15.8115 21.9587 15.8984C22.1048 15.9839 22.2127 16.0841 22.2822 16.199C22.3532 16.314 22.3886 16.4493 22.3886 16.6049C22.3886 16.853 22.2907 17.052 22.0949 17.202C21.8991 17.3506 21.6373 17.4249 21.3095 17.4249C21.0967 17.4249 20.898 17.385 20.7135 17.3051C20.5291 17.2238 20.3865 17.113 20.2857 16.9728C20.1864 16.8327 20.1367 16.6736 20.1367 16.4955H20.5475C20.5475 16.6806 20.6163 16.827 20.754 16.935C20.893 17.0415 21.0782 17.0948 21.3095 17.0948C21.5252 17.0948 21.6905 17.0513 21.8054 16.9644C21.9204 16.8775 21.9778 16.7591 21.9778 16.6091C21.9778 16.4591 21.9246 16.3434 21.8182 16.2621C21.7118 16.1794 21.5188 16.0981 21.2393 16.0182Z" fill="#474747"/>
<path d="M23.8275 16.0182C23.477 15.9187 23.2216 15.7967 23.0612 15.6524C22.9023 15.5066 22.8228 15.3271 22.8228 15.1141C22.8228 14.873 22.92 14.6739 23.1144 14.5169C23.3103 14.3585 23.5642 14.2793 23.8764 14.2793C24.0893 14.2793 24.2787 14.3199 24.4447 14.4013C24.6122 14.4826 24.7413 14.5947 24.8321 14.7377C24.9243 14.8807 24.9704 15.037 24.9704 15.2066H24.5597C24.5597 15.0215 24.5001 14.8765 24.3809 14.7713C24.2617 14.6648 24.0935 14.6115 23.8764 14.6115C23.6749 14.6115 23.5174 14.6557 23.4039 14.744C23.2918 14.8309 23.2358 14.9522 23.2358 15.1078C23.2358 15.2325 23.289 15.3383 23.3954 15.4253C23.5032 15.5108 23.6856 15.5893 23.9424 15.6608C24.2007 15.7323 24.4022 15.8115 24.5469 15.8984C24.693 15.9839 24.8009 16.0841 24.8704 16.199C24.9414 16.314 24.9768 16.4493 24.9768 16.6049C24.9768 16.853 24.8789 17.052 24.6831 17.202C24.4873 17.3506 24.2255 17.4249 23.8977 17.4249C23.6849 17.4249 23.4862 17.385 23.3017 17.3051C23.1173 17.2238 22.9747 17.113 22.8739 16.9728C22.7746 16.8327 22.7249 16.6736 22.7249 16.4955H23.1357C23.1357 16.6806 23.2045 16.827 23.3422 16.935C23.4812 17.0415 23.6664 17.0948 23.8977 17.0948C24.1134 17.0948 24.2787 17.0513 24.3936 16.9644C24.5086 16.8775 24.566 16.7591 24.566 16.6091C24.566 16.4591 24.5128 16.3434 24.4064 16.2621C24.3 16.1794 24.107 16.0981 23.8275 16.0182Z" fill="#474747"/>
<path d="M25.9134 17.0527H27.382V17.3829H25.5026V14.3214H25.9134V17.0527Z" fill="#474747"/>
<path d="M30.6811 15.9678H29.338V17.0527H30.8982V17.3829H28.9294V14.3214H30.8769V14.6536H29.338V15.6376H30.6811V15.9678Z" fill="#474747"/>
<path d="M33.7887 17.3829H33.3779L31.8177 15.0236V17.3829H31.4069V14.3214H31.8177L33.3821 16.6911V14.3214H33.7887V17.3829Z" fill="#474747"/>
<path d="M36.794 16.4114C36.7557 16.7352 36.6344 16.9855 36.4301 17.1621C36.2272 17.3373 35.9568 17.4249 35.6191 17.4249C35.253 17.4249 34.9593 17.2952 34.7379 17.0359C34.518 16.7766 34.408 16.4296 34.408 15.9951V15.7007C34.408 15.4161 34.4591 15.1659 34.5613 14.9501C34.6649 14.7342 34.811 14.5688 34.9997 14.4538C35.1885 14.3375 35.407 14.2793 35.6553 14.2793C35.9845 14.2793 36.2484 14.3704 36.4471 14.5526C36.6458 14.7335 36.7614 14.9844 36.794 15.3054H36.3832C36.3478 15.0615 36.2704 14.8849 36.1512 14.7755C36.0335 14.6662 35.8682 14.6115 35.6553 14.6115C35.3942 14.6115 35.1892 14.7068 35.0402 14.8975C34.8926 15.0881 34.8188 15.3594 34.8188 15.7112V16.0077C34.8188 16.3399 34.8891 16.6042 35.0295 16.8004C35.17 16.9967 35.3666 17.0948 35.6191 17.0948C35.8462 17.0948 36.02 17.0443 36.1406 16.9434C36.2626 16.8411 36.3435 16.6637 36.3832 16.4114H36.794Z" fill="#474747"/>
<path d="M38.4904 16.1444H37.7625V17.3829H37.3517V14.3214H38.3776C38.7267 14.3214 38.9949 14.3999 39.1822 14.5569C39.3709 14.7139 39.4653 14.9423 39.4653 15.2423C39.4653 15.433 39.4128 15.5991 39.3078 15.7407C39.2042 15.8822 39.0594 15.9881 38.8735 16.0582L39.6015 17.3576V17.3829H39.163L38.4904 16.1444ZM37.7625 15.8143H38.3904C38.5933 15.8143 38.7544 15.7624 38.8735 15.6587C38.9942 15.5549 39.0545 15.4161 39.0545 15.2423C39.0545 15.0531 38.997 14.908 38.8821 14.8071C38.7685 14.7061 38.6039 14.655 38.3883 14.6536H37.7625V15.8143Z" fill="#474747"/>
<path d="M40.8828 15.8584L41.6916 14.3214H42.1556L41.0871 16.2411V17.3829H40.6785V16.2411L39.61 14.3214H40.0783L40.8828 15.8584Z" fill="#474747"/>
<path d="M42.9644 16.1843V17.3829H42.5558V14.3214H43.6988C44.0379 14.3214 44.3032 14.4069 44.4948 14.5779C44.6878 14.7489 44.7843 14.9753 44.7843 15.257C44.7843 15.5542 44.6899 15.7834 44.5012 15.9446C44.3139 16.1044 44.045 16.1843 43.6945 16.1843H42.9644ZM42.9644 15.8542H43.6988C43.9173 15.8542 44.0847 15.8037 44.2011 15.7028C44.3174 15.6005 44.3756 15.4533 44.3756 15.2613C44.3756 15.079 44.3174 14.9332 44.2011 14.8239C44.0847 14.7146 43.9251 14.6578 43.7222 14.6536H42.9644V15.8542Z" fill="#474747"/>
<path d="M47.447 14.6536H46.4509V17.3829H46.0443V14.6536H45.0503V14.3214H47.447V14.6536Z" fill="#474747"/>
<path d="M48.3452 17.3829H47.9365V14.3214H48.3452V17.3829Z" fill="#474747"/>
<path d="M51.4783 15.9509C51.4783 16.2509 51.4272 16.513 51.325 16.7373C51.2229 16.9602 51.0781 17.1305 50.8908 17.2483C50.7035 17.366 50.485 17.4249 50.2353 17.4249C49.9912 17.4249 49.7748 17.366 49.5861 17.2483C49.3974 17.1291 49.2505 16.9602 49.1455 16.7415C49.0419 16.5215 48.9887 16.267 48.9859 15.9783V15.7575C48.9859 15.4631 49.0376 15.2031 49.1412 14.9774C49.2448 14.7517 49.391 14.5793 49.5797 14.4601C49.7698 14.3396 49.9869 14.2793 50.231 14.2793C50.4793 14.2793 50.6978 14.3389 50.8866 14.458C51.0767 14.5758 51.2229 14.7475 51.325 14.9732C51.4272 15.1975 51.4783 15.4589 51.4783 15.7575V15.9509ZM51.0717 15.7533C51.0717 15.3902 50.998 15.112 50.8504 14.9185C50.7028 14.7237 50.4963 14.6262 50.231 14.6262C49.9727 14.6262 49.7691 14.7237 49.6201 14.9185C49.4726 15.112 49.3966 15.3811 49.3924 15.7259V15.9509C49.3924 16.3028 49.4669 16.5796 49.6159 16.7815C49.7663 16.9819 49.9727 17.0822 50.2353 17.0822C50.4992 17.0822 50.7035 16.9876 50.8483 16.7983C50.993 16.6077 51.0675 16.335 51.0717 15.9804V15.7533Z" fill="#474747"/>
<path d="M54.473 17.3829H54.0622L52.5021 15.0236V17.3829H52.0913V14.3214H52.5021L54.0665 16.6911V14.3214H54.473V17.3829Z" fill="#474747"/>
</svg>
