<svg width="26" height="25" viewBox="0 0 26 25" fill="none" xmlns="http://www.w3.org/2000/svg">
<path d="M12.8237 0.614267L13.9174 0.0673919C14.0399 0.00858899 14.177 -0.0124118 14.3114 0.00706847C14.4459 0.0265487 14.5714 0.0856268 14.6721 0.176767L15.5909 1.00802C15.6646 1.07348 15.7517 1.12207 15.8462 1.15041C15.9406 1.17874 16.0401 1.18614 16.1377 1.17208L17.3409 0.964267C17.4743 0.942447 17.6111 0.960984 17.7339 1.0175C17.8567 1.07402 17.9598 1.16593 18.0299 1.28145L18.6588 2.32599C18.714 2.41332 18.7876 2.48748 18.8745 2.54323C18.9615 2.59898 19.0596 2.63497 19.162 2.64864L20.3706 2.78536C20.5001 2.80649 20.6207 2.86476 20.7178 2.95309C20.8149 3.04143 20.8842 3.15604 20.9174 3.28302L21.2292 4.4588C21.2537 4.55896 21.3017 4.65186 21.3692 4.72983C21.4367 4.80779 21.5218 4.8686 21.6174 4.90723L22.7112 5.38302C22.8348 5.4377 22.9395 5.52751 23.0124 5.64128C23.0854 5.75504 23.1232 5.88774 23.1213 6.02286L23.0885 7.24239C23.0849 7.34631 23.1052 7.44968 23.1478 7.54451C23.1905 7.63934 23.2544 7.72308 23.3346 7.78927L24.3409 8.55489C24.4454 8.64065 24.5217 8.75592 24.5597 8.88566C24.5978 9.01541 24.5958 9.15361 24.5541 9.28223L24.1823 10.4416C24.1505 10.539 24.1414 10.6423 24.1556 10.7437C24.1698 10.8451 24.207 10.9419 24.2643 11.0268L24.9534 12.033C25.0279 12.1458 25.0677 12.2779 25.0677 12.4131C25.0677 12.5483 25.0279 12.6804 24.9534 12.7932L24.2643 13.7994C24.2069 13.8853 24.1697 13.983 24.1555 14.0853C24.1413 14.1876 24.1504 14.2918 24.1823 14.39L24.5541 15.5494C24.5958 15.678 24.5978 15.8162 24.5597 15.946C24.5217 16.0757 24.4454 16.191 24.3409 16.2768L23.4002 17.0479C23.3194 17.1135 23.255 17.1971 23.2123 17.2921C23.1696 17.387 23.1496 17.4907 23.1542 17.5947L23.187 18.8088C23.1903 18.9442 23.153 19.0775 23.0799 19.1916C23.0068 19.3056 22.9013 19.3952 22.7768 19.4486L21.6831 19.9244C21.5881 19.9642 21.5037 20.0253 21.4363 20.1031C21.369 20.1809 21.3205 20.2732 21.2948 20.3729L20.9831 21.5541C20.9498 21.6811 20.8805 21.7957 20.7834 21.884C20.6863 21.9724 20.5657 22.0306 20.4362 22.0518L19.2276 22.1885C19.1249 22.201 19.0263 22.2366 18.9392 22.2924C18.8521 22.3483 18.7787 22.423 18.7245 22.5111L18.0956 23.5557C18.0257 23.6713 17.9225 23.7629 17.7995 23.8186C17.6764 23.8742 17.5394 23.8913 17.4065 23.8674L16.1377 23.6541C16.0397 23.6408 15.94 23.649 15.8455 23.6783C15.7511 23.7076 15.6641 23.7572 15.5909 23.8236L14.694 24.6439C14.5944 24.7371 14.4687 24.7975 14.3338 24.8171C14.1989 24.8366 14.0612 24.8144 13.9393 24.7533L12.8456 24.2064C12.7538 24.1607 12.6527 24.1369 12.5502 24.1369C12.4477 24.1369 12.3467 24.1607 12.2549 24.2064L11.1612 24.7533C11.0393 24.8144 10.9016 24.8366 10.7667 24.8171C10.6317 24.7975 10.506 24.7371 10.4065 24.6439L9.50962 23.8236C9.43634 23.7572 9.34942 23.7076 9.25495 23.6783C9.16048 23.649 9.06074 23.6408 8.96274 23.6541L7.75962 23.8619C7.62671 23.8858 7.48968 23.8688 7.36665 23.8131C7.24362 23.7575 7.14037 23.6658 7.07055 23.5502L6.44165 22.5057C6.38796 22.4182 6.31541 22.3439 6.22931 22.2881C6.14321 22.2322 6.04573 22.1963 5.94399 22.183L4.72993 22.0463C4.60039 22.0252 4.47977 21.9669 4.3827 21.8786C4.28562 21.7902 4.21627 21.6756 4.18305 21.5486L3.87134 20.3674C3.84558 20.2678 3.79713 20.1754 3.72977 20.0976C3.66241 20.0199 3.57797 19.9587 3.48305 19.9189L2.36196 19.4432C2.23751 19.3897 2.13192 19.3001 2.05882 19.1861C1.98572 19.0721 1.94844 18.9387 1.9518 18.8033L1.91899 17.5893C1.92349 17.4852 1.90358 17.3816 1.86085 17.2866C1.81812 17.1917 1.75375 17.108 1.6729 17.0424L0.732272 16.2713C0.627739 16.1855 0.551476 16.0703 0.513431 15.9405C0.475385 15.8108 0.477323 15.6726 0.518991 15.544L0.890866 14.3846C0.924222 14.2883 0.935641 14.1858 0.924286 14.0846C0.912932 13.9833 0.879092 13.8859 0.825241 13.7994L0.114303 12.7932C0.0397503 12.6804 0 12.5483 0 12.4131C0 12.2779 0.0397503 12.1458 0.114303 12.033L0.825241 11.0268C0.882552 10.9419 0.919732 10.8451 0.933948 10.7437C0.948164 10.6423 0.93904 10.539 0.907272 10.4416L0.535398 9.28223C0.493729 9.15361 0.491792 9.01541 0.529837 8.88566C0.567883 8.75592 0.644146 8.64065 0.748678 8.55489L1.6893 7.7838C1.76951 7.71761 1.83342 7.63387 1.87609 7.53904C1.91876 7.44421 1.93905 7.34084 1.9354 7.23692L1.90259 6.01739C1.90068 5.88227 1.93854 5.74957 2.01147 5.63581C2.0844 5.52204 2.18917 5.43223 2.31274 5.37755L3.43384 4.90177C3.52946 4.86313 3.61453 4.80233 3.68204 4.72436C3.74955 4.64639 3.79756 4.55349 3.82212 4.45333L4.10649 3.28302C4.13971 3.15604 4.20906 3.04143 4.30613 2.95309C4.40321 2.86476 4.52383 2.80649 4.65337 2.78536L5.86743 2.64864C5.96883 2.63421 6.06587 2.59787 6.15181 2.54215C6.23775 2.48643 6.31053 2.41267 6.36509 2.32599L6.99399 1.28145C7.06416 1.16593 7.16725 1.07402 7.29002 1.0175C7.4128 0.960984 7.54967 0.942447 7.68305 0.964267L8.88618 1.17208C8.98378 1.18614 9.08327 1.17874 9.17772 1.15041C9.27217 1.12207 9.35931 1.07348 9.43305 1.00802L10.3299 0.182236C10.4306 0.0910956 10.5562 0.0320176 10.6906 0.0125373C10.825 -0.0069429 10.9622 0.0140579 11.0846 0.0728608L12.1784 0.619736C12.2785 0.670664 12.3894 0.696753 12.5017 0.695801C12.614 0.694849 12.7244 0.666884 12.8237 0.614267Z" fill="url(#paint0_linear)"/>
<path d="M23.0063 12.4212C23.0102 12.8452 22.9865 13.269 22.9352 13.6899C22.8874 14.1522 22.8088 14.6107 22.7001 15.0626C22.6508 15.254 22.5962 15.4454 22.536 15.6094C22.428 15.9573 22.3002 16.2988 22.1532 16.6321C21.8391 17.3489 21.4446 18.0277 20.9774 18.6555C20.5882 19.1869 20.1467 19.6779 19.6594 20.1212C17.7398 21.8991 15.2231 22.8923 12.6066 22.9044C9.99011 22.9166 7.46426 21.9468 5.52819 20.1868C5.04741 19.7507 4.60803 19.271 4.21569 18.754C3.47763 17.7667 2.92201 16.6555 2.57506 15.4727C2.40219 14.9123 2.27957 14.3377 2.20865 13.7555C2.15446 13.3274 2.12525 12.8964 2.12115 12.4649C2.11173 9.69318 3.20375 7.03124 5.15698 5.06467C7.11022 3.09811 9.76467 1.988 12.5364 1.97858C15.3081 1.96915 17.9701 3.06117 19.9366 5.0144C21.9032 6.96764 23.0133 9.62209 23.0227 12.3938L23.0063 12.4212Z" fill="url(#paint1_linear)"/>
<path d="M22.5092 12.4486C22.5097 12.8523 22.4878 13.2558 22.4436 13.6572C22.3901 14.0995 22.3078 14.5379 22.1975 14.9697C22.1483 15.1501 22.0991 15.3306 22.0389 15.5165C21.9364 15.8481 21.814 16.1731 21.6725 16.49C21.38 17.17 21.0132 17.8156 20.5788 18.415C20.2035 18.9193 19.7824 19.388 19.3209 19.815C17.4895 21.5019 15.0928 22.4419 12.6029 22.45C10.1129 22.4581 7.7102 21.5337 5.86782 19.8587C5.4116 19.4417 4.99426 18.9841 4.62094 18.4915C3.57482 17.1086 2.90923 15.4758 2.69047 13.7556C2.6312 13.3497 2.5965 12.9406 2.58657 12.5306C2.55108 11.2032 2.7813 9.88201 3.26368 8.64481C3.74605 7.40761 4.47087 6.27931 5.39551 5.32622C6.32016 4.37312 7.42599 3.61447 8.64802 3.09484C9.87004 2.57522 11.1836 2.3051 12.5115 2.30036C13.8394 2.29562 15.1549 2.55636 16.3806 3.06725C17.6063 3.57814 18.7175 4.32889 19.6489 5.27535C20.5804 6.22182 21.3132 7.34492 21.8044 8.57865C22.2956 9.81238 22.5352 11.1318 22.5092 12.4595V12.4486Z" fill="#292C2B"/>
<path d="M14.4785 19.1903C18.1842 18.1207 20.3211 14.2496 19.2515 10.5439C18.182 6.83824 14.3109 4.70128 10.6052 5.77087C6.89954 6.84045 4.76258 10.7116 5.83216 14.4172C6.90174 18.1229 10.7728 20.2598 14.4785 19.1903Z" fill="url(#paint2_linear)"/>
<path style="mix-blend-mode:multiply" d="M14.4785 19.1903C18.1842 18.1207 20.3211 14.2496 19.2515 10.5439C18.182 6.83824 14.3109 4.70128 10.6052 5.77087C6.89954 6.84045 4.76258 10.7116 5.83216 14.4172C6.90174 18.1229 10.7728 20.2598 14.4785 19.1903Z" fill="url(#paint3_radial)"/>
<path d="M6.91211 10.6386C7.09823 10.6613 7.28602 10.6123 7.43735 10.5016C7.58868 10.3909 7.69222 10.2267 7.72695 10.0425H8.22461V14.762H7.48086V11.1636H6.93398L6.91211 10.6386Z" fill="black"/>
<path d="M9.05521 11.1747C9.03318 11.0189 9.04662 10.8602 9.09454 10.7103C9.14245 10.5605 9.22359 10.4234 9.33191 10.3093C9.44022 10.1952 9.57292 10.107 9.72008 10.0514C9.86724 9.99574 10.0251 9.97407 10.1818 9.98798C10.3382 9.97512 10.4956 9.99752 10.6423 10.0535C10.7889 10.1095 10.9212 10.1977 11.0293 10.3115C11.1373 10.4254 11.2185 10.562 11.2668 10.7114C11.3151 10.8608 11.3293 11.0191 11.3083 11.1747V13.6247C11.3293 13.7803 11.3151 13.9386 11.2668 14.088C11.2185 14.2373 11.1373 14.374 11.0293 14.4878C10.9212 14.6017 10.7889 14.6899 10.6423 14.7459C10.4956 14.8019 10.3382 14.8243 10.1818 14.8114C10.0251 14.8253 9.86724 14.8036 9.72008 14.748C9.57292 14.6924 9.44022 14.6042 9.33191 14.4901C9.22359 14.376 9.14245 14.2389 9.09454 14.0891C9.04662 13.9392 9.03318 13.7805 9.05521 13.6247V11.1747ZM9.7935 13.6794C9.7935 14.013 9.94115 14.1442 10.1818 14.1442C10.4224 14.1442 10.5646 14.013 10.5646 13.6794V11.1309C10.5646 10.7919 10.4169 10.6661 10.1818 10.6661C9.94662 10.6661 9.7935 10.7919 9.7935 11.1309V13.6794Z" fill="black"/>
<path d="M11.7188 11.1744C11.7187 11.0265 11.7479 10.88 11.8045 10.7433C11.8611 10.6066 11.9441 10.4824 12.0487 10.3778C12.1533 10.2732 12.2775 10.1902 12.4142 10.1336C12.5509 10.077 12.6974 10.0479 12.8453 10.0479C12.9933 10.0479 13.1397 10.077 13.2764 10.1336C13.4131 10.1902 13.5373 10.2732 13.6419 10.3778C13.7465 10.4824 13.8295 10.6066 13.8861 10.7433C13.9427 10.88 13.9719 11.0265 13.9719 11.1744V13.6244C13.9719 13.9232 13.8532 14.2097 13.6419 14.421C13.4306 14.6323 13.1441 14.751 12.8453 14.751C12.5465 14.751 12.26 14.6323 12.0487 14.421C11.8374 14.2097 11.7188 13.9232 11.7188 13.6244V11.1744ZM12.457 13.6791C12.457 14.0127 12.6102 14.1439 12.8453 14.1439C13.0805 14.1439 13.2281 14.0127 13.2281 13.6791V11.1307C13.2281 10.7916 13.0805 10.6658 12.8453 10.6658C12.6102 10.6658 12.457 10.7916 12.457 11.1307V13.6791Z" fill="black"/>
<path d="M14.3984 10.7644C14.3984 10.6703 14.417 10.5771 14.453 10.4902C14.489 10.4033 14.5417 10.3243 14.6083 10.2578C14.6748 10.1913 14.7538 10.1385 14.8407 10.1025C14.9276 10.0665 15.0208 10.0479 15.1148 10.0479C15.2089 10.0479 15.3021 10.0665 15.389 10.1025C15.4759 10.1385 15.5549 10.1913 15.6214 10.2578C15.6879 10.3243 15.7407 10.4033 15.7767 10.4902C15.8127 10.5771 15.8312 10.6703 15.8312 10.7644V12.3175C15.8312 12.4116 15.8127 12.5047 15.7767 12.5916C15.7407 12.6786 15.6879 12.7575 15.6214 12.8241C15.5549 12.8906 15.4759 12.9434 15.389 12.9794C15.3021 13.0154 15.2089 13.0339 15.1148 13.0339C15.0208 13.0339 14.9276 13.0154 14.8407 12.9794C14.7538 12.9434 14.6748 12.8906 14.6083 12.8241C14.5417 12.7575 14.489 12.6786 14.453 12.5916C14.417 12.5047 14.3984 12.4116 14.3984 12.3175V10.7644ZM14.8742 12.3503C14.8742 12.5581 14.9617 12.6456 15.1148 12.6456C15.268 12.6456 15.3609 12.5581 15.3609 12.3503V10.7097C15.3609 10.5019 15.2625 10.4144 15.1148 10.4144C14.9672 10.4144 14.8742 10.5019 14.8742 10.7097V12.3503ZM16.9742 10.0425H17.4172L15.5523 14.762H15.1148L16.9742 10.0425ZM16.7391 12.4925C16.7391 12.3984 16.7576 12.3052 16.7936 12.2183C16.8296 12.1314 16.8824 12.0524 16.9489 11.9859C17.0154 11.9194 17.0944 11.8666 17.1813 11.8306C17.2682 11.7946 17.3614 11.7761 17.4555 11.7761C17.5495 11.7761 17.6427 11.7946 17.7296 11.8306C17.8165 11.8666 17.8955 11.9194 17.962 11.9859C18.0286 12.0524 18.0813 12.1314 18.1173 12.2183C18.1533 12.3052 18.1719 12.3984 18.1719 12.4925V14.0401C18.1719 14.1342 18.1533 14.2274 18.1173 14.3143C18.0813 14.4012 18.0286 14.4802 17.962 14.5467C17.8955 14.6132 17.8165 14.666 17.7296 14.702C17.6427 14.738 17.5495 14.7566 17.4555 14.7566C17.3614 14.7566 17.2682 14.738 17.1813 14.702C17.0944 14.666 17.0154 14.6132 16.9489 14.5467C16.8824 14.4802 16.8296 14.4012 16.7936 14.3143C16.7576 14.2274 16.7391 14.1342 16.7391 14.0401V12.4925ZM17.2148 14.0784C17.2148 14.2862 17.3023 14.3737 17.4555 14.3737C17.6086 14.3737 17.6961 14.2862 17.6961 14.0784V12.4378C17.6961 12.2245 17.6031 12.137 17.4555 12.137C17.3078 12.137 17.2148 12.2245 17.2148 12.4378V14.0784Z" fill="black"/>
<path d="M6.91211 10.6386C7.09823 10.6613 7.28602 10.6123 7.43735 10.5016C7.58868 10.3909 7.69222 10.2267 7.72695 10.0425H8.22461V14.762H7.48086V11.1636H6.93398L6.91211 10.6386Z" fill="#282A2C"/>
<path d="M9.05521 11.1747C9.03318 11.0189 9.04662 10.8602 9.09454 10.7103C9.14245 10.5605 9.22359 10.4234 9.33191 10.3093C9.44022 10.1952 9.57292 10.107 9.72008 10.0514C9.86724 9.99574 10.0251 9.97407 10.1818 9.98798C10.3382 9.97512 10.4956 9.99752 10.6423 10.0535C10.7889 10.1095 10.9212 10.1977 11.0293 10.3115C11.1373 10.4254 11.2185 10.562 11.2668 10.7114C11.3151 10.8608 11.3293 11.0191 11.3083 11.1747V13.6247C11.3293 13.7803 11.3151 13.9386 11.2668 14.088C11.2185 14.2373 11.1373 14.374 11.0293 14.4878C10.9212 14.6017 10.7889 14.6899 10.6423 14.7459C10.4956 14.8019 10.3382 14.8243 10.1818 14.8114C10.0251 14.8253 9.86724 14.8036 9.72008 14.748C9.57292 14.6924 9.44022 14.6042 9.33191 14.4901C9.22359 14.376 9.14245 14.2389 9.09454 14.0891C9.04662 13.9392 9.03318 13.7805 9.05521 13.6247V11.1747ZM9.7935 13.6794C9.7935 14.013 9.94115 14.1442 10.1818 14.1442C10.4224 14.1442 10.5646 14.013 10.5646 13.6794V11.1309C10.5646 10.7919 10.4169 10.6661 10.1818 10.6661C9.94662 10.6661 9.7935 10.7919 9.7935 11.1309V13.6794Z" fill="#282A2C"/>
<path d="M11.7188 11.1744C11.7187 11.0265 11.7479 10.88 11.8045 10.7433C11.8611 10.6066 11.9441 10.4824 12.0487 10.3778C12.1533 10.2732 12.2775 10.1902 12.4142 10.1336C12.5509 10.077 12.6974 10.0479 12.8453 10.0479C12.9933 10.0479 13.1397 10.077 13.2764 10.1336C13.4131 10.1902 13.5373 10.2732 13.6419 10.3778C13.7465 10.4824 13.8295 10.6066 13.8861 10.7433C13.9427 10.88 13.9719 11.0265 13.9719 11.1744V13.6244C13.9719 13.9232 13.8532 14.2097 13.6419 14.421C13.4306 14.6323 13.1441 14.751 12.8453 14.751C12.5465 14.751 12.26 14.6323 12.0487 14.421C11.8374 14.2097 11.7188 13.9232 11.7188 13.6244V11.1744ZM12.457 13.6791C12.457 14.0127 12.6102 14.1439 12.8453 14.1439C13.0805 14.1439 13.2281 14.0127 13.2281 13.6791V11.1307C13.2281 10.7916 13.0805 10.6658 12.8453 10.6658C12.6102 10.6658 12.457 10.7916 12.457 11.1307V13.6791Z" fill="#282A2C"/>
<path d="M14.3984 10.7644C14.3984 10.6703 14.417 10.5771 14.453 10.4902C14.489 10.4033 14.5417 10.3243 14.6083 10.2578C14.6748 10.1913 14.7538 10.1385 14.8407 10.1025C14.9276 10.0665 15.0208 10.0479 15.1148 10.0479C15.2089 10.0479 15.3021 10.0665 15.389 10.1025C15.4759 10.1385 15.5549 10.1913 15.6214 10.2578C15.6879 10.3243 15.7407 10.4033 15.7767 10.4902C15.8127 10.5771 15.8312 10.6703 15.8312 10.7644V12.3175C15.8312 12.4116 15.8127 12.5047 15.7767 12.5916C15.7407 12.6786 15.6879 12.7575 15.6214 12.8241C15.5549 12.8906 15.4759 12.9434 15.389 12.9794C15.3021 13.0154 15.2089 13.0339 15.1148 13.0339C15.0208 13.0339 14.9276 13.0154 14.8407 12.9794C14.7538 12.9434 14.6748 12.8906 14.6083 12.8241C14.5417 12.7575 14.489 12.6786 14.453 12.5916C14.417 12.5047 14.3984 12.4116 14.3984 12.3175V10.7644ZM14.8742 12.3503C14.8742 12.5581 14.9617 12.6456 15.1148 12.6456C15.268 12.6456 15.3609 12.5581 15.3609 12.3503V10.7097C15.3609 10.5019 15.2625 10.4144 15.1148 10.4144C14.9672 10.4144 14.8742 10.5019 14.8742 10.7097V12.3503ZM16.9742 10.0425H17.4172L15.5523 14.762H15.1148L16.9742 10.0425ZM16.7391 12.4925C16.7391 12.3984 16.7576 12.3052 16.7936 12.2183C16.8296 12.1314 16.8824 12.0524 16.9489 11.9859C17.0154 11.9194 17.0944 11.8666 17.1813 11.8306C17.2682 11.7946 17.3614 11.7761 17.4555 11.7761C17.5495 11.7761 17.6427 11.7946 17.7296 11.8306C17.8165 11.8666 17.8955 11.9194 17.962 11.9859C18.0286 12.0524 18.0813 12.1314 18.1173 12.2183C18.1533 12.3052 18.1719 12.3984 18.1719 12.4925V14.0401C18.1719 14.1342 18.1533 14.2274 18.1173 14.3143C18.0813 14.4012 18.0286 14.4802 17.962 14.5467C17.8955 14.6132 17.8165 14.666 17.7296 14.702C17.6427 14.738 17.5495 14.7566 17.4555 14.7566C17.3614 14.7566 17.2682 14.738 17.1813 14.702C17.0944 14.666 17.0154 14.6132 16.9489 14.5467C16.8824 14.4802 16.8296 14.4012 16.7936 14.3143C16.7576 14.2274 16.7391 14.1342 16.7391 14.0401V12.4925ZM17.2148 14.0784C17.2148 14.2862 17.3023 14.3737 17.4555 14.3737C17.6086 14.3737 17.6961 14.2862 17.6961 14.0784V12.4378C17.6961 12.2245 17.6031 12.137 17.4555 12.137C17.3078 12.137 17.2148 12.2245 17.2148 12.4378V14.0784Z" fill="#282A2C"/>
<path d="M6.54062 7.56524C6.66492 7.52917 6.77668 7.45909 6.86327 7.36289C7.01093 7.2043 7.01093 7.04024 6.89062 6.93086C6.7703 6.82149 6.65546 6.83242 6.44765 6.93086C6.23983 7.0293 5.99374 7.09492 5.82968 6.93086C5.78427 6.88595 5.74873 6.83206 5.72533 6.77264C5.70192 6.71322 5.69116 6.64958 5.69373 6.58577C5.69631 6.52195 5.71216 6.45938 5.74027 6.40204C5.76839 6.3447 5.80815 6.29385 5.85702 6.25274C5.93541 6.15864 6.0373 6.08694 6.15233 6.04492L6.23983 6.19805C6.13889 6.23313 6.04854 6.29336 5.97733 6.37305C5.82968 6.53711 5.86796 6.68477 5.94999 6.75586C6.03202 6.82696 6.18515 6.83789 6.39296 6.75586C6.60077 6.67383 6.84687 6.61367 7.02187 6.75586C7.07011 6.8046 7.10764 6.86287 7.13205 6.92696C7.15645 6.99104 7.1672 7.05952 7.16359 7.128C7.15999 7.19648 7.14212 7.26345 7.11112 7.32462C7.08012 7.38579 7.03668 7.43981 6.98359 7.48321C6.88828 7.58947 6.76799 7.67029 6.63359 7.71836L6.54062 7.56524Z" fill="white"/>
<path d="M7.43144 6.30703L7.61191 6.81016L7.44238 6.94141L6.89551 5.34453L7.09238 5.19141L8.48144 6.11016L8.30644 6.24688L7.87988 5.96797L7.43144 6.30703ZM7.74863 5.85859L7.33848 5.59062C7.24551 5.53047 7.16894 5.47031 7.09238 5.41562C7.13721 5.50576 7.17559 5.59896 7.20723 5.69453L7.37129 6.15391L7.74863 5.85859Z" fill="white"/>
<path d="M8.1043 4.71006L7.6832 4.95068L7.5957 4.79756L8.62383 4.2124L8.71133 4.36553L8.28476 4.60615L8.99023 5.84756L8.80976 5.96787L8.1043 4.71006Z" fill="white"/>
<path d="M9.18164 3.98291L9.79961 5.46494L9.6082 5.5415L8.99023 4.06494L9.18164 3.98291Z" fill="white"/>
<path d="M10.035 5.09304C10.1619 5.12878 10.2963 5.12878 10.4233 5.09304C10.6256 5.03835 10.7131 4.89616 10.6694 4.74304C10.6256 4.58991 10.5272 4.53523 10.2975 4.51335C10.0678 4.49148 9.82717 4.40944 9.75061 4.19069C9.73803 4.12949 9.73808 4.06636 9.75074 4.00517C9.7634 3.94398 9.78842 3.88601 9.82425 3.83482C9.86009 3.78363 9.90599 3.74029 9.95915 3.70745C10.0123 3.67461 10.0716 3.65296 10.1334 3.64382C10.2521 3.61547 10.3757 3.61547 10.4944 3.64382V3.78054C10.3904 3.75294 10.2811 3.75294 10.1772 3.78054C9.96389 3.84069 9.92014 3.98835 9.95295 4.09226C9.98576 4.19616 10.1061 4.28366 10.3412 4.30554C10.5764 4.32741 10.7951 4.42585 10.8608 4.65554C10.9264 4.88523 10.8061 5.14773 10.4397 5.24616C10.3019 5.28411 10.1564 5.28411 10.0186 5.24616L10.035 5.09304Z" fill="white"/>
<path d="M11.1172 3.45254L11.9758 3.37598V3.55098L11.3195 3.61113L11.3688 4.15801L11.9703 4.10332V4.27285L11.3633 4.32754L11.4289 5.04941H11.2211L11.1172 3.45254Z" fill="white"/>
<path d="M12.5117 4.48066L12.3148 4.97832H12.1016L12.7359 3.40332H12.9875L13.4469 5.04395H13.2227L13.0805 4.52988L12.5117 4.48066ZM13.0586 4.34941L12.9273 3.8791C12.8988 3.78226 12.8769 3.68359 12.8617 3.58379C12.8289 3.67676 12.8016 3.7752 12.7633 3.86816L12.5828 4.32207L13.0586 4.34941Z" fill="white"/>
<path d="M14.7381 5.26254C14.5959 5.29435 14.4484 5.29435 14.3061 5.26254C14.1996 5.24615 14.0979 5.20698 14.008 5.14772C13.918 5.08846 13.8419 5.01049 13.7848 4.91913C13.7277 4.82777 13.691 4.72518 13.6771 4.61834C13.6633 4.5115 13.6726 4.40293 13.7045 4.30004C13.7229 4.1894 13.7641 4.08381 13.8257 3.99007C13.8873 3.89632 13.9678 3.8165 14.062 3.75572C14.1563 3.69494 14.2622 3.65456 14.373 3.63717C14.4838 3.61977 14.597 3.62576 14.7053 3.65473C14.8256 3.67378 14.9408 3.71653 15.0444 3.78051L14.9569 3.93363C14.8684 3.86667 14.7654 3.82168 14.6561 3.80238C14.5723 3.77879 14.4844 3.77383 14.3985 3.78784C14.3126 3.80185 14.2309 3.8345 14.1589 3.8835C14.087 3.93249 14.0267 3.99664 13.9822 4.07143C13.9377 4.14623 13.9101 4.22986 13.9014 4.31645C13.8741 4.39695 13.8647 4.48249 13.8741 4.567C13.8835 4.65151 13.9114 4.73291 13.9557 4.80545C14.0001 4.87799 14.0598 4.93989 14.1308 4.98675C14.2017 5.03361 14.2821 5.06428 14.3663 5.0766C14.4798 5.10099 14.5972 5.10099 14.7108 5.0766L14.7381 5.26254Z" fill="white"/>
<path d="M15.8205 4.20732L15.3666 4.02686L15.4322 3.86279L16.526 4.29482L16.4604 4.45889L16.0064 4.28389L15.4596 5.60732L15.2627 5.53076L15.8205 4.20732Z" fill="white"/>
<path d="M17.0455 4.5627L16.3018 5.96816L16.1377 5.8916L16.876 4.46973L17.0455 4.5627Z" fill="white"/>
<path d="M18.2263 6.28008C18.1754 6.37308 18.1056 6.45432 18.0212 6.51852C17.9369 6.58272 17.84 6.62843 17.7368 6.65268C17.6336 6.67693 17.5265 6.67917 17.4224 6.65926C17.3182 6.63934 17.2195 6.59772 17.1325 6.53711C17.0488 6.47589 16.979 6.39773 16.9275 6.30771C16.876 6.21769 16.8441 6.11783 16.8337 6.01464C16.8234 5.91146 16.835 5.80725 16.8676 5.70882C16.9002 5.61039 16.9532 5.51994 17.0232 5.44336C17.0745 5.3508 17.1447 5.27007 17.2293 5.20642C17.3138 5.14277 17.4109 5.09761 17.514 5.07389C17.6171 5.05017 17.7241 5.0484 17.828 5.06872C17.9319 5.08903 18.0303 5.13096 18.1169 5.1918C18.2012 5.25193 18.2717 5.32937 18.3236 5.41894C18.3756 5.50851 18.4078 5.60813 18.4182 5.71116C18.4285 5.81418 18.4168 5.91823 18.3837 6.01634C18.3506 6.11445 18.2969 6.20437 18.2263 6.28008ZM17.1982 5.58008C17.1455 5.63616 17.1046 5.70215 17.0777 5.77422C17.0508 5.84629 17.0385 5.92298 17.0416 5.99984C17.0446 6.0767 17.063 6.15218 17.0955 6.22189C17.128 6.29159 17.1741 6.35413 17.231 6.40586C17.499 6.59726 17.8271 6.45508 18.0404 6.15976C18.0927 6.10333 18.1332 6.03705 18.1596 5.96478C18.1861 5.89252 18.1978 5.81571 18.1943 5.73885C18.1907 5.66199 18.1719 5.5866 18.1389 5.51709C18.1059 5.44758 18.0594 5.38533 18.0021 5.33398C17.7286 5.13164 17.406 5.29023 17.1982 5.58008Z" fill="white"/>
<path d="M17.9199 7.1167L19.1012 6.02295L19.2543 6.19248L19.0027 7.1167C18.9545 7.30338 18.8923 7.48618 18.8168 7.66357C18.9654 7.50055 19.1224 7.34539 19.2871 7.19873L19.7793 6.74482L19.9106 6.88701L18.7293 7.98076L18.5871 7.82764L18.8441 6.89795C18.8939 6.70037 18.9579 6.50664 19.0355 6.31826C18.8934 6.46592 18.7512 6.59717 18.5543 6.77764L18.0512 7.24248L17.9199 7.1167Z" fill="white"/>
<path d="M6.54062 7.56524C6.66492 7.52917 6.77668 7.45909 6.86327 7.36289C7.01093 7.2043 7.01093 7.04024 6.89062 6.93086C6.7703 6.82149 6.65546 6.83242 6.44765 6.93086C6.23983 7.0293 5.99374 7.09492 5.82968 6.93086C5.78427 6.88595 5.74873 6.83206 5.72533 6.77264C5.70192 6.71322 5.69116 6.64958 5.69373 6.58577C5.69631 6.52195 5.71216 6.45938 5.74027 6.40204C5.76839 6.3447 5.80815 6.29385 5.85702 6.25274C5.93541 6.15864 6.0373 6.08694 6.15233 6.04492L6.23983 6.19805C6.13889 6.23313 6.04854 6.29336 5.97733 6.37305C5.82968 6.53711 5.86796 6.68477 5.94999 6.75586C6.03202 6.82696 6.18515 6.83789 6.39296 6.75586C6.60077 6.67383 6.84687 6.61367 7.02187 6.75586C7.07011 6.8046 7.10764 6.86287 7.13205 6.92696C7.15645 6.99104 7.1672 7.05952 7.16359 7.128C7.15999 7.19648 7.14212 7.26345 7.11112 7.32462C7.08012 7.38579 7.03668 7.43981 6.98359 7.48321C6.88828 7.58947 6.76799 7.67029 6.63359 7.71836L6.54062 7.56524Z" fill="white"/>
<path d="M7.43144 6.30703L7.61191 6.81016L7.44238 6.94141L6.89551 5.34453L7.09238 5.19141L8.48144 6.11016L8.30644 6.24688L7.87988 5.96797L7.43144 6.30703ZM7.74863 5.85859L7.33848 5.59062C7.24551 5.53047 7.16894 5.47031 7.09238 5.41562C7.13721 5.50576 7.17559 5.59896 7.20723 5.69453L7.37129 6.15391L7.74863 5.85859Z" fill="white"/>
<path d="M8.1043 4.71006L7.6832 4.95068L7.5957 4.79756L8.62383 4.2124L8.71133 4.36553L8.28476 4.60615L8.99023 5.84756L8.80976 5.96787L8.1043 4.71006Z" fill="white"/>
<path d="M9.18164 3.98291L9.79961 5.46494L9.6082 5.5415L8.99023 4.06494L9.18164 3.98291Z" fill="white"/>
<path d="M10.035 5.09304C10.1619 5.12878 10.2963 5.12878 10.4233 5.09304C10.6256 5.03835 10.7131 4.89616 10.6694 4.74304C10.6256 4.58991 10.5272 4.53523 10.2975 4.51335C10.0678 4.49148 9.82717 4.40944 9.75061 4.19069C9.73803 4.12949 9.73808 4.06636 9.75074 4.00517C9.7634 3.94398 9.78842 3.88601 9.82425 3.83482C9.86009 3.78363 9.90599 3.74029 9.95915 3.70745C10.0123 3.67461 10.0716 3.65296 10.1334 3.64382C10.2521 3.61547 10.3757 3.61547 10.4944 3.64382V3.78054C10.3904 3.75294 10.2811 3.75294 10.1772 3.78054C9.96389 3.84069 9.92014 3.98835 9.95295 4.09226C9.98576 4.19616 10.1061 4.28366 10.3412 4.30554C10.5764 4.32741 10.7951 4.42585 10.8608 4.65554C10.9264 4.88523 10.8061 5.14773 10.4397 5.24616C10.3019 5.28411 10.1564 5.28411 10.0186 5.24616L10.035 5.09304Z" fill="white"/>
<path d="M11.1172 3.45254L11.9758 3.37598V3.55098L11.3195 3.61113L11.3688 4.15801L11.9703 4.10332V4.27285L11.3633 4.32754L11.4289 5.04941H11.2211L11.1172 3.45254Z" fill="white"/>
<path d="M12.5117 4.48066L12.3148 4.97832H12.1016L12.7359 3.40332H12.9875L13.4469 5.04395H13.2227L13.0805 4.52988L12.5117 4.48066ZM13.0586 4.34941L12.9273 3.8791C12.8988 3.78226 12.8769 3.68359 12.8617 3.58379C12.8289 3.67676 12.8016 3.7752 12.7633 3.86816L12.5828 4.32207L13.0586 4.34941Z" fill="white"/>
<path d="M14.7381 5.26254C14.5959 5.29435 14.4484 5.29435 14.3061 5.26254C14.1996 5.24615 14.0979 5.20698 14.008 5.14772C13.918 5.08846 13.8419 5.01049 13.7848 4.91913C13.7277 4.82777 13.691 4.72518 13.6771 4.61834C13.6633 4.5115 13.6726 4.40293 13.7045 4.30004C13.7229 4.1894 13.7641 4.08381 13.8257 3.99007C13.8873 3.89632 13.9678 3.8165 14.062 3.75572C14.1563 3.69494 14.2622 3.65456 14.373 3.63717C14.4838 3.61977 14.597 3.62576 14.7053 3.65473C14.8256 3.67378 14.9408 3.71653 15.0444 3.78051L14.9569 3.93363C14.8684 3.86667 14.7654 3.82168 14.6561 3.80238C14.5723 3.77879 14.4844 3.77383 14.3985 3.78784C14.3126 3.80185 14.2309 3.8345 14.1589 3.8835C14.087 3.93249 14.0267 3.99664 13.9822 4.07143C13.9377 4.14623 13.9101 4.22986 13.9014 4.31645C13.8741 4.39695 13.8647 4.48249 13.8741 4.567C13.8835 4.65151 13.9114 4.73291 13.9557 4.80545C14.0001 4.87799 14.0598 4.93989 14.1308 4.98675C14.2017 5.03361 14.2821 5.06428 14.3663 5.0766C14.4798 5.10099 14.5972 5.10099 14.7108 5.0766L14.7381 5.26254Z" fill="white"/>
<path d="M15.8205 4.20732L15.3666 4.02686L15.4322 3.86279L16.526 4.29482L16.4604 4.45889L16.0064 4.28389L15.4596 5.60732L15.2627 5.53076L15.8205 4.20732Z" fill="white"/>
<path d="M17.0455 4.5627L16.3018 5.96816L16.1377 5.8916L16.876 4.46973L17.0455 4.5627Z" fill="white"/>
<path d="M18.2263 6.28008C18.1754 6.37308 18.1056 6.45432 18.0212 6.51852C17.9369 6.58272 17.84 6.62843 17.7368 6.65268C17.6336 6.67693 17.5265 6.67917 17.4224 6.65926C17.3182 6.63934 17.2195 6.59772 17.1325 6.53711C17.0488 6.47589 16.979 6.39773 16.9275 6.30771C16.876 6.21769 16.8441 6.11783 16.8337 6.01464C16.8234 5.91146 16.835 5.80725 16.8676 5.70882C16.9002 5.61039 16.9532 5.51994 17.0232 5.44336C17.0745 5.3508 17.1447 5.27007 17.2293 5.20642C17.3138 5.14277 17.4109 5.09761 17.514 5.07389C17.6171 5.05017 17.7241 5.0484 17.828 5.06872C17.9319 5.08903 18.0303 5.13096 18.1169 5.1918C18.2012 5.25193 18.2717 5.32937 18.3236 5.41894C18.3756 5.50851 18.4078 5.60813 18.4182 5.71116C18.4285 5.81418 18.4168 5.91823 18.3837 6.01634C18.3506 6.11445 18.2969 6.20437 18.2263 6.28008ZM17.1982 5.58008C17.1455 5.63616 17.1046 5.70215 17.0777 5.77422C17.0508 5.84629 17.0385 5.92298 17.0416 5.99984C17.0446 6.0767 17.063 6.15218 17.0955 6.22189C17.128 6.29159 17.1741 6.35413 17.231 6.40586C17.499 6.59726 17.8271 6.45508 18.0404 6.15976C18.0927 6.10333 18.1332 6.03705 18.1596 5.96478C18.1861 5.89252 18.1978 5.81571 18.1943 5.73885C18.1907 5.66199 18.1719 5.5866 18.1389 5.51709C18.1059 5.44758 18.0594 5.38533 18.0021 5.33398C17.7286 5.13164 17.406 5.29023 17.1982 5.58008Z" fill="white"/>
<path d="M17.9199 7.1167L19.1012 6.02295L19.2543 6.19248L19.0027 7.1167C18.9545 7.30338 18.8923 7.48618 18.8168 7.66357C18.9654 7.50055 19.1224 7.34539 19.2871 7.19873L19.7793 6.74482L19.9106 6.88701L18.7293 7.98076L18.5871 7.82764L18.8441 6.89795C18.8939 6.70037 18.9579 6.50664 19.0355 6.31826C18.8934 6.46592 18.7512 6.59717 18.5543 6.77764L18.0512 7.24248L17.9199 7.1167Z" fill="white"/>
<path d="M6.73112 19.5967C6.57718 19.5307 6.43497 19.4402 6.31002 19.3287C6.22719 19.2615 6.15846 19.1786 6.10778 19.0848C6.0571 18.9909 6.02547 18.888 6.01471 18.7818C6.01336 18.6723 6.03395 18.5636 6.07528 18.4622C6.1166 18.3608 6.17783 18.2686 6.25534 18.1912C6.33026 18.1063 6.42241 18.0382 6.52566 17.9916C6.6289 17.945 6.74089 17.9209 6.85416 17.9209C6.96744 17.9209 7.07943 17.945 7.18267 17.9916C7.28592 18.0382 7.37807 18.1063 7.45299 18.1912C7.55443 18.2825 7.6379 18.3919 7.69909 18.5139L7.54596 18.6068C7.4979 18.4937 7.42501 18.3927 7.33268 18.3115C7.27349 18.248 7.20124 18.198 7.12089 18.165C7.04055 18.132 6.95401 18.1168 6.86723 18.1204C6.78045 18.1241 6.69549 18.1465 6.61818 18.1861C6.54087 18.2257 6.47306 18.2815 6.4194 18.3498C6.35482 18.4047 6.30296 18.4731 6.26739 18.55C6.23182 18.627 6.2134 18.7107 6.2134 18.7955C6.2134 18.8803 6.23182 18.9641 6.26739 19.041C6.30296 19.118 6.35482 19.1863 6.4194 19.2412C6.48473 19.3087 6.5628 19.3626 6.64909 19.3998L6.97721 19.0498L6.73659 18.8256L6.85143 18.7053L7.23971 19.0608L6.73112 19.5967Z" fill="white"/>
<path d="M8.16483 18.7432L7.65624 19.5471C7.45936 19.8479 7.51405 20.0611 7.69452 20.176C7.87499 20.2908 8.11014 20.2525 8.30155 19.9572L8.81014 19.1533L8.98514 19.2682L8.48202 20.0557C8.44871 20.138 8.39727 20.2117 8.33153 20.2714C8.26579 20.3311 8.18744 20.3752 8.10231 20.4004C8.01717 20.4256 7.92744 20.4313 7.8398 20.4171C7.75216 20.4029 7.66885 20.369 7.59608 20.3182C7.32264 20.1432 7.21327 19.8479 7.48124 19.4322L7.98983 18.6338L8.16483 18.7432Z" fill="white"/>
<path d="M9.02832 20.4876L8.67832 20.8868L8.48145 20.8048L9.57519 19.5415L9.80488 19.6399L9.6791 21.3298L9.47676 21.2423L9.51504 20.6954L9.02832 20.4876ZM9.57519 20.5478L9.60801 20.061C9.60801 19.9517 9.60801 19.8532 9.64629 19.7603C9.58613 19.8423 9.52051 19.9188 9.45488 19.9954L9.13223 20.3618L9.57519 20.5478Z" fill="white"/>
<path d="M10.5158 19.9243C10.6488 19.931 10.7807 19.9512 10.9096 19.9845C11.0727 20.0079 11.2211 20.0918 11.3252 20.2196C11.3574 20.2672 11.3789 20.3211 11.3883 20.3777C11.3978 20.4344 11.3949 20.4923 11.3799 20.5478C11.3593 20.6376 11.3095 20.718 11.2382 20.7764C11.1669 20.8348 11.0782 20.8679 10.9861 20.8704C11.0414 20.9128 11.0846 20.9689 11.1115 21.0332C11.1383 21.0975 11.1479 21.1677 11.1393 21.2368C11.1254 21.3896 11.1254 21.5434 11.1393 21.6962L10.9314 21.647C10.9204 21.5141 10.9204 21.3806 10.9314 21.2478C10.9314 21.0235 10.8768 20.9196 10.6963 20.8704L10.5049 20.8212L10.3408 21.4993L10.1221 21.461L10.5158 19.9243ZM10.5432 20.679L10.7455 20.7282C10.9643 20.7829 11.1283 20.7009 11.1721 20.5204C11.2158 20.3399 11.0955 20.1978 10.8822 20.1431C10.8166 20.1228 10.7485 20.1117 10.6799 20.1103L10.5432 20.679Z" fill="white"/>
<path d="M11.932 21.2808L11.7461 21.7784H11.5273L12.1508 20.187H12.4023L12.8563 21.8276H12.6375L12.4898 21.3136L11.932 21.2808ZM12.4789 21.144L12.3094 20.6901C12.3094 20.5808 12.2602 20.4878 12.2438 20.3894C12.2159 20.4876 12.183 20.5843 12.1453 20.6792L11.9703 21.1331L12.4789 21.144Z" fill="white"/>
<path d="M13.3711 21.8273L13.125 20.2414L13.3492 20.1867L13.9781 20.9086C14.1128 21.0552 14.2353 21.2125 14.3445 21.3789C14.293 21.1661 14.2528 20.9507 14.2242 20.7336L14.1203 20.0719L14.3117 20.0391L14.5578 21.625L14.3555 21.6578L13.7266 20.9305C13.5907 20.7782 13.4647 20.6174 13.3492 20.4492C13.393 20.6516 13.4258 20.8375 13.4695 21.1L13.5734 21.7781L13.3711 21.8273Z" fill="white"/>
<path d="M14.9729 20.012L14.4971 20.187L14.4424 20.0229L15.5908 19.6401L15.6455 19.8042L15.1807 19.9573L15.6182 21.2808L15.4158 21.3464L14.9729 20.012Z" fill="white"/>
<path d="M16.843 19.9573L16.2961 20.2308L16.5531 20.7776L17.1766 20.4769L17.2531 20.63L16.4438 21.0237L15.7383 19.5855L16.5203 19.2026L16.5969 19.3612L15.9844 19.6401L16.2086 20.094L16.7555 19.8206L16.843 19.9573Z" fill="white"/>
<path d="M17.91 19.2792L17.3631 19.6292L17.6857 20.105L18.2654 19.7222L18.3584 19.8644L17.6092 20.3675L16.7178 19.0331L17.467 18.5464L17.5654 18.694L17.0186 19.055L17.2975 19.4761L17.8443 19.1315L17.91 19.2792Z" fill="white"/>
<path d="M17.7021 18.4096C17.7912 18.2938 17.89 18.1858 17.9975 18.0869C18.1565 17.9131 18.3752 17.8057 18.61 17.7861C18.7148 17.79 18.8176 17.8159 18.9119 17.862C19.0061 17.9082 19.0895 17.9736 19.1568 18.0541C19.2406 18.1313 19.3072 18.2252 19.3524 18.3298C19.3977 18.4343 19.4204 18.5472 19.4193 18.6611C19.391 18.9179 19.2634 19.1534 19.0639 19.3174C18.9723 19.4035 18.8755 19.4839 18.774 19.558L17.7021 18.4096ZM18.7959 19.301C18.8521 19.2614 18.9051 19.2175 18.9545 19.1697C19.0284 19.1143 19.089 19.043 19.1317 18.9611C19.1744 18.8791 19.1983 18.7887 19.2014 18.6963C19.2046 18.604 19.187 18.5121 19.1499 18.4275C19.1129 18.3428 19.0573 18.2676 18.9873 18.2072C18.9369 18.135 18.8698 18.0761 18.7917 18.0353C18.7137 17.9946 18.6269 17.9734 18.5389 17.9734C18.4508 17.9734 18.3641 17.9946 18.286 18.0353C18.2079 18.0761 18.1408 18.135 18.0904 18.2072C18.0292 18.2611 17.9742 18.3216 17.9264 18.3877L18.7959 19.301Z" fill="white"/>
<path d="M6.73112 19.5967C6.57718 19.5307 6.43497 19.4402 6.31002 19.3287C6.22719 19.2615 6.15846 19.1786 6.10778 19.0848C6.0571 18.9909 6.02547 18.888 6.01471 18.7818C6.01336 18.6723 6.03395 18.5636 6.07528 18.4622C6.1166 18.3608 6.17783 18.2686 6.25534 18.1912C6.33026 18.1063 6.42241 18.0382 6.52566 17.9916C6.6289 17.945 6.74089 17.9209 6.85416 17.9209C6.96744 17.9209 7.07943 17.945 7.18267 17.9916C7.28592 18.0382 7.37807 18.1063 7.45299 18.1912C7.55443 18.2825 7.6379 18.3919 7.69909 18.5139L7.54596 18.6068C7.4979 18.4937 7.42501 18.3927 7.33268 18.3115C7.27349 18.248 7.20124 18.198 7.12089 18.165C7.04055 18.132 6.95401 18.1168 6.86723 18.1204C6.78045 18.1241 6.69549 18.1465 6.61818 18.1861C6.54087 18.2257 6.47306 18.2815 6.4194 18.3498C6.35482 18.4047 6.30296 18.4731 6.26739 18.55C6.23182 18.627 6.2134 18.7107 6.2134 18.7955C6.2134 18.8803 6.23182 18.9641 6.26739 19.041C6.30296 19.118 6.35482 19.1863 6.4194 19.2412C6.48473 19.3087 6.5628 19.3626 6.64909 19.3998L6.97721 19.0498L6.73659 18.8256L6.85143 18.7053L7.23971 19.0608L6.73112 19.5967Z" fill="white"/>
<path d="M8.16483 18.7432L7.65624 19.5471C7.45936 19.8479 7.51405 20.0611 7.69452 20.176C7.87499 20.2908 8.11014 20.2525 8.30155 19.9572L8.81014 19.1533L8.98514 19.2682L8.48202 20.0557C8.44871 20.138 8.39727 20.2117 8.33153 20.2714C8.26579 20.3311 8.18744 20.3752 8.10231 20.4004C8.01717 20.4256 7.92744 20.4313 7.8398 20.4171C7.75216 20.4029 7.66885 20.369 7.59608 20.3182C7.32264 20.1432 7.21327 19.8479 7.48124 19.4322L7.98983 18.6338L8.16483 18.7432Z" fill="white"/>
<path d="M9.02832 20.4876L8.67832 20.8868L8.48145 20.8048L9.57519 19.5415L9.80488 19.6399L9.6791 21.3298L9.47676 21.2423L9.51504 20.6954L9.02832 20.4876ZM9.57519 20.5478L9.60801 20.061C9.60801 19.9517 9.60801 19.8532 9.64629 19.7603C9.58613 19.8423 9.52051 19.9188 9.45488 19.9954L9.13223 20.3618L9.57519 20.5478Z" fill="white"/>
<path d="M10.5158 19.9243C10.6488 19.931 10.7807 19.9512 10.9096 19.9845C11.0727 20.0079 11.2211 20.0918 11.3252 20.2196C11.3574 20.2672 11.3789 20.3211 11.3883 20.3777C11.3978 20.4344 11.3949 20.4923 11.3799 20.5478C11.3593 20.6376 11.3095 20.718 11.2382 20.7764C11.1669 20.8348 11.0782 20.8679 10.9861 20.8704C11.0414 20.9128 11.0846 20.9689 11.1115 21.0332C11.1383 21.0975 11.1479 21.1677 11.1393 21.2368C11.1254 21.3896 11.1254 21.5434 11.1393 21.6962L10.9314 21.647C10.9204 21.5141 10.9204 21.3806 10.9314 21.2478C10.9314 21.0235 10.8768 20.9196 10.6963 20.8704L10.5049 20.8212L10.3408 21.4993L10.1221 21.461L10.5158 19.9243ZM10.5432 20.679L10.7455 20.7282C10.9643 20.7829 11.1283 20.7009 11.1721 20.5204C11.2158 20.3399 11.0955 20.1978 10.8822 20.1431C10.8166 20.1228 10.7485 20.1117 10.6799 20.1103L10.5432 20.679Z" fill="white"/>
<path d="M11.932 21.2808L11.7461 21.7784H11.5273L12.1508 20.187H12.4023L12.8563 21.8276H12.6375L12.4898 21.3136L11.932 21.2808ZM12.4789 21.144L12.3094 20.6901C12.3094 20.5808 12.2602 20.4878 12.2438 20.3894C12.2159 20.4876 12.183 20.5843 12.1453 20.6792L11.9703 21.1331L12.4789 21.144Z" fill="white"/>
<path d="M13.3711 21.8273L13.125 20.2414L13.3492 20.1867L13.9781 20.9086C14.1128 21.0552 14.2353 21.2125 14.3445 21.3789C14.293 21.1661 14.2528 20.9507 14.2242 20.7336L14.1203 20.0719L14.3117 20.0391L14.5578 21.625L14.3555 21.6578L13.7266 20.9305C13.5907 20.7782 13.4647 20.6174 13.3492 20.4492C13.393 20.6516 13.4258 20.8375 13.4695 21.1L13.5734 21.7781L13.3711 21.8273Z" fill="white"/>
<path d="M14.9729 20.012L14.4971 20.187L14.4424 20.0229L15.5908 19.6401L15.6455 19.8042L15.1807 19.9573L15.6182 21.2808L15.4158 21.3464L14.9729 20.012Z" fill="white"/>
<path d="M16.843 19.9573L16.2961 20.2308L16.5531 20.7776L17.1766 20.4769L17.2531 20.63L16.4438 21.0237L15.7383 19.5855L16.5203 19.2026L16.5969 19.3612L15.9844 19.6401L16.2086 20.094L16.7555 19.8206L16.843 19.9573Z" fill="white"/>
<path d="M17.91 19.2792L17.3631 19.6292L17.6857 20.105L18.2654 19.7222L18.3584 19.8644L17.6092 20.3675L16.7178 19.0331L17.467 18.5464L17.5654 18.694L17.0186 19.055L17.2975 19.4761L17.8443 19.1315L17.91 19.2792Z" fill="white"/>
<path d="M17.7021 18.4096C17.7912 18.2938 17.89 18.1858 17.9975 18.0869C18.1565 17.9131 18.3752 17.8057 18.61 17.7861C18.7148 17.79 18.8176 17.8159 18.9119 17.862C19.0061 17.9082 19.0895 17.9736 19.1568 18.0541C19.2406 18.1313 19.3072 18.2252 19.3524 18.3298C19.3977 18.4343 19.4204 18.5472 19.4193 18.6611C19.391 18.9179 19.2634 19.1534 19.0639 19.3174C18.9723 19.4035 18.8755 19.4839 18.774 19.558L17.7021 18.4096ZM18.7959 19.301C18.8521 19.2614 18.9051 19.2175 18.9545 19.1697C19.0284 19.1143 19.089 19.043 19.1317 18.9611C19.1744 18.8791 19.1983 18.7887 19.2014 18.6963C19.2046 18.604 19.187 18.5121 19.1499 18.4275C19.1129 18.3428 19.0573 18.2676 18.9873 18.2072C18.9369 18.135 18.8698 18.0761 18.7917 18.0353C18.7137 17.9946 18.6269 17.9734 18.5389 17.9734C18.4508 17.9734 18.3641 17.9946 18.286 18.0353C18.2079 18.0761 18.1408 18.135 18.0904 18.2072C18.0292 18.2611 17.9742 18.3216 17.9264 18.3877L18.7959 19.301Z" fill="white"/>
<path d="M20.682 9.77441L20.4852 9.28223L20.2883 9.77441L19.7578 9.8127L20.1625 10.1518L20.0367 10.6658L20.4852 10.3814L20.9336 10.6658L20.8023 10.1518L21.207 9.8127L20.682 9.77441Z" fill="url(#paint4_linear)"/>
<path d="M20.5727 14.8657L20.3758 14.3735L20.1734 14.8657L19.6484 14.904L20.0531 15.2431L19.9273 15.7571L20.3758 15.4728L20.8242 15.7571L20.693 15.2431L21.0977 14.904L20.5727 14.8657Z" fill="url(#paint5_linear)"/>
<path d="M21.1635 12.2081L20.9174 11.6011L20.6768 12.2081L20.0205 12.2519L20.5236 12.673L20.365 13.3073L20.9174 12.9628L21.4752 13.3073L21.3111 12.673L21.8143 12.2519L21.1635 12.2081Z" fill="url(#paint6_linear)"/>
<path d="M4.42402 9.77441L4.6209 9.28223L4.81777 9.77441L5.34824 9.8127L4.94355 10.1518L5.06933 10.6658L4.6209 10.3814L4.17246 10.6658L4.30371 10.1518L3.89355 9.8127L4.42402 9.77441Z" fill="url(#paint7_linear)"/>
<path d="M4.53281 14.8657L4.72969 14.3735L4.93203 14.8657L5.45703 14.904L5.05234 15.2431L5.17812 15.7571L4.72969 15.4728L4.28125 15.7571L4.4125 15.2431L4.00781 14.904L4.53281 14.8657Z" fill="url(#paint8_linear)"/>
<path d="M3.9418 12.2081L4.18789 11.6011L4.42852 12.2081L5.08477 12.2519L4.58164 12.673L4.74023 13.3073L4.18789 12.9628L3.63008 13.3073L3.79414 12.673L3.29102 12.2519L3.9418 12.2081Z" fill="url(#paint9_linear)"/>
<path d="M13.0655 18.7921C16.5881 18.5112 19.2159 15.4278 18.935 11.9052C18.654 8.38265 15.5707 5.75479 12.0481 6.03574C8.52553 6.31668 5.89767 9.40004 6.17862 12.9226C6.45956 16.4452 9.54292 19.0731 13.0655 18.7921Z" stroke="url(#paint10_linear)" stroke-miterlimit="10"/>
<defs>
<linearGradient id="paint0_linear" x1="20.2502" y1="0.0072362" x2="5.71978" y2="23.3533" gradientUnits="userSpaceOnUse">
<stop stop-color="#FFF5A8"/>
<stop offset="0.31" stop-color="#BD8100"/>
<stop offset="0.76" stop-color="#E0BE58"/>
<stop offset="1" stop-color="#F1DC83"/>
</linearGradient>
<linearGradient id="paint1_linear" x1="4.53834" y1="27.6844" x2="18.0243" y2="2.07427" gradientUnits="userSpaceOnUse">
<stop stop-color="#FFF5A8"/>
<stop offset="0.31" stop-color="#BD8100"/>
<stop offset="0.39" stop-color="#CA9922"/>
<stop offset="0.56" stop-color="#E7CA6A"/>
<stop offset="0.68" stop-color="#F8E997"/>
<stop offset="0.75" stop-color="#FFF5A8"/>
<stop offset="0.99" stop-color="#FBC01B"/>
</linearGradient>
<linearGradient id="paint2_linear" x1="21.1783" y1="7.20825" x2="3.5306" y2="17.9872" gradientUnits="userSpaceOnUse">
<stop offset="0.01" stop-color="#FBC01B"/>
<stop offset="0.25" stop-color="#FFF5A8"/>
<stop offset="0.32" stop-color="#F8E997"/>
<stop offset="0.44" stop-color="#E7CA6A"/>
<stop offset="0.61" stop-color="#CA9922"/>
<stop offset="0.69" stop-color="#BD8100"/>
<stop offset="1" stop-color="#FFF5A8"/>
</linearGradient>
<radialGradient id="paint3_radial" cx="0" cy="0" r="1" gradientUnits="userSpaceOnUse" gradientTransform="translate(12.5431 12.4801) scale(7.05469)">
<stop offset="0.89" stop-color="white" stop-opacity="0"/>
<stop offset="0.9" stop-color="#F8F7F4" stop-opacity="0.05"/>
<stop offset="0.92" stop-color="#C9BFAA" stop-opacity="0.39"/>
<stop offset="0.94" stop-color="#A49370" stop-opacity="0.66"/>
<stop offset="0.96" stop-color="#8A7446" stop-opacity="0.85"/>
<stop offset="0.98" stop-color="#7A612D" stop-opacity="0.96"/>
<stop offset="1" stop-color="#755B25"/>
</radialGradient>
<linearGradient id="paint4_linear" x1="87.3203" y1="48.4794" x2="91.1752" y2="48.4794" gradientUnits="userSpaceOnUse">
<stop stop-color="#FFF5A8"/>
<stop offset="0.31" stop-color="#BD8100"/>
<stop offset="0.39" stop-color="#CA9922"/>
<stop offset="0.56" stop-color="#E7CA6A"/>
<stop offset="0.68" stop-color="#F8E997"/>
<stop offset="0.75" stop-color="#FFF5A8"/>
<stop offset="0.99" stop-color="#FBC01B"/>
</linearGradient>
<linearGradient id="paint5_linear" x1="86.921" y1="66.4382" x2="90.7614" y2="66.4382" gradientUnits="userSpaceOnUse">
<stop stop-color="#FFF5A8"/>
<stop offset="0.31" stop-color="#BD8100"/>
<stop offset="0.39" stop-color="#CA9922"/>
<stop offset="0.56" stop-color="#E7CA6A"/>
<stop offset="0.68" stop-color="#F8E997"/>
<stop offset="0.75" stop-color="#FFF5A8"/>
<stop offset="0.99" stop-color="#FBC01B"/>
</linearGradient>
<linearGradient id="paint6_linear" x1="104.506" y1="67.6685" x2="110.39" y2="67.6685" gradientUnits="userSpaceOnUse">
<stop stop-color="#FFF5A8"/>
<stop offset="0.31" stop-color="#BD8100"/>
<stop offset="0.39" stop-color="#CA9922"/>
<stop offset="0.56" stop-color="#E7CA6A"/>
<stop offset="0.68" stop-color="#F8E997"/>
<stop offset="0.75" stop-color="#FFF5A8"/>
<stop offset="0.99" stop-color="#FBC01B"/>
</linearGradient>
<linearGradient id="paint7_linear" x1="29.5251" y1="48.4794" x2="33.38" y2="48.4794" gradientUnits="userSpaceOnUse">
<stop stop-color="#FFF5A8"/>
<stop offset="0.31" stop-color="#BD8100"/>
<stop offset="0.39" stop-color="#CA9922"/>
<stop offset="0.56" stop-color="#E7CA6A"/>
<stop offset="0.68" stop-color="#F8E997"/>
<stop offset="0.75" stop-color="#FFF5A8"/>
<stop offset="0.99" stop-color="#FBC01B"/>
</linearGradient>
<linearGradient id="paint8_linear" x1="29.8329" y1="66.4382" x2="33.6733" y2="66.4382" gradientUnits="userSpaceOnUse">
<stop stop-color="#FFF5A8"/>
<stop offset="0.31" stop-color="#BD8100"/>
<stop offset="0.39" stop-color="#CA9922"/>
<stop offset="0.56" stop-color="#E7CA6A"/>
<stop offset="0.68" stop-color="#F8E997"/>
<stop offset="0.75" stop-color="#FFF5A8"/>
<stop offset="0.99" stop-color="#FBC01B"/>
</linearGradient>
<linearGradient id="paint9_linear" x1="32.9058" y1="67.6685" x2="38.7893" y2="67.6685" gradientUnits="userSpaceOnUse">
<stop stop-color="#FFF5A8"/>
<stop offset="0.31" stop-color="#BD8100"/>
<stop offset="0.39" stop-color="#CA9922"/>
<stop offset="0.56" stop-color="#E7CA6A"/>
<stop offset="0.68" stop-color="#F8E997"/>
<stop offset="0.75" stop-color="#FFF5A8"/>
<stop offset="0.99" stop-color="#FBC01B"/>
</linearGradient>
<linearGradient id="paint10_linear" x1="351.161" y1="557.948" x2="517.136" y2="293.309" gradientUnits="userSpaceOnUse">
<stop stop-color="#FFF5A8"/>
<stop offset="0.31" stop-color="#BD8100"/>
<stop offset="0.76" stop-color="#E0BE58"/>
<stop offset="1" stop-color="#F1DC83"/>
</linearGradient>
</defs>
</svg>
