<svg width="47" height="21" viewBox="0 0 47 21" fill="none" xmlns="http://www.w3.org/2000/svg">
<path d="M3.93292 8.41299C3.93292 7.90504 4.34467 7.70967 5.02664 7.70967C6.00455 7.70967 7.23982 8.00923 8.21773 8.54324V5.48247C7.14974 5.05266 6.09462 4.88334 5.02664 4.88334C2.41458 4.88334 0.67749 6.26394 0.67749 8.56929C0.67749 12.1641 5.56707 11.591 5.56707 13.1409C5.56707 13.74 5.05237 13.9354 4.3318 13.9354C3.26382 13.9354 1.89988 13.4926 0.819031 12.8934V15.9933C2.01569 16.5143 3.22522 16.7357 4.3318 16.7357C7.0082 16.7357 8.84823 15.3942 8.84823 13.0628C8.83536 9.18144 3.93292 9.87175 3.93292 8.41299ZM12.6312 2.27843L9.49159 2.9557L9.47873 13.3884C9.47873 15.316 10.907 16.7357 12.8114 16.7357C13.8665 16.7357 14.6385 16.5403 15.0631 16.3059V13.6619C14.6514 13.8312 12.6183 14.4303 12.6183 12.5027V7.87899H15.0631V5.10476H12.6183L12.6312 2.27843ZM19.0649 6.06857L18.859 5.10476H16.0797V16.5012H19.2965V8.77768C20.0557 7.77479 21.3424 7.95714 21.7413 8.10041V5.10476C21.3295 4.94846 19.824 4.66192 19.0649 6.06857ZM22.5262 5.10476H25.7559V16.5012H22.5262V5.10476ZM22.5262 4.11489L25.7559 3.41156V0.767578L22.5262 1.45788V4.11489ZM32.4726 4.88334C31.2116 4.88334 30.401 5.48247 29.9506 5.89925L29.7833 5.09173H26.9525V20.2784L30.1693 19.5881L30.1822 15.9021C30.6454 16.2408 31.3274 16.7227 32.4597 16.7227C34.763 16.7227 36.8603 14.8471 36.8603 10.7183C36.8475 6.94122 34.7244 4.88334 32.4726 4.88334ZM31.7006 13.8573C30.9414 13.8573 30.491 13.5837 30.1822 13.2451L30.1693 8.41299C30.5039 8.03528 30.9671 7.77479 31.7006 7.77479C32.8715 7.77479 33.6821 9.1033 33.6821 10.8095C33.6821 12.5548 32.8843 13.8573 31.7006 13.8573ZM46.9998 10.8486C46.9998 7.5143 45.4042 4.88334 42.3547 4.88334C39.2923 4.88334 37.4394 7.5143 37.4394 10.8225C37.4394 14.7429 39.6268 16.7227 42.7664 16.7227C44.2976 16.7227 45.4557 16.371 46.3307 15.8761V13.2712C45.4557 13.714 44.4521 13.9875 43.1782 13.9875C41.9301 13.9875 40.8235 13.5447 40.6819 12.0078H46.974C46.974 11.8385 46.9998 11.1612 46.9998 10.8486ZM40.6433 9.61125C40.6433 8.13948 41.5312 7.52732 42.3418 7.52732C43.1267 7.52732 43.9631 8.13948 43.9631 9.61125H40.6433Z" fill="#6772E5"/>
</svg>
