<svg width="10" height="10" viewBox="0 0 10 10" fill="none" xmlns="http://www.w3.org/2000/svg">
<path d="M0 2.10526C0 0.942558 0.942559 0 2.10526 0H7.89474C9.05744 0 10 0.942559 10 2.10526V7.89474C10 9.05744 9.05744 10 7.89474 10H2.10526C0.942558 10 0 9.05744 0 7.89474V2.10526Z" fill="url(#paint0_linear)"/>
<path d="M0 2.10526C0 0.942558 0.942559 0 2.10526 0H7.89474C9.05744 0 10 0.942559 10 2.10526V7.89474C10 9.05744 9.05744 10 7.89474 10H2.10526C0.942558 10 0 9.05744 0 7.89474V2.10526Z" stroke="black"/>
<path d="M7.66482 2.3495C7.36549 2.05298 6.76682 1.9965 6.48174 2.3495L5.02785 4.12862L4.34366 4.97582C4.25813 5.07466 4.15836 5.22998 4.05858 5.37118L3.51693 4.83462C2.77573 4.07214 1.59265 5.22998 2.34811 5.99246C2.73296 6.38782 3.13207 6.9385 3.64522 7.1503C4.15836 7.3621 4.72851 7.09382 5.09911 6.6561C5.9686 5.61122 6.80958 4.55222 7.66482 3.50734C7.9499 3.15434 7.99266 2.68838 7.66482 2.3495Z" fill="white"/>
<defs>
<linearGradient id="paint0_linear" x1="-3.65854" y1="0" x2="10.4472" y2="0" gradientUnits="userSpaceOnUse">
<stop stop-color="#B3F23F"/>
<stop offset="1" stop-color="#98DA20"/>
</linearGradient>
</defs>
</svg>
