<svg width="104" height="54" viewBox="0 0 104 54" fill="none" xmlns="http://www.w3.org/2000/svg">
<g filter="url(#filter0_d)">
<path d="M14.6093 21.0938C14.6093 20.1574 15.3683 19.7973 16.6255 19.7973C18.4282 19.7973 20.7053 20.3495 22.5081 21.3339V15.6916C20.5393 14.8992 18.5943 14.5871 16.6255 14.5871C11.8103 14.5871 8.60815 17.1322 8.60815 21.3819C8.60815 28.0086 17.6217 26.9522 17.6217 29.8094C17.6217 30.9138 16.6729 31.274 15.3446 31.274C13.3759 31.274 10.8616 30.4576 8.86907 29.3532V35.0675C11.075 36.0279 13.3047 36.4361 15.3446 36.4361C20.2784 36.4361 23.6703 33.9631 23.6703 29.6653C23.6466 22.5104 14.6093 23.7829 14.6093 21.0938ZM30.644 9.78514L24.8563 11.0337L24.8326 30.2656C24.8326 33.819 27.4655 36.4361 30.9761 36.4361C32.9211 36.4361 34.3443 36.0759 35.1271 35.6438V30.7698C34.368 31.0819 30.6203 32.1863 30.6203 28.6329V20.1094H35.1271V14.9953H30.6203L30.644 9.78514ZM42.504 16.772L42.1245 14.9953H37.001V36.0039H42.9309V21.7661C44.3304 19.9173 46.7024 20.2534 47.4377 20.5176V14.9953C46.6787 14.7072 43.9035 14.1789 42.504 16.772ZM48.8847 14.9953H54.8384V36.0039H48.8847V14.9953ZM48.8847 13.1705L54.8384 11.874V7L48.8847 8.27252V13.1705ZM67.2202 14.5871C64.8956 14.5871 63.4013 15.6916 62.5711 16.4599L62.2627 14.9713H57.0443V42.9668L62.9743 41.6942L62.998 34.8995C63.852 35.5237 65.1091 36.4121 67.1965 36.4121C71.4423 36.4121 75.3087 32.9547 75.3087 25.3435C75.285 18.3807 71.3712 14.5871 67.2202 14.5871ZM65.797 31.1299C64.3975 31.1299 63.5673 30.6257 62.998 30.0014L62.9743 21.0938C63.591 20.3975 64.445 19.9173 65.797 19.9173C67.9555 19.9173 69.4499 22.3663 69.4499 25.5116C69.4499 28.7289 67.9792 31.1299 65.797 31.1299ZM94 25.5836C94 19.4371 91.0588 14.5871 85.4371 14.5871C79.7918 14.5871 76.3761 19.4371 76.3761 25.5356C76.3761 32.7626 80.4085 36.4121 86.1962 36.4121C89.0188 36.4121 91.1536 35.7638 92.7666 34.8514V30.0495C91.1536 30.8658 89.3035 31.37 86.9552 31.37C84.6544 31.37 82.6144 30.5537 82.3535 27.7205H93.9526C93.9526 27.4084 94 26.1599 94 25.5836ZM82.2824 23.3027C82.2824 20.5896 83.919 19.4611 85.4134 19.4611C86.8603 19.4611 88.4021 20.5896 88.4021 23.3027H82.2824Z" fill="#6772E5"/>
</g>
<defs>
<filter id="filter0_d" x="0.608154" y="0" width="103.392" height="53.9668" filterUnits="userSpaceOnUse" color-interpolation-filters="sRGB">
<feFlood flood-opacity="0" result="BackgroundImageFix"/>
<feColorMatrix in="SourceAlpha" type="matrix" values="0 0 0 0 0 0 0 0 0 0 0 0 0 0 0 0 0 0 127 0" result="hardAlpha"/>
<feMorphology radius="1" operator="dilate" in="SourceAlpha" result="effect1_dropShadow"/>
<feOffset dx="1" dy="2"/>
<feGaussianBlur stdDeviation="4"/>
<feColorMatrix type="matrix" values="0 0 0 0 0.207843 0 0 0 0 0.392157 0 0 0 0 0.67451 0 0 0 0.3 0"/>
<feBlend mode="multiply" in2="BackgroundImageFix" result="effect1_dropShadow"/>
<feBlend mode="normal" in="SourceGraphic" in2="effect1_dropShadow" result="shape"/>
</filter>
</defs>
</svg>
