<svg width="62" height="25" viewBox="0 0 62 25" fill="none" xmlns="http://www.w3.org/2000/svg">
<rect width="62" height="25" rx="4" fill="white"/>
<path d="M18.2683 7.08148L12.1577 4.99029C11.9761 4.92706 11.7782 4.92706 11.5967 4.99029L5.486 7.08148C5.131 7.20208 4.89355 7.53578 4.89355 7.9128V12.6174C4.89355 18.3594 11.2649 21.1507 11.5361 21.2666C11.6455 21.3123 11.7608 21.3357 11.8772 21.3357C11.9936 21.3357 12.1088 21.3123 12.2182 21.2655C12.4894 21.1496 18.8608 18.3594 18.8608 12.6174V7.9128C18.8608 7.53578 18.6233 7.20208 18.2683 7.08148Z" fill="#6772E5"/>
<path d="M25.0796 12.7193C25.0796 12.3564 25.3755 12.2169 25.8656 12.2169C26.5683 12.2169 27.456 12.4309 28.1587 12.8124V10.6257C27.3912 10.3186 26.633 10.1977 25.8656 10.1977C23.9885 10.1977 22.7402 11.184 22.7402 12.831C22.7402 15.3991 26.2539 14.9897 26.2539 16.097C26.2539 16.525 25.8841 16.6646 25.3663 16.6646C24.5988 16.6646 23.6187 16.3482 22.8419 15.9202V18.1348C23.7019 18.507 24.5711 18.6652 25.3663 18.6652C27.2895 18.6652 28.6118 17.7068 28.6118 16.0412C28.6025 13.2683 25.0796 13.7615 25.0796 12.7193ZM31.3303 8.3367L29.0741 8.82055L29.0649 16.2738C29.0649 17.6509 30.0912 18.6652 31.4597 18.6652C32.2179 18.6652 32.7727 18.5256 33.0779 18.3581V16.4692C32.782 16.5902 31.321 17.0182 31.321 15.6411V12.3378H33.0779V10.3559H31.321L31.3303 8.3367ZM35.9536 11.0444L35.8056 10.3559H33.8084V18.4977H36.12V12.9799C36.6655 12.2634 37.5902 12.3937 37.8768 12.496V10.3559C37.5809 10.2442 36.4991 10.0395 35.9536 11.0444ZM38.4409 10.3559H40.7618V18.4977H38.4409V10.3559ZM38.4409 9.64869L40.7618 9.14623V7.25732L38.4409 7.75049V9.64869ZM45.5885 10.1977C44.6823 10.1977 44.0998 10.6257 43.7761 10.9235L43.6559 10.3466H41.6217V21.1961L43.9333 20.703L43.9426 18.0697C44.2754 18.3116 44.7655 18.6559 45.5792 18.6559C47.2343 18.6559 48.7415 17.316 48.7415 14.3663C48.7323 11.6679 47.2066 10.1977 45.5885 10.1977ZM45.0337 16.6088C44.4881 16.6088 44.1645 16.4134 43.9426 16.1715L43.9333 12.7193C44.1737 12.4495 44.5066 12.2634 45.0337 12.2634C45.8751 12.2634 46.4576 13.2125 46.4576 14.4314C46.4576 15.6783 45.8843 16.6088 45.0337 16.6088ZM56.0278 14.4593C56.0278 12.0773 54.8812 10.1977 52.6898 10.1977C50.4891 10.1977 49.1576 12.0773 49.1576 14.4407C49.1576 17.2415 50.7295 18.6559 52.9857 18.6559C54.086 18.6559 54.9182 18.4046 55.547 18.0511V16.1901C54.9182 16.5064 54.197 16.7018 53.2816 16.7018C52.3847 16.7018 51.5895 16.3855 51.4878 15.2875H56.0093C56.0093 15.1665 56.0278 14.6827 56.0278 14.4593ZM51.46 13.5754C51.46 12.5239 52.098 12.0866 52.6806 12.0866C53.2446 12.0866 53.8456 12.5239 53.8456 13.5754H51.46Z" fill="#6772E5"/>
<path d="M30.2189 4.2543V5.33641H29.8525V2.57229H30.8773C31.1814 2.57229 31.4193 2.64949 31.591 2.80389C31.764 2.9583 31.8506 3.1627 31.8506 3.41709C31.8506 3.6854 31.766 3.89233 31.5968 4.03788C31.4288 4.18216 31.1877 4.2543 30.8735 4.2543H30.2189ZM30.2189 3.95625H30.8773C31.0732 3.95625 31.2234 3.91068 31.3277 3.81956C31.432 3.72717 31.4842 3.59428 31.4842 3.42089C31.4842 3.25636 31.432 3.12473 31.3277 3.02601C31.2234 2.92729 31.0802 2.87604 30.8983 2.87224H30.2189V3.95625Z" fill="#474747"/>
<path d="M32.1425 4.29037C32.1425 4.08914 32.182 3.90815 32.2609 3.74742C32.341 3.58668 32.4517 3.46265 32.5929 3.37532C32.7354 3.288 32.8976 3.24433 33.0795 3.24433C33.3607 3.24433 33.5878 3.34115 33.7608 3.53479C33.9351 3.72843 34.0222 3.98599 34.0222 4.30746V4.33214C34.0222 4.53211 33.9834 4.71182 33.9058 4.87129C33.8295 5.0295 33.7194 5.15289 33.5757 5.24149C33.4332 5.33008 33.2691 5.37438 33.0833 5.37438C32.8035 5.37438 32.5764 5.27756 32.4021 5.08392C32.229 4.89028 32.1425 4.63399 32.1425 4.31505V4.29037ZM32.4975 4.33214C32.4975 4.55995 32.5503 4.74283 32.6559 4.88079C32.7627 5.01874 32.9052 5.08772 33.0833 5.08772C33.2627 5.08772 33.4052 5.01811 33.5108 4.87889C33.6164 4.7384 33.6692 4.54223 33.6692 4.29037C33.6692 4.06509 33.6151 3.88284 33.507 3.74362C33.4001 3.60314 33.2576 3.53289 33.0795 3.53289C32.9052 3.53289 32.7646 3.60187 32.6578 3.73982C32.5509 3.87778 32.4975 4.07522 32.4975 4.33214Z" fill="#474747"/>
<path d="M36.2931 4.85231L36.6901 3.2823H37.0431L36.442 5.33641H36.1558L35.6539 3.77969L35.1653 5.33641H34.8791L34.2799 3.2823H34.631L35.0375 4.82004L35.5184 3.2823H35.8027L36.2931 4.85231Z" fill="#474747"/>
<path d="M38.2606 5.37438C37.9807 5.37438 37.753 5.28325 37.5775 5.101C37.4019 4.91749 37.3141 4.67259 37.3141 4.36631V4.30176C37.3141 4.098 37.3529 3.91638 37.4305 3.75691C37.5094 3.59618 37.6188 3.47088 37.7587 3.38102C37.9 3.28989 38.0526 3.24433 38.2167 3.24433C38.4852 3.24433 38.6938 3.33229 38.8427 3.50822C38.9915 3.68414 39.066 3.936 39.066 4.26379V4.40997H37.6671C37.6722 4.61247 37.7314 4.77637 37.8446 4.90167C37.9591 5.0257 38.1042 5.08772 38.2797 5.08772C38.4044 5.08772 38.51 5.0624 38.5965 5.01178C38.683 4.96115 38.7587 4.89407 38.8236 4.81054L39.0392 4.97761C38.8662 5.24212 38.6067 5.37438 38.2606 5.37438ZM38.2167 3.53289C38.0743 3.53289 37.9547 3.58479 37.858 3.68857C37.7613 3.79108 37.7015 3.93536 37.6786 4.12141H38.7129V4.09483C38.7027 3.91638 38.6544 3.77843 38.5679 3.68097C38.4814 3.58225 38.3643 3.53289 38.2167 3.53289Z" fill="#474747"/>
<path d="M40.4743 3.59744C40.4209 3.58858 40.363 3.58415 40.3006 3.58415C40.0691 3.58415 39.912 3.68224 39.8293 3.87841V5.33641H39.4762V3.2823H39.8197L39.8255 3.51961C39.9412 3.33609 40.1054 3.24433 40.3178 3.24433C40.3865 3.24433 40.4387 3.25319 40.4743 3.27091V3.59744Z" fill="#474747"/>
<path d="M41.6193 5.37438C41.3394 5.37438 41.1117 5.28325 40.9361 5.101C40.7605 4.91749 40.6728 4.67259 40.6728 4.36631V4.30176C40.6728 4.098 40.7116 3.91638 40.7892 3.75691C40.8681 3.59618 40.9775 3.47088 41.1174 3.38102C41.2586 3.28989 41.4113 3.24433 41.5754 3.24433C41.8438 3.24433 42.0525 3.33229 42.2013 3.50822C42.3502 3.68414 42.4246 3.936 42.4246 4.26379V4.40997H41.0258C41.0309 4.61247 41.0901 4.77637 41.2033 4.90167C41.3178 5.0257 41.4628 5.08772 41.6384 5.08772C41.7631 5.08772 41.8687 5.0624 41.9552 5.01178C42.0417 4.96115 42.1174 4.89407 42.1823 4.81054L42.3979 4.97761C42.2249 5.24212 41.9653 5.37438 41.6193 5.37438ZM41.5754 3.53289C41.4329 3.53289 41.3133 3.58479 41.2166 3.68857C41.12 3.79108 41.0602 3.93536 41.0373 4.12141H42.0716V4.09483C42.0614 3.91638 42.013 3.77843 41.9265 3.68097C41.84 3.58225 41.723 3.53289 41.5754 3.53289Z" fill="#474747"/>
<path d="M42.749 4.29227C42.749 3.97713 42.8241 3.724 42.9742 3.53289C43.1243 3.34052 43.3209 3.24433 43.5639 3.24433C43.8056 3.24433 43.9971 3.3266 44.1383 3.49113V2.42041H44.4913V5.33641H44.1669L44.1497 5.11619C44.0085 5.28832 43.812 5.37438 43.5601 5.37438C43.3209 5.37438 43.1256 5.27693 42.9742 5.08202C42.8241 4.88711 42.749 4.63272 42.749 4.31885V4.29227ZM43.1021 4.33214C43.1021 4.56501 43.1504 4.74726 43.2471 4.87889C43.3438 5.01051 43.4774 5.07632 43.6479 5.07632C43.8718 5.07632 44.0352 4.97634 44.1383 4.77637V3.83285C44.0327 3.63921 43.8705 3.54239 43.6517 3.54239C43.4786 3.54239 43.3438 3.60883 43.2471 3.74172C43.1504 3.87461 43.1021 4.07142 43.1021 4.33214Z" fill="#474747"/>
<path d="M46.0657 5.33641V2.57229H46.9741C47.2756 2.57229 47.502 2.6343 47.6534 2.75833C47.8061 2.88236 47.8824 3.06588 47.8824 3.30888C47.8824 3.43797 47.8455 3.55251 47.7717 3.6525C47.698 3.75122 47.5975 3.82779 47.4702 3.88221C47.6204 3.92397 47.7387 4.00371 47.8252 4.12141C47.913 4.23785 47.9569 4.37707 47.9569 4.53907C47.9569 4.78713 47.8761 4.98204 47.7145 5.12379C47.5529 5.26554 47.3246 5.33641 47.0294 5.33641H46.0657ZM46.4321 4.04357V5.03836H47.037C47.2075 5.03836 47.3417 4.99469 47.4397 4.90736C47.5389 4.81877 47.5886 4.69727 47.5886 4.54286C47.5886 4.21 47.4066 4.04357 47.0428 4.04357H46.4321ZM46.4321 3.75122H46.9855C47.1458 3.75122 47.2737 3.71135 47.3691 3.63161C47.4658 3.55188 47.5141 3.44367 47.5141 3.30698C47.5141 3.15511 47.4696 3.045 47.3805 2.97665C47.2915 2.90704 47.156 2.87224 46.9741 2.87224H46.4321V3.75122Z" fill="#474747"/>
<path d="M49.1209 4.82193L49.6018 3.2823H49.9797L49.1496 5.65345C49.0211 5.99517 48.8169 6.16603 48.537 6.16603L48.4702 6.16033L48.3385 6.13565V5.85089L48.4339 5.85848C48.5535 5.85848 48.6464 5.83443 48.7126 5.78634C48.78 5.73825 48.8353 5.65029 48.8786 5.52246L48.9568 5.31363L48.2202 3.2823H48.6057L49.1209 4.82193Z" fill="#474747"/>
<path d="M15.4762 9.97328C15.1114 9.6106 14.5806 9.74585 14.2332 10.1776C13.8857 10.6094 13.1578 11.4583 12.4691 12.3109C12.1427 12.715 11.6913 13.1786 11.5871 13.2995C11.4828 13.4203 11.3464 13.5466 11.1861 13.7114C11.0257 13.8761 10.8653 13.7938 10.8653 13.7938L9.74273 12.8052C8.83934 11.8726 8.07534 13.4965 8.99611 14.4291C9.46518 14.9127 9.95162 15.5862 10.577 15.8453C11.2025 16.1043 11.8974 15.7762 12.3491 15.2408C13.4088 13.9628 14.4338 12.6675 15.4762 11.3895C15.8237 10.9577 15.8758 10.3878 15.4762 9.97328Z" fill="white"/>
</svg>
