<svg width="46" height="46" viewBox="0 0 46 46" fill="none" xmlns="http://www.w3.org/2000/svg">
<path d="M36.2326 27.8359L36.2311 27.8343L33.7298 25.3043L33.7298 25.3043L33.7278 25.3023C33.6843 25.2588 33.6599 25.1998 33.6599 25.1383C33.6599 25.0768 33.6843 25.0179 33.7278 24.9744C33.7713 24.9309 33.8303 24.9065 33.8918 24.9065C33.9532 24.9065 34.0122 24.9309 34.0557 24.9744L34.0562 24.9749L36.5915 27.503C36.5917 27.5032 36.5919 27.5034 36.5921 27.5036C36.6124 27.5242 36.6283 27.5486 36.6391 27.5753L37.1029 27.3885L36.6391 27.5753C36.65 27.6024 36.6554 27.6313 36.6549 27.6605L36.6549 27.6605V27.6683C36.6549 27.7263 36.6318 27.782 36.5908 27.823C36.5498 27.864 36.4941 27.8871 36.4361 27.8871H36.3398L36.3264 27.8924C36.3194 27.8903 36.3125 27.8879 36.3057 27.8851C36.2783 27.8738 36.2534 27.8571 36.2326 27.8359ZM34.6571 22.1808L34.3035 22.5344L34.6571 22.1808C34.616 22.1398 34.593 22.0842 34.593 22.0261C34.593 21.9681 34.616 21.9125 34.6571 21.8715L34.3035 21.5179L34.6571 21.8715C34.6981 21.8304 34.7537 21.8074 34.8118 21.8074H38.4055C38.4635 21.8074 38.5192 21.8304 38.5602 21.8715C38.6012 21.9125 38.6243 21.9681 38.6243 22.0261C38.6243 22.0842 38.6012 22.1398 38.5602 22.1808C38.5192 22.2218 38.4635 22.2449 38.4055 22.2449H34.8118C34.7537 22.2449 34.6981 22.2218 34.6571 22.1808ZM33.863 19.0536V19.0536L33.8593 19.0536C33.815 19.054 33.7717 19.0409 33.735 19.016C33.6983 18.9912 33.67 18.9558 33.6539 18.9145C33.6378 18.8733 33.6346 18.8281 33.6447 18.785C33.6548 18.7419 33.6778 18.7028 33.7105 18.673L33.7191 18.6652L33.7273 18.6571L36.2645 16.1271L36.2645 16.1271L36.2685 16.123C36.289 16.1021 36.3135 16.0855 36.3406 16.0742C36.3677 16.0629 36.3967 16.0572 36.426 16.0574L36.426 16.0574L36.4319 16.0574C36.4612 16.0572 36.4902 16.0629 36.5173 16.0742L36.7096 15.6127L36.5173 16.0742C36.5443 16.0855 36.5688 16.1021 36.5894 16.123L36.5893 16.1231L36.5969 16.1305C36.6177 16.1509 36.6343 16.1752 36.6456 16.2021C36.6569 16.2289 36.6627 16.2578 36.6627 16.2869C36.6627 16.3161 36.6569 16.3449 36.6456 16.3718L37.1064 16.5657L36.6456 16.3718C36.6343 16.3986 36.6177 16.423 36.5969 16.4433L36.5969 16.4433L36.5949 16.4453L34.0577 18.9537L34.0451 18.9662L34.0334 18.9795C34.0136 19.002 33.9895 19.0203 33.9624 19.0331L34.1759 19.4852L33.9624 19.0331C33.937 19.045 33.9095 19.052 33.8815 19.0536H33.863Z" fill="white" stroke="white"/>
<mask id="path-2-inside-1" fill="white">
<path d="M36.4287 15.7152C36.5006 15.7147 36.5719 15.7284 36.6385 15.7556C36.7051 15.7827 36.7657 15.8227 36.8168 15.8733C36.8683 15.9247 36.9092 15.9858 36.937 16.053C36.9649 16.1202 36.9793 16.1923 36.9793 16.265C36.9793 16.3378 36.9649 16.4099 36.937 16.4771C36.9092 16.5443 36.8683 16.6054 36.8168 16.6568L34.2868 19.1868C34.2359 19.2391 34.175 19.2808 34.1077 19.3092C34.0404 19.3376 33.9681 19.3523 33.8951 19.3523C33.822 19.3523 33.7497 19.3376 33.6824 19.3092C33.6152 19.2808 33.5543 19.2391 33.5033 19.1868C33.4521 19.136 33.4114 19.0755 33.3836 19.0089C33.3558 18.9423 33.3415 18.8708 33.3415 18.7986C33.3415 18.7265 33.3558 18.655 33.3836 18.5884C33.4114 18.5217 33.4521 18.4613 33.5033 18.4105L36.0333 15.8733C36.0855 15.8222 36.1473 15.7819 36.2152 15.7547C36.283 15.7276 36.3556 15.7141 36.4287 15.7152ZM38.4052 21.4652C38.5501 21.4652 38.689 21.5227 38.7915 21.6252C38.8939 21.7276 38.9515 21.8666 38.9515 22.0114C38.9534 22.084 38.9407 22.1563 38.914 22.2238C38.8873 22.2914 38.8473 22.3529 38.7963 22.4045C38.7452 22.4562 38.6843 22.4971 38.6171 22.5246C38.5499 22.5522 38.4778 22.5659 38.4052 22.5649H34.8115C34.734 22.5738 34.6555 22.5662 34.5812 22.5426C34.5068 22.519 34.4383 22.48 34.3801 22.428C34.3219 22.3761 34.2753 22.3125 34.2434 22.2413C34.2116 22.1701 34.1951 22.093 34.1951 22.015C34.1951 21.937 34.2116 21.8599 34.2434 21.7888C34.2753 21.7176 34.3219 21.654 34.3801 21.602C34.4383 21.5501 34.5068 21.5111 34.5812 21.4875C34.6555 21.4639 34.734 21.4563 34.8115 21.4652H38.4052ZM33.8412 24.6061C33.9136 24.6066 33.9852 24.6214 34.0518 24.6498C34.1185 24.6782 34.1788 24.7195 34.2293 24.7714L36.7665 27.3014C36.843 27.3792 36.8948 27.4779 36.9154 27.5851C36.936 27.6923 36.9245 27.8032 36.8822 27.9038C36.84 28.0044 36.7689 28.0903 36.678 28.1507C36.5871 28.211 36.4803 28.2432 36.3712 28.243C36.2992 28.2435 36.2279 28.2298 36.1613 28.2026C36.0947 28.1755 36.0341 28.1355 35.983 28.0849L33.453 25.5477C33.3769 25.4703 33.3252 25.3723 33.3044 25.2658C33.2835 25.1592 33.2945 25.049 33.3359 24.9486C33.3772 24.8483 33.4472 24.7623 33.537 24.7014C33.6269 24.6405 33.7326 24.6074 33.8412 24.6061ZM36.4071 15.3989C36.287 15.3982 36.168 15.4213 36.057 15.4669C35.9459 15.5126 35.845 15.5799 35.7602 15.6649L33.2302 18.1949C33.1058 18.3234 33.0215 18.4854 32.9878 18.6611C32.954 18.8367 32.9721 19.0184 33.04 19.1839C33.1079 19.3494 33.2225 19.4915 33.3699 19.5929C33.5173 19.6942 33.6911 19.7504 33.8699 19.7546C33.9904 19.754 34.1096 19.7296 34.2207 19.6827C34.3317 19.6358 34.4323 19.5674 34.5168 19.4814L37.054 16.9514C37.1798 16.8234 37.265 16.6611 37.299 16.4849C37.3331 16.3087 37.3144 16.1263 37.2454 15.9607C37.1764 15.795 37.06 15.6533 36.9109 15.5534C36.7618 15.4535 36.5866 15.3998 36.4071 15.3989ZM38.4052 21.0843H34.8115C34.6853 21.073 34.5581 21.0882 34.4381 21.1288C34.3181 21.1694 34.2078 21.2345 34.1144 21.32C34.0209 21.4055 33.9463 21.5096 33.8952 21.6255C33.8441 21.7415 33.8177 21.8668 33.8177 21.9935C33.8177 22.1202 33.8441 22.2455 33.8952 22.3614C33.9463 22.4774 34.0209 22.5814 34.1144 22.6669C34.2078 22.7525 34.3181 22.8176 34.4381 22.8582C34.5581 22.8988 34.6853 22.9139 34.8115 22.9027H38.4052C38.5253 22.9035 38.6443 22.8803 38.7554 22.8347C38.8664 22.789 38.9673 22.7218 39.0521 22.6368C39.1375 22.5526 39.2045 22.4517 39.2491 22.3404C39.2936 22.229 39.3146 22.1097 39.3108 21.9899C39.3108 21.7497 39.2154 21.5193 39.0456 21.3495C38.8758 21.1797 38.6454 21.0843 38.4052 21.0843ZM33.8412 24.2252C33.7211 24.2244 33.6021 24.2475 33.491 24.2932C33.38 24.3388 33.2791 24.4061 33.1943 24.4911C33.024 24.6634 32.9285 24.8958 32.9285 25.138C32.9285 25.3802 33.024 25.6127 33.1943 25.7849L35.7315 28.3149C35.9062 28.4631 36.1303 28.5401 36.3593 28.5307C36.5882 28.5213 36.8052 28.4261 36.9673 28.2641C37.1293 28.1021 37.2245 27.8851 37.2339 27.6561C37.2433 27.4272 37.1662 27.2031 37.018 27.0283L34.488 24.4911C34.4032 24.4061 34.3024 24.3388 34.1913 24.2932C34.0803 24.2475 33.9612 24.2244 33.8412 24.2252Z"/>
</mask>
<path d="M36.4287 15.7152C36.5006 15.7147 36.5719 15.7284 36.6385 15.7556C36.7051 15.7827 36.7657 15.8227 36.8168 15.8733C36.8683 15.9247 36.9092 15.9858 36.937 16.053C36.9649 16.1202 36.9793 16.1923 36.9793 16.265C36.9793 16.3378 36.9649 16.4099 36.937 16.4771C36.9092 16.5443 36.8683 16.6054 36.8168 16.6568L34.2868 19.1868C34.2359 19.2391 34.175 19.2808 34.1077 19.3092C34.0404 19.3376 33.9681 19.3523 33.8951 19.3523C33.822 19.3523 33.7497 19.3376 33.6824 19.3092C33.6152 19.2808 33.5543 19.2391 33.5033 19.1868C33.4521 19.136 33.4114 19.0755 33.3836 19.0089C33.3558 18.9423 33.3415 18.8708 33.3415 18.7986C33.3415 18.7265 33.3558 18.655 33.3836 18.5884C33.4114 18.5217 33.4521 18.4613 33.5033 18.4105L36.0333 15.8733C36.0855 15.8222 36.1473 15.7819 36.2152 15.7547C36.283 15.7276 36.3556 15.7141 36.4287 15.7152ZM38.4052 21.4652C38.5501 21.4652 38.689 21.5227 38.7915 21.6252C38.8939 21.7276 38.9515 21.8666 38.9515 22.0114C38.9534 22.084 38.9407 22.1563 38.914 22.2238C38.8873 22.2914 38.8473 22.3529 38.7963 22.4045C38.7452 22.4562 38.6843 22.4971 38.6171 22.5246C38.5499 22.5522 38.4778 22.5659 38.4052 22.5649H34.8115C34.734 22.5738 34.6555 22.5662 34.5812 22.5426C34.5068 22.519 34.4383 22.48 34.3801 22.428C34.3219 22.3761 34.2753 22.3125 34.2434 22.2413C34.2116 22.1701 34.1951 22.093 34.1951 22.015C34.1951 21.937 34.2116 21.8599 34.2434 21.7888C34.2753 21.7176 34.3219 21.654 34.3801 21.602C34.4383 21.5501 34.5068 21.5111 34.5812 21.4875C34.6555 21.4639 34.734 21.4563 34.8115 21.4652H38.4052ZM33.8412 24.6061C33.9136 24.6066 33.9852 24.6214 34.0518 24.6498C34.1185 24.6782 34.1788 24.7195 34.2293 24.7714L36.7665 27.3014C36.843 27.3792 36.8948 27.4779 36.9154 27.5851C36.936 27.6923 36.9245 27.8032 36.8822 27.9038C36.84 28.0044 36.7689 28.0903 36.678 28.1507C36.5871 28.211 36.4803 28.2432 36.3712 28.243C36.2992 28.2435 36.2279 28.2298 36.1613 28.2026C36.0947 28.1755 36.0341 28.1355 35.983 28.0849L33.453 25.5477C33.3769 25.4703 33.3252 25.3723 33.3044 25.2658C33.2835 25.1592 33.2945 25.049 33.3359 24.9486C33.3772 24.8483 33.4472 24.7623 33.537 24.7014C33.6269 24.6405 33.7326 24.6074 33.8412 24.6061ZM36.4071 15.3989C36.287 15.3982 36.168 15.4213 36.057 15.4669C35.9459 15.5126 35.845 15.5799 35.7602 15.6649L33.2302 18.1949C33.1058 18.3234 33.0215 18.4854 32.9878 18.6611C32.954 18.8367 32.9721 19.0184 33.04 19.1839C33.1079 19.3494 33.2225 19.4915 33.3699 19.5929C33.5173 19.6942 33.6911 19.7504 33.8699 19.7546C33.9904 19.754 34.1096 19.7296 34.2207 19.6827C34.3317 19.6358 34.4323 19.5674 34.5168 19.4814L37.054 16.9514C37.1798 16.8234 37.265 16.6611 37.299 16.4849C37.3331 16.3087 37.3144 16.1263 37.2454 15.9607C37.1764 15.795 37.06 15.6533 36.9109 15.5534C36.7618 15.4535 36.5866 15.3998 36.4071 15.3989ZM38.4052 21.0843H34.8115C34.6853 21.073 34.5581 21.0882 34.4381 21.1288C34.3181 21.1694 34.2078 21.2345 34.1144 21.32C34.0209 21.4055 33.9463 21.5096 33.8952 21.6255C33.8441 21.7415 33.8177 21.8668 33.8177 21.9935C33.8177 22.1202 33.8441 22.2455 33.8952 22.3614C33.9463 22.4774 34.0209 22.5814 34.1144 22.6669C34.2078 22.7525 34.3181 22.8176 34.4381 22.8582C34.5581 22.8988 34.6853 22.9139 34.8115 22.9027H38.4052C38.5253 22.9035 38.6443 22.8803 38.7554 22.8347C38.8664 22.789 38.9673 22.7218 39.0521 22.6368C39.1375 22.5526 39.2045 22.4517 39.2491 22.3404C39.2936 22.229 39.3146 22.1097 39.3108 21.9899C39.3108 21.7497 39.2154 21.5193 39.0456 21.3495C38.8758 21.1797 38.6454 21.0843 38.4052 21.0843ZM33.8412 24.2252C33.7211 24.2244 33.6021 24.2475 33.491 24.2932C33.38 24.3388 33.2791 24.4061 33.1943 24.4911C33.024 24.6634 32.9285 24.8958 32.9285 25.138C32.9285 25.3802 33.024 25.6127 33.1943 25.7849L35.7315 28.3149C35.9062 28.4631 36.1303 28.5401 36.3593 28.5307C36.5882 28.5213 36.8052 28.4261 36.9673 28.2641C37.1293 28.1021 37.2245 27.8851 37.2339 27.6561C37.2433 27.4272 37.1662 27.2031 37.018 27.0283L34.488 24.4911C34.4032 24.4061 34.3024 24.3388 34.1913 24.2932C34.0803 24.2475 33.9612 24.2244 33.8412 24.2252Z" fill="white"/>
<path d="M36.8168 15.8733L37.5232 15.1655L37.5205 15.1628L36.8168 15.8733ZM36.9793 16.265H37.9793H36.9793ZM36.8168 16.6568L36.1104 15.949L36.1097 15.9496L36.8168 16.6568ZM34.2868 19.1868L33.5797 18.4796L33.5746 18.4847L33.5697 18.4898L34.2868 19.1868ZM33.8951 19.3523V20.3523V19.3523ZM33.5033 19.1868L34.2205 18.4898L34.2138 18.4829L34.207 18.4762L33.5033 19.1868ZM33.5033 18.4105L34.207 19.121L34.2115 19.1166L33.5033 18.4105ZM36.0333 15.8733L35.3333 15.1591L35.3252 15.1672L36.0333 15.8733ZM38.9515 22.0114H37.9515V22.0248L37.9518 22.0382L38.9515 22.0114ZM38.4052 22.5649L38.4189 21.5649H38.4052V22.5649ZM34.8115 22.5649V21.5649H34.7544L34.6977 21.5714L34.8115 22.5649ZM34.8115 21.4652L34.6977 22.4587L34.7544 22.4652H34.8115V21.4652ZM34.2293 24.7714L33.5126 25.4688L33.5178 25.4742L33.5232 25.4795L34.2293 24.7714ZM36.7665 27.3014L37.4794 26.6001L37.4726 26.5933L36.7665 27.3014ZM36.3712 28.243L36.3726 27.243L36.3643 27.243L36.3712 28.243ZM35.983 28.0849L35.2749 28.791L35.2793 28.7954L35.983 28.0849ZM33.453 25.5477L32.7402 26.2491L32.7449 26.2538L33.453 25.5477ZM36.4071 15.3989L36.4007 16.3989L36.4024 16.3989L36.4071 15.3989ZM35.7602 15.6649L36.4673 16.372L36.4681 16.3712L35.7602 15.6649ZM33.2302 18.1949L32.5231 17.4878L32.5174 17.4935L32.5118 17.4993L33.2302 18.1949ZM33.8699 19.7546L33.8468 20.7543L33.8607 20.7546L33.8746 20.7546L33.8699 19.7546ZM34.5168 19.4814L33.8106 18.7733L33.8034 18.7807L34.5168 19.4814ZM37.054 16.9514L37.7601 17.6596L37.7673 17.6522L37.054 16.9514ZM34.8115 21.0843L34.7228 22.0803L34.7671 22.0843H34.8115V21.0843ZM33.8177 21.9935H32.8177H33.8177ZM34.8115 22.9027V21.9027H34.7671L34.7228 21.9066L34.8115 22.9027ZM38.4052 22.9027L38.4116 21.9027H38.4052V22.9027ZM39.0521 22.6368L38.3501 21.9245L38.3442 21.9304L39.0521 22.6368ZM39.3108 21.9899H38.3108V22.0057L38.3113 22.0215L39.3108 21.9899ZM33.1943 24.4911L32.4864 23.7848L32.4832 23.788L33.1943 24.4911ZM33.1943 25.7849L32.4832 26.488L32.4882 26.493L33.1943 25.7849ZM35.7315 28.3149L35.0254 29.023L35.054 29.0515L35.0847 29.0776L35.7315 28.3149ZM37.018 27.0283L37.7808 26.3816L37.7546 26.3508L37.7261 26.3222L37.018 27.0283ZM34.488 24.4911L35.1961 23.785L35.1959 23.7848L34.488 24.4911ZM36.4355 16.7152C36.3758 16.7156 36.3165 16.7042 36.2612 16.6816L37.0158 14.8295C36.8273 14.7527 36.6254 14.7138 36.4218 14.7152L36.4355 16.7152ZM36.2612 16.6816C36.2059 16.6591 36.1555 16.6259 36.1131 16.5838L37.5205 15.1628C37.3758 15.0196 37.2043 14.9063 37.0158 14.8295L36.2612 16.6816ZM36.1104 16.5811C36.0688 16.5396 36.0358 16.4904 36.0133 16.4361L37.8607 15.6699C37.7825 15.4812 37.6678 15.3098 37.5232 15.1655L36.1104 16.5811ZM36.0133 16.4361C35.9908 16.3819 35.9793 16.3237 35.9793 16.265H37.9793C37.9793 16.0608 37.939 15.8585 37.8607 15.6699L36.0133 16.4361ZM35.9793 16.265C35.9793 16.2063 35.9908 16.1482 36.0133 16.0939L37.8607 16.8602C37.939 16.6715 37.9793 16.4693 37.9793 16.265H35.9793ZM36.0133 16.0939C36.0358 16.0397 36.0688 15.9904 36.1104 15.949L37.5232 17.3645C37.6678 17.2203 37.7825 17.0489 37.8607 16.8602L36.0133 16.0939ZM36.1097 15.9496L33.5797 18.4796L34.9939 19.8939L37.5239 17.3639L36.1097 15.9496ZM33.5697 18.4898C33.612 18.4463 33.6626 18.4117 33.7184 18.3881L34.4969 20.2303C34.6874 20.1499 34.8598 20.032 35.0039 19.8837L33.5697 18.4898ZM33.7184 18.3881C33.7743 18.3645 33.8344 18.3523 33.8951 18.3523V20.3523C34.1018 20.3523 34.3065 20.3108 34.4969 20.2303L33.7184 18.3881ZM33.8951 18.3523C33.9557 18.3523 34.0158 18.3645 34.0717 18.3881L33.2932 20.2303C33.4836 20.3108 33.6883 20.3523 33.8951 20.3523V18.3523ZM34.0717 18.3881C34.1276 18.4117 34.1782 18.4463 34.2205 18.4898L32.7862 19.8837C32.9304 20.032 33.1027 20.1499 33.2932 20.2303L34.0717 18.3881ZM34.207 18.4762C34.2496 18.5184 34.2834 18.5686 34.3065 18.624L32.4606 19.3938C32.5393 19.5824 32.6545 19.7535 32.7997 19.8973L34.207 18.4762ZM34.3065 18.624C34.3296 18.6793 34.3415 18.7387 34.3415 18.7986H32.3415C32.3415 19.003 32.382 19.2052 32.4606 19.3938L34.3065 18.624ZM34.3415 18.7986C34.3415 18.8586 34.3296 18.918 34.3065 18.9733L32.4606 18.2034C32.382 18.392 32.3415 18.5943 32.3415 18.7986H34.3415ZM34.3065 18.9733C34.2834 19.0286 34.2496 19.0788 34.207 19.121L32.7997 17.7C32.6545 17.8437 32.5393 18.0149 32.4606 18.2034L34.3065 18.9733ZM34.2115 19.1166L36.7415 16.5794L35.3252 15.1672L32.7952 17.7044L34.2115 19.1166ZM36.7333 16.5875C36.6912 16.6288 36.6413 16.6613 36.5866 16.6832L35.8438 14.8262C35.6534 14.9024 35.4799 15.0156 35.3334 15.1591L36.7333 16.5875ZM36.5866 16.6832C36.5318 16.7051 36.4733 16.7159 36.4143 16.7151L36.443 14.7153C36.2379 14.7124 36.0342 14.7501 35.8438 14.8262L36.5866 16.6832ZM38.4052 22.4652C38.2849 22.4652 38.1695 22.4174 38.0844 22.3323L39.4986 20.9181C39.2086 20.6281 38.8153 20.4652 38.4052 20.4652V22.4652ZM38.0844 22.3323C37.9993 22.2472 37.9515 22.1318 37.9515 22.0114H39.9515C39.9515 21.6014 39.7886 21.2081 39.4986 20.9181L38.0844 22.3323ZM37.9518 22.0382C37.9502 21.9761 37.9611 21.9144 37.9839 21.8566L39.8441 22.5911C39.9203 22.3982 39.9567 22.192 39.9511 21.9847L37.9518 22.0382ZM37.9839 21.8566C38.0067 21.7988 38.0409 21.7463 38.0845 21.7021L39.508 23.107C39.6536 22.9594 39.768 22.784 39.8441 22.5911L37.9839 21.8566ZM38.0845 21.7021C38.1282 21.6579 38.1803 21.623 38.2377 21.5994L38.9965 23.4499C39.1883 23.3712 39.3623 23.2546 39.508 23.107L38.0845 21.7021ZM38.2377 21.5994C38.2952 21.5758 38.3568 21.5641 38.4189 21.565L38.3915 23.5648C38.5989 23.5676 38.8046 23.5285 38.9965 23.4499L38.2377 21.5994ZM38.4052 21.5649H34.8115V23.5649H38.4052V21.5649ZM34.6977 21.5714C34.7602 21.5642 34.8235 21.5703 34.8835 21.5894L34.2788 23.4958C34.4875 23.562 34.7078 23.5833 34.9252 23.5584L34.6977 21.5714ZM34.8835 21.5894C34.9435 21.6084 34.9988 21.6399 35.0458 21.6818L33.7144 23.1743C33.8778 23.32 34.0701 23.4296 34.2788 23.4958L34.8835 21.5894ZM35.0458 21.6818C35.0927 21.7237 35.1303 21.775 35.156 21.8325L33.3308 22.6502C33.4203 22.85 33.5511 23.0286 33.7144 23.1743L35.0458 21.6818ZM35.156 21.8325C35.1818 21.8899 35.1951 21.9521 35.1951 22.015H33.1951C33.1951 22.234 33.2413 22.4504 33.3308 22.6502L35.156 21.8325ZM35.1951 22.015C35.1951 22.078 35.1818 22.1402 35.156 22.1976L33.3308 21.3799C33.2413 21.5797 33.1951 21.7961 33.1951 22.015H35.1951ZM35.156 22.1976C35.1303 22.255 35.0927 22.3064 35.0458 22.3483L33.7144 20.8558C33.5511 21.0015 33.4203 21.1801 33.3308 21.3799L35.156 22.1976ZM35.0458 22.3483C34.9988 22.3902 34.9435 22.4217 34.8835 22.4407L34.2788 20.5343C34.0701 20.6005 33.8778 20.7101 33.7144 20.8558L35.0458 22.3483ZM34.8835 22.4407C34.8235 22.4597 34.7602 22.4659 34.6977 22.4587L34.9252 20.4717C34.7078 20.4468 34.4875 20.4681 34.2788 20.5343L34.8835 22.4407ZM34.8115 22.4652H38.4052V20.4652H34.8115V22.4652ZM33.835 25.6061C33.7748 25.6057 33.7153 25.5934 33.66 25.5698L34.4437 23.7298C34.2551 23.6494 34.0524 23.6074 33.8474 23.6061L33.835 25.6061ZM33.66 25.5698C33.6046 25.5463 33.5545 25.5119 33.5126 25.4688L34.946 24.0741C34.8031 23.9272 34.6323 23.8101 34.4437 23.7298L33.66 25.5698ZM33.5232 25.4795L36.0604 28.0096L37.4726 26.5933L34.9354 24.0633L33.5232 25.4795ZM36.0536 28.0027C35.9918 27.94 35.95 27.8603 35.9334 27.7738L37.8975 27.3964C37.8397 27.0956 37.6942 26.8185 37.4793 26.6001L36.0536 28.0027ZM35.9334 27.7738C35.9168 27.6874 35.9261 27.5979 35.9602 27.5167L37.8043 28.2909C37.9229 28.0085 37.9553 27.6972 37.8975 27.3964L35.9334 27.7738ZM35.9602 27.5167C35.9943 27.4355 36.0516 27.3662 36.125 27.3175L37.231 28.9839C37.4862 28.8145 37.6857 28.5734 37.8043 28.2909L35.9602 27.5167ZM36.125 27.3175C36.1984 27.2688 36.2845 27.2429 36.3726 27.243L36.3697 29.243C36.6761 29.2434 36.9757 29.1533 37.231 28.9839L36.125 27.3175ZM36.3643 27.243C36.4241 27.2426 36.4833 27.254 36.5386 27.2766L35.784 29.1287C35.9726 29.2055 36.1744 29.2444 36.378 29.243L36.3643 27.243ZM36.5386 27.2766C36.594 27.2991 36.6443 27.3323 36.6867 27.3744L35.2793 28.7954C35.424 28.9386 35.5955 29.0519 35.784 29.1287L36.5386 27.2766ZM36.6911 27.3788L34.1611 24.8416L32.7449 26.2538L35.2749 28.791L36.6911 27.3788ZM34.1658 24.8463C34.2273 24.9088 34.269 24.9879 34.2858 25.0738L32.323 25.4577C32.3815 25.7567 32.5266 26.0319 32.7402 26.2491L34.1658 24.8463ZM34.2858 25.0738C34.3026 25.1597 34.2938 25.2487 34.2604 25.3297L32.4113 24.5675C32.2952 24.8492 32.2645 25.1588 32.323 25.4577L34.2858 25.0738ZM34.2604 25.3297C34.227 25.4107 34.1706 25.4801 34.0981 25.5292L32.976 23.8736C32.7238 24.0445 32.5274 24.2858 32.4113 24.5675L34.2604 25.3297ZM34.0981 25.5292C34.0256 25.5783 33.9402 25.6051 33.8527 25.6061L33.8297 23.6062C33.525 23.6097 33.2282 23.7027 32.976 23.8736L34.0981 25.5292ZM36.4135 14.399C36.1608 14.3973 35.9104 14.446 35.6767 14.5421L36.4372 16.3918C36.4256 16.3966 36.4132 16.399 36.4007 16.3989L36.4135 14.399ZM35.6767 14.5421C35.443 14.6381 35.2308 14.7797 35.0523 14.9586L36.4681 16.3712C36.4593 16.3801 36.4488 16.3871 36.4372 16.3918L35.6767 14.5421ZM35.0531 14.9578L32.5231 17.4878L33.9373 18.902L36.4673 16.372L35.0531 14.9578ZM32.5118 17.4993C32.2521 17.7675 32.0763 18.1056 32.0057 18.4722L33.9698 18.8499C33.9668 18.8652 33.9595 18.8793 33.9487 18.8905L32.5118 17.4993ZM32.0057 18.4722C31.9352 18.8388 31.9731 19.218 32.1148 19.5634L33.9652 18.8045C33.9711 18.8188 33.9727 18.8346 33.9698 18.8499L32.0057 18.4722ZM32.1148 19.5634C32.2565 19.9088 32.4957 20.2054 32.8033 20.4169L33.9365 18.7689C33.9493 18.7777 33.9593 18.7901 33.9652 18.8045L32.1148 19.5634ZM32.8033 20.4169C33.111 20.6284 33.4736 20.7457 33.8468 20.7543L33.893 18.7548C33.9086 18.7552 33.9237 18.7601 33.9365 18.7689L32.8033 20.4169ZM33.8746 20.7546C34.1272 20.7534 34.377 20.7022 34.6096 20.6039L33.8317 18.7614C33.8423 18.757 33.8537 18.7546 33.8652 18.7546L33.8746 20.7546ZM34.6096 20.6039C34.8423 20.5057 35.0532 20.3624 35.2302 20.1822L33.8034 18.7807C33.8115 18.7725 33.8211 18.7659 33.8317 18.7614L34.6096 20.6039ZM35.2229 20.1896L37.7601 17.6596L36.3479 16.2433L33.8107 18.7733L35.2229 20.1896ZM37.7673 17.6522C38.0309 17.3839 38.2095 17.0439 38.2809 16.6746L36.3172 16.2952C36.3205 16.2784 36.3286 16.2629 36.3406 16.2506L37.7673 17.6522ZM38.2809 16.6746C38.3522 16.3053 38.3131 15.9232 38.1685 15.576L36.3223 16.3453C36.3157 16.3295 36.314 16.312 36.3172 16.2952L38.2809 16.6746ZM38.1685 15.576C38.0238 15.2289 37.78 14.932 37.4676 14.7227L36.3543 16.3842C36.34 16.3746 36.3289 16.3611 36.3223 16.3453L38.1685 15.576ZM37.4676 14.7227C37.1551 14.5133 36.7879 14.4007 36.4118 14.399L36.4024 16.3989C36.3853 16.3989 36.3685 16.3937 36.3543 16.3842L37.4676 14.7227ZM38.4052 20.0843H34.8115V22.0843H38.4052V20.0843ZM34.9001 20.0882C34.6357 20.0647 34.3692 20.0964 34.1177 20.1815L34.7585 22.0761C34.747 22.0799 34.7349 22.0814 34.7228 22.0803L34.9001 20.0882ZM34.1177 20.1815C33.8662 20.2665 33.6352 20.403 33.4393 20.5822L34.7894 22.0578C34.7805 22.066 34.7699 22.0722 34.7585 22.0761L34.1177 20.1815ZM33.4393 20.5822C33.2435 20.7614 33.087 20.9795 32.98 21.2224L34.8103 22.0286C34.8055 22.0397 34.7983 22.0496 34.7894 22.0578L33.4393 20.5822ZM32.98 21.2224C32.873 21.4654 32.8177 21.728 32.8177 21.9935H34.8177C34.8177 22.0056 34.8152 22.0175 34.8103 22.0286L32.98 21.2224ZM32.8177 21.9935C32.8177 22.259 32.873 22.5215 32.98 22.7645L34.8103 21.9583C34.8152 21.9694 34.8177 21.9814 34.8177 21.9935H32.8177ZM32.98 22.7645C33.087 23.0075 33.2435 23.2255 33.4393 23.4047L34.7894 21.9291C34.7983 21.9373 34.8055 21.9473 34.8103 21.9583L32.98 22.7645ZM33.4393 23.4047C33.6352 23.5839 33.8663 23.7204 34.1177 23.8055L34.7585 21.9109C34.7699 21.9148 34.7805 21.921 34.7894 21.9291L33.4393 23.4047ZM34.1177 23.8055C34.3692 23.8905 34.6357 23.9223 34.9001 23.8988L34.7228 21.9066C34.7349 21.9056 34.747 21.907 34.7585 21.9109L34.1177 23.8055ZM34.8115 23.9027H38.4052V21.9027H34.8115V23.9027ZM38.3988 23.9027C38.6515 23.9043 38.9019 23.8556 39.1356 23.7596L38.3751 21.9098C38.3867 21.905 38.3991 21.9026 38.4116 21.9027L38.3988 23.9027ZM39.1356 23.7596C39.3693 23.6635 39.5815 23.5219 39.76 23.3431L38.3442 21.9304C38.3531 21.9216 38.3636 21.9146 38.3751 21.9098L39.1356 23.7596ZM39.7541 23.349C39.9377 23.168 40.0818 22.9511 40.1776 22.7118L38.3206 21.969C38.3273 21.9523 38.3373 21.9372 38.3501 21.9246L39.7541 23.349ZM40.1776 22.7118C40.2733 22.4724 40.3185 22.2159 40.3103 21.9583L38.3113 22.0215C38.3108 22.0035 38.3139 21.9857 38.3206 21.969L40.1776 22.7118ZM40.3108 21.9899C40.3108 21.4845 40.1101 20.9998 39.7527 20.6424L38.3385 22.0566C38.3208 22.0389 38.3108 22.0149 38.3108 21.9899H40.3108ZM39.7527 20.6424C39.3953 20.285 38.9106 20.0843 38.4052 20.0843V22.0843C38.3802 22.0843 38.3562 22.0743 38.3385 22.0566L39.7527 20.6424ZM33.8476 23.2252C33.5949 23.2236 33.3445 23.2722 33.1108 23.3683L33.8712 25.2181C33.8597 25.2228 33.8473 25.2253 33.8348 25.2252L33.8476 23.2252ZM33.1108 23.3683C32.8771 23.4644 32.6649 23.6059 32.4864 23.7848L33.9022 25.1975C33.8933 25.2063 33.8828 25.2133 33.8712 25.2181L33.1108 23.3683ZM32.4832 23.788C32.1278 24.1474 31.9285 24.6325 31.9285 25.138H33.9285C33.9285 25.1591 33.9202 25.1793 33.9054 25.1943L32.4832 23.788ZM31.9285 25.138C31.9285 25.6435 32.1278 26.1286 32.4832 26.488L33.9054 25.0818C33.9202 25.0967 33.9285 25.1169 33.9285 25.138H31.9285ZM32.4882 26.493L35.0254 29.023L36.4376 27.6068L33.9004 25.0768L32.4882 26.493ZM35.0847 29.0776C35.451 29.3881 35.9206 29.5496 36.4003 29.5299L36.3182 27.5315C36.3401 27.5306 36.3615 27.538 36.3782 27.5522L35.0847 29.0776ZM36.4003 29.5299C36.8801 29.5102 37.3349 29.3107 37.6744 28.9712L36.2602 27.557C36.2756 27.5415 36.2964 27.5324 36.3182 27.5315L36.4003 29.5299ZM37.6744 28.9712C38.0139 28.6317 38.2133 28.1769 38.233 27.6972L36.2347 27.6151C36.2356 27.5932 36.2447 27.5725 36.2602 27.557L37.6744 28.9712ZM38.233 27.6972C38.2527 27.2174 38.0913 26.7478 37.7808 26.3816L36.2553 27.675C36.2412 27.6584 36.2338 27.6369 36.2347 27.6151L38.233 27.6972ZM37.7261 26.3222L35.1961 23.785L33.7799 25.1972L36.3099 27.7344L37.7261 26.3222ZM35.1959 23.7848C35.0175 23.6059 34.8052 23.4644 34.5715 23.3683L33.8111 25.2181C33.7995 25.2133 33.789 25.2063 33.7802 25.1975L35.1959 23.7848ZM34.5715 23.3683C34.3379 23.2722 34.0874 23.2236 33.8348 23.2252L33.8476 25.2252C33.835 25.2253 33.8226 25.2228 33.8111 25.2181L34.5715 23.3683Z" fill="white" mask="url(#path-2-inside-1)"/>
<path d="M26.9054 12.4663L17.4107 17.0807C16.9727 17.2887 16.494 17.3967 16.0091 17.3969H9.04445C8.45858 17.3988 7.89735 17.6329 7.48374 18.0479C7.07013 18.4628 6.83789 19.0248 6.83789 19.6107V24.491C6.83789 24.7804 6.89502 25.067 7.00599 25.3343C7.11697 25.6016 7.27962 25.8444 7.48461 26.0487C7.6896 26.2531 7.93291 26.4149 8.20058 26.525C8.46825 26.6351 8.75502 26.6913 9.04445 26.6904H16.0091C16.4951 26.6881 16.9749 26.7988 17.4107 27.0138L26.9054 31.5994V12.4663Z" stroke="white"/>
<path d="M29.2015 18.2379V18.6674L29.6261 18.7322C30.1113 18.8061 30.5545 19.0498 30.8768 19.4199C31.1985 19.7892 31.379 20.2603 31.3865 20.7499L31.3865 23.362C31.3865 23.3621 31.3865 23.3622 31.3865 23.3623C31.3858 23.8525 31.2109 24.3265 30.8929 24.6996C30.5748 25.0728 30.1344 25.3207 29.6504 25.399L29.2302 25.4669V25.8926V31.6426C29.2302 31.7553 29.1857 31.8635 29.1063 31.9435C29.0273 32.0231 28.9201 32.0685 28.8079 32.0697H27.8255C27.7701 32.0697 27.7152 32.0588 27.664 32.0375C27.6129 32.0162 27.5664 31.9849 27.5274 31.9456C27.4883 31.9062 27.4575 31.8595 27.4366 31.8082C27.4156 31.7569 27.4051 31.7019 27.4055 31.6465H27.4055V31.6426V12.4732C27.4091 12.3674 27.4525 12.2668 27.5271 12.1916C27.6013 12.1168 27.7009 12.0727 27.806 12.0679H28.7815C28.8929 12.0679 28.9997 12.1121 29.0785 12.1909C29.1572 12.2696 29.2015 12.3765 29.2015 12.4879V18.2379Z" fill="white" stroke="white"/>
<path d="M9.04445 26.1909L9.04282 26.1909C8.81919 26.1916 8.59761 26.1482 8.39079 26.0631C8.18397 25.9781 7.99598 25.853 7.83759 25.6951C7.6792 25.5373 7.55353 25.3497 7.46778 25.1431C7.38203 24.9366 7.33789 24.7152 7.33789 24.4915V19.6112C7.33789 19.1577 7.51768 18.7226 7.83787 18.4014C8.15788 18.0803 8.59204 17.8991 9.04532 17.8975H15.4588V26.1765H13.8026H13.3026V26.6765V34.8512C13.2775 35.0612 13.1732 35.254 13.0105 35.3898L13.331 35.7736L13.0105 35.3898C12.8425 35.5301 12.6259 35.5983 12.4078 35.5796L12.3865 35.5778H12.3651H11.2007H11.1835L11.1663 35.579C10.9455 35.5942 10.7275 35.5228 10.5584 35.3799C10.395 35.2418 10.2897 35.0473 10.2632 34.8355V26.6909V26.1909H9.7632L9.04445 26.1909Z" fill="white" stroke="white"/>
</svg>
