<svg width="46" height="46" viewBox="0 0 46 46" fill="none" xmlns="http://www.w3.org/2000/svg">
<path d="M37.9102 15.6416L34.2372 17.8234C33.3943 18.3176 32.42 18.234 32.0488 17.6334L30.7188 15.4667C30.3477 14.8585 30.7188 13.9462 31.5694 13.4825L35.0955 11.3842C34.2345 10.8747 33.2536 10.5939 32.2489 10.5694C31.2443 10.5448 30.2504 10.7774 29.3647 11.2442C28.4791 11.711 27.7319 12.3961 27.1966 13.2323C26.6613 14.0685 26.3562 15.027 26.3112 16.0141C26.3112 16.0901 26.3112 16.1661 26.3112 16.2497C26.1844 17.4617 25.6385 18.5941 24.7647 19.458L22.5996 21.6094L22.0892 22.1112L21.5015 22.6814L19.3519 24.7797L18.7642 25.3498L18.5554 25.5627L18.2925 25.8136L11.3332 32.6558C10.9751 32.9925 10.7274 33.4266 10.6218 33.9026C10.5876 34.0626 10.5695 34.2256 10.5676 34.3891C10.5675 34.9875 10.8066 35.5619 11.2334 35.9885C11.6601 36.4152 12.2402 36.6599 12.8487 36.6698C12.9517 36.6777 13.0551 36.6777 13.1581 36.6698C13.7125 36.6053 14.2266 36.3526 14.6118 35.9552L22.6846 27.9803L23.2723 27.4101L24.293 26.4066L25.8395 24.8861L27.9274 22.8334C28.3508 22.4813 28.8456 22.2219 29.3789 22.0725C29.9122 21.9231 30.4718 21.887 31.0204 21.9668L31.3065 22.0048H31.3452C32.1678 22.1087 33.0035 22.0387 33.7963 21.7994C34.5892 21.5601 35.3209 21.157 35.9425 20.6172C36.5641 20.0773 37.0612 19.4132 37.4005 18.6691C37.7399 17.9251 37.9136 17.1184 37.9102 16.303C37.9219 16.0826 37.9219 15.8619 37.9102 15.6416ZM13.1039 35.2102C12.8944 35.2102 12.6896 35.1491 12.5154 35.0346C12.3412 34.9202 12.2054 34.7575 12.1252 34.5672C12.045 34.3769 12.024 34.1675 12.0649 33.9654C12.1058 33.7634 12.2067 33.5778 12.3548 33.4322C12.503 33.2865 12.6918 33.1873 12.8973 33.1471C13.1028 33.1069 13.3158 33.1276 13.5093 33.2064C13.7029 33.2852 13.8684 33.4187 13.9848 33.59C14.1012 33.7613 14.1633 33.9626 14.1633 34.1686C14.1633 34.3054 14.1359 34.4408 14.0827 34.5672C14.0294 34.6936 13.9514 34.8084 13.853 34.9051C13.7546 35.0018 13.6379 35.0785 13.5093 35.1309C13.3808 35.1832 13.243 35.2102 13.1039 35.2102Z" fill="white"/>
<path d="M31.5784 32.4954L32.946 35.0373L31.9203 36.0541L29.4359 34.6124L29.5195 33.6108L21.7625 25.856L20.7977 26.7742L19.9923 25.9698L20.3494 25.6132L18.9591 24.2702C18.6734 24.404 18.3603 24.469 18.0448 24.4598C17.7294 24.4505 17.4206 24.3674 17.1433 24.217C17.0597 24.126 16.9458 24.0198 16.8546 23.9287L7.98078 15.0888L7.9124 15.0433C7.15266 14.2314 7.35779 12.6911 8.45942 11.5832C9.56105 10.4754 11.1109 10.2402 11.9163 11.0445L20.9572 20.0665C20.987 20.1013 21.0125 20.1395 21.0332 20.1803C21.2027 20.4924 21.2915 20.8419 21.2915 21.1971C21.2915 21.5522 21.2027 21.9017 21.0332 22.2138L22.3627 23.5265L22.7502 23.1396L23.5479 23.8984L22.7806 24.8696L30.4768 32.5561L31.5784 32.4954Z" fill="white"/>
</svg>
