<svg width="24" height="30" viewBox="0 0 24 30" fill="none" xmlns="http://www.w3.org/2000/svg">
<path d="M19.7356 17.0423L19.7281 17.0553L19.7209 17.0684C17.6865 20.7774 15.1995 24.2397 12.3121 27.3815L12.2788 27.4178L12.2478 27.4562C12.2151 27.4969 12.1696 27.5342 12.112 27.5614C12.0542 27.5887 11.9881 27.604 11.9192 27.604C11.8504 27.604 11.7843 27.5887 11.7265 27.5614C11.6689 27.5342 11.6234 27.4969 11.5906 27.4562L11.5547 27.4115L11.5154 27.3697C8.22726 23.8675 5.49565 19.9167 3.40821 15.6462L3.40341 15.6364L3.39847 15.6266C2.31184 13.4833 2.02983 11.0481 2.59559 8.7317C3.14699 6.77886 4.34594 5.04231 6.02262 3.7918C7.70467 2.53727 9.7725 1.84345 11.9112 1.82423C13.2622 1.82618 14.5966 2.10083 15.8281 2.62906C17.0615 3.15812 18.1625 3.92899 19.062 4.88902C19.9613 5.8489 20.6393 6.97659 21.0556 8.19812C21.4689 9.41112 21.6159 10.6922 21.4883 11.9609C21.2355 13.7426 20.6418 15.4656 19.7356 17.0423ZM18.5523 11.0899V11.0573L18.5509 11.0247C18.4771 9.33214 17.7287 7.74409 16.4797 6.58819C15.2322 5.4338 13.5812 4.7974 11.8734 4.7974C10.1657 4.7974 8.51467 5.4338 7.26722 6.58819C6.01814 7.7441 5.26974 9.33214 5.19598 11.0247L5.19421 11.0652L5.19465 11.1059C5.21301 12.8375 5.93017 14.4832 7.17648 15.6967C8.42112 16.9086 10.0955 17.5958 11.8413 17.6279L11.8602 17.6282L11.879 17.6281C13.6364 17.6162 15.3279 16.9344 16.5818 15.7157C17.8376 14.4951 18.5524 12.8334 18.5523 11.0899Z" fill="white" stroke="white" stroke-width="3"/>
</svg>
