<svg width="46" height="46" viewBox="0 0 46 46" fill="none" xmlns="http://www.w3.org/2000/svg">
<path d="M32.1611 18.51H17.2403C16.2316 18.51 15.4004 17.3333 15.4004 15.9004C15.4004 14.4675 16.2074 13.2908 17.2403 13.2908H32.1611C33.1778 13.2908 34.0009 14.4675 34.0009 15.9004C34.0009 17.3333 33.1778 18.51 32.1611 18.51Z" fill="white"/>
<path d="M34.0009 20.4714H15.4004V27.9802H34.0009V20.4714Z" fill="white" stroke="white" stroke-width="0.75" stroke-linecap="round" stroke-linejoin="round"/>
<path d="M34.0009 29.1248H15.4004V33.3914H34.0009V29.1248Z" fill="white" stroke="white" stroke-width="0.75" stroke-linecap="round" stroke-linejoin="round"/>
<path d="M34.0819 8.71196H12.0437H9.85682C9.6795 8.69953 9.50153 8.69953 9.32422 8.71196C10.8494 8.88807 12.0195 9.81666 12.0195 10.9214V37.0178H37.3178V10.9534C37.3178 9.7206 35.8572 8.71196 34.0819 8.71196Z" stroke="white" stroke-width="3" stroke-linecap="round" stroke-linejoin="round"/>
<path d="M19.5517 16.6418C19.5517 16.5288 19.5118 16.4336 19.4319 16.3562C19.3533 16.2788 19.22 16.2088 19.0321 16.1462C18.7705 16.0663 18.5795 15.9625 18.4591 15.8348C18.34 15.7058 18.2804 15.5425 18.2804 15.3447C18.2804 15.1433 18.3388 14.9781 18.4554 14.8491C18.5734 14.7202 18.7349 14.6434 18.94 14.6188V14.2153H19.2145V14.6207C19.4209 14.6489 19.5812 14.7355 19.6954 14.8804C19.8108 15.0254 19.8686 15.2237 19.8686 15.4755H19.5296C19.5296 15.3023 19.4884 15.1648 19.4061 15.0628C19.3238 14.9609 19.2127 14.9099 19.0727 14.9099C18.9265 14.9099 18.8147 14.948 18.7373 15.0241C18.66 15.0991 18.6213 15.2041 18.6213 15.3392C18.6213 15.4645 18.6618 15.5646 18.7429 15.6395C18.8252 15.7132 18.9597 15.7808 19.1464 15.8422C19.3343 15.9024 19.4804 15.9693 19.5848 16.043C19.6905 16.1155 19.7679 16.2002 19.817 16.2972C19.8673 16.3943 19.8925 16.5079 19.8925 16.6381C19.8925 16.8457 19.8299 17.0127 19.7046 17.1392C19.5805 17.2657 19.4061 17.3407 19.1814 17.364V17.7159H18.9087V17.364C18.6802 17.3431 18.5009 17.2621 18.3707 17.1208C18.2417 16.9783 18.1772 16.7855 18.1772 16.5423H18.5181C18.5181 16.713 18.5629 16.8444 18.6526 16.9366C18.7423 17.0287 18.8694 17.0747 19.034 17.0747C19.1949 17.0747 19.3214 17.0361 19.4135 16.9587C19.5056 16.8813 19.5517 16.7757 19.5517 16.6418Z" fill="url(#paint0_linear)"/>
<defs>
<linearGradient id="paint0_linear" x1="18.9488" y1="18.14" x2="21.0176" y2="16.7845" gradientUnits="userSpaceOnUse">
<stop offset="0.318117" stop-color="#3564AC"/>
<stop offset="1" stop-color="#3C7DE1"/>
</linearGradient>
</defs>
</svg>
