<svg width="46" height="46" viewBox="0 0 46 46" fill="none" xmlns="http://www.w3.org/2000/svg">
<path d="M16.6321 17.7258L16.5818 17.8049H14.5908L14.6555 17.7258H16.6321Z" fill="white"/>
<path d="M31.4096 17.8049H29.4259L29.354 17.7258H31.3521L31.4096 17.8049Z" fill="white"/>
<path d="M11.3924 17.9275V33.0212H10.4293C9.83526 33.0054 9.25016 32.8725 8.70761 32.63C8.16505 32.3875 7.67572 32.0402 7.2677 31.6082C6.85967 31.1761 6.54099 30.6677 6.32992 30.1122C6.11886 29.5567 6.01957 28.9649 6.03776 28.3709V22.5562C6.00685 21.3602 6.45204 20.2009 7.27551 19.3329C8.09897 18.465 9.23333 17.9595 10.4293 17.9275H11.3924Z" fill="white"/>
<path d="M39.9625 22.5558V28.3705C39.9934 29.5653 39.5492 30.7236 38.7273 31.5914C37.9054 32.4591 36.7728 32.9654 35.5781 32.9993H35.2188V17.9055H35.6141C36.8069 17.9468 37.9348 18.4596 38.75 19.3314C39.5652 20.2032 40.0013 21.3629 39.9625 22.5558Z" fill="white"/>
<path d="M31.5389 17.9271V17.7259H30.5327C30.5061 17.6234 30.4624 17.5262 30.4033 17.4383L27.6289 13.7296C27.327 13.3343 26.1914 13.054 25.0127 13.054H20.9877C20.4431 13.0526 19.9004 13.1154 19.3705 13.2409C18.9991 13.3029 18.6541 13.4729 18.3786 13.7296L15.6042 17.4383C15.5388 17.5234 15.4922 17.6214 15.4677 17.7259H14.4614V17.9271H12.1255V33.0208H34.457V17.9271H31.5389ZM19.5574 14.7071C19.6294 14.6067 19.7244 14.525 19.8344 14.4688C19.9445 14.4125 20.0663 14.3833 20.1899 14.3837L25.7817 14.4196C25.9003 14.4192 26.0174 14.4455 26.1244 14.4966C26.2314 14.5476 26.3255 14.622 26.3999 14.7143L28.7502 17.9271H17.1999L19.5574 14.7071Z" fill="white"/>
</svg>
