<svg width="22" height="29" viewBox="0 0 22 29" fill="none" xmlns="http://www.w3.org/2000/svg">
<path d="M12.9651 6.78814L12.8754 6.69198V5.40988C12.8859 5.35429 12.913 5.30317 12.953 5.26316C12.993 5.22315 13.0441 5.19609 13.0997 5.18552L13.2344 5.5445V6.49966L12.9651 6.78814ZM13.2344 7.14712L12.9651 6.87788L12.8754 6.96763V8.24972C12.8856 8.30613 12.9124 8.35821 12.9524 8.39931C12.9923 8.44042 13.0436 8.46868 13.0997 8.4805L13.2344 8.1151V7.14712ZM13.2856 8.12151L13.151 8.4805H14.5677L14.4331 8.12151H13.2856ZM15.4972 5.55733L15.3626 5.19834C15.3066 5.20936 15.2549 5.23643 15.2139 5.27626C15.173 5.31609 15.1444 5.36697 15.1319 5.4227V6.7048L15.228 6.80096L15.4972 6.52531V5.55733ZM16.6832 5.55733L16.8242 5.19193H15.4075L15.5549 5.55733H16.6832ZM15.5485 8.12151L15.4139 8.4805H16.8306L16.6896 8.12151H15.5485ZM16.7537 6.98045L16.9524 6.80096L16.7665 6.62146H15.4844L15.2601 6.8266L15.4203 6.98045H16.7537ZM16.7537 7.14712V8.10228L16.8883 8.46768C16.9441 8.45509 16.9949 8.42657 17.0348 8.3856C17.0746 8.34463 17.1017 8.29297 17.1127 8.2369V6.95481L17.0229 6.86506L16.7537 7.14712ZM17.8243 5.22398L17.6896 5.58297V6.53813L17.9589 6.80737L18.055 6.71762V5.43553C18.0408 5.37789 18.0092 5.32603 17.9645 5.28702C17.9197 5.24802 17.8641 5.22376 17.805 5.21757L17.8243 5.22398ZM17.6896 7.14712V8.10228L17.8243 8.46127C17.8803 8.45025 17.932 8.42318 17.973 8.38335C18.0139 8.34352 18.0424 8.29264 18.055 8.2369V6.95481L17.9589 6.85865L17.6896 7.14712ZM21.5872 2.61492V26.9555C21.5872 27.4655 21.3846 27.9547 21.0239 28.3154C20.6633 28.676 20.1741 28.8786 19.6641 28.8786H2.35578C1.84573 28.8786 1.35657 28.676 0.995915 28.3154C0.635256 27.9547 0.43264 27.4655 0.43264 26.9555V2.63415C0.428386 2.37891 0.474987 2.12539 0.569727 1.88835C0.664467 1.65131 0.80545 1.4355 0.984456 1.25351C1.16346 1.07153 1.37691 0.926995 1.61235 0.82835C1.84779 0.729705 2.10051 0.67892 2.35578 0.678955H19.6641C19.9177 0.681456 20.1684 0.734112 20.4016 0.833889C20.6348 0.933666 20.8459 1.07859 21.0229 1.26033C21.1999 1.44206 21.3391 1.657 21.4327 1.89279C21.5262 2.12857 21.5722 2.38052 21.568 2.63415L21.5872 2.61492ZM6.22771 24.0195C6.24347 23.7399 6.14772 23.4655 5.96146 23.2564C5.7752 23.0473 5.51362 22.9206 5.23408 22.9041H4.04815C3.91398 22.9044 3.78148 22.9339 3.65976 22.9903C3.53804 23.0467 3.42997 23.1288 3.34299 23.231C3.14891 23.4473 3.0436 23.7289 3.04811 24.0195C3.03405 24.3003 3.13107 24.5755 3.31819 24.7854C3.50532 24.9953 3.76752 25.1231 4.04815 25.1413H5.26614C5.54048 25.1152 5.79401 24.9837 5.97336 24.7745C6.15271 24.5653 6.24389 24.2946 6.22771 24.0195ZM6.22771 20.6155C6.23638 20.4766 6.21754 20.3373 6.17226 20.2056C6.12698 20.0739 6.05615 19.9525 5.96384 19.8483C5.87152 19.7441 5.75954 19.6591 5.63431 19.5982C5.50908 19.5374 5.37307 19.5019 5.23408 19.4937H4.04815C3.91426 19.4957 3.78229 19.5259 3.66081 19.5822C3.53933 19.6385 3.43105 19.7197 3.34299 19.8206C3.14958 20.0399 3.04449 20.3232 3.04811 20.6155C3.0341 20.8957 3.13132 21.1701 3.3186 21.379C3.50588 21.5879 3.76808 21.7144 4.04815 21.7309H5.26614C5.53994 21.7064 5.79344 21.5763 5.97293 21.3681C6.15242 21.1599 6.2438 20.8899 6.22771 20.6155ZM6.22771 17.5129C6.24351 17.2326 6.14796 16.9575 5.96186 16.7474C5.77576 16.5373 5.51418 16.4092 5.23408 16.391H4.04815C3.91355 16.3926 3.78088 16.4232 3.65919 16.4807C3.5375 16.5383 3.42965 16.6214 3.34299 16.7244C3.14891 16.9407 3.0436 17.2223 3.04811 17.5129C3.03405 17.7937 3.13107 18.0688 3.31819 18.2787C3.50532 18.4887 3.76752 18.6165 4.04815 18.6347H5.26614C5.54048 18.6086 5.79401 18.4771 5.97336 18.2679C6.15271 18.0586 6.24389 17.788 6.22771 17.5129ZM6.22771 14.0127C6.23638 13.8738 6.21754 13.7345 6.17226 13.6028C6.12698 13.4712 6.05615 13.3497 5.96384 13.2455C5.87152 13.1413 5.75954 13.0563 5.63431 12.9955C5.50908 12.9346 5.37307 12.8991 5.23408 12.8909H4.04815C3.91426 12.8929 3.78229 12.9231 3.66081 12.9794C3.53933 13.0357 3.43105 13.117 3.34299 13.2178C3.1485 13.4365 3.04325 13.7202 3.04811 14.0127C3.0341 14.2929 3.13132 14.5673 3.3186 14.7762C3.50588 14.9851 3.76808 15.1116 4.04815 15.1282H5.26614C5.53994 15.1036 5.79344 14.9735 5.97293 14.7653C6.15242 14.5571 6.2438 14.2872 6.22771 14.0127ZM10.7535 24.0195C10.7675 23.7393 10.6703 23.4649 10.483 23.256C10.2957 23.0471 10.0335 22.9206 9.75347 22.9041H8.53548C8.40131 22.9044 8.26881 22.9339 8.14709 22.9903C8.02537 23.0467 7.9173 23.1288 7.83032 23.231C7.63624 23.4473 7.53093 23.7289 7.53544 24.0195C7.52138 24.3003 7.6184 24.5755 7.80552 24.7854C7.99265 24.9953 8.25485 25.1231 8.53548 25.1413H9.75347C10.0341 25.1231 10.2963 24.9953 10.4834 24.7854C10.6705 24.5755 10.7676 24.3003 10.7535 24.0195ZM10.7535 20.6155C10.7693 20.3342 10.6728 20.0582 10.4854 19.8479C10.2979 19.6376 10.0347 19.5102 9.75347 19.4937H8.53548C8.40159 19.4957 8.26962 19.5259 8.14814 19.5822C8.02666 19.6385 7.91838 19.7197 7.83032 19.8206C7.63691 20.0399 7.53182 20.3232 7.53544 20.6155C7.52143 20.8957 7.61865 21.1701 7.80593 21.379C7.99321 21.5879 8.25541 21.7144 8.53548 21.7309H9.75347C10.0335 21.7144 10.2957 21.5879 10.483 21.379C10.6703 21.1701 10.7675 20.8957 10.7535 20.6155ZM10.7535 17.5129C10.7676 17.232 10.6705 16.9569 10.4834 16.747C10.2963 16.5371 10.0341 16.4092 9.75347 16.391H8.53548C8.40088 16.3926 8.26821 16.4232 8.14652 16.4807C8.02483 16.5383 7.91698 16.6214 7.83032 16.7244C7.63624 16.9407 7.53093 17.2223 7.53544 17.5129C7.52138 17.7937 7.6184 18.0688 7.80552 18.2787C7.99265 18.4887 8.25485 18.6165 8.53548 18.6347H9.75347C10.0341 18.6165 10.2963 18.4887 10.4834 18.2787C10.6705 18.0688 10.7676 17.7937 10.7535 17.5129ZM10.7535 14.0127C10.7693 13.7315 10.6728 13.4554 10.4854 13.2451C10.2979 13.0348 10.0347 12.9074 9.75347 12.8909H8.53548C8.40159 12.8929 8.26962 12.9231 8.14814 12.9794C8.02666 13.0357 7.91838 13.117 7.83032 13.2178C7.63583 13.4365 7.53058 13.7202 7.53544 14.0127C7.52143 14.2929 7.61865 14.5673 7.80593 14.7762C7.99321 14.9851 8.25541 15.1116 8.53548 15.1282H9.75347C10.0335 15.1116 10.2957 14.9851 10.483 14.7762C10.6703 14.5673 10.7675 14.2929 10.7535 14.0127ZM15.0934 24.0195C15.1012 23.8805 15.0815 23.7414 15.0354 23.6101C14.9893 23.4788 14.9178 23.3578 14.8249 23.2542C14.732 23.1506 14.6195 23.0663 14.494 23.0063C14.3685 22.9462 14.2323 22.9114 14.0934 22.9041H12.8818C12.7468 22.9052 12.6136 22.9349 12.491 22.9913C12.3683 23.0476 12.259 23.1293 12.1702 23.231C11.9806 23.4496 11.8779 23.7302 11.8817 24.0195C11.8677 24.3003 11.9647 24.5755 12.1518 24.7854C12.3389 24.9953 12.6012 25.1231 12.8818 25.1413H14.0934C14.3746 25.1248 14.6378 24.9974 14.8253 24.7871C15.0127 24.5768 15.1091 24.3008 15.0934 24.0195ZM15.0934 20.6155C15.1091 20.3342 15.0127 20.0582 14.8253 19.8479C14.6378 19.6376 14.3746 19.5102 14.0934 19.4937H12.8818C12.7471 19.4964 12.6144 19.5268 12.492 19.5831C12.3695 19.6393 12.26 19.7202 12.1702 19.8206C11.9812 20.0421 11.8787 20.3244 11.8817 20.6155C11.8677 20.8957 11.9649 21.1701 12.1522 21.379C12.3395 21.5879 12.6017 21.7144 12.8818 21.7309H14.0934C14.2323 21.7236 14.3685 21.6889 14.494 21.6288C14.6195 21.5687 14.732 21.4844 14.8249 21.3808C14.9178 21.2772 14.9893 21.1562 15.0354 21.0249C15.0815 20.8936 15.1012 20.7545 15.0934 20.6155ZM15.0934 17.5129C15.1091 17.2316 15.0127 16.9555 14.8253 16.7452C14.6378 16.5349 14.3746 16.4076 14.0934 16.391H12.8818C12.7464 16.3934 12.613 16.4243 12.4904 16.4817C12.3678 16.5391 12.2587 16.6218 12.1702 16.7244C11.9806 16.9429 11.8779 17.2235 11.8817 17.5129C11.8677 17.7937 11.9647 18.0688 12.1518 18.2787C12.3389 18.4887 12.6012 18.6165 12.8818 18.6347H14.0934C14.3746 18.6182 14.6378 18.4908 14.8253 18.2805C15.0127 18.0702 15.1091 17.7941 15.0934 17.5129ZM15.0934 14.0127C15.1091 13.7315 15.0127 13.4554 14.8253 13.2451C14.6378 13.0348 14.3746 12.9074 14.0934 12.8909H12.8818C12.7471 12.8936 12.6144 12.924 12.492 12.9803C12.3695 13.0365 12.26 13.1174 12.1702 13.2178C11.9802 13.4387 11.8776 13.7214 11.8817 14.0127C11.8677 14.2929 11.9649 14.5673 12.1522 14.7762C12.3395 14.9851 12.6017 15.1116 12.8818 15.1282H14.0934C14.2323 15.1208 14.3685 15.0861 14.494 15.026C14.6195 14.9659 14.732 14.8816 14.8249 14.778C14.9178 14.6744 14.9893 14.5534 15.0354 14.4221C15.0815 14.2908 15.1012 14.1517 15.0934 14.0127ZM19.1833 21.2181C19.2007 20.8603 19.0755 20.5102 18.8352 20.2446C18.5948 19.9791 18.2589 19.8196 17.9012 19.8014H17.8243C17.6468 19.8096 17.4728 19.8528 17.3122 19.9286C17.1515 20.0044 17.0075 20.1112 16.8883 20.2429C16.7691 20.3745 16.6772 20.5285 16.6178 20.6959C16.5584 20.8633 16.5327 21.0408 16.5422 21.2181V23.9297C16.5327 24.1071 16.5584 24.2846 16.6178 24.452C16.6772 24.6193 16.7691 24.7733 16.8883 24.905C17.0075 25.0367 17.1515 25.1435 17.3122 25.2193C17.4728 25.295 17.6468 25.3383 17.8243 25.3465H17.9012C18.2589 25.3282 18.5948 25.1688 18.8352 24.9032C19.0755 24.6376 19.2007 24.2875 19.1833 23.9297V21.2181ZM19.6128 17.5129C19.6286 17.2326 19.533 16.9575 19.3469 16.7474C19.1608 16.5373 18.8992 16.4092 18.6191 16.391H17.4012C17.2658 16.3934 17.1324 16.4243 17.0098 16.4817C16.8872 16.5391 16.778 16.6218 16.6896 16.7244C16.5 16.9429 16.3973 17.2235 16.4011 17.5129C16.3871 17.7937 16.4841 18.0688 16.6712 18.2787C16.8583 18.4887 17.1205 18.6165 17.4012 18.6347H18.6191C18.8992 18.6165 19.1608 18.4885 19.3469 18.2783C19.533 18.0682 19.6286 17.7931 19.6128 17.5129ZM17.3114 15.3141H18.4845C18.7608 15.2781 19.0146 15.1427 19.1985 14.9334C19.3824 14.724 19.4838 14.4549 19.4838 14.1762C19.4838 13.8976 19.3824 13.6284 19.1985 13.419C19.0146 13.2097 18.7608 13.0743 18.4845 13.0383H17.3114C17.1749 13.0394 17.0401 13.0696 16.9163 13.1271C16.7924 13.1846 16.6823 13.268 16.5934 13.3717C16.3967 13.592 16.2893 13.8777 16.2921 14.173C16.2764 14.4594 16.3748 14.7403 16.5659 14.9542C16.757 15.1681 17.0251 15.2975 17.3114 15.3141ZM19.6128 5.05731C19.6285 4.75328 19.5235 4.45535 19.3206 4.22841C19.1177 4.00147 18.8333 3.86392 18.5294 3.84573H3.58018C3.27629 3.86392 2.99191 4.00147 2.78899 4.22841C2.58606 4.45535 2.48105 4.75328 2.49681 5.05731V8.56384C2.48105 8.86786 2.58606 9.16579 2.78899 9.39273C2.99191 9.61967 3.27629 9.75722 3.58018 9.77542H18.5294C18.8333 9.75722 19.1177 9.61967 19.3206 9.39273C19.5235 9.16579 19.6285 8.86786 19.6128 8.56384V5.05731ZM13.2023 6.51249V5.55733L13.0677 5.19834C13.0121 5.20892 12.961 5.23597 12.921 5.27598C12.8809 5.31599 12.8539 5.36712 12.8433 5.4227V6.7048L12.9331 6.80096L13.2023 6.51249ZM13.2023 7.15353L12.9331 6.88429L12.8433 6.97404V8.25613C12.8535 8.31254 12.8804 8.36462 12.9203 8.40572C12.9603 8.44683 13.0116 8.47509 13.0677 8.48691L13.2023 8.12151V7.15353ZM13.2536 8.12793L13.119 8.48691H14.5357L14.4011 8.12793H13.2536ZM15.4652 5.56374L15.3306 5.20475C15.2745 5.21577 15.2228 5.24284 15.1819 5.28267C15.1409 5.3225 15.1124 5.37338 15.0998 5.42912V6.71121L15.196 6.80737L15.4652 6.53172V5.56374ZM16.6511 5.56374L16.7922 5.19834H15.4075L15.5549 5.56374H16.6511ZM15.5165 8.12793L15.3819 8.48691H16.7986L16.6575 8.12793H15.5165ZM16.7216 6.98686L16.9204 6.80737L16.7345 6.62787H15.4524L15.228 6.83301L15.3883 6.98686H16.7216ZM16.7216 7.15353V8.10869L16.8563 8.47409C16.912 8.4615 16.9629 8.43298 17.0027 8.39201C17.0425 8.35104 17.0696 8.29938 17.0806 8.24331V6.96122L16.9909 6.87147L16.7216 7.15353ZM17.7922 5.23039L17.6576 5.58938V6.54454L17.9268 6.81378L18.023 6.72403V5.44194C18.0121 5.38754 17.9857 5.33744 17.947 5.29765C17.9084 5.25785 17.8591 5.23005 17.805 5.21757L17.7922 5.23039ZM17.6576 7.15353V8.10869L17.7922 8.46768C17.8483 8.45666 17.8999 8.42959 17.9409 8.38976C17.9819 8.34993 18.0104 8.29905 18.023 8.24331V6.96122L17.9268 6.86506L17.6576 7.15353ZM14.4523 8.10869H13.2856L13.151 8.46768H14.5677L14.4523 8.10869ZM12.9843 6.86506L12.8946 6.95481V8.2369C12.9048 8.29331 12.9316 8.34539 12.9716 8.38649C13.0116 8.4276 13.0629 8.45586 13.119 8.46768L13.2536 8.10228V7.14712L12.9843 6.86506ZM13.119 5.18552C13.0634 5.19609 13.0123 5.22315 12.9722 5.26316C12.9322 5.30317 12.9052 5.35429 12.8946 5.40988V6.69198L12.9843 6.78814L13.2536 6.51249V5.55733L13.119 5.18552ZM17.0229 6.86506L16.7537 7.1343V8.08946L16.8883 8.45486C16.9441 8.44227 16.9949 8.41375 17.0348 8.37278C17.0746 8.33181 17.1017 8.28015 17.1127 8.22408V6.94199L17.0229 6.86506ZM16.7088 8.10869H15.5485L15.4139 8.46768H16.8306L16.7088 8.10869ZM15.4267 5.1727L15.5742 5.53809H16.7024L16.8434 5.1727H15.4267ZM17.9909 6.87788L17.7217 7.15353V8.10869L17.8563 8.46768C17.9124 8.45666 17.964 8.42959 18.005 8.38976C18.046 8.34993 18.0745 8.29905 18.0871 8.24331V6.96122L17.9909 6.87788ZM17.8563 5.20475L17.7217 5.56374V6.5189L17.9909 6.78814L18.0871 6.69839V5.41629C18.0678 5.3572 18.0299 5.30592 17.979 5.27011C17.9282 5.2343 17.8672 5.21587 17.805 5.21757L17.8563 5.20475ZM15.4139 5.20475C15.3578 5.21577 15.3062 5.24284 15.2652 5.28267C15.2242 5.3225 15.1957 5.37338 15.1831 5.42912V6.71121L15.2793 6.80737L15.5485 6.53172V5.55733L15.4139 5.20475ZM16.8178 6.62787H15.5357L15.3113 6.83301L15.4716 6.98686H16.8114L17.0101 6.80737L16.8178 6.62787Z" fill="white"/>
</svg>
