<svg width="46" height="46" viewBox="0 0 46 46" fill="none" xmlns="http://www.w3.org/2000/svg">
<path d="M29.4128 29.0598L30.4832 28.1223L31.6274 29.0598H29.4128ZM24.2456 29.0598L25.3381 28.1223L26.4601 29.0598H24.2456Z" fill="white"/>
<path d="M30.4978 24.8667L27.9438 27.0812L25.397 24.8667L18.0891 31.1264C18.3697 31.3766 18.7319 31.5157 19.1078 31.5177H36.7945C37.1706 31.5171 37.5333 31.3778 37.8132 31.1264L30.5274 24.8667H30.4978Z" fill="white"/>
<path d="M34.9124 24.2538L35.7908 23.4861V25.0067L34.9124 24.2538Z" fill="white"/>
<path d="M38.2488 18.0754L31.1401 24.2761L38.2488 30.3218V18.0754Z" fill="white"/>
<path d="M20.0823 23.4788L20.9755 24.2538L20.0823 25.0068V23.4788Z" fill="white"/>
<path d="M17.624 18.0754V30.3218L24.7474 24.2761L17.624 18.0754Z" fill="white"/>
<path d="M24.2678 19.2417H31.6127L27.9439 22.3863L24.2678 19.2417Z" fill="white"/>
<path d="M36.7947 16.7837H19.0785C18.6994 16.7832 18.3347 16.9286 18.0598 17.1897L27.9366 25.627L37.7839 17.1897C37.5165 16.9355 37.1636 16.7907 36.7947 16.7837Z" fill="white"/>
<path d="M16.0593 20.6592H10.988C10.7148 20.6592 10.4934 20.8806 10.4934 21.1538V21.3457C10.4934 21.6188 10.7148 21.8403 10.988 21.8403H16.0593C16.3324 21.8403 16.5538 21.6188 16.5538 21.3457V21.1538C16.5538 20.8806 16.3324 20.6592 16.0593 20.6592Z" fill="white"/>
<path d="M13.0253 24.1211H7.95405C7.6809 24.1211 7.45947 24.3425 7.45947 24.6157V24.8076C7.45947 25.0807 7.6809 25.3022 7.95405 25.3022H13.0253C13.2985 25.3022 13.5199 25.0807 13.5199 24.8076V24.6157C13.5199 24.3425 13.2985 24.1211 13.0253 24.1211Z" fill="white"/>
<path d="M16.0075 27.2583H10.9362C10.6631 27.2583 10.4417 27.4797 10.4417 27.7529V27.9448C10.4417 28.218 10.6631 28.4394 10.9362 28.4394H16.0075C16.2806 28.4394 16.5021 28.218 16.5021 27.9448V27.7529C16.5021 27.4797 16.2806 27.2583 16.0075 27.2583Z" fill="white"/>
</svg>
