<svg width="46" height="46" viewBox="0 0 46 46" fill="none" xmlns="http://www.w3.org/2000/svg">
<path d="M12.7702 16.1506C12.0849 16.145 11.4159 15.94 10.8461 15.5604C10.271 15.1772 9.82265 14.6331 9.55832 13.9964C9.29398 13.3596 9.22573 12.6591 9.36239 11.9837C9.49905 11.3082 9.83432 10.6887 10.3252 10.203C10.8161 9.71741 11.4405 9.38745 12.1195 9.2542C12.7984 9.12096 13.5019 9.19026 14.1414 9.45352C14.7809 9.7168 15.3281 10.1624 15.7133 10.7348C16.0985 11.3072 16.3044 11.9804 16.3044 12.6694L12.7702 16.1506ZM12.7702 16.1506L12.7702 16.1507C13.2324 16.1545 13.6909 16.0675 14.1192 15.8945L13.932 15.4309L14.1192 15.8945C14.5475 15.7216 14.9374 15.4661 15.2661 15.1427C15.5949 14.8192 15.856 14.4342 16.0343 14.0096C16.2126 13.5851 16.3044 13.1296 16.3044 12.6694L12.7702 16.1506ZM8.93255 8.94263C9.95395 7.92378 11.341 7.34646 12.7911 7.3379C14.2417 7.34449 15.6298 7.92111 16.6515 8.94026C17.6723 9.95852 18.2443 11.3355 18.2437 12.7696C18.2201 13.7319 18.0124 14.681 17.6315 15.5665C16.2048 18.2912 14.5877 20.9134 12.7923 23.4138C11.0081 20.9098 9.40233 18.2849 7.98697 15.5582C7.56881 14.6878 7.34734 13.7374 7.33789 12.7736C7.33849 11.3386 7.91127 9.96136 8.93255 8.94263Z" fill="white" stroke="white"/>
<path d="M29.5229 29.0263C29.9911 29.3366 30.5166 29.5455 31.0655 29.6428L31.0256 29.7416L31.7608 29.7467C32.3003 29.7505 32.8353 29.6474 33.3344 29.4434C33.8335 29.2394 34.2868 28.9384 34.6676 28.5581C35.0485 28.1777 35.3491 27.7255 35.5518 27.2279C35.7541 26.7314 35.8546 26.1997 35.8476 25.6641C35.8469 24.8657 35.6079 24.0857 35.1611 23.4225C34.7138 22.7584 34.0784 22.2413 33.3358 21.9362C32.5931 21.631 31.7762 21.5513 30.9881 21.7068C30.2 21.8623 29.4755 22.2462 28.9065 22.8107C28.3375 23.3752 27.9495 24.0949 27.7923 24.879C27.635 25.6631 27.7158 26.4759 28.0241 27.2142C28.3324 27.9526 28.8542 28.583 29.5229 29.0263ZM27.1456 21.1839C28.373 19.9592 30.0399 19.2652 31.7825 19.2549C32.649 19.254 33.5071 19.4226 34.3078 19.7507C35.1088 20.079 35.8364 20.5607 36.4492 21.1678C37.062 21.775 37.5479 22.4958 37.8793 23.2889C38.2096 24.0793 38.3802 24.9262 38.3813 25.7815C38.3388 26.9407 38.0755 28.0814 37.6053 29.1436C35.8877 32.4154 33.9418 35.564 31.782 38.5664C29.6345 35.5626 27.7033 32.412 26.0028 29.1381C25.5015 28.0909 25.2377 26.9477 25.2297 25.7888C25.2301 24.0639 25.9184 22.4084 27.1456 21.1839Z" fill="white" stroke="white"/>
<path d="M12.766 24.2673C13.4098 24.0247 14.0806 23.8598 14.764 23.7759" stroke="white" stroke-miterlimit="10"/>
<path d="M18.8508 24.2017C19.6926 24.5422 20.4606 25.0399 21.1131 25.6677C24.6469 29.0667 11.4695 33.039 15.7877 38.6986C17.6619 41.1557 23.6065 40.7789 27.6852 40.181" stroke="white" stroke-miterlimit="10" stroke-dasharray="5.03 5.03"/>
<path d="M29.7332 39.8365C30.9634 39.6073 31.7477 39.4189 31.7477 39.4189" stroke="white" stroke-miterlimit="10"/>
</svg>
