<svg width="46" height="46" viewBox="0 0 46 46" fill="none" xmlns="http://www.w3.org/2000/svg">
<path d="M36.2383 31.3267C36.2393 31.3714 36.2312 31.4157 36.2146 31.4572C36.1979 31.4986 36.1731 31.5362 36.1415 31.5678C36.11 31.5994 36.0723 31.6242 36.0309 31.6408C35.9895 31.6575 35.9451 31.6655 35.9005 31.6646H34.8367L34.6714 33.2961C35.1287 33.6176 35.4717 34.0765 35.6507 34.6061C35.8296 35.1357 35.8352 35.7086 35.6666 36.2416C35.4979 36.7745 35.1639 37.24 34.7129 37.5703C34.262 37.9007 33.7175 38.0787 33.1584 38.0787C32.5994 38.0787 32.0549 37.9007 31.6039 37.5703C31.153 37.24 30.8189 36.7745 30.6503 36.2416C30.4817 35.7086 30.4873 35.1357 30.6662 34.6061C30.8452 34.0765 31.1882 33.6176 31.6455 33.2961L31.4802 31.6646H19.8005L19.6423 33.2961C20.0957 33.6185 20.4349 34.0766 20.6109 34.6044C20.7869 35.1321 20.7905 35.7021 20.6214 36.2321C20.4522 36.7621 20.1189 37.2245 19.6696 37.5527C19.2204 37.8808 18.6785 38.0577 18.1222 38.0577C17.5659 38.0577 17.024 37.8808 16.5747 37.5527C16.1255 37.2245 15.7922 36.7621 15.623 36.2321C15.4538 35.7021 15.4575 35.1321 15.6335 34.6044C15.8094 34.0766 16.1486 33.6185 16.602 33.2961L16.4439 31.6646H15.7252C15.4656 31.6652 15.2123 31.5852 15.0003 31.4354C14.7882 31.2856 14.6281 31.0736 14.542 30.8288C14.4559 30.5839 14.4481 30.3183 14.5197 30.0688C14.5914 29.8194 14.7388 29.5983 14.9417 29.4364L16.1708 28.4589L15.6892 26.4536H35.0955L34.4773 28.7105C34.4518 28.7766 34.4061 28.8329 34.3468 28.8716C34.2875 28.9103 34.2175 28.9294 34.1467 28.9261H16.6236L15.3298 29.9683C15.2386 30.0427 15.1723 30.1433 15.1401 30.2566C15.1078 30.3698 15.1111 30.4903 15.1495 30.6016C15.188 30.7129 15.2596 30.8098 15.3549 30.879C15.4501 30.9483 15.5643 30.9867 15.682 30.9889H35.9005C35.9451 30.9879 35.9895 30.996 36.0309 31.0126C36.0723 31.0293 36.11 31.0541 36.1415 31.0857C36.1731 31.1173 36.1979 31.1549 36.2146 31.1963C36.2312 31.2377 36.2393 31.2821 36.2383 31.3267Z" fill="white"/>
<path d="M33.1619 38.4207C32.549 38.4171 31.9522 38.2243 31.453 37.8687C30.9538 37.5131 30.5766 37.0121 30.3729 36.434C30.1692 35.856 30.149 35.2292 30.315 34.6392C30.481 34.0492 30.8251 33.5249 31.3003 33.1379L31.1925 32.0238H20.1022L19.9944 33.1379C20.4693 33.5282 20.812 34.0557 20.9757 34.6482C21.1393 35.2408 21.1159 35.8694 20.9086 36.4481C20.7013 37.0268 20.3202 37.5274 19.8176 37.8813C19.3149 38.2351 18.7152 38.4251 18.1005 38.4251C17.4858 38.4251 16.886 38.2351 16.3834 37.8813C15.8807 37.5274 15.4997 37.0268 15.2924 36.4481C15.0851 35.8694 15.0617 35.2408 15.2253 34.6482C15.3889 34.0557 15.7317 33.5282 16.2066 33.1379L16.0988 32.0238H15.6819C15.3463 32.0259 15.0185 31.9232 14.7441 31.7299C14.4698 31.5366 14.2628 31.2624 14.1519 30.9457C14.0411 30.6289 14.0319 30.2855 14.1258 29.9633C14.2197 29.6411 14.412 29.3564 14.6756 29.1488L15.725 28.3079L15.1859 26.0869H35.4834L34.7647 28.7966C34.7157 28.9369 34.6244 29.0585 34.5034 29.1447C34.3824 29.2309 34.2377 29.2776 34.0891 29.2782H16.7528L15.5525 30.2413C15.5166 30.266 15.4904 30.3026 15.4786 30.3446C15.4668 30.3866 15.4701 30.4314 15.4878 30.4713C15.4989 30.5144 15.524 30.5525 15.5591 30.5798C15.5942 30.6071 15.6374 30.6221 15.6819 30.6222H35.9003C36.0063 30.5957 36.117 30.5936 36.2238 30.6162C36.3307 30.6389 36.4311 30.6855 36.5172 30.7528C36.6034 30.82 36.673 30.9059 36.721 31.0041C36.7689 31.1023 36.7938 31.2102 36.7938 31.3194C36.7938 31.4287 36.7689 31.5365 36.721 31.6347C36.673 31.7329 36.6034 31.8188 36.5172 31.8861C36.4311 31.9533 36.3307 32 36.2238 32.0226C36.117 32.0452 36.0063 32.0432 35.9003 32.0166H35.1816L35.0666 33.1307C35.5437 33.5192 35.8886 34.0462 36.0538 34.6389C36.219 35.2316 36.1964 35.861 35.9891 36.4404C35.7818 37.0197 35.4 37.5206 34.8962 37.8739C34.3925 38.2273 33.7916 38.4158 33.1763 38.4135L33.1619 38.4207ZM31.8106 31.3482L32.0263 33.5044L31.8538 33.6194C31.4585 33.8967 31.1619 34.2928 31.007 34.7501C30.8522 35.2075 30.8471 35.7023 30.9925 36.1627C31.1379 36.6231 31.4263 37.0252 31.8157 37.3106C32.2052 37.596 32.6755 37.7499 33.1583 37.7499C33.6411 37.7499 34.1114 37.596 34.5009 37.3106C34.8903 37.0252 35.1787 36.6231 35.3241 36.1627C35.4695 35.7023 35.4644 35.2075 35.3095 34.7501C35.1547 34.2928 34.8581 33.8967 34.4628 33.6194L34.2975 33.5044L34.5131 31.3482H31.8106ZM16.7528 31.3482L16.9613 33.5044L16.7888 33.6266C16.3974 33.9048 16.1046 34.3001 15.9527 34.7556C15.8008 35.2111 15.7976 35.703 15.9436 36.1604C16.0896 36.6178 16.3773 37.017 16.765 37.3002C17.1527 37.5834 17.6204 37.736 18.1005 37.736C18.5806 37.736 19.0483 37.5834 19.436 37.3002C19.8237 37.017 20.1113 36.6178 20.2573 36.1604C20.4033 35.703 20.4001 35.2111 20.2482 34.7556C20.0963 34.3001 19.8035 33.9048 19.4122 33.6266L19.2397 33.5116L19.4481 31.3553L16.7528 31.3482ZM16.5228 28.5666H34.0675L34.5419 26.8129H16.0988L16.5228 28.5666Z" fill="white"/>
<path d="M37.532 15.7154L35.1888 24.3404H15.4879L12.3542 11.2519C12.3276 11.127 12.2588 11.0152 12.1592 10.9353C12.0597 10.8554 11.9356 10.8124 11.8079 10.8135H8.5376C8.44229 10.8135 8.35088 10.7756 8.28348 10.7082C8.21609 10.6408 8.17822 10.5494 8.17822 10.4541C8.17822 10.3588 8.21609 10.2674 8.28348 10.2C8.35088 10.1326 8.44229 10.0947 8.5376 10.0947H11.8079C12.0905 10.0944 12.3648 10.1903 12.5856 10.3666C12.8064 10.543 12.9605 10.7893 13.0226 11.065L14.1295 15.3057H37.2013C37.2508 15.3035 37.3002 15.312 37.3461 15.3306C37.3919 15.3492 37.4333 15.3775 37.4673 15.4135C37.5112 15.4487 37.5415 15.4979 37.5533 15.5529C37.5651 15.6079 37.5576 15.6653 37.532 15.7154Z" fill="white"/>
<path d="M35.7351 25.0088H14.9273L11.6785 11.5322H8.5376C8.25166 11.5322 7.97744 11.4186 7.77525 11.2165C7.57306 11.0143 7.45947 10.74 7.45947 10.4541C7.45947 10.1682 7.57306 9.89395 7.77525 9.69176C7.97744 9.48957 8.25166 9.37599 8.5376 9.37599H11.8079C12.2532 9.37452 12.6858 9.52456 13.0345 9.80147C13.3833 10.0784 13.6275 10.4657 13.727 10.8997L14.6829 14.5797H37.2013C37.3457 14.5793 37.4888 14.6077 37.6221 14.6632C37.7554 14.7188 37.8762 14.8003 37.9776 14.9032C38.0917 15.0183 38.1752 15.1602 38.2204 15.3159C38.2656 15.4715 38.2711 15.6361 38.2363 15.7944V15.8376L35.7351 25.0088ZM16.0629 23.5713H34.6354L36.691 16.046H14.2517L16.0629 23.5713Z" fill="white"/>
</svg>
