<svg width="46" height="46" viewBox="0 0 46 46" fill="none" xmlns="http://www.w3.org/2000/svg">
<path d="M32.8972 28.1451C32.1195 27.6059 31.2385 27.2339 30.3097 27.0526V25.2342C30.4931 25.3166 30.6571 25.4366 30.7912 25.5863C30.9234 25.7801 31.0297 25.9904 31.1075 26.2117L33.4794 25.8307C33.3549 25.1953 33.0052 24.6261 32.4947 24.2279C31.8589 23.7938 31.1083 23.5587 30.3384 23.5523V22.9126H29.3825V23.5523C28.5145 23.5336 27.67 23.8356 27.0106 24.4004C26.7514 24.6426 26.5463 24.9368 26.4088 25.2638C26.2713 25.5908 26.2045 25.9433 26.2128 26.2979C26.196 26.786 26.329 27.2676 26.5937 27.6779C26.8177 28.0371 27.136 28.3279 27.5137 28.5188C28.1081 28.7775 28.7238 28.9843 29.3537 29.137V31.3938C29.099 31.287 28.8762 31.1162 28.7069 30.8979C28.5457 30.6191 28.4407 30.3114 28.3978 29.9923L25.875 30.2654C25.9424 30.6429 26.0583 31.0102 26.22 31.3579C26.3866 31.6746 26.6109 31.9573 26.8813 32.1917C27.1734 32.4575 27.5121 32.6671 27.8803 32.8098C28.3764 32.9712 28.8907 33.0702 29.4112 33.1045V34.3192H30.3384V33.1404C30.7744 33.1202 31.2063 33.0478 31.625 32.9248C31.9981 32.797 32.346 32.6048 32.6528 32.357C32.9762 32.0873 33.2447 31.7579 33.4434 31.3867C33.6615 30.9952 33.7776 30.5553 33.7812 30.1073C33.7887 29.7351 33.7133 29.366 33.5603 29.0266C33.4074 28.6872 33.1809 28.3861 32.8972 28.1451ZM29.3825 26.8154C29.1637 26.758 28.9664 26.6381 28.8147 26.4704C28.7059 26.3281 28.6478 26.1536 28.6494 25.9745C28.6453 25.805 28.7013 25.6395 28.8075 25.5073C28.9631 25.3437 29.1628 25.2288 29.3825 25.1767V26.8154ZM31.1075 31.0632C30.887 31.273 30.6095 31.4131 30.3097 31.4657V29.4173C30.625 29.4994 30.9143 29.6601 31.1506 29.8845C31.2817 30.039 31.353 30.2353 31.3519 30.4379C31.3535 30.67 31.2661 30.8938 31.1075 31.0632Z" fill="white"/>
<path d="M29.7994 19.1678C29.3179 19.1659 28.837 19.2044 28.3619 19.2828C27.8944 19.359 27.4332 19.4695 26.9819 19.6134C26.8555 20.1702 26.665 20.7105 26.4141 21.2234C26.9293 20.9737 27.4721 20.7856 28.0313 20.6628C28.6079 20.5237 29.1991 20.4537 29.7922 20.4544C31.3466 20.4515 32.8669 20.9098 34.1607 21.7713C35.4545 22.6328 36.4636 23.8587 37.0604 25.294C37.6572 26.7292 37.8148 28.3092 37.5133 29.8341C37.2119 31.3589 36.4648 32.7601 35.3667 33.8602C34.2686 34.9603 32.8688 35.7099 31.3445 36.0142C29.8202 36.3185 28.2399 36.1638 26.8036 35.5696C25.3673 34.9754 24.1395 33.9685 23.2756 32.6763C22.4118 31.3841 21.9507 29.8647 21.9507 28.3103C21.9496 27.7147 22.0196 27.1212 22.1591 26.5422C22.2814 25.987 22.4646 25.4471 22.7054 24.9322C22.1963 25.1786 21.6611 25.3667 21.1097 25.4928C20.9633 25.9433 20.8527 26.4048 20.7791 26.8728C20.701 27.3479 20.6625 27.8288 20.6641 28.3103C20.6641 30.1188 21.2005 31.8867 22.2054 33.3903C23.2103 34.894 24.6386 36.0658 26.3096 36.7575C27.9806 37.4493 29.8192 37.6299 31.5929 37.2766C33.3665 36.9232 34.9956 36.0518 36.2739 34.7725C37.5522 33.4931 38.4224 31.8634 38.7743 30.0895C39.1263 28.3155 38.9442 26.4771 38.2511 24.8066C37.558 23.1362 36.3851 21.7088 34.8807 20.7051C33.3763 19.7014 31.6079 19.1664 29.7994 19.1678Z" fill="white"/>
<path d="M22.4324 17.6798C21.6522 17.1497 20.7716 16.7852 19.8449 16.6088V14.7401C20.0233 14.8273 20.1841 14.9467 20.3193 15.0923C20.4541 15.2856 20.5629 15.4958 20.6427 15.7176L23.0146 15.3438C22.8887 14.707 22.5395 14.136 22.0299 13.7338C21.3974 13.2876 20.6474 13.0376 19.8737 13.0151V12.3826H18.9177V13.0151C18.0392 13.0128 17.1904 13.3324 16.5315 13.9135C16.2721 14.154 16.0667 14.4469 15.9292 14.7728C15.7916 15.0987 15.725 15.4502 15.7337 15.8038C15.7127 16.3135 15.8536 16.8167 16.1362 17.2413C16.3737 17.5879 16.6985 17.8655 17.0777 18.0463C17.6712 18.3073 18.2871 18.5141 18.9177 18.6644V20.9213C18.663 20.8145 18.4401 20.6437 18.2709 20.4254C18.1132 20.1456 18.0107 19.8382 17.969 19.5198L15.3887 19.8216C15.4509 20.2018 15.5645 20.5718 15.7265 20.9213C15.8917 21.2348 16.1135 21.515 16.3805 21.7479C16.6734 22.0163 17.015 22.2261 17.3868 22.366C17.8814 22.5344 18.3963 22.6359 18.9177 22.6679V23.8682H19.8449V22.6607C20.2953 22.649 20.7423 22.5789 21.1746 22.4523C21.5467 22.3254 21.8943 22.1358 22.2024 21.8916C22.5284 21.6227 22.7993 21.2932 23.0002 20.9213C23.2041 20.5257 23.3101 20.087 23.3093 19.6419C23.3176 19.2703 23.2433 18.9015 23.0916 18.5622C22.94 18.2228 22.7148 17.9214 22.4324 17.6798ZM18.9177 16.3501C18.6995 16.2915 18.5025 16.1718 18.3499 16.0051C18.2381 15.8644 18.1795 15.6888 18.1846 15.5091C18.1806 15.3396 18.2366 15.1741 18.3427 15.0419C18.4972 14.877 18.6974 14.7619 18.9177 14.7113V16.3501ZM20.6427 20.5907C20.4247 20.8053 20.1464 20.9482 19.8449 21.0004V18.9448C20.159 19.0336 20.4473 19.1963 20.6859 19.4191C20.8158 19.5714 20.8872 19.7651 20.8871 19.9654C20.8866 20.197 20.7994 20.4201 20.6427 20.5907Z" fill="white"/>
<path d="M19.3417 8.70264C18.1411 8.70264 16.9523 8.93911 15.843 9.39857C14.7338 9.85802 13.726 10.5315 12.877 11.3804C12.028 12.2294 11.3546 13.2372 10.8951 14.3465C10.4357 15.4557 10.1992 16.6445 10.1992 17.8451C10.1992 19.0457 10.4357 20.2346 10.8951 21.3438C11.3546 22.453 12.028 23.4609 12.877 24.3099C13.726 25.1588 14.7338 25.8322 15.843 26.2917C16.9523 26.7512 18.1411 26.9876 19.3417 26.9876C19.8233 26.9895 20.3041 26.951 20.7792 26.8726C21.2465 26.7956 21.7077 26.6851 22.1592 26.542C23.5301 26.0904 24.7757 25.3231 25.7957 24.3018C26.8157 23.2806 27.5815 22.0341 28.0314 20.6626C28.1745 20.2111 28.285 19.75 28.362 19.2826C28.4362 18.807 28.4747 18.3265 28.477 17.8451C28.4732 15.4228 27.5098 13.1007 25.7976 11.3871C24.0854 9.67362 21.764 8.70834 19.3417 8.70264ZM26.4214 21.2233C25.6472 22.8508 24.3345 24.1609 22.7055 24.932C21.6545 25.4329 20.5059 25.6955 19.3417 25.7011C17.7883 25.7011 16.2697 25.2405 14.9779 24.3776C13.6862 23.5147 12.6793 22.2882 12.0845 20.8531C11.4897 19.4181 11.3337 17.8389 11.6362 16.3152C11.9388 14.7915 12.6862 13.3916 13.7842 12.2927C14.8821 11.1937 16.2813 10.445 17.8047 10.141C19.3281 9.83709 20.9075 9.99164 22.3431 10.5851C23.7787 11.1786 25.0061 12.1844 25.8702 13.4754C26.7343 14.7663 27.1962 16.2845 27.1977 17.8379C27.1987 18.4359 27.1287 19.0318 26.9892 19.6133C26.8628 20.1701 26.6722 20.7103 26.4214 21.2233Z" fill="white"/>
</svg>
