<svg width="74" height="74" viewBox="0 0 74 74" fill="none" xmlns="http://www.w3.org/2000/svg">
<path d="M20.1707 22.6824V29.2612H19.2222V21.6216H20.0891L20.1707 22.6824ZM23.8885 24.3347V24.4418C23.8885 24.843 23.8409 25.2153 23.7457 25.5587C23.6505 25.8987 23.5111 26.1945 23.3275 26.4461C23.1473 26.6976 22.9246 26.8931 22.6595 27.0325C22.3943 27.1719 22.09 27.2416 21.7466 27.2416C21.3964 27.2416 21.087 27.1838 20.8184 27.0682C20.5498 26.9526 20.322 26.7843 20.135 26.5633C19.948 26.3424 19.7984 26.0772 19.6863 25.7678C19.5775 25.4584 19.5027 25.1099 19.4619 24.7223V24.1511C19.5027 23.7431 19.5792 23.3777 19.6914 23.0547C19.8035 22.7317 19.9514 22.4563 20.135 22.2285C20.322 21.9973 20.5481 21.8222 20.8133 21.7032C21.0785 21.5808 21.3845 21.5196 21.7313 21.5196C22.0781 21.5196 22.3858 21.5876 22.6544 21.7236C22.9229 21.8562 23.149 22.0466 23.3326 22.2948C23.5162 22.543 23.6539 22.8405 23.7457 23.1873C23.8409 23.5306 23.8885 23.9131 23.8885 24.3347ZM22.9399 24.4418V24.3347C22.9399 24.0593 22.911 23.8009 22.8532 23.5595C22.7954 23.3148 22.7053 23.1006 22.583 22.917C22.464 22.73 22.311 22.5838 22.124 22.4784C21.937 22.3696 21.7143 22.3152 21.4559 22.3152C21.2179 22.3152 21.0105 22.356 20.8337 22.4376C20.6603 22.5192 20.5124 22.6297 20.39 22.7691C20.2676 22.9051 20.1673 23.0615 20.0891 23.2383C20.0143 23.4117 19.9582 23.5918 19.9208 23.7788V25.0997C19.9888 25.3377 20.084 25.5621 20.2064 25.7729C20.3288 25.9803 20.492 26.1486 20.696 26.2778C20.9 26.4036 21.1567 26.4664 21.4661 26.4664C21.7211 26.4664 21.9404 26.4138 22.124 26.3084C22.311 26.1996 22.464 26.0517 22.583 25.8647C22.7053 25.6777 22.7954 25.4635 22.8532 25.2221C22.911 24.9773 22.9399 24.7172 22.9399 24.4418Z" fill="white"/>
<path d="M30.1594 22.9068V23.7074H26.1407V22.9068H30.1594ZM26.2937 19.7143V27.1396H25.3095V19.7143H26.2937ZM31.0162 19.7143V27.1396H30.037V19.7143H31.0162Z" fill="white"/>
<path d="M24.9723 13C23.5314 13 22.1046 13.2838 20.7734 13.8352C19.4421 14.3866 18.2326 15.1948 17.2137 16.2137C16.1948 17.2326 15.3866 18.4421 14.8352 19.7734C14.2838 21.1046 14 22.5314 14 23.9723C14 25.4132 14.2838 26.8399 14.8352 28.1712C15.3866 29.5024 16.1948 30.712 17.2137 31.7308C18.2326 32.7497 19.4421 33.5579 20.7734 34.1093C22.1046 34.6607 23.5314 34.9445 24.9723 34.9445C25.5502 34.9468 26.1273 34.9006 26.6975 34.8065C27.2583 34.714 27.8118 34.5814 28.3537 34.4097C29.9989 33.8677 31.4938 32.9468 32.7179 31.7212C33.942 30.4956 34.8611 28.9996 35.4011 27.3537C35.5728 26.8118 35.7054 26.2583 35.7979 25.6975C35.8869 25.1267 35.9331 24.55 35.9359 23.9723C35.9313 21.0651 34.7751 18.2782 32.7202 16.2218C30.6654 14.1653 27.8794 13.0068 24.9723 13ZM33.4689 28.0265C32.5397 29.9797 30.9643 31.5521 29.0092 32.4775C27.7479 33.0786 26.3695 33.3938 24.9723 33.4005C23.1079 33.4005 21.2854 32.8477 19.7351 31.8121C18.1849 30.7765 16.9764 29.3045 16.2626 27.5823C15.5487 25.86 15.3615 23.9647 15.7246 22.1361C16.0877 20.3074 16.9848 18.6275 18.3025 17.3086C19.6202 15.9897 21.2993 15.091 23.1276 14.7263C24.956 14.3615 26.8514 14.547 28.5743 15.2593C30.2972 15.9715 31.7703 17.1786 32.8073 18.728C33.8444 20.2773 34.3988 22.0993 34.4005 23.9636C34.4017 24.6812 34.3177 25.3965 34.1503 26.0943C33.9986 26.7625 33.7699 27.4109 33.4689 28.0265Z" fill="white"/>
<path fill-rule="evenodd" clip-rule="evenodd" d="M60.559 23.97C60.559 30.0286 55.6476 34.94 49.589 34.94C43.5305 34.94 38.619 30.0286 38.619 23.97C38.619 17.9114 43.5305 13 49.589 13C55.6476 13 60.559 17.9114 60.559 23.97ZM45.8112 29.3375C45.8112 29.3375 42.526 28.1031 46.6325 23.1131C47.1869 22.4393 47.6268 21.8533 47.9729 21.3436V18.7315C47.9729 18.1678 48.4299 17.7108 48.9936 17.7108H49.6533C50.2171 17.7108 50.6741 18.1678 50.6741 18.7315V21.1461C51.0481 21.7009 51.5342 22.3512 52.1611 23.1131C56.1073 27.9084 53.1026 29.3375 53.1026 29.3375H45.8112ZM45.8112 29.3375L45.6316 29.8153L45.7184 29.8479H53.2178L53.3218 29.7984L53.1026 29.3375C53.3218 29.7984 53.3223 29.7982 53.3227 29.798L53.3236 29.7976L53.3257 29.7966L53.3306 29.7942L53.3438 29.7875C53.354 29.7823 53.367 29.7755 53.3824 29.7669C53.4133 29.7499 53.4541 29.7259 53.5024 29.6946C53.5986 29.6319 53.7259 29.5386 53.8619 29.4094C54.1346 29.1504 54.4462 28.7437 54.6045 28.1564C54.9254 26.9659 54.5721 25.2397 52.5552 22.7888C51.9846 22.0953 51.5356 21.4997 51.1844 20.9889V18.7315C51.1844 17.8859 50.4989 17.2004 49.6533 17.2004H48.9936C48.148 17.2004 47.4625 17.8859 47.4625 18.7315V21.1854C47.1406 21.6498 46.7382 22.1813 46.2384 22.7888C44.1476 25.3293 43.8058 27.0716 44.1973 28.2567C44.3899 28.8397 44.7437 29.2273 45.0445 29.4663C45.1949 29.5857 45.3342 29.6699 45.4384 29.7254C45.4907 29.7532 45.5348 29.7741 45.5678 29.7888C45.5843 29.7961 45.5981 29.8019 45.6089 29.8063L45.6227 29.8118L45.6278 29.8138L45.6299 29.8146L45.6308 29.815C45.6312 29.8151 45.6316 29.8153 45.8112 29.3375ZM48.6777 23.8179C48.9047 23.8179 49.0887 23.6339 49.0887 23.4069C49.0887 23.1798 48.9047 22.9958 48.6777 22.9958C48.4507 22.9958 48.2666 23.1798 48.2666 23.4069C48.2666 23.6339 48.4507 23.8179 48.6777 23.8179ZM50.2769 21.6853C50.2769 21.9772 50.0403 22.2138 49.7484 22.2138C49.4566 22.2138 49.2199 21.9772 49.2199 21.6853C49.2199 21.3934 49.4566 21.1568 49.7484 21.1568C50.0403 21.1568 50.2769 21.3934 50.2769 21.6853ZM46.3662 24.5224C43.6677 28.3016 45.9129 28.8678 45.9129 28.8678H52.9175C52.9175 28.8678 55.0208 28.1502 52.4497 24.5224H46.3662ZM47.9729 26.754C48.427 26.754 48.795 26.3859 48.795 25.9319C48.795 25.4779 48.427 25.1098 47.9729 25.1098C47.5189 25.1098 47.1508 25.4779 47.1508 25.9319C47.1508 26.3859 47.5189 26.754 47.9729 26.754ZM51.0265 27.9281C51.3508 27.9281 51.6137 27.6652 51.6137 27.3409C51.6137 27.0166 51.3508 26.7537 51.0265 26.7537C50.7022 26.7537 50.4393 27.0166 50.4393 27.3409C50.4393 27.6652 50.7022 27.9281 51.0265 27.9281Z" fill="white"/>
<path d="M53.2939 48.7273C52.4121 48.1764 51.4168 47.7976 50.3696 47.6143V45.6722C50.5712 45.7629 50.753 45.887 50.9057 46.0382C51.0581 46.2391 51.181 46.4576 51.2712 46.6881L53.9519 46.2997C53.8096 45.6378 53.4149 45.0444 52.839 44.6265C52.1242 44.1627 51.2766 43.9029 50.4021 43.8795V43.2222H49.3217V43.8795C48.3289 43.8772 47.3695 44.2093 46.6248 44.8132C46.3316 45.0631 46.0996 45.3675 45.9441 45.7063C45.7887 46.045 45.7133 46.4102 45.7232 46.7777C45.6994 47.3074 45.8587 47.8303 46.1781 48.2717C46.4465 48.6318 46.8136 48.9204 47.2422 49.1083C47.9129 49.3794 48.6089 49.5944 49.3217 49.7506V52.0961C49.0338 51.9851 48.7819 51.8076 48.5906 51.5807C48.4124 51.29 48.2966 50.9705 48.2494 50.6395L45.3333 50.9533C45.4036 51.3484 45.532 51.7328 45.715 52.0961C45.9018 52.4219 46.1524 52.7131 46.4542 52.9551C46.7853 53.234 47.1713 53.4521 47.5915 53.5975C48.1504 53.7725 48.7323 53.878 49.3217 53.9112V55.1587H50.3696V53.9038C50.8786 53.8916 51.3837 53.8188 51.8724 53.6872C52.2929 53.5554 52.6858 53.3583 53.034 53.1045C53.4024 52.825 53.7086 52.4826 53.9356 52.0961C54.166 51.685 54.2858 51.229 54.2849 50.7665C54.2943 50.3803 54.2103 49.997 54.0389 49.6444C53.8675 49.2917 53.6131 48.9785 53.2939 48.7273ZM49.3217 47.3454C49.075 47.2846 48.8524 47.1602 48.68 46.9869C48.5535 46.8407 48.4874 46.6582 48.4931 46.4715C48.4886 46.2953 48.5519 46.1233 48.6719 45.9859C48.8465 45.8145 49.0727 45.6949 49.3217 45.6423V47.3454ZM51.2712 51.7525C51.0248 51.9756 50.7103 52.1241 50.3696 52.1783V50.042C50.7246 50.1343 51.0504 50.3033 51.32 50.535C51.4669 50.6933 51.5475 50.8946 51.5474 51.1027C51.5469 51.3434 51.4484 51.5752 51.2712 51.7525Z" fill="white"/>
<path d="M49.5913 38C48.1504 38 46.7236 38.2838 45.3924 38.8352C44.0612 39.3866 42.8516 40.1948 41.8327 41.2137C40.8139 42.2326 40.0056 43.4421 39.4542 44.7734C38.9028 46.1046 38.619 47.5314 38.619 48.9723C38.619 50.4132 38.9028 51.8399 39.4542 53.1712C40.0056 54.5024 40.8139 55.712 41.8327 56.7308C42.8516 57.7497 44.0612 58.5579 45.3924 59.1093C46.7236 59.6607 48.1504 59.9445 49.5913 59.9445C50.1692 59.9468 50.7463 59.9006 51.3165 59.8065C51.8773 59.714 52.4308 59.5814 52.9727 59.4097C54.6179 58.8677 56.1128 57.9468 57.3369 56.7212C58.5611 55.4956 59.4801 53.9996 60.0201 52.3537C60.1918 51.8118 60.3244 51.2583 60.4169 50.6975C60.506 50.1267 60.5521 49.55 60.5549 48.9723C60.5504 46.0651 59.3941 43.2782 57.3392 41.2218C55.2844 39.1653 52.4984 38.0068 49.5913 38ZM58.0879 53.0265C57.1587 54.9797 55.5833 56.5521 53.6282 57.4775C52.367 58.0786 50.9885 58.3938 49.5913 58.4005C47.7269 58.4005 45.9044 57.8477 44.3541 56.8121C42.8039 55.7765 41.5954 54.3045 40.8816 52.5823C40.1677 50.86 39.9805 48.9647 40.3436 47.1361C40.7067 45.3074 41.6038 43.6275 42.9215 42.3086C44.2392 40.9897 45.9183 40.091 47.7466 39.7263C49.575 39.3615 51.4704 39.547 53.1933 40.2593C54.9163 40.9715 56.3893 42.1786 57.4264 43.728C58.4634 45.2773 59.0178 47.0993 59.0195 48.9636C59.0207 49.6812 58.9368 50.3965 58.7693 51.0943C58.6176 51.7625 58.3889 52.4109 58.0879 53.0265Z" fill="white"/>
<path fill-rule="evenodd" clip-rule="evenodd" d="M25.1905 60.127C31.3708 60.127 36.381 55.1169 36.381 48.9366C36.381 42.7562 31.3708 37.7461 25.1905 37.7461C19.0101 37.7461 14 42.7562 14 48.9366C14 55.1169 19.0101 60.127 25.1905 60.127ZM23.7876 53.5476L23.8442 53.5517L23.9027 53.5495C24.0963 53.5463 24.2824 53.5 24.4496 53.4193C24.6255 53.3344 24.7735 53.2152 24.89 53.078L24.8916 53.0762L30.1743 46.8006L30.2107 46.7438C30.3755 46.4862 30.4478 46.1868 30.4303 45.8956C30.4129 45.6044 30.3043 45.3051 30.0905 45.0617C29.8734 44.8144 29.5573 44.6395 29.1909 44.6154C28.8247 44.5913 28.488 44.7229 28.2395 44.9394L28.1796 44.9916L23.9217 50.0407L21.9006 47.5024L21.8868 47.4865C21.655 47.2186 21.3089 47.0354 20.9124 47.0302C20.5175 47.0251 20.1709 47.1974 19.9335 47.4492C19.6996 47.6973 19.5761 48.0127 19.5562 48.3236C19.5362 48.6346 19.6183 48.9634 19.8195 49.2391L19.8323 49.2566L22.8529 53.0503L22.854 53.0517C23.0692 53.3223 23.3983 53.5196 23.7876 53.5476Z" fill="white"/>
</svg>
