<svg width="74" height="74" viewBox="0 0 74 74" fill="none" xmlns="http://www.w3.org/2000/svg">
<path d="M17.6168 24.7786C18.4839 25.3564 19.5024 25.6685 20.5458 25.677L20.5458 25.6772C21.2495 25.6829 21.9474 25.5504 22.5995 25.2872C23.2515 25.0239 23.8448 24.6351 24.345 24.1429C24.8452 23.6508 25.2424 23.065 25.5136 22.4193C25.7848 21.7736 25.9244 21.0809 25.9244 20.3812C25.9244 19.3335 25.6114 18.3096 25.0253 17.4389C24.4393 16.5682 23.6067 15.89 22.6333 15.4892C21.6598 15.0884 20.5887 14.9829 19.5551 15.1858C18.5214 15.3886 17.571 15.8909 16.8241 16.6298C16.0772 17.3688 15.5673 18.3112 15.3595 19.3383C15.1516 20.3655 15.2554 21.4307 15.6574 22.3991C16.0595 23.3676 16.7415 24.1954 17.6168 24.7786ZM14.1547 14.1704C15.8551 12.4743 18.1638 11.5138 20.5768 11.5C22.9906 11.5106 25.301 12.4699 27.002 14.1666C28.7021 15.8624 29.6547 18.1565 29.6529 20.5462C29.6143 22.1382 29.2701 23.7084 28.6387 25.1726C26.27 29.6973 23.5761 34.0468 20.578 38.1873C17.5995 34.0425 14.9253 29.6903 12.5762 25.1644C11.8827 23.7223 11.5154 22.1475 11.5 20.5501C11.5006 18.16 12.4545 15.8664 14.1547 14.1704Z" fill="white" stroke="white"/>
<path d="M47.6611 46.4405C48.4849 46.9865 49.4246 47.3279 50.4014 47.4412L50.36 47.5437L51.0951 47.5489C51.923 47.5547 52.7437 47.3965 53.5094 47.0835C54.275 46.7705 54.9703 46.3089 55.5542 45.7256C56.1382 45.1424 56.5991 44.4491 56.9098 43.6863C57.22 42.9247 57.3742 42.1092 57.3631 41.2875C57.3624 40.0632 56.9961 38.8668 56.3108 37.8494C55.6249 36.8311 54.6504 36.0381 53.511 35.5699C52.3717 35.1017 51.1182 34.9793 49.909 35.2179C48.6997 35.4565 47.5884 36.0456 46.7158 36.9113C45.8431 37.777 45.2483 38.8804 45.0073 40.0823C44.7663 41.2842 44.89 42.53 45.3627 43.6619C45.8353 44.7938 46.6354 45.7606 47.6611 46.4405ZM43.4536 33.8628C45.4852 31.8356 48.2437 30.6876 51.1269 30.6707C52.5608 30.6692 53.9808 30.948 55.3058 31.4911C56.6312 32.0343 57.8353 32.8312 58.8495 33.8361C59.8637 34.841 60.668 36.0342 61.2168 37.3472C61.7643 38.6575 62.0467 40.0617 62.0478 41.4798C61.9785 43.3885 61.5447 45.267 60.7693 47.0155C57.9328 52.4195 54.7103 57.6151 51.1264 62.5624C47.5635 57.6139 44.3656 52.4163 41.5578 47.01C40.7305 45.2835 40.2951 43.3983 40.2822 41.487C40.2826 38.6307 41.4222 35.8897 43.4536 33.8628Z" fill="white" stroke="white"/>
<path d="M20.5361 39.0381C21.5718 38.6479 22.6509 38.3825 23.7504 38.2476" stroke="white" stroke-width="2" stroke-miterlimit="10"/>
<path d="M30.3255 38.9326C31.6796 39.4804 32.9151 40.2811 33.9648 41.2911C39.6496 46.759 18.4512 53.1493 25.3978 62.2537C28.4129 66.2065 37.976 65.6004 44.5374 64.6385" stroke="white" stroke-width="2" stroke-miterlimit="10" stroke-dasharray="5.03 5.03"/>
<path d="M47.8315 64.0851C49.8106 63.7163 51.0724 63.4133 51.0724 63.4133" stroke="white" stroke-width="2" stroke-miterlimit="10"/>
</svg>
