<svg width="46" height="46" viewBox="0 0 46 46" fill="none" xmlns="http://www.w3.org/2000/svg">
<path d="M12.6369 14.7066V18.584H12.0779V14.0814H12.5889L12.6369 14.7066ZM14.8281 15.6805V15.7436C14.8281 15.98 14.8001 16.1995 14.744 16.4018C14.6879 16.6022 14.6057 16.7766 14.4975 16.9248C14.3913 17.0731 14.26 17.1883 14.1037 17.2705C13.9474 17.3527 13.7681 17.3937 13.5657 17.3937C13.3593 17.3937 13.177 17.3597 13.0187 17.2915C12.8604 17.2234 12.7261 17.1242 12.6159 16.994C12.5057 16.8637 12.4175 16.7074 12.3514 16.5251C12.2873 16.3427 12.2432 16.1373 12.2192 15.9089V15.5723C12.2432 15.3318 12.2883 15.1164 12.3544 14.926C12.4205 14.7357 12.5077 14.5734 12.6159 14.4391C12.7261 14.3028 12.8594 14.1996 13.0157 14.1295C13.172 14.0574 13.3523 14.0213 13.5567 14.0213C13.7611 14.0213 13.9424 14.0614 14.1007 14.1415C14.259 14.2197 14.3923 14.3319 14.5005 14.4782C14.6087 14.6245 14.6899 14.7998 14.744 15.0042C14.8001 15.2066 14.8281 15.432 14.8281 15.6805ZM14.2691 15.7436V15.6805C14.2691 15.5182 14.252 15.3659 14.218 15.2236C14.1839 15.0793 14.1308 14.9531 14.0587 14.8449C13.9885 14.7347 13.8984 14.6485 13.7881 14.5864C13.6779 14.5223 13.5467 14.4902 13.3944 14.4902C13.2541 14.4902 13.1319 14.5142 13.0277 14.5623C12.9255 14.6104 12.8383 14.6756 12.7662 14.7577C12.6941 14.8379 12.6349 14.93 12.5889 15.0342C12.5448 15.1364 12.5117 15.2426 12.4897 15.3528V16.1313C12.5297 16.2716 12.5858 16.4038 12.658 16.5281C12.7301 16.6503 12.8263 16.7495 12.9465 16.8257C13.0668 16.8998 13.2181 16.9369 13.4004 16.9369C13.5507 16.9369 13.6799 16.9058 13.7881 16.8437C13.8984 16.7796 13.9885 16.6924 14.0587 16.5822C14.1308 16.472 14.1839 16.3457 14.218 16.2035C14.252 16.0592 14.2691 15.9059 14.2691 15.7436Z" fill="white"/>
<path d="M18.5241 14.8389V15.3108H16.1555V14.8389H18.5241ZM16.2457 12.9573V17.3336H15.6656V12.9573H16.2457ZM19.029 12.9573V17.3336H18.4519V12.9573H19.029Z" fill="white"/>
<path d="M15.4668 9C14.6176 9 13.7767 9.16727 12.9921 9.49226C12.2075 9.81725 11.4946 10.2936 10.8941 10.8941C10.2936 11.4946 9.81725 12.2075 9.49226 12.9921C9.16727 13.7767 9 14.6176 9 15.4668C9 16.3161 9.16727 17.157 9.49226 17.9416C9.81725 18.7262 10.2936 19.4391 10.8941 20.0396C11.4946 20.6401 12.2075 21.1164 12.9921 21.4414C13.7767 21.7664 14.6176 21.9337 15.4668 21.9337C15.8074 21.935 16.1476 21.9078 16.4836 21.8523C16.8142 21.7978 17.1404 21.7197 17.4597 21.6184C18.4294 21.299 19.3105 20.7562 20.032 20.0339C20.7534 19.3115 21.2951 18.4298 21.6134 17.4597C21.7146 17.1404 21.7927 16.8142 21.8472 16.4836C21.8997 16.1472 21.9269 15.8073 21.9286 15.4668C21.9259 13.7534 21.2444 12.1109 20.0333 10.8989C18.8222 9.68681 17.1802 9.00403 15.4668 9ZM20.4745 17.8563C19.9269 19.0075 18.9984 19.9342 17.8461 20.4796C17.1028 20.8339 16.2903 21.0197 15.4668 21.0236C14.368 21.0236 13.2939 20.6978 12.3802 20.0875C11.4665 19.4771 10.7542 18.6096 10.3335 17.5945C9.91278 16.5794 9.80244 15.4624 10.0164 14.3846C10.2304 13.3068 10.7592 12.3167 11.5358 11.5394C12.3124 10.762 13.3021 10.2324 14.3796 10.0174C15.4572 9.80244 16.5743 9.91176 17.5898 10.3316C18.6053 10.7514 19.4735 11.4628 20.0847 12.3759C20.6959 13.2891 21.0226 14.3629 21.0236 15.4617C21.0243 15.8847 20.9749 16.3062 20.8762 16.7175C20.7868 17.1113 20.652 17.4935 20.4745 17.8563Z" fill="white"/>
<path d="M28.9834 17.4739C29.2524 17.4739 29.4705 17.2558 29.4705 16.9868C29.4705 16.7178 29.2524 16.4997 28.9834 16.4997C28.7144 16.4997 28.4963 16.7178 28.4963 16.9868C28.4963 17.2558 28.7144 17.4739 28.9834 17.4739Z" fill="white"/>
<path d="M30.7927 18.1696C30.9848 18.1696 31.1406 18.0138 31.1406 17.8217C31.1406 17.6295 30.9848 17.4737 30.7927 17.4737C30.6005 17.4737 30.4447 17.6295 30.4447 17.8217C30.4447 18.0138 30.6005 18.1696 30.7927 18.1696Z" fill="white"/>
<path fill-rule="evenodd" clip-rule="evenodd" d="M27.7025 19.0047C27.7025 19.0047 25.7559 18.2733 28.1891 15.3166C28.5176 14.9174 28.7783 14.5702 28.9833 14.2682V12.7204C28.9833 12.3864 29.2541 12.1156 29.5882 12.1156H29.979C30.3131 12.1156 30.5839 12.3864 30.5839 12.7204V14.1511C30.8055 14.4799 31.0935 14.8651 31.465 15.3166C33.8032 18.1579 32.0228 19.0047 32.0228 19.0047H27.7025ZM29.401 15.7342C29.5355 15.7342 29.6445 15.6252 29.6445 15.4907C29.6445 15.3562 29.5355 15.2471 29.401 15.2471C29.2664 15.2471 29.1574 15.3562 29.1574 15.4907C29.1574 15.6252 29.2664 15.7342 29.401 15.7342ZM30.3486 14.4706C30.3486 14.6435 30.2084 14.7837 30.0354 14.7837C29.8625 14.7837 29.7223 14.6435 29.7223 14.4706C29.7223 14.2976 29.8625 14.1574 30.0354 14.1574C30.2084 14.1574 30.3486 14.2976 30.3486 14.4706ZM28.0314 16.1516C26.4324 18.3909 27.7628 18.7264 27.7628 18.7264H31.9132C31.9132 18.7264 33.1594 18.3012 31.636 16.1516H28.0314Z" fill="white"/>
<path fill-rule="evenodd" clip-rule="evenodd" d="M36.4409 15.8243C36.4409 19.4142 33.5308 22.3243 29.9409 22.3243C26.3511 22.3243 23.4409 19.4142 23.4409 15.8243C23.4409 12.2345 26.3511 9.32434 29.9409 9.32434C33.5308 9.32434 36.4409 12.2345 36.4409 15.8243ZM27.7025 19.0047L27.5961 19.2878L27.6475 19.3072H32.0911L32.1527 19.2778L32.0228 19.0047C32.1527 19.2778 32.1525 19.278 32.1527 19.2778L32.1538 19.2773L32.155 19.2767L32.1579 19.2753L32.1658 19.2714C32.1718 19.2683 32.1795 19.2642 32.1886 19.2592C32.2069 19.2491 32.2311 19.2349 32.2597 19.2163C32.3167 19.1792 32.3921 19.1238 32.4727 19.0473C32.6343 18.8939 32.8189 18.6529 32.9127 18.3049C33.1029 17.5995 32.8936 16.5766 31.6985 15.1244C31.3604 14.7136 31.0944 14.3606 30.8863 14.0579V12.7204C30.8863 12.2194 30.4801 11.8132 29.979 11.8132H29.5882C29.0871 11.8132 28.6809 12.2194 28.6809 12.7204V14.1744C28.4902 14.4496 28.2518 14.7645 27.9556 15.1244C26.7168 16.6298 26.5143 17.6621 26.7462 18.3643C26.8603 18.7097 27.07 18.9394 27.2482 19.081C27.3373 19.1518 27.4198 19.2017 27.4816 19.2345C27.5126 19.251 27.5387 19.2634 27.5583 19.2721C27.5681 19.2765 27.5762 19.2799 27.5826 19.2825L27.5908 19.2858L27.5938 19.287L27.595 19.2874L27.5961 19.2878C27.5964 19.2879 27.5961 19.2878 27.7025 19.0047Z" fill="white"/>
<path d="M32.159 30.0569C31.6393 29.7322 31.0527 29.509 30.4355 29.401V28.2563C30.5544 28.3098 30.6615 28.3829 30.7515 28.472C30.8413 28.5905 30.9137 28.7192 30.9669 28.8551L32.5468 28.6261C32.463 28.236 32.2304 27.8863 31.8909 27.64C31.4696 27.3666 30.9701 27.2135 30.4547 27.1997V26.8123H29.8179V27.1997C29.2328 27.1984 28.6673 27.3941 28.2284 27.75C28.0556 27.8973 27.9189 28.0768 27.8272 28.2764C27.7356 28.476 27.6912 28.6913 27.697 28.9079C27.683 29.2201 27.7769 29.5283 27.9651 29.7884C28.1233 30.0006 28.3397 30.1707 28.5923 30.2815C28.9876 30.4413 29.3978 30.568 29.8179 30.6601V32.0424C29.6482 31.977 29.4998 31.8724 29.387 31.7387C29.282 31.5673 29.2137 31.379 29.186 31.184L27.4672 31.3689C27.5087 31.6017 27.5844 31.8283 27.6922 32.0424C27.8023 32.2344 27.95 32.4061 28.1279 32.5487C28.323 32.7131 28.5505 32.8416 28.7982 32.9273C29.1276 33.0305 29.4706 33.0926 29.8179 33.1122V33.8474H30.4355V33.1078C30.7355 33.1007 31.0332 33.0578 31.3212 32.9802C31.5691 32.9025 31.8006 32.7863 32.0058 32.6368C32.223 32.472 32.4035 32.2702 32.5373 32.0424C32.6731 31.8001 32.7437 31.5314 32.7431 31.2588C32.7487 31.0312 32.6992 30.8053 32.5982 30.5974C32.4971 30.3896 32.3472 30.205 32.159 30.0569ZM29.8179 29.2425C29.6725 29.2066 29.5413 29.1333 29.4397 29.0312C29.3652 28.945 29.3262 28.8374 29.3296 28.7274C29.3269 28.6236 29.3642 28.5222 29.4349 28.4412C29.5378 28.3402 29.6712 28.2697 29.8179 28.2387V29.2425ZM30.9669 31.8399C30.8217 31.9714 30.6363 32.0589 30.4355 32.0909V30.8318C30.6447 30.8862 30.8368 30.9858 30.9957 31.1223C31.0822 31.2156 31.1298 31.3343 31.1297 31.4569C31.1294 31.5988 31.0713 31.7354 30.9669 31.8399Z" fill="white"/>
<path d="M29.9768 23.7345C29.1275 23.7345 28.2866 23.9018 27.502 24.2268C26.7174 24.5517 26.0045 25.0281 25.404 25.6286C24.8035 26.2291 24.3272 26.942 24.0022 27.7266C23.6772 28.5112 23.5099 29.3521 23.5099 30.2013C23.5099 31.0506 23.6772 31.8915 24.0022 32.6761C24.3272 33.4607 24.8035 34.1736 25.404 34.7741C26.0045 35.3746 26.7174 35.8509 27.502 36.1759C28.2866 36.5009 29.1275 36.6681 29.9768 36.6681C30.3174 36.6695 30.6575 36.6423 30.9936 36.5868C31.3241 36.5323 31.6503 36.4542 31.9697 36.3529C32.9394 36.0335 33.8204 35.4907 34.5419 34.7684C35.2634 34.046 35.8051 33.1643 36.1233 32.1942C36.2245 31.8749 36.3027 31.5487 36.3572 31.2181C36.4097 30.8817 36.4368 30.5418 36.4385 30.2013C36.4358 28.4879 35.7543 26.8454 34.5433 25.6333C33.3322 24.4213 31.6902 23.7385 29.9768 23.7345ZM34.9845 32.5908C34.4368 33.742 33.5083 34.6687 32.3561 35.2141C31.6127 35.5684 30.8003 35.7542 29.9768 35.7581C28.878 35.7581 27.8038 35.4323 26.8901 34.822C25.9764 34.2116 25.2642 33.3441 24.8435 32.329C24.4227 31.3139 24.3124 30.1969 24.5264 29.1191C24.7404 28.0413 25.2691 27.0512 26.0457 26.2739C26.8224 25.4965 27.812 24.9669 28.8896 24.7519C29.9672 24.5369 31.0843 24.6463 32.0997 25.0661C33.1152 25.4859 33.9834 26.1973 34.5946 27.1104C35.2058 28.0236 35.5326 29.0974 35.5336 30.1962C35.5343 30.6192 35.4848 31.0407 35.3861 31.452C35.2967 31.8458 35.1619 32.228 34.9845 32.5908Z" fill="white"/>
<path fill-rule="evenodd" clip-rule="evenodd" d="M15.9409 36.3243C19.5308 36.3243 22.4409 33.4142 22.4409 29.8243C22.4409 26.2345 19.5308 23.3243 15.9409 23.3243C12.3511 23.3243 9.44095 26.2345 9.44095 29.8243C9.44095 33.4142 12.3511 36.3243 15.9409 36.3243ZM15.1261 32.5027L15.159 32.505L15.1929 32.5038C15.3054 32.5019 15.4135 32.475 15.5106 32.4281C15.6128 32.3788 15.6987 32.3096 15.7664 32.2299L15.7674 32.2288L18.8358 28.5837L18.8569 28.5507C18.9527 28.4011 18.9947 28.2271 18.9845 28.058C18.9744 27.8889 18.9113 27.715 18.7871 27.5736C18.661 27.43 18.4774 27.3284 18.2646 27.3144C18.0519 27.3004 17.8563 27.3768 17.712 27.5026L17.6772 27.5329L15.204 30.4656L14.03 28.9913L14.022 28.9821C13.8874 28.8265 13.6863 28.72 13.456 28.717C13.2266 28.714 13.0253 28.8142 12.8874 28.9604C12.7515 29.1045 12.6799 29.2877 12.6683 29.4683C12.6567 29.649 12.7044 29.8399 12.8212 30.0001L12.8286 30.0102L14.5832 32.2138L14.5838 32.2146C14.7088 32.3718 14.9 32.4864 15.1261 32.5027Z" fill="white"/>
</svg>
